<svg viewBox="0 0 24 24" xmlns="http://www.w3.org/2000/svg"><g><path opacity=".25" fill="#12131A" fill-rule="evenodd" d="M22 9c0-.01 0-.01 0-.01 0-3.32-2.69-6-6-6 -1.54 0-2.94.57-4 1.52 -1.07-.96-2.47-1.53-4-1.53 -3.32 0-6 2.68-6 6 0 0 0 0 0 0 0 7.35 6.67 10.8 9.116 11.82 .56.23 1.19.23 1.76 0 2.44-1.02 9.116-4.48 9.116-11.83Z"/><path fill="#12131A" d="M21.82 11h-4.67L15.9 8.1c-.16-.37-.52-.61-.92-.61 -.41 0-.77.23-.92.6l-2.09 4.85 -.59-1.36c-.16-.37-.52-.61-.92-.61H2.13c.12.7.31 1.37.55 2h7.1l1.24 2.89c.15.36.51.6.91.6s.76-.24.91-.61l2.08-4.86 .58 1.35c.15.36.51.6.91.6h4.76c.24-.63.43-1.3.55-2Z"/></g></svg>