<svg viewBox="0 0 24 24" xmlns="http://www.w3.org/2000/svg"><g><g fill="#12131A"><path opacity=".25" d="M19 6H5v13c0 1.65 1.34 3 3 3h8c1.65 0 3-1.35 3-3V6Z"/><g fill="#12131A" fill-rule="evenodd"><path d="M12 12c-.56 0-1 .44-1 1v1h-1c-.56 0-1 .44-1 1 0 .55.44 1 1 1h1v1c0 .55.44 1 1 1 .55 0 1-.45 1-1v-1h1c.55 0 1-.45 1-1 0-.56-.45-1-1-1h-1v-1c0-.56-.45-1-1-1Z"/><path d="M4 4c0-1.11.89-2 2-2h12c1.1 0 2 .89 2 2v2c0 1.1-.9 2-2 2h-2.5c-.28 0-.5-.23-.5-.5V7c0-.56-.45-1-1-1 -.56 0-1 .44-1 1v.5c0 .27-.23.5-.5.5h-1c-.28 0-.5-.23-.5-.5V7c0-.56-.45-1-1-1 -.56 0-1 .44-1 1v.5c0 .27-.23.5-.5.5H6c-1.11 0-2-.9-2-2V4Z"/></g></g></g></svg>