<svg viewBox="0 0 24 24" xmlns="http://www.w3.org/2000/svg"><g><path opacity=".25" fill="#12131A" fill-rule="evenodd" d="M8 12c.55 0 1 .44 1 1v2c0 2.2 1.79 4 4 4 2.2 0 4-1.8 4-4v-1c0-.56.44-1 1-1 .55 0 1 .44 1 1v1c0 3.31-2.69 6-6 6 -3.32 0-6-2.69-6-6v-2c0-.56.44-1 1-1Z"/><g fill="#12131A"><path d="M21 12c0 1.65-1.35 3-3 3 -1.66 0-3-1.35-3-3 0-1.66 1.34-3 3-3 1.65 0 3 1.34 3 3Z"/><path fill="#12131A" fill-rule="evenodd" d="M5.5 5c-.28 0-.5.22-.5.5V9c0 1.65 1.34 3 3 3 1.65 0 3-1.35 3-3V5.5c0-.28-.23-.5-.5-.5H10c-.56 0-1-.45-1-1 0-.56.44-1 1-1h.5C11.88 3 13 4.11 13 5.5V9c0 2.76-2.24 5-5 5 -2.77 0-5-2.24-5-5V5.5C3 4.11 4.11 3 5.5 3H6c.55 0 1 .44 1 1 0 .55-.45 1-1 1h-.5Z"/></g></g></svg>