<svg viewBox="0 0 24 24" xmlns="http://www.w3.org/2000/svg"><g><g fill="#12131A"><path d="M4.91 17.67l.23 1.17 1.17.23 -1.63 1.62c-.4.39-1.03.39-1.42 0 -.4-.4-.4-1.03 0-1.42l1.62-1.63Z"/><path opacity=".25" d="M11.7 4.29c-.4-.4-1.03-.4-1.42 0 -.4.39-.4 1.02 0 1.41l.29.29 -4.78 4.77c-1.19 1.18-1.7 2.87-1.37 4.51l.71 3.55 3.55.71c1.63.32 3.33-.19 4.51-1.37l4.77-4.78 .29.29c.39.39 1.02.39 1.41 0 .39-.4.39-1.03 0-1.42l-8-8.01Z"/><path fill="#12131A" fill-rule="evenodd" d="M13.7 12.29c-.4-.4-1.03-.4-1.42 0 -.4.39-.4 1.02 0 1.41l1 1c.39.39 1.02.39 1.41 0 .39-.4.39-1.03 0-1.42l-1-1Zm-2.5 2.5c-.4-.4-1.03-.4-1.42 0 -.4.39-.4 1.02 0 1.41l1 1c.39.39 1.02.39 1.41 0 .39-.4.39-1.03 0-1.42l-1-1Z"/><path d="M15.29 3.29c.39-.4 1.02-.4 1.41 0l4 4c.39.39.39 1.02 0 1.41 -.4.39-1.03.39-1.42 0l-1.3-1.3 -1.59 1.58 -1.42-1.42 1.58-1.59 -1.3-1.3c-.4-.4-.4-1.03 0-1.42Z"/></g></g></svg>