<svg viewBox="0 0 24 24" xmlns="http://www.w3.org/2000/svg"><g><g fill="#12131A"><path opacity=".25" d="M2 7.2c0-1.13 0-1.69.21-2.11 .19-.38.49-.69.87-.88 .42-.22.98-.22 2.1-.22h13.6c1.12 0 1.68 0 2.1.21 .37.19.68.49.87.87 .21.42.21.98.21 2.1v3.6c0 1.12 0 1.68-.22 2.1 -.2.37-.5.68-.88.87 -.43.21-.99.21-2.11.21H5.15c-1.13 0-1.69 0-2.11-.22 -.38-.2-.69-.5-.88-.88 -.22-.43-.22-.99-.22-2.11v-3.6Z"/><path fill="#12131A" fill-rule="evenodd" d="M7.1 9.54c-.11.21-.11.49-.11 1.05v6.2c0 1.12 0 1.68.21 2.1 .19.37.49.68.87.87 .42.21.98.21 2.1.21h1.8v-11h-3.4c-.57 0-.85 0-1.06.1 -.19.09-.35.24-.44.43Zm6.89-.55v10.99c.98-.01 1.5-.02 1.9-.22 .37-.2.68-.5.87-.88 .21-.43.21-.99.21-2.11v-6.2c0-.57 0-.85-.11-1.06 -.1-.19-.25-.35-.44-.44 -.22-.11-.5-.11-1.06-.11h-1.4Z"/></g></g></svg>