<svg viewBox="0 0 24 24" xmlns="http://www.w3.org/2000/svg"><g><g fill="#12131A" fill-rule="evenodd"><path d="M7.1 10.546c-.11.21-.11.49-.11 1.05v5.2c0 1.12 0 1.68.21 2.1 .19.37.49.68.87.87 .42.21.98.21 2.1.21h1.8v-10h-3.4c-.57 0-.85 0-1.06.1 -.19.09-.35.24-.44.43Zm6.89-.55v9.99c.98-.01 1.5-.02 1.9-.22 .37-.2.68-.5.87-.88 .21-.43.21-.99.21-2.11v-5.2c0-.57 0-.85-.11-1.06 -.1-.19-.25-.35-.44-.44 -.22-.11-.5-.11-1.06-.11h-1.4Z"/><path d="M2.21 5.09c-.22.42-.22.98-.22 2.1v3.6c0 1.12 0 1.68.21 2.1 .19.37.49.68.87.87 .4.2.91.21 1.9.21v-1.2c0-1.69 0-2.53.32-3.17 .28-.57.74-1.03 1.31-1.32 .64-.33 1.48-.33 3.16-.33h4.4c1.68 0 2.52 0 3.16.32 .56.28 1.02.74 1.31 1.31 .32.64.32 1.48.32 3.16v1.19c.98-.01 1.5-.02 1.9-.22 .37-.2.68-.5.87-.88 .21-.43.21-.99.21-2.11v-3.6c0-1.13 0-1.69-.22-2.11 -.2-.38-.5-.69-.88-.88 -.43-.22-.99-.22-2.11-.22H5.12c-1.13 0-1.69 0-2.11.21 -.38.19-.69.49-.88.87Z"/></g></g></svg>