<svg viewBox="0 0 24 24" xmlns="http://www.w3.org/2000/svg"><g><g fill="#12131A"><path opacity=".25" d="M2 8.8c0-1.69 0-2.53.32-3.17 .28-.57.74-1.03 1.31-1.32 .64-.33 1.48-.33 3.16-.33h10.4c1.68 0 2.52 0 3.16.32 .56.28 1.02.74 1.31 1.31 .32.64.32 1.48.32 3.16v6.4c0 1.68 0 2.52-.33 3.16 -.29.56-.75 1.02-1.32 1.31 -.65.32-1.49.32-3.17.32H6.76c-1.69 0-2.53 0-3.17-.33 -.57-.29-1.03-.75-1.32-1.32 -.33-.65-.33-1.49-.33-3.17v-6.4Z"/><path d="M18.53 15.3c.17-.42.75-.42.92 0l.78 1.89c.07.17.23.29.41.3l1.87.16c.42.03.61.56.3.86l-1.43 1.35c-.13.12-.19.3-.15.47l.48 2.01c.1.43-.37.77-.75.54L19.2 21.8c-.16-.1-.37-.1-.53 0l-1.76 1.07c-.38.23-.86-.12-.75-.55l.48-2.02c.04-.18-.02-.36-.15-.48l-1.42-1.36c-.32-.3-.13-.83.3-.86l1.86-.17c.18-.02.34-.14.41-.31l.78-1.9Z"/><path d="M6 15c0-.56.44-1 1-1h4c.55 0 1 .44 1 1 0 .55-.45 1-1 1H7c-.56 0-1-.45-1-1Z"/><path d="M2 8h20v2H2V8Z"/></g></g></svg>