<svg viewBox="0 0 24 24" xmlns="http://www.w3.org/2000/svg"><g><g fill="#12131A"><path opacity=".25" d="M6 7.2c0-1.13 0-1.69.21-2.11 .19-.38.49-.69.87-.88 .42-.22.98-.22 2.1-.22h9.6c1.12 0 1.68 0 2.1.21 .37.19.68.49.87.87 .21.42.21.98.21 2.1v5.6c0 1.12 0 1.68-.22 2.1 -.2.37-.5.68-.88.87 -.43.21-.99.21-2.11.21h-9.6c-1.13 0-1.69 0-2.11-.22 -.38-.2-.69-.5-.88-.88 -.22-.43-.22-.99-.22-2.11v-5.6Z"/><path fill="#12131A" fill-rule="evenodd" d="M2.21 9.09c-.15.27-.2.6-.21 1.1 -.01.27-.02.4.03.51 .04.09.12.17.21.22 .1.05.25.05.53.05h14.39c.28 0 .42 0 .53-.06 .09-.05.17-.14.21-.23 .05-.12.04-.25.03-.52 -.02-.51-.07-.84-.21-1.11 -.2-.38-.5-.69-.88-.88 -.43-.22-.99-.22-2.11-.22h-9.6c-1.13 0-1.69 0-2.11.21 -.38.19-.69.49-.88.87Zm15.78 4.7c0-.28 0-.42-.06-.53 -.05-.1-.13-.18-.22-.22 -.11-.06-.25-.06-.53-.06H2.78c-.29 0-.43 0-.53.05 -.1.04-.18.12-.22.21 -.06.1-.06.24-.06.52v3c0 1.12 0 1.68.21 2.1 .19.37.49.68.87.87 .42.21.98.21 2.1.21h9.6c1.12 0 1.68 0 2.1-.22 .37-.2.68-.5.87-.88 .21-.43.21-.99.21-2.11v-3Z"/></g></g></svg>