<svg viewBox="0 0 24 24" xmlns="http://www.w3.org/2000/svg"><g><g opacity=".25"><g fill="#12131A"><path d="M19.03 6.02c-.29-.03-.66-.03-1.24-.03h-6.8c-.56 0-1-.45-1-1 0-.56.44-1 1-1h6.83c.52-.01.98-.01 1.35.03 .39.03.78.1 1.16.29 .56.28 1.02.74 1.31 1.31 .19.37.26.77.29 1.16 .02.33.03.73.03 1.19v7c0 .55-.45 1-1 1 -.56 0-1-.45-1-1v-5h-4c-.56 0-1-.45-1-1 0-.56.44-1 1-1h3.99c-.01-.47-.01-.79-.03-1.04 -.03-.28-.06-.38-.09-.43 -.1-.19-.25-.35-.44-.44 -.05-.03-.16-.07-.43-.09Z"/><path d="M3.63 4.32c.15-.08.31-.14.5-.19l15.71 15.71c-.59.14-1.38.14-2.66.14H6.78c-1.69 0-2.53 0-3.17-.33 -.57-.29-1.03-.75-1.32-1.32 -.33-.65-.33-1.49-.33-3.17V8.75c0-1.69 0-2.53.32-3.17 .28-.57.74-1.03 1.31-1.32Z"/></g></g><g fill="#12131A"><path d="M6 15c0-.56.44-1 1-1h4c.55 0 1 .44 1 1 0 .55-.45 1-1 1H7c-.56 0-1-.45-1-1Z"/><path d="M10 10L8 8H2v2h8Z"/><path fill="#12131A" fill-rule="evenodd" d="M2.29 2.29c.39-.4 1.02-.4 1.41 0l17.99 18c.39.39.39 1.02 0 1.41 -.4.39-1.03.39-1.42 0L2.26 3.7c-.4-.4-.4-1.03 0-1.42Z"/></g></g></svg>