<svg viewBox="0 0 24 24" xmlns="http://www.w3.org/2000/svg"><g><path fill="#12131A" fill-rule="evenodd" d="M2.8 8c-.29 0-.43 0-.54-.06 -.1-.05-.18-.14-.22-.23 -.06-.12-.05-.25-.04-.52 .02-.7.1-1.17.3-1.56 .28-.57.74-1.03 1.31-1.32 .64-.33 1.48-.33 3.16-.33h10.4c1.68 0 2.52 0 3.16.32 .56.28 1.02.74 1.31 1.31 .2.39.27.86.3 1.55 .01.27.01.4-.04.51 -.05.09-.13.17-.22.22 -.11.05-.26.05-.54.05H2.75Zm-.81 2.8c0-.28 0-.42.05-.53 .04-.1.12-.18.21-.22 .1-.06.24-.06.52-.06h18.4c.28 0 .42 0 .52.05 .09.04.17.12.21.21 .05.1.05.24.05.52v4.4c0 1.68 0 2.52-.33 3.16 -.29.56-.75 1.02-1.32 1.31 -.65.32-1.49.32-3.17.32H6.73c-1.69 0-2.53 0-3.17-.33 -.57-.29-1.03-.75-1.32-1.32 -.33-.65-.33-1.49-.33-3.17v-4.4Zm5 3.2c-.56 0-1 .44-1 1 0 .55.44 1 1 1h4c.55 0 1-.45 1-1 0-.56-.45-1-1-1h-4Z"/></g></svg>