<svg viewBox="0 0 24 24" xmlns="http://www.w3.org/2000/svg"><g><path fill="#12131A" fill-rule="evenodd" d="M6 12c-.56 0-1 .44-1 1v3c-1.11 0-2 .89-2 2v1c0 1.1.89 2 2 2h14c1.1 0 2-.9 2-2v-1c0-1.11-.9-2-2-2v-3c0-.56-.45-1-1-1 -.56 0-1 .44-1 1v3h-2v-3c0-.56-.45-1-1-1 -.56 0-1 .44-1 1v3h-2v-3c0-.56-.45-1-1-1 -.56 0-1 .44-1 1v3H7v-3c0-.56-.45-1-1-1Z"/><path fill="#12131A" d="M3 7.42c0-.86.53-1.62 1.34-1.89l6.99-2.43c.42-.15.88-.15 1.31 0l7 2.42c.8.27 1.34 1.03 1.34 1.88v.57c0 1.1-.9 2-2 2h-14c-1.11 0-2-.9-2-2v-.58Z"/></g></svg>