<svg viewBox="0 0 24 24" xmlns="http://www.w3.org/2000/svg"><g><g fill="#12131A"><path opacity=".25" d="M2 8.8c0-1.69 0-2.53.32-3.17 .28-.57.74-1.03 1.31-1.32 .64-.33 1.48-.33 3.16-.33h10.4c1.68 0 2.52 0 3.16.32 .56.28 1.02.74 1.31 1.31 .32.64.32 1.48.32 3.16v6.4c0 1.68 0 2.52-.33 3.16 -.29.56-.75 1.02-1.32 1.31 -.65.32-1.49.32-3.17.32H6.76c-1.69 0-2.53 0-3.17-.33 -.57-.29-1.03-.75-1.32-1.32 -.33-.65-.33-1.49-.33-3.17v-6.4Z"/><path fill="#12131A" fill-rule="evenodd" d="M2 8c2.2 0 4-1.8 4-4h2c0 3.31-2.69 6-6 6V8Zm12 4c0 1.1-.9 2-2 2 -1.11 0-2-.9-2-2 0-1.11.89-2 2-2 1.1 0 2 .89 2 2Zm8-4c-2.21 0-4-1.8-4-4h-2c0 3.31 2.68 6 6 6V8ZM6 20c0-2.21-1.8-4-4-4v-2c3.31 0 6 2.68 6 6H6Zm12 0c0-2.21 1.79-4 4-4v-2c-3.32 0-6 2.68-6 6h2Z"/></g></g></svg>