<svg viewBox="0 0 24 24" xmlns="http://www.w3.org/2000/svg"><g><g fill="#12131A"><path d="M6 15c0-.56.44-1 1-1h4c.55 0 1 .44 1 1 0 .55-.45 1-1 1H7c-.56 0-1-.45-1-1Z"/><path d="M16 9c-.56 0-1 .44-1 1 0 .55.44 1 1 1h6V9h-6Z"/><path d="M9 9l2 1.99H2v-2h7Z"/><path d="M16.2 6c.85 0 1.43 0 1.88.03 .43.03.66.1.81.18 .37.19.68.49.87.87 .07.15.14.38.18.81 .03.45.03 1.03.03 1.88v5.2c0 .55.44 1 1 1 .55 0 1-.45 1-1V9.72c0-.81 0-1.47-.05-2.02 -.05-.57-.15-1.08-.4-1.57 -.39-.76-1-1.37-1.75-1.75 -.49-.25-1.01-.35-1.57-.4 -.55-.05-1.21-.05-2.02-.05h-5.25c-.56 0-1 .44-1 1 0 .55.44 1 1 1h5.2Z"/><path d="M4.18 4.43c.05-.03.11-.06.17-.09l1.67 1.67c-.05 0-.08 0-.12 0 -.44.03-.67.1-.82.18 -.38.19-.69.49-.88.87 -.08.15-.15.38-.19.81 -.04.45-.04 1.03-.04 1.88v4.4c0 .85 0 1.43.03 1.88 .03.43.1.66.18.81 .19.37.49.68.87.87 .15.07.38.14.81.18 .45.03 1.03.03 1.88.03h8.4c.78 0 1.33-.01 1.77-.03l1.67 1.67c-.44.18-.9.27-1.4.31 -.55.04-1.21.04-2.02.04H7.67c-.81 0-1.47 0-2.02-.05 -.57-.05-1.08-.15-1.57-.4 -.76-.39-1.37-1-1.75-1.75 -.25-.49-.35-1.01-.4-1.57 -.05-.55-.05-1.21-.05-2.02V9.63c-.01-.81-.01-1.47.04-2.02 .04-.57.14-1.08.39-1.57 .38-.76.99-1.37 1.74-1.75Z"/><path fill="#12131A" fill-rule="evenodd" d="M2.29 2.29c.39-.4 1.02-.4 1.41 0l17.99 18c.39.39.39 1.02 0 1.41 -.4.39-1.03.39-1.42 0L2.26 3.7c-.4-.4-.4-1.03 0-1.42Z"/></g></g></svg>