<svg viewBox="0 0 24 24" xmlns="http://www.w3.org/2000/svg"><g><path fill="#12131A" fill-rule="evenodd" d="M19 15c.55 0 1 .44 1 1v2h2c.55 0 1 .44 1 1 0 .55-.45 1-1 1h-2v2c0 .55-.45 1-1 1 -.56 0-1-.45-1-1v-2h-2c-.56 0-1-.45-1-1 0-.56.44-1 1-1h2v-2c0-.56.44-1 1-1Z"/><g fill="#12131A"><path d="M2.27 7.94c.1.05.25.05.53.05h18.38c.28 0 .42 0 .53-.06 .09-.05.17-.14.21-.23 .05-.12.04-.25.03-.52 -.03-.7-.11-1.17-.31-1.56 -.29-.57-.75-1.03-1.32-1.32 -.65-.33-1.49-.33-3.17-.33H6.75c-1.69 0-2.53 0-3.17.32 -.57.28-1.03.74-1.32 1.31 -.21.39-.28.86-.31 1.55 -.02.27-.02.4.03.51 .04.09.12.17.21.22Z"/><path fill="#12131A" fill-rule="evenodd" d="M2.05 10.273c-.06.1-.06.24-.06.52v4.4c0 1.68 0 2.52.32 3.16 .28.56.74 1.02 1.31 1.31 .64.32 1.48.32 3.16.32h5.4c.28 0 .42 0 .52-.06 .09-.05.17-.13.21-.22 .05-.11.05-.25.05-.53v-.2c0-3.32 2.68-6 6-6h2.2c.28 0 .42 0 .52-.06 .09-.05.17-.13.21-.22 .05-.11.05-.25.05-.53v-1.4c0-.28 0-.42-.06-.53 -.05-.1-.13-.18-.22-.22 -.11-.06-.25-.06-.53-.06H2.73c-.29 0-.43 0-.53.05 -.1.04-.18.12-.22.21ZM5.99 15c0-.56.44-1 1-1h4c.55 0 1 .44 1 1 0 .55-.45 1-1 1h-4c-.56 0-1-.45-1-1Z"/></g></g></svg>