<svg viewBox="0 0 24 24" xmlns="http://www.w3.org/2000/svg"><g><g fill="#12131A" fill-rule="evenodd"><path d="M9 11v4H7v-4h2ZM5 9h2 2 2v2 4 2H9 7 5v-2 -4V9Zm12 2v4h-2v-4h2Zm-4-2h2 2 2v2 4 2h-2 -2 -2v-2 -4V9Z"/><path d="M18 17H6c-.56 0-1 .44-1 1 0 .55.44 1 1 1h12c.55 0 1-.45 1-1 0-.56-.45-1-1-1ZM6 15c-1.66 0-3 1.34-3 3 0 1.65 1.34 3 3 3h12c1.65 0 3-1.35 3-3 0-1.66-1.35-3-3-3H6Z"/><path d="M5.92 9h12.14c.51 0 .92-.42.92-.93 0-.4-.25-.75-.62-.88l-6.05-2.14c-.22-.08-.46-.08-.67 0L5.59 7.18c-.38.13-.62.48-.62.87 0 .51.41.92.92.92Zm-.98-3.7c-1.18.41-1.96 1.52-1.96 2.76 0 1.61 1.31 2.92 2.92 2.92h12.14c1.61 0 2.92-1.32 2.92-2.93 0-1.25-.79-2.35-1.96-2.77l-6.05-2.14c-.65-.23-1.36-.23-2 0L4.9 5.27Z"/></g></g></svg>