<svg viewBox="0 0 24 24" xmlns="http://www.w3.org/2000/svg"><g><g fill="#12131A"><path opacity=".25" d="M2 8.8c0-1.69 0-2.53.32-3.17 .28-.57.74-1.03 1.31-1.32 .64-.33 1.48-.33 3.16-.33h10.4c1.68 0 2.52 0 3.16.32 .56.28 1.02.74 1.31 1.31 .32.64.32 1.48.32 3.16v6.4c0 1.68 0 2.52-.33 3.16 -.29.56-.75 1.02-1.32 1.31 -.65.32-1.49.32-3.17.32H6.76c-1.69 0-2.53 0-3.17-.33 -.57-.29-1.03-.75-1.32-1.32 -.33-.65-.33-1.49-.33-3.17v-6.4Z"/><path fill="#12131A" fill-rule="evenodd" d="M18 18c0-.56.44-1 1-1 .55 0 1 .44 1 1v1h-2v-1Zm4 1c.55 0 1 .44 1 1v2c0 .55-.45 1-1 1h-6c-.56 0-1-.45-1-1v-2c0-.56.44-1 1-1v-1c0-1.66 1.34-3 3-3 1.65 0 3 1.34 3 3v1Z"/><path d="M6 15c0-.56.44-1 1-1h4c.55 0 1 .44 1 1 0 .55-.45 1-1 1H7c-.56 0-1-.45-1-1Z"/><path d="M2 8h20v2H2V8Z"/></g></g></svg>