<svg viewBox="0 0 24 24" xmlns="http://www.w3.org/2000/svg"><g><g fill="#12131A" fill-rule="evenodd"><path d="M2.21 9.09c-.15.27-.2.6-.21 1.1 -.01.27-.02.4.03.51 .04.09.12.17.21.22 .1.05.25.05.53.05h14.39c.28 0 .42 0 .53-.06 .09-.05.17-.14.21-.23 .05-.12.04-.25.03-.52 -.02-.51-.07-.84-.21-1.11 -.2-.38-.5-.69-.88-.88 -.43-.22-.99-.22-2.11-.22h-9.6c-1.13 0-1.69 0-2.11.21 -.38.19-.69.49-.88.87Zm15.78 4.7c0-.28 0-.42-.06-.53 -.05-.1-.13-.18-.22-.22 -.11-.06-.25-.06-.53-.06H2.78c-.29 0-.43 0-.53.05 -.1.04-.18.12-.22.21 -.06.1-.06.24-.06.52v3c0 1.12 0 1.68.21 2.1 .19.37.49.68.87.87 .42.21.98.21 2.1.21h9.6c1.12 0 1.68 0 2.1-.22 .37-.2.68-.5.87-.88 .21-.43.21-.99.21-2.11v-3Z"/><path d="M6 5c0-.56.44-1 1-1h12c1.65 0 3 1.34 3 3v8c0 .55-.45 1-1 1 -.56 0-1-.45-1-1V7c0-.56-.45-1-1-1H7c-.56 0-1-.45-1-1Z"/></g></g></svg>