<svg viewBox="0 0 24 24" xmlns="http://www.w3.org/2000/svg"><g><g fill="#12131A"><path opacity=".25" d="M3 7.8c0-1.69 0-2.53.32-3.17 .28-.57.74-1.03 1.31-1.32 .64-.33 1.48-.33 3.16-.33h8.4c1.68 0 2.52 0 3.16.32 .56.28 1.02.74 1.31 1.31 .32.64.32 1.48.32 3.16v8.4c0 1.68 0 2.52-.33 3.16 -.29.56-.75 1.02-1.32 1.31 -.65.32-1.49.32-3.17.32h-8.4c-1.69 0-2.53 0-3.17-.33 -.57-.29-1.03-.75-1.32-1.32 -.33-.65-.33-1.49-.33-3.17v-8.4Z"/><path fill="#12131A" fill-rule="evenodd" d="M16 11c-.56 0-1-.45-1-1V9h-1c-.56 0-1-.45-1-1 0-.56.44-1 1-1h1V6c0-.56.44-1 1-1 .55 0 1 .44 1 1v1h1c.55 0 1 .44 1 1 0 .55-.45 1-1 1h-1v1c0 .55-.45 1-1 1ZM6 7c-.56 0-1 .44-1 1 0 .55.44 1 1 1h4c.55 0 1-.45 1-1 0-.56-.45-1-1-1H6Zm7 7c0-.56.44-1 1-1h4c.55 0 1 .44 1 1 0 .55-.45 1-1 1h-4c-.56 0-1-.45-1-1Zm1 3c-.56 0-1 .44-1 1 0 .55.44 1 1 1h4c.55 0 1-.45 1-1 0-.56-.45-1-1-1h-4Zm-8.21-3.21c.39-.4 1.02-.4 1.41 0l.79.79 .79-.8c.39-.4 1.02-.4 1.41 0 .39.39.39 1.02 0 1.41l-.8.79 .79.79c.39.39.39 1.02 0 1.41 -.4.39-1.03.39-1.42 0l-.8-.8 -.8.79c-.4.39-1.03.39-1.42 0 -.4-.4-.4-1.03 0-1.42l.79-.8 -.8-.8c-.4-.4-.4-1.03 0-1.42Z"/></g></g></svg>