<svg viewBox="0 0 24 24" xmlns="http://www.w3.org/2000/svg"><g><path fill="#12131A" fill-rule="evenodd" d="M17 11c-.56 0-1-.45-1-1V8h-2c-.56 0-1-.45-1-1 0-.56.44-1 1-1h2V4c0-.56.44-1 1-1 .55 0 1 .44 1 1v2h2c.55 0 1 .44 1 1 0 .55-.45 1-1 1h-2v2c0 .55-.45 1-1 1ZM3 7c0-.56.44-1 1-1h6c.55 0 1 .44 1 1 0 .55-.45 1-1 1H4c-.56 0-1-.45-1-1Zm10 8c0-.56.44-1 1-1h6c.55 0 1 .44 1 1 0 .55-.45 1-1 1h-6c-.56 0-1-.45-1-1Zm1 3c-.56 0-1 .44-1 1 0 .55.44 1 1 1h6c.55 0 1-.45 1-1 0-.56-.45-1-1-1h-6Zm-5.59-1l2.29 2.29c.39.39.39 1.02 0 1.41 -.4.39-1.03.39-1.42 0l-2.3-2.3 -2.3 2.29c-.4.39-1.03.39-1.42 0 -.4-.4-.4-1.03 0-1.42l2.29-2.3 -2.3-2.3c-.4-.4-.4-1.03 0-1.42 .39-.4 1.02-.4 1.41 0l2.29 2.29 2.29-2.3c.39-.4 1.02-.4 1.41 0 .39.39.39 1.02 0 1.41l-2.3 2.29Z"/></g></svg>