<svg viewBox="0 0 24 24" xmlns="http://www.w3.org/2000/svg"><g><path fill="#12131A" fill-rule="evenodd" d="M3.32 4.63c-.33.64-.33 1.48-.33 3.16v8.4c0 1.68 0 2.52.32 3.16 .28.56.74 1.02 1.31 1.31 .64.32 1.48.32 3.16.32h8.4c1.68 0 2.52 0 3.16-.33 .56-.29 1.02-.75 1.31-1.32 .32-.65.32-1.49.32-3.17v-8.4c0-1.69 0-2.53-.33-3.17 -.29-.57-.75-1.03-1.32-1.32 -.65-.33-1.49-.33-3.17-.33h-8.4c-1.69 0-2.53 0-3.17.32 -.57.28-1.03.74-1.32 1.31Zm11.67 5.36c0 .55.44 1 1 1 .55 0 1-.45 1-1v-1h1c.55 0 1-.45 1-1 0-.56-.45-1-1-1h-1v-1c0-.56-.45-1-1-1 -.56 0-1 .44-1 1v1h-1c-.56 0-1 .44-1 1 0 .55.44 1 1 1h1v1Zm-10-2c0-.56.44-1 1-1h4c.55 0 1 .44 1 1 0 .55-.45 1-1 1h-4c-.56 0-1-.45-1-1Zm9 5c-.56 0-1 .44-1 1 0 .55.44 1 1 1h4c.55 0 1-.45 1-1 0-.56-.45-1-1-1h-4Zm-1 5c0-.56.44-1 1-1h4c.55 0 1 .44 1 1 0 .55-.45 1-1 1h-4c-.56 0-1-.45-1-1Zm-5.8-4.21c-.4-.4-1.03-.4-1.42 0 -.4.39-.4 1.02 0 1.41l.79.79 -.8.79c-.4.39-.4 1.02 0 1.41 .39.39 1.02.39 1.41 0l.79-.8 .79.79c.39.39 1.02.39 1.41 0 .39-.4.39-1.03 0-1.42l-.8-.8 .79-.8c.39-.4.39-1.03 0-1.42 -.4-.4-1.03-.4-1.42 0l-.8.79 -.8-.8Z"/></g></svg>