<svg viewBox="0 0 24 24" xmlns="http://www.w3.org/2000/svg"><g><g fill="#12131A"><path d="M6 4.5C6 3.67 6.67 3 7.5 3h5c.82 0 1.5.67 1.5 1.5 0 .82-.68 1.5-1.5 1.5h-5C6.67 6 6 5.32 6 4.5Z"/><path d="M4.5 8C3.67 8 3 8.67 3 9.5c0 .82.67 1.5 1.5 1.5h5c.82 0 1.5-.68 1.5-1.5 0-.83-.68-1.5-1.5-1.5h-5Z"/><path d="M5 14.5c0-.83.67-1.5 1.5-1.5h5c.1 0 .21.01.31.03 .28.06.34.4.18.65 -.38.57-.67 1.21-.83 1.89 -.06.23-.27.41-.51.41H6.49c-.83 0-1.5-.68-1.5-1.5Z"/><path d="M3 19.5c0-.83.67-1.5 1.5-1.5h5c.82 0 1.5.67 1.5 1.5 0 .82-.68 1.5-1.5 1.5h-5c-.83 0-1.5-.68-1.5-1.5Z"/><path fill="#12131A" fill-rule="evenodd" d="M17 21c2.2 0 4-1.8 4-4 0-2.21-1.8-4-4-4 -2.21 0-4 1.79-4 4 0 2.2 1.79 4 4 4Z"/></g></g></svg>