<svg viewBox="0 0 24 24" xmlns="http://www.w3.org/2000/svg"><g><path fill="#12131A" fill-rule="evenodd" d="M22 12c0 5.52-4.48 10-10 10C6.47 22 2 17.52 2 12 2 6.47 6.47 2 12 2c5.52 0 10 4.47 10 10ZM10 5c0-.56.44-1 1-1 .55 0 1 .44 1 1v1h1.5C15.43 6 17 7.56 17 9.5c0 .97-.41 1.86-1.06 2.5 .64.63 1.05 1.52 1.05 2.5 0 1.93-1.57 3.5-3.5 3.5h-1.5v1c0 .55-.45 1-1 1 -.56 0-1-.45-1-1v-1h-1c-1.11 0-2-.9-2-2v-3 -1 -1V8c0-1.11.89-2 2-2h1V5Zm-1 6h4.5c.82 0 1.5-.68 1.5-1.5 0-.83-.68-1.5-1.5-1.5H9v3Zm0 2v3h4.5c.82 0 1.5-.68 1.5-1.5 0-.83-.68-1.5-1.5-1.5H9Z"/></g></svg>