<svg viewBox="0 0 24 24" xmlns="http://www.w3.org/2000/svg"><g><path fill="#12131A" fill-rule="evenodd" d="M12 22c5.52 0 10-4.48 10-10 0-5.53-4.48-10-10-10C6.47 2 2 6.47 2 12c0 5.52 4.47 10 10 10ZM10 9c0-.56.44-1 1-1h2c.55 0 1 .44 1 1 0 .55.44 1 1 1 .55 0 1-.45 1-1 0-1.66-1.35-3-3-3V5c0-.56-.45-1-1-1 -.56 0-1 .44-1 1v1C9.34 6 8 7.34 8 9v.55c0 1.29.82 2.43 2.05 2.84l3.26 1.08c.4.13.68.51.68.94v.55c0 .55-.45 1-1 1h-2c-.56 0-1-.45-1-1 0-.56-.45-1-1-1 -.56 0-1 .44-1 1 0 1.65 1.34 3 3 3v1c0 .55.44 1 1 1 .55 0 1-.45 1-1v-1c1.65 0 3-1.35 3-3v-.56c0-1.3-.83-2.44-2.06-2.85l-3.27-1.09c-.41-.14-.69-.52-.69-.95v-.56Z"/></g></svg>