<svg viewBox="0 0 24 24" xmlns="http://www.w3.org/2000/svg"><g><g fill="#12131A"><path opacity=".25" d="M22 12c0 5.52-4.48 10-10 10C6.47 22 2 17.52 2 12 2 6.47 6.47 2 12 2c5.52 0 10 4.47 10 10Z"/><path fill="#12131A" fill-rule="evenodd" d="M11 4c-.56 0-1 .44-1 1v1H9c-1.11 0-2 .89-2 2v3 1 1 3c0 1.1.89 2 2 2h1v1c0 .55.44 1 1 1 .55 0 1-.45 1-1v-1h1.5c1.93 0 3.5-1.57 3.5-3.5 0-.98-.41-1.87-1.06-2.5 .64-.64 1.05-1.53 1.05-2.5 0-1.94-1.57-3.5-3.5-3.5h-1.5V5c0-.56-.45-1-1-1Zm2.5 7c.82 0 1.5-.68 1.5-1.5 0-.83-.68-1.5-1.5-1.5H9v3h4.5ZM9 13v3h4.5c.82 0 1.5-.68 1.5-1.5 0-.83-.68-1.5-1.5-1.5H9Z"/></g></g></svg>