<svg viewBox="0 0 24 24" xmlns="http://www.w3.org/2000/svg"><g><g fill="#12131A" fill-rule="evenodd"><path d="M5 6c0-1.66 1.34-3 3-3h4c1.65 0 3 1.34 3 3 0 1.38-.94 2.54-2.22 2.89 .13.34.21.71.21 1.1 0 .53-.14 1.03-.39 1.47 .19.12.36.26.52.42 -.56.38-1.03.87-1.39 1.45 -.19-.22-.46-.35-.76-.35h-4c-.56 0-1 .44-1 1 0 .55.44 1 1 1h4c.03 0 .06-.01.1-.01 -.07.32-.11.66-.11 1 0 1.41.58 2.69 1.53 3.6 -.54.83-1.47 1.39-2.54 1.39h-4c-1.66 0-3-1.35-3-3 0-1.07.55-2 1.38-2.53 -.25-.44-.39-.94-.39-1.48s.13-1.04.38-1.48c-.84-.54-1.39-1.47-1.39-2.53 0-1.39.93-2.55 2.21-2.9 -.14-.35-.22-.72-.22-1.11Zm5 3c.55 0 1 .44 1 1 0 .55-.45 1-1 1H6c-.56 0-1-.45-1-1 0-.56.44-1 1-1h4Zm2-2H8c-.56 0-1-.45-1-1 0-.56.44-1 1-1h4c.55 0 1 .44 1 1 0 .55-.45 1-1 1Zm-2 10c.55 0 1 .44 1 1 0 .55-.45 1-1 1H6c-.56 0-1-.45-1-1 0-.56.44-1 1-1h4Z"/><path d="M16 13c-1.66 0-3 1.34-3 3 0 1.65 1.34 3 3 3 1.65 0 3-1.35 3-3 0-1.66-1.35-3-3-3Zm-5 3c0-2.77 2.23-5 5-5 2.76 0 5 2.23 5 5 0 2.76-2.24 5-5 5 -2.77 0-5-2.24-5-5Z"/></g></g></svg>