<svg viewBox="0 0 24 24" xmlns="http://www.w3.org/2000/svg"><g><g fill="#12131A" fill-rule="evenodd"><path d="M12 20c4.41 0 8-3.59 8-8 0-4.42-3.59-8-8-8 -4.42 0-8 3.58-8 8 0 4.41 3.58 8 8 8Zm0 2c5.52 0 10-4.48 10-10 0-5.53-4.48-10-10-10C6.47 2 2 6.47 2 12c0 5.52 4.47 10 10 10Z"/><path d="M12 6c-.56 0-1 .44-1 1h-1c-1.11 0-2 .89-2 2v2 1 1 2c0 1.1.89 2 2 2h1c0 .55.44 1 1 1 .55 0 1-.45 1-1 1.65 0 3-1.35 3-3 0-.77-.29-1.47-.77-2 .47-.54.76-1.24.76-2 0-1.66-1.35-3-3-3 0-.56-.45-1-1-1Zm0 9h1c.55 0 1-.45 1-1 0-.56-.45-1-1-1h-3v2h2Zm-2-4h3c.55 0 1-.45 1-1 0-.56-.45-1-1-1h-1 -2v2Z"/></g></g></svg>