<svg viewBox="0 0 24 24" xmlns="http://www.w3.org/2000/svg"><g><path opacity=".25" fill="#12131A" fill-rule="evenodd" d="M5.5 6C4.67 6 4 6.67 4 7.5 4 8.32 4.67 9 5.5 9h5c.82 0 1.5-.68 1.5-1.5 0-.83-.68-1.5-1.5-1.5h-5ZM3 13.5c0-.83.67-1.5 1.5-1.5h5c.82 0 1.5.67 1.5 1.5 0 .82-.68 1.5-1.5 1.5h-5c-.83 0-1.5-.68-1.5-1.5Zm0 6c0-.83.67-1.5 1.5-1.5h5c.82 0 1.5.67 1.5 1.5 0 .82-.68 1.5-1.5 1.5h-5c-.83 0-1.5-.68-1.5-1.5Z"/><g fill="#12131A"><path d="M6 4.5C6 3.67 6.67 3 7.5 3h5c.82 0 1.5.67 1.5 1.5 0 .82-.68 1.5-1.5 1.5h-5C6.67 6 6 5.32 6 4.5Z"/><path d="M6.5 9C5.67 9 5 9.67 5 10.5c0 .82.67 1.5 1.5 1.5h5c.82 0 1.5-.68 1.5-1.5 0-.83-.68-1.5-1.5-1.5h-5Z"/><path d="M6.5 15c-.83 0-1.5.67-1.5 1.5 0 .82.67 1.5 1.5 1.5h3.99c.3 0 .54-.28.52-.59 -.01-.14-.02-.28-.02-.42 0-.46.05-.9.14-1.33 .07-.34-.17-.68-.52-.68H6.47Z"/><path d="M21 17c0 2.2-1.8 4-4 4 -2.21 0-4-1.8-4-4 0-2.21 1.79-4 4-4 2.2 0 4 1.79 4 4Z"/></g></g></svg>