<svg viewBox="0 0 24 24" xmlns="http://www.w3.org/2000/svg"><g><g fill-rule="evenodd" fill="#12131A"><path opacity=".25" d="M3.32 4.63c-.33.64-.33 1.48-.33 3.16v6.4c0 1.68 0 2.52.32 3.16 .28.56.74 1.02 1.31 1.31 .35.18.77.26 1.36.29v1.02c0 .55.44 1 1 1 .55 0 1-.45 1-1v-1h8v1c0 .55.44 1 1 1 .55 0 1-.45 1-1v-1.03c.58-.04 1-.12 1.36-.3 .56-.29 1.02-.75 1.31-1.32 .32-.65.32-1.49.32-3.17v-6.4c0-1.69 0-2.53-.33-3.17 -.29-.57-.75-1.03-1.32-1.32 -.65-.33-1.49-.33-3.17-.33h-8.4c-1.69 0-2.53 0-3.17.32 -.57.28-1.03.74-1.32 1.31Z"/><path d="M11 7c0-.56.44-1 1-1 .55 0 1 .44 1 1v1.17c.85.3 1.52.97 1.82 1.82h1.17c.55 0 1 .44 1 1 0 .55-.45 1-1 1h-1.18c-.31.85-.98 1.52-1.83 1.82v1.17c0 .55-.45 1-1 1 -.56 0-1-.45-1-1V13.8c-.86-.31-1.53-.98-1.83-1.83H7.97c-.56 0-1-.45-1-1 0-.56.44-1 1-1h1.17c.3-.86.97-1.53 1.82-1.83V6.96Zm0 4c0 .55.44 1 1 1 .55 0 1-.45 1-1 0-.56-.45-1-1-1 -.56 0-1 .44-1 1Z"/></g></g></svg>