<svg viewBox="0 0 24 24" xmlns="http://www.w3.org/2000/svg"><g><g fill="#12131A" fill-rule="evenodd"><path d="M8.75 3h.04 6.4 .04c.8-.01 1.46-.01 2.01.04 .56.04 1.07.14 1.56.39 .75.38 1.36.99 1.74 1.74 .24.48.34 1 .39 1.56 .04.54.04 1.2.04 2.01v.04 4.4 .04c0 .8 0 1.46-.05 2.01 -.05.56-.15 1.07-.4 1.56 -.39.75-1 1.36-1.75 1.74 -.27.13-.54.22-.82.28v1.15c0 .55-.45 1-1 1 -.56 0-1-.45-1-1v-1.01c-.24 0-.5 0-.76 0h-.05 -6.4 -.05 -.01c-.27 0-.53 0-.76-.01v1c0 .55-.45 1-1 1 -.56 0-1-.45-1-1v-1.16c-.29-.07-.56-.16-.82-.29 -.76-.39-1.37-1-1.75-1.75 -.25-.49-.35-1.01-.4-1.57 -.05-.55-.05-1.21-.05-2.02v-.05 -4.4 -.05c-.01-.81-.01-1.47.04-2.02 .04-.57.14-1.08.39-1.57 .38-.76.99-1.37 1.74-1.75 .48-.25 1-.35 1.56-.4 .54-.05 1.2-.05 2.01-.05ZM6.9 5.03c-.44.03-.67.1-.82.18 -.38.19-.69.49-.88.87 -.08.15-.15.38-.19.81 -.04.45-.04 1.03-.04 1.88v4.4c0 .85 0 1.43.03 1.88 .03.43.1.66.18.81 .19.37.49.68.87.87 .15.07.38.14.81.18 .45.03 1.03.03 1.88.03h6.4c.85 0 1.43-.01 1.88-.04 .43-.04.66-.11.81-.19 .37-.2.68-.5.87-.88 .07-.16.14-.39.18-.82 .03-.46.03-1.04.03-1.89v-4.4c0-.86-.01-1.44-.04-1.89 -.04-.44-.11-.67-.19-.82 -.2-.38-.5-.69-.88-.88 -.16-.08-.39-.15-.82-.19 -.46-.04-1.04-.04-1.89-.04h-6.4c-.86 0-1.44 0-1.89.03Z"/><path d="M11 8c0-.56.44-1 1-1 .55 0 1 .44 1 1v.17c.85.3 1.52.97 1.82 1.82h.17c.55 0 1 .44 1 1 0 .55-.45 1-1 1h-.18c-.31.85-.98 1.52-1.83 1.82v.17c0 .55-.45 1-1 1 -.56 0-1-.45-1-1v-.18c-.86-.31-1.53-.98-1.83-1.83h-.18c-.56 0-1-.45-1-1 0-.56.44-1 1-1h.17c.3-.86.97-1.53 1.82-1.83v-.18Zm0 3c0 .55.44 1 1 1 .55 0 1-.45 1-1 0-.56-.45-1-1-1 -.56 0-1 .44-1 1Z"/></g></g></svg>