<svg viewBox="0 0 24 24" xmlns="http://www.w3.org/2000/svg"><g><g fill="#12131A"><path d="M15 9c0-.56.44-1 1-1h6v2h-6c-.56 0-1-.45-1-1Z"/><g fill="#12131A" fill-rule="evenodd"><path d="M4.14 4.14c-.19.04-.36.1-.51.18 -.57.28-1.03.74-1.32 1.31 -.21.39-.28.86-.31 1.55 -.02.27-.02.4.03.51 .04.09.12.17.21.22 .1.05.25.05.53.05h5.19L4.1 4.1Zm5.85 5.85h-7.2c-.29 0-.43 0-.53.05 -.1.04-.18.12-.22.21 -.06.1-.06.24-.06.52v4.4c0 1.68 0 2.52.32 3.16 .28.56.74 1.02 1.31 1.31 .64.32 1.48.32 3.16.32h10.4c1.27 0 2.06 0 2.65-.15L9.96 9.95Zm-4 5c0-.56.44-1 1-1h4c.55 0 1 .44 1 1 0 .55-.45 1-1 1h-4c-.56 0-1-.45-1-1Z"/><path d="M19.03 6.02c-.29-.03-.66-.03-1.24-.03h-6.8c-.56 0-1-.45-1-1 0-.56.44-1 1-1h6.83c.52-.01.98-.01 1.35.03 .39.03.78.1 1.16.29 .56.28 1.02.74 1.31 1.31 .19.37.26.77.29 1.16 .03.37.03.82.03 1.35v6.83c0 .55-.45 1-1 1 -.56 0-1-.45-1-1v-6.8c0-.58-.01-.95-.03-1.24 -.03-.28-.06-.38-.09-.43 -.1-.19-.25-.35-.44-.44 -.05-.03-.16-.07-.43-.09Z"/><path d="M2.29 2.29c.39-.4 1.02-.4 1.41 0l17.99 18c.39.39.39 1.02 0 1.41 -.4.39-1.03.39-1.42 0L2.26 3.7c-.4-.4-.4-1.03 0-1.42Z"/></g></g></g></svg>