<svg viewBox="0 0 24 24" xmlns="http://www.w3.org/2000/svg"><g><path fill="#12131A" fill-rule="evenodd" d="M2.32 5.63c-.23.44-.3.99-.32 1.85 -.01.27.22.5.49.47 1.8-.23 3.23-1.66 3.46-3.47 .03-.28-.2-.51-.48-.5 -.87.02-1.41.08-1.86.31 -.57.28-1.03.74-1.32 1.31Zm.17 8.38c-.28-.03-.5-.25-.5-.53v-3c0-.28.22-.5.49-.53 2.91-.25 5.23-2.57 5.47-5.48 .02-.28.24-.5.52-.5h7c.27 0 .49.22.52.49 .24 2.91 2.56 5.23 5.47 5.47 .27.02.49.24.49.52v3c0 .27-.23.49-.5.52 -2.92.24-5.24 2.56-5.48 5.47 -.03.27-.25.49-.53.49h-7c-.28 0-.5-.23-.53-.5 -.25-2.92-2.57-5.24-5.48-5.48Zm15.53 5.47c-.04.27.19.5.47.49 .86-.03 1.4-.09 1.85-.32 .56-.29 1.02-.75 1.31-1.32 .22-.45.29-1 .31-1.86 0-.28-.22-.51-.5-.48 -1.81.22-3.24 1.65-3.47 3.46Zm-16.03-3c-.01-.28.22-.51.49-.48 1.8.22 3.23 1.65 3.46 3.46 .03.27-.2.5-.48.49 -.87-.03-1.41-.09-1.86-.32 -.57-.29-1.03-.75-1.32-1.32 -.23-.45-.3-1-.32-1.86Zm19.48-8.54c.27.03.5-.2.49-.48 -.03-.87-.09-1.41-.32-1.86 -.29-.57-.75-1.03-1.32-1.32 -.45-.23-1-.3-1.86-.32 -.28-.01-.51.22-.48.49 .22 1.8 1.65 3.23 3.46 3.46Zm-9.5 6.03c1.1 0 2-.9 2-2 0-1.11-.9-2-2-2 -1.11 0-2 .89-2 2 0 1.1.89 2 2 2Z"/></g></svg>