<svg viewBox="0 0 24 24" xmlns="http://www.w3.org/2000/svg"><g><path fill="#12131A" fill-rule="evenodd" d="M8 4c1.65 0 3 1.34 3 3v2c0 .55.44 1 1 1 .55 0 1-.45 1-1V7c0-2.77-2.24-5-5-5H7c-.56 0-1 .44-1 1 0 .55.44 1 1 1h1Z"/><g fill="#12131A"><path d="M17.5 2h2c.27 0 .5.22.5.5C20 3.88 18.88 5 17.5 5h-2c-.28 0-.5-.23-.5-.5C15 3.11 16.11 2 17.5 2Z"/><path fill="#12131A" fill-rule="evenodd" d="M9.5 22c-3 0-5.5-5-5.5-8.5C4 10 6 7 9.49 7c.94 0 1.78.21 2.49.6 .71-.39 1.55-.61 2.5-.61 3.49 0 5.5 3 5.5 6.5s-2.5 8.5-5.5 8.5c-.9 0-1.75-.45-2.5-1.17 -.76.71-1.61 1.16-2.5 1.16ZM9 13.5c0-.28.22-.5.5-.5 .82 0 1.5.67 1.5 1.5v1c0 .27-.23.5-.5.5 -.83 0-1.5-.68-1.5-1.5v-1Zm6 0c0-.28-.23-.5-.5-.5 -.83 0-1.5.67-1.5 1.5v1c0 .27.22.5.5.5 .82 0 1.5-.68 1.5-1.5v-1Z"/></g></g></svg>