<svg viewBox="0 0 24 24" xmlns="http://www.w3.org/2000/svg"><g><g fill="#12131A"><path d="M9.5 12c-.28 0-.5.22-.5.5v1c0 .82.67 1.5 1.5 1.5 .27 0 .5-.23.5-.5v-1c0-.83-.68-1.5-1.5-1.5Z"/><path d="M14.5 12c.27 0 .5.22.5.5v1c0 .82-.68 1.5-1.5 1.5 -.28 0-.5-.23-.5-.5v-1c0-.83.67-1.5 1.5-1.5Z"/><path d="M11 7c0-1.66-1.35-3-3-3H7c-.56 0-1-.45-1-1 0-.56.44-1 1-1h1c2.76 0 5 2.23 5 5 0 .55-.45 1-1 1 -.56 0-1-.45-1-1Z"/><g fill="#12131A" fill-rule="evenodd"><path d="M20 4.5C20 3.11 18.88 2 17.5 2h-3C12.56 2 11 3.56 11 5.5 11 6.88 12.11 8 13.5 8h3C18.43 8 20 6.43 20 4.5ZM17.5 4c.27 0 .5.22.5.5 0 .82-.68 1.5-1.5 1.5h-3c-.28 0-.5-.23-.5-.5 0-.83.67-1.5 1.5-1.5h3Z"/><path d="M7.12 9.15c-.67.76-1.13 1.99-1.13 3.84 0 1.85.46 3.67 1.23 4.99 .78 1.33 1.75 2 2.76 2 .5 0 .97-.17 1.42-.48 .34-.24.8-.24 1.14 0 .45.31.92.47 1.42.47 1 0 1.98-.67 2.76-2.01 .77-1.33 1.23-3.15 1.23-5s-.47-3.08-1.13-3.85c-.66-.75-1.61-1.16-2.88-1.16 -.63 0-1.17.1-1.64.28 -.24.09-.51.09-.74 0 -.47-.19-1.01-.29-1.64-.29 -1.27 0-2.23.41-2.88 1.15ZM5.61 7.83C6.7 6.57 8.25 5.98 9.98 5.98c.69 0 1.37.09 1.99.29 .62-.21 1.3-.3 2-.3 1.73 0 3.27.58 4.37 1.84 1.08 1.23 1.62 3 1.62 5.15 0 2.14-.54 4.32-1.52 6 -.97 1.66-2.5 2.99-4.49 2.99 -.73 0-1.4-.18-2-.49 -.61.31-1.28.48-2 .48 -2 0-3.52-1.34-4.49-3 -.98-1.68-1.52-3.86-1.52-6.01 0-2.16.53-3.93 1.62-5.16Z"/></g></g></g></svg>