<svg viewBox="0 0 24 24" xmlns="http://www.w3.org/2000/svg"><g><path fill="#12131A" fill-rule="evenodd" d="M6.77 11.051c-.5.86-.78 1.87-.78 2.949 0 3.31 2.68 6 6 6 3.31 0 6-2.69 6-6 0-1.08-.29-2.08-.78-2.949 -.56-.98-1.29-2.3-1.51-3.85 -.27-1.84-1.86-3.21-3.73-3.21 -1.88 0-3.47 1.37-3.73 3.2 -.23 1.54-.96 2.86-1.51 3.84ZM11.99 2c2.85 0 5.29 2.09 5.7 4.92 .16 1.12.7 2.15 1.26 3.14 .65 1.16 1.03 2.5 1.03 3.93 0 4.41-3.59 8-8 8 -4.42 0-8-3.59-8-8 0-1.43.37-2.78 1.03-3.94 .56-.99 1.1-2.02 1.26-3.15 .4-2.83 2.84-4.93 5.7-4.93Z"/><path fill="#12131A" d="M15 14c0 1.65-1.35 3-3 3 -1.66 0-3-1.35-3-3 0-1.66 1.34-3 3-3 1.65 0 3 1.34 3 3Z"/></g></svg>