<svg viewBox="0 0 24 24" xmlns="http://www.w3.org/2000/svg"><g><g fill="#12131A"><path d="M2 14c0-.56.44-1 1-1h18c.55 0 1 .44 1 1v0c0 .55-.45 1-1 1H3c-.56 0-1-.45-1-1v0Z"/><path fill="#12131A" fill-rule="evenodd" d="M3 10c0-3.32 2.68-6 6-6h6c3.31 0 6 2.68 6 6 0 .55-.45 1-1 1H4c-.56 0-1-.45-1-1Zm6-2c0 .55-.45 1-1 1 -.56 0-1-.45-1-1 0-.56.44-1 1-1 .55 0 1 .44 1 1Zm3 1c.55 0 1-.45 1-1 0-.56-.45-1-1-1 -.56 0-1 .44-1 1 0 .55.44 1 1 1Zm5-1c0 .55-.45 1-1 1 -.56 0-1-.45-1-1 0-.56.44-1 1-1 .55 0 1 .44 1 1Z"/><path d="M21 18c0 1.1-.9 2-2 2H5c-1.11 0-2-.9-2-2 0-.56.44-1 1-1h16c.55 0 1 .44 1 1Z"/></g></g></svg>