<svg viewBox="0 0 24 24" xmlns="http://www.w3.org/2000/svg"><g><g fill="#12131A"><path opacity=".25" d="M13 6C7.23 6 3.29 16.18 2.99 20.52c-.02.27.2.49.47.47 4.34-.3 14.52-4.24 14.52-10.01 0-3-2-5-5-5Z"/><path d="M15.34 15.96c-.04-.07-.09-.12-.14-.18l-1.5-1.5c-.4-.4-1.03-.4-1.42 0 -.4.39-.4 1.02 0 1.41l1.47 1.47c.56-.39 1.09-.8 1.57-1.221Z"/><path d="M5.02 13.44l1.26 1.26c.39.39 1.02.39 1.41 0 .39-.4.39-1.03 0-1.42l-1.5-1.5c-.08-.08-.16-.14-.25-.19 -.34.59-.65 1.2-.94 1.83Z"/><path d="M8.64 8.02c.04.06.08.12.14.18l1.5 1.5c.39.39 1.02.39 1.41 0 .39-.4.39-1.03 0-1.42L10.2 6.79c-.56.32-1.08.73-1.58 1.21Z"/><path d="M16 9c-.56 0-1-.45-1-1V4c0-.56.44-1 1-1 .55 0 1 .44 1 1v1.58l2.29-2.3c.39-.4 1.02-.4 1.41 0 .39.39.39 1.02 0 1.41l-2.3 2.29h1.58c.55 0 1 .44 1 1 0 .55-.45 1-1 1h-4Z"/></g></g></svg>