<svg viewBox="0 0 24 24" xmlns="http://www.w3.org/2000/svg"><g><g fill="#12131A"><path d="M8.4 9.82c-.2-.2-.51-.2-.7 0 -.75.79-1.45 1.8-2.07 2.9 -.11.19-.08.43.08.59l.97.97c.39.39.39 1.02 0 1.41 -.4.39-1.03.39-1.42 0l-.24-.23c-.25-.25-.68-.17-.81.15 -.71 1.77-1.17 3.54-1.27 4.88 -.02.27.2.49.47.47 2.22-.16 5.61-1.33 8.31-2.95 .27-.17.31-.54.08-.77l-.59-.59c-.4-.4-.4-1.03 0-1.42 .39-.4 1.02-.4 1.41 0l.88.88c.18.18.48.19.67.01 1.05-1.02 1.72-2.11 1.72-3.2 -.01-3.5-1.5-5-5-5 -.21 0-.41.02-.61.06 -.35.07-.43.49-.18.74l1.48 1.48c.39.39.39 1.02 0 1.41 -.4.39-1.03.39-1.42 0L8.27 9.72Z"/><path d="M17 8c-.56 0-1-.45-1-1V4c0-.56.44-1 1-1 .55 0 1 .44 1 1v.58l1.29-1.3c.39-.4 1.02-.4 1.41 0 .39.39.39 1.02 0 1.41l-1.3 1.29h.58c.55 0 1 .44 1 1 0 .55-.45 1-1 1h-3Z"/></g></g></svg>