<svg viewBox="0 0 24 24" xmlns="http://www.w3.org/2000/svg"><g><path fill="#12131A" fill-rule="evenodd" d="M5.49 10c-.3 0-.53.25-.5.54l.84 9.63c.09 1.03.95 1.82 1.99 1.82h8.33c1.03 0 1.9-.8 1.99-1.83l.83-9.63c.02-.3-.21-.55-.5-.55h-13Zm6.5 8c1.1 0 2-.9 2-2 0-1.11-.9-2-2-2 -1.11 0-2 .89-2 2 0 1.1.89 2 1.99 2Z"/><path fill="#12131A" d="M8.44 2c-.87 0-1.63.55-1.9 1.36l-.55 1.63h-1c-.56 0-1 .44-1 1v1c0 .55.44 1 1 1h14c.55 0 1-.45 1-1v-1c0-.56-.45-1-1-1h-1l-.55-1.64c-.28-.82-1.04-1.37-1.9-1.37H8.42Z"/></g></svg>