<svg viewBox="0 0 24 24" xmlns="http://www.w3.org/2000/svg"><g><g fill="#12131A"><path d="M6.05 4.68c.17-.53.74-.81 1.26-.64l3 1c.52.17.8.74.63 1.26 -.18.52-.75.8-1.27.63l-3-1c-.53-.18-.81-.75-.64-1.27Z"/><path d="M7.44 10.1l2 1c.49.24.69.84.44 1.34 -.25.49-.85.69-1.35.44l-2-1c-.5-.25-.7-.85-.45-1.35 .24-.5.84-.7 1.34-.45Z"/><path d="M13.7 19.7c.39-.4.39-1.03 0-1.42 -.4-.4-1.03-.4-1.42 0l-1.5 1.5c-.4.39-.4 1.02 0 1.41 .39.39 1.02.39 1.41 0l1.5-1.5Z"/><path d="M13.79 13.79c.39-.4 1.02-.4 1.41 0l.5.5c.39.39.39 1.02 0 1.41 -.4.39-1.03.39-1.42 0l-.5-.5c-.4-.4-.4-1.03 0-1.42Z"/><path d="M7.89 16.44c.24-.5.04-1.1-.45-1.35 -.5-.25-1.1-.05-1.35.44l-1 2c-.25.49-.05 1.09.44 1.34 .49.24 1.09.04 1.34-.45l1-2Z"/><path d="M21.89 11.55c.24.49.04 1.09-.45 1.34l-2 1c-.5.24-1.1.04-1.35-.45 -.25-.5-.05-1.1.44-1.35l2-1c.49-.25 1.09-.05 1.34.44Z"/><path d="M15.94 8.31c.17-.53-.11-1.1-.64-1.27 -.53-.18-1.1.1-1.27.63l-.5 1.5c-.18.52.1 1.09.63 1.26 .52.17 1.09-.11 1.26-.64l.5-1.5Z"/><g fill="#12131A" fill-rule="evenodd"><path d="M16 12c0 2.2-1.8 4-4 4 -2.21 0-4-1.8-4-4 0-2.21 1.79-4 4-4 2.2 0 4 1.79 4 4Zm-2 0c0 1.1-.9 2-2 2 -1.11 0-2-.9-2-2 0-1.11.89-2 2-2 1.1 0 2 .89 2 2Z"/><path d="M22 12c0 5.52-4.48 10-10 10C6.47 22 2 17.52 2 12 2 6.47 6.47 2 12 2c5.52 0 10 4.47 10 10Zm-2 0c0 4.41-3.59 8-8 8 -4.42 0-8-3.59-8-8 0-4.42 3.58-8 8-8 4.41 0 8 3.58 8 8Z"/></g></g></g></svg>