<svg viewBox="0 0 24 24" xmlns="http://www.w3.org/2000/svg"><g><path opacity=".25" fill="#12131A" fill-rule="evenodd" d="M12 22c5.52 0 10-4.48 10-10 0-5.53-4.48-10-10-10C6.47 2 2 6.47 2 12c0 5.52 4.47 10 10 10Zm0-7c1.65 0 3-1.35 3-3 0-1.66-1.35-3-3-3 -1.66 0-3 1.34-3 3 0 1.65 1.34 3 3 3Z"/><g fill="#12131A"><path d="M15.7 7.7l1-1c.39-.4.39-1.03 0-1.42 -.4-.4-1.03-.4-1.42 0l-1 1c-.4.39-.4 1.02 0 1.41 .39.39 1.02.39 1.41 0Z"/><path d="M7 6c0-.56.44-1 1-1h2c.55 0 1 .44 1 1 0 .55-.45 1-1 1H8c-.56 0-1-.45-1-1Z"/><path d="M4.29 9.29c.39-.4 1.02-.4 1.41 0l1 1c.39.39.39 1.02 0 1.41 -.4.39-1.03.39-1.42 0l-1-1c-.4-.4-.4-1.03 0-1.42Z"/><path d="M13.7 19.7c.39-.4.39-1.03 0-1.42 -.4-.4-1.03-.4-1.42 0l-1 1c-.4.39-.4 1.02 0 1.41 .39.39 1.02.39 1.41 0l1-1Z"/><path d="M15.29 15.29c.39-.4 1.02-.4 1.41 0l1 1c.39.39.39 1.02 0 1.41 -.4.39-1.03.39-1.42 0l-1-1c-.4-.4-.4-1.03 0-1.42Z"/><path d="M8 16c0-.56-.45-1-1-1 -.56 0-1 .44-1 1v1c0 .55.44 1 1 1 .55 0 1-.45 1-1v-1Z"/><path d="M17 13c0-.56.44-1 1-1h1c.55 0 1 .44 1 1 0 .55-.45 1-1 1h-1c-.56 0-1-.45-1-1Z"/></g></g></svg>