<svg viewBox="0 0 24 24" xmlns="http://www.w3.org/2000/svg"><g><g fill="#12131A"><path d="M15 4.17c0-.65.52-1.18 1.17-1.18 2.66 0 4.82 2.16 4.82 4.82v4.17c0 .45-.32.85-.76.97l-4 1c-.3.07-.62 0-.86-.19 -.25-.19-.39-.49-.39-.79V4.14Z"/><path d="M17 17c0-.56-.45-1-1-1 -.56 0-1 .44-1 1v3c0 .55.44 1 1 1 .55 0 1-.45 1-1v-3Z"/><path d="M4 3c.55 0 1 .44 1 1v2c0 1.3.83 2.41 2 2.82V3.99c0-.56.44-1 1-1 .55 0 1 .44 1 1v4.82c1.16-.42 2-1.53 2-2.83v-2c0-.56.44-1 1-1 .55 0 1 .44 1 1v2c0 2.76-2.24 5-5 5 -2.77 0-5-2.24-5-5v-2c0-.56.44-1 1-1Z"/><path d="M8 13c.55 0 1 .44 1 1v6c0 .55-.45 1-1 1 -.56 0-1-.45-1-1v-6c0-.56.44-1 1-1Z"/></g></g></svg>