<svg viewBox="0 0 24 24" xmlns="http://www.w3.org/2000/svg"><g><path fill="#12131A" fill-rule="evenodd" d="M16 3c2.76 0 5 2.23 5 5v4c0 .45-.32.85-.76.97l-3.25.81v6.21c0 .55-.45 1-1 1 -.56 0-1-.45-1-1v-16c0-.56.44-1 1-1Zm1 8.71l2-.5V7.99c0-1.31-.84-2.42-2-2.83v6.54Z"/><path fill="#12131A" d="M5 4c0-.56-.45-1-1-1 -.56 0-1 .44-1 1v2c0 2.41 1.71 4.43 4 4.9V20c0 .55.44 1 1 1 .55 0 1-.45 1-1v-9.1c2.28-.47 4-2.49 4-4.9V4c0-.56-.45-1-1-1 -.56 0-1 .44-1 1v2c0 1.3-.84 2.41-2 2.82V3.99c0-.56-.45-1-1-1 -.56 0-1 .44-1 1v4.82c-1.17-.42-2-1.53-2-2.83v-2Z"/></g></svg>