<svg viewBox="0 0 24 24" xmlns="http://www.w3.org/2000/svg"><g><path opacity=".25" fill="#12131A" fill-rule="evenodd" d="M16 12c.55 0 1 .44 1 1v7c0 .55-.45 1-1 1 -.56 0-1-.45-1-1v-7c0-.56.44-1 1-1Z"/><g fill="#12131A"><path d="M16.17 3c-.65 0-1.18.52-1.18 1.17v8.82c0 .3.14.59.38.78 .24.18.55.25.85.18l4-1c.44-.12.75-.52.75-.98V7.79c0-2.67-2.17-4.83-4.83-4.83Z"/><path opacity=".25" fill="#12131A" fill-rule="evenodd" d="M8 9c.55 0 1 .44 1 1v10c0 .55-.45 1-1 1 -.56 0-1-.45-1-1V10c0-.56.44-1 1-1Z"/><path d="M5 4c0-.56-.45-1-1-1 -.56 0-1 .44-1 1v2c0 2.76 2.23 5 5 5 2.76 0 5-2.24 5-5V4c0-.56-.45-1-1-1 -.56 0-1 .44-1 1v2c0 1.3-.84 2.41-2 2.82V3.99c0-.56-.45-1-1-1 -.56 0-1 .44-1 1v4.82c-1.17-.42-2-1.53-2-2.83v-2Z"/></g></g></svg>