<svg viewBox="0 0 24 24" xmlns="http://www.w3.org/2000/svg"><g><g fill="#12131A"><path d="M5 10h2c0-.56.44-1 1-1 .55 0 1 .44 1 1v3c.58.43 1.26.74 2 .9V7c0-.56.44-1 1-1 .55 0 1 .44 1 1v6.9c.73-.15 1.41-.47 2-.9l-.01-4c0-.56.44-1 1-1 .55 0 1 .44 1 1v1h2V9c0-1.66-1.35-3-3-3 -.4 0-.77.07-1.11.21 -.35-1.28-1.52-2.22-2.9-2.22 -1.66 0-3 1.34-3 3v.17c-.32-.12-.65-.18-1-.18 -1.66 0-3 1.34-3 3Z"/><path fill="#12131A" fill-rule="evenodd" d="M18.71 11c-.87 2.89-3.54 5-6.72 5 -3.18 0-5.85-2.11-6.72-5H4.9c-.66 0-1.14.62-.97 1.26l1.36 5c.11.43.51.73.96.73h11.41c.45 0 .84-.31.96-.74l1.36-5c.17-.64-.31-1.27-.97-1.27h-.37Zm-1.72-2c0 2.76-2.24 5-5 5 -2.77 0-5.01-2.24-5.01-5H4.9C2.92 9 1.48 10.88 2 12.78l1.36 5c.35 1.3 1.54 2.21 2.89 2.21h11.41c1.35 0 2.53-.91 2.89-2.22l1.36-5c.52-1.91-.92-3.79-2.9-3.79h-2.08Z"/></g></g></svg>