<svg viewBox="0 0 24 24" xmlns="http://www.w3.org/2000/svg"><g><path fill="#12131A" fill-rule="evenodd" d="M11.99 15c2.04 0 3.72-1.53 3.96-3.51 .03-.28.25-.5.53-.5h3.5c1.33 0 2.29 1.28 1.91 2.57l-1.5 5c-.26.84-1.04 1.42-1.92 1.42H5.45c-.89 0-1.67-.59-1.92-1.43l-1.49-5c-.39-1.29.57-2.57 1.91-2.57h3.49c.27 0 .49.22.53.49 .24 1.97 1.92 3.5 3.96 3.5Z"/><g fill="#12131A"><path d="M9.99 6c0-1.11.89-2 1.99-2s2 .89 2 2v5c0 1.1-.9 2-2 2 -1.11 0-2-.9-2-2V6Z"/><path d="M15.99 8c0-1.11.89-2 2-2 1.1 0 2 .89 2 2v.5c0 .27-.23.5-.5.5h-3c-.28 0-.5-.23-.5-.5V8Z"/><path d="M4.06 8.5c-.07.26.16.49.43.49h3c.27 0 .5-.23.43-.5 -.23-.87-1.01-1.51-1.94-1.51 -.94 0-1.72.63-1.94 1.5Z"/></g></g></svg>