<svg viewBox="0 0 24 24" xmlns="http://www.w3.org/2000/svg"><g><g fill="#12131A"><path opacity=".25" d="M17.38 9.99c-2.6-.07-3.99-.53-5.39-1 -1.44-.48-2.88-.96-5.64-1l1.4 11.12c.06.49.48.87.99.87h6.47c.5 0 .92-.38.99-.88l1.15-9.14Z"/><path d="M10 14c.55 0 1-.45 1-1 0-.56-.45-1-1-1 -.56 0-1 .44-1 1 0 .55.44 1 1 1Z"/><path d="M13 18c.55 0 1-.45 1-1 0-.56-.45-1-1-1 -.56 0-1 .44-1 1 0 .55.44 1 1 1Z"/><path fill="#12131A" fill-rule="evenodd" d="M4.02 5.37c-.23-1.8 1.17-3.38 2.97-3.38h10c1.8 0 3.2 1.58 2.97 3.37l-1.77 14c-.19 1.49-1.47 2.62-2.98 2.62H8.73c-1.52 0-2.79-1.13-2.98-2.63l-1.77-14Zm2.97-1.38c-.61 0-1.07.52-1 1.12L7.75 19.1c.06.5.48.87.99.87h6.47c.5 0 .92-.38.99-.88l1.76-14c.07-.6-.4-1.13-1-1.13H6.95Z"/></g></g></svg>