<svg viewBox="0 0 24 24" xmlns="http://www.w3.org/2000/svg"><g><g fill="#12131A"><path d="M10 14c.55 0 1-.45 1-1 0-.56-.45-1-1-1 -.56 0-1 .44-1 1 0 .55.44 1 1 1Z"/><path d="M13 18c.55 0 1-.45 1-1 0-.56-.45-1-1-1 -.56 0-1 .44-1 1 0 .55.44 1 1 1Z"/><path d="M4.47 9l-.26-2h1.77c3.15 0 4.76.53 6.31 1.05l.01 0c1.44.48 2.82.94 5.66.94h1.52l-.26 2h-1.27c-3.16 0-4.77-.54-6.32-1.06l-.02-.01c-1.45-.49-2.83-.95-5.67-.95H4.41Z"/><path fill="#12131A" fill-rule="evenodd" d="M4.02 5.37c-.23-1.8 1.17-3.38 2.97-3.38h10c1.8 0 3.2 1.58 2.97 3.37l-1.77 14c-.19 1.49-1.47 2.62-2.98 2.62H8.73c-1.52 0-2.79-1.13-2.98-2.63l-1.77-14Zm2.97-1.38c-.61 0-1.07.52-1 1.12L7.75 19.1c.06.5.48.87.99.87h6.47c.5 0 .92-.38.99-.88l1.76-14c.07-.6-.4-1.13-1-1.13H6.95Z"/></g></g></svg>