<svg viewBox="0 0 24 24" xmlns="http://www.w3.org/2000/svg"><g><path fill="#12131A" fill-rule="evenodd" d="M6.99 2C5.18 2 3.78 3.58 4.01 5.37l1.76 13.99c.18 1.49 1.46 2.62 2.97 2.62h6.47c1.51 0 2.78-1.13 2.97-2.63l1.76-14c.22-1.8-1.18-3.38-2.98-3.38H6.95Zm-1 3.12c-.08-.6.39-1.13.99-1.13h10c.6 0 1.06.52.99 1.12l-.62 4.86c-2.6-.07-3.99-.53-5.39-1 -1.44-.48-2.88-.96-5.64-1l-.37-2.88Zm4.99 7.87c0 .55-.45 1-1 1 -.56 0-1-.45-1-1 0-.56.44-1 1-1 .55 0 1 .44 1 1Zm2 5c.55 0 1-.45 1-1 0-.56-.45-1-1-1 -.56 0-1 .44-1 1 0 .55.44 1 1 1Z"/></g></svg>