<svg viewBox="0 0 24 24" xmlns="http://www.w3.org/2000/svg"><g><path fill="#12131A" fill-rule="evenodd" d="M7 5c.49 0 .96.08 1.4.25 .64-1.34 2.01-2.26 3.59-2.26s2.95.91 3.599 2.25c.43-.17.9-.26 1.4-.26 2.2 0 4 1.79 4 4 0 1.48-.81 2.77-2 3.46v5.53c0 1.65-1.35 3-3 3h-8c-1.66 0-3-1.35-3-3v-5.54c-1.2-.7-2-1.99-2-3.47 0-2.21 1.79-4 4-4Zm0 7.46c0-.72-.39-1.38-1-1.74 -.61-.35-1.01-1-1.01-1.74 0-1.11.89-2 2-2 .25 0 .48.04.7.12 .96.36 2.04-.08 2.49-1 .32-.68 1.01-1.13 1.8-1.13 .78 0 1.47.45 1.8 1.12 .45.92 1.53 1.35 2.49.99 .21-.09.45-.13.7-.13 1.1 0 2 .89 2 2 0 .73-.4 1.38-1.01 1.73 -.62.35-1 1.01-1 1.73v2.53h-10V12.4Zm0 4.53v1c0 .55.44 1 1 1h8c.55 0 1-.45 1-1v-1H7Z"/></g></svg>