<svg viewBox="0 0 24 24" xmlns="http://www.w3.org/2000/svg"><g><g fill="#12131A"><path d="M7.5 15.35c-.25-.66.23-1.36.93-1.36h7.11c.69 0 1.18.69.93 1.35l-1.8 4.77c-.43 1.12-1.5 1.87-2.71 1.87v0c-1.21 0-2.28-.75-2.71-1.88l-1.8-4.78Z"/><path fill="#12131A" fill-rule="evenodd" d="M16.97 6.5c.02.27.24.49.52.49v0c1.38 0 2.5 1.11 2.5 2.5 0 1.38-1.12 2.5-2.5 2.5h-5.5 -5.5c-1.39 0-2.5-1.12-2.5-2.5 0-1.39 1.11-2.5 2.5-2.5v0c.27 0 .49-.23.52-.5 .25-2.527 2.38-4.51 4.97-4.51s4.72 1.97 4.97 4.5Z"/></g></g></svg>