<svg viewBox="0 0 24 24" xmlns="http://www.w3.org/2000/svg"><g><g fill="#12131A" fill-rule="evenodd"><path d="M8.95 14l2.16 5.4c.14.36.49.59.88.59s.74-.24.88-.6l2.16-5.41h-6.1Zm-1.48-2c-.71 0-1.2.71-.93 1.37l2.7 6.77c.44 1.12 1.53 1.85 2.74 1.85 1.2 0 2.29-.74 2.74-1.86l2.7-6.78c.26-.66-.23-1.38-.93-1.38H7.44Z"/><path d="M7.89 8.66l-1.03.47c-.53.23-.88.76-.88 1.36 0 .82.67 1.5 1.5 1.5h9c.82 0 1.5-.68 1.5-1.5 0-.61-.36-1.13-.88-1.37l-1.03-.48 -.13-1.13c-.23-2-1.93-3.55-3.98-3.55 -2.06 0-3.75 1.55-3.98 3.54l-.13 1.12Zm10.06-1.35c-.34-3-2.88-5.32-5.97-5.32s-5.63 2.32-5.97 5.31c-1.21.55-2.04 1.76-2.04 3.18 0 1.93 1.56 3.5 3.5 3.5h9c1.93 0 3.5-1.57 3.5-3.5 0-1.42-.84-2.63-2.04-3.19Z"/></g></g></svg>