<svg viewBox="0 0 24 24" xmlns="http://www.w3.org/2000/svg"><g><path fill="#12131A" fill-rule="evenodd" d="M16.47 4c-1.14 0-2.18.64-2.69 1.65l-.9 1.78c-.25.49-.85.69-1.35.44 -.5-.25-.7-.85-.45-1.35l.89-1.79c.84-1.7 2.57-2.77 4.47-2.77h2.52c.55 0 1 .44 1 1 0 .55-.45 1-1 1h-2.53Z"/><g fill="#12131A"><path d="M6.5 2h-2c-.28 0-.5.22-.5.5C4 3.88 5.11 5 6.5 5h2c.27 0 .5-.23.5-.5C9 3.11 7.88 2 6.5 2Z"/><path fill="#12131A" fill-rule="evenodd" d="M16 9.82c0-2.11-1.72-3.83-3.83-3.83h-.36c-2.11 0-3.83 1.71-3.83 3.82v0c0 1.08-.53 2.08-1.1 3.01 -.58.91-.91 2-.91 3.16 0 3.31 2.68 6 6 6 3.31 0 6-2.69 6-6 0-1.17-.34-2.25-.91-3.17 -.58-.93-1.1-1.93-1.1-3.02v0Z"/></g></g></svg>