<svg viewBox="0 0 24 24" xmlns="http://www.w3.org/2000/svg"><g><g fill="#12131A"><path d="M20.92 15.44c-.05-.24-.32-.35-.53-.24 -.41.2-1 .47-1.76.74 -1.54.53-3.77 1.05-6.65 1.05 -2.88 0-5.11-.53-6.65-1.06 -.77-.27-1.36-.54-1.76-.75 -.22-.12-.5-.01-.54.24 -.35 1.97.61 3.96 2.7 4.58 1.79.53 3.95.96 6.23.96 2.27 0 4.43-.44 6.22-.97 2.08-.63 3.04-2.62 2.69-4.59Z"/><path fill="#12131A" fill-rule="evenodd" d="M4.35 12.78c-.15.21-.09.51.15.63 .32.16.83.39 1.5.63 1.34.46 3.35.94 5.98.94 2.62 0 4.64-.48 5.98-.95 .67-.24 1.17-.47 1.5-.64 .23-.12.29-.42.15-.63l-1.81-2.69c-.14-.21-.41-.28-.65-.21 -.22.06-.46.09-.7.09 -1.39 0-2.5-1.12-2.5-2.5 0-.59.2-1.13.53-1.55 .15-.2.19-.48.05-.68l-.94-1.4c-.8-1.18-2.53-1.19-3.33-.01l-5.99 8.9Zm6.64-.79c0 .55-.45 1-1.01 1s-1-.45-1-1c0-.56.44-1 1-1 .55 0 1 .44 1 1Z"/></g></g></svg>