<svg viewBox="0 0 24 24" xmlns="http://www.w3.org/2000/svg"><g><g fill="#12131A"><path d="M5 16c0 .55-.45 1-1 1 -.56 0-1-.45-1-1 0-.56.44-1 1-1 .55 0 1 .44 1 1Z"/><path d="M5 20c0 .55-.45 1-1 1 -.56 0-1-.45-1-1 0-.56.44-1 1-1 .55 0 1 .44 1 1Z"/><path d="M8 20c.55 0 1-.45 1-1 0-.56-.45-1-1-1 -.56 0-1 .44-1 1 0 .55.44 1 1 1Z"/><path fill="#12131A" fill-rule="evenodd" d="M13.11 3.88c1.17-1.18 3.07-1.18 4.24-.01l2.76 2.76c1.17 1.17 1.17 3.07 0 4.24l-6.24 6.23c-1.18 1.17-3.08 1.17-4.25 0l-2.77-2.77c-1.18-1.18-1.18-3.08 0-4.25l6.23-6.24Zm2.82 1.41l2.76 2.76c.39.39.39 1.02 0 1.41l-3.42 3.41 -4.19-4.19 3.41-3.42c.39-.4 1.02-.4 1.41-.01Zm-6.25 4.82l-1.42 1.41c-.4.39-.4 1.02-.01 1.41l2.76 2.76c.39.39 1.02.39 1.41 0l1.41-1.42 -4.19-4.19Z"/></g></g></svg>