<svg viewBox="0 0 24 24" xmlns="http://www.w3.org/2000/svg"><g><g fill="#12131A"><path d="M3 17.8c0-.45.35-.8.8-.8h16.4c.44 0 .8.35.8.8 0 1.76-1.44 3.2-3.2 3.2H6.2C4.43 21 3 19.56 3 17.8Z"/><g fill="#12131A" fill-rule="evenodd"><path d="M3.8 17c-.45 0-.8.35-.8.8C3 19.56 4.43 21 6.2 21h11.6c1.76 0 3.2-1.44 3.2-3.2 0-.45-.36-.8-.8-.8H3.8Z"/><path d="M14.67 7.35c.2-.41.32-.87.32-1.36 0-1.66-1.35-3-3-3 -1.66 0-3 1.34-3 3 0 .48.11.94.32 1.35 -3.09.97-5.33 3.85-5.33 7.26 0 .21.17.38.38.38h15.23c.21 0 .38-.18.38-.39 0-3.41-2.24-6.3-5.33-7.27Zm-1.68-1.36c0 .55-.45 1-1 1 -.56 0-1-.45-1-1 0-.56.44-1 1-1 .55 0 1 .44 1 1Z"/></g></g></g></svg>