<svg viewBox="0 0 24 24" xmlns="http://www.w3.org/2000/svg"><g><path fill="#12131A" fill-rule="evenodd" d="M3 14c0-1.66 1.34-3 3-3h12c1.65 0 3 1.34 3 3v1c0 3.31-2.69 6-6 6H9c-3.32 0-6-2.69-6-6v-1Zm3-1h12c.55 0 1 .44 1 1v1H5v-1c0-.56.44-1 1-1Zm-.47 4c.69 1.19 1.98 2 3.46 2h6c1.48 0 2.77-.81 3.46-2H5.52Z"/><g fill="#12131A"><path d="M9 3c.55 0 1 .44 1 1 0 1.22-.33 1.89-.61 2.44l-.01.01c-.22.43-.39.77-.39 1.53 0 .55-.45 1-1 1 -.56 0-1-.45-1-1 0-1.23.32-1.9.6-2.45l0-.02c.21-.44.38-.78.38-1.54 0-.56.44-1 1-1Z"/><path d="M13 3c.55 0 1 .44 1 1 0 1.22-.33 1.89-.61 2.44l-.01.01c-.22.43-.39.77-.39 1.53 0 .55-.45 1-1 1 -.56 0-1-.45-1-1 0-1.23.32-1.9.6-2.45l0-.02c.21-.44.38-.78.38-1.54 0-.56.44-1 1-1Z"/><path d="M18 4c0-.56-.45-1-1-1 -.56 0-1 .44-1 1 0 .76-.17 1.1-.39 1.53l-.01.01c-.28.55-.61 1.22-.61 2.44 0 .55.44 1 1 1 .55 0 1-.45 1-1 0-.77.16-1.11.38-1.54l0-.02c.27-.56.6-1.23.6-2.45Z"/></g></g></svg>