<svg viewBox="0 0 24 24" xmlns="http://www.w3.org/2000/svg"><g><g fill="#12131A"><path opacity=".25" d="M16 21c2.76 0 5-2.24 5-5v-2H3v2c0 .17 0 .34.02.51 .25 2.52 2.38 4.48 4.97 4.48h8Z"/><path fill="#12131A" fill-rule="evenodd" d="M21 13c0-.37-.1-.71-.27-1 -.35-.6-1-1-1.74-1h-14c-.75 0-1.39.4-1.74 1 -.18.29-.27.63-.27 1v1h18v-1Z"/><path d="M9 3c.55 0 1 .44 1 1 0 1.22-.33 1.89-.61 2.44l-.01.01c-.22.43-.39.77-.39 1.53 0 .55-.45 1-1 1 -.56 0-1-.45-1-1 0-1.23.32-1.9.6-2.45l0-.02c.21-.44.38-.78.38-1.54 0-.56.44-1 1-1Z"/><path d="M13 3c.55 0 1 .44 1 1 0 1.22-.33 1.89-.61 2.44l-.01.01c-.22.43-.39.77-.39 1.53 0 .55-.45 1-1 1 -.56 0-1-.45-1-1 0-1.23.32-1.9.6-2.45l0-.02c.21-.44.38-.78.38-1.54 0-.56.44-1 1-1Z"/><path d="M18 4c0-.56-.45-1-1-1 -.56 0-1 .44-1 1 0 .76-.17 1.1-.39 1.53l-.01.01c-.28.55-.61 1.22-.61 2.44 0 .55.44 1 1 1 .55 0 1-.45 1-1 0-.77.16-1.11.38-1.54l0-.02c.27-.56.6-1.23.6-2.45Z"/></g></g></svg>