<svg viewBox="0 0 24 24" xmlns="http://www.w3.org/2000/svg"><g><g fill="#12131A"><path d="M3 13c0-1.11.89-2 2-2h14c1.1 0 2 .89 2 2v.5c0 .27-.23.5-.5.5h-17c-.28 0-.5-.23-.5-.5V13Z"/><path d="M20.97 16.49c.02-.28-.2-.5-.48-.5h-17c-.28 0-.51.22-.48.49 .25 2.52 2.38 4.5 4.97 4.5h8c2.59 0 4.72-1.98 4.97-4.51Z"/><path d="M9 3c.55 0 1 .44 1 1 0 1.22-.33 1.89-.61 2.44l-.01.01c-.22.43-.39.77-.39 1.53 0 .55-.45 1-1 1 -.56 0-1-.45-1-1 0-1.23.32-1.9.6-2.45l0-.02c.21-.44.38-.78.38-1.54 0-.56.44-1 1-1Z"/><path d="M13 3c.55 0 1 .44 1 1 0 1.22-.33 1.89-.61 2.44l-.01.01c-.22.43-.39.77-.39 1.53 0 .55-.45 1-1 1 -.56 0-1-.45-1-1 0-1.23.32-1.9.6-2.45l0-.02c.21-.44.38-.78.38-1.54 0-.56.44-1 1-1Z"/><path d="M18 4c0-.56-.45-1-1-1 -.56 0-1 .44-1 1 0 .76-.17 1.1-.39 1.53l-.01.01c-.28.55-.61 1.22-.61 2.44 0 .55.44 1 1 1 .55 0 1-.45 1-1 0-.77.16-1.11.38-1.54l0-.02c.27-.56.6-1.23.6-2.45Z"/></g></g></svg>