<svg viewBox="0 0 24 24" xmlns="http://www.w3.org/2000/svg"><g><g fill="#12131A"><path d="M11 14v6H9c-.56 0-1 .44-1 1 0 .55.44 1 1 1h6c.55 0 1-.45 1-1 0-.56-.45-1-1-1h-2v-6h-2Z"/><path fill="#12131A" fill-rule="evenodd" d="M6.82 2.53c.6-.44 1.29-.54 1.85-.54l6.63 0c.56 0 1.25.1 1.85.53 2.19 1.57 3.26 4.92 2.66 7.81 -.31 1.48-1.06 2.91-2.39 3.97 -1.33 1.05-3.15 1.67-5.46 1.67 -2.32 0-4.14-.62-5.46-1.68 -1.33-1.06-2.08-2.49-2.39-3.98 -.6-2.9.47-6.24 2.66-7.82Zm1.85 1.46c-.34 0-.56.06-.69.16C6.54 5.18 5.63 7.66 6.1 9.94c.22 1.09.76 2.09 1.66 2.81 .9.72 2.25 1.23 4.21 1.23s3.3-.52 4.21-1.24c.9-.73 1.44-1.72 1.66-2.82 .46-2.28-.45-4.76-1.88-5.8 -.14-.1-.35-.17-.69-.17l-6.64-.01Z"/></g></g></svg>