<svg viewBox="0 0 24 24" xmlns="http://www.w3.org/2000/svg"><g><g fill="#12131A"><path opacity=".25" d="M11 15.96c.32.02.65.04.99.04 .34 0 .67-.02.99-.04 0 .01 0 .02 0 .04v4h2c.55 0 1 .44 1 1 0 .55-.45 1-1 1h-6c-.56 0-1-.45-1-1 0-.56.44-1 1-1h2v-4c0-.02 0-.03 0-.04Z"/><path d="M8.68 2c-.57 0-1.26.1-1.86.53 -2.2 1.57-3.27 4.92-2.67 7.81 .3 1.48 1.05 2.91 2.38 3.97 1.32 1.05 3.14 1.67 5.45 1.67s4.13-.62 5.45-1.68c1.32-1.06 2.07-2.49 2.38-3.98 .59-2.9-.48-6.24-2.67-7.82 -.61-.44-1.3-.54-1.86-.54l-6.64-.01Z"/></g></g></svg>