<svg viewBox="0 0 24 24" xmlns="http://www.w3.org/2000/svg"><g><g fill="#12131A"><path d="M14.41 20.41l-.07-.07c-.2-.2-.2-.52 0-.71l5.29-5.3c.19-.2.51-.2.7 0l.06.06c.78.78.78 2.04 0 2.82l-3.18 3.17c-.79.78-2.05.78-2.83 0Z"/><path fill="#12131A" fill-rule="evenodd" d="M3.01 5.9l1.47 7.5c.31 1.62 1.41 2.98 2.93 3.63l4.26 1.82c.18.08.4.03.55-.11l6.52-6.53c.14-.15.18-.37.1-.56l-1.83-4.27c-.66-1.52-2.01-2.62-3.64-2.94L5.85 2.96c-.49-.1-.8.49-.46.84l5.11 5.19c.14-.04.29-.05.44-.05 1.1 0 2 .89 2 2 0 1.1-.9 2-2 2 -1.11 0-2.01-.9-2.01-2 0-.14.01-.28.04-.41L3.78 5.38c-.35-.35-.94-.04-.85.45Z"/></g></g></svg>