<svg viewBox="0 0 24 24" xmlns="http://www.w3.org/2000/svg"><g><g fill="#12131A"><path d="M4.77 14.65l-1.72 5.01c-.27.78.48 1.53 1.26 1.27l5.02-1.71c.43-.15.82-.4 1.15-.72l.15-.16c.19-.2.19-.52 0-.71l-4.31-4.31c-.2-.2-.52-.2-.71-.01l-.16.15c-.33.32-.57.71-.72 1.15Z"/><path d="M12.83 6.83c-.2-.2-.52-.2-.71 0l-4.28 4.31c-.2.19-.2.51 0 .7l4.3 4.3c.19.19.51.19.7-.01l4.27-4.32c.19-.2.19-.52-.01-.71l-4.31-4.31Z"/><path d="M15.11 3.88l-.77.76c-.2.19-.2.51 0 .7l4.3 4.3c.19.19.51.19.7-.01l.76-.77c1.17-1.18 1.17-3.08 0-4.25l-.77-.77c-1.18-1.18-3.08-1.18-4.25 0Z"/></g></g></svg>