<svg viewBox="0 0 24 24" xmlns="http://www.w3.org/2000/svg"><g><path fill="#12131A" fill-rule="evenodd" d="M13 4.98c0-.33-.31-.57-.62-.49l-3 .7c-.23.05-.39.25-.39.48v4.8c0 .27.22.5.5.5h3c.27 0 .5-.23.5-.5V4.95Zm2.5 6.01c-.28 0-.5-.23-.5-.5V4.27c0-.24.15-.44.38-.49l3.15-.75c1.25-.3 2.45.65 2.45 1.94v5.49c0 .27-.23.5-.5.5h-5Zm5.5 2.5c0-.28-.23-.5-.5-.5h-5c-.28 0-.5.22-.5.5v6.22c0 .23.15.43.38.48l3.15.74c1.25.29 2.45-.66 2.45-1.95v-5.51Zm-8 0c0-.28-.23-.5-.5-.5h-3c-.28 0-.5.22-.5.5v4.81c0 .23.15.43.38.48l3 .7c.31.07.61-.17.61-.49v-5.52Zm-6.5-.5c.27 0 .5.22.5.5v4.1c0 .32-.31.56-.62.48l-1.85-.44c-.91-.22-1.55-1.02-1.55-1.95v-2.22c0-.28.22-.5.5-.5h3Zm-3-2c-.28 0-.5-.23-.5-.5V8.28c0-.93.63-1.74 1.54-1.95l1.84-.44c.31-.08.61.16.61.48v4.1c0 .27-.23.5-.5.5h-3Z"/></g></svg>