<svg viewBox="0 0 24 24" xmlns="http://www.w3.org/2000/svg"><g><g fill="#12131A" fill-rule="evenodd"><path d="M18.73 10.43c-.05-.28-.31-.46-.58-.45 -.06 0-.11 0-.17 0 -2.05 0-3.73-1.53-3.97-3.51 -.04-.28-.26-.5-.54-.5h-3c-.28 0-.5.22-.54.49 -.25 1.97-1.93 3.5-3.97 3.5 -.06 0-.11-.01-.17-.01 -.28-.02-.54.16-.58.44l-.53 3.12c-.05.27.14.52.4.6 1.49.44 2.62 1.74 2.82 3.33 .03.27.25.49.53.49h7c.27 0 .49-.23.53-.5 .19-1.59 1.32-2.89 2.82-3.34 .26-.08.45-.34.4-.61l-.53-3.13Z"/><path d="M6 8c1.1 0 2-.9 2-2 0-1.11-.9-2-2-2 -1.11 0-2 .89-2 2 0 1.1.89 2 2 2Zm12 0c1.1 0 2-.9 2-2 0-1.11-.9-2-2-2 -1.11 0-2 .89-2 2 0 1.1.89 2 2 2Zm4 10c0 1.1-.9 2-2 2 -1.11 0-2-.9-2-2 0-1.11.89-2 2-2 1.1 0 2 .89 2 2ZM4 20c1.1 0 2-.9 2-2 0-1.11-.9-2-2-2 -1.11 0-2 .89-2 2 0 1.1.89 2 2 2Z"/></g></g></svg>