<svg viewBox="0 0 24 24" xmlns="http://www.w3.org/2000/svg"><g><path opacity=".25" fill="#12131A" fill-rule="evenodd" d="M4 13.5C4 17 6.5 22 9.5 22c.89 0 1.74-.45 2.5-1.17 .75.71 1.6 1.16 2.5 1.16 3 0 5.5-5 5.5-8.5s-2.01-6.5-5.51-6.5c-.95 0-1.79.21-2.5.6 -.72-.39-1.56-.61-2.5-.61 -3.5 0-5.5 3-5.5 6.5Z"/><g fill="#12131A"><path d="M9.5 13c-.28 0-.5.22-.5.5v1c0 .82.67 1.5 1.5 1.5 .27 0 .5-.23.5-.5v-1c0-.83-.68-1.5-1.5-1.5Z"/><path d="M14.5 13c.27 0 .5.22.5.5v1c0 .82-.68 1.5-1.5 1.5 -.28 0-.5-.23-.5-.5v-1c0-.83.67-1.5 1.5-1.5Z"/><path d="M17.5 2h2c.27 0 .5.22.5.5C20 3.88 18.88 5 17.5 5h-2c-.28 0-.5-.23-.5-.5C15 3.11 16.11 2 17.5 2Z"/><path d="M11 7c0-1.66-1.35-3-3-3H7c-.56 0-1-.45-1-1 0-.56.44-1 1-1h1c2.76 0 5 2.23 5 5v.2c-.36.1-.69.23-1.01.4 -.32-.17-.65-.31-1-.41v-.21Z"/></g></g></svg>