<svg viewBox="0 0 24 24" xmlns="http://www.w3.org/2000/svg"><g><path opacity=".25" fill="#12131A" fill-rule="evenodd" d="M11.99 15c2.2 0 4-1.8 4-4h4c1.33 0 2.29 1.28 1.91 2.57l-1.5 5c-.26.84-1.04 1.42-1.92 1.42H5.46c-.89 0-1.67-.59-1.92-1.43l-1.49-5c-.39-1.29.57-2.57 1.91-2.57h3.99c0 2.2 1.79 4 4 4Z"/><g fill="#12131A"><path d="M13.93 14.5c-.58.31-1.24.49-1.94.49 -.71 0-1.37-.19-1.94-.5 -.05-.17-.07-.33-.07-.51v-8c0-1.11.89-2 2-2 1.1 0 2 .89 2 2v8c0 .17-.03.34-.07.5Z"/><path d="M16 8c0-1.11.89-2 2-2 1.1 0 2 .89 2 2v3h-4V8Z"/><path d="M6 7c-1.11 0-2 .89-2 2v2h4V9c0-1.11-.9-2-2-2Z"/></g></g></svg>