<svg viewBox="0 0 24 24" xmlns="http://www.w3.org/2000/svg"><g><g fill="#12131A"><path opacity=".25" d="M10.33 3.88l-6.52 9.69c-.35.5-.58 1.04-.71 1.6 -.01 0 0 0 0 0 .26.07.51.17.76.29 1.29.59 3.99 1.53 8.11 1.53 4.11 0 6.82-.95 8.11-1.54 .24-.12.49-.22.75-.29 -.13-.55-.37-1.1-.71-1.6l-6.52-9.7c-.8-1.18-2.53-1.19-3.33-.01Z"/><path fill="#12131A" fill-rule="evenodd" d="M11.816 20.99c-2.22-.03-4.3-.45-6.05-.97 -2.19-.66-3.14-2.81-2.65-4.86 .26.07.51.17.76.29 1.29.59 3.99 1.53 8.11 1.53 4.11 0 6.82-.95 8.11-1.54 .24-.12.49-.22.75-.29 .48 2.05-.47 4.2-2.65 4.85 -1.75.52-3.84.94-6.05.96h-.37Z"/><path d="M17.59 9.74l-2.77-4.12c-.52.45-.84 1.12-.84 1.86 0 1.38 1.11 2.49 2.5 2.49 .39 0 .76-.1 1.09-.26Z"/><path d="M10 13c.55 0 1-.45 1-1 0-.56-.45-1-1-1 -.56 0-1 .44-1 1 0 .55.44 1 1 1Z"/></g></g></svg>