<svg viewBox="0 0 24 24" xmlns="http://www.w3.org/2000/svg"><g><g fill="#12131A"><path d="M5 16c0 .55-.45 1-1 1 -.56 0-1-.45-1-1 0-.56.44-1 1-1 .55 0 1 .44 1 1Z"/><path d="M5 20c0 .55-.45 1-1 1 -.56 0-1-.45-1-1 0-.56.44-1 1-1 .55 0 1 .44 1 1Z"/><path d="M8 20c.55 0 1-.45 1-1 0-.56-.45-1-1-1 -.56 0-1 .44-1 1 0 .55.44 1 1 1Z"/><path d="M14.99 15.99l-7-7L6.57 10.4c-.79.78-.79 2.04-.01 2.82l4.16 4.16c.78.78 2.048.78 2.82 0l1.41-1.42Z"/><path opacity=".25" d="M8 8.99l5.417-5.42c.78-.79 2.04-.79 2.82-.01l4.16 4.16c.782.78.78 2.04 0 2.82l-5.43 5.41 -7-7Z"/></g></g></svg>