<svg viewBox="0 0 24 24" xmlns="http://www.w3.org/2000/svg"><g><path fill="#12131A" fill-rule="evenodd" d="M2 12c0-2.54.94-4.86 2.5-6.62 2.11 1.44 3.49 3.86 3.49 6.61 0 2.74-1.39 5.17-3.5 6.61 -1.56-1.77-2.51-4.08-2.51-6.62Zm10 10c-2.26 0-4.33-.75-6-2 2.42-1.83 4-4.73 4-8.01 0-3.28-1.58-6.18-4-8.01 1.67-1.26 3.74-2 6-2 2.25 0 4.32.74 6 1.99 -2.43 1.82-4 4.72-4 8 0 3.27 1.57 6.17 4 8 -1.68 1.25-3.75 1.99-6 1.99Zm7.49-16.62c1.55 1.76 2.5 4.07 2.5 6.61 0 2.53-.95 4.85-2.51 6.61 -2.12-1.44-3.5-3.87-3.5-6.62s1.38-5.18 3.49-6.62Z"/></g></svg>