<svg viewBox="0 0 24 24" xmlns="http://www.w3.org/2000/svg"><g><g fill="#12131A" fill-rule="evenodd"><path d="M7 17h2v2c0 .55-.45 1-1 1 -.56 0-1-.45-1-1v-2Zm8 0h2v2c0 .55-.45 1-1 1 -.56 0-1-.45-1-1v-2Zm-2 0h-2v2c0 .55.44 1 1 1 .55 0 1-.45 1-1v-2Z"/><path d="M2.21 5.09c-.22.42-.22.98-.22 2.1v6.6c0 1.12 0 1.68.21 2.1 .19.37.49.68.87.87 .42.21.98.21 2.1.21h1.8v-2 -2c-.56 0-1-.45-1-1 0-.56.44-1 1-1h10c.55 0 1 .44 1 1 0 .55-.45 1-1 1v2 2h1.8c1.12 0 1.68 0 2.1-.22 .37-.2.68-.5.87-.88 .21-.43.21-.99.21-2.11v-6.6c0-1.13 0-1.69-.22-2.11 -.2-.38-.5-.69-.88-.88 -.43-.22-.99-.22-2.11-.22H5.14c-1.13 0-1.69 0-2.11.21 -.38.19-.69.49-.88.87Zm10.78 7.9h2v2h-2v-2Zm-2 0h-2v2h2v-2Z"/></g></g></svg>