<svg viewBox="0 0 24 24" xmlns="http://www.w3.org/2000/svg"><g><path fill="#12131A" fill-rule="evenodd" d="M20.7 4.7c.39-.4.39-1.03 0-1.42 -.4-.4-1.03-.4-1.42 0l-3 3c-.4.39-.4 1.02 0 1.41 .39.39 1.02.39 1.41 0l3-3Zm-8 7.99c.39-.4.39-1.03 0-1.42 -.4-.4-1.03-.4-1.42 0l-2.01 2c-.4.39-.4 1.02 0 1.41 .39.39 1.02.39 1.41 0l2-2Z"/><g fill="#12131A"><path d="M5.87 13h5.12v5.12c0 .55-.24 1.08-.65 1.46l-.95.87c-.79.73-2.02.7-2.78-.06l-3.06-3.06c-.77-.77-.79-1.99-.06-2.78l.87-.95c.37-.41.91-.65 1.46-.65Z"/><path d="M17.586 6.58l-.18-.18c-.79-.79-2.05-.79-2.83 0l-.68.67c-.79.78-.79 2.04 0 2.82l.17.17c.78.78 2.04.78 2.82 0l.67-.68c.78-.79.78-2.05 0-2.83Z"/></g></g></svg>