<svg viewBox="0 0 24 24" xmlns="http://www.w3.org/2000/svg"><g><g fill="#12131A" fill-rule="evenodd"><path d="M3.29 3.29c-.4.39-.4 1.02 0 1.41l5 5c.39.39 1.02.39 1.41 0 .39-.4.39-1.03 0-1.42l-5-5c-.4-.4-1.03-.4-1.42 0Zm14.62 16.03l-.24.23c-.59.58-1.54.58-2.13 0l-.84-.84c-.98-.98-.98-2.56-.01-3.54l.45-.46c.98-.99 2.56-.99 3.55-.01l.82.82c.58.58.58 1.53 0 2.12l-.24.23 1.37 1.37c.39.39.39 1.02 0 1.41 -.4.39-1.03.39-1.42 0l-1.38-1.38Z"/><path d="M20.7 3.29c.39.39.39 1.02 0 1.41L9.67 15.72c.53.95.4 2.18-.42 2.99l-.84.83c-.59.58-1.54.58-2.13-.01l-.24-.24 -1.39 1.38c-.4.39-1.03.39-1.42 0 -.4-.4-.4-1.03 0-1.42l1.38-1.39 -.24-.24c-.59-.59-.59-1.54-.01-2.13l.82-.83c.81-.82 2.04-.96 3-.42L19.2 3.21c.39-.4 1.02-.4 1.41 0Z"/></g></g></svg>