<svg viewBox="0 0 24 24" xmlns="http://www.w3.org/2000/svg"><g><path fill="#12131A" fill-rule="evenodd" d="M12 22c3.86 0 7-3.14 7-7 0-3.87-3.14-7-7-7 -3.87 0-7 3.13-7 7 0 3.86 3.13 7 7 7Zm2-7c0 1.1-.9 2-2 2 -1.11 0-2-.9-2-2 0-1.11.89-2 2-2 1.1 0 2 .89 2 2Z"/><g fill="#12131A"><path d="M14.651 6.25c.06.11.16.19.28.23 .82.28 1.6.69 2.3 1.19 .25.18.61.11.76-.17l1.8-3.31c.54-1-.18-2.22-1.32-2.22h-3.32c-.73 0-1.4.39-1.75 1.02l-.15.26c-.09.15-.09.33 0 .48l1.37 2.47Z"/><path d="M6.76 7.68c-.26.18-.62.11-.77-.17L4.18 4.2c-.55-1 .17-2.22 1.31-2.22H8.8c.72 0 1.39.39 1.74 1.02l1.54 2.77c.04.08-.02.19-.12.19v0c-1.96 0-3.77.62-5.24 1.68Z"/></g></g></svg>