<svg viewBox="0 0 24 24" xmlns="http://www.w3.org/2000/svg"><g><path fill="#12131A" fill-rule="evenodd" d="M8.5 3c.27 0 .5.22.5.5V4c0 1.65 1.34 3 3 3 1.65 0 3-1.35 3-3v-.5c0-.28.22-.5.5-.5h.5c1.1 0 2 .89 2 2v.99c0 1.66.91 2.7 1.73 3.31 .69.51 1.26 1.26 1.26 2.12v7.55c0 1.1-.9 2-2 2h-14c-1.11 0-2-.9-2-2v-7.56c0-.87.56-1.62 1.26-2.13 .82-.61 1.73-1.66 1.73-3.32v-1c0-1.11.89-2.01 2-2.01h.5Zm4.5 9c0-.56-.45-1-1-1h-1c-.56 0-1 .44-1 1 0 .55.44 1 1 1v2c-.56 0-1 .44-1 1 0 .55.44 1 1 1h1 1c.55 0 1-.45 1-1 0-.56-.45-1-1-1v-3Z"/></g></svg>