<svg viewBox="0 0 24 24" xmlns="http://www.w3.org/2000/svg"><g><path fill="#12131A" fill-rule="evenodd" d="M13 19v1c0 1.1-.9 2-2 2 -1.11 0-2-.9-2-2v-1c0-.56.44-1 1-1h2c.55 0 1 .44 1 1Z"/><g fill="#12131A"><path d="M14.08 3.17c.05-.24-.06-.5-.28-.6 -.86-.38-1.82-.59-2.81-.59 -3.87 0-7 3.13-7 7 0 .19 0 .38.02.56 .01.24.23.43.48.43h12.99c.24 0 .46-.19.48-.44 .01-.19.02-.38.02-.57 0-.2-.01-.39-.03-.58 -.02-.25-.23-.43-.48-.46 -1.98-.25-3.51-1.93-3.51-3.97 0-.29.02-.56.08-.83Z"/><path d="M5.05 12.69c-.2-.32.04-.7.41-.7h11.07c.36 0 .6.38.41.69 -1.24 1.98-3.44 3.3-5.95 3.3 -2.52 0-4.72-1.33-5.95-3.31Z"/><path fill="#12131A" fill-rule="evenodd" d="M18 6c1.1 0 2-.9 2-2 0-1.11-.9-2-2-2 -1.11 0-2 .89-2 2 0 1.1.89 2 2 2Z"/></g></g></svg>