<svg viewBox="0 0 24 24" xmlns="http://www.w3.org/2000/svg"><g><g fill="#12131A"><path opacity=".25" d="M22 12c0 5.52-4.48 10-10 10C6.47 22 2 17.52 2 12 2 6.47 6.47 2 12 2c5.52 0 10 4.47 10 10Z"/><path fill="#12131A" fill-rule="evenodd" d="M11 5c0-.56.44-1 1-1 .55 0 1 .44 1 1v1c1.65 0 3 1.34 3 3 0 .55-.45 1-1 1 -.56 0-1-.45-1-1 0-.56-.45-1-1-1h-2c-.56 0-1 .44-1 1v.55c0 .43.27.81.68.94l3.26 1.08c1.22.4 2.05 1.55 2.05 2.84v.55c0 1.65-1.35 3-3 3v1c0 .55-.45 1-1 1 -.56 0-1-.45-1-1v-1c-1.66 0-3-1.35-3-3 0-.56.44-1 1-1 .55 0 1 .44 1 1 0 .55.44 1 1 1h2c.55 0 1-.45 1-1v-.56c0-.44-.28-.82-.69-.95l-3.27-1.09c-1.23-.41-2.06-1.56-2.06-2.85v-.56c0-1.66 1.34-3 3-3v-1Z"/></g></g></svg>