<svg viewBox="0 0 24 24" xmlns="http://www.w3.org/2000/svg"><g><g fill="#12131A" fill-rule="evenodd"><path d="M6.15 6.15c-1.94 1.65-3.16 4.1-3.16 6.84 0 4.97 4.02 9 9 9 2.73 0 5.19-1.23 6.84-3.16L6.14 6.14Z"/><path d="M12 6c-.3 0-.59.01-.88.05 -.55.06-1.05-.33-1.12-.87 -.07-.55.32-1.05.86-1.12 .36-.05.74-.07 1.12-.07 4.97 0 9 4.02 9 9 0 .38-.03.75-.07 1.12 -.07.54-.57.93-1.12.86 -.55-.07-.94-.57-.87-1.12 .03-.29.05-.58.05-.88 0-3.87-3.14-7-7-7Z"/><path d="M17.2 2.4c.33-.45.95-.54 1.4-.2l2 1.5c.44.33.53.95.2 1.4 -.34.44-.96.53-1.4.2l-2-1.5c-.45-.34-.54-.96-.2-1.4Z"/><path d="M2.29 2.29c.39-.4 1.02-.4 1.41 0l17.99 18c.39.39.39 1.02 0 1.41 -.4.39-1.03.39-1.42 0L2.26 3.7c-.4-.4-.4-1.03 0-1.42Z"/></g></g></svg>