<svg viewBox="0 0 24 24" xmlns="http://www.w3.org/2000/svg"><g><g fill="#12131A" fill-rule="evenodd"><path d="M5.14 5.14c-.19.04-.36.1-.51.18 -.57.28-1.03.74-1.32 1.31 -.33.64-.33 1.48-.33 3.16v6.4c0 1.68 0 2.52.32 3.16 .28.56.74 1.02 1.31 1.31 .64.32 1.48.32 3.16.32h8.4c1.68 0 2.52 0 3.16-.33 .28-.15.53-.34.75-.56L5.1 5.11Z"/><path d="M18.03 7.02c-.29-.03-.66-.03-1.24-.03h-4.8c-.56 0-1-.45-1-1 0-.56.44-1 1-1h4.83c.52-.01.98-.01 1.35.03 .39.03.78.1 1.16.29 .56.28 1.02.74 1.31 1.31 .19.37.26.77.29 1.16 .03.37.03.82.03 1.35v4.83c0 .55-.45 1-1 1 -.56 0-1-.45-1-1v-4.8c0-.58-.01-.95-.03-1.24 -.03-.28-.06-.38-.09-.43 -.1-.19-.25-.35-.44-.44 -.05-.03-.16-.07-.43-.09Z"/><path d="M16 3c.55 0 1 .44 1 1v2c0 .55-.45 1-1 1 -.56 0-1-.45-1-1V4c0-.56.44-1 1-1Z"/><path d="M2.29 2.29c.39-.4 1.02-.4 1.41 0l17.99 18c.39.39.39 1.02 0 1.41 -.4.39-1.03.39-1.42 0L2.26 3.7c-.4-.4-.4-1.03 0-1.42Z"/></g></g></svg>