<svg viewBox="0 0 24 24" xmlns="http://www.w3.org/2000/svg"><g><path fill="#12131A" fill-rule="evenodd" d="M4.32 3.63c-.33.64-.33 1.48-.33 3.16v8.2h5v-13h-.2c-1.69 0-2.53 0-3.17.32 -.57.28-1.03.74-1.32 1.31Zm4.67 13.36h-5v.2c0 1.68 0 2.52.32 3.16 .28.56.74 1.02 1.31 1.31 .64.32 1.48.32 3.16.32h.2v-5Zm2 0h9v.2c0 1.68 0 2.52-.33 3.16 -.29.56-.75 1.02-1.32 1.31 -.65.32-1.49.32-3.17.32h-4.2v-5Zm9-2v-5.2c0-.29 0-.43-.06-.53 -.05-.1-.13-.18-.22-.22 -.11-.06-.25-.06-.53-.06h-2.2c-2.21 0-4-1.8-4-4v-2.2c0-.29 0-.43-.06-.53 -.05-.1-.13-.18-.22-.22 -.11-.06-.25-.06-.53-.06h-1.2v13h9Z"/><path fill="#12131A" d="M15 2.7c0-.4.31-.71.7-.71 .18 0 .36.07.5.2l3.58 3.58c.13.13.2.31.2.5 0 .39-.32.7-.71.7h-2.3c-1.11 0-2-.9-2-2v-2.3Z"/></g></svg>