<svg width="77" height="66" viewBox="0 0 77 66" fill="none" xmlns="http://www.w3.org/2000/svg">
<path d="M38.5352 64.8537C38.5352 64.8537 54.0399 53.2453 76.1985 59.7301C76.1361 37.6229 76.1985 12.2255 76.1985 12.2255C76.1985 12.2255 71.1181 10.3605 69.0153 9.88037" stroke="black" stroke-linecap="round" stroke-linejoin="round"/>
<path d="M38.4631 64.8793C38.4631 64.8793 45.3386 48.8978 68.5876 46.1642C68.5564 28.6083 68.5876 1 68.5876 1C68.5876 1 50.2706 2.25563 38.4325 17.7274" stroke="black" stroke-linecap="round" stroke-linejoin="round"/>
<path d="M38.4097 64.8537C38.4097 64.8537 23.1587 53.2453 1 59.7301C1.06246 37.6229 1 12.2255 1 12.2255C1 12.2255 6.08043 10.3605 8.1832 9.88037" stroke="black" stroke-linecap="round" stroke-linejoin="round"/>
<path d="M38.4943 64.8793C38.4943 64.8793 31.8599 48.8978 8.61097 46.1642C8.6422 28.6083 8.61097 1 8.61097 1C8.61097 1 26.6578 2.25563 38.4959 17.7274" stroke="black" stroke-linecap="round" stroke-linejoin="round"/>
<path d="M38.4606 64.889V17.2856" stroke="black" stroke-linecap="round" stroke-linejoin="round"/>
</svg>
