<svg width="100" height="57" viewBox="0 0 100 57" fill="none" xmlns="http://www.w3.org/2000/svg">
<path fill-rule="evenodd" clip-rule="evenodd" d="M98.8054 28.6407C98.8054 28.6407 76.914 56.2813 49.9027 56.2813C22.8914 56.2813 1 28.6407 1 28.6407C1 28.6407 22.8914 1 49.9027 1C76.914 1 98.8054 28.6407 98.8054 28.6407Z" stroke="black" stroke-linecap="round" stroke-linejoin="round"/>
<path fill-rule="evenodd" clip-rule="evenodd" d="M66.6086 28.9442C66.6086 38.342 58.9926 45.9538 49.599 45.9538C40.2054 45.9538 32.5894 38.342 32.5894 28.9442C32.5894 19.5464 40.2054 11.9346 49.599 11.9346C58.9926 11.9346 66.6086 19.5464 66.6086 28.9442Z" stroke="black" stroke-linecap="round" stroke-linejoin="round"/>
<path d="M49.5989 20.4395C54.2978 20.4395 58.1038 24.2496 58.1038 28.9443C58.1038 33.6389 54.2978 37.4491 49.5989 37.4491C44.9043 37.4491 41.0941 33.6389 41.0941 28.9443" stroke="black" stroke-linecap="round" stroke-linejoin="round"/>
</svg>
