<svg width="102" height="102" viewBox="0 0 102 102" fill="none" xmlns="http://www.w3.org/2000/svg">
<circle cx="52.2576" cy="49.4473" r="33" stroke="black" stroke-linecap="round" stroke-linejoin="round"/>
<path d="M58.7126 81.6734C66.0083 77.2515 71.2576 63.9563 71.2576 49.4473C71.2576 31.2219 62.9748 16.4473 52.7576 16.4473C42.5403 16.4473 34.2576 31.2219 34.2576 49.4473C34.2576 54.5478 34.9063 59.7403 36.0645 64.0521" stroke="black" stroke-linecap="round" stroke-linejoin="round"/>
<path d="M52.7576 16.5879L52.7576 77.3342" stroke="black" stroke-linecap="round" stroke-linejoin="round"/>
<path d="M24.224 49.2676H85.2325" stroke="black" stroke-linecap="round" stroke-linejoin="round"/>
<path d="M45.0942 17.175C32.3267 9.78205 21.6397 8.27952 16.2028 13.7164C7.80649 22.1127 16.9874 44.9066 36.7089 64.6281C56.4303 84.3496 79.2243 93.5305 87.6206 85.1342C92.8184 79.9363 90.773 69.2206 84.1676 57.1319" stroke="black" stroke-linecap="round" stroke-linejoin="round"/>
</svg>
