<svg width="94" height="78" viewBox="0 0 94 78" fill="none" xmlns="http://www.w3.org/2000/svg">
<path d="M64.8204 56.6255C67.7409 56.6255 71.1082 56.6255 74.9223 56.6255C74.9223 56.6255 92.9034 54.2972 92.9034 36.7593C92.9034 25.6461 83.6731 16.5036 72.2051 16.9288C67.7219 7.52408 58.112 1 46.9517 1C32.0633 1 19.9361 12.5622 19.069 27.14C9.74281 25.209 1 32.2655 1 41.7258C1 56.8639 16.9832 56.6255 16.9832 56.6255C22.7817 56.6255 27.6197 56.6255 31.4971 56.6255" stroke="black" stroke-linecap="round" stroke-linejoin="round"/>
<circle cx="48.1369" cy="43.035" r="21.3333" stroke="black" stroke-linecap="round" stroke-linejoin="round"/>
<ellipse cx="48.1369" cy="43.035" rx="11.5556" ry="21.3333" stroke="black" stroke-linecap="round" stroke-linejoin="round"/>
<path d="M26.9117 43.0353H69.3944" stroke="black" stroke-linecap="round" stroke-linejoin="round"/>
<path d="M48.1368 64.1843V21.7017" stroke="black" stroke-linecap="round" stroke-linejoin="round"/>
<path d="M51.2295 64.2446C51.2295 64.2446 51.2295 64.8125 51.2295 69.2847C51.2295 73.7568 53.3864 77.2754 57.5503 77.2754C61.7143 77.2754 74.5508 77.2754 74.5508 77.2754" stroke="black" stroke-linecap="round" stroke-linejoin="round"/>
<path d="M45.0508 64.3188C45.0508 64.3188 45.0508 64.8123 45.0508 69.2844C45.0508 73.7565 42.8939 77.2752 38.7299 77.2752C34.566 77.2752 21.7295 77.2752 21.7295 77.2752" stroke="black" stroke-linecap="round" stroke-linejoin="round"/>
</svg>
