<svg width="81" height="57" viewBox="0 0 81 57" fill="none" xmlns="http://www.w3.org/2000/svg">
<path d="M39.8235 41.0962C50.2143 41.0962 55.3265 42.1655 61.4351 47.8472C64.2918 50.5042 66.93 53.244 69.3496 56.0665C72.5955 55.3206 79.8724 51.2518 79.8724 44.734C79.8724 38.2162 75.6792 11.0555 67.5941 6.67361C65.8892 5.7496 66.0676 4.03549 63.9618 3.29334C61.856 2.55118 55.6695 0.874 53.7167 1.00753C51.7639 1.14106 50.5898 2.26896 49.2216 2.26896C47.8533 2.26896 39.8792 2.26896 39.8792 2.26896" stroke="black" stroke-linecap="round" stroke-linejoin="round"/>
<path d="M41.0488 41.0962C30.658 41.0962 25.5458 42.1655 19.4372 47.8472C16.5805 50.5042 13.9424 53.244 11.5227 56.0665C8.27679 55.3206 0.999954 51.2518 0.999954 44.734C0.999954 38.2162 5.19313 11.0555 13.2782 6.67361C14.9831 5.7496 14.8047 4.03549 16.9105 3.29334C19.0163 2.55118 25.2028 0.874 27.1556 1.00753C29.1084 1.14106 30.2825 2.26896 31.6507 2.26896C33.019 2.26896 40.9931 2.26896 40.9931 2.26896" stroke="black" stroke-linecap="round" stroke-linejoin="round"/>
<circle cx="51.1945" cy="32.0772" r="5.88235" stroke="black" stroke-linecap="round" stroke-linejoin="round"/>
<circle cx="19.1356" cy="16.6656" r="5.88235" stroke="black" stroke-linecap="round" stroke-linejoin="round"/>
<path d="M30.5004 26.1162V37.3354" stroke="black" stroke-linecap="round" stroke-linejoin="round"/>
<path d="M24.8909 31.7256H36.11" stroke="black" stroke-linecap="round" stroke-linejoin="round"/>
<path d="M46.8121 16.6948H42.8121" stroke="black" stroke-linecap="round" stroke-linejoin="round"/>
<path d="M36.8121 16.6948H32.8121" stroke="black" stroke-linecap="round" stroke-linejoin="round"/>
</svg>
