<svg viewBox="0 0 24 24" xmlns="http://www.w3.org/2000/svg"><g><path fill="#12131A" fill-rule="evenodd" d="M4 12c0-4.42 3.58-8 8-8 4.41 0 8 3.58 8 8 0 .24-.01 1.1-.27 1.87 -.13.38-.3.66-.49.85 -.17.16-.4.27-.76.27 -.41 0-.6-.12-.74-.25 -.17-.17-.35-.5-.49-1.11 -.29-1.24-.29-3.11-.29-5.66 0-.56-.45-1-1-1 -.56 0-1 .44-1 .99 -.84-.63-1.88-1-3-1 -2.77 0-5 2.23-5 5 0 2.76 2.23 5 5 5 1.49 0 2.83-.66 3.75-1.7 .15.31.34.59.58.84 .57.58 1.31.84 2.16.84 .88 0 1.6-.33 2.13-.84 .51-.49.81-1.11 1-1.67 .36-1.1.36-2.23.36-2.5v-.01c0-5.53-4.48-10-10-10 -5.53 0-10 4.47-10 10 0 5.52 4.47 10 10 10 1.59 0 3.1-.38 4.44-1.04 .49-.25.69-.85.45-1.35 -.25-.5-.85-.7-1.35-.46 -1.07.53-2.28.83-3.56.83 -4.42 0-8-3.59-8-8Z"/></g></svg>