<svg viewBox="0 0 24 24" xmlns="http://www.w3.org/2000/svg"><g><path fill="#12131A" fill-rule="evenodd" d="M10.35 3h3.67c.9-.01 1.62-.01 2.22.04 .6.04 1.14.12 1.65.34 1.22.5 2.19 1.48 2.7 2.7 .21.5.29 1.04.34 1.65 .04.59.04 1.31.04 2.22v.07c0 .9 0 1.62-.05 2.22 -.05.6-.13 1.14-.35 1.65 -.51 1.22-1.49 2.19-2.71 2.7 -.51.21-1.05.29-1.66.34 -.6.04-1.32.04-2.23.04h-2.61c-.46 0-.56 0-.63.01 -.18.03-.34.11-.47.23 -.06.05-.12.12-.4.48l-.03.02c-.61.8-1.09 1.45-1.49 1.91 -.38.43-.8.87-1.3 1.08 -1.38.56-2.97.04-3.73-1.25 -.28-.47-.35-1.07-.39-1.65 -.04-.61-.04-1.42-.04-2.43v-5.11c-.01-1.09-.01-1.96.05-2.67 .05-.73.18-1.37.48-1.97 .47-.95 1.24-1.71 2.18-2.19 .59-.31 1.23-.43 1.96-.49 .7-.06 1.58-.06 2.66-.06ZM7.84 5.05c-.61.04-.96.14-1.22.27 -.57.28-1.03.74-1.32 1.31 -.14.26-.23.61-.28 1.21 -.06.61-.06 1.4-.06 2.54v5.02c0 1.05 0 1.79.03 2.33 .01.26.03.45.06.58 .02.11.04.15.04.15 .25.42.77.59 1.23.41 0-.01.04-.03.12-.1 .1-.1.23-.23.4-.44 .35-.42.79-1.01 1.42-1.86 .01-.02.02-.04.04-.06 .2-.28.39-.53.61-.73 .39-.36.88-.6 1.4-.71 .29-.06.6-.06.94-.06 .02 0 .04 0 .07 0h2.57c.94 0 1.6-.01 2.12-.04 .5-.04.8-.1 1.02-.2 .73-.31 1.31-.89 1.62-1.63 .09-.23.15-.53.19-1.03 .03-.52.03-1.18.03-2.13s-.01-1.61-.04-2.13c-.04-.51-.1-.81-.2-1.03 -.31-.74-.89-1.32-1.63-1.63 -.23-.1-.53-.16-1.03-.2 -.52-.04-1.18-.04-2.13-.04h-3.6c-1.14 0-1.93 0-2.55.05Z"/><g fill="#12131A"><path d="M8 11c.55 0 1-.45 1-1 0-.56-.45-1-1-1 -.56 0-1 .44-1 1 0 .55.44 1 1 1Z"/><path d="M13 10c0 .55-.45 1-1 1 -.56 0-1-.45-1-1 0-.56.44-1 1-1 .55 0 1 .44 1 1Z"/><path d="M17 10c0 .55-.45 1-1 1 -.56 0-1-.45-1-1 0-.56.44-1 1-1 .55 0 1 .44 1 1Z"/></g></g></svg>