<svg viewBox="0 0 24 24" xmlns="http://www.w3.org/2000/svg"><g><path fill="#12131A" fill-rule="evenodd" d="M3 9.4v7.87c0 1.85 0 2.78.36 3.2 .31.36.78.55 1.27.51 .55-.06 1.2-.72 2.49-2.06l.92-.97c.34-.37.52-.55.72-.68 .18-.12.38-.2.58-.26 .23-.06.48-.06.98-.06h4.24c2.24 0 3.36 0 4.21-.44 .75-.39 1.36-1 1.74-1.75 .43-.86.43-1.98.43-4.22v-1.2c0-2.25 0-3.37-.44-4.22 -.39-.76-1-1.37-1.75-1.75 -.86-.44-1.98-.44-4.22-.44h-5.2c-2.25 0-3.37 0-4.22.43 -.76.38-1.37.99-1.75 1.74 -.44.85-.44 1.97-.44 4.21ZM8 11c.55 0 1-.45 1-1 0-.56-.45-1-1-1 -.56 0-1 .44-1 1 0 .55.44 1 1 1Zm5-1c0 .55-.45 1-1 1 -.56 0-1-.45-1-1 0-.56.44-1 1-1 .55 0 1 .44 1 1Zm3 1c.55 0 1-.45 1-1 0-.56-.45-1-1-1 -.56 0-1 .44-1 1 0 .55.44 1 1 1Z"/></g></svg>