<svg viewBox="0 0 24 24" xmlns="http://www.w3.org/2000/svg"><g><g fill="#12131A" fill-rule="evenodd"><path d="M18 18c0-.56.44-1 1-1 .55 0 1 .44 1 1v1h-2v-1Zm4 1c.55 0 1 .44 1 1v2c0 .55-.45 1-1 1h-6c-.56 0-1-.45-1-1v-2c0-.56.44-1 1-1v-1c0-1.66 1.34-3 3-3 1.65 0 3 1.34 3 3v1Z"/><path d="M2 8.8c0-1.69 0-2.53.32-3.17 .28-.57.74-1.03 1.31-1.32 .64-.33 1.48-.33 3.16-.33h10.4c1.68 0 2.52 0 3.16.32 .56.28 1.02.74 1.31 1.31 .32.64.32 1.48.32 3.16v3.4c0 .28 0 .42-.06.52 -.05.09-.13.17-.22.21 -.11.05-.25.05-.53.05h-2.2c-3.32 0-6 2.68-6 6v.2c0 .28 0 .42-.06.52 -.05.09-.13.17-.22.21 -.11.05-.25.05-.53.05h-5.4c-1.69 0-2.53 0-3.17-.33 -.57-.29-1.03-.75-1.32-1.32 -.33-.65-.33-1.49-.33-3.17v-6.4Zm4.17-.37c.31-.46.93-.58 1.39-.26l3.86 2.65c.34.23.79.23 1.13 0l3.86-2.66c.45-.32 1.07-.2 1.39.25 .31.45.19 1.07-.26 1.39l-3.87 2.65c-1.03.7-2.38.7-3.4 0L6.4 9.79c-.46-.32-.58-.94-.26-1.4Z"/></g></g></svg>