<svg viewBox="0 0 24 24" xmlns="http://www.w3.org/2000/svg"><g><g fill="#12131A"><path opacity=".25" d="M2 8.8c0-1.69 0-2.53.32-3.17 .28-.57.74-1.03 1.31-1.32 .64-.33 1.48-.33 3.16-.33h10.4c1.68 0 2.52 0 3.16.32 .56.28 1.02.74 1.31 1.31 .32.64.32 1.48.32 3.16v6.4c0 1.68 0 2.52-.33 3.16 -.29.56-.75 1.02-1.32 1.31 -.65.32-1.49.32-3.17.32H6.76c-1.69 0-2.53 0-3.17-.33 -.57-.29-1.03-.75-1.32-1.32 -.33-.65-.33-1.49-.33-3.17v-6.4Z"/><g fill="#12131A" fill-rule="evenodd"><path d="M6.17 8.43c.31-.46.93-.58 1.39-.26l3.86 2.65c.34.23.79.23 1.13 0l3.86-2.66c.45-.32 1.07-.2 1.39.25 .31.45.19 1.07-.26 1.39l-3.87 2.65c-1.03.7-2.38.7-3.4 0L6.4 9.79c-.46-.32-.58-.94-.26-1.4Z"/><path d="M15.29 18.29c-.4.39-.4 1.02 0 1.41l2 2c.39.39 1.02.39 1.41 0 .39-.4.39-1.03 0-1.42l-.3-.3h3.58c.55 0 1-.45 1-1 0-.56-.45-1-1-1h-3.59l.29-.3c.39-.4.39-1.03 0-1.42 -.4-.4-1.03-.4-1.42 0l-2 2Z"/></g></g></g></svg>