<svg viewBox="0 0 24 24" xmlns="http://www.w3.org/2000/svg"><g><g fill="#12131A"><path d="M20.48 19.51l-.49.48c-1.49 1.49-7 2-12.5-3.5s-5.01-11.01-3.51-12.51l.49-.5c.78-.79 2.08-.66 2.69.26l2.02 3.03c.46.69.37 1.61-.22 2.2l-1.05 1.04c-.27.26-.36.66-.19.99 .31.61.98 1.67 2.24 2.93 1.26 1.26 2.32 1.92 2.93 2.24 .33.17.73.08.99-.19l1.04-1.05c.58-.59 1.51-.69 2.2-.22l3.01 2.01c.92.61 1.05 1.92.26 2.7Z"/><path fill="#12131A" fill-rule="evenodd" d="M15 4c0-.56.44-1 1-1h4c.55 0 1 .44 1 1v4c0 .55-.45 1-1 1 -.56 0-1-.45-1-1V6.41L15.7 9.7c-.4.39-1.03.39-1.42 0 -.4-.4-.4-1.03 0-1.42l3.29-3.3h-1.59c-.56 0-1-.45-1-1Z"/></g></g></svg>