<svg viewBox="0 0 24 24" xmlns="http://www.w3.org/2000/svg"><g><g fill="#12131A" fill-rule="evenodd"><path d="M3.16 6.68c.2-1.2.88-2.16 1.62-2.89 1.17-1.18 3.11-1.04 4.1.29l1.62 2.16c.89 1.19.77 2.86-.29 3.91l-.12.11c-.4.39-.4 1.02 0 1.41l2.17 2.17c.39.39 1.02.39 1.41 0l.11-.12c1.05-1.06 2.72-1.18 3.91-.29l2.18 1.63c1.32.98 1.45 2.91.29 4.08 -.75.74-1.72 1.43-2.92 1.64 -2.23.38-6.49.38-10.51-3.64C2.71 13.12 2.71 8.83 3.1 6.61ZM6.19 5.2c-.58.57-.96 1.17-1.07 1.81 -.31 1.78-.36 5.34 3.07 8.76 3.42 3.42 6.96 3.38 8.74 3.07 .64-.12 1.25-.5 1.84-1.09 .3-.31.26-.81-.08-1.07l-2.19-1.64c-.4-.3-.96-.26-1.31.09l-.12.11c-1.18 1.17-3.08 1.17-4.25 0l-2.18-2.18c-1.18-1.18-1.18-3.08 0-4.25l.11-.12c.35-.36.39-.91.09-1.31L7.21 5.21c-.27-.36-.78-.39-1.1-.08Z"/><path d="M18 3c.55 0 1 .44 1 1v1h1c.55 0 1 .44 1 1 0 .55-.45 1-1 1h-1v1c0 .55-.45 1-1 1 -.56 0-1-.45-1-1V7h-1c-.56 0-1-.45-1-1 0-.56.44-1 1-1h1V4c0-.56.44-1 1-1Z"/></g></g></svg>