<svg viewBox="0 0 24 24" xmlns="http://www.w3.org/2000/svg"><g><path fill="#12131A" fill-rule="evenodd" d="M9 2h-.2c-1.69 0-2.53 0-3.17.32 -.57.28-1.03.74-1.32 1.31 -.33.64-.33 1.48-.33 3.16v10.4c0 1.68 0 2.52.32 3.16 .28.56.74 1.02 1.31 1.31 .64.32 1.48.32 3.16.32h.2v-2.5c0-.28.22-.5.5-.5h1c.27 0 .5.22.5.5v2.5h4.2c1.68 0 2.52 0 3.16-.33 .56-.29 1.02-.75 1.31-1.32 .32-.65.32-1.49.32-3.17v-7.4c0-.29 0-.43-.06-.53 -.05-.1-.13-.18-.22-.22 -.11-.06-.25-.06-.53-.06h-2.2c-2.21 0-4-1.8-4-4v-2.2c0-.29 0-.43-.06-.53 -.05-.1-.13-.18-.22-.22 -.11-.06-.25-.06-.53-.06h-1.2v2.5c0 .27-.23.5-.5.5h-1c-.28 0-.5-.23-.5-.5v-2.5Zm.5 5c-.28 0-.5.22-.5.5v1c0 .27.22.5.5.5h1c.27 0 .5-.23.5-.5v-1c0-.28-.23-.5-.5-.5h-1ZM7 5.5c0-.28.22-.5.5-.5h1c.27 0 .5.22.5.5v1c0 .27-.23.5-.5.5h-1c-.28 0-.5-.23-.5-.5v-1Zm0 4c0-.28.22-.5.5-.5h1c.27 0 .5.22.5.5v1c0 .27-.23.5-.5.5h-1c-.28 0-.5-.23-.5-.5v-1ZM9.5 11c-.28 0-.5.22-.5.5v1c0 .27.22.5.5.5h1c.27 0 .5-.23.5-.5v-1c0-.28-.23-.5-.5-.5h-1ZM7 13.5c0-.28.22-.5.5-.5h1c.27 0 .5.22.5.5v1c0 .27-.23.5-.5.5h-1c-.28 0-.5-.23-.5-.5v-1ZM9.5 15c-.28 0-.5.22-.5.5v1c0 .27.22.5.5.5h1c.27 0 .5-.23.5-.5v-1c0-.28-.23-.5-.5-.5h-1ZM7 17.5c0-.28.22-.5.5-.5h1c.27 0 .5.22.5.5v1c0 .27-.23.5-.5.5h-1c-.28 0-.5-.23-.5-.5v-1Z"/><path fill="#12131A" d="M15 2.7c0-.4.31-.71.7-.71 .18 0 .36.07.5.2l3.58 3.58c.13.13.2.31.2.5 0 .39-.32.7-.71.7h-2.3c-1.11 0-2-.9-2-2v-2.3Z"/></g></svg>