<svg viewBox="0 0 24 24" xmlns="http://www.w3.org/2000/svg"><g><path fill="#12131A" fill-rule="evenodd" d="M4.32 3.63c-.33.64-.33 1.48-.33 3.16v10.4c0 1.68 0 2.52.32 3.16 .28.56.74 1.02 1.31 1.31 .64.32 1.48.32 3.16.32h6.4c1.68 0 2.52 0 3.16-.33 .56-.29 1.02-.75 1.31-1.32 .32-.65.32-1.49.32-3.17v-7.4c0-.29 0-.43-.06-.53 -.05-.1-.13-.18-.22-.22 -.11-.06-.25-.06-.53-.06h-2.2c-2.21 0-4-1.8-4-4v-2.2c0-.29 0-.43-.06-.53 -.05-.1-.13-.18-.22-.22 -.11-.06-.25-.06-.53-.06h-3.4c-1.69 0-2.53 0-3.17.32 -.57.28-1.03.74-1.32 1.31Zm3.67 10.36c0-.27.1-.52.29-.71l1-1c.39-.4 1.02-.4 1.41 0 .39.39.39 1.02 0 1.41l-.3.29 .29.29c.39.39.39 1.02 0 1.41 -.4.39-1.03.39-1.42 0l-1-1c-.19-.19-.3-.45-.3-.71Zm7.7-.71c.18.18.29.44.29.7 0 .26-.11.51-.3.7l-1 1c-.4.39-1.03.39-1.42 0 -.4-.4-.4-1.03 0-1.42l.29-.3 -.3-.3c-.4-.4-.4-1.03 0-1.42 .39-.4 1.02-.4 1.41 0l1 1Z"/><path fill="#12131A" d="M15 2.7c0-.4.31-.71.7-.71 .18 0 .36.07.5.2l3.58 3.58c.13.13.2.31.2.5 0 .39-.32.7-.71.7h-2.3c-1.11 0-2-.9-2-2v-2.3Z"/></g></svg>