<svg viewBox="0 0 24 24" xmlns="http://www.w3.org/2000/svg"><g><path fill="#12131A" fill-rule="evenodd" d="M4.32 3.63c-.33.64-.33 1.48-.33 3.16v10.28l2.35-1.46 .07-.05c.32-.21.66-.42 1.03-.51 .32-.09.66-.11.99-.06 .38.05.73.22 1.08.39l.08.04 .52.25c.52.25.59.27.63.28 .07 0 .14 0 .21-.02 .04-.02.1-.04.57-.39l2.5-1.79 .09-.07c.38-.28.76-.56 1.21-.68 .38-.11.79-.12 1.18-.03 .44.09.84.35 1.24.61l.09.06 2.08 1.35v-5.3c0-.29 0-.43-.06-.53 -.05-.1-.13-.18-.22-.22 -.11-.06-.25-.06-.53-.06h-2.2c-2.21 0-4-1.8-4-4v-2.2c0-.29 0-.43-.06-.53 -.05-.1-.13-.18-.22-.22 -.11-.06-.25-.06-.53-.06h-3.4c-1.69 0-2.53 0-3.17.32 -.57.28-1.03.74-1.32 1.31Zm15.67 13.84l-3.18-2.07c-.57-.37-.64-.4-.68-.41 -.08-.02-.16-.02-.24 0 -.05.01-.12.04-.67.43l-2.51 1.78 -.09.05c-.34.24-.68.48-1.08.6 -.35.1-.71.13-1.061.08 -.41-.06-.79-.24-1.16-.43l-.09-.05 -.53-.26c-.5-.24-.55-.26-.59-.27 -.07-.02-.14-.01-.2.01 -.04 0-.1.03-.56.31L4 19.3c.04.38.12.69.26.96 .28.56.74 1.02 1.31 1.31 .64.32 1.48.32 3.16.32h6.4c1.68 0 2.52 0 3.16-.33 .56-.29 1.02-.75 1.31-1.32 .3-.61.32-1.39.32-2.89Zm-8-6.49c0 1.1-.9 2-2 2 -1.11 0-2-.9-2-2 0-1.11.89-2 2-2 1.1 0 2 .89 2 2Z"/><path fill="#12131A" d="M15 2.7c0-.4.31-.71.7-.71 .18 0 .36.07.5.2l3.58 3.58c.13.13.2.31.2.5 0 .39-.32.7-.71.7h-2.3c-1.11 0-2-.9-2-2v-2.3Z"/></g></svg>