<svg viewBox="0 0 24 24" xmlns="http://www.w3.org/2000/svg"><g><g fill="#12131A"><path opacity=".25" d="M4 6.8c0-1.69 0-2.53.32-3.17 .28-.57.74-1.03 1.31-1.32 .64-.33 1.48-.33 3.16-.33h5.87c.48 0 .73 0 .96.05 .2.04.39.12.57.23 .2.12.37.29.72.64l2.12 2.12c.34.34.51.51.64.72 .1.17.19.37.23.57 .05.23.05.47.05.96v9.87c0 1.68 0 2.52-.33 3.16 -.29.56-.75 1.02-1.32 1.31 -.65.32-1.49.32-3.17.32h-6.4c-1.69 0-2.53 0-3.17-.33 -.57-.29-1.03-.75-1.32-1.32 -.33-.65-.33-1.49-.33-3.17V6.71Z"/><path d="M4.06 19.39c-.07-.54-.07-1.23-.07-2.2v-.12l2.35-1.46 .07-.05c.32-.21.66-.42 1.03-.51 .32-.09.66-.11.99-.06 .38.05.73.22 1.08.39l.08.04 .52.25c.52.25.59.27.63.28 .07 0 .14 0 .21-.02 .04-.02.1-.04.57-.39l2.5-1.79 .09-.07c.38-.28.76-.56 1.21-.68 .38-.11.79-.12 1.18-.03 .44.09.84.35 1.24.61l.09.06 2.08 1.35v2.1c0 .09 0 .18-.01.28l-3.18-2.07c-.57-.37-.64-.4-.68-.41 -.08-.02-.16-.02-.24 0 -.05.01-.12.04-.67.43l-2.51 1.78 -.09.05c-.34.24-.68.48-1.08.6 -.35.1-.71.13-1.07.08 -.41-.06-.79-.24-1.16-.43l-.09-.05 -.53-.26c-.5-.24-.55-.26-.59-.27 -.07-.02-.14-.01-.2.01 -.04.01-.1.03-.56.31L3.91 19.2Z"/><path d="M12 11c0 1.1-.9 2-2 2 -1.11 0-2-.9-2-2 0-1.11.89-2 2-2 1.1 0 2 .89 2 2Z"/><path d="M14 3.41c0-.79.63-1.42 1.41-1.42 .37 0 .73.14 1 .41l3.17 3.17c.26.26.41.62.41 1 0 .78-.64 1.41-1.42 1.41h-2.59c-1.11 0-2-.9-2-2V3.39Z"/></g></g></svg>