<svg viewBox="0 0 24 24" xmlns="http://www.w3.org/2000/svg"><g><path fill="#12131A" fill-rule="evenodd" d="M4 6.8c0-1.69 0-2.53.32-3.17 .28-.57.74-1.03 1.31-1.32 .64-.33 1.48-.33 3.16-.33h3.4c.28 0 .42 0 .52.05 .09.04.17.12.21.21 .05.1.05.24.05.52v2.2c0 2.2 1.79 4 4 4h2.2c.28 0 .42 0 .52.05 .09.04.17.12.21.21 .05.1.05.24.05.52v7.4c0 1.68 0 2.52-.33 3.16 -.29.56-.75 1.02-1.32 1.31 -.65.32-1.49.32-3.17.32h-6.4c-1.69 0-2.53 0-3.17-.33 -.57-.29-1.03-.75-1.32-1.32 -.33-.65-.33-1.49-.33-3.17V6.71Zm11.89 5.64c.24-.5.04-1.1-.45-1.35 -.5-.25-1.1-.05-1.35.44l-1.38 2.75 -1.02-1.02c-.22-.22-.51-.32-.81-.29 -.3.02-.57.19-.74.44l-2 3c-.31.45-.19 1.08.27 1.38 .45.3 1.08.18 1.38-.28l1.32-1.99 1.13 1.13c.22.22.55.33.86.28 .31-.06.59-.26.73-.54l2-4Z"/><path fill="#12131A" d="M15 2.7c0-.4.31-.71.7-.71 .18 0 .36.07.5.2l3.58 3.58c.13.13.2.31.2.5 0 .39-.32.7-.71.7h-2.3c-1.11 0-2-.9-2-2v-2.3Z"/></g></svg>