<svg viewBox="0 0 24 24" xmlns="http://www.w3.org/2000/svg"><g><g fill="#12131A"><path opacity=".25" d="M4 6.8c0-1.69 0-2.53.32-3.17 .28-.57.74-1.03 1.31-1.32 .64-.33 1.48-.33 3.16-.33h5.87c.48 0 .73 0 .96.05 .2.04.39.12.57.23 .2.12.37.29.72.64l2.12 2.12c.34.34.51.51.64.72 .1.17.19.37.23.57 .05.23.05.47.05.96v9.87c0 1.68 0 2.52-.33 3.16 -.29.56-.75 1.02-1.32 1.31 -.65.32-1.49.32-3.17.32h-6.4c-1.69 0-2.53 0-3.17-.33 -.57-.29-1.03-.75-1.32-1.32 -.33-.65-.33-1.49-.33-3.17V6.71Z"/><path fill="#12131A" fill-rule="evenodd" d="M14.4 15.79c.37-.51.59-1.13.59-1.8 0-1.66-1.35-3-3-3 -1.66 0-3 1.34-3 3 0 .67.22 1.29.59 1.79 -.98.72-1.6 1.89-1.6 3.2 0 .55.44 1 1 1 .55 0 1-.45 1-1 0-1.11.89-2 2-2 1.1 0 2 .89 2 2 0 .55.44 1 1 1 .55 0 1-.45 1-1 0-1.31-.63-2.48-1.6-3.21Zm-1.41-1.8c0 .55-.45 1-1 1 -.56 0-1-.45-1-1 0-.56.44-1 1-1 .55 0 1 .44 1 1Z"/><path d="M14 3.41c0-.79.63-1.42 1.41-1.42 .37 0 .73.14 1 .41l3.17 3.17c.26.26.41.62.41 1 0 .78-.64 1.41-1.42 1.41h-2.59c-1.11 0-2-.9-2-2V3.39Z"/></g></g></svg>