<svg viewBox="0 0 24 24" xmlns="http://www.w3.org/2000/svg"><g><g fill="#12131A"><path d="M20 15.093l-2.09-1.36 -.1-.07c-.4-.26-.8-.52-1.25-.62 -.4-.09-.8-.08-1.19.02 -.45.11-.84.39-1.22.67l-.1.06 -2.51 1.78c-.48.34-.54.36-.58.38 -.07.02-.15.02-.22.01 -.05-.01-.11-.03-.64-.29l-.53-.26 -.09-.05c-.35-.18-.7-.35-1.09-.4 -.34-.06-.68-.04-1 .05 -.38.09-.71.3-1.04.5l-.08.04 -2.35 1.45c0 .43.01.82.04 1.16 .02.36.08.71.18 1.04l3.17-1.97c.46-.29.52-.31.55-.32 .06-.02.13-.03.19-.01 .03 0 .09.02.58.26l.52.25 .08.04c.37.18.75.36 1.15.42 .35.04.71.01 1.06-.09 .39-.13.73-.37 1.07-.61l.08-.06 2.5-1.79c.54-.4.61-.43.66-.44 .07-.03.15-.03.23-.01 .04.01.11.03.67.4l3.16 2.06c0-.37 0-.78 0-1.24v-1.15Z"/><path d="M12 11c0 1.1-.9 2-2 2 -1.11 0-2-.9-2-2 0-1.11.89-2 1.99-2s2 .89 2 2Z"/><path fill="#12131A" fill-rule="evenodd" d="M14.69 2.11c-.47-.12-.95-.12-1.58-.12l-3.36 0c-.81-.01-1.47-.01-2.02.04 -.57.04-1.08.14-1.57.39 -.76.38-1.37.99-1.75 1.74 -.25.48-.35 1-.4 1.56 -.05.54-.05 1.2-.05 2.01v8.48c-.01.8-.01 1.46.04 2.01 .04.56.14 1.07.39 1.56 .38.75.99 1.36 1.74 1.74 .48.24 1 .34 1.56.39 .54.04 1.2.04 2.01.04h4.48c.8 0 1.46 0 2.01-.05 .56-.05 1.07-.15 1.56-.4 .75-.39 1.36-1 1.74-1.75 .24-.49.34-1.01.39-1.57 .04-.55.04-1.21.04-2.02V8.8c0-.64 0-1.12-.12-1.58 -.1-.41-.26-.8-.48-1.16 -.25-.41-.59-.75-1.04-1.2l-1.34-1.34c-.45-.45-.79-.79-1.2-1.04 -.36-.22-.75-.39-1.16-.48Zm-1.7 1.88h-3.2c-.86 0-1.44 0-1.89.03 -.44.03-.67.1-.82.18 -.38.19-.69.49-.88.87 -.08.15-.15.38-.19.81 -.04.45-.04 1.03-.04 1.88v8.4c0 .85 0 1.43.03 1.88 .03.43.1.66.18.81 .19.37.49.68.87.87 .15.07.38.14.81.18 .45.03 1.03.03 1.88.03h4.4c.85 0 1.43-.01 1.88-.04 .43-.04.66-.11.81-.19 .37-.2.68-.5.87-.88 .07-.16.14-.39.18-.82 .03-.46.03-1.04.03-1.89V8.9h-2c-1.66 0-3-1.35-3-3v-2Zm4.56 3c-.13-.15-.32-.34-.68-.7L15.68 5.1c-.37-.37-.56-.56-.7-.68v1.55c0 .55.44 1 1 1h1.56Z"/></g></g></svg>