<svg viewBox="0 0 24 24" xmlns="http://www.w3.org/2000/svg"><g><path fill="#12131A" fill-rule="evenodd" d="M10.87 4.08c-.35-.09-.71-.09-1.12-.09l-3.6 0c-.53-.01-.99-.01-1.36.03 -.4.03-.79.1-1.17.29 -.57.28-1.03.74-1.32 1.31 -.2.37-.27.77-.3 1.16 -.04.37-.04.82-.04 1.35v0 7.67 0c-.01.52-.01.98.03 1.35 .03.39.1.78.29 1.16 .28.56.74 1.02 1.31 1.311 .37.19.77.26 1.16.29 .37.03.82.03 1.35.03h0 0 0 0 11.67 0v0 0 0c.52 0 .98 0 1.35-.04 .39-.04.78-.11 1.16-.3 .56-.29 1.02-.75 1.31-1.311 .19-.38.26-.78.29-1.17 .03-.38.03-.83.03-1.36v-5.68c0-.53 0-.99-.04-1.36 -.04-.4-.11-.79-.3-1.17 -.29-.57-.75-1.03-1.32-1.32 -.38-.2-.78-.27-1.17-.3 -.38-.04-.83-.04-1.36-.04l-4.43 0 -.83-.83v-.01c-.29-.29-.55-.55-.85-.73 -.27-.17-.57-.29-.87-.36Zm1.12 8.91c.55 0 1-.45 1-1 0-.56-.45-1-1-1 -.56 0-1 .44-1 1 0 .55.44 1 1 1Zm2.4.79c.37-.51.59-1.13.59-1.8 0-1.66-1.35-3.01-3-3.01 -1.66 0-3 1.34-3 3 0 .67.22 1.29.59 1.79 -.98.72-1.6 1.89-1.6 3.2 0 .55.44 1 1 1 .55 0 1-.45 1-1 0-1.11.89-2 2-2 1.1 0 2 .89 2 2 0 .55.44 1 1 1 .55 0 1-.45 1-1 0-1.31-.63-2.48-1.6-3.21Z"/></g></svg>