<svg viewBox="0 0 24 24" xmlns="http://www.w3.org/2000/svg"><g><path fill="#12131A" fill-rule="evenodd" d="M9.75 3.99c.4-.01.76-.01 1.11.08 .3.07.59.19.86.35 .3.18.55.44.84.72v0l.82.82 4.42-.01c.52-.01.98-.01 1.35.03 .39.03.78.1 1.16.29 .56.28 1.02.74 1.31 1.31 .19.37.26.77.29 1.16 .03.37.03.82.03 1.35v5.67c0 .52 0 .98-.04 1.35 -.04.39-.11.78-.3 1.16 -.29.56-.75 1.02-1.32 1.311 -.38.19-.78.26-1.17.29 -.38.03-.83.03-1.36.03v0 0h-.01H6.06h-.01 -.01 -.01c-.53 0-.99 0-1.36-.04 -.4-.04-.79-.11-1.17-.3 -.57-.29-1.03-.75-1.32-1.311 -.2-.38-.27-.78-.3-1.17 -.04-.38-.04-.83-.04-1.36v0V8.04v-.01c-.01-.53-.01-.99.03-1.36 .03-.4.1-.79.29-1.17 .28-.57.74-1.03 1.31-1.32 .37-.2.77-.27 1.16-.3 .37-.04.82-.04 1.35-.04l3.59-.01Zm1.24 12c1.1 0 2-.9 2-2v-1.705l.66.23c.65.22 1.33-.26 1.33-.95v-.88c0-.43-.27-.81-.67-.95l-2-.71c-.65-.23-1.34.25-1.34.94m0 0v1.58 .41c-1.11 0-2 .89-2 2 0 1.1.89 2 1.99 2"/></g></svg>