<svg viewBox="0 0 24 24" xmlns="http://www.w3.org/2000/svg"><g><path fill="#12131A" fill-rule="evenodd" d="M8 4.79c0-.29 0-.43-.06-.53 -.05-.1-.13-.18-.22-.22 -.11-.06-.25-.06-.53-.06l-1.04 0c-.53-.01-.99-.01-1.36.03 -.4.03-.79.1-1.17.29 -.57.28-1.03.74-1.32 1.31 -.2.37-.27.77-.3 1.16 -.04.37-.04.82-.04 1.35v7.67c-.01.52-.01.98.03 1.35 .03.39.1.78.29 1.16 .28.56.74 1.02 1.31 1.311 .37.19.77.26 1.16.29 .12.01.25.01.39.02 .27 0 .4.01.51-.04 .09-.05.17-.13.22-.22 .05-.11.05-.25.05-.532v-.7c0-.28.22-.5.5-.5h1c.27 0 .5.22.5.5v.69c0 .28 0 .42.05.52 .04.09.12.17.21.21 .1.05.24.05.52.05h9.03c.52 0 .98 0 1.35-.04 .39-.04.78-.11 1.16-.3 .56-.29 1.02-.75 1.31-1.311 .19-.38.26-.78.29-1.17 .03-.38.03-.83.03-1.36v-5.68c0-.53 0-.99-.04-1.36 -.04-.4-.11-.79-.3-1.17 -.29-.57-.75-1.03-1.32-1.32 -.38-.2-.78-.27-1.17-.3 -.38-.04-.83-.04-1.36-.04h-4.43l-.83-.83c-.29-.29-.55-.55-.85-.73 -.27-.17-.57-.29-.87-.36 -.03-.01-.05-.02-.07-.02 -.23-.05-.34-.07-.47-.03 -.11.03-.22.12-.27.21 -.07.11-.07.26-.07.54v.69c0 .27-.23.5-.5.5h-1c-.28 0-.5-.23-.5-.5V4.6Zm0 3.7c0-.28.22-.5.5-.5h1c.27 0 .5.22.5.5v1c0 .27-.23.5-.5.5h-1c-.28 0-.5-.23-.5-.5v-1Zm-1.5 1.5c-.28 0-.5.22-.5.5v1c0 .27.22.5.5.5h1c.27 0 .5-.23.5-.5v-1c0-.28-.23-.51-.5-.51h-1Zm1.5 2.5c0-.28.22-.5.5-.5h1c.27 0 .5.22.5.5v1c0 .27-.23.5-.5.5h-1c-.28 0-.5-.23-.5-.5v-1Zm-1.5 1.5c-.28 0-.5.22-.5.5v1c0 .27.22.5.5.5h1c.27 0 .5-.23.5-.5v-1c0-.28-.23-.5-.5-.5h-1Zm1.5 2.5c0-.28.22-.5.5-.5h1c.27 0 .5.22.5.5v1c0 .27-.23.5-.5.5h-1c-.28 0-.5-.23-.5-.5v-1ZM6 6.48c0-.28.22-.5.5-.5h1c.27 0 .5.22.5.5v1c0 .27-.23.5-.5.5h-1c-.28 0-.5-.23-.5-.5v-1Z"/></g></svg>