<svg viewBox="0 0 24 24" xmlns="http://www.w3.org/2000/svg"><g><path opacity=".25" fill="#12131A" fill-rule="evenodd" d="M10.53 7.55c-.47-.27-.96-.56-2.04-.56 -2 0-4.5 2-4.5 6s2.64 9 5 9c.75 0 1.125-.25 1.5-.5 .37-.25.75-.5 1.5-.5s1.125.25 1.5.5c.37.25.75.5 1.5.5 1.67 0 3.85-2.52 4.97-5.43 .11-.31-.1-.62-.41-.71 -1.48-.41-2.57-1.77-2.57-3.38 0-1.32.72-2.47 1.79-3.06 .3-.17.43-.58.18-.83 -1.08-1.09-2.45-1.62-3.49-1.62 -.75 0-1.25.25-1.75.5s-1 .5-1.75.5c-.7 0-1.07-.22-1.47-.45Z"/><path fill="#12131A" d="M12 5.55c0-1.97 1.59-3.56 3.55-3.56v0c.24 0 .44.19.44.44v0c0 1.96-1.6 3.55-3.56 3.55v0c-.25 0-.45-.2-.45-.45v0Z"/></g></svg>