<svg viewBox="0 0 24 24" xmlns="http://www.w3.org/2000/svg"><g><g fill="#12131A"><path opacity=".25" d="M22 12c0 5.52-4.48 10-10 10C6.47 22 2 17.52 2 12 2 6.47 6.47 2 12 2c5.52 0 10 4.47 10 10Z"/><path d="M8.12 21.22l2.91-10.49c.14-.54.69-.85 1.23-.7 .53.14.84.69.69 1.23l-1.06 3.78c1.25.26 2.12.03 2.71-.35 .74-.5 1.22-1.38 1.33-2.42 .11-1.045-.14-2.15-.73-2.96 -.57-.79-1.46-1.34-2.75-1.34 -1.93 0-3.07.83-3.63 1.85 -.59 1.06-.6 2.46.01 3.69 .24.49.04 1.09-.45 1.34 -.5.24-1.1.04-1.35-.45 -.89-1.77-.91-3.87.01-5.56 .94-1.73 2.79-2.9 5.37-2.9 1.95 0 3.44.88 4.36 2.16 .9 1.25 1.25 2.86 1.08 4.34 -.18 1.48-.88 2.96-2.23 3.85 -1.15.75-2.63 1-4.36.61l-1.34 4.82c-.67-.14-1.31-.33-1.92-.59Z"/></g></g></svg>