<svg viewBox="0 0 24 24" xmlns="http://www.w3.org/2000/svg"><g><g fill="#12131A"><path opacity=".25" d="M11.2 20.59L3.3 9.91c-.21-.28-.31-.61-.31-.95 0-.32.09-.62.26-.88l2.26-3.4c.3-.46.77-.77 1.3-.86L11.29 3c.11-.03.23-.04.35-.04h.63c.12 0 .23.01.35.03l4.48.81c.53.09 1 .4 1.3.85l2.26 3.39c.17.25.26.56.26.87 0 .33-.11.66-.31.94l-7.9 10.67c-.19.25-.49.4-.8.4 -.32 0-.62-.15-.8-.41Z"/><path fill="#12131A" fill-rule="evenodd" d="M12.78 3.37c-.19-.24-.48-.38-.79-.38 -.31 0-.6.13-.79.37L7.5 7.98H3.98c-.56 0-1 .44-1 1 0 .55.44 1 1 1h3.29l3.76 10.34c.14.39.51.65.93.65 .42 0 .79-.27.93-.66l3.76-10.35h3.29c.55 0 1-.45 1-1 0-.56-.45-1-1-1h-3.52l-3.7-4.63Zm1.13 4.62l-1.92-2.4 -1.92 2.39h3.83Zm-4.5 2l2.57 7.07 2.57-7.08H9.4Z"/></g></g></svg>