<svg viewBox="0 0 24 24" xmlns="http://www.w3.org/2000/svg"><g><path fill="#12131A" fill-rule="evenodd" d="M6 6c-1.11 0-2 .89-2 2v8c0 1.1.89 2 2 2h10c1.1 0 2-.9 2-2v-1c0-.38.21-.73.55-.9l.89-.45c.33-.17.55-.52.55-.9v-1.53c0-.38-.22-.73-.56-.9l-.9-.45c-.34-.17-.56-.52-.56-.9v-1c0-1.11-.9-2-2-2h-10ZM2 8c0-2.21 1.79-4 4-4h10c2.2 0 4 1.79 4 4v.38l.34.17c1.01.5 1.65 1.54 1.65 2.68v1.52c0 1.13-.65 2.17-1.66 2.68l-.35.17v.38c0 2.2-1.8 4-4 4h-10c-2.21 0-4-1.8-4-4v-8Z"/><path fill="#12131A" d="M6 9c0-.56.44-1 1-1 .55 0 1 .44 1 1v6c0 .55-.45 1-1 1 -.56 0-1-.45-1-1V9Z"/></g></svg>