<svg viewBox="0 0 24 24" xmlns="http://www.w3.org/2000/svg"><g><path fill="#12131A" fill-rule="evenodd" d="M20 8.5l.23.11c.64.32.96.48 1.19.72 .2.21.36.46.46.74 .1.31.1.67.1 1.39v1.04c0 .71 0 1.07-.11 1.39 -.1.28-.26.53-.47.74 -.24.23-.56.4-1.2.72l-.24.11c0 1.39 0 2.09-.23 2.64 -.31.73-.89 1.31-1.63 1.62 -.56.22-1.26.22-2.65.22h-8.7c-1.69 0-2.53 0-3.17-.33 -.57-.29-1.03-.75-1.32-1.32 -.33-.65-.33-1.49-.33-3.17v-6.4c0-1.69 0-2.53.32-3.17 .28-.57.74-1.03 1.31-1.32 .64-.33 1.48-.33 3.16-.33h8.7c1.39 0 2.09 0 2.64.22 .73.3 1.31.88 1.62 1.62 .22.55.22 1.25.22 2.64Zm-8.17 1.05c.3-.46.18-1.09-.28-1.39 -.46-.31-1.09-.19-1.39.27l-2.01 2.99c-.21.3-.23.7-.05 1.02 .17.32.51.52.88.52h2.13l-.97 1.44c-.31.45-.19 1.08.27 1.38 .45.3 1.08.18 1.38-.28l2-3c.2-.31.22-.71.04-1.03 -.18-.33-.52-.53-.89-.53H10.8l.96-1.45Z"/></g></svg>