<svg viewBox="0 0 24 24" xmlns="http://www.w3.org/2000/svg"><g><path fill="#12131A" fill-rule="evenodd" d="M20 8.5l.23.11c.64.32.96.48 1.19.72 .2.21.36.46.46.74 .1.31.1.67.1 1.39v1.04c0 .71 0 1.07-.11 1.39 -.1.28-.26.53-.47.74 -.24.23-.56.4-1.2.72l-.24.11c0 1.39 0 2.09-.23 2.64 -.31.73-.89 1.31-1.63 1.62 -.56.22-1.26.22-2.65.22h-8.7c-1.69 0-2.53 0-3.17-.33 -.57-.29-1.03-.75-1.32-1.32 -.33-.65-.33-1.49-.33-3.17v-6.4c0-1.69 0-2.53.32-3.17 .28-.57.74-1.03 1.31-1.32 .64-.33 1.48-.33 3.16-.33h8.7c1.39 0 2.09 0 2.64.22 .73.3 1.31.88 1.62 1.62 .22.55.22 1.25.22 2.64ZM7 8c-.56 0-1 .44-1 1v6c0 .55.44 1 1 1 .55 0 1-.45 1-1V9c0-.56-.45-1-1-1Zm3 1c0-.56.44-1 1-1 .55 0 1 .44 1 1v6c0 .55-.45 1-1 1 -.56 0-1-.45-1-1V9Zm5-1c-.56 0-1 .44-1 1v6c0 .55.44 1 1 1 .55 0 1-.45 1-1V9c0-.56-.45-1-1-1Z"/></g></svg>