<svg viewBox="0 0 24 24" xmlns="http://www.w3.org/2000/svg"><g><g fill="#12131A" fill-rule="evenodd"><path d="M10.23 5c-.38 0-.73.21-.9.55L8.6 6.99H6.98c-1.11 0-2 .89-2 2v8c0 1.1.89 2 2 2h10c1.1 0 2-.9 2-2v-8c0-1.11-.9-2-2-2h-1.62l-.73-1.45c-.17-.34-.52-.56-.9-.56H10.2Zm-2.69-.35c.5-1.02 1.54-1.66 2.68-1.66h3.52c1.13 0 2.17.64 2.68 1.65l.17.34h.38c2.2 0 4 1.79 4 4v8c0 2.2-1.8 4-4 4h-10c-2.21 0-4-1.8-4-4v-8c0-2.21 1.79-4 4-4h.38l.17-.35Z"/><path d="M12 15c1.1 0 2-.9 2-2 0-1.11-.9-2-2-2 -1.11 0-2 .89-2 2 0 1.1.89 2 2 2Zm0 2c2.2 0 4-1.8 4-4 0-2.21-1.8-4-4-4 -2.21 0-4 1.79-4 4 0 2.2 1.79 4 4 4Z"/></g></g></svg>