<svg viewBox="0 0 24 24" xmlns="http://www.w3.org/2000/svg"><g><g fill="#12131A" fill-rule="evenodd"><path d="M12.42 17.72l5.29-5.3c1.69-1.7 1.69-4.46 0-6.16 -1.7-1.7-4.46-1.7-6.16-.01l-5.3 5.29c-1.7 1.69-1.7 4.45-.01 6.15 1.69 1.69 4.45 1.69 6.15 0Zm1.41 1.41l5.29-5.3c2.47-2.48 2.47-6.51 0-8.99 -2.48-2.48-6.51-2.48-8.98-.01l-5.3 5.29c-2.48 2.47-2.48 6.5-.01 8.98 2.47 2.47 6.5 2.47 8.98 0Z"/><path d="M15.7 8.29c.39.39.39 1.02 0 1.41l-2 1.99c-.4.39-1.03.39-1.42 0 -.4-.4-.4-1.03 0-1.42l2-2.01c.39-.4 1.02-.4 1.41 0Z"/></g></g></svg>