<svg viewBox="0 0 24 24" xmlns="http://www.w3.org/2000/svg"><g><g fill="#12131A"><path opacity=".25" d="M2.66 7.63c.18-2.06 1.91-3.64 3.98-3.64h10.69c2.06 0 3.79 1.57 3.98 3.63l.64 7.1c.25 2.82-1.97 5.26-4.81 5.26 -1.16 0-2.22-.41-3.05-1.09 -.62-.51-1.34-.92-2.13-.92 -.8 0-1.52.41-2.13.91 -.84.67-1.9 1.08-3.05 1.08 -2.84 0-5.07-2.44-4.81-5.27l.64-7.11Z"/><path d="M8 8c-.56 0-1 .44-1 1v1H6c-.56 0-1 .44-1 1 0 .55.44 1 1 1h1v1c0 .55.44 1 1 1 .55 0 1-.45 1-1v-1h1c.55 0 1-.45 1-1 0-.56-.45-1-1-1H9V9c0-.56-.45-1-1-1Z"/><path d="M17 13c0 .55-.45 1-1 1 -.56 0-1-.45-1-1 0-.56.44-1 1-1 .55 0 1 .44 1 1Z"/><path d="M18 10c.55 0 1-.45 1-1 0-.56-.45-1-1-1 -.56 0-1 .44-1 1 0 .55.44 1 1 1Z"/></g></g></svg>