<svg viewBox="0 0 24 24" xmlns="http://www.w3.org/2000/svg"><g><path fill="#12131A" fill-rule="evenodd" d="M7.56 6C6 6 4.71 7.18 4.57 8.72L4 14.91c-.16 1.65 1.15 3.08 2.81 3.08 .67 0 1.29-.24 1.78-.64 .73-.6 1.9-1.37 3.39-1.37 1.48 0 2.65.76 3.39 1.36 .48.39 1.1.63 1.78.63 1.66 0 2.96-1.43 2.81-3.09l-.57-6.2c-.15-1.55-1.44-2.73-2.99-2.73H7.52Zm0-2C4.97 4 2.81 5.97 2.58 8.54l-.57 6.19c-.26 2.82 1.96 5.26 4.8 5.26 1.15 0 2.21-.41 3.04-1.09 .61-.51 1.33-.92 2.12-.92s1.51.41 2.12.91c.83.67 1.89 1.08 3.04 1.08 2.83 0 5.06-2.44 4.8-5.27l-.57-6.2c-.24-2.58-2.4-4.55-4.98-4.55H7.5Z"/><g fill="#12131A"><path d="M9 8c-.56 0-1 .44-1 1v1H7c-.56 0-1 .44-1 1 0 .55.44 1 1 1h1v1c0 .55.44 1 1 1 .55 0 1-.45 1-1v-1h1c.55 0 1-.45 1-1 0-.56-.45-1-1-1h-1V9c0-.56-.45-1-1-1Z"/><path d="M16 13c0 .55-.45 1-1 1 -.56 0-1-.45-1-1 0-.56.44-1 1-1 .55 0 1 .44 1 1Z"/><path d="M17 10c.55 0 1-.45 1-1 0-.56-.45-1-1-1 -.56 0-1 .44-1 1 0 .55.44 1 1 1Z"/></g></g></svg>