<svg viewBox="0 0 24 24" xmlns="http://www.w3.org/2000/svg"><g><g fill="#12131A"><path d="M21 7c0-2.21-1.8-4-4-4 -2.21 0-4 1.79-4 4 0 2.2 1.79 4 4 4v3.5c0 .27.22.5.5.5h3c.27 0 .5-.23.5-.5V7Z"/><path d="M21 17.5c0-.28-.23-.5-.5-.5h-3c-.28 0-.5.22-.5.5V19c0 1.1.89 2 2 2 1.1 0 2-.9 2-2v-1.5Z"/><path d="M3 7c0-2.21 1.79-4 4-4 2.2 0 4 1.79 4 4 0 2.2-1.8 4-4 4v3.5c0 .27-.23.5-.5.5h-3c-.28 0-.5-.23-.5-.5V7Z"/><path d="M3.5 17c-.28 0-.5.22-.5.5V19c0 1.1.89 2 2 2 1.1 0 2-.9 2-2v-1.5c0-.28-.23-.5-.5-.5h-3Z"/></g></g></svg>