<svg viewBox="0 0 24 24" xmlns="http://www.w3.org/2000/svg"><g><g fill="#12131A" fill-rule="evenodd"><path d="M13.7 3.87c1.17-1.18 3.07-1.18 4.24-.01l2.17 2.17c1.17 1.17 1.17 3.07 0 4.24l-3.13 3.12 -6.42-6.42 3.12-3.13Zm2.82 1.41c-.4-.4-1.03-.4-1.42 0l-1.71 1.7 3.58 3.58 1.7-1.71c.39-.4.39-1.03 0-1.42l-2.18-2.18Z"/><path d="M8.3 6.25c1.2-1.21 3.15-1.21 4.36 0l5.07 5.07c1.2 1.2 1.2 3.15 0 4.36l-3.36 3.35c-2.61 2.6-6.83 2.6-9.44 0 -2.61-2.61-2.61-6.83 0-9.44l3.35-3.36Zm2.94 1.41c-.43-.43-1.11-.43-1.54-.01L6.34 11c-1.83 1.82-1.83 4.78-.01 6.6 1.82 1.82 4.78 1.82 6.6 0l3.35-3.36c.42-.43.42-1.11 0-1.54L11.2 7.62Z"/></g><path fill="#12131A" d="M9 16c0 .55-.45 1-1 1 -.56 0-1-.45-1-1 0-.56.44-1 1-1 .55 0 1 .44 1 1Z"/></g></svg>