<svg viewBox="0 0 24 24" xmlns="http://www.w3.org/2000/svg"><g><path fill="#12131A" fill-rule="evenodd" d="M7.84 6.71c.96-.97 2.52-.97 3.48 0l5.94 5.94c.96.96.96 2.52 0 3.48l-2.9 2.89c-2.61 2.6-6.83 2.6-9.44-.01 -2.61-2.61-2.61-6.83-.01-9.44l2.89-2.9Zm.15 10.28c.55 0 1-.45 1-1 0-.56-.45-1-1-1 -.56 0-1 .44-1 1 0 .55.44 1 1 1Z"/><path fill="#12131A" d="M17.82 3.59c-.79-.79-2.05-.79-2.83-.01l-1.21 1.2c-.19.18-.3.44-.3.7 0 .26.1.51.29.7l4 3.99c.39.39 1.02.39 1.41 0l1.2-1.21c.78-.79.78-2.05 0-2.83l-2.59-2.59Z"/></g></svg>