<svg viewBox="0 0 24 24" xmlns="http://www.w3.org/2000/svg"><g><g fill="#12131A"><path opacity=".25" d="M4 16V8.8c0-1.69 0-2.53.32-3.17 .28-.57.74-1.03 1.31-1.32 .64-.33 1.48-.33 3.16-.33h6.4c1.68 0 2.52 0 3.16.32 .56.28 1.02.74 1.31 1.31 .32.64.32 1.48.32 3.16v7.2h-16Z"/><path d="M4.66 20c-.62 0-.93 0-1.19-.07 -.7-.19-1.23-.73-1.42-1.42 -.07-.26-.07-.57-.07-1.19 0-.31 0-.47.03-.6 .09-.35.36-.62.7-.71 .12-.04.28-.04.59-.04h17.33c.31 0 .46 0 .59.03 .34.09.61.36.7.7 .03.12.03.28.03.59 0 .62 0 .93-.07 1.18 -.19.69-.73 1.22-1.42 1.41 -.26.06-.57.06-1.19.06H4.6Z"/></g></g></svg>