<svg viewBox="0 0 24 24" xmlns="http://www.w3.org/2000/svg"><g><g fill="#12131A"><path d="M5.6 14c-.57 0-.85 0-1.06-.11 -.19-.1-.35-.25-.44-.44 -.11-.22-.11-.5-.11-1.06v-5.2c0-1.13 0-1.69.21-2.11 .19-.38.49-.69.87-.88 .42-.22.98-.22 2.1-.22h9.6c1.12 0 1.68 0 2.1.21 .37.19.68.49.87.87 .21.42.21.98.21 2.1v5.2c0 .56 0 .84-.11 1.05 -.1.18-.25.34-.44.43 -.22.1-.5.1-1.06.1H5.54Z"/><path d="M4.66 20c-.62 0-.93 0-1.19-.07 -.7-.19-1.23-.73-1.42-1.42 -.07-.26-.07-.57-.07-1.19 0-.31 0-.47.03-.6 .09-.35.36-.62.7-.71 .12-.04.28-.04.59-.04h17.33c.31 0 .46 0 .59.03 .34.09.61.36.7.7 .03.12.03.28.03.59 0 .62 0 .93-.07 1.18 -.19.69-.73 1.22-1.42 1.41 -.26.06-.57.06-1.19.06H4.6Z"/></g></g></svg>