<svg viewBox="0 0 24 24" xmlns="http://www.w3.org/2000/svg"><g><g fill="#12131A" fill-rule="evenodd"><path d="M6.02 6.96c-.03.28-.03.65-.03 1.23v5.8h12v-5.8c0-.58-.01-.95-.03-1.24 -.03-.28-.06-.38-.09-.43 -.1-.19-.25-.35-.44-.44 -.05-.03-.16-.07-.43-.09 -.29-.03-.66-.03-1.24-.03h-7.6c-.58 0-.95 0-1.24.02 -.28.02-.38.05-.43.08 -.19.09-.35.24-.44.43 -.03.04-.07.15-.09.42Zm-2-.17c.03-.4.1-.79.29-1.17 .28-.57.74-1.03 1.31-1.32 .37-.2.77-.27 1.16-.3 .37-.04.82-.04 1.35-.04h7.67c.52-.01.98-.01 1.35.03 .39.03.78.1 1.16.29 .56.28 1.02.74 1.31 1.31 .19.37.26.77.29 1.16 .03.37.03.82.03 1.35v7.83h-16V8.09c-.01-.53-.01-.99.03-1.36Z"/><path d="M4 16.01c-.01.06-.01.15-.01.31 0 .68 0 .83.03.92 .09.34.36.61.7.7 .09.02.24.03.92.03H18.3c.68 0 .83-.01.92-.04 .34-.1.61-.37.7-.71 .02-.1.03-.25.03-.93 0-.17-.01-.26-.01-.32 -.01-.01-.01-.01-.01-.02 -.01-.01-.01-.01-.02-.01 -.07-.01-.16-.01-.32-.01H4.25c-.17 0-.26 0-.32 0 -.01 0-.01 0-.02 0s-.01 0-.01.01Zm-2.01.25c-.01-.24-.01-.53.06-.79 .18-.7.72-1.23 1.41-1.42 .26-.07.54-.07.78-.07 .02 0 .04 0 .06 0h15.33c.02 0 .04-.01.06-.01 .23-.01.52-.01.78.06 .69.18 1.22.72 1.41 1.41 .06.26.06.54.06.78 0 .02-.01.04-.01.06 0 .03 0 .07 0 .11 0 .5 0 .94-.11 1.33 -.28 1.03-1.09 1.84-2.13 2.12 -.39.1-.83.1-1.34.1 -.04 0-.08-.01-.12-.01H5.56c-.04 0-.08 0-.12 0 -.51 0-.95 0-1.34-.11 -1.04-.28-1.85-1.09-2.13-2.13 -.11-.39-.11-.83-.11-1.34 0-.04 0-.08 0-.12 0-.03-.01-.05-.01-.07Z"/></g></g></svg>