<svg viewBox="0 0 24 24" xmlns="http://www.w3.org/2000/svg"><g><g fill="#12131A"><path d="M9 18h6v2c0 1.1-.9 2-2 2h-2c-1.11 0-2-.9-2-2v-2Z"/><path d="M10.7 10.29c-.4-.4-1.03-.4-1.42 0 -.4.39-.4 1.02 0 1.41l1.7 1.7v6.58h2v-6.59l1.7-1.71c.39-.4.39-1.03 0-1.42 -.4-.4-1.03-.4-1.42 0l-1.3 1.29 -1.3-1.3Z"/><path fill="#12131A" fill-rule="evenodd" d="M15 15.28l.74-.61c1.37-1.11 2.25-2.8 2.25-4.69 0-3.32-2.69-6-6-6 -3.32 0-6 2.68-6 6 0 1.89.87 3.58 2.25 4.68l.74.6v1.71c0 .55.44 1 1 1h4c.55 0 1-.45 1-1v-1.72Zm2 .96v.75c0 1.65-1.35 3-3 3h-4c-1.66 0-3-1.35-3-3v-.76c-1.83-1.47-3-3.72-3-6.25 0-4.42 3.58-8 8-8 4.41 0 8 3.58 8 8 0 2.52-1.18 4.77-3 6.24Z"/></g></g></svg>