<svg viewBox="0 0 24 24" xmlns="http://www.w3.org/2000/svg"><g><path fill="#12131A" fill-rule="evenodd" d="M20 8c.55 0 1 .44 1 1 0 .55-.45 1-1 1h-1v4h1c.55 0 1 .44 1 1 0 .55-.45 1-1 1h-1.02c-.01.06-.01.13-.02.19 -.04.39-.11.78-.3 1.16 -.29.56-.75 1.02-1.32 1.31 -.38.19-.78.26-1.17.29 -.07 0-.13 0-.2.01v1.01c0 .55-.45 1-1 1 -.56 0-1-.45-1-1v-1h-4v1c0 .55-.45 1-1 1 -.56 0-1-.45-1-1v-1.02c-.07-.01-.14-.01-.2-.02 -.4-.04-.79-.11-1.17-.3 -.57-.29-1.03-.75-1.32-1.32 -.2-.38-.27-.78-.3-1.17 -.01-.07-.01-.13-.02-.2H3.94c-.56 0-1-.45-1-1 0-.56.44-1 1-1h1v-4h-1c-.56 0-1-.45-1-1 0-.56.44-1 1-1h1.01c0-.07 0-.14.01-.2 .03-.4.1-.79.29-1.17 .28-.57.74-1.03 1.31-1.32 .37-.2.77-.27 1.16-.3 .06-.01.12-.01.19-.02V3.91c0-.56.44-1 1-1 .55 0 1 .44 1 1v1h4v-1c0-.56.44-1 1-1 .55 0 1 .44 1 1v1.01c.06 0 .13 0 .19.01 .39.03.78.1 1.16.29 .56.28 1.02.74 1.31 1.31 .19.37.26.77.29 1.16 0 .06 0 .12.01.19h1.01ZM7.96 7.02c-.28.02-.38.05-.43.08 -.19.09-.35.24-.44.43 -.03.04-.07.15-.09.42 -.03.28-.03.65-.03 1.23v5.6c0 .57 0 .94.02 1.23 .02.27.05.37.08.42 .09.18.24.34.43.43 .04.02.15.06.42.08 .28.02.65.02 1.23.02h5.6c.57 0 .94-.01 1.23-.03 .27-.03.37-.06.42-.09 .18-.1.34-.25.43-.44 .02-.05.06-.16.08-.43 .02-.29.02-.66.02-1.24v-5.6c0-.58-.01-.95-.03-1.24 -.03-.28-.06-.38-.09-.43 -.1-.19-.25-.35-.44-.44 -.05-.03-.16-.07-.43-.09 -.29-.03-.66-.03-1.24-.03H9.1c-.58 0-.95 0-1.24.02Z"/><path fill="#12131A" d="M10 11c0-.56.44-1 1-1h2c.55 0 1 .44 1 1v2c0 .55-.45 1-1 1h-2c-.56 0-1-.45-1-1v-2Z"/></g></svg>