<svg viewBox="0 0 24 24" xmlns="http://www.w3.org/2000/svg"><g><path fill="#12131A" fill-rule="evenodd" d="M21 9c0-.56-.45-1-1-1h-1c-.01-.99-.02-1.51-.22-1.91 -.2-.38-.5-.69-.88-.88 -.41-.21-.92-.22-1.91-.22V3.98c0-.56-.45-1-1-1 -.56 0-1 .44-1 1v1h-4v-1c0-.56-.45-1-1-1 -.56 0-1 .44-1 1v1c-.99 0-1.51.01-1.91.21 -.38.19-.69.49-.88.87 -.21.4-.22.91-.22 1.9H3.97c-.56 0-1 .44-1 1 0 .55.44 1 1 1h1v4h-1c-.56 0-1 .44-1 1 0 .55.44 1 1 1h1c0 .98.01 1.5.21 1.9 .19.37.49.68.87.87 .4.2.91.21 1.9.21v1c0 .55.44 1 1 1 .55 0 1-.45 1-1v-1h4v1c0 .55.44 1 1 1 .55 0 1-.45 1-1v-1.01c.98-.01 1.5-.02 1.9-.22 .37-.2.68-.5.87-.88 .2-.41.21-.92.21-1.91h1c.55 0 1-.45 1-1 0-.56-.45-1-1-1h-1v-4h1c.55 0 1-.45 1-1Zm-10 1c-.56 0-1 .44-1 1v2c0 .55.44 1 1 1h2c.55 0 1-.45 1-1v-2c0-.56-.45-1-1-1h-2Z"/></g></svg>