<svg viewBox="0 0 24 24" xmlns="http://www.w3.org/2000/svg"><g><g fill="#12131A"><path d="M20 8c.55 0 1 .44 1 1 0 .55-.45 1-1 1h-1V8h1Z"/><path d="M16 19h-2v1c0 .55.44 1 1 1 .55 0 1-.45 1-1v-1Z"/><path d="M14 4c0-.56.44-1 1-1 .55 0 1 .44 1 1v1h-2V4Z"/><path d="M10 19H8v1c0 .55.44 1 1 1 .55 0 1-.45 1-1v-1Z"/><path d="M9 3c-.56 0-1 .44-1 1v1h2V4c0-.56-.45-1-1-1Z"/><path d="M5 10V8H4c-.56 0-1 .44-1 1 0 .55.44 1 1 1h1Z"/><path d="M20 14c.55 0 1 .44 1 1 0 .55-.45 1-1 1h-1v-2h1Z"/><path d="M4 16h1v-2H4c-.56 0-1 .44-1 1 0 .55.44 1 1 1Z"/><path opacity=".25" d="M5 8.2c0-1.13 0-1.69.21-2.11 .19-.38.49-.69.87-.88 .42-.22.98-.22 2.1-.22h7.6c1.12 0 1.68 0 2.1.21 .37.19.68.49.87.87 .21.42.21.98.21 2.1v7.6c0 1.12 0 1.68-.22 2.1 -.2.37-.5.68-.88.87 -.43.21-.99.21-2.11.21h-7.6c-1.13 0-1.69 0-2.11-.22 -.38-.2-.69-.5-.88-.88 -.22-.43-.22-.99-.22-2.11v-7.6Z"/><path d="M10 11c0-.56.44-1 1-1h2c.55 0 1 .44 1 1v2c0 .55-.45 1-1 1h-2c-.56 0-1-.45-1-1v-2Z"/></g></g></svg>