<svg viewBox="0 0 24 24" xmlns="http://www.w3.org/2000/svg"><g><g fill="#12131A"><path d="M8 17.6c0-.57 0-.85.1-1.06 .09-.19.24-.35.43-.44 .21-.11.49-.11 1.05-.11h4.8c.56 0 .84 0 1.05.1 .18.09.34.24.43.43 .1.21.1.49.1 1.05v.2c0 1.12 0 1.68-.22 2.1 -.2.37-.5.68-.88.87 -.43.21-.99.21-2.11.21h-1.6c-1.13 0-1.69 0-2.11-.22 -.38-.2-.69-.5-.88-.88 -.22-.43-.22-.99-.22-2.11v-.2Z"/><path d="M3 13.2c0-1.13 0-1.69.21-2.11 .19-.38.49-.69.87-.88 .42-.22.98-.22 2.1-.22h11.6c1.12 0 1.68 0 2.1.21 .37.19.68.49.87.87 .21.42.21.98.21 2.1v2.6c0 1.12 0 1.68-.22 2.1 -.2.37-.5.68-.88.87 -.28.13-.6.18-1.09.2 -.29.01-.43.01-.54-.04 -.1-.05-.18-.13-.23-.22 -.06-.11-.06-.27-.06-.58 0-.1 0-.2 0-.3v-.32c0-.24 0-.53-.03-.78 -.03-.3-.09-.71-.31-1.15 -.29-.57-.75-1.03-1.32-1.32 -.44-.23-.86-.29-1.15-.31 -.26-.03-.54-.03-.78-.03h-4.9c-.24-.01-.53-.01-.78.02 -.3.02-.71.08-1.15.3 -.57.28-1.03.74-1.32 1.31 -.23.43-.29.85-.31 1.14 -.03.25-.03.53-.03.77l0 .31c-.01.09-.01.19 0 .29 0 .3 0 .46-.06.57 -.06.09-.13.17-.23.22 -.12.05-.26.04-.54.03 -.49-.02-.82-.07-1.09-.21 -.38-.2-.69-.5-.88-.88 -.22-.43-.22-.99-.22-2.11v-2.6Z"/><path d="M8 6.2c0-1.13 0-1.69.21-2.11 .19-.38.49-.69.87-.88 .42-.22.98-.22 2.1-.22h1.6c1.12 0 1.68 0 2.1.21 .37.19.68.49.87.87 .21.42.21.98.21 2.1v.2c0 .56 0 .84-.11 1.05 -.1.18-.25.34-.44.43 -.22.1-.5.1-1.06.1h-4.8c-.57 0-.85 0-1.06-.11 -.19-.1-.35-.25-.44-.44 -.11-.22-.11-.5-.11-1.06v-.2Z"/></g></g></svg>