<svg viewBox="0 0 24 24" xmlns="http://www.w3.org/2000/svg"><g><path fill="#12131A" fill-rule="evenodd" d="M14.22 4.05c-.21-.05-.44-.06-1.22-.06H9.78c-.86 0-1.44 0-1.89.03 -.44.03-.67.1-.82.18 -.38.19-.69.49-.88.87 -.08.15-.15.38-.19.81 -.04.45-.04 1.03-.04 1.88v8.4c0 .85 0 1.43.03 1.88 .03.43.1.66.18.81 .19.37.49.68.87.87 .15.07.38.14.81.18 .45.03 1.03.03 1.88.03h4.4c.85 0 1.43-.01 1.88-.04 .43-.04.66-.11.81-.19 .37-.2.68-.5.87-.88 .07-.16.14-.39.18-.82 .03-.46.03-1.04.03-1.89V8.89c0-.79-.01-1.01-.06-1.22 -.05-.21-.13-.4-.24-.58 -.11-.18-.27-.35-.82-.9L15.59 5c-.56-.56-.72-.71-.9-.82 -.18-.11-.38-.2-.58-.24ZM13.1 1.99c.63-.01 1.11-.01 1.57.11 .4.09.79.25 1.15.47 .4.24.74.58 1.19 1.03 .02.02.04.04.07.07l1.18 1.18c.02.02.04.04.07.07 .44.44.78.78 1.03 1.19 .21.35.38.74.47 1.15 .11.46.11.94.11 1.57 0 .03 0 .06 0 .1v7.25c0 .8 0 1.46-.05 2.01 -.05.56-.15 1.07-.4 1.56 -.39.75-1 1.36-1.75 1.74 -.49.24-1.01.34-1.57.39 -.55.04-1.21.04-2.02.04H9.66c-.81 0-1.47 0-2.02-.05 -.57-.05-1.08-.15-1.57-.4 -.76-.39-1.37-1-1.75-1.75 -.25-.49-.35-1.01-.4-1.57 -.05-.55-.05-1.21-.05-2.02V7.64c-.01-.81-.01-1.47.04-2.02 .04-.57.14-1.08.39-1.57 .38-.76.99-1.37 1.74-1.75 .48-.25 1-.35 1.56-.4 .54-.05 1.2-.05 2.01-.05h3.25c.03 0 .06-.01.1-.01Z"/><g fill="#12131A"><path d="M9 6c-.56 0-1 .44-1 1v2c0 .55.44 1 1 1 .55 0 1-.45 1-1V7c0-.56-.45-1-1-1Z"/><path d="M13 6c-.56 0-1 .44-1 1v2c0 .55.44 1 1 1 .55 0 1-.45 1-1V7c0-.56-.45-1-1-1Z"/></g></g></svg>