<svg viewBox="0 0 24 24" xmlns="http://www.w3.org/2000/svg"><g><g fill="#12131A"><path d="M19 4c0-.56.44-1 1-1 .55 0 1 .44 1 1v10c0 .55-.45 1-1 1 -.56 0-1-.45-1-1V4Z"/><path d="M11.29 11.293c-.19.18-.3.43-.3.7v8c0 .55.44 1 1 1 .55 0 1-.45 1-1v-7l-1.71-1.71Z"/><path d="M15 15v5c0 .55.44 1 1 1 .55 0 1-.45 1-1v-3l-2-2Z"/><path d="M7 16c0-.56.44-1 1-1 .55 0 1 .44 1 1v4c0 .55-.45 1-1 1 -.56 0-1-.45-1-1v-4Z"/><path d="M3 20c0-.56.44-1 1-1 .55 0 1 .44 1 1 0 .55-.45 1-1 1 -.56 0-1-.45-1-1Z"/><path d="M16 7c-.56 0-1 .44-1 1v2c0 .55.44 1 1 1 .55 0 1-.45 1-1V8c0-.56-.45-1-1-1Z"/><path fill="#12131A" fill-rule="evenodd" d="M2.29 2.29c.39-.4 1.02-.4 1.41 0l17.99 18c.39.39.39 1.02 0 1.41 -.4.39-1.03.39-1.42 0L2.26 3.7c-.4-.4-.4-1.03 0-1.42Z"/></g></g></svg>