<svg viewBox="0 0 24 24" xmlns="http://www.w3.org/2000/svg"><g><g fill="#12131A"><path d="M19 4c0-.56.44-1 1-1 .55 0 1 .44 1 1v16c0 .55-.45 1-1 1 -.56 0-1-.45-1-1V4Z"/><path d="M16 7c-.56 0-1 .44-1 1v12c0 .55.44 1 1 1 .55 0 1-.45 1-1V8c0-.56-.45-1-1-1Z"/><path d="M12 11c-.56 0-1 .44-1 1v8c0 .55.44 1 1 1 .55 0 1-.45 1-1v-8c0-.56-.45-1-1-1Z"/><path d="M7 16c0-.56.44-1 1-1 .55 0 1 .44 1 1v4c0 .55-.45 1-1 1 -.56 0-1-.45-1-1v-4Z"/><path d="M4 19c-.56 0-1 .44-1 1 0 .55.44 1 1 1 .55 0 1-.45 1-1 0-.56-.45-1-1-1Z"/></g></g></svg>