<svg viewBox="0 0 24 24" xmlns="http://www.w3.org/2000/svg"><g><path fill="#12131A" fill-rule="evenodd" d="M4.05 9.77c-.05.2-.06.43-.06 1.21v3.21c0 .85 0 1.43.03 1.88 .03.43.1.66.18.81 .19.37.49.68.87.87 .15.07.38.14.81.18 .45.03 1.03.03 1.88.03h8.4c.85 0 1.43-.01 1.88-.04 .43-.04.66-.11.81-.19 .37-.2.68-.5.87-.88 .07-.16.14-.39.18-.82 .03-.46.03-1.04.03-1.89v-4.4c0-.86-.01-1.44-.04-1.89 -.04-.44-.11-.67-.19-.82 -.2-.38-.5-.69-.88-.88 -.16-.08-.39-.15-.82-.19 -.46-.04-1.04-.04-1.89-.04H8.89c-.79 0-1.01 0-1.22.05 -.21.04-.4.12-.58.23 -.18.1-.35.26-.9.81L5 8.19c-.56.55-.71.71-.82.89 -.11.17-.2.37-.24.57Zm-2.06 1.11c-.01-.64-.01-1.12.11-1.58 .09-.41.25-.8.47-1.16 .24-.41.58-.75 1.03-1.2 .02-.03.04-.05.07-.08l1.18-1.19c.02-.03.04-.05.07-.08 .44-.45.78-.79 1.19-1.04 .35-.22.74-.39 1.15-.48 .46-.12.94-.12 1.57-.12 .03 0 .06 0 .1 0h7.25c.8-.01 1.46-.01 2.01.04 .56.04 1.07.14 1.56.39 .75.38 1.36.99 1.74 1.74 .24.48.34 1 .39 1.56 .04.54.04 1.2.04 2.01v4.48c0 .8 0 1.46-.05 2.01 -.05.56-.15 1.07-.4 1.56 -.39.75-1 1.36-1.75 1.74 -.49.24-1.01.34-1.57.39 -.55.04-1.21.04-2.02.04H7.64c-.81 0-1.47 0-2.02-.05 -.57-.05-1.08-.15-1.57-.4 -.76-.39-1.37-1-1.75-1.75 -.25-.49-.35-1.01-.4-1.57 -.05-.55-.05-1.21-.05-2.02v-3.26c0-.04-.01-.07-.01-.11Z"/><path fill="#12131A" d="M11 12.6c0-.57 0-.85.1-1.06 .09-.19.24-.35.43-.44 .21-.11.49-.11 1.05-.11h3.8c.56 0 .84 0 1.05.1 .18.09.34.24.43.43 .1.21.1.49.1 1.05v1.8c0 .56 0 .84-.11 1.05 -.1.18-.25.34-.44.43 -.22.1-.5.1-1.06.1h-3.8c-.57 0-.85 0-1.06-.11 -.19-.1-.35-.25-.44-.44 -.11-.22-.11-.5-.11-1.06v-1.8Z"/></g></svg>