<svg viewBox="0 0 24 24" xmlns="http://www.w3.org/2000/svg"><g><g><g><g><path d="M2.563 14.5C1.18 14.5.06 13.37.06 12c0-1.38 1.121-2.5 2.5-2.5s2.5 1.12 2.5 2.5c0 1.37-1.13 2.5-2.5 2.5Zm0-4c-.827 0-1.5.673-1.5 1.5s.673 1.5 1.5 1.5 1.5-.673 1.5-1.5 -.68-1.5-1.5-1.5Z"/><path d="M19.063 24c-1.38 0-2.5-1.13-2.5-2.5 0-1.38 1.12-2.5 2.5-2.5 1.37 0 2.5 1.12 2.5 2.5 0 1.37-1.13 2.5-2.5 2.5Zm0-4c-.83 0-1.5.67-1.5 1.5 0 .82.67 1.5 1.5 1.5 .82 0 1.5-.68 1.5-1.5 0-.83-.68-1.5-1.5-1.5Z"/><path d="M19.063 5c-1.38 0-2.5-1.13-2.5-2.5 0-1.38 1.12-2.5 2.5-2.5 1.37 0 2.5 1.122 2.5 2.5 0 1.37-1.13 2.5-2.5 2.5Zm0-4c-.83 0-1.5.673-1.5 1.5s.67 1.5 1.5 1.5c.82 0 1.5-.673 1.5-1.5s-.68-1.5-1.5-1.5Z"/></g><g><g><path d="M23.437 11H19.35c-.23 0-.42-.15-.49-.37 -.72-2.53-3.3-4.17-6.03-3.48 -.23.05-.45-.05-.56-.24L10.22 3.36c-.08-.13-.09-.28-.04-.42 .04-.14.15-.25.29-.3 1.48-.569 3.09-.77 4.62-.61 .25.02.44.23.44.49 .02 1.9 1.593 3.45 3.49 3.45 .69 0 1.35-.21 1.936-.59 .21-.15.49-.11.657.09 1.19 1.39 1.98 3.099 2.27 4.91 .02.14-.02.29-.12.4 -.1.11-.24.17-.39.17Zm-3.73-1h3.11c-.3-1.282-.87-2.484-1.67-3.53 -.65.34-1.37.52-2.1.52 -2.3 0-4.21-1.75-4.465-3.983 -1.07-.07-2.16.06-3.19.38l1.56 2.701c2.98-.58 5.78 1.18 6.74 3.894Z"/><path d="M14.063 22c-1.218 0-2.42-.23-3.567-.67 -.14-.06-.25-.17-.3-.3 -.05-.14-.04-.3.03-.42l2.045-3.55c.11-.2.33-.29.55-.24 2.737.69 5.31-.96 6.02-3.48 .06-.22.25-.37.48-.37h4.087c.14 0 .28.06.38.17 .09.11.13.25.11.4 -.3 1.81-1.08 3.52-2.28 4.91 -.17.19-.45.23-.657.09 -.58-.39-1.25-.59-1.94-.59 -1.91 0-3.47 1.54-3.5 3.45 -.01.25-.2.46-.45.49 -.35.03-.71.05-1.06.05Zm-2.66-1.41c1.03.32 2.125.45 3.18.38 .25-2.24 2.17-3.99 4.46-3.99 .73 0 1.45.18 2.099.52 .8-1.04 1.37-2.24 1.67-3.53h-3.12c-.96 2.708-3.76 4.46-6.746 3.89l-1.56 2.7Z"/><path d="M8.079 19.865c-.12 0-.23-.04-.32-.12 -1.46-1.189-2.548-2.75-3.151-4.52 -.07-.2-.01-.42.15-.55 .82-.68 1.29-1.66 1.29-2.7 0-1.04-.48-2.02-1.3-2.7 -.17-.14-.23-.36-.16-.55 .6-1.77 1.69-3.33 3.151-4.511 .11-.1.26-.13.4-.11 .14.02.27.11.34.242l2.04 3.53c.11.19.08.43-.08.59 -.92.93-1.42 2.17-1.42 3.48 0 1.3.5 2.542 1.41 3.481 .15.16.18.4.07.59l-2.05 3.53c-.08.12-.2.21-.35.24 -.03 0-.06 0-.09 0Zm-2.41-4.64c.49 1.27 1.271 2.42 2.279 3.36l1.55-2.7c-.94-1.09-1.44-2.46-1.44-3.9s.5-2.81 1.44-3.9l-1.56-2.7c-1.01.93-1.79 2.08-2.28 3.36 .89.85 1.39 2.01 1.39 3.22 0 1.21-.51 2.37-1.4 3.22Z"/></g></g></g></g></g></svg>