<svg viewBox="0 0 24 24" xmlns="http://www.w3.org/2000/svg"><g><g opacity=".25"><g fill="#12131A"><path d="M11.07 6.03c.3-.03.61-.04.92-.04 3.22 0 6.15 1.27 8.3 3.34 .39.38 1.03.36 1.41-.03 .38-.4.36-1.04-.03-1.42 -2.52-2.42-5.94-3.9-9.7-3.9 -.37 0-.73.01-1.08.04 -.56.04-.97.52-.93 1.07 .04.55.52.96 1.07.92Z"/><path d="M7.06 7.06l-1.5-1.5c-1.2.62-2.3 1.4-3.26 2.33 -.4.38-.42 1.01-.03 1.41 .38.39 1.01.41 1.41.02 .97-.94 2.11-1.72 3.36-2.29Z"/><path d="M12 12l3.73 3.73c-.27-.02-.52-.14-.71-.35 -.74-.86-1.82-1.39-3.03-1.39 -1.21 0-2.3.53-3.03 1.38 -.37.41-1 .46-1.42.1 -.42-.37-.47-1-.11-1.42 1.09-1.28 2.72-2.08 4.54-2.08Z"/><path d="M8.59 8.59c-1.41.5-2.67 1.32-3.71 2.36 -.39.39-.39 1.02 0 1.41 .39.38 1.02.38 1.41-.01 1.04-1.06 2.38-1.83 3.88-2.17L8.56 8.57Z"/><path d="M13.02 9c.12-.54.65-.88 1.19-.76 .37.08.75.19 1.11.32 1.43.5 2.72 1.33 3.77 2.39 .38.39.38 1.02-.01 1.41 -.4.38-1.03.38-1.42-.01 -.85-.85-1.87-1.52-3.02-1.92 -.29-.11-.59-.19-.89-.26 -.54-.13-.88-.66-.76-1.2Z"/></g></g><g fill="#12131A"><path opacity=".25" d="M14 18c0 1.1-.9 2-2 2 -1.11 0-2-.9-2-2 0-1.11.89-2 2-2 1.1 0 2 .89 2 2Z"/><path fill="#12131A" fill-rule="evenodd" d="M2.29 2.29c.39-.4 1.02-.4 1.41 0l17.99 18c.39.39.39 1.02 0 1.41 -.4.39-1.03.39-1.42 0L2.26 3.7c-.4-.4-.4-1.03 0-1.42Z"/></g></g></svg>