<svg viewBox="0 0 24 24" xmlns="http://www.w3.org/2000/svg"><g><g fill="#12131A"><path d="M14 18c0 1.1-.9 2-2 2 -1.11 0-2-.9-2-2 0-1.11.89-2 2-2 1.1 0 2 .89 2 2Z"/><path d="M15.73 15.73L5.56 5.56c-1.2.62-2.3 1.4-3.26 2.33 -.39.36-.42.96-.07 1.37l5.21 6.11c.18.22.46.34.75.35 .29 0 .56-.13.75-.35 .73-.86 1.81-1.39 3.02-1.39 1.2 0 2.29.53 3.02 1.38 .17.2.43.33.7.34Z"/><g fill="#12131A" fill-rule="evenodd"><path d="M12 6c-.32 0-.62.01-.93.03 -.56.04-1.04-.38-1.08-.93 -.05-.56.37-1.04.92-1.08 .35-.03.71-.05 1.07-.05 3.76 0 7.17 1.48 9.69 3.89 .38.36.41.96.06 1.37l-2.89 3.38c-.36.42-.99.47-1.41.11 -.43-.36-.47-.99-.12-1.41l2.24-2.64c-2.08-1.7-4.72-2.72-7.61-2.72Z"/><path d="M2.29 2.29c.39-.4 1.02-.4 1.41 0l17.99 18c.39.39.39 1.02 0 1.41 -.4.39-1.03.39-1.42 0L2.26 3.7c-.4-.4-.4-1.03 0-1.42Z"/></g></g></g></svg>