<svg viewBox="0 0 24 24" xmlns="http://www.w3.org/2000/svg"><g><g fill="#12131A"><path opacity=".25" d="M22 12c0 5.52-4.48 10-10 10C6.47 22 2 17.52 2 12 2 6.47 6.47 2 12 2c5.52 0 10 4.47 10 10Z"/><path d="M4.5 18.61c2.11-1.44 3.49-3.87 3.49-6.62s-1.39-5.18-3.5-6.62c.45-.52.95-.98 1.49-1.39 2.42 1.82 4 4.72 4 8 0 3.27-1.58 6.17-4 8 -.55-.41-1.05-.88-1.5-1.39Z"/><path d="M17.99 3.99c-2.43 1.82-4 4.72-4 8 0 3.27 1.57 6.17 4 8 .54-.41 1.04-.88 1.49-1.39 -2.12-1.44-3.5-3.87-3.5-6.62s1.38-5.18 3.49-6.62c-.46-.52-.96-.98-1.5-1.39Z"/></g></g></svg>