<svg viewBox="0 0 24 24" xmlns="http://www.w3.org/2000/svg"><g><g fill="#12131A"><path d="M4.5 18.61c2.11-1.44 3.49-3.87 3.49-6.62s-1.39-5.18-3.5-6.62c.45-.52.95-.98 1.49-1.39 2.42 1.82 4 4.72 4 8 0 3.27-1.58 6.17-4.01 8 -.55-.41-1.05-.88-1.5-1.39Z"/><path d="M18 3.99c-2.43 1.82-4 4.72-4 8 0 3.27 1.57 6.17 4 8 .54-.41 1.04-.88 1.49-1.39 -2.12-1.44-3.5-3.87-3.5-6.62s1.38-5.18 3.49-6.62c-.46-.52-.96-.98-1.5-1.39Z"/><path fill="#12131A" fill-rule="evenodd" d="M12 20c4.41 0 8-3.59 8-8 0-4.42-3.59-8-8-8 -4.42 0-8 3.58-8 8 0 4.41 3.58 8 8 8Zm0 2c5.52 0 10-4.48 10-10 0-5.53-4.48-10-10-10C6.47 2 2 6.47 2 12c0 5.52 4.47 10 10 10Z"/></g></g></svg>