<svg viewBox="0 0 24 24" xmlns="http://www.w3.org/2000/svg"><g><g fill="#12131A"><path opacity=".25" d="M22 12c0 5.52-4.48 10-10 10C6.47 22 2 17.52 2 12 2 6.47 6.47 2 12 2c5.52 0 10 4.47 10 10Z"/><path d="M5.5 4.4c1.9 1.63 3.18 3.96 3.45 6.59h2.04V2.03c.32-.04.66-.05 1-.05 .33 0 .67.01 1 .04v8.95h2.04c.26-2.64 1.54-4.97 3.45-6.6 .5.43.97.92 1.38 1.44 -1.53 1.26-2.57 3.08-2.83 5.15h4.88c.03.32.04.66.04 1 0 .33-.02.67-.05 1h-4.89c.25 2.06 1.3 3.88 2.82 5.15 -.42.52-.88 1.01-1.39 1.44 -1.91-1.64-3.189-3.97-3.46-6.6h-2.05v8.95c-.33.03-.67.04-1 .04 -.34 0-.68-.02-1-.05v-8.96H8.88c-.27 2.635-1.55 4.96-3.46 6.59 -.51-.44-.98-.93-1.39-1.45 1.52-1.27 2.56-3.09 2.82-5.16H1.96c-.04-.33-.05-.67-.05-1 0-.34.01-.68.04-1h4.88C6.57 8.84 5.52 7.02 4 5.75c.41-.53.87-1.02 1.38-1.45Z"/></g></g></svg>