<svg viewBox="0 0 24 24" xmlns="http://www.w3.org/2000/svg"><g><path fill="#12131A" fill-rule="evenodd" d="M10.99 2.04C8.9 2.24 7 3.09 5.49 4.39c1.9 1.63 3.18 3.96 3.45 6.59h2.04V2.02Zm-5.5 17.55c1.51 1.29 3.41 2.14 5.49 2.35v-8.96H8.93c-.27 2.635-1.55 4.96-3.46 6.59Zm7.49 2.35c2.08-.21 3.98-1.06 5.5-2.36 -1.91-1.64-3.189-3.97-3.46-6.6h-2.05v8.95Zm5.5-17.56c-1.52-1.3-3.42-2.15-5.5-2.36v8.95h2.04c.26-2.64 1.54-4.97 3.45-6.6Zm1.38 1.44c1.13 1.44 1.87 3.21 2.06 5.15h-4.89c.25-2.07 1.3-3.89 2.82-5.16Zm2.06 7.15c-.2 1.93-.94 3.7-2.07 5.15 -1.53-1.27-2.57-3.09-2.83-5.16h4.88ZM4.08 18.12c-1.14-1.45-1.88-3.22-2.07-5.16h4.88c-.26 2.06-1.31 3.88-2.83 5.15Zm-2.07-7.16c.19-1.94.93-3.71 2.06-5.16 1.52 1.26 2.56 3.08 2.82 5.15H2Z"/></g></svg>