<svg viewBox="0 0 24 24" xmlns="http://www.w3.org/2000/svg"><g><g fill="#12131A"><path opacity=".25" d="M2 7.2c0-1.13 0-1.69.21-2.11 .19-.38.49-.69.87-.88 .42-.22.98-.22 2.1-.22h13.6c1.12 0 1.68 0 2.1.21 .37.19.68.49.87.87 .21.42.21.98.21 2.1v6.6c0 1.12 0 1.68-.22 2.1 -.2.37-.5.68-.88.87 -.43.21-.99.21-2.11.21H5.15c-1.13 0-1.69 0-2.11-.22 -.38-.2-.69-.5-.88-.88 -.22-.43-.22-.99-.22-2.11v-6.6Z"/><path fill="#12131A" fill-rule="evenodd" d="M6 12c0-.56.44-1 1-1h1 4 4 1c.55 0 1 .44 1 1 0 .55-.45 1-1 1v2 2 2c0 .55-.45 1-1 1 -.56 0-1-.45-1-1v-2h-2v2c0 .55-.45 1-1 1 -.56 0-1-.45-1-1v-2H9v2c0 .55-.45 1-1 1 -.56 0-1-.45-1-1v-2 -2 -2c-.56 0-1-.45-1-1Zm7 3h2v-2h-2v2Zm-2-2v2H9v-2h2Z"/></g></g></svg>