<svg viewBox="0 0 24 24" xmlns="http://www.w3.org/2000/svg"><g><g fill="#12131A" fill-rule="evenodd"><path d="M13 17H8c-.56 0-1 .44-1 1v1c0 .55.44 1 1 1h5c.55 0 1-.45 1-1v-1c0-.56-.45-1-1-1Zm-5-2c-1.66 0-3 1.34-3 3v1c0 1.65 1.34 3 3 3h5c1.65 0 3-1.35 3-3v-1c0-1.66-1.35-3-3-3H8Z"/><path d="M9.88 2c.03 0 .07 0 .11 0 .03 0 .07-.01.11-.01 .81-.01 1.37-.01 1.85.09 1.98.39 3.53 1.94 3.92 3.92 .01.05.02.11.02.17 .33-.13.69-.2 1.06-.2 1.65 0 3 1.34 3 3v.99c0 2.2-1.04 4.27-2.8 5.6l-.63.47c-.18.12-.31.22-.44.31 -.55.34-1.17.55-1.82.6 -.17.01-.33.01-.54.01h-2.43c-1.09 0-1.96 0-2.67-.06 -.73-.06-1.37-.19-1.97-.49 -.95-.48-1.71-1.25-2.19-2.19 -.31-.6-.43-1.24-.49-1.97 -.06-.71-.06-1.59-.06-2.67V7.92c0-.04-.01-.08-.01-.12 -.01-.82-.01-1.38.09-1.86 .39-1.99 1.94-3.54 3.92-3.93 .48-.1 1.04-.1 1.85-.1Zm6.11 7v1.49c0 .55-.45 1-1 1 -.56 0-1-.45-1-1v-2.5c0-.98-.01-1.32-.06-1.59 -.24-1.2-1.17-2.13-2.36-2.36 -.27-.06-.61-.06-1.59-.06 -.98 0-1.32 0-1.59.05 -1.2.23-2.13 1.16-2.36 2.35 -.06.26-.06.6-.06 1.58v1.6c0 1.13 0 1.92.05 2.54 .04.6.14.95.27 1.21 .28.56.74 1.02 1.31 1.31 .26.13.61.22 1.21.27 .61.05 1.4.05 2.54.05h2.35c.26 0 .33-.01.41-.01 .32-.03.63-.13.9-.31 .06-.04.12-.09.33-.25l.6-.45c1.25-.95 2-2.43 2-4v-1c0-.56-.45-1-1-1 -.56 0-1 .44-1 1Z"/></g></g></svg>