<svg viewBox="0 0 24 24" xmlns="http://www.w3.org/2000/svg"><g><g fill="#12131A" fill-rule="evenodd"><path d="M20.7 4.7c.39-.4.39-1.03 0-1.42 -.4-.4-1.03-.4-1.42 0l-2.5 2.5c-.4.39-.4 1.02 0 1.41 .39.39 1.02.39 1.41 0l2.5-2.5Zm-6 5.99c.39-.4.39-1.03 0-1.42 -.4-.4-1.03-.4-1.42 0l-3 3c-.4.39-.4 1.02 0 1.41 .39.39 1.02.39 1.41 0l3-3Z"/><path d="M4.5 12.14c.7-.77 1.76-1.11 2.78-.91l4.55.91 .91 4.55c.2 1.02-.14 2.07-.91 2.78l-.77.71c-1.19 1.096-3.03 1.06-4.17-.08l-3.06-3.06c-1.15-1.15-1.18-2.98-.08-4.17l.71-.77Zm2.39 1.05c-.35-.07-.7.04-.93.3l-.72.76c-.37.39-.36 1 .02 1.38l3.05 3.05c.38.38.99.39 1.38.02l.76-.72c.25-.24.36-.59.3-.93l-.65-3.25 -3.25-.65Z"/><path d="M13.87 5.7c1.17-1.18 3.07-1.18 4.24 0l.17.17c1.17 1.17 1.17 3.07 0 4.24l-.68.67c-1.18 1.17-3.08 1.17-4.25 0l-.18-.18c-1.18-1.18-1.18-3.08 0-4.25l.67-.68Zm2.82 1.41c-.4-.4-1.03-.4-1.42 0l-.68.67c-.4.39-.4 1.02 0 1.41l.17.17c.39.39 1.02.39 1.41 0l.67-.68c.39-.4.39-1.03 0-1.42l-.18-.18Z"/></g></g></svg>