<svg viewBox="0 0 24 24" xmlns="http://www.w3.org/2000/svg"><g><g fill="#12131A" fill-rule="evenodd"><path d="M3.29 3.29c-.4.39-.4 1.02 0 1.41l5 5c.39.39 1.02.39 1.41 0 .39-.4.39-1.03 0-1.42l-5-5c-.4-.4-1.03-.4-1.42 0Zm15.32 16.74l-.24.23c-.98.97-2.56.97-3.54 0l-.84-.84c-1.37-1.37-1.37-3.59-.01-4.95l.45-.46c1.37-1.38 3.59-1.38 4.96-.01l.82.82c.97.97.97 2.55-.01 3.53l-.24.23 .67.67c.39.39.39 1.02 0 1.41 -.4.39-1.03.39-1.42 0l-.68-.68Zm-2.73-4.6c.58-.59 1.54-.59 2.13-.01l.82.82c.19.19.19.51 0 .7l-1.88 1.87c-.2.19-.52.19-.71 0l-.84-.84c-.59-.59-.59-1.54-.01-2.13l.45-.46Z"/><path d="M20.7 3.29c.39.39.39 1.02 0 1.41L10.39 15c.91 1.36.77 3.22-.44 4.42l-.84.83c-.98.97-2.56.97-3.54-.01l-.23-.23 -.68.67c-.4.39-1.03.39-1.42 0 -.4-.4-.4-1.03 0-1.42l.67-.68 -.24-.24c-.98-.98-.98-2.56-.01-3.54l.82-.83c1.2-1.21 3.07-1.36 4.43-.44l10.3-10.31c.39-.4 1.02-.4 1.41 0ZM8.09 15.43c-.59-.59-1.55-.59-2.14-.01l-.83.82c-.2.19-.2.51 0 .7l1.87 1.87c.19.19.51.19.7 0l.83-.84c.58-.59.58-1.54 0-2.13l-.46-.46Z"/></g></g></svg>