<svg viewBox="0 0 24 24" xmlns="http://www.w3.org/2000/svg"><g><path fill="#12131A" fill-rule="evenodd" d="M2.26 10.73c.86-1.96 3.62-6.74 9.73-6.74 6.1 0 8.86 4.78 9.72 6.74 .35.8.35 1.71 0 2.51 -.87 1.95-3.63 6.74-9.73 6.74 -6.11 0-8.87-4.79-9.74-6.74 -.36-.81-.36-1.72-.001-2.53Zm7.73-1.74c-.56 0-1 .44-1 1v1h-1c-.56 0-1 .44-1 1 0 .55.44 1 1 1h1v1c0 .55.44 1 1 1 .55 0 1-.45 1-1v-1h2v1c0 .55.44 1 1 1 .55 0 1-.45 1-1v-1h1c.55 0 1-.45 1-1 0-.56-.45-1-1-1h-1v-1c0-.56-.45-1-1-1 -.56 0-1 .44-1 1v1h-2v-1c0-.56-.45-1-1-1Z"/></g></svg>