<svg viewBox="0 0 24 24" xmlns="http://www.w3.org/2000/svg"><g><path fill="#12131A" fill-rule="evenodd" d="M7.26 9.84c1.24-1.15 2.91-1.85 4.73-1.85 1.82 0 3.49.7 4.73 1.84l3.07-5.63c.54-1-.18-2.22-1.32-2.22h-3.32c-.73 0-1.4.39-1.75 1.02l-1.43 2.57 -1.43-2.58c-.36-.64-1.03-1.03-1.75-1.03H5.47c-1.14 0-1.87 1.21-1.32 2.21l3.07 5.62Z"/><g fill="#12131A"><path opacity=".25" d="M19 15c0 3.86-3.14 7-7 7 -3.87 0-7-3.14-7-7 0-3.87 3.13-7 7-7 3.86 0 7 3.13 7 7Z"/><path fill="#12131A" fill-rule="evenodd" d="M12 17c1.1 0 2-.9 2-2 0-1.11-.9-2-2-2 -1.11 0-2 .89-2 2 0 1.1.89 2 2 2Z"/></g></g></svg>