<svg viewBox="0 0 24 24" xmlns="http://www.w3.org/2000/svg"><g><path fill="#12131A" fill-rule="evenodd" d="M6.73 4c-2.07 0-3.8 1.57-3.99 3.63L2 15.62c-.22 2.34 1.62 4.36 3.98 4.36h1.45c1.95 0 3.62-1.42 3.94-3.35l.41-2.51c.01-.09.08-.16.17-.16 .08 0 .16.06.17.15l.41 2.5c.32 1.92 1.99 3.34 3.94 3.34h1.45c2.35 0 4.19-2.03 3.98-4.37l-.74-8c-.19-2.06-1.92-3.64-3.99-3.64H6.64Zm-2 3.81c.09-1.03.95-1.82 1.99-1.82h10.52c1.03 0 1.89.78 1.99 1.81l.01.18H4.69l.01-.19Zm-.21 2.18l-.54 5.81c-.11 1.17.81 2.18 1.99 2.18h1.45c.97 0 1.81-.71 1.97-1.68l.41-2.51c.17-1.06 1.08-1.83 2.15-1.83 1.06 0 1.97.77 2.15 1.82l.41 2.5c.16.96.99 1.67 1.97 1.67h1.45c1.17 0 2.09-1.02 1.99-2.19l-.54-5.82H4.46Z"/></g></svg>