<svg viewBox="0 0 24 24" xmlns="http://www.w3.org/2000/svg"><g><g fill="#12131A" fill-rule="evenodd"><path d="M2.99 10c-.27 0-.48.2-.5.46L2 16.76c-.14 1.74 1.24 3.23 2.99 3.23h2.39c1.49 0 2.75-1.1 2.96-2.58l.49-3.44c.08-.57.56-.99 1.14-.99 .57 0 1.06.42 1.14.98l.49 3.43c.21 1.47 1.47 2.57 2.96 2.57h2.39c1.74 0 3.12-1.49 2.99-3.24l-.49-6.31c-.03-.27-.24-.47-.5-.47H2.94Z"/><path d="M5.77 4h12.44c1.56 0 2.86 1.2 2.99 2.76l.05.69c.02.29-.21.53-.5.53H3.21c-.3 0-.53-.25-.5-.54l.05-.7c.12-1.57 1.42-2.77 2.99-2.77Z"/></g></g></svg>