<svg viewBox="0 0 24 24" xmlns="http://www.w3.org/2000/svg"><g><g fill="#12131A"><path opacity=".25" d="M2 8.8c0-1.69 0-2.53.32-3.17 .28-.57.74-1.03 1.31-1.32 .64-.33 1.48-.33 3.16-.33h10.4c1.68 0 2.52 0 3.16.32 .56.28 1.02.74 1.31 1.31 .32.64.32 1.48.32 3.16v6.4c0 1.68 0 2.52-.33 3.16 -.29.56-.75 1.02-1.32 1.31 -.65.32-1.49.32-3.17.32H6.76c-1.69 0-2.53 0-3.17-.33 -.57-.29-1.03-.75-1.32-1.32 -.33-.65-.33-1.49-.33-3.17v-6.4Z"/><path fill="#12131A" fill-rule="evenodd" d="M11 4h2v3c0 .55-.45 1-1 1 -.56 0-1-.45-1-1V4Zm1 10c1.1 0 2-.9 2-2 0-1.11-.9-2-2-2 -1.11 0-2 .89-2 2 0 1.1.89 2 2 2Zm0 2c-.56 0-1 .44-1 1v3h2v-3c0-.56-.45-1-1-1Zm-9-6H2V8h1c1.65 0 3 1.34 3 3v2c0 1.65-1.35 3-3 3H2v-2h1c.55 0 1-.45 1-1v-2c0-.56-.45-1-1-1Zm19 0h-1c-.56 0-1 .44-1 1v2c0 .55.44 1 1 1h1v2h-1c-1.66 0-3-1.35-3-3v-2c0-1.66 1.34-3 3-3h1v2Z"/></g></g></svg>