<svg viewBox="0 0 24 24" xmlns="http://www.w3.org/2000/svg"><g><path fill="#12131A" fill-rule="evenodd" d="M2.32 5.63c-.28.53-.32 1.19-.33 2.36h.99c1.65 0 3 1.34 3 3v2c0 1.65-1.35 3-3 3h-1c0 1.16.05 1.83.32 2.36 .28.56.74 1.02 1.31 1.31 .64.32 1.48.32 3.16.32h4.2v-4.13c-1.73-.45-3-2.02-3-3.88 0-1.87 1.27-3.43 3-3.88V3.96h-4.2c-1.69 0-2.53 0-3.17.32 -.57.28-1.03.74-1.32 1.31Zm-.33 8.36v-4h1c.55 0 1 .44 1 1v2c0 .55-.45 1-1 1h-1Zm11 1.87v4.12h4.2c1.68 0 2.52 0 3.16-.33 .56-.29 1.02-.75 1.31-1.32 .27-.54.31-1.2.32-2.37h-1c-1.66 0-3-1.35-3-3v-2c0-1.66 1.34-3 3-3h.99c-.01-1.17-.06-1.84-.33-2.37 -.29-.57-.75-1.03-1.32-1.32 -.65-.33-1.49-.33-3.17-.33h-4.2v4.12c1.72.44 3 2.01 3 3.87 0 1.86-1.28 3.42-3 3.87Zm9-5.88h-1c-.56 0-1 .44-1 1v2c0 .55.44 1 1 1h1v-4Zm-10 4c-1.11 0-2-.9-2-2 0-1.11.89-2 2-2 1.1 0 2 .89 2 2 0 1.1-.9 2-2 2Z"/></g></svg>