<svg viewBox="0 0 24 24" xmlns="http://www.w3.org/2000/svg"><g><g fill-rule="evenodd" fill="#12131A"><path opacity=".25" d="M6 6c-.56 0-1 .44-1 1 0 .55.44 1 1 1h4c.55 0 1 .44 1 1v6c0 .55-.45 1-1 1H6c-.56 0-1 .44-1 1 0 .55.44 1 1 1h4c1.65 0 3-1.35 3-3v-2h4c.55 0 1-.45 1-1 0-.56-.45-1-1-1h-4V9c0-1.66-1.35-3-3-3H6Z"/><path d="M8 7c0 1.65-1.35 3-3 3 -1.66 0-3-1.35-3-3 0-1.66 1.34-3 3-3 1.65 0 3 1.34 3 3Zm14 5c0 1.65-1.35 3-3 3 -1.66 0-3-1.35-3-3 0-1.66 1.34-3 3-3 1.65 0 3 1.34 3 3ZM5 20c1.65 0 3-1.35 3-3 0-1.66-1.35-3-3-3 -1.66 0-3 1.34-3 3 0 1.65 1.34 3 3 3Z"/></g></g></svg>