<svg viewBox="0 0 24 24" xmlns="http://www.w3.org/2000/svg"><g><g fill="#12131A" fill-rule="evenodd"><path d="M7 8h3c.55 0 1 .44 1 1v6c0 .55-.45 1-1 1H7v2h3c1.65 0 3-1.35 3-3v-2h4v-2h-4V9c0-1.66-1.35-3-3-3H7v2Z"/><path d="M2 7c0-1.66 1.34-3 3-3 1.65 0 3 1.34 3 3 0 1.65-1.35 3-3 3 -1.66 0-3-1.35-3-3Zm3-1c-.56 0-1 .44-1 1 0 .55.44 1 1 1 .55 0 1-.45 1-1 0-.56-.45-1-1-1ZM4 17c0 .55.44 1 1 1 .55 0 1-.45 1-1 0-.56-.45-1-1-1 -.56 0-1 .44-1 1Zm1-3c-1.66 0-3 1.34-3 3 0 1.65 1.34 3 3 3 1.65 0 3-1.35 3-3 0-1.66-1.35-3-3-3Zm14-1c-.56 0-1-.45-1-1 0-.56.44-1 1-1 .55 0 1 .44 1 1 0 .55-.45 1-1 1Zm-3-1c0-1.66 1.34-3 3-3 1.65 0 3 1.34 3 3 0 1.65-1.35 3-3 3 -1.66 0-3-1.35-3-3Z"/></g></g></svg>