<svg viewBox="0 0 24 24" xmlns="http://www.w3.org/2000/svg"><g><g fill="#12131A" fill-rule="evenodd"><path d="M5 6c0-1.66 1.34-3.01 3-3.01h1.5c.27 0 .5.22.5.5v1.5c0 1.1.89 2 2 2 1.1 0 2-.9 2-2v-1.5c0-.28.22-.5.5-.5H16c1.65 0 3 1.34 3 3v.99c0 .74.14 1.19.28 1.45 .13.23.3.49.53.8l.01.02c.23.32.51.72.73 1.14 .22.43.42.96.42 1.57v6c0 1.65-1.35 3-3 3h-12c-1.66 0-3-1.35-3-3v-6c0-.61.19-1.14.42-1.58 .21-.43.5-.82.73-1.15 0-.01.01-.02.01-.03 .22-.32.4-.58.53-.81 .14-.27.28-.71.28-1.46v-1Zm3-1.01c-.56 0-1 .44-1 1v.99c0 1-.2 1.79-.54 2.41 -.2.35-.44.69-.65.98l-.02.02c-.26.35-.46.64-.61.93 -.15.28-.2.48-.2.64v6c0 .55.44 1 1 1h12c.55 0 1-.45 1-1v-6c0-.17-.06-.37-.2-.65 -.15-.29-.36-.58-.61-.94l-.02-.03c-.21-.3-.46-.64-.65-.99 -.34-.62-.54-1.42-.54-2.42v-1c0-.56-.45-1.01-1-1.01 0 2.2-1.8 4-4 4 -2.21 0-4-1.8-4-4Z"/><path d="M12 11c.55 0 1 .44 1 1v3c.55 0 1 .44 1 1 0 .55-.45 1-1 1h-1 -1c-.56 0-1-.45-1-1 0-.56.44-1 1-1v-2c-.56 0-1-.45-1-1 0-.56.44-1 1-1h1Z"/></g></g></svg>