<svg viewBox="0 0 24 24" xmlns="http://www.w3.org/2000/svg"><g><g fill-rule="evenodd" fill="#12131A"><path opacity=".25" d="M9 3.5c0-.28-.23-.5-.5-.5H8c-1.11 0-2 .89-2 2v.99c0 1.66-.92 2.7-1.74 3.31 -.7.51-1.27 1.26-1.27 2.12v7.55c0 1.1.89 2 2 2h14c1.1 0 2-.9 2-2v-7.56c0-.87-.57-1.62-1.27-2.13 -.83-.61-1.74-1.66-1.74-3.32v-1c0-1.11-.9-2.01-2-2.01h-.5c-.28 0-.5.22-.5.5v.5c0 1.65-1.35 3-3 3 -1.66 0-3-1.35-3-3v-.5Z"/><path d="M12 11c.55 0 1 .44 1 1v3c.55 0 1 .44 1 1 0 .55-.45 1-1 1h-1 -1c-.56 0-1-.45-1-1 0-.56.44-1 1-1v-2c-.56 0-1-.45-1-1 0-.56.44-1 1-1h1Z"/></g></g></svg>