<svg viewBox="0 0 24 24" xmlns="http://www.w3.org/2000/svg"><g><g fill="#12131A" fill-rule="evenodd"><path d="M6 9c0-2.77 2.23-5 5-5 .76 0 1.49.17 2.14.48 .2-.67.59-1.25 1.11-1.68 -.98-.52-2.09-.81-3.27-.81 -3.87 0-7 3.13-7 7 0 2.79 1.63 5.2 4 6.32v3.67c0 1.65 1.34 3 3 3 1.65 0 3-1.35 3-3V15.3c2.36-1.13 4-3.54 4-6.33 0-.12-.01-.23-.01-.34 -.46.21-.96.33-1.5.33 -.17 0-.34-.02-.51-.04 0 .01 0 .02 0 .03 0 .34-.04.67-.1 1h-9.8c-.07-.33-.11-.66-.11-1Zm5 5c-1.64 0-3.09-.79-4.01-2h8c-.92 1.21-2.37 2-4.01 2Zm1 1.92c-.33.04-.67.07-1 .07 -.34 0-.68-.03-1-.08v3.07c0 .55.44 1 1 1 .55 0 1-.45 1-1V15.9Z"/><path d="M16.5 7c.82 0 1.5-.68 1.5-1.5 0-.83-.68-1.5-1.5-1.5 -.83 0-1.5.67-1.5 1.5 0 .82.67 1.5 1.5 1.5Zm0 2C18.43 9 20 7.43 20 5.5 20 3.56 18.43 2 16.5 2 14.56 2 13 3.56 13 5.5 13 7.43 14.56 9 16.5 9Z"/></g></g></svg>