<svg viewBox="0 0 24 24" xmlns="http://www.w3.org/2000/svg"><g><path fill="#12131A" fill-rule="evenodd" d="M16.108 10.95l3.05-.51c.48-.09.83-.5.83-.99V6.99c0-.56-.45-1-1-1h-2.18l-.07.06c-.61.6-1.42.93-2.27.93 -.86 0-1.67-.34-2.27-.94l-.07-.07h-2.18c-3.32 0-6 2.68-6 6 0 3.31 2.68 6 6 6 3.14 0 5.72-2.42 5.97-5.5l.12-1.56Zm-3.11-6.96l.64.64c.22.22.53.35.85.35 .32 0 .62-.13.85-.36l.64-.65h3c1.65 0 3 1.34 3 3v2.45c0 1.46-1.07 2.71-2.51 2.95l-1.53.25c-.35 4.1-3.78 7.32-7.98 7.32 -4.42 0-8-3.59-8-8 0-4.42 3.58-8 8-8h3Z"/><path fill="#12131A" d="M12 12c0 1.1-.9 2-2 2 -1.11 0-2-.9-2-2 0-1.11.89-2 2-2 1.1 0 2 .89 2 2Z"/></g></svg>