<svg viewBox="0 0 24 24" xmlns="http://www.w3.org/2000/svg"><g><g fill="#12131A" fill-rule="evenodd"><path d="M17 3c2.2 0 4 1.79 4 4v11c0 1.65-1.35 3-3 3 -1.66 0-3-1.35-3-3v-7.54c-1.2-.7-2-1.99-2-3.47 0-2.21 1.79-4 4-4Zm-1 5.73l.99.57v5.68h2v-8c0-1.11-.9-2-2-2 -1.11 0-2 .89-2 2 0 .73.39 1.38 1 1.73Zm2.99 8.26h-2v1c0 .55.44 1 1 1 .55 0 1-.45 1-1v-1Z"/><path d="M7 3C4.79 3 3 4.79 3 7v11c0 1.65 1.34 3 3 3 1.65 0 3-1.35 3-3v-7.54c1.19-.7 2-1.99 2-3.47 0-2.21-1.8-4-4-4Zm.99 5.73l-1 .57v5.68h-2v-8c0-1.11.89-2 2-2 1.1 0 2 .89 2 2 0 .73-.4 1.38-1.01 1.73Zm-3 8.26v1c0 .55.44 1 1 1 .55 0 1-.45 1-1v-1h-2Z"/></g></g></svg>