<svg viewBox="0 0 24 24" xmlns="http://www.w3.org/2000/svg"><g><path fill="#12131A" fill-rule="evenodd" d="M19 16.5c0-.83-.68-1.5-1.5-1.5H8c-2.77 0-5-2.24-5-5 0-2.77 2.23-5 5-5h3v2H8c-1.66 0-3 1.34-3 3 0 1.65 1.34 3 3 3h9.5c1.93 0 3.5 1.56 3.5 3.5 0 1.93-1.57 3.5-3.5 3.5H4c-.56 0-1-.45-1-1 0-.56.44-1 1-1h13.5c.82 0 1.5-.68 1.5-1.5Z"/><g fill="#12131A"><path d="M20 3h-4v2h4c.55 0 1-.45 1-1 0-.56-.45-1-1-1Z"/><path d="M20 7h-4v2h4c.55 0 1-.45 1-1 0-.56-.45-1-1-1Z"/><path fill="#12131A" fill-rule="evenodd" d="M16 4h-3c-1.11 0-2 .89-2 2 0 1.1.89 2 2 2h3V4Zm-3-2c-2.21 0-4 1.79-4 4 0 2.2 1.79 4 4 4h4c.55 0 1-.45 1-1V3c0-.56-.45-1-1-1h-4Z"/></g></g></svg>