<svg viewBox="0 0 24 24" xmlns="http://www.w3.org/2000/svg"><g><g fill="#12131A" fill-rule="evenodd"><path d="M11.16 3h1.67c.52-.01.98-.01 1.35.03 .39.03.78.1 1.16.29 .56.28 1.02.74 1.311 1.31 .19.37.26.77.29 1.16 .03.37.03.82.03 1.35v4.83h-10V7.13c-.01-.53-.01-.99.03-1.36 .03-.4.1-.79.29-1.17 .28-.57.74-1.03 1.31-1.32 .37-.2.77-.27 1.16-.3 .37-.04.82-.04 1.35-.04Zm-1.2 2.02c-.28.02-.38.05-.43.08 -.19.09-.35.24-.44.43 -.03.04-.07.15-.09.42 -.03.28-.03.65-.03 1.23v2.8h6v-2.8c0-.58-.01-.95-.03-1.24 -.03-.28-.06-.38-.09-.43 -.1-.19-.25-.35-.44-.44 -.05-.03-.16-.07-.43-.09 -.29-.03-.66-.03-1.24-.03h-1.6c-.58 0-.95 0-1.24.02Z"/><path d="M7.16 10h9.67c.52-.01.98-.01 1.35.03 .39.03.78.1 1.16.29 .56.28 1.02.74 1.31 1.31 .19.37.26.77.29 1.16 .03.37.03.82.03 1.35v.67c0 .52 0 .98-.04 1.35 -.04.39-.11.78-.3 1.16 -.29.56-.75 1.02-1.32 1.31 -.38.19-.78.26-1.17.29 -.38.03-.83.03-1.36.03h-1.84v-2h1.8c.57 0 .94-.01 1.23-.03 .27-.03.37-.06.42-.09 .18-.1.34-.25.43-.44 .02-.05.06-.16.08-.43 .02-.29.02-.66.02-1.24v-.6c0-.58-.01-.95-.03-1.24 -.03-.28-.06-.38-.09-.43 -.1-.19-.25-.35-.44-.44 -.05-.03-.16-.07-.43-.09 -.29-.03-.66-.03-1.24-.03h-9.6c-.58 0-.95 0-1.24.02 -.28.02-.38.05-.43.08 -.19.09-.35.24-.44.43 -.03.04-.07.15-.09.42 -.03.28-.03.65-.03 1.23v.6c0 .57 0 .94.02 1.23 .02.27.05.37.08.42 .09.18.24.34.43.43 .04.02.15.06.42.08 .28.02.65.02 1.23.02h1.8v2H7c-.53 0-.99 0-1.36-.04 -.4-.04-.79-.11-1.17-.3 -.57-.29-1.03-.75-1.32-1.32 -.2-.38-.27-.78-.3-1.17 -.04-.38-.04-.83-.04-1.36v-.68c-.01-.53-.01-.99.03-1.36 .03-.4.1-.79.29-1.17 .28-.57.74-1.03 1.31-1.32 .37-.2.77-.27 1.16-.3 .37-.04.82-.04 1.35-.04Z"/><path d="M7 14h10v2.83c0 .52 0 .98-.04 1.35 -.04.39-.11.78-.3 1.16 -.29.56-.75 1.02-1.311 1.31 -.38.19-.78.26-1.17.29 -.38.03-.83.03-1.36.03h-1.68c-.53 0-.99 0-1.36-.04 -.4-.04-.79-.11-1.17-.3 -.57-.29-1.03-.75-1.32-1.32 -.2-.38-.27-.78-.3-1.17 -.04-.38-.04-.83-.04-1.36 0-.02 0-.03 0-.04v-2.8Zm2 2v.8c0 .57 0 .94.02 1.23 .02.27.05.37.08.42 .09.18.24.34.43.43 .04.02.15.06.42.08 .28.02.65.02 1.23.02h1.6c.57 0 .94-.01 1.23-.03 .27-.03.37-.06.42-.09 .18-.1.34-.25.43-.44 .02-.05.06-.16.08-.43 .02-.29.02-.66.02-1.24v-.8h-6Z"/></g></g></svg>