<svg viewBox="0 0 24 24" xmlns="http://www.w3.org/2000/svg"><g><g fill="#12131A" fill-rule="evenodd"><path d="M18 21c0 .55-.45 1-1 1 -.56 0-1-.45-1-1v-2c0-.56.44-1 1-1 .55 0 1 .44 1 1v2ZM8 18c0 .55-.45 1-1 1 -.56 0-1-.45-1-1v-6c0-.56.44-1 1-1 .55 0 1 .44 1 1v6ZM7 8c.55 0 1-.45 1-1V3c0-.56-.45-1-1-1 -.56 0-1 .44-1 1v4c0 .55.44 1 1 1Zm11 4c0 .55-.45 1-1 1 -.56 0-1-.45-1-1V6c0-.56.44-1 1-1 .55 0 1 .44 1 1v6Z"/><path d="M18 17v-3c0-.56-.45-1-1-1 -.56 0-1 .44-1 1v3c0 .55.44 1 1 1 .55 0 1-.45 1-1Zm-4 0c0 1.65 1.34 3 3 3 1.65 0 3-1.35 3-3v-3c0-1.66-1.35-3-3-3 -1.66 0-3 1.34-3 3v3Zm-6-7V9c0-.56-.45-1-1-1 -.56 0-1 .44-1 1v1c0 .55.44 1 1 1 .55 0 1-.45 1-1Zm-4 0c0 1.65 1.34 3 3 3 1.65 0 3-1.35 3-3V9c0-1.66-1.35-3-3-3C5.34 6 4 7.34 4 9v1Z"/></g></g></svg>