<svg viewBox="0 0 24 24" xmlns="http://www.w3.org/2000/svg"><g><g fill="#12131A" fill-rule="evenodd"><path d="M4 3c.55 0 1 .44 1 1v13c0 1.1.89 2 2 2h13c.55 0 1 .44 1 1 0 .55-.45 1-1 1H7c-2.21 0-4-1.8-4-4V4c0-.56.44-1 1-1Z"/><path d="M8 3c.55 0 1 .44 1 1 0 2.94.37 5.79 1.23 7.86 .85 2.06 2.08 3.13 3.76 3.13 1.67 0 2.9-1.08 3.76-3.14 .86-2.08 1.23-4.93 1.23-7.87 0-.56.44-1 1-1 .55 0 1 .44 1 1 0 3.05-.38 6.2-1.39 8.63 -1.02 2.43-2.79 4.36-5.62 4.36s-4.6-1.93-5.62-4.37c-1.02-2.43-1.39-5.58-1.39-8.64 0-.56.44-1 1-1Z"/></g></g></svg>