<svg viewBox="0 0 24 24" xmlns="http://www.w3.org/2000/svg"><g><g fill="#12131A" fill-rule="evenodd"><path d="M3 20c0-.56.44-1 1-1h16c.55 0 1 .44 1 1 0 .55-.45 1-1 1H4c-.56 0-1-.45-1-1Z"/><path d="M18 3c-.56 0-1 .44-1 1v12c0 .55.44 1 1 1 .55 0 1-.45 1-1V4c0-.56-.45-1-1-1Zm-8 2c-.56 0-1 .44-1 1v10c0 .55.44 1 1 1 .55 0 1-.45 1-1V6c0-.56-.45-1-1-1Zm-4 6c-.56 0-1 .44-1 1v4c0 .55.44 1 1 1 .55 0 1-.45 1-1v-4c0-.56-.45-1-1-1Zm7-3c0-.56.44-1 1-1 .55 0 1 .44 1 1v8c0 .55-.45 1-1 1 -.56 0-1-.45-1-1V8Z"/></g></g></svg>