<svg viewBox="0 0 24 24" xmlns="http://www.w3.org/2000/svg"><g><path fill="#12131A" fill-rule="evenodd" d="M12 22c5.52 0 10-4.48 10-10 0-5.53-4.48-10-10-10C6.47 2 2 6.47 2 12c0 5.52 4.47 10 10 10Zm0-2c1.84 0 3.55-.63 4.9-1.69l-2.88-2.88c-.6.35-1.3.55-2.04.55 -.75 0-1.44-.21-2.04-.56l-2.88 2.87c1.35 1.05 3.05 1.68 4.9 1.68Zm-3.45-5.968c-.36-.6-.56-1.3-.56-2.032 0-1.87 1.27-3.43 3-3.88V4.05c-3.95.49-7 3.85-7 7.93 0 1.84.62 3.551 1.68 4.9L8.54 14Zm4.44-5.91v-4.07c3.94.49 7 3.85 7 7.93 0 1.84-.63 3.551-1.69 4.9L15.42 14c.35-.6.55-1.3.55-2.032 0-1.87-1.28-3.43-3-3.88Zm1 3.87c0 1.1-.9 2-2 2 -1.11 0-2-.9-2-2 0-1.11.89-2 2-2 1.1 0 2 .89 2 2Z"/></g></svg>