<svg viewBox="0 0 24 24" xmlns="http://www.w3.org/2000/svg"><g><g fill="#12131A" fill-rule="evenodd"><path d="M4 3c.55 0 1 .44 1 1v13c0 1.1.89 2 2 2h13c.55 0 1 .44 1 1 0 .55-.45 1-1 1H7c-2.21 0-4-1.8-4-4V4c0-.56.44-1 1-1Z"/><path d="M20.31 16.94c.52-.18.8-.75.63-1.27l-1.98-5.93c-.71-2.12-3.4-2.75-4.97-1.18l-1.43 1.42c-.53.52-1.43.31-1.66-.4L8.92 3.65c-.18-.53-.75-.81-1.27-.64 -.53.17-.81.74-.64 1.26l1.97 5.93c.7 2.11 3.39 2.74 4.96 1.17l1.42-1.43c.52-.53 1.42-.32 1.65.39l1.97 5.93c.17.52.74.8 1.26.63Z"/></g></g></svg>