<svg viewBox="0 0 24 24" xmlns="http://www.w3.org/2000/svg"><g><g fill="#12131A" fill-rule="evenodd"><path d="M2.6 17.078c-.41-.98-.61-2.02-.61-3.07 0-1.06.2-2.1.6-3.07 .4-.98.99-1.86 1.73-2.6 .74-.75 1.62-1.34 2.59-1.74C7.7 6.26 8.54 6.06 9.4 6c.9-.07 1.57.67 1.57 1.47v12.99c0 .8-.67 1.54-1.58 1.47 -.86-.07-1.7-.26-2.5-.59 -.98-.41-1.86-1-2.6-1.74 -.75-.75-1.34-1.63-1.74-2.6Zm1.39-3.07c0 .78.15 1.56.45 2.29 .3.72.74 1.38 1.3 1.94 .55.55 1.21.99 1.94 1.3 .41.17.85.29 1.29.37V8.06c-.45.07-.88.19-1.3.37 -.73.3-1.39.74-1.95 1.3 -.56.55-1 1.21-1.31 1.94 -.31.72-.46 1.5-.46 2.29Z"/><path d="M21.39 6.92c.4.97.6 2.01.6 3.06 0 1.05-.21 2.09-.61 3.06 -.41.97-1 1.85-1.74 2.59 -.75.74-1.63 1.33-2.6 1.73 -.8.32-1.64.52-2.5.58 -.91.06-1.58-.68-1.58-1.48V3.45c0-.81.66-1.55 1.57-1.48 .85.06 1.69.25 2.49.58 .97.4 1.85.99 2.59 1.73 .74.74 1.33 1.62 1.73 2.59Zm-1.4 3.06c0-.79-.16-1.57-.46-2.3 -.31-.73-.75-1.39-1.31-1.95s-1.22-1-1.95-1.31c-.42-.18-.86-.3-1.3-.38v11.83c.44-.08.87-.2 1.29-.38 .72-.31 1.38-.75 1.94-1.31 .55-.56.99-1.22 1.3-1.95 .3-.73.45-1.51.45-2.3Z"/></g></g></svg>