<svg viewBox="0 0 24 24" xmlns="http://www.w3.org/2000/svg"><g><g fill="#12131A" fill-rule="evenodd"><path d="M18 9c1.65 0 3-1.35 3-3 0-1.66-1.35-3-3-3 -1.66 0-3 1.34-3 3 0 1.65 1.34 3 3 3Zm3 10c0 1.1-.9 2-2 2 -1.11 0-2-.9-2-2 0-1.11.89-2 2-2 1.1 0 2 .89 2 2Z"/><path d="M9.5 20c3.58 0 6.5-2.92 6.5-6.5C16 9.91 13.08 7 9.5 7 5.91 7 3 9.91 3 13.5 3 17.08 5.91 20 9.5 20ZM8 13c0-.18.09-.44.33-.67 .23-.24.49-.34.66-.34 .55 0 1-.45 1-1 0-.56-.45-1-1-1 -.83 0-1.57.4-2.09.91 -.52.51-.92 1.25-.92 2.08 0 .55.44 1 1 1 .55 0 1-.45 1-1Z"/></g></g></svg>