<svg viewBox="0 0 24 24" xmlns="http://www.w3.org/2000/svg"><g><g fill="#12131A"><path d="M7.38 20.7l-.1-.05c-.32-.15-.39-.57-.14-.81l12.7-12.71c.24-.25.65-.18.8.13l.04.09c.19.4.29.85.29 1.3v.07c0 .79-.32 1.55-.88 2.12l-9.25 9.24c-.57.56-1.33.87-2.13.87h-.08c-.46 0-.9-.11-1.31-.3Z"/><path fill="#12131A" fill-rule="evenodd" d="M15.29 3.29c.39-.4 1.02-.4 1.41 0l1.5 1.5c.39.39.39 1.02 0 1.41 -.4.39-1.03.39-1.42 0l-1.5-1.5c-.4-.4-.4-1.03 0-1.42Zm-12.01 12c.39-.4 1.02-.4 1.41 0l1.5 1.5c.39.39.39 1.02 0 1.41 -.4.39-1.03.39-1.42 0l-1.5-1.5c-.4-.4-.4-1.03 0-1.42Zm7.91-5.51c-.4-.4-1.03-.4-1.42 0 -.4.39-.4 1.02 0 1.41l1 1c.39.39 1.02.39 1.41 0 .39-.4.39-1.03 0-1.42l-1-1.01Zm1.58-3c.39-.4 1.02-.4 1.41 0l1 1c.39.39.39 1.02 0 1.41 -.4.39-1.03.39-1.42 0l-1-1c-.4-.4-.4-1.03 0-1.42Zm-4.59 6c-.4-.4-1.03-.4-1.42 0 -.4.39-.4 1.02 0 1.41l1 1c.39.39 1.02.39 1.41 0 .39-.4.39-1.03 0-1.42l-1-1Z"/></g></g></svg>