<svg viewBox="0 0 24 24" xmlns="http://www.w3.org/2000/svg"><g><g fill="#12131A" fill-rule="evenodd"><path d="M18.76 21c.27 0 .53-.11.71-.32 .95-1.14 1.52-2.59 1.52-4.183 0-3.59-2.92-6.5-6.5-6.5 -3.59 0-6.5 2.91-6.5 6.5 0 1.59.57 3.05 1.52 4.183 .17.2.43.31.71.31h8.52Z"/><path d="M6 9C4.45 9 3 7.65 3 6c0-1.66 1.45-3 3-3 1.83 0 3.3 1.12 4.15 2h1.89c.23-1.15 1.24-2 2.45-2 1.2 0 2.21.85 2.45 2h3.05c.55 0 1 .44 1 1 0 .55-.45 1-1 1h-3c0 .55-.45 1-1 1h-3c-.56 0-1-.45-1-1h-1.85c-.86.87-2.33 2-4.16 2Z"/></g></g></svg>