<svg viewBox="0 0 24 24" xmlns="http://www.w3.org/2000/svg"><g><g fill="#12131A"><path opacity=".25" d="M11 4.99c0-.56-.45-1.01-1-.95 -1.43.15-2.81.65-4.01 1.46 -1.49.98-2.64 2.39-3.32 4.03 -.69 1.64-.86 3.45-.52 5.19 .34 1.74 1.2 3.34 2.46 4.6 1.25 1.25 2.86 2.11 4.6 2.46 1.74.34 3.55.16 5.2-.52 1.64-.69 3.05-1.84 4.03-3.32 .8-1.21 1.3-2.58 1.46-4.01 .06-.55-.4-1-.95-1h-7c-.56 0-1-.45-1-1V4.92Z"/><path d="M21 11c.55 0 1-.45.94-1 -.1-.84-.31-1.67-.63-2.45 -.46-1.1-1.12-2.09-1.96-2.92 -.84-.84-1.83-1.5-2.92-1.96 -.79-.33-1.61-.54-2.45-.63 -.55-.07-1 .39-1 .94v7c0 .55.44 1 1 1h7Z"/></g></g></svg>