<svg viewBox="0 0 24 24" xmlns="http://www.w3.org/2000/svg"><g><g fill="#12131A"><path opacity=".25" d="M13 18.95c0 .55.44 1 .99.94 .83-.1 1.66-.31 2.44-.63 1.09-.46 2.08-1.12 2.91-1.96 .83-.84 1.49-1.83 1.95-2.92 .45-1.1.68-2.27.68-3.45 0-1.19-.24-2.36-.69-3.45 -.46-1.1-1.12-2.09-1.96-2.92 -.84-.84-1.83-1.5-2.92-1.96 -.79-.33-1.61-.54-2.45-.63 -.55-.07-1 .39-1 .94v16Z"/><path d="M11 5.04c0-.56-.45-1.01-1-.95 -.84.09-1.67.3-2.45.62 -1.1.45-2.09 1.11-2.92 1.95 -.84.83-1.5 1.82-1.96 2.91 -.46 1.09-.69 2.26-.69 3.44 0 1.18.23 2.35.68 3.44 .45 1.09 1.11 2.08 1.95 2.91 .83.83 1.82 1.49 2.91 1.95 .78.32 1.6.53 2.44.62 .54.06.99-.4.99-.95v-16Z"/></g></g></svg>