<svg viewBox="0 0 24 24" xmlns="http://www.w3.org/2000/svg"><g><g fill="#12131A"><path opacity=".25" d="M20.23 8.61l-.24-.12c0-1.4 0-2.1-.23-2.65 -.31-.74-.89-1.32-1.63-1.63 -.56-.23-1.26-.23-2.65-.23h-8.7c-1.69 0-2.53 0-3.17.32 -.57.28-1.03.74-1.32 1.31 -.33.64-.33 1.48-.33 3.16v6.4c0 1.68 0 2.52.32 3.16 .28.56.74 1.02 1.31 1.31 .64.32 1.48.32 3.16.32h8.7c1.39 0 2.09 0 2.64-.23 .73-.31 1.31-.89 1.62-1.63 .22-.56.22-1.26.22-2.65l.23-.12c.64-.33.96-.49 1.19-.73 .2-.22.36-.47.46-.75 .1-.32.1-.68.1-1.4V11.4c0-.72 0-1.08-.11-1.4 -.1-.29-.26-.54-.47-.75 -.24-.24-.56-.41-1.2-.73Z"/><path d="M7 8c-.56 0-1 .44-1 1v6c0 .55.44 1 1 1 .55 0 1-.45 1-1V9c0-.56-.45-1-1-1Z"/><path d="M11 8c-.56 0-1 .44-1 1v6c0 .55.44 1 1 1 .55 0 1-.45 1-1V9c0-.56-.45-1-1-1Z"/></g></g></svg>