<svg viewBox="0 0 24 24" xmlns="http://www.w3.org/2000/svg"><g><g fill="#12131A"><path opacity=".25" d="M15 4c0-.56.44-1 1-1 .55 0 1 .44 1 1v8h.8c1.12 0 1.68 0 2.1.21 .37.19.68.49.87.87 .21.42.21.98.21 2.1v1.6c0 1.12 0 1.68-.22 2.1 -.2.37-.5.68-.88.87 -.41.2-.92.21-1.91.21 0 .55-.45 1-1 1 -.56 0-1-.45-1-1h-8c0 .55-.45 1-1 1 -.56 0-1-.45-1-1 -.99-.01-1.51-.02-1.91-.22 -.38-.2-.69-.5-.88-.88 -.22-.43-.22-.99-.22-2.11v-1.6c0-1.13 0-1.69.21-2.11 .19-.38.49-.69.87-.88 .42-.22.98-.22 2.1-.22h.8v-5c0-.56.44-1 1-1 .55 0 1 .44 1 1v5h6v-8Z"/><path d="M7 15c-.56 0-1 .44-1 1 0 .55.44 1 1 1 .55 0 1-.45 1-1 0-.56-.45-1-1-1Z"/><path d="M11 15c-.56 0-1 .44-1 1 0 .55.44 1 1 1h6c.55 0 1-.45 1-1 0-.56-.45-1-1-1h-6Z"/></g></g></svg>