<svg viewBox="0 0 24 24" xmlns="http://www.w3.org/2000/svg"><g><g fill="#12131A"><path d="M7 6.2c0-1.13 0-1.69.21-2.11 .19-.38.49-.69.87-.88 .42-.22.98-.22 2.1-.22h3.6c1.12 0 1.68 0 2.1.21 .37.19.68.49.87.87 .21.42.21.98.21 2.1v3.8h-10v-3.8Z"/><path opacity=".25" d="M3 13.2c0-1.13 0-1.69.21-2.11 .19-.38.49-.69.87-.88 .42-.22.98-.22 2.1-.22h11.6c1.12 0 1.68 0 2.1.21 .37.19.68.49.87.87 .21.42.21.98.21 2.1v2.6c0 1.12 0 1.68-.22 2.1 -.2.37-.5.68-.88.87 -.43.21-.99.21-2.11.21H6.15c-1.13 0-1.69 0-2.11-.22 -.38-.2-.69-.5-.88-.88 -.22-.43-.22-.99-.22-2.11v-2.6Z"/><path d="M7 16.6c0-.57 0-.85.1-1.06 .09-.19.24-.35.43-.44 .21-.11.49-.11 1.05-.11h6.8c.56 0 .84 0 1.05.1 .18.09.34.24.43.43 .1.21.1.49.1 1.05v1.2c0 1.12 0 1.68-.22 2.1 -.2.37-.5.68-.88.87 -.43.21-.99.21-2.11.21h-3.6c-1.13 0-1.69 0-2.11-.22 -.38-.2-.69-.5-.88-.88 -.22-.43-.22-.99-.22-2.11v-1.2Z"/></g></g></svg>