<svg viewBox="0 0 24 24" xmlns="http://www.w3.org/2000/svg"><g><g opacity=".25"><g fill="#12131A"><path d="M12 10c-2.23 0-4.24.9-5.69 2.37 -.39.39-1.03.39-1.42 0 -.4-.39-.4-1.03-.01-1.42 1.81-1.83 4.32-2.97 7.1-2.97 2.77 0 5.29 1.13 7.1 2.96 .38.39.38 1.02-.01 1.41 -.4.38-1.03.38-1.42-.01 -1.46-1.47-3.47-2.38-5.69-2.38Z"/><path d="M12 14c-1.21 0-2.3.53-3.03 1.38 -.37.41-1 .46-1.42.1 -.42-.37-.47-1-.11-1.42 1.09-1.28 2.72-2.08 4.54-2.08 1.81 0 3.44.8 4.54 2.07 .36.41.31 1.04-.11 1.41 -.42.36-1.05.31-1.42-.11 -.74-.86-1.82-1.39-3.03-1.39Z"/><path d="M12 20c1.1 0 2-.9 2-2 0-1.11-.9-2-2-2 -1.11 0-2 .89-2 2 0 1.1.89 2 2 2Z"/></g></g><path fill="#12131A" fill-rule="evenodd" d="M12 6C8.77 6 5.84 7.27 3.69 9.34c-.4.38-1.04.36-1.42-.03 -.39-.4-.37-1.04.02-1.42 2.51-2.42 5.93-3.9 9.69-3.9s7.17 1.48 9.69 3.89c.39.38.41 1.01.02 1.41 -.39.39-1.02.41-1.42.02 -2.16-2.08-5.09-3.35-8.31-3.35Z"/></g></svg>