<svg viewBox="0 0 24 24" xmlns="http://www.w3.org/2000/svg"><g><g fill="#12131A" fill-rule="evenodd"><path d="M20.67 4.26c.4.37.43 1 .06 1.41l-1.75 1.9 1.71 1.71c.39.39.39 1.02 0 1.41 -.4.39-1.03.39-1.42 0l-1.66-1.66 -7.91 8.62 -1.48-1.36L19.21 4.28c.37-.41 1-.44 1.41-.07ZM3.28 13.29c.39-.4 1.02-.4 1.41 0l3 3L6.27 17.7l-3-3c-.4-.4-.4-1.03 0-1.42Z"/><path d="M8 19c.55 0 1-.45 1-1 0-.56-.45-1-1-1 -.56 0-1 .44-1 1 0 .55.44 1 1 1Zm0 2c1.65 0 3-1.35 3-3 0-1.66-1.35-3-3-3 -1.66 0-3 1.34-3 3 0 1.65 1.34 3 3 3Z"/><path d="M9.7 5.29c-.4-.4-1.03-.4-1.42 0l-2.01 2c-.4.39-.4 1.02-.01 1.41l1 1c.39.39 1.02.39 1.41 0l2-2.01c.39-.4.39-1.03 0-1.42L9.66 5.26ZM6.87 3.87c1.17-1.18 3.07-1.18 4.24 0l1 1c1.17 1.17 1.17 3.07 0 4.24l-2.01 2c-1.18 1.17-3.08 1.17-4.25 0L4.84 10.1c-1.18-1.18-1.18-3.08 0-4.25l2-2.01Z"/></g></g></svg>