<svg viewBox="0 0 24 24" xmlns="http://www.w3.org/2000/svg"><g><g fill="#12131A" fill-rule="evenodd"><path d="M3.02 11.45C2.75 9.07 4.6 6.99 6.99 6.99h10c2.38 0 4.24 2.07 3.97 4.45l-.68 5.99c-.23 2.02-1.94 3.54-3.98 3.54H7.65c-2.04 0-3.75-1.53-3.98-3.55l-.68-6Zm3.97-2.46c-1.2 0-2.13 1.03-1.99 2.22l.68 6c.11 1.01.96 1.77 1.98 1.77h8.64c1.01 0 1.87-.77 1.98-1.78l.68-6c.13-1.19-.8-2.23-1.99-2.23H6.96Z"/><path d="M8 7c0-2.21 1.79-4 4-4 2.2 0 4 1.79 4 4v3c0 .55-.45 1-1 1 -.56 0-1-.45-1-1V7c0-1.11-.9-2-2-2 -1.11 0-2 .89-2 2v3c0 .55-.45 1-1 1 -.56 0-1-.45-1-1V7Z"/></g></g></svg>