<svg viewBox="0 0 24 24" xmlns="http://www.w3.org/2000/svg"><g><g fill="#12131A" fill-rule="evenodd"><path d="M6 17v-7H4v7c0 2.2 1.79 4 4 4h8c2.2 0 4-1.8 4-4v-7h-2v7c0 1.1-.9 2-2 2h-1v-2c0-1.66-1.35-3-3-3 -1.66 0-3 1.34-3 3v2H8c-1.11 0-2-.9-2-2Zm5 2h2v-2c0-.56-.45-1-1-1 -.56 0-1 .44-1 1v2Z"/><path d="M15.01 8.9c.53.01 1.04.24 1.4.63 .12.13.26.24.42.32 .15.07.36.13.65.13 .38 0 .73-.19 1.02-.56 .29-.38.47-.91.47-1.45 0-1.86-1.46-3-3-3 -.42 0-1.69-.01-3.11-.01h-.01c-2.01-.01-4.31-.01-4.89-.01 -1.55 0-3.01 1.14-3.01 3 0 .54.18 1.07.47 1.44 .28.36.63.55 1.02.55 .28 0 .49-.07.65-.14 .16-.08.3-.19.42-.33 .36-.4.87-.63 1.4-.64 .53-.02 1.05.18 1.44.55 .26.25.73.54 1.57.54 .84 0 1.3-.29 1.57-.55 .38-.37.9-.57 1.44-.56Zm0 2.06c.53.54 1.34 1.02 2.47 1.02 1.11 0 2.01-.57 2.6-1.33 .58-.75.89-1.72.89-2.68 0-3.14-2.54-5.01-5.01-5 -.42 0-1.69-.01-3.11-.01 -2.01-.01-4.31-.01-4.9-.01 -2.47 0-5 1.86-5 5 0 .95.31 1.92.89 2.67 .58.75 1.48 1.32 2.6 1.32 1.13 0 1.94-.48 2.48-1.03 .02-.03.04-.05.06-.07 .02.02.04.04.07.06 .62.56 1.56 1.02 2.88 1.02 1.32 0 2.25-.47 2.88-1.029 .02-.03.04-.05.07-.07 .02.02.04.04.06.06Z"/></g></g></svg>