<svg viewBox="0 0 24 24" xmlns="http://www.w3.org/2000/svg"><g><g opacity=".25"><g fill="#12131A"><path d="M20 5c0-.56-.45-1-1-1 -.56 0-1 .44-1 1v14c0 .55.44 1 1 1 .55 0 1-.45 1-1V5Z"/><path d="M12 4c.55 0 1 .44 1 1v14c0 .55-.45 1-1 1 -.56 0-1-.45-1-1V5c0-.56.44-1 1-1Z"/><path d="M5 4c.55 0 1 .44 1 1v14c0 .55-.45 1-1 1 -.56 0-1-.45-1-1V5c0-.56.44-1 1-1Z"/></g></g><g fill="#12131A"><path d="M16 9c0 1.65 1.34 3 3 3 1.65 0 3-1.35 3-3 0-1.66-1.35-3-3-3 -1.66 0-3 1.34-3 3Z"/><path d="M12 18c-1.66 0-3-1.35-3-3 0-1.66 1.34-3 3-3 1.65 0 3 1.34 3 3 0 1.65-1.35 3-3 3Z"/><path d="M5 14c-1.66 0-3-1.35-3-3 0-1.66 1.34-3 3-3 1.65 0 3 1.34 3 3 0 1.65-1.35 3-3 3Z"/></g></g></svg>