<svg viewBox="0 0 24 24" xmlns="http://www.w3.org/2000/svg"><g><g opacity=".25"><g fill="#12131A"><path d="M3.21 4.09c-.22.42-.22.98-.22 2.1v11.6c0 1.12 0 1.68.21 2.1 .19.37.49.68.87.87 .42.21.98.21 2.1.21h.6c1.12 0 1.68 0 2.1-.22 .37-.2.68-.5.87-.88 .21-.43.21-.99.21-2.11V6.16c0-1.13 0-1.69-.22-2.11 -.2-.38-.5-.69-.88-.88 -.43-.22-.99-.22-2.11-.22h-.6c-1.13 0-1.69 0-2.11.21 -.38.19-.69.49-.88.87Z"/><path d="M14.21 4.09c-.22.42-.22.98-.22 2.1v11.6c0 1.12 0 1.68.21 2.1 .19.37.49.68.87.87 .42.21.98.21 2.1.21h.6c1.12 0 1.68 0 2.1-.22 .37-.2.68-.5.87-.88 .21-.43.21-.99.21-2.11V6.16c0-1.13 0-1.69-.22-2.11 -.2-.38-.5-.69-.88-.88 -.43-.22-.99-.22-2.11-.22h-.6c-1.13 0-1.69 0-2.11.21 -.38.19-.69.49-.88.87Z"/></g></g></g></svg>