<svg viewBox="0 0 24 24" xmlns="http://www.w3.org/2000/svg"><g><g fill="#12131A"><path opacity=".25" d="M15.2 4H6.8c-1.69 0-2.53 0-3.17.32 -.57.28-1.03.74-1.32 1.31 -.33.64-.33 1.48-.33 3.16v4.4c0 1.68 0 2.52.32 3.16 .28.56.74 1.02 1.31 1.31 .64.32 1.48.32 3.16.32h8.4c1.68 0 2.52 0 3.16-.33 .56-.29 1.02-.75 1.31-1.32 .32-.65.32-1.49.32-3.17v-4.4c0-1.69 0-2.53-.33-3.17 -.29-.57-.75-1.03-1.32-1.32 -.65-.33-1.49-.33-3.17-.33Z"/><path d="M14 15.6c0-.57 0-.85.1-1.06 .09-.19.24-.35.43-.44 .21-.11.49-.11 1.05-.11h4.8c.56 0 .84 0 1.05.1 .18.09.34.24.43.43 .1.21.1.49.1 1.05v2.8c0 .56 0 .84-.11 1.05 -.1.18-.25.34-.44.43 -.22.1-.5.1-1.06.1h-4.8c-.57 0-.85 0-1.06-.11 -.19-.1-.35-.25-.44-.44 -.11-.22-.11-.5-.11-1.06v-2.8Z"/></g></g></svg>