<svg viewBox="0 0 24 24" xmlns="http://www.w3.org/2000/svg"><g><g fill="#12131A"><path opacity=".25" d="M22 12c0 5.52-4.48 10-10 10C6.47 22 2 17.52 2 12 2 6.47 6.47 2 12 2c5.52 0 10 4.47 10 10Z"/><path d="M8 11.2c0-1.13 0-1.69.21-2.11 .19-.38.49-.69.87-.88 .42-.22.98-.22 2.1-.22h1.6c1.12 0 1.68 0 2.1.21 .37.19.68.49.87.87 .21.42.21.98.21 2.1v1.6c0 1.12 0 1.68-.22 2.1 -.2.37-.5.68-.88.87 -.43.21-.99.21-2.11.21h-1.6c-1.13 0-1.69 0-2.11-.22 -.38-.2-.69-.5-.88-.88 -.22-.43-.22-.99-.22-2.11v-1.6Z"/></g></g></svg>