<svg viewBox="0 0 24 24" xmlns="http://www.w3.org/2000/svg"><g><g fill="#12131A"><path opacity=".25" d="M4 10.8c0-1.69 0-2.53.32-3.17 .28-.57.74-1.03 1.31-1.32 .64-.33 1.48-.33 3.16-.33h6.4c1.68 0 2.52 0 3.16.32 .56.28 1.02.74 1.31 1.31 .32.64.32 1.48.32 3.16v6.4c0 1.68 0 2.52-.33 3.16 -.29.56-.75 1.02-1.32 1.31 -.65.32-1.49.32-3.17.32h-6.4c-1.69 0-2.53 0-3.17-.33 -.57-.29-1.03-.75-1.32-1.32 -.33-.65-.33-1.49-.33-3.17v-6.4Z"/><path d="M10 12c0-.8.88-1.28 1.55-.84l2.99 1.98c.6.39.6 1.28 0 1.68l-3 1.98c-.67.44-1.56-.04-1.56-.84v-4Z"/><path d="M6 3c0 .55.44 1 1 1h10c.55 0 1-.45 1-1 0-.56-.45-1-1-1H7c-.56 0-1 .44-1 1Z"/></g></g></svg>