<svg viewBox="0 0 24 24" xmlns="http://www.w3.org/2000/svg"><g><g fill="#12131A"><path d="M3 9c-.56 0-1 .44-1 1 0 .55.44 1 1 1h.21l1.05 4.21c.2.8.59 1.52 1.11 2.112l-.36 1.43c-.14.53.19 1.07.72 1.21 .53.13 1.07-.2 1.21-.73l.16-.66c.61.26 1.28.41 1.98.41h5.75c.7 0 1.37-.15 1.98-.42l.16.65c.13.53.67.86 1.21.72 .53-.14.86-.68.72-1.22l-.36-1.44c.52-.59.91-1.31 1.11-2.112l1.05-4.22h.21c.55 0 1-.45 1-1 0-.56-.45-1-1-1h-18Z"/><path fill="#12131A" fill-rule="evenodd" d="M7 6c.55 0 1-.45 1-1 0-.56-.45-1-1-1 -.56 0-1 .44-1 1 0 .55.44 1 1 1Zm12.95.5c.04.27-.19.49-.46.49h-8.84c-.32 0-.56-.3-.42-.58 .4-.85 1.26-1.43 2.25-1.43 .69 0 1.32.28 1.77.74 .47-1.03 1.51-1.75 2.72-1.75 1.48 0 2.72 1.08 2.95 2.5Z"/></g></g></svg>