<svg viewBox="0 0 24 24" xmlns="http://www.w3.org/2000/svg"><g><g fill="#12131A" fill-rule="evenodd"><path d="M19 6c0 .55-.45 1-1 1 -.56 0-1-.45-1-1 0-.56.44-1 1-1 .55 0 1 .44 1 1Zm2 0c0 1.65-1.35 3-3 3 -1.66 0-3-1.35-3-3 0-1.66 1.34-3 3-3 1.65 0 3 1.34 3 3Zm0 13c0 1.1-.9 2-2 2 -1.11 0-2-.9-2-2 0-1.11.89-2 2-2 1.1 0 2 .89 2 2Z"/><path d="M14 13.5c0 2.48-2.02 4.5-4.5 4.5C7.01 18 5 15.98 5 13.5 5 11.01 7.01 9 9.5 9c2.48 0 4.5 2.01 4.5 4.5Zm2 0c0 3.58-2.92 6.5-6.5 6.5C5.91 20 3 17.08 3 13.5 3 9.91 5.91 7 9.5 7c3.58 0 6.5 2.91 6.5 6.5ZM9 14c0-.56.44-1 1-1 .55 0 1-.45 1-1 0-.56-.45-1-1-1 -1.66 0-3 1.34-3 3 0 .55.44 1 1 1 .55 0 1-.45 1-1Z"/></g></g></svg>