<svg viewBox="0 0 24 24" xmlns="http://www.w3.org/2000/svg"><g><g fill="#12131A" fill-rule="evenodd"><path d="M5.99 12c-.47-.57-.74-1.2-.83-1.83 -.29-2.07 1.25-4.18 3.63-4.18h1.7c.82 0 1.48-.67 1.48-1.49V3.44c0-.32.3-.54.6-.45l2.52.79c3.44 1.09 4.87 5.17 2.87 8.17H5.95Zm10.76-2H7.17c-.21-.97.51-2.01 1.62-2.01h1.7c1.57 0 2.9-1.05 3.33-2.49l.66.21c1.84.58 2.77 2.53 2.23 4.27Z"/><path d="M3 13c0-1.66 1.34-3 3-3h12c1.65 0 3 1.34 3 3v2c0 3.31-2.69 6-6 6H9c-3.32 0-6-2.69-6-6v-2Zm3-1c-.56 0-1 .44-1 1v2c0 2.2 1.79 4 4 4h6c2.2 0 4-1.8 4-4v-2c0-.56-.45-1-1-1H6Z"/></g></g></svg>