<svg viewBox="0 0 24 24" xmlns="http://www.w3.org/2000/svg"><g><g fill="#12131A" fill-rule="evenodd"><path d="M8 10c-2.05 0-3.73 1.52-3.97 3.5 -.04.27.19.49.46.49h11c.27 0 .5-.23.46-.5 -.25-1.98-1.93-3.51-3.97-3.51h-4Zm8 6.5c0-.28-.23-.5-.5-.5h-11c-.28 0-.5.22-.5.5V20c0 1.1.89 2 2 2h8c1.1 0 2-.9 2-2v-3.5Z"/><path d="M9 2c-1.11 0-2 .89-2 2v3c0 .55.44 1 1 1h4c.55 0 1-.45 1-1V6h3.17c.26 0 .51.1.7.29l1.41 1.41c.39.39 1.02.39 1.41 0 .39-.4.39-1.03 0-1.42l-1.42-1.42c-.57-.57-1.33-.88-2.13-.88h-3.18c0-1.11-.9-2-2-2h-2Z"/></g></g></svg>