<svg viewBox="0 0 24 24" xmlns="http://www.w3.org/2000/svg"><g><g fill="#12131A" fill-rule="evenodd"><path d="M9 2C7.34 2 6 3.34 6 5v4 1h1 6 1V9 7h2.17c.26 0 .51.1.7.29l1.41 1.41c.39.39 1.02.39 1.41 0 .39-.4.39-1.03 0-1.42l-1.42-1.42c-.57-.57-1.33-.88-2.13-.88h-2.18c0-1.66-1.35-3-3-3h-2Zm3 4V5c0-.56-.45-1-1-1H9c-.56 0-1 .44-1 1v3h4V6Z"/><path d="M9 8c-2.77 0-5 2.23-5 5v2 4c0 1.65 1.34 3 3 3h6c1.65 0 3-1.35 3-3v-4 -2c0-2.77-2.24-5-5-5H9Zm5 5c0-1.66-1.35-3-3-3H9c-1.66 0-3 1.34-3 3h8Zm-8 2v4c0 .55.44 1 1 1h6c.55 0 1-.45 1-1v-4H6Z"/></g></g></svg>