<svg viewBox="0 0 24 24" xmlns="http://www.w3.org/2000/svg"><g><g fill="#12131A"><path d="M21 19c0 1.1-.9 2-2 2 -1.11 0-2-.9-2-2 0-1.13 1.13-2.35 1.69-2.88 .17-.17.43-.17.61 0 .56.53 1.69 1.74 1.69 2.87Z"/><path d="M10.91 11.49l1.58 1.58c.39.39.39 1.02-.01 1.41l-3.04 3.03c-.31.3-.66.58-1.03.81l-3.9 2.48c-.91.57-1.96-.48-1.39-1.39l2.48-3.9c.23-.37.5-.72.81-1.03l3.03-3.04c.39-.4 1.02-.4 1.41 0Z"/><path fill="#12131A" fill-rule="evenodd" d="M15.49 5.5l1.88-1.89c.82-.83 2.17-.83 3 0 .82.82.82 2.17-.01 3l-1.89 1.88c.69.78.67 1.98-.09 2.74L17.2 12.4c-.79.78-2.05.78-2.83 0l-2.84-2.84c-.79-.79-.79-2.05 0-2.83l1.17-1.18c.75-.76 1.95-.79 2.74-.09Z"/></g></g></svg>