<svg viewBox="0 0 24 24" xmlns="http://www.w3.org/2000/svg"><g><g fill="#12131A" fill-rule="evenodd"><path d="M10 7H9v1 3c-.47 0-.87 0-1.21.03 -.47.03-.91.1-1.33.27 -.99.4-1.76 1.18-2.17 2.16 -.18.41-.25.85-.28 1.32 -.04.45-.04 1-.04 1.67v.03 .03c-.01.66-.01 1.22.03 1.67 .03.46.1.9.27 1.32 .4.98 1.18 1.75 2.16 2.16 .41.17.85.24 1.32.27 .45.03 1 .03 1.67.03h0 .03 5 .03v0c.66 0 1.22 0 1.67-.04 .46-.04.9-.11 1.32-.28 .98-.41 1.75-1.19 2.16-2.17 .17-.42.24-.86.27-1.33 .03-.46.03-1.01.03-1.68v-.01 -.04 -.04 -.01c0-.67 0-1.23-.04-1.68 -.04-.47-.11-.91-.28-1.33 -.41-.99-1.19-1.76-2.17-2.17 -.42-.18-.86-.25-1.33-.28 -.35-.03-.75-.03-1.21-.04V7.85v-1h-1 -4Zm4.5 6H14h-4 -.5c-.72 0-1.2 0-1.58.02 -.37.02-.56.07-.7.12 -.5.2-.88.59-1.09 1.08 -.06.13-.11.32-.13.69 -.03.37-.03.86-.03 1.57 0 .71 0 1.19.02 1.57 .02.36.07.55.12.69 .2.49.59.87 1.08 1.08 .13.05.32.1.69.12 .37.02.86.02 1.57.02h5c.71 0 1.19-.01 1.57-.03 .36-.03.55-.08.69-.13 .49-.21.87-.6 1.08-1.09 .05-.14.1-.33.12-.7 .02-.38.02-.87.02-1.58 0-.72-.01-1.2-.03-1.58 -.03-.37-.08-.56-.13-.7 -.21-.49-.6-.88-1.09-1.09 -.14-.06-.33-.11-.7-.13 -.38-.03-.87-.03-1.58-.03ZM13 11V9h-2v2h2Z"/><path d="M6 5c0-1.66 1.34-3 3-3h6c1.65 0 3 1.34 3 3v1c0 1.65-1.35 3-3 3H9C7.34 9 6 7.65 6 6V5Zm3-1c-.56 0-1 .44-1 1v1c0 .55.44 1 1 1h6c.55 0 1-.45 1-1V5c0-.56-.45-1-1-1H9Z"/></g></g></svg>