<svg viewBox="0 0 24 24" xmlns="http://www.w3.org/2000/svg"><g><g fill="#12131A"><path opacity=".25" d="M19.7 6.29l-.71-.71L5.57 18.99l.7.7c1.72 1.72 4.52 1.72 6.25 0l7.16-7.16c1.72-1.73 1.72-4.53 0-6.26Z"/><path d="M16.7 3.29c-.4-.4-1.03-.4-1.42 0 -.4.39-.4 1.02 0 1.41l2.29 2.29 1.41-1.42 -2.3-2.3Z"/><path d="M7 17.58l-1.42 1.41 -2.3-2.3c-.4-.4-.4-1.03 0-1.42 .39-.4 1.02-.4 1.41 0l2.29 2.29Z"/><path d="M10 14.58l-1.42 1.41 -1.8-1.8c-.4-.4-.4-1.03 0-1.42 .39-.4 1.02-.4 1.41 0l1.79 1.79Z"/><path d="M13 11.58l-1.42 1.41 -1.8-1.8c-.4-.4-.4-1.03 0-1.42 .39-.4 1.02-.4 1.41 0l1.79 1.79Z"/><path d="M16 8.58l-1.42 1.41 -1.8-1.8c-.4-.4-.4-1.03 0-1.42 .39-.4 1.02-.4 1.41 0l1.79 1.79Z"/></g></g></svg>