<svg viewBox="0 0 24 24" xmlns="http://www.w3.org/2000/svg"><g><g fill="#12131A"><path d="M3.93 13.68l.77 4.67c.25 1.52 1.57 2.64 3.12 2.64 1.74 0 3.16-1.42 3.16-3.17v-3.31l-2 .3v3c0 .64-.53 1.16-1.17 1.16 -.57 0-1.06-.42-1.15-.98l-.54-3.2c-.83-.21-1.59-.61-2.22-1.15Z"/><path fill="#12131A" fill-rule="evenodd" d="M8.32 4.05c-3.33-.51-6.33 2.06-6.33 5.43 0 3.36 2.99 5.94 6.32 5.43l11.12-1.69c1.46-.23 2.55-1.49 2.55-2.97V8.68c0-1.49-1.09-2.75-2.55-2.97L8.3 4.01ZM3.99 9.48c0-2.15 1.9-3.79 4.02-3.46l7.97 1.21v4.49L8 12.92c-2.12.32-4.03-1.32-4.03-3.46Zm14 1.94l1.14-.18c.48-.08.85-.5.85-.99V8.68c0-.5-.37-.92-.85-.99l-1.16-.18v3.88Z"/></g></g></svg>