<svg viewBox="0 0 24 24" xmlns="http://www.w3.org/2000/svg"><g><g fill="#12131A"><path d="M5.19 16.16c-.11-.61.36-1.17.98-1.17h2.81c.55 0 1 .44 1 1v2.83c0 1.19-.97 2.16-2.17 2.16v0c-1.06 0-1.97-.77-2.14-1.81l-.51-3.03Z"/><g fill="#12131A" fill-rule="evenodd"><path d="M18.56 5.54c-.3-.04-.57.19-.57.49v4.91c0 .3.26.53.56.49l1.69-.23c.99-.14 1.73-.98 1.73-1.99v-1.5c0-1.01-.75-1.86-1.74-1.99l-1.7-.23Z"/><path d="M7.08 4.04c-2.7-.36-5.09 1.74-5.09 4.46 0 2.71 2.39 4.81 5.08 4.46l8.47-1.12c.24-.04.43-.25.43-.5V5.63c0-.26-.19-.47-.44-.5L7.05 4.01Z"/></g></g></g></svg>