<svg viewBox="0 0 24 24" xmlns="http://www.w3.org/2000/svg"><g><g fill="#12131A" fill-rule="evenodd"><path d="M14 13c0-1.66 1.34-3 3-3 1.65 0 3 1.34 3 3v6c0 1.65-1.35 3-3 3 -1.66 0-3-1.35-3-3v-6Zm3-1c-.56 0-1 .44-1 1v6c0 .55.44 1 1 1 .55 0 1-.45 1-1v-6c0-.56-.45-1-1-1Z"/><path d="M8 8c-1.66 0-3 1.34-3 3v2.76c-.62.54-1 1.34-1 2.23v3c0 1.65 1.34 3 3 3h2c1.65 0 3-1.35 3-3v-3c0-.89-.39-1.69-1-2.24v-2.77c0-1.66-1.35-3-3-3Zm1 7H7c-.56 0-1 .44-1 1v3c0 .55.44 1 1 1h2c.55 0 1-.45 1-1v-3c0-.56-.45-1-1-1Zm-2-2h2v-2c0-.56-.45-1-1-1 -.56 0-1 .44-1 1v2Z"/></g><path fill="#12131A" d="M6 5c0-1.66 1.34-3 3-3v0c.55 0 1 .44 1 1v6c0 .55-.45 1-1 1H7c-.56 0-1-.45-1-1V5Z"/></g></svg>