<svg viewBox="0 0 24 24" xmlns="http://www.w3.org/2000/svg"><g><g fill="#12131A" fill-rule="evenodd"><path d="M17 21c0 .55-.45 1-1 1 -.56 0-1-.45-1-1 -.56 0-1-.45-1-1 0-.56.44-1 1-1v-1c-.56 0-1-.45-1-1 0-.56.44-1 1-1v-6c0-.56.44-1 1-1 .55 0 1 .44 1 1v6c.55 0 1 .44 1 1 0 .55-.45 1-1 1v1c.55 0 1 .44 1 1 0 .55-.45 1-1 1Z"/><path d="M15 9h1.99c.63 0 1.1-.59.97-1.21l-.63-3c-.1-.47-.51-.8-.98-.8h-.75c-.48 0-.89.33-.98.79l-.63 3c-.13.62.34 1.2.97 1.2Zm1.99 2h-2c-1.91 0-3.33-1.75-2.94-3.62l.62-3c.29-1.4 1.516-2.39 2.93-2.39h.74c1.42 0 2.64.99 2.93 2.38l.62 3c.38 1.86-1.04 3.61-2.94 3.61Z"/><path d="M7 8c-.56 0-1 .44-1 1v1.17c-1.29.45-2.16 1.76-1.98 3.2l.76 6c.19 1.49 1.46 2.622 2.97 2.622h.47c1.51 0 2.78-1.13 2.97-2.622l.76-6c.18-1.45-.69-2.76-1.98-3.21V8.98c0-.56-.45-1-1.01-1h-2Zm-1 5.12c-.08-.6.38-1.13.99-1.13h1.99c.6 0 1.06.52.99 1.12l-.77 6c-.07.49-.49.87-1 .87h-.48c-.51 0-.93-.38-1-.88l-.77-6Z"/></g></g></svg>