<svg viewBox="0 0 24 24" xmlns="http://www.w3.org/2000/svg"><g><path fill="#12131A" fill-rule="evenodd" d="M18 21c0 .55-.45 1-1 1 -.56 0-1-.45-1-1 -.56 0-1-.45-1-1 0-.56.44-1 1-1v-1c-.56 0-1-.45-1-1 0-.56.44-1 1-1v-3c0-.56.44-1 1-1 .55 0 1 .44 1 1v3c.55 0 1 .44 1 1 0 .55-.45 1-1 1v1c.55 0 1 .44 1 1 0 .55-.45 1-1 1Z"/><g fill="#12131A"><path d="M19.96 7.66c.2 1.22-.74 2.33-1.98 2.33h-2c-1.24 0-2.19-1.12-1.98-2.34l.68-4c.16-.97.99-1.67 1.97-1.67h.62c.97 0 1.8.7 1.97 1.66l.68 4Z"/><path fill="#12131A" fill-rule="evenodd" d="M5.99 8c-.56 0-1 .44-1 1v2.26c-.67.38-1.09 1.13-.99 1.95l.78 7c.11 1.01.96 1.77 1.98 1.77h.42c1.01 0 1.87-.77 1.98-1.78l.78-7c.09-.83-.33-1.58-.99-1.96V8.97c0-.56-.45-1-1-1h-2Z"/></g></g></svg>