<svg viewBox="0 0 24 24" xmlns="http://www.w3.org/2000/svg"><g><g fill="#12131A"><path d="M4 21c0-.56.44-1 1-1h14c.55 0 1 .44 1 1v0c0 .55-.45 1-1 1H5c-.56 0-1-.45-1-1v0Z"/><path fill="#12131A" fill-rule="evenodd" d="M20 10c0 4.41-3.59 8-8 8 -4.42 0-8-3.59-8-8 0-4.42 3.58-8 8-8 4.41 0 8 3.58 8 8Zm-9.3-4.71c.39.39.39 1.02 0 1.41l-2 2c-.4.39-1.03.39-1.42 0 -.4-.4-.4-1.03 0-1.42l2-2c.39-.4 1.02-.4 1.41 0Zm4 3.41c.39-.4.39-1.03 0-1.42 -.4-.4-1.03-.4-1.42 0l-4.01 4c-.4.39-.4 1.02 0 1.41 .39.39 1.02.39 1.41 0l4-4Z"/></g></g></svg>