<svg viewBox="0 0 24 24" xmlns="http://www.w3.org/2000/svg"><g><g fill="#12131A" fill-rule="evenodd"><path d="M12 4c-3.32 0-6 2.68-6 6 0 3.31 2.68 6 6 6 3.31 0 6-2.69 6-6 0-3.32-2.69-6-6-6Zm-8 6c0-4.42 3.58-8 8-8 4.41 0 8 3.58 8 8 0 4.41-3.59 8-8 8 -4.42 0-8-3.59-8-8Z"/><path d="M11.7 7.7c.39-.4.39-1.03 0-1.42 -.4-.4-1.03-.4-1.42 0l-2.01 2c-.4.39-.4 1.02 0 1.41 .39.39 1.02.39 1.41 0l1.99-2Zm4 2c.39-.4.39-1.03 0-1.42 -.4-.4-1.03-.4-1.42 0l-4 4c-.4.39-.4 1.02 0 1.41 .39.39 1.02.39 1.41 0l4-4Z"/><path d="M17 18H7c-.56 0-1 .44-1 1 0 .55.44 1 1 1h10c.55 0 1-.45 1-1 0-.56-.45-1-1-1ZM7 16c-1.66 0-3 1.34-3 3 0 1.65 1.34 3 3 3h10c1.65 0 3-1.35 3-3 0-1.66-1.35-3-3-3H7Z"/></g></g></svg>