<svg viewBox="0 0 24 24" xmlns="http://www.w3.org/2000/svg"><g><path fill="#12131A" fill-rule="evenodd" d="M2.21 5.09c-.22.42-.22.98-.22 2.1v9.6c0 1.12 0 1.68.21 2.1 .19.37.49.68.87.87 .42.21.98.21 2.1.21h13.6c1.12 0 1.68 0 2.1-.22 .37-.2.68-.5.87-.88 .21-.43.21-.99.21-2.11v-9.6c0-1.13 0-1.69-.22-2.11 -.2-.38-.5-.69-.88-.88 -.43-.22-.99-.22-2.11-.22H5.14c-1.13 0-1.69 0-2.11.21 -.38.19-.69.49-.88.87Zm14.28 5.9c.82 0 1.5-.68 1.5-1.5 0-.83-.68-1.5-1.5-1.5 -.83 0-1.5.67-1.5 1.5 0 .82.67 1.5 1.5 1.5Zm-3.5-1.5c0 .82-.68 1.5-1.5 1.5 -.83 0-1.5-.68-1.5-1.5 0-.83.67-1.5 1.5-1.5 .82 0 1.5.67 1.5 1.5Zm3.5 6.5c.82 0 1.5-.68 1.5-1.5 0-.83-.68-1.5-1.5-1.5 -.83 0-1.5.67-1.5 1.5 0 .82.67 1.5 1.5 1.5Zm-3.5-1.5c0 .82-.68 1.5-1.5 1.5 -.83 0-1.5-.68-1.5-1.5 0-.83.67-1.5 1.5-1.5 .82 0 1.5.67 1.5 1.5Zm-6-6.5c-.56 0-1 .44-1 1v6c0 .55.44 1 1 1 .55 0 1-.45 1-1v-6c0-.56-.45-1-1-1Z"/></g></svg>