<svg viewBox="0 0 24 24" xmlns="http://www.w3.org/2000/svg"><g><g fill="#12131A" fill-rule="evenodd"><path d="M5 6c0 .5.51 1 1 1 .66 0 1.32-.28 1.93-.72 .12-.1.25-.19.36-.29 -.12-.1-.24-.2-.37-.29 -.62-.45-1.27-.72-1.94-.72 -.49 0-1 .49-1 1ZM3 6c0 1.65 1.45 3 3 3 1.83 0 3.3-1.13 4.15-2h.84v2.63c0 1.06 1.01 1.68 1.89 1.48 .35-.08.72-.13 1.1-.13 .37 0 .74.04 1.1.12 .87.19 1.89-.42 1.89-1.49V6.97h2c.55 0 1-.45 1-1 0-.56-.45-1-1-1h-2.18c-.42-1.17-1.53-2-2.83-2 -1.31 0-2.42.83-2.83 2h-1.02c-.86-.88-2.33-2-4.16-2 -1.55 0-3 1.34-3 3Zm10 0v1 2.07c.32-.05.66-.08 1-.08 .33 0 .673.02 1 .07V5.98c0-.56-.45-1-1-1 -.56 0-1 .44-1 1Z"/><path d="M18 19c.62-.84.99-1.88.99-3 0-2.77-2.24-5-5-5 -2.77 0-5 2.23-5 5 0 1.12.37 2.16.99 3h8Zm.49 2c.26 0 .51-.11.69-.3 1.12-1.25 1.81-2.9 1.81-4.71 0-3.87-3.14-7-7-7 -3.87 0-7 3.13-7 7 0 1.81.68 3.46 1.81 4.7 .17.19.42.29.69.29h8.98Z"/></g></g></svg>