<svg viewBox="0 0 24 24" xmlns="http://www.w3.org/2000/svg"><g><g fill="#12131A" fill-rule="evenodd"><path d="M9 11c0-.56.44-1 1-1h4c.55 0 1 .44 1 1v8c0 1.65-1.35 3-3 3 -1.66 0-3-1.35-3-3v-8Zm2 1v7c0 .55.44 1 1 1 .55 0 1-.45 1-1v-7h-2Z"/><path d="M7 2C5.34 2 4 3.34 4 5c0 1.65 1.34 3 3 3v1c0 1.65 1.34 3 3 3h4c1.65 0 3-1.35 3-3V8c1.65 0 3-1.35 3-3 0-1.66-1.35-3-3-3H7Zm8 6H9v1c0 .55.44 1 1 1h4c.55 0 1-.45 1-1V8ZM7 6h1 8 1c.55 0 1-.45 1-1 0-.56-.45-1-1-1H7c-.56 0-1 .44-1 1 0 .55.44 1 1 1Z"/></g></g></svg>