<svg viewBox="0 0 24 24" xmlns="http://www.w3.org/2000/svg"><g><g fill="#12131A" fill-rule="evenodd"><path d="M5.5 6C4.67 6 4 6.67 4 7.5 4 8.32 4.67 9 5.5 9 6.32 9 7 8.32 7 7.5 7 6.67 6.32 6 5.5 6ZM2 7.5C2 5.56 3.56 4 5.5 4 7.43 4 9 5.56 9 7.5 9 9.43 7.43 11 5.5 11 3.56 11 2 9.43 2 7.5ZM21.503 20h-2.02c-1.86 0-3.64-.74-4.95-2.06l-3.13-3.13 1.82-1.83h1.37c.24 0 .484.09.66.25l6.55 5.87c.34.3.12.87-.34.87Z"/><path d="M19.48 4h2.01c.45 0 .67.56.33.87l-6.56 5.87c-.19.16-.43.25-.67.25h-2.21l-3.84 3.83c.26.49.42 1.06.42 1.66 0 1.93-1.57 3.5-3.5 3.5 -1.94 0-3.5-1.57-3.5-3.5 0-1.94 1.56-3.5 3.5-3.5 .6 0 1.16.15 1.66.42l5.12-5.13 0 0 2.24-2.25c1.31-1.32 3.09-2.06 4.94-2.06ZM5.49 15c-.83 0-1.5.67-1.5 1.5 0 .82.67 1.5 1.5 1.5 .82 0 1.5-.68 1.5-1.5 0-.83-.68-1.5-1.5-1.5Z"/></g></g></svg>