<svg viewBox="0 0 24 24" xmlns="http://www.w3.org/2000/svg"><g><g fill="#12131A" fill-rule="evenodd"><path d="M5.5 6C4.67 6 4 6.67 4 7.5 4 8.32 4.67 9 5.5 9 6.32 9 7 8.32 7 7.5 7 6.67 6.32 6 5.5 6ZM2 7.5C2 5.56 3.56 4 5.5 4 7.43 4 9 5.56 9 7.5c0 .6-.16 1.16-.43 1.66l1.83 1.83h4.58 .41l.29.29 5.85 5.85c.84.84.4 2.3-.78 2.53l-1.15.22c-1.66.32-3.36-.2-4.55-1.39l-2.814-2.82 -.01 0 -5.13-5.13c-.5.26-1.07.42-1.67.42 -1.94 0-3.5-1.57-3.5-3.5Zm17.26 10.44c-1 .19-2.03-.12-2.75-.84l-4.11-4.11h2.17l4.9 4.9 -.23.04Z"/><path d="M15.12 5.45c1.17-1.18 2.86-1.7 4.49-1.38l1.16.22c1.17.23 1.62 1.68.77 2.53l-5.86 5.85 -.3.29h-.42 -4.59l-1.84 1.83c.26.49.42 1.06.42 1.66 0 1.93-1.57 3.5-3.5 3.5 -1.94 0-3.5-1.57-3.5-3.5 0-1.94 1.56-3.5 3.5-3.5 .6 0 1.16.15 1.66.42l.42-.43h-.01l1.7-1.71 5.83-5.84Zm-2.72 5.53l1.29-1.3 -.01-.01 2.83-2.84c.7-.71 1.71-1.02 2.69-.83l.24.04 -4.9 4.89h-2.18Zm-6.92 4c-.83 0-1.5.67-1.5 1.5 0 .82.67 1.5 1.5 1.5 .82 0 1.5-.68 1.5-1.5 0-.83-.68-1.5-1.5-1.5Z"/></g></g></svg>