<svg viewBox="0 0 24 24" xmlns="http://www.w3.org/2000/svg"><g><g fill="#12131A" fill-rule="evenodd"><path d="M9 17c0 .55-.45 1-1 1 -.56 0-1-.45-1-1 0-.56.44-1 1-1 .55 0 1 .44 1 1Zm-2 4c0 .55-.45 1-1 1 -.56 0-1-.45-1-1 0-.56.44-1 1-1 .55 0 1 .44 1 1Zm5-3c.55 0 1-.45 1-1 0-.56-.45-1-1-1 -.56 0-1 .44-1 1 0 .55.44 1 1 1Zm-1 3c0 .55-.45 1-1 1 -.56 0-1-.45-1-1 0-.56.44-1 1-1 .55 0 1 .44 1 1Zm5-3c.55 0 1-.45 1-1 0-.56-.45-1-1-1 -.56 0-1 .44-1 1 0 .55.44 1 1 1Zm-1 3c0 .55-.45 1-1 1 -.56 0-1-.45-1-1 0-.56.44-1 1-1 .55 0 1 .44 1 1Zm3 1c.55 0 1-.45 1-1 0-.56-.45-1-1-1 -.56 0-1 .44-1 1 0 .55.44 1 1 1Z"/><path d="M5 2c-.56 0-1 .44-1 1 0 .55.44 1 1 1h5c.55 0 1 .44 1 1v1H9c-2.77 0-5 2.23-5 5 0 1.65 1.34 3 3 3h10c1.65 0 3-1.35 3-3 0-2.77-2.24-5-5-5h-2V5c0-1.66-1.35-3-3-3H5Zm7 6H9c-1.66 0-3 1.34-3 3 0 .55.44 1 1 1h10c.55 0 1-.45 1-1 0-1.66-1.35-3-3-3h-3Z"/></g></g></svg>