<svg viewBox="0 0 24 24" xmlns="http://www.w3.org/2000/svg"><g><g fill="#12131A" fill-rule="evenodd"><path d="M10 14c2.04 0 3.72-1.53 3.96-3.51 .03-.28.25-.5.53-.5h1.7c1.68 0 2.52 0 3.16.32 .56.28 1.02.74 1.31 1.31 .32.64.32 1.48.32 3.16v1.4c0 1.68 0 2.52-.33 3.16 -.29.56-.75 1.02-1.32 1.31 -.65.32-1.49.32-3.17.32h-8.4c-1.69 0-2.53 0-3.17-.33 -.57-.29-1.03-.75-1.32-1.32 -.33-.65-.33-1.49-.33-3.17v-1.4c0-1.69 0-2.53.32-3.17 .28-.57.74-1.03 1.31-1.32 .24-.13.5-.2.83-.25 .28-.05.52.19.56.47 .27 1.94 1.94 3.44 3.96 3.44Z"/><path d="M11 5c.55 0 1-.45 1-1 0-.56-.45-1-1-1 -.56 0-1 .44-1 1 0 .55.44 1 1 1Zm7 1c0 1.1-.9 2-2 2 -1.11 0-2-.9-2-2 0-1.11.89-2 2-2 1.1 0 2 .89 2 2Zm-6 4c0 1.1-.9 2-2 2 -1.11 0-2-.9-2-2 0-1.11.89-2 2-2 1.1 0 2 .89 2 2Z"/></g></g></svg>