<svg viewBox="0 0 24 24" xmlns="http://www.w3.org/2000/svg"><g><g fill="#12131A" fill-rule="evenodd"><path d="M7 16h10v3c0 1.65-1.35 3-3 3h-4c-1.66 0-3-1.35-3-3v-3Zm2 2v1c0 .55.44 1 1 1h4c.55 0 1-.45 1-1v-1H9Z"/><path d="M7 2C5.14 2 3.73 3.66 4.04 5.49l1.68 10c.24 1.44 1.49 2.5 2.95 2.5h6.61c1.46 0 2.71-1.06 2.95-2.5l1.69-10c.3-1.84-1.11-3.51-2.96-3.51h-10Zm-.99 3.16c-.11-.62.36-1.17.98-1.17h9.99c.61 0 1.08.55.98 1.16l-.15.83H6.12l-.15-.84Zm.47 2.83l1.2 7.16c.08.48.49.83.98.83h6.61c.48 0 .9-.36.98-.84l1.21-7.17H6.44Z"/></g></g></svg>