<svg viewBox="0 0 24 24" xmlns="http://www.w3.org/2000/svg"><g><g fill="#12131A"><path d="M10 20h4c0 1.1-.9 2-2 2 -1.11 0-2-.9-2-2Z"/><path opacity=".25" fill="#12131A" fill-rule="evenodd" d="M6.88 6.88c-.57.92-.89 2-.89 3.13v3.32c0 .73-.35 1.42-.94 1.86 -2.05 1.53-.96 4.79 1.6 4.79H17.3c.78 0 1.43-.31 1.89-.78L6.84 6.85Z"/><path opacity=".25" d="M12 2c-.56 0-1 .44-1 1v1c-.56 0-1 .44-1 1 0 .55.44 1 1 1h1c2.2 0 4 1.79 4 4v1c0 .55.44 1 1 1 .55 0 1-.45 1-1v-1c0-2.98-2.17-5.45-5-5.92V2.99c0-.56-.45-1-1-1Z"/><path fill="#12131A" fill-rule="evenodd" d="M2.29 2.29c.39-.4 1.02-.4 1.41 0l17.99 18c.39.39.39 1.02 0 1.41 -.4.39-1.03.39-1.42 0L2.26 3.7c-.4-.4-.4-1.03 0-1.42Z"/></g></g></svg>