<svg viewBox="0 0 24 24" xmlns="http://www.w3.org/2000/svg"><g><g fill="#12131A"><path d="M19.99 18.58L4.64 3.23l-.49 1.59c-.12.36-.18.75-.18 1.16v14c0 1.68 1.95 2.61 3.26 1.55l4.1-3.34c.36-.3.89-.3 1.26 0l4.1 3.33c1.3 1.06 3.26.13 3.26-1.56v-1.42Z"/><g fill="#12131A" fill-rule="evenodd"><path d="M8 3c0-.56.44-1 1-1h6.99c2.2 0 4 1.79 4 4v7c0 .55-.45 1-1 1 -.56 0-1-.45-1-1V6c0-1.11-.9-2-2-2h-7c-.56 0-1-.45-1-1Z"/><path d="M2.29 2.29c.39-.4 1.02-.4 1.41 0l17.99 18c.39.39.39 1.02 0 1.41 -.4.39-1.03.39-1.42 0L2.26 3.7c-.4-.4-.4-1.03 0-1.42Z"/></g></g></g></svg>