<svg viewBox="0 0 24 24" xmlns="http://www.w3.org/2000/svg"><g><g fill="#12131A" fill-rule="evenodd"><path d="M4 7c0-2.77 2.23-5 5-5h5.99c2.76 0 5 2.23 5 5v11.98c0 2.55-2.99 3.93-4.94 2.29l-2.42-2.05c-.38-.32-.92-.32-1.3 0l-2.42 2.04c-1.95 1.64-4.94.26-4.94-2.3V6.97Zm5-3C7.34 4 6 5.34 6 7v11.98c0 .85.99 1.31 1.64.76l2.41-2.05c1.11-.95 2.75-.95 3.87 0l2.41 2.04c.65.54 1.64.08 1.64-.77V6.97c0-1.66-1.35-3-3-3h-6Z"/><path d="M12 7c.55 0 1 .44 1 1v1h1c.55 0 1 .44 1 1 0 .55-.45 1-1 1h-1v1c0 .55-.45 1-1 1 -.56 0-1-.45-1-1v-1h-1c-.56 0-1-.45-1-1 0-.56.44-1 1-1h1V8c0-.56.44-1 1-1Z"/></g></g></svg>