<svg viewBox="0 0 24 24" xmlns="http://www.w3.org/2000/svg"><g><g fill="#12131A" fill-rule="evenodd"><path d="M4 7c0-2.77 2.23-5 5-5h5.99c2.76 0 5 2.23 5 5v11.98c0 2.55-2.99 3.93-4.94 2.29l-2.42-2.05c-.38-.32-.92-.32-1.3 0l-2.42 2.04c-1.95 1.64-4.94.26-4.94-2.3V6.97Zm5-3C7.34 4 6 5.34 6 7v11.98c0 .85.99 1.31 1.64.76l2.41-2.05c1.11-.95 2.75-.95 3.87 0l2.41 2.04c.65.54 1.64.08 1.64-.77V6.97c0-1.66-1.35-3-3-3h-6Z"/><path d="M15.7 7.29c.39.39.39 1.02 0 1.41l-4 3.99c-.4.39-1.03.39-1.42 0l-2.01-2c-.4-.4-.4-1.03 0-1.42 .39-.4 1.02-.4 1.41 0l1.29 1.29 3.29-3.3c.39-.4 1.02-.4 1.41 0Z"/></g></g></svg>