<svg viewBox="0 0 24 24" xmlns="http://www.w3.org/2000/svg"><g><g fill="#12131A"><path d="M4.6 4.6c-.39.71-.61 1.52-.61 2.39v11.98c0 2.55 2.98 3.93 4.93 2.29l2.41-2.05c.37-.32.91-.32 1.29 0l2.41 2.04c1.71 1.44 4.22.55 4.8-1.41l-1.88-1.88v.98c0 .85-1 1.31-1.65.76l-2.42-2.05c-1.12-.95-2.76-.95-3.88-.01l-2.42 2.04c-.65.54-1.65.08-1.65-.77V6.92c0-.31.04-.6.12-.88L4.52 4.51Z"/><g fill="#12131A" fill-rule="evenodd"><path d="M8 3c0-.56.44-1 1-1h5.99c2.76 0 5 2.23 5 5v6c0 .55-.45 1-1 1 -.56 0-1-.45-1-1V7c0-1.66-1.35-3-3-3h-6c-.56 0-1-.45-1-1Z"/><path d="M2.29 2.29c.39-.4 1.02-.4 1.41 0l17.99 18c.39.39.39 1.02 0 1.41 -.4.39-1.03.39-1.42 0L2.26 3.7c-.4-.4-.4-1.03 0-1.42Z"/></g></g></g></svg>