<svg viewBox="0 0 24 24" xmlns="http://www.w3.org/2000/svg"><g><path fill="#12131A" fill-rule="evenodd" d="M3.43 5.18c-.44.85-.44 1.97-.44 4.21v5.2c0 2.24 0 3.36.43 4.21 .38.75.99 1.36 1.74 1.74 .85.43 1.97.43 4.21.43h5.2c2.24 0 3.36 0 4.21-.44 .75-.39 1.36-1 1.74-1.75 .43-.86.43-1.98.43-4.22v-5.2c0-2.25 0-3.37-.44-4.22 -.39-.76-1-1.37-1.75-1.75 -.86-.44-1.98-.44-4.22-.44h-5.2c-2.25 0-3.37 0-4.22.43 -.76.38-1.37.99-1.75 1.74Zm8.27 3.1c-.4-.4-1.03-.4-1.42 0 -.4.39-.4 1.02 0 1.41l2.29 2.29 -2.3 2.29c-.4.39-.4 1.02 0 1.41 .39.39 1.02.39 1.41 0l3-3c.39-.4.39-1.03 0-1.42l-3-3.01Z"/></g></svg>