<svg viewBox="0 0 24 24" xmlns="http://www.w3.org/2000/svg"><g><g fill="#12131A"><path opacity=".25" d="M3 9.4c0-2.25 0-3.37.43-4.22 .38-.76.99-1.37 1.74-1.75 .85-.44 1.97-.44 4.21-.44h5.2c2.24 0 3.36 0 4.21.43 .75.38 1.36.99 1.74 1.74 .43.85.43 1.97.43 4.21v5.2c0 2.24 0 3.36-.44 4.21 -.39.75-1 1.36-1.75 1.74 -.86.43-1.98.43-4.22.43h-5.2c-2.25 0-3.37 0-4.22-.44 -.76-.39-1.37-1-1.75-1.75 -.44-.86-.44-1.98-.44-4.22v-5.2Z"/><path fill="#12131A" fill-rule="evenodd" d="M11.29 9.29c.39-.4 1.02-.4 1.41 0l3 3c.39.39.39 1.02 0 1.41 -.4.39-1.03.39-1.42 0l-2.3-2.3 -2.3 2.29c-.4.39-1.03.39-1.42 0 -.4-.4-.4-1.03 0-1.42l3-3.01Z"/></g></g></svg>