<svg viewBox="0 0 24 24" xmlns="http://www.w3.org/2000/svg"><g><g fill="#12131A"><path d="M4 21c0-.56.44-1 1-1h14c.55 0 1 .44 1 1 0 .55-.45 1-1 1H5c-.56 0-1-.45-1-1Z"/><path d="M11.93 5.35c-.2-.2-.52-.2-.71 0L7.34 9.22c-.2.19-.2.51 0 .7l4.7 4.7c.19.19.51.19.7 0l3.87-3.88c.19-.2.19-.52 0-.71L11.9 5.32Z"/><path d="M10.64 16.49c.16-.05.19-.25.07-.37l-4.85-4.85c-.13-.13-.33-.09-.37.07v0l-1.46 5.24c-.23.82.52 1.58 1.35 1.35l5.24-1.46v0Z"/><path d="M13.7 2.87c1.17-1.18 3.07-1.18 4.24 0l1.17 1.17c1.17 1.17 1.17 3.07 0 4.24l-.36.35c-.2.19-.52.19-.71 0l-4.71-4.71c-.2-.2-.2-.52 0-.71l.35-.36Z"/></g></g></svg>