<svg viewBox="0 0 24 24" xmlns="http://www.w3.org/2000/svg"><g><g fill="#12131A"><path d="M4 21c0-.56.44-1 1-1h14c.55 0 1 .44 1 1 0 .55-.45 1-1 1H5c-.56 0-1-.45-1-1Z"/><path fill="#12131A" fill-rule="evenodd" d="M12.41 3.17c1.56-1.57 4.09-1.57 5.65 0l.75.75c1.56 1.56 1.56 4.09 0 5.65l-6.91 6.9c-.28.27-.64.46-1.02.54l-4.51.91c-1.41.28-2.65-.96-2.36-2.36l.91-4.51c.07-.39.26-.74.54-1.02l6.9-6.91Zm4.24 1.41c-.79-.79-2.05-.79-2.83-.01l-.42.41 3.58 3.58 .41-.42c.78-.79.78-2.05 0-2.83l-.76-.76ZM8.4 9.99l3.58-3.59 3.58 3.58 -3.59 3.58 -3.59-3.59ZM6.98 11.4l-.09.08 -.92 4.5 4.5-.92 .08-.09 -3.59-3.59Z"/></g></g></svg>