<svg viewBox="0 0 24 24" xmlns="http://www.w3.org/2000/svg"><g><g fill="#12131A"><path opacity=".25" d="M4 21c0-.56.44-1 1-1h14c.55 0 1 .44 1 1 0 .55-.45 1-1 1H5c-.56 0-1-.45-1-1Z"/><path d="M13.7 2.87c1.17-1.18 3.07-1.18 4.24 0l1.17 1.17c1.17 1.17 1.17 3.07 0 4.24l-.42.41 -5.42-5.42 .41-.42Z"/><path d="M5.79 10.79c-.14.16-.24.35-.3.56l-1.46 5.24c-.23.82.52 1.58 1.35 1.35l5.24-1.46c.2-.06.39-.16.56-.3l-5.41-5.41Z"/><path opacity=".25" d="M18.7 8.7l-5.42-5.42 -7.41 7.4c-.04.03-.07.06-.09.09l5.4 5.4c.03-.03.06-.06.09-.09l7.4-7.41Z"/></g></g></svg>