<svg viewBox="0 0 24 24" xmlns="http://www.w3.org/2000/svg"><g><g fill="#12131A"><path d="M3 16.83v-2.68c-.01-.53-.01-.99.03-1.36 .03-.4.1-.79.29-1.17 .28-.57.74-1.03 1.31-1.32 .37-.2.77-.27 1.16-.3 .37-.04.82-.04 1.35-.04h3.83v6c0 .55.44 1 1 1 .55 0 1-.45 1-1v-6h3.83c.52-.01.98-.01 1.35.03 .39.03.78.1 1.16.29 .56.28 1.02.74 1.31 1.31 .19.37.26.77.29 1.16 .03.37.03.82.03 1.35v2.67c0 .52 0 .98-.04 1.35 -.04.39-.11.78-.3 1.16 -.29.56-.75 1.02-1.32 1.31 -.38.19-.78.26-1.17.29 -.38.03-.83.03-1.36.03H7.07c-.53 0-.99 0-1.36-.04 -.4-.04-.79-.11-1.17-.3 -.57-.29-1.03-.75-1.32-1.32 -.2-.38-.27-.78-.3-1.17 -.04-.38-.04-.83-.04-1.36Z"/><path d="M9.7 7.7c-.4.39-1.03.39-1.42 0 -.4-.4-.4-1.03 0-1.42l3-3c.39-.4 1.02-.4 1.41 0l3 3c.39.39.39 1.02 0 1.41 -.4.39-1.03.39-1.42 0l-1.3-1.3v3.58h-2V6.38l-1.3 1.29Z"/></g></g></svg>