<svg viewBox="0 0 24 24" xmlns="http://www.w3.org/2000/svg"><g><g fill="#12131A"><path d="M18.03 18.03l-3.21-3.21c-.73.72-1.73 1.17-2.83 1.17 -2.21 0-4-1.8-4-4 0-1.11.44-2.11 1.17-2.83L5.95 5.95c-2.06 1.55-3.2 3.63-3.7 4.77 -.36.8-.36 1.71 0 2.52 .86 1.95 3.62 6.73 9.73 6.73 2.56 0 4.53-.85 6.03-1.97Z"/><path d="M10.58 10.58c-.37.36-.59.86-.59 1.41 0 1.1.89 2 2 2 .55 0 1.05-.23 1.41-.59l-2.83-2.83Z"/><path d="M12 4c6.1 0 8.86 4.78 9.72 6.74 .35.8.35 1.71 0 2.51 -.16.34-.37.77-.64 1.24 -.28.47-.89.64-1.37.36 -.48-.28-.65-.89-.37-1.37 .22-.4.4-.76.53-1.06 .12-.29.12-.61 0-.9 -.8-1.79-3.05-5.56-7.91-5.56l-1.01 0c-.56 0-1-.45-1-1 -.01-.56.44-1.01 1-1.01l1-.01Z"/><path fill="#12131A" fill-rule="evenodd" d="M2.29 2.29c.39-.4 1.02-.4 1.41 0l17.99 18c.39.39.39 1.02 0 1.41 -.4.39-1.03.39-1.42 0L2.26 3.7c-.4-.4-.4-1.03 0-1.42Z"/></g></g></svg>