<svg viewBox="0 0 24 24" xmlns="http://www.w3.org/2000/svg"><g><g fill="#12131A"><path opacity=".25" d="M18.849 17.43L6.779 5.36l-.7.5c-2.14 1.55-3.31 3.68-3.83 4.86 -.36.8-.36 1.71 0 2.52 .86 1.95 3.62 6.73 9.73 6.73 2.46 0 4.41-.8 5.9-1.88l.94-.69Z"/><path fill="#12131A" fill-rule="evenodd" d="M9.87 9.87c-.55.54-.88 1.29-.88 2.12 0 1.65 1.34 3 3 3 .82 0 1.57-.34 2.12-.88L9.86 9.86Z"/><path opacity=".25" d="M12 4c6.1 0 8.86 4.78 9.72 6.74 .35.8.35 1.71 0 2.51 -.16.34-.37.77-.64 1.24 -.28.47-.89.64-1.37.36 -.48-.28-.65-.89-.37-1.37 .22-.4.4-.76.53-1.06 .12-.29.12-.61 0-.9 -.8-1.79-3.05-5.56-7.91-5.56l-1.01 0c-.56 0-1-.45-1-1 -.01-.56.44-1.01 1-1.01l1-.01Z"/><path fill="#12131A" fill-rule="evenodd" d="M2.29 2.29c.39-.4 1.02-.4 1.41 0l17.99 18c.39.39.39 1.02 0 1.41 -.4.39-1.03.39-1.42 0L2.26 3.7c-.4-.4-.4-1.03 0-1.42Z"/></g></g></svg>