<svg viewBox="0 0 24 24" xmlns="http://www.w3.org/2000/svg"><g><path fill="#12131A" fill-rule="evenodd" d="M4.32 3.63c-.33.64-.33 1.48-.33 3.16v10.4c0 1.68 0 2.52.32 3.16 .28.56.74 1.02 1.31 1.31 .64.32 1.48.32 3.16.32h6.4c1.68 0 2.52 0 3.16-.33 .56-.29 1.02-.75 1.31-1.32 .32-.65.32-1.49.32-3.17V9.73c0-.26 0-.39-.05-.49 -.05-.11-.14-.2-.25-.25 -.11-.05-.23-.05-.49-.05 -2.08 0-3.11 0-3.92-.38 -.86-.4-1.54-1.09-1.94-1.94 -.38-.81-.38-1.85-.38-3.92 0-.26 0-.39-.05-.49 -.05-.11-.14-.2-.25-.25 -.11-.05-.23-.05-.49-.05H8.72c-1.69 0-2.53 0-3.17.32 -.57.28-1.03.74-1.32 1.31Zm7.17 11.36c.82 0 1.5-.68 1.5-1.5 0-.83-.68-1.5-1.5-1.5 -.83 0-1.5.67-1.5 1.5 0 .82.67 1.5 1.5 1.5Zm3.07.16c.26-.5.42-1.07.42-1.67 0-1.94-1.57-3.5-3.5-3.5 -1.94 0-3.5 1.56-3.5 3.5 0 1.93 1.56 3.5 3.5 3.5 .6 0 1.16-.16 1.66-.43l1.12 1.12c.39.39 1.02.39 1.41 0 .39-.4.39-1.03 0-1.42l-1.13-1.13Z"/><path fill="#12131A" d="M15 2.7c0-.4.31-.71.7-.71v0c.18 0 .36.07.5.2l3.58 3.58c.13.13.2.31.2.5v0c0 .39-.32.7-.71.7h-2.3c-1.11 0-2-.9-2-2v-2.3Z"/></g></svg>