<svg viewBox="0 0 24 24" xmlns="http://www.w3.org/2000/svg"><g><path fill="#12131A" fill-rule="evenodd" d="M4.32 3.63c-.33.64-.33 1.48-.33 3.16v10.4c0 1.68 0 2.52.32 3.16 .28.56.74 1.02 1.31 1.31 .64.32 1.48.32 3.16.32h6.4c1.68 0 2.52 0 3.16-.33 .56-.29 1.02-.75 1.31-1.32 .32-.65.32-1.49.32-3.17V9.73c0-.26 0-.39-.05-.49 -.05-.11-.14-.2-.25-.25 -.11-.05-.23-.05-.49-.05 -2.08 0-3.11 0-3.92-.38 -.86-.4-1.54-1.09-1.94-1.94 -.38-.81-.38-1.85-.38-3.92 0-.26 0-.39-.05-.49 -.05-.11-.14-.2-.25-.25 -.11-.05-.23-.05-.49-.05H8.72c-1.69 0-2.53 0-3.17.32 -.57.28-1.03.74-1.32 1.31Zm7.67 8.36c-.56 0-1 .44-1 1v1h2v-1c0-.56-.45-1-1-1Zm3 2c.55 0 1 .44 1 1v2c0 .55-.45 1-1 1h-6c-.56 0-1-.45-1-1v-2c0-.56.44-1 1-1v-1c0-1.66 1.34-3 3-3 1.65 0 3 1.34 3 3v1Z"/><path fill="#12131A" d="M15 2.7c0-.4.31-.71.7-.71v0c.18 0 .36.07.5.2l3.58 3.58c.13.13.2.31.2.5v0c0 .39-.32.7-.71.7h-2.3c-1.11 0-2-.9-2-2v-2.3Z"/></g></svg>