<svg viewBox="0 0 24 24" xmlns="http://www.w3.org/2000/svg"><g><g fill="#12131A"><path d="M20 16c0-.56-.45-1-1-1 -.56 0-1 .44-1 1v2h-2c-.56 0-1 .44-1 1 0 .55.44 1 1 1h2v2c0 .55.44 1 1 1 .55 0 1-.45 1-1v-2h2c.55 0 1-.45 1-1 0-.56-.45-1-1-1h-2v-2Z"/><path fill="#12131A" fill-rule="evenodd" d="M13 4H9.8c-.86 0-1.44 0-1.89.03 -.44.03-.67.1-.82.18 -.38.19-.69.49-.88.87 -.08.15-.15.38-.19.81 -.04.45-.04 1.03-.04 1.88v8.4c0 .85 0 1.43.03 1.88 .03.43.1.66.18.81 .19.37.49.68.87.87 .15.07.38.14.81.18 .45.03 1.03.03 1.88.03h2.2c.55 0 1 .44 1 1 0 .55-.45 1-1 1H9.7c-.81 0-1.47 0-2.02-.05 -.57-.05-1.08-.15-1.57-.4 -.76-.39-1.37-1-1.75-1.75 -.25-.49-.35-1.01-.4-1.57 -.05-.55-.05-1.21-.05-2.02V7.66c-.01-.81-.01-1.47.04-2.02 .04-.57.14-1.08.39-1.57 .38-.76.99-1.37 1.74-1.75 .48-.25 1-.35 1.56-.4 .54-.05 1.2-.05 2.01-.05L13 1.86c.63-.01 1.11-.01 1.57.11 .4.09.79.25 1.15.47 .4.24.74.58 1.19 1.03l1.33 1.33c.44.44.78.78 1.03 1.19 .21.35.38.74.47 1.15 .11.46.11.94.11 1.57v3.11c0 .55-.45 1-1 1 -.56 0-1-.45-1-1V8.81h-2c-1.66 0-3-1.35-3-3v-2Zm4.56 3c-.13-.15-.32-.34-.68-.7l-1.19-1.19c-.37-.37-.56-.56-.7-.68v1.55c0 .55.44 1 1 1h1.56Z"/></g></g></svg>