<svg viewBox="0 0 24 24" xmlns="http://www.w3.org/2000/svg"><g><path fill="#12131A" fill-rule="evenodd" d="M4 6.8c0-1.69 0-2.53.32-3.17 .28-.57.74-1.03 1.31-1.32 .64-.33 1.48-.33 3.16-.33h3.42c.25 0 .38 0 .48.04 .1.04.19.13.24.24 .04.1.04.23.04.48 0 2.07 0 3.1.37 3.91 .39.85 1.08 1.53 1.93 1.93 .8.37 1.84.37 3.91.37 .25 0 .38 0 .48.04 .1.04.19.13.24.24 .04.1.04.23.04.48v7.42c0 1.68 0 2.52-.33 3.16 -.29.56-.75 1.02-1.32 1.31 -.65.32-1.49.32-3.17.32h-6.4c-1.69 0-2.53 0-3.17-.33 -.57-.29-1.03-.75-1.32-1.32 -.33-.65-.33-1.49-.33-3.17V6.7Zm5.03 9.5l.88-2.13c.05-.13.12-.23.21-.33l2.56-2.57c.39-.4 1.02-.4 1.41 0l.58.58c.39.39.39 1.02 0 1.41l-2.57 2.56c-.1.09-.21.16-.33.21l-2.13.88c-.42.17-.83-.25-.66-.66Z"/><path fill="#12131A" d="M15 2.7c0-.4.31-.71.7-.71v0c.18 0 .36.07.5.2l3.58 3.58c.13.13.2.31.2.5v0c0 .39-.32.7-.71.7h-2.3c-1.11 0-2-.9-2-2v-2.3Z"/></g></svg>