<svg viewBox="0 0 24 24" xmlns="http://www.w3.org/2000/svg"><g><path fill="#12131A" fill-rule="evenodd" d="M4 6.8c0-1.69 0-2.53.32-3.17 .28-.57.74-1.03 1.31-1.32 .64-.33 1.48-.33 3.16-.33h3.42c.25 0 .38 0 .48.04 .1.04.19.13.24.24 .04.1.04.23.04.48 0 2.07 0 3.1.37 3.91 .39.85 1.08 1.53 1.93 1.93 .8.37 1.84.37 3.91.37 .25 0 .38 0 .48.04 .1.04.19.13.24.24 .04.1.04.23.04.48v7.42c0 1.68 0 2.52-.33 3.16 -.29.56-.75 1.02-1.32 1.31 -.65.32-1.49.32-3.17.32h-6.4c-1.69 0-2.53 0-3.17-.33 -.57-.29-1.03-.75-1.32-1.32 -.33-.65-.33-1.49-.33-3.17V6.7Zm11.85 8.66c-.58.84-1.98 2.53-3.86 2.53s-3.28-1.7-3.86-2.54c-.2-.29-.2-.65 0-.93 .57-.85 1.97-2.54 3.85-2.54 1.87 0 3.27 1.69 3.85 2.53 .19.28.19.64 0 .92Zm-2.86-.47c0 .55-.45 1-1 1 -.56 0-1-.45-1-1 0-.56.44-1 1-1 .55 0 1 .44 1 1Z"/><path fill="#12131A" d="M15 2.7c0-.4.31-.71.7-.71v0c.18 0 .36.07.5.2l3.58 3.58c.13.13.2.31.2.5v0c0 .39-.32.7-.71.7h-2.3c-1.11 0-2-.9-2-2v-2.3Z"/></g></svg>