<svg viewBox="0 0 24 24" xmlns="http://www.w3.org/2000/svg"><g><g fill="#12131A"><path opacity=".25" d="M4 6.8c0-1.69 0-2.53.32-3.17 .28-.57.74-1.03 1.31-1.32 .64-.33 1.48-.33 3.16-.33h5.87c.48 0 .73 0 .96.05 .2.04.39.12.57.23 .2.12.37.29.72.64l2.12 2.12c.34.34.51.51.64.72 .1.17.19.37.23.57 .05.23.05.47.05.96v9.87c0 1.68 0 2.52-.33 3.16 -.29.56-.75 1.02-1.32 1.31 -.65.32-1.49.32-3.17.32h-6.4c-1.69 0-2.53 0-3.17-.33 -.57-.29-1.03-.75-1.32-1.32 -.33-.65-.33-1.49-.33-3.17V6.71Z"/><path d="M18.53 15.3c.17-.42.75-.42.92 0l.78 1.89c.07.17.23.29.41.3l1.87.16c.42.03.61.56.3.86l-1.43 1.35c-.13.12-.19.3-.15.47l.48 2.01c.1.43-.37.77-.75.54L19.2 21.8c-.16-.1-.37-.1-.53 0l-1.76 1.07c-.38.23-.86-.12-.75-.55l.48-2.02c.04-.18-.02-.36-.15-.48l-1.42-1.36c-.32-.3-.13-.83.3-.86l1.86-.17c.18-.02.34-.14.41-.31l.78-1.9Z"/><path d="M14 3.41c0-.79.63-1.42 1.41-1.42v0c.37 0 .73.14 1 .41l3.17 3.17c.26.26.41.62.41 1v0c0 .78-.64 1.41-1.42 1.41h-2.59c-1.11 0-2-.9-2-2V3.39Z"/></g></g></svg>