<svg viewBox="0 0 24 24" xmlns="http://www.w3.org/2000/svg"><g><g fill="#12131A" fill-rule="evenodd"><path d="M14.69 2.11c-.47-.12-.95-.12-1.58-.12l-3.36 0c-.81-.01-1.47-.01-2.02.04 -.57.04-1.08.14-1.57.39 -.76.38-1.37.99-1.75 1.74 -.25.48-.35 1-.4 1.56 -.05.54-.05 1.2-.05 2.01v8.48c-.01.8-.01 1.46.04 2.01 .04.56.14 1.07.39 1.56 .38.75.99 1.36 1.74 1.74 .48.24 1 .34 1.56.39 .54.04 1.2.04 2.01.04h4.48c.8 0 1.46 0 2.01-.05 .56-.05 1.07-.15 1.56-.4 .75-.39 1.36-1 1.74-1.75 .24-.49.34-1.01.39-1.57 .04-.55.04-1.21.04-2.02V8.8c0-.64 0-1.12-.12-1.58 -.1-.41-.26-.8-.48-1.16 -.25-.41-.59-.75-1.04-1.2l-1.34-1.34c-.45-.45-.79-.79-1.2-1.04 -.36-.22-.75-.39-1.16-.48Zm-1.7 1.88h-3.2c-.86 0-1.44 0-1.89.03 -.44.03-.67.1-.82.18 -.38.19-.69.49-.88.87 -.08.15-.15.38-.19.81 -.04.45-.04 1.03-.04 1.88v8.4c0 .85 0 1.43.03 1.88 .03.43.1.66.18.81 .19.37.49.68.87.87 .15.07.38.14.81.18 .45.03 1.03.03 1.88.03h4.4c.85 0 1.43-.01 1.88-.04 .43-.04.66-.11.81-.19 .37-.2.68-.5.87-.88 .07-.16.14-.39.18-.82 .03-.46.03-1.04.03-1.89V8.9h-2c-1.66 0-3-1.35-3-3v-2Zm4.56 3c-.13-.15-.32-.34-.68-.7L15.68 5.1c-.37-.37-.56-.56-.7-.68v1.55c0 .55.44 1 1 1h1.56Z"/><path d="M15.7 11.29c.39.39.39 1.02 0 1.41l-4 4c-.4.39-1.03.39-1.42 0l-2.01-2c-.4-.4-.4-1.03 0-1.42 .39-.4 1.02-.4 1.41 0l1.29 1.29 3.29-3.3c.39-.4 1.02-.4 1.41 0Z"/></g></g></svg>