<svg viewBox="0 0 24 24" xmlns="http://www.w3.org/2000/svg"><g><g fill="#12131A" fill-rule="evenodd"><path d="M4.35 4.35c-.06.02-.12.05-.18.08 -.76.38-1.37.99-1.75 1.74 -.25.48-.35 1-.4 1.56 -.05.54-.05 1.2-.05 2.01v.04 4.4 .04c-.01.8-.01 1.46.04 2.01 .04.56.14 1.07.39 1.56 .38.75.99 1.36 1.74 1.74 .48.24 1 .34 1.56.39 .54.04 1.2.04 2.01.04h.04 8.4 .04c.8 0 1.46 0 2.01-.05 .49-.05.95-.13 1.39-.32l-1.68-1.68c-.44.02-.99.02-1.78.02h-8.4c-.86 0-1.44-.01-1.89-.04 -.44-.04-.67-.11-.82-.19 -.38-.2-.69-.5-.88-.88 -.08-.16-.15-.39-.19-.82 -.04-.46-.04-1.04-.04-1.89V9.7c0-.86 0-1.44.03-1.89 .03-.44.1-.67.18-.82 .19-.38.49-.69.87-.88 .15-.08.38-.15.81-.19 .03-.01.07-.01.11-.01L4.23 4.23Z"/><path d="M10.25 6c-.04-.01-.07-.01-.26-.01 -.56 0-1-.45-1-1 0-.56.44-1 1-1 0 0 .01 0 .02 0 .14-.01.26-.01.38 0 .62.05 1.21.29 1.69.7 .09.07.18.16.28.26 0 0 .01.01.02.02l1 1h2.82c.8-.01 1.46-.01 2.01.04 .56.04 1.07.14 1.56.39 .75.38 1.36.99 1.74 1.74 .24.48.34 1 .39 1.56 .04.54.04 1.2.04 2.01v4.24c0 .55-.45 1-1 1 -.56 0-1-.45-1-1v-4.2c0-.86-.01-1.44-.04-1.89 -.04-.44-.11-.67-.19-.82 -.2-.38-.5-.69-.88-.88 -.16-.08-.39-.15-.82-.19 -.46-.04-1.04-.04-1.89-.04h-3.2c-.27 0-.52-.11-.71-.3l-1.3-1.3c-.14-.14-.16-.16-.19-.18 -.16-.14-.36-.22-.57-.24Z"/><path d="M2.29 2.29c.39-.4 1.02-.4 1.41 0l17.99 18c.39.39.39 1.02 0 1.41 -.4.39-1.03.39-1.42 0L2.26 3.7c-.4-.4-.4-1.03 0-1.42Z"/></g></g></svg>