<svg viewBox="0 0 24 24" xmlns="http://www.w3.org/2000/svg"><g><g fill="#12131A"><path d="M20 16c0-.56-.45-1-1-1 -.56 0-1 .44-1 1v2h-2c-.56 0-1 .44-1 1 0 .55.44 1 1 1h2v2c0 .55.44 1 1 1 .55 0 1-.45 1-1v-2h2c.55 0 1-.45 1-1 0-.56-.45-1-1-1h-2v-2Z"/><path d="M9.75 4c.4-.01.76-.01 1.11.08 .3.07.59.19.86.35 .3.18.55.44.84.72l.82.82h4.42c.52-.01.98-.01 1.35.03 .39.03.78.1 1.16.29 .56.28 1.02.74 1.31 1.31 .19.37.26.77.29 1.16 .03.37.03.82.03 1.35v2.03c0 .28 0 .42-.06.52 -.05.09-.13.17-.22.21 -.11.05-.25.05-.53.05h-2.2c-3.32 0-6 2.68-6 6v.2c0 .28 0 .42-.06.52 -.05.09-.13.17-.22.21 -.11.05-.25.05-.53.05H6.08c-.53 0-.99 0-1.36-.04 -.4-.04-.79-.11-1.17-.3 -.57-.29-1.03-.75-1.32-1.32 -.2-.38-.27-.78-.3-1.17 -.04-.38-.04-.83-.04-1.36V8.03c-.01-.53-.01-.99.03-1.36 .03-.4.1-.79.29-1.17 .28-.57.74-1.03 1.31-1.32 .37-.2.77-.27 1.16-.3 .37-.04.82-.04 1.35-.04l3.59-.01Z"/></g></g></svg>