<svg viewBox="0 0 24 24" xmlns="http://www.w3.org/2000/svg"><g><g fill="#12131A"><path opacity=".25" d="M10.87 4.08c-.35-.09-.71-.09-1.12-.09l-3.6 0c-.53-.01-.99-.01-1.36.03 -.4.03-.79.1-1.17.29 -.57.28-1.03.74-1.32 1.31 -.2.37-.27.77-.3 1.16 -.04.37-.04.82-.04 1.35v7.67c-.01.52-.01.98.03 1.35 .03.39.1.78.29 1.16 .28.56.74 1.02 1.31 1.31 .37.19.77.26 1.16.29 .37.03.82.03 1.35.03h11.67c.52 0 .98 0 1.35-.04 .39-.04.78-.11 1.16-.3 .56-.29 1.02-.75 1.31-1.32 .19-.38.26-.78.29-1.17 .03-.38.03-.83.03-1.36v-5.68c0-.53 0-.99-.04-1.36 -.04-.4-.11-.79-.3-1.17 -.29-.57-.75-1.03-1.32-1.32 -.38-.2-.78-.27-1.17-.3 -.38-.04-.83-.04-1.36-.04h-4.43l-.83-.83c-.29-.29-.55-.55-.85-.73 -.27-.17-.57-.29-.87-.36Z"/><path d="M18.53 15.3c.17-.42.75-.42.92 0l.78 1.89c.07.17.23.29.41.3l1.87.16c.42.03.61.56.3.86l-1.43 1.35c-.13.12-.19.3-.15.47l.48 2.01c.1.43-.37.77-.75.54L19.2 21.8c-.16-.1-.37-.1-.53 0l-1.76 1.07c-.38.23-.86-.12-.75-.55l.48-2.02c.04-.18-.02-.36-.15-.48l-1.42-1.36c-.32-.3-.13-.83.3-.86l1.86-.17c.18-.02.34-.14.41-.31l.78-1.9Z"/></g></g></svg>