<svg viewBox="0 0 24 24" xmlns="http://www.w3.org/2000/svg"><g><g fill="#12131A"><path opacity=".25" d="M5 4C3.34 4 2 5.34 2 7v8.83c-.01.52-.01.98.03 1.35 .03.39.1.78.29 1.16 .28.56.74 1.02 1.31 1.31 .37.19.77.26 1.16.29 .37.03.82.03 1.35.03h15.25l-16-16h-.42Z"/><g fill-rule="evenodd" fill="#12131A"><path opacity=".25" d="M10.25 6c-.04-.01-.07-.01-.26-.01 -.56 0-1-.45-1-1 0-.56.44-1 1-1 0 0 .01 0 .02 0 .14-.01.26-.01.38 0 .62.05 1.21.29 1.69.7 .09.07.18.16.28.26 0 0 .01.01.02.02l1 1h4.42c.52-.01.98-.01 1.35.03 .39.03.78.1 1.16.29 .56.28 1.02.74 1.31 1.31 .19.37.26.77.29 1.16 .03.37.03.82.03 1.35v5.83c0 .55-.45 1-1 1 -.56 0-1-.45-1-1v-5.8c0-.58-.01-.95-.03-1.24 -.03-.28-.06-.38-.09-.43 -.1-.19-.25-.35-.44-.44 -.05-.03-.16-.07-.43-.09 -.29-.03-.66-.03-1.24-.03h-4.8c-.27 0-.52-.11-.71-.3l-1.3-1.3c-.14-.14-.16-.16-.19-.18 -.16-.14-.36-.22-.57-.24Z"/><path d="M2.29 2.29c.39-.4 1.02-.4 1.41 0l17.99 18c.39.39.39 1.02 0 1.41 -.4.39-1.03.39-1.42 0L2.26 3.7c-.4-.4-.4-1.03 0-1.42Z"/></g></g></g></svg>