<svg viewBox="0 0 24 24" xmlns="http://www.w3.org/2000/svg"><g><path fill="#12131A" fill-rule="evenodd" d="M9.75 4c.4-.01.76-.01 1.11.08 .3.07.59.19.86.35 .3.18.55.44.84.72l.82.82h4.42c.52-.01.98-.01 1.35.03 .39.03.78.1 1.16.29 .56.28 1.02.74 1.31 1.31 .19.37.26.77.29 1.16 .03.37.03.82.03 1.35v5.67c0 .52 0 .98-.04 1.35 -.04.39-.11.78-.3 1.16 -.29.56-.75 1.02-1.32 1.31 -.38.19-.78.26-1.17.29 -.38.03-.83.03-1.36.03H6.07c-.53 0-.99 0-1.36-.04 -.4-.04-.79-.11-1.17-.3 -.57-.29-1.03-.75-1.32-1.32 -.2-.38-.27-.78-.3-1.17 -.04-.38-.04-.83-.04-1.36V8.05c-.01-.53-.01-.99.03-1.36 .03-.4.1-.79.29-1.17 .28-.57.74-1.03 1.31-1.32 .37-.2.77-.27 1.16-.3 .37-.04.82-.04 1.35-.04l3.59-.01Zm.94 6.29c-.4-.4-1.03-.4-1.42 0 -.4.39-.4 1.02 0 1.41l1.29 1.29 -1.3 1.29c-.4.39-.4 1.02 0 1.41 .39.39 1.02.39 1.41 0l1.29-1.3 1.29 1.29c.39.39 1.02.39 1.41 0 .39-.4.39-1.03 0-1.42l-1.3-1.3 1.29-1.3c.39-.4.39-1.03 0-1.42 -.4-.4-1.03-.4-1.42 0l-1.3 1.29 -1.3-1.3Z"/></g></svg>