<svg viewBox="0 0 24 24" xmlns="http://www.w3.org/2000/svg"><g><g fill="#12131A" fill-rule="evenodd"><path d="M15.16 12h1.67c.52 0 .98 0 1.35.03 .39.03.78.1 1.16.29 .56.28 1.02.74 1.31 1.31 .19.37.26.77.29 1.16 .03.37.03.82.03 1.35v.67c0 .52 0 .98-.04 1.35 -.04.39-.11.78-.3 1.16 -.29.56-.75 1.02-1.32 1.31 -.38.19-.78.26-1.17.29 -.38.03-.83.03-1.36.03H15.1c-.53 0-.99 0-1.36-.04 -.4-.04-.79-.11-1.17-.3 -.57-.29-1.03-.75-1.32-1.32 -.2-.38-.27-.78-.3-1.17 -.04-.38-.04-.83-.04-1.36v-.68c0-.53 0-.99.03-1.36 .03-.4.1-.79.29-1.17 .28-.57.74-1.03 1.31-1.32 .37-.2.77-.27 1.16-.3 .37-.04.82-.04 1.35-.04Zm-1.2 2.02c-.28.02-.38.05-.43.08 -.19.09-.35.24-.44.43 -.03.04-.07.15-.09.42 -.03.28-.03.65-.03 1.23v.6c0 .57 0 .94.02 1.23 .02.27.05.37.08.42 .09.18.24.34.43.43 .04.02.15.06.42.08 .28.02.65.02 1.23.02h1.6c.57 0 .94-.01 1.23-.03 .27-.03.37-.06.42-.09 .18-.1.34-.25.43-.44 .02-.05.06-.16.08-.43 .02-.29.02-.66.02-1.24v-.6c0-.58-.01-.95-.03-1.24 -.03-.28-.06-.38-.09-.43 -.1-.19-.25-.35-.44-.44 -.05-.03-.16-.07-.43-.09 -.29-.03-.66-.03-1.24-.03h-1.6c-.58 0-.95 0-1.24.02Z"/><path d="M6.41 3c-.39-.01-.71-.01-1.01.05 -1.2.23-2.13 1.16-2.36 2.35 -.06.29-.06.62-.06 1l0 .08 -.01.08c-.01.38-.01.7.05 1 .23 1.19 1.16 2.12 2.35 2.35 .29.05.62.05 1 .05h11.16c.38 0 .7 0 1-.06 1.19-.24 2.12-1.17 2.35-2.36 .05-.3.05-.63.05-1.01v-.09 -.09c0-.39 0-.71-.06-1.01 -.24-1.2-1.17-2.13-2.36-2.36 -.3-.06-.63-.06-1.01-.06H6.33Zm-.62 2.01c.07-.02.18-.02.69-.02h11c.51 0 .62 0 .69.01 .39.07.7.38.78.78 .01.07.01.18.01.69s-.01.62-.02.69c-.08.39-.39.7-.79.78 -.08.01-.19.01-.7.01h-11c-.52 0-.63-.01-.7-.02 -.4-.08-.71-.39-.79-.79 -.02-.08-.02-.19-.02-.7 0-.52 0-.63.01-.7 .07-.4.38-.71.78-.79Z"/><path d="M6 12c-1.66 0-3 1.34-3 3v3c0 1.65 1.34 3 3 3 1.65 0 3-1.35 3-3v-3c0-1.66-1.35-3-3-3Zm-1 3c0-.56.44-1 1-1 .55 0 1 .44 1 1v3c0 .55-.45 1-1 1 -.56 0-1-.45-1-1v-3Z"/></g></g></svg>