<svg viewBox="0 0 24 24" xmlns="http://www.w3.org/2000/svg"><g><g fill="#12131A"><path d="M13.56 12c-.26 0-.5-.01-.71.01 -.23.01-.5.06-.77.2 -.38.19-.69.49-.88.87 -.14.27-.19.54-.21.76 -.02.2-.02.45-.02.7v3.86c0 .25-.01.49.01.7 .01.22.06.49.2.76 .19.37.49.68.87.87 .27.13.54.18.76.2 .2.01.45.01.7.01h4.86c.25 0 .49 0 .7-.02 .22-.02.49-.07.76-.21 .37-.2.68-.5.87-.88 .13-.28.18-.55.2-.77 .01-.21.01-.46.01-.71v-3.87c0-.26 0-.5-.02-.71 -.02-.23-.07-.5-.21-.77 -.2-.38-.5-.69-.88-.88 -.28-.14-.55-.19-.77-.21 -.21-.02-.46-.02-.71-.02h-4.87Z"/><path d="M5.56 3c-.26-.01-.5-.01-.71.01 -.23.01-.5.06-.77.2 -.38.19-.69.49-.88.87 -.14.27-.19.54-.21.76 -.02.2-.02.45-.02.7V7.4c-.01.25-.01.49.01.7 .01.22.06.49.2.76 .19.37.49.68.87.87 .27.13.54.18.76.2 .2.01.45.01.7.01h12.86c.25 0 .49 0 .7-.02 .22-.02.49-.07.76-.21 .37-.2.68-.5.87-.88 .13-.28.18-.55.2-.77 .01-.21.01-.46.01-.71V5.48c0-.26 0-.5-.02-.71 -.02-.23-.07-.5-.21-.77 -.2-.38-.5-.69-.88-.88 -.28-.14-.55-.19-.77-.21 -.21-.02-.46-.02-.71-.02H5.45Z"/><path d="M5.56 12c-.26 0-.5-.01-.71.01 -.23.01-.5.06-.77.2 -.38.19-.69.49-.88.87 -.14.27-.19.54-.21.76 -.02.2-.02.45-.02.7v3.86c-.01.25-.01.49.01.7 .01.22.06.49.2.76 .19.37.49.68.87.87 .27.13.54.18.76.2 .2.01.45.01.7.01h.86c.25 0 .49 0 .7-.02 .22-.02.49-.07.76-.21 .37-.2.68-.5.87-.88 .13-.28.18-.55.2-.77 .01-.21.01-.46.01-.71v-3.87c0-.26 0-.5-.02-.71 -.02-.23-.07-.5-.21-.77 -.2-.38-.5-.69-.88-.88 -.28-.14-.55-.19-.77-.21 -.21-.02-.46-.02-.71-.02h-.87Z"/></g></g></svg>