<svg viewBox="0 0 24 24" xmlns="http://www.w3.org/2000/svg"><g><g fill="#12131A"><path d="M17.8 17.8L4.28 4.28c-1.4 1.09-2.29 2.8-2.29 4.71 0 6.43 5.1 9.88 8.02 11.32 .41.2.78.37 1.09.49 .56.23 1.19.23 1.76 0 1.1-.47 3.08-1.43 4.91-3.03Z"/><path d="M12 7.21l-1.34-1.2c-.05-.05-.1-.09-.15-.13 -.31-.25-.53-.61-.53-1 0-.77.75-1.29 1.38-.86 .21.14.42.3.61.48 1.06-.96 2.46-1.53 4-1.53 3.31 0 6 2.68 6 6 0 2.11-.56 3.91-1.41 5.41 -.31.54-1.06.61-1.5.16 -.35-.35-.4-.88-.17-1.3 .65-1.22 1.06-2.64 1.06-4.29 0-2.21-1.8-4.01-4-4.01 -1.03 0-1.96.38-2.67 1.01l-1.34 1.19Z"/><path fill="#12131A" fill-rule="evenodd" d="M2.29 2.29c.39-.4 1.02-.4 1.41 0l17.99 18c.39.39.39 1.02 0 1.41 -.4.39-1.03.39-1.42 0L2.26 3.7c-.4-.4-.4-1.03 0-1.42Z"/></g></g></svg>