<svg viewBox="0 0 24 24" xmlns="http://www.w3.org/2000/svg"><g><g fill="#12131A" fill-rule="evenodd"><path d="M6 6c.55 0 1 .44 1 1v8.2c0 .85 0 1.43.03 1.88 .03.43.1.66.18.81 .19.37.49.68.87.87 .15.07.38.14.81.18 .45.03 1.03.03 1.88.03h2.4c.85 0 1.43-.01 1.88-.04 .43-.04.66-.11.81-.19 .37-.2.68-.5.87-.88 .07-.16.14-.39.18-.82 .03-.46.03-1.04.03-1.89v-8.2c0-.56.44-1 1-1 .55 0 1 .44 1 1v8.24c0 .8 0 1.46-.05 2.01 -.05.56-.15 1.07-.4 1.56 -.39.75-1 1.36-1.75 1.74 -.49.24-1.01.34-1.57.39 -.55.04-1.21.04-2.02.04h-2.49c-.81 0-1.47 0-2.02-.05 -.57-.05-1.08-.15-1.57-.4 -.76-.39-1.37-1-1.75-1.75 -.25-.49-.35-1.01-.4-1.57 -.05-.55-.05-1.21-.05-2.02V6.89c0-.56.44-1 1-1Z"/><path d="M12 15c-.56 0-1 .44-1 1v3H9v-3c0-1.66 1.34-3 3-3 1.65 0 3 1.34 3 3v3h-2v-3c0-.56-.45-1-1-1Z"/><path d="M3.1 8.44c.24.49.84.69 1.34.44l7.55-3.78 7.55 3.77c.49.24 1.09.04 1.34-.45 .24-.5.04-1.1-.45-1.35l-8-4c-.29-.15-.62-.15-.9 0l-8.01 4c-.5.24-.7.84-.45 1.34Z"/></g></g></svg>