<svg viewBox="0 0 24 24" xmlns="http://www.w3.org/2000/svg"><g><g fill="#12131A"><path d="M12.68 7.16c-.43-.22-.94-.22-1.37 0l-5.5 2.8c-.51.25-.82.77-.82 1.33v6.69c0 1.65 1.34 3 3 3h.86c.62 0 1.13-.52 1.13-1.14v-2.87c0-1.11.89-2 2-2 1.1 0 2 .89 2 2v2.86c0 .62.51 1.13 1.13 1.13h.86c1.65 0 3-1.35 3-3v-6.7c0-.57-.32-1.09-.82-1.34l-5.5-2.81Z"/><path fill="#12131A" fill-rule="evenodd" d="M3.1 8.44c.24.49.84.69 1.34.44l7.55-3.78 7.55 3.77c.49.24 1.09.04 1.34-.45 .24-.5.04-1.1-.45-1.35l-8-4c-.29-.15-.62-.15-.9 0l-8.01 4c-.5.24-.7.84-.45 1.34Z"/></g></g></svg>