<svg viewBox="0 0 24 24" xmlns="http://www.w3.org/2000/svg"><g><g fill="#12131A"><path opacity=".25" d="M12.67 3.21c-.43-.22-.92-.22-1.35 0L5.81 5.96c-.51.25-.83.77-.83 1.34v10.69c0 1.65 1.34 3 3 3h8c1.65 0 3-1.35 3-3V7.29c0-.57-.33-1.09-.83-1.35l-5.5-2.75Z"/><g fill="#12131A" fill-rule="evenodd"><path d="M14 21h-4v-4c0-1.11.89-2 2-2 1.1 0 2 .89 2 2v4Z"/><path d="M3.1 8.44c.24.49.84.69 1.34.44l7.55-3.78 7.55 3.77c.49.24 1.09.04 1.34-.45 .24-.5.04-1.1-.45-1.35l-8-4c-.29-.15-.62-.15-.9 0l-8.01 4c-.5.24-.7.84-.45 1.34Z"/></g></g></g></svg>