<svg viewBox="0 0 24 24" xmlns="http://www.w3.org/2000/svg"><g><path fill="#12131A" fill-rule="evenodd" d="M8.16 9h7.67c.52-.01.98-.01 1.35.03 .39.03.78.1 1.16.29 .56.28 1.02.74 1.31 1.31 .19.37.26.77.29 1.16 .03.37.03.82.03 1.35v4.67c0 .52 0 .98-.04 1.35 -.04.39-.11.78-.3 1.16 -.29.56-.75 1.02-1.32 1.31 -.38.19-.78.26-1.17.29 -.38.03-.83.03-1.36.03H8.1c-.53 0-.99 0-1.36-.04 -.4-.04-.79-.11-1.17-.3 -.57-.29-1.03-.75-1.32-1.32 -.2-.38-.27-.78-.3-1.17 -.04-.38-.04-.83-.04-1.36v-4.68c-.01-.53-.01-.99.03-1.36 .03-.4.1-.79.29-1.17 .28-.57.74-1.03 1.31-1.32 .37-.2.77-.27 1.16-.3 .37-.04.82-.04 1.35-.04Zm3.83 6c-.56 0-1 .44-1 1v1c0 .55.44 1 1 1 .55 0 1-.45 1-1v-1c0-.56-.45-1-1-1Z"/><path fill="#12131A" d="M12 2C9.79 2 8 3.79 8 6c0 .55.44 1 1 1 .55 0 1-.45 1-1 0-1.11.89-2 2-2 1.1 0 2 .89 2 2v3h2V6c0-2.21-1.8-4-4-4Z"/></g></svg>