<svg viewBox="0 0 24 24" xmlns="http://www.w3.org/2000/svg"><g><g fill="#12131A"><path opacity=".25" d="M10 7.16v9.67c-.01.52-.01.98.03 1.35 .03.39.1.78.29 1.16 .28.56.74 1.02 1.31 1.31 .37.19.77.26 1.16.29 .37.03.82.03 1.35.03h2.67c.52 0 .98 0 1.35-.04 .39-.04.78-.11 1.16-.3 .56-.29 1.02-.75 1.31-1.32 .19-.38.26-.78.29-1.17 .03-.38.03-.83.03-1.36V7.1c0-.53 0-.99-.04-1.36 -.04-.4-.11-.79-.3-1.17 -.29-.57-.75-1.03-1.32-1.32 -.38-.2-.78-.27-1.17-.3 -.38-.04-.83-.04-1.36-.04h-2.68c-.53-.01-.99-.01-1.36.03 -.4.03-.79.1-1.17.29 -.57.28-1.03.74-1.32 1.31 -.2.37-.27.77-.3 1.16 -.04.37-.04.82-.04 1.35Z"/><path d="M4 13c-.56 0-1-.45-1-1 0-.56.44-1 1-1h9.58l-1.3-1.3c-.4-.4-.4-1.03 0-1.42 .39-.4 1.02-.4 1.41 0l3 3c.39.39.39 1.02 0 1.41l-3 3c-.4.39-1.03.39-1.42 0 -.4-.4-.4-1.03 0-1.42l1.29-1.3H3.97Z"/></g></g></svg>