<svg viewBox="0 0 24 24" xmlns="http://www.w3.org/2000/svg"><g><path fill="#12131A" fill-rule="evenodd" d="M11 20c0-.56.44-1 1-1h3.2c.85 0 1.43-.01 1.88-.04 .43-.04.66-.11.81-.19 .37-.2.68-.5.87-.88 .07-.16.14-.39.18-.82 .03-.46.03-1.04.03-1.89v-6.4c0-.86-.01-1.44-.04-1.89 -.04-.44-.11-.67-.19-.82 -.2-.38-.5-.69-.88-.88 -.16-.08-.39-.15-.82-.19 -.46-.04-1.04-.04-1.89-.04h-3.2c-.56 0-1-.45-1-1 0-.56.44-1 1-1h3.24c.8-.01 1.46-.01 2.01.04 .56.04 1.07.14 1.56.39 .75.38 1.36.99 1.74 1.74 .24.48.34 1 .39 1.56 .04.54.04 1.2.04 2.01v6.48c0 .8 0 1.46-.05 2.01 -.05.56-.15 1.07-.4 1.56 -.39.75-1 1.36-1.75 1.74 -.49.24-1.01.34-1.57.39 -.55.04-1.21.04-2.02.04h-3.25c-.56 0-1-.45-1-1Z"/><path fill="#12131A" d="M7.7 14.29c.39.39.39 1.02 0 1.41 -.4.39-1.03.39-1.42 0l-3-3c-.4-.4-.4-1.03 0-1.42l3-3.01c.39-.4 1.02-.4 1.41 0 .39.39.39 1.02 0 1.41l-1.3 1.29h8.58c.55 0 1 .44 1 1 0 .55-.45 1-1 1H6.38l1.29 1.29Z"/></g></svg>