<svg viewBox="0 0 24 24" xmlns="http://www.w3.org/2000/svg"><g><path fill="#12131A" fill-rule="evenodd" d="M2 12C2 6.47 6.47 2 12 2c5.52 0 10 4.47 10 10 0 5.52-4.48 10-10 10C6.47 22 2 17.52 2 12Zm7.76-2.14c.47.27 1.08.11 1.36-.37 .95-1.39 2.8.45 1.29 1.36 -.28.16-.63.43-.91.76 -.26.31-.5.74-.53 1.27 -.01.03-.01.06-.01.1 0 .55.44 1 1 1 .76 0 .9-.41 1.05-.82 .09-.27.18-.53.44-.69 .82-.51 1.49-1.41 1.5-2.5 0-1.66-1.35-3-3-3 -1.12 0-2.09.6-2.6 1.49 -.28.47-.12 1.08.36 1.36Zm1.23 6.13c0-.56.44-1 1-1 .55 0 1 .44 1 1 0 .55-.45 1-1 1 -.56 0-1-.45-1-1Z"/></g></svg>