<svg viewBox="0 0 24 24" xmlns="http://www.w3.org/2000/svg"><g><g fill="#12131A" fill-rule="evenodd"><path d="M12 4c-4.42 0-8 3.58-8 8 0 4.41 3.58 8 8 8 4.41 0 8-3.59 8-8 0-4.42-3.59-8-8-8ZM2 12C2 6.47 6.47 2 12 2c5.52 0 10 4.47 10 10 0 5.52-4.48 10-10 10C6.47 22 2 17.52 2 12Z"/><path d="M11.13 9.5c-.28.47-.89.64-1.37.36 -.48-.28-.65-.89-.37-1.37 .51-.9 1.48-1.5 2.59-1.5 1.65 0 3 1.34 3 3 -.01 1.09-.68 1.99-1.5 2.5 -.67.4-.25 1.5-1.51 1.5 -.56 0-1-.45-1-1 0-.04 0-.07 0-.11 .02-.53.26-.96.52-1.28 .27-.34.62-.61.9-.77 1.51-.91-.34-2.75-1.3-1.37Zm.86 5.49c-.56 0-1 .44-1 1 0 .55.44 1 1 1 .55 0 1-.45 1-1 0-.56-.45-1-1-1Z"/></g></g></svg>