<svg viewBox="0 0 24 24" xmlns="http://www.w3.org/2000/svg"><g><g fill="#12131A"><path opacity=".25" d="M12 2C6.47 2 2 6.47 2 12c0 5.52 4.47 10 10 10 5.52 0 10-4.48 10-10 0-5.53-4.48-10-10-10Z"/><path fill="#12131A" fill-rule="evenodd" d="M11.13 9.5c-.28.47-.89.64-1.37.36 -.48-.28-.65-.89-.37-1.37 .51-.9 1.48-1.5 2.59-1.5 1.65 0 3 1.34 3 3 -.01 1.09-.68 1.99-1.5 2.5 -.67.4-.25 1.5-1.51 1.5 -.56 0-1-.45-1-1 0-.04 0-.07 0-.11 .02-.53.26-.96.52-1.28 .27-.34.62-.61.9-.77 1.51-.91-.34-2.75-1.3-1.37Zm.86 5.49c-.56 0-1 .44-1 1 0 .55.44 1 1 1 .55 0 1-.45 1-1 0-.56-.45-1-1-1Z"/></g></g></svg>