<svg viewBox="0 0 24 24" xmlns="http://www.w3.org/2000/svg"><g><path fill="#12131A" fill-rule="evenodd" d="M11.5 2c-.83 0-1.5.67-1.5 1.5v.36c0 .22-.16.42-.38.49 -.48.14-.93.33-1.36.56 -.21.1-.46.07-.62-.09l-.26-.26c-.59-.59-1.54-.59-2.13 0l-.71.7c-.59.58-.59 1.53 0 2.12l.25.25c.16.16.19.41.08.61 -.23.42-.42.88-.57 1.35 -.07.21-.27.37-.5.37h-.37c-.83 0-1.5.67-1.5 1.5v1c0 .82.67 1.5 1.5 1.5h.36c.22 0 .42.15.49.37 .14.47.33.92.56 1.35 .1.2.07.45-.09.61l-.26.25c-.59.58-.59 1.53 0 2.12l.7.7c.58.58 1.53.58 2.12 0l.25-.26c.16-.17.41-.2.61-.09 .42.22.88.41 1.35.56 .21.06.37.26.37.49v.36c0 .82.67 1.5 1.5 1.5h1c.82 0 1.5-.68 1.5-1.5v-.37c0-.23.15-.43.37-.5 .47-.15.92-.34 1.35-.57 .2-.11.45-.08.61.08l.25.25c.58.58 1.53.58 2.12 0l.7-.71c.58-.59.58-1.54 0-2.13l-.26-.26c-.17-.17-.2-.42-.09-.62 .22-.43.41-.89.56-1.36 .06-.22.26-.38.49-.38h.36c.82 0 1.5-.68 1.5-1.5v-1c0-.83-.68-1.5-1.5-1.5h-.37c-.23 0-.43-.16-.5-.38 -.15-.48-.34-.93-.57-1.36 -.11-.21-.08-.46.08-.62l.25-.26c.58-.59.58-1.54 0-2.13l-.71-.71c-.59-.59-1.54-.59-2.13 0l-.26.25c-.17.16-.42.19-.62.08 -.43-.23-.89-.42-1.36-.57 -.22-.07-.38-.27-.38-.5v-.37c0-.83-.68-1.5-1.5-1.5h-1Zm.49 13c1.65 0 3-1.35 3-3 0-1.66-1.35-3-3-3 -1.66 0-3 1.34-3 3 0 1.65 1.34 3 3 3Z"/></g></svg>