<svg viewBox="0 0 24 24" xmlns="http://www.w3.org/2000/svg"><g><g fill="#12131A"><path d="M17 22c.55 0 1-.45 1-1v-4h-2v4c0 .55.44 1 1 1Z"/><path d="M8 21c0 .55-.45 1-1 1 -.56 0-1-.45-1-1V9h2v12Z"/><path d="M8 7H6V3c0-.56.44-1 1-1 .55 0 1 .44 1 1v4Z"/><path d="M18 15h-2V3c0-.56.44-1 1-1 .55 0 1 .44 1 1v12Z"/><g fill="#12131A" fill-rule="evenodd"><path d="M10 8c0 1.65-1.35 3-3 3 -1.66 0-3-1.35-3-3 0-1.66 1.34-3 3-3 1.65 0 3 1.34 3 3ZM8 8c0 .55-.45 1-1 1 -.56 0-1-.45-1-1 0-.56.44-1 1-1 .55 0 1 .44 1 1Z"/><path d="M20 16c0 1.65-1.35 3-3 3 -1.66 0-3-1.35-3-3 0-1.66 1.34-3 3-3 1.65 0 3 1.34 3 3Zm-2 0c0 .55-.45 1-1 1 -.56 0-1-.45-1-1 0-.56.44-1 1-1 .55 0 1 .44 1 1Z"/></g></g></g></svg>