<svg viewBox="0 0 24 24" xmlns="http://www.w3.org/2000/svg"><g><path opacity=".25" fill="#12131A" fill-rule="evenodd" d="M10 3.5c0-.83.67-1.5 1.5-1.5h1c.82 0 1.5.67 1.5 1.5v.36c0 .22.15.42.37.49 .47.14.92.33 1.35.56 .2.1.45.07.61-.09l.25-.26c.58-.59 1.53-.59 2.12 0l.7.7c.58.58.58 1.53 0 2.12l-.26.25c-.17.16-.2.41-.09.61 .22.42.41.88.56 1.35 .06.21.26.37.49.37h.36c.82 0 1.5.67 1.5 1.5v1c0 .82-.68 1.5-1.5 1.5h-.37c-.23 0-.43.15-.5.37 -.15.47-.34.92-.57 1.35 -.11.2-.08.45.08.61l.25.25c.58.58.58 1.53 0 2.12l-.71.7c-.59.58-1.54.58-2.13 0l-.26-.26c-.17-.17-.42-.2-.62-.09 -.43.22-.89.41-1.36.56 -.22.06-.38.26-.38.49v.36c0 .82-.68 1.5-1.5 1.5h-1c-.83 0-1.5-.68-1.5-1.5v-.37c0-.23-.16-.43-.38-.5 -.48-.15-.93-.34-1.36-.57 -.21-.11-.46-.08-.62.08l-.26.25c-.59.58-1.54.58-2.13 0l-.71-.71c-.59-.59-.59-1.54 0-2.13l.25-.26c.16-.17.19-.42.08-.62 -.23-.43-.42-.89-.57-1.36 -.07-.22-.27-.38-.5-.38h-.37c-.83 0-1.5-.68-1.5-1.5v-1c0-.83.67-1.5 1.5-1.5h.36c.22 0 .42-.16.49-.38 .14-.48.33-.93.56-1.36 .1-.21.07-.46-.09-.62l-.26-.26c-.59-.59-.59-1.54 0-2.13l.7-.71c.58-.59 1.53-.59 2.12 0l.25.25c.16.16.41.19.61.08 .42-.23.88-.42 1.35-.57 .21-.07.37-.27.37-.5v-.37Z"/><path fill="#12131A" d="M15 12c0 1.65-1.35 3-3 3 -1.66 0-3-1.35-3-3 0-1.66 1.34-3 3-3 1.65 0 3 1.34 3 3Z"/></g></svg>