<svg viewBox="0 0 24 24" xmlns="http://www.w3.org/2000/svg"><g><g fill="#12131A"><path d="M2 7c0-.56.44-1 1-1h4v2H3c-.56 0-1-.45-1-1Z"/><path d="M3 16c-.56 0-1 .44-1 1 0 .55.44 1 1 1h12v-2H3Z"/><path d="M17 16v2h4c.55 0 1-.45 1-1 0-.56-.45-1-1-1h-4Z"/><path d="M9 6v2h12c.55 0 1-.45 1-1 0-.56-.45-1-1-1H9Z"/><g fill="#12131A" fill-rule="evenodd"><path d="M11 7c0 1.65-1.35 3-3 3 -1.66 0-3-1.35-3-3 0-1.66 1.34-3 3-3 1.65 0 3 1.34 3 3ZM9 7c0 .55-.45 1-1 1 -.56 0-1-.45-1-1 0-.56.44-1 1-1 .55 0 1 .44 1 1Z"/><path d="M19 17c0 1.65-1.35 3-3 3 -1.66 0-3-1.35-3-3 0-1.66 1.34-3 3-3 1.65 0 3 1.34 3 3Zm-2 0c0 .55-.45 1-1 1 -.56 0-1-.45-1-1 0-.56.44-1 1-1 .55 0 1 .44 1 1Z"/></g></g></g></svg>