<svg viewBox="0 0 24 24" xmlns="http://www.w3.org/2000/svg"><g><g fill="#12131A"><path d="M8.06 8.06l-4.69.38c-1.32.1-1.87 1.74-.87 2.62l3.69 3.24c.13.12.19.3.15.48l-1.19 5.36c-.3 1.34 1.21 2.34 2.33 1.54l4.19-2.99c.17-.13.4-.13.58 0l4.19 2.98c1.11.79 2.62-.21 2.33-1.55l-.39-1.74L8.01 8.01Z"/><path d="M19.281 10.34l-3.7-.31c-.95-.08-1.77-.68-2.12-1.56l-1.48-3.66 -.23.55c-.27.66-1.13.83-1.64.33 -.29-.29-.37-.71-.22-1.08l.68-1.71c.5-1.26 2.27-1.26 2.78 0l1.93 4.8c.07.17.23.29.42.31l4.86.39c1.31.1 1.86 1.74.86 2.62l-2.49 2.18c-.4.34-1 .32-1.37-.04 -.42-.41-.4-1.08.04-1.47l1.6-1.42Z"/><path fill="#12131A" fill-rule="evenodd" d="M2.29 2.29c.39-.4 1.02-.4 1.41 0l17.99 18c.39.39.39 1.02 0 1.41 -.4.39-1.03.39-1.42 0L2.26 3.7c-.4-.4-.4-1.03 0-1.42Z"/></g></g></svg>