<svg viewBox="0 0 24 24" xmlns="http://www.w3.org/2000/svg"><g><g fill="#12131A"><path d="M7.25 7.25l-2.97.24c-2.18.18-3.09 2.87-1.48 4.34l2.94 2.67 -.97 4.43c-.49 2.24 2.04 3.9 3.9 2.55l3.29-2.38 3.29 2.37c1.77 1.28 4.17-.18 3.95-2.27l-2.6-2.6 .59 2.72c.09.44-.41.78-.79.51l-3.59-2.6c-.53-.38-1.24-.38-1.76 0l-3.59 2.59c-.38.26-.88-.07-.79-.52l1.02-4.72c.11-.53-.07-1.07-.46-1.43l-3.16-2.87c-.33-.3-.15-.84.29-.87l4.14-.35c.15-.02.3-.05.43-.11L7.14 7.16Z"/><g fill="#12131A" fill-rule="evenodd"><path d="M9.69 3.51c.86-2.03 3.73-2.03 4.6 0l1.55 3.66 3.84.32c2.17.18 3.08 2.87 1.47 4.34l-1.71 1.54c-.41.37-1.05.34-1.42-.07 -.38-.41-.35-1.05.06-1.42l1.7-1.55c.32-.3.14-.84-.3-.87l-4.15-.35c-.56-.05-1.04-.4-1.26-.91l-1.68-3.95c-.18-.41-.75-.41-.93 0l-.21.48c-.22.5-.81.74-1.32.52 -.51-.22-.75-.81-.53-1.32l.2-.49Z"/><path d="M2.29 2.29c.39-.4 1.02-.4 1.41 0l17.99 18c.39.39.39 1.02 0 1.41 -.4.39-1.03.39-1.42 0L2.26 3.7c-.4-.4-.4-1.03 0-1.42Z"/></g></g></g></svg>