<svg viewBox="0 0 24 24" xmlns="http://www.w3.org/2000/svg"><g><path fill="#12131A" fill-rule="evenodd" d="M9.69 3.51c.86-2.03 3.73-2.03 4.6 0l1.55 3.66 3.84.32c2.17.18 3.08 2.87 1.47 4.34L18.2 14.5l.96 4.43c.48 2.24-2.05 3.9-3.91 2.55l-3.3-2.38 -3.3 2.37c-1.86 1.34-4.4-.32-3.91-2.56l.96-4.44 -2.95-2.68c-1.62-1.47-.71-4.17 1.47-4.35l3.84-.33 1.55-3.67Zm2.76.78c-.18-.41-.75-.41-.93 0L9.84 8.23c-.22.51-.71.86-1.26.9l-4.15.34c-.44.03-.62.57-.3.86l3.15 2.86c.39.36.57.9.45 1.42L6.7 19.32c-.1.44.4.78.78.51l3.58-2.6c.52-.38 1.23-.38 1.75 0l3.58 2.59c.37.26.87-.07.78-.52l-1.03-4.72c-.12-.53.06-1.07.45-1.43l3.15-2.87c.32-.3.14-.84-.3-.87l-4.15-.35c-.56-.05-1.04-.4-1.26-.91L12.35 4.2Z"/></g></svg>