<svg viewBox="0 0 24 24" xmlns="http://www.w3.org/2000/svg"><g><g fill="#12131A"><path opacity=".25" d="M19 8H5v11c0 1.65 1.34 3 3 3h8c1.65 0 3-1.35 3-3V8Z"/><path d="M10 12c-.56 0-1 .44-1 1v4c0 .55.44 1 1 1 .55 0 1-.45 1-1v-4c0-.56-.45-1-1-1Z"/><path d="M14 12c-.56 0-1 .44-1 1v4c0 .55.44 1 1 1 .55 0 1-.45 1-1v-4c0-.56-.45-1-1-1Z"/><path fill="#12131A" fill-rule="evenodd" d="M8 6V5c0-1.66 1.34-3 3-3h2c1.65 0 3 1.34 3 3v1h3c.55 0 1 .44 1 1 0 .55-.45 1-1 1H5c-.56 0-1-.45-1-1 0-.56.44-1 1-1h3Zm2-1c0-.56.44-1 1-1h2c.55 0 1 .44 1 1v1h-4V5Z"/></g></g></svg>