<svg viewBox="0 0 24 24" xmlns="http://www.w3.org/2000/svg"><g><path fill="#12131A" fill-rule="evenodd" d="M3 9.4c0-2.25 0-3.37.43-4.22 .38-.76.99-1.37 1.74-1.75 .51-.27 1.11-.37 2-.41 .27-.02.41-.02.52.03 .09.04.18.12.23.21 .05.1.05.25.05.53v16.36c0 .28 0 .42-.06.53 -.05.09-.14.17-.24.21 -.12.05-.25.04-.53.03 -.89-.05-1.5-.15-2.01-.41 -.76-.39-1.37-1-1.75-1.75 -.44-.86-.44-1.98-.44-4.22v-5.2Zm7 10.8c0 .28 0 .42.05.52 .04.09.12.17.21.21 .1.05.24.05.52.05h2.4c.28 0 .42 0 .52-.06 .09-.05.17-.13.21-.22 .05-.11.05-.25.05-.53V3.77c0-.29 0-.43-.06-.53 -.05-.1-.13-.18-.22-.22 -.11-.06-.25-.06-.53-.06h-2.4c-.28 0-.42 0-.53.05 -.1.04-.18.12-.22.21 -.06.1-.06.24-.06.52v16.4Zm6.81.77c-.28.01-.42.01-.53-.04 -.1-.05-.19-.13-.24-.22 -.06-.11-.06-.26-.06-.54V3.8c0-.29 0-.43.05-.54 .04-.1.13-.18.23-.22 .11-.06.24-.05.52-.04 .88.04 1.49.14 2 .4 .75.38 1.36.99 1.74 1.74 .43.85.43 1.97.43 4.21v5.2c0 2.24 0 3.36-.44 4.21 -.39.75-1 1.36-1.75 1.74 -.52.26-1.12.36-2.01.4Z"/></g></svg>