<svg viewBox="0 0 24 24" xmlns="http://www.w3.org/2000/svg"><g><path fill="#12131A" fill-rule="evenodd" d="M3.43 5.18c-.44.85-.44 1.97-.44 4.21v5.2c0 2.24 0 3.36.43 4.21 .38.75.99 1.36 1.74 1.74 .85.43 1.97.43 4.21.43h5.2c2.24 0 3.36 0 4.21-.44 .75-.39 1.36-1 1.74-1.75 .43-.86.43-1.98.43-4.22v-5.2c0-2.25 0-3.37-.44-4.22 -.39-.76-1-1.37-1.75-1.75 -.86-.44-1.98-.44-4.22-.44h-5.2c-2.25 0-3.37 0-4.22.43 -.76.38-1.37.99-1.75 1.74Zm13.56 2.81c0-.56-.45-1-1-1 -.56 0-1 .44-1 1v4c0 .55.44 1 1 1 .55 0 1-.45 1-1v-4Zm-5-1c.55 0 1 .44 1 1v8c0 .55-.45 1-1 1 -.56 0-1-.45-1-1v-8c0-.56.44-1 1-1Zm-3 1c0-.56-.45-1-1-1 -.56 0-1 .44-1 1v6c0 .55.44 1 1 1 .55 0 1-.45 1-1v-6Z"/></g></svg>