<svg viewBox="0 0 24 24" xmlns="http://www.w3.org/2000/svg"><g><g fill-rule="evenodd" fill="#12131A"><path opacity=".25" d="M4.17 4.17c-.3.29-.55.63-.74 1.01 -.44.85-.44 1.97-.44 4.21v5.2c0 2.24 0 3.36.43 4.21 .38.75.99 1.36 1.74 1.74 .85.43 1.97.43 4.21.43h5.2c2.24 0 3.36 0 4.21-.44 .37-.2.71-.45 1.01-.74L4.13 4.13Z"/><path d="M7.58 7.58c-.37.36-.59.86-.59 1.41 0 1.1.89 1.99 2 1.99 .55 0 1.05-.23 1.41-.59L7.57 7.56Zm6.19 6.19l-1.44-1.44 -1.77 1.26c-.48.34-.54.36-.58.38 -.07.02-.15.02-.22.01 -.05-.01-.11-.03-.64-.29l-.53-.26 -.09-.05h-.01c-.35-.18-.7-.35-1.09-.4 -.34-.06-.68-.04-1 .05 -.38.09-.71.3-1.04.5l-.08.04 -2.35 1.45c0 .97 0 1.71.06 2.3l3.33-2.07c.46-.29.52-.31.55-.32 .06-.02.13-.03.19-.02 .03 0 .09.02.58.26l.52.25 .08.04c.37.18.75.36 1.15.42 .35.04.71.01 1.06-.09 .39-.13.73-.37 1.07-.61l.08-.06 2.03-1.46Z"/><path opacity=".25" d="M17.089 5.03c-.46-.04-1.04-.04-1.89-.04h-5.2c-.56 0-1-.45-1-1 0-.56.44-1 1-1h5.24c.8-.01 1.46-.01 2.01.04 .56.04 1.07.14 1.56.39 .75.38 1.36.99 1.74 1.74 .24.48.34 1 .39 1.56 .04.54.04 1.2.04 2.01v5.24c0 .55-.45 1-1 1 -.56 0-1-.45-1-1v-5.2c0-.86-.01-1.44-.04-1.89 -.04-.44-.11-.67-.19-.82 -.2-.38-.5-.69-.88-.88 -.16-.08-.39-.15-.82-.19Z"/><path d="M2.29 2.29c.39-.4 1.02-.4 1.41 0l17.99 18c.39.39.39 1.02 0 1.41 -.4.39-1.03.39-1.42 0L2.26 3.7c-.4-.4-.4-1.03 0-1.42Z"/></g></g></svg>