<svg viewBox="0 0 24 24" xmlns="http://www.w3.org/2000/svg"><g><g fill="#12131A"><path d="M21 19.4c0 .88-.68 1.6-1.5 1.6 -.83 0-1.5-.72-1.5-1.6 0-.85.73-1.78 1.17-2.26 .17-.2.46-.2.64 0 .44.48 1.17 1.41 1.17 2.25Z"/><g fill-rule="evenodd" fill="#12131A"><path opacity=".25" d="M7.91 9.08l2.67-2.68 -.87-.86c-.74-.74-1.94-.74-2.68-.01 -.74.73-.74 1.93-.01 2.67l.86.86Zm6.08-2.09l-2-2.01 -.01 0 -.87-.87c-1.52-1.52-3.99-1.52-5.5-.01 -1.52 1.51-1.52 3.98-.01 5.49l.86.86 -2.92 2.91c-.79.78-.79 2.04 0 2.82l4.17 4.17c.78.78 2.04.78 2.82 0l5.19-5.2c.14-.15.32-.24.51-.28l2.88-.55c.78-.16 1.08-1.13.51-1.69l-5.71-5.71Z"/><path d="M4.33 17l3.41 3.41c.78.78 2.04.78 2.82 0l3.41-3.42H4.3Z"/></g></g></g></svg>