<svg viewBox="0 0 24 24" xmlns="http://www.w3.org/2000/svg"><g><g fill="#12131A"><path opacity=".25" d="M19 13c1.1 0 2 .89 2 2v4c0 1.1-.9 2-2 2h-6.8c-.45 0-.67-.54-.36-.86l7.14-7.15Z"/><path opacity=".25" d="M11 19l8.41-8.42c.78-.79.78-2.05 0-2.83l-3.18-3.18c-.79-.79-2.05-.79-2.83-.01l-2.42 2.41v11.99Z"/><path fill="#12131A" fill-rule="evenodd" d="M5 3c-1.11 0-2 .89-2 2v14c0 1.1.89 2 2 2h4c1.1 0 2-.9 2-2V5c0-1.11-.9-2-2-2H5Zm2 15c.55 0 1-.45 1-1 0-.56-.45-1-1-1 -.56 0-1 .44-1 1 0 .55.44 1 1 1Z"/></g></g></svg>