<svg viewBox="0 0 24 24" xmlns="http://www.w3.org/2000/svg"><g><g fill="#12131A" fill-rule="evenodd"><path d="M7 9c0-.56.44-1 1-1 .55 0 1 .44 1 1v6c0 .55-.45 1-1 1 -.56 0-1-.45-1-1V9Zm4 0c0-.56.44-1 1-1 .55 0 1 .44 1 1v4c0 .55-.45 1-1 1 -.56 0-1-.45-1-1V9Zm5-1c-.56 0-1 .44-1 1v6c0 .55.44 1 1 1 .55 0 1-.45 1-1V9c0-.56-.45-1-1-1Z"/><path opacity=".25" d="M6.2 4h-.04 -.01c-.53-.01-.99-.01-1.36.03 -.4.03-.79.1-1.17.29 -.57.28-1.03.74-1.32 1.31 -.2.37-.27.77-.3 1.16 -.04.37-.04.82-.04 1.35v0 .03 .8c0 .55.44 1 1 1 .55 0 1-.45 1-1v-.8c0-.58 0-.95.02-1.24 .02-.28.05-.38.08-.43 .09-.19.24-.35.43-.44 .04-.03.15-.07.42-.09 .28-.03.65-.03 1.23-.03h.8c.55 0 1-.45 1-1 0-.56-.45-1-1-1h-.8Zm11.6 16h.03c.52 0 .98 0 1.35-.04 .39-.04.78-.11 1.16-.3 .56-.29 1.02-.75 1.31-1.32 .19-.38.26-.78.29-1.17 .03-.38.03-.83.03-1.36v0 0 -.01 -.04 -.8c0-.56-.45-1-1-1 -.56 0-1 .44-1 1v.8c0 .57-.01.94-.03 1.23 -.03.27-.06.37-.09.42 -.1.18-.25.34-.44.43 -.05.02-.16.06-.43.08 -.29.02-.66.02-1.24.02h-.8c-.56 0-1 .44-1 1 0 .55.44 1 1 1h.8ZM2 15.83v-.04 -.8c0-.56.44-1 1-1 .55 0 1 .44 1 1v.8c0 .57 0 .94.02 1.23 .02.27.05.37.08.42 .09.18.24.34.43.43 .04.02.15.06.42.08 .28.02.65.02 1.23.02h.8c.55 0 1 .44 1 1 0 .55-.45 1-1 1h-.8 -.04c-.53 0-.99 0-1.36-.04 -.4-.04-.79-.11-1.17-.3 -.57-.29-1.03-.75-1.32-1.32 -.2-.38-.27-.78-.3-1.17 -.04-.38-.04-.83-.04-1.36v-.01Zm20-7.64v-.04c0-.53 0-.99-.04-1.36 -.04-.4-.11-.79-.3-1.17 -.29-.57-.75-1.03-1.32-1.32 -.38-.2-.78-.27-1.17-.3 -.38-.04-.83-.04-1.36-.04h-.01 -.04 -.8c-.56 0-1 .44-1 1 0 .55.44 1 1 1h.8c.57 0 .94 0 1.23.02 .27.02.37.05.42.08 .18.09.34.24.43.43 .02.04.06.15.08.42 .02.28.02.65.02 1.23v.8c0 .55.44 1 1 1 .55 0 1-.45 1-1v-.8Z"/></g></g></svg>