<svg viewBox="0 0 24 24" xmlns="http://www.w3.org/2000/svg"><g><g fill="#12131A" fill-rule="evenodd"><path d="M11 10v10h7c1.65 0 3-1.35 3-3v-4c0-1.66-1.35-3-3-3h-7Zm4 2h-2v6h5c.55 0 1-.45 1-1v-4c0-.56-.45-1-1-1h-1v1c0 .55-.45 1-1 1 -.56 0-1-.45-1-1v-1Z"/><path d="M6 10c-1.66 0-3 1.34-3 3v4c0 1.65 1.34 3 3 3h7V10H6Zm1 2H6c-.56 0-1 .44-1 1v4c0 .55.44 1 1 1h5v-6H9v1c0 .55-.45 1-1 1 -.56 0-1-.45-1-1v-1Z"/><path d="M10 2C8.34 2 7 3.34 7 5v7h10V5c0-1.66-1.35-3-3-3h-4Zm1 2h-1c-.56 0-1 .44-1 1v5h6V5c0-.56-.45-1-1-1h-1v1c0 .55-.45 1-1 1 -.56 0-1-.45-1-1V4Z"/></g></g></svg>