<svg viewBox="0 0 24 24" xmlns="http://www.w3.org/2000/svg"><g><g opacity=".25"><g fill="#12131A"><path d="M10 2c-1.11 0-2 .89-2 2v4c0 1.1.89 2 2 2h4c1.1 0 2-.9 2-2V4c0-1.11-.9-2-2-2h-4Z"/><path d="M3 14c0-1.11.89-2 2-2h4c1.1 0 2 .89 2 2v4c0 1.1-.9 2-2 2H5c-1.11 0-2-.9-2-2v-4Z"/><path d="M13 14c0-1.11.89-2 2-2h4c1.1 0 2 .89 2 2v4c0 1.1-.9 2-2 2h-4c-1.11 0-2-.9-2-2v-4Z"/></g></g><g fill="#12131A"><path d="M11 2h2v2c0 .55-.45 1-1 1 -.56 0-1-.45-1-1V2Z"/><path d="M6 12h2v2c0 .55-.45 1-1 1 -.56 0-1-.45-1-1v-2Z"/><path d="M18 12h-2v2c0 .55.44 1 1 1 .55 0 1-.45 1-1v-2Z"/></g></g></svg>