<svg viewBox="0 0 24 24" xmlns="http://www.w3.org/2000/svg"><g><g fill="#12131A" fill-rule="evenodd"><path d="M15 12c-1.11 0-2 .89-2 2v4c0 1.1.89 2 2 2h4c1.1 0 2-.9 2-2v-4c0-1.11-.9-2-2-2h-.5c-.28 0-.5.22-.5.5V14c0 .55-.45 1-1 1 -.56 0-1-.45-1-1v-1.5c0-.28-.23-.5-.5-.5H15Z"/><path d="M5 12c-1.11 0-2 .89-2 2v4c0 1.1.89 2 2 2h4c1.1 0 2-.9 2-2v-4c0-1.11-.9-2-2-2h-.5c-.28 0-.5.22-.5.5V14c0 .55-.45 1-1 1 -.56 0-1-.45-1-1v-1.5c0-.28-.23-.5-.5-.5H5Z"/><path d="M10 2c-1.11 0-2 .89-2 2v4c0 1.1.89 2 2 2h4c1.1 0 2-.9 2-2V4c0-1.11-.9-2-2-2h-.5c-.28 0-.5.22-.5.5V4c0 .55-.45 1-1 1 -.56 0-1-.45-1-1V2.5c0-.28-.23-.5-.5-.5H10Z"/></g></g></svg>