<svg viewBox="0 0 24 24" xmlns="http://www.w3.org/2000/svg"><g><path fill="#12131A" fill-rule="evenodd" d="M20.87 14.61c.5.57 1.12 1.45 1.12 2.53 0 1.57-1.28 2.85-2.86 2.85H4.83c-1.58 0-2.86-1.28-2.86-2.86 0-1.09.62-1.97 1.12-2.54 .39-.45.87-1.26.87-2.62s-.49-2.17-.88-2.62c-.51-.58-1.13-1.46-1.13-2.54 0-1.58 1.27-2.86 2.85-2.86l14.29-.01c1.57 0 2.85 1.27 2.85 2.85 0 1.08-.63 1.96-1.13 2.53 -.4.44-.88 1.25-.88 2.61 0 1.35.48 2.16.87 2.61ZM14.7 9.29c-.4-.4-1.03-.4-1.42 0l-4.01 4c-.4.39-.4 1.02 0 1.41 .39.39 1.02.39 1.41 0l4-4c.39-.4.39-1.03 0-1.42Zm-3.71.7c0 .55-.45 1-1 1 -.56 0-1-.45-1-1 0-.56.44-1 1-1 .55 0 1 .44 1 1Zm2 4c0 .55.44 1 1 1 .55 0 1-.45 1-1 0-.56-.45-1-1-1 -.56 0-1 .44-1 1Z"/></g></svg>