<svg viewBox="0 0 24 24" xmlns="http://www.w3.org/2000/svg"><g><g fill="#12131A" fill-rule="evenodd"><path d="M20.56 13.39c.63.72 1.43 1.8 1.43 3.13 0 1.91-1.56 3.47-3.48 3.47H5.45c-1.92 0-3.48-1.56-3.48-3.48 0-1.33.79-2.41 1.43-3.14 .32-.38.56-.83.56-1.4s-.25-1.03-.57-1.4c-.64-.73-1.44-1.81-1.44-3.14 0-1.92 1.55-3.48 3.47-3.48l13.05-.01c1.91 0 3.47 1.55 3.47 3.47 0 1.32-.8 2.4-1.44 3.13 -.33.37-.57.82-.57 1.39 0 .56.24 1.02.56 1.39Zm-.57 3.13c0-.55-.35-1.14-.94-1.82 -.54-.62-1.07-1.53-1.07-2.71 0-1.19.52-2.1 1.06-2.71 .59-.69.93-1.28.93-1.82 0-.82-.66-1.48-1.48-1.48l-13.06 0c-.82 0-1.48.65-1.48 1.47 0 .54.34 1.13.93 1.81 .53.61 1.06 1.52 1.06 2.7 0 1.18-.53 2.09-1.07 2.7 -.6.68-.94 1.27-.94 1.81 0 .81.65 1.47 1.47 1.47h13.05c.81 0 1.47-.66 1.47-1.48Z"/><path d="M10 11c-.56 0-1-.45-1-1 0-.56.44-1 1-1 .55 0 1 .44 1 1 0 .55-.45 1-1 1Zm4.7-.3l-4 4c-.4.39-1.03.39-1.42 0 -.4-.4-.4-1.03 0-1.42l4-4.01c.39-.4 1.02-.4 1.41 0 .39.39.39 1.02 0 1.41Zm-1.71 3.29c0 .55.44 1 1 1 .55 0 1-.45 1-1 0-.56-.45-1-1-1 -.56 0-1 .44-1 1Z"/></g></g></svg>