<svg viewBox="0 0 24 24" xmlns="http://www.w3.org/2000/svg"><g><g fill="#12131A" fill-rule="evenodd"><path d="M2 7c0-1.66 1.34-3 3-3h5c1.65 0 3 1.34 3 3v9c0 1.1-.9 2-2 2H8v-2h3V7c0-.56-.45-1-1-1H5c-.56 0-1 .44-1 1v8c0 .55.44 1 1 1h1v2H5c-1.66 0-3-1.35-3-3V7Z"/><path d="M11 7h5.22c.74 0 1.46.27 2.02.78l2.77 2.53c.62.56.97 1.37.97 2.21v2.46c0 1.65-1.35 3-3 3h-1v-2h1c.55 0 1-.45 1-1v-2.47c0-.29-.12-.55-.33-.74l-2.78-2.54c-.19-.17-.43-.27-.68-.27h-3.23v7h3v2h-5v-11Z"/><path d="M8 17c0 .55-.45 1-1 1 -.56 0-1-.45-1-1 0-.56.44-1 1-1 .55 0 1 .44 1 1Zm2 0c0 1.65-1.35 3-3 3 -1.66 0-3-1.35-3-3 0-1.66 1.34-3 3-3 1.65 0 3 1.34 3 3Zm8 0c0 .55-.45 1-1 1 -.56 0-1-.45-1-1 0-.56.44-1 1-1 .55 0 1 .44 1 1Zm2 0c0 1.65-1.35 3-3 3 -1.66 0-3-1.35-3-3 0-1.66 1.34-3 3-3 1.65 0 3 1.34 3 3Z"/></g></g></svg>