<svg viewBox="0 0 24 24" xmlns="http://www.w3.org/2000/svg"><g><g fill="#12131A"><path d="M4 4c-1.11 0-2 .89-2 2v10c0 1.1.89 2 2 2h10V6c0-1.11-.9-2-2-2H4Z"/><path d="M16.61 7h-2.62v11h6c1.1 0 2-.9 2-2v-3.92c0-.57-.24-1.1-.66-1.48l-3.39-3.09c-.37-.34-.85-.53-1.35-.53Z"/><path fill="#12131A" fill-rule="evenodd" d="M8.41 19.41c.37-.38.58-.89.58-1.42h-2 -2c0 .53.21 1.03.58 1.41 .37.37.88.58 1.41.58 .53 0 1.03-.22 1.41-.59Zm9.99 0c.37-.38.58-.89.58-1.42h-2 -2c0 .53.21 1.03.58 1.41 .37.37.88.58 1.41.58 .53 0 1.03-.22 1.41-.59Z"/></g></g></svg>