<svg viewBox="0 0 24 24" xmlns="http://www.w3.org/2000/svg"><g><g fill="#12131A" fill-rule="evenodd"><path d="M18.6 3.2c.44.33.53.95.2 1.4l-12.01 16c-.34.44-.96.53-1.4.2 -.45-.34-.54-.96-.2-1.4l12-16.01c.33-.45.95-.54 1.4-.2Z"/><path d="M8 6.5C8 7.32 7.32 8 6.5 8 5.67 8 5 7.32 5 6.5 5 5.67 5.67 5 6.5 5 7.32 5 8 5.67 8 6.5Zm2 0C10 8.43 8.43 10 6.5 10 4.56 10 3 8.43 3 6.5 3 4.56 4.56 3 6.5 3 8.43 3 10 4.56 10 6.5Zm9 11c0 .82-.68 1.5-1.5 1.5 -.83 0-1.5-.68-1.5-1.5 0-.83.67-1.5 1.5-1.5 .82 0 1.5.67 1.5 1.5Zm2 0c0 1.93-1.57 3.5-3.5 3.5 -1.94 0-3.5-1.57-3.5-3.5 0-1.94 1.56-3.5 3.5-3.5 1.93 0 3.5 1.56 3.5 3.5Z"/></g></g></svg>