<svg viewBox="0 0 24 24" xmlns="http://www.w3.org/2000/svg"><g><g fill="#12131A"><path d="M3.21 12.092c-.22.42-.22.98-.22 2.1v3.6c0 1.12 0 1.68.21 2.1 .19.37.49.68.87.87 .42.21.98.21 2.1.21h11.6c1.12 0 1.68 0 2.1-.22 .37-.2.68-.5.87-.88 .21-.43.21-.99.21-2.11v-3.6c0-1.13 0-1.69-.22-2.11 -.2-.38-.5-.69-.88-.88 -.43-.22-.99-.22-2.11-.22H6.14c-1.13 0-1.69 0-2.11.21 -.38.19-.69.49-.88.87Z"/><path d="M12.51 6.93c-.17.04-.34.06-.52.06s-.36-.03-.52-.07L9.69 8.69c-.4.39-1.03.39-1.42 0 -.4-.4-.4-1.03 0-1.42l1.77-1.78c-.05-.17-.07-.34-.07-.52 0-1.11.89-2 2-2 1.1 0 2 .89 2 2 0 .17-.03.35-.07.51l1.77 1.77c.39.39.39 1.02 0 1.41 -.4.39-1.03.39-1.42 0l-1.78-1.78Z"/></g></g></svg>