<svg viewBox="0 0 24 24" xmlns="http://www.w3.org/2000/svg"><g><g fill="#12131A"><path opacity=".25" d="M3.21 11.092c-.22.42-.22.98-.22 2.1v4.6c0 1.12 0 1.68.21 2.1 .19.37.49.68.87.87 .42.21.98.21 2.1.21h11.6c1.12 0 1.68 0 2.1-.22 .37-.2.68-.5.87-.88 .21-.43.21-.99.21-2.11v-4.6c0-1.13 0-1.69-.22-2.11 -.2-.38-.5-.69-.88-.88 -.43-.22-.99-.22-2.11-.22H6.14c-1.13 0-1.69 0-2.11.21 -.38.19-.69.49-.88.87Z"/><path d="M12 7c.17 0 .35-.03.51-.07l3.06 3.06h2.21c.22 0 .43 0 .61 0L13.9 5.5c.04-.17.06-.34.06-.52 0-1.11-.9-2-2-2 -1.11 0-2 .89-2 2 0 .17.02.35.06.51L5.53 9.97c.18-.01.38-.01.61-.01h2.21l3.06-3.07c.16.04.33.06.51.06Z"/></g></g></svg>