<svg viewBox="0 0 24 24" xmlns="http://www.w3.org/2000/svg"><g><path fill="#12131A" fill-rule="evenodd" d="M17.99 5H6c-.86 0-1.32.99-.77 1.64l3.81 4.5c.61.72.94 1.63.94 2.58v4.26c0 .72.75 1.21 1.41.9l2-.92c.35-.17.58-.52.58-.91V13.7c0-.95.33-1.87.94-2.59l3.8-4.51c.54-.65.08-1.65-.77-1.65ZM6 3h11.98c2.55 0 3.93 2.98 2.29 4.93l-3.81 4.5c-.31.36-.48.81-.48 1.29v3.34c0 1.17-.69 2.23-1.75 2.72l-2 .92c-1.99.91-4.26-.54-4.26-2.73V13.7c0-.48-.17-.94-.48-1.3L3.67 7.89C2.01 5.94 3.4 2.95 5.95 2.95Z"/></g></svg>