<svg viewBox="0 0 24 24" xmlns="http://www.w3.org/2000/svg"><g><g fill="#12131A"><path opacity=".25" d="M4 13c0-.56.44-1 1-1h14c.55 0 1 .44 1 1v5c0 1.65-1.35 3-3 3H7c-1.66 0-3-1.35-3-3v-5Z"/><path d="M3 9c0-1.11.89-2 2-2h14c1.1 0 2 .89 2 2v1c0 1.1-.9 2-2 2H5c-1.11 0-2-.9-2-2V9Z"/><path fill="#12131A" fill-rule="evenodd" d="M7 6c0-1.66 1.34-3 3-3 .76 0 1.46.28 2 .76 .53-.48 1.23-.77 2-.77 1.65 0 3 1.34 3 3 0 1.65-1.35 3-3 3h-1v12h-2v-12h-1c-1.66 0-3-1.35-3-3Zm4 1h-1c-.56 0-1-.45-1-1 0-.56.44-1 1-1 .55 0 1 .44 1 1v1Zm2 0h1c.55 0 1-.45 1-1 0-.56-.45-1-1-1 -.56 0-1 .44-1 1v1Z"/></g></g></svg>