<svg viewBox="0 0 24 24" xmlns="http://www.w3.org/2000/svg"><g><g fill="#12131A" fill-rule="evenodd"><path d="M4 12h16v5c0 2.2-1.8 4-4 4H8c-2.21 0-4-1.8-4-4v-5Zm2 2v3c0 1.1.89 2 2 2h8c1.1 0 2-.9 2-2v-3H6Z"/><path d="M3 10c0-1.66 1.34-3 3-3h12c1.65 0 3 1.34 3 3v1c0 1.65-1.35 3-3 3H6c-1.66 0-3-1.35-3-3v-1Zm3-1c-.56 0-1 .44-1 1v1c0 .55.44 1 1 1h12c.55 0 1-.45 1-1v-1c0-.56-.45-1-1-1H6Z"/><path d="M7 6c0-1.66 1.34-3 3-3 .76 0 1.46.28 2 .76 .53-.48 1.23-.77 2-.77 1.65 0 3 1.34 3 3 0 1.65-1.35 3-3 3h-1v12h-2v-12h-1c-1.66 0-3-1.35-3-3Zm4 1V6c0-.56-.45-1-1-1 -.56 0-1 .44-1 1 0 .55.44 1 1 1h1Zm2-1v1h1c.55 0 1-.45 1-1 0-.56-.45-1-1-1 -.56 0-1 .44-1 1Z"/></g></g></svg>