<svg viewBox="0 0 24 24" xmlns="http://www.w3.org/2000/svg"><g><path fill="#12131A" fill-rule="evenodd" d="M20.67 4.26c.4.37.43 1 .06 1.41l-1.75 1.9 1.71 1.71c.39.39.39 1.02 0 1.41 -.4.39-1.03.39-1.42 0l-1.66-1.66 -7.91 8.62 -1.48-1.36L19.21 4.28c.37-.41 1-.44 1.41-.07ZM3.28 13.29c.39-.4 1.02-.4 1.41 0l3 3L6.27 17.7l-3-3c-.4-.4-.4-1.03 0-1.42Z"/><g fill="#12131A"><path d="M4.58 10.41l2 2c.78.78 2.04.78 2.82 0l4-4.01c.78-.79.78-2.05 0-2.83l-2.01-2.01c-.79-.79-2.05-.79-2.83 0l-4.01 4c-.79.78-.79 2.04-.01 2.82Z"/><path d="M11 18c0 1.65-1.35 3-3 3 -1.66 0-3-1.35-3-3 0-1.66 1.34-3 3-3 1.65 0 3 1.34 3 3Z"/></g></g></svg>