<svg viewBox="0 0 24 24" xmlns="http://www.w3.org/2000/svg"><g><g fill="#12131A"><path d="M19 11.5c0-.83.67-1.5 1.5-1.5v0c.82 0 1.5.67 1.5 1.5v0c0 .82-.68 1.5-1.5 1.5v0c-.83 0-1.5-.68-1.5-1.5v0Z"/><g fill="#12131A" fill-rule="evenodd"><path d="M5.98 13.8l.73 3.67c.06.3.32.52.63.52 .35 0 .64-.3.64-.65v-3.36h1.99v3.35c0 1.46-1.19 2.64-2.65 2.64 -1.27 0-2.35-.9-2.6-2.13l-.74-3.68 1.96-.4Z"/><path d="M21 7.5c0-2.71-2.94-4.39-5.27-3.03l-3.9 2.28c-1.38.8-2.95 1.23-4.55 1.23H5.49c-1.94 0-3.5 1.56-3.5 3.5 0 1.93 1.56 3.5 3.5 3.5h1.78c1.59 0 3.17.42 4.55 1.23l3.89 2.28c2.33 1.36 5.26-.32 5.26-3.02V7.48Zm-4.26-1.3c.99-.585 2.25.13 2.25 1.29v7.98c0 1.15-1.26 1.88-2.26 1.29l-3.9-2.29c-.6-.35-1.21-.64-1.85-.87V9.3c.63-.23 1.25-.52 1.84-.87l3.89-2.29ZM8.99 9.85c-.57.08-1.14.13-1.72.13H5.48c-.83 0-1.5.67-1.5 1.5 0 .82.67 1.5 1.5 1.5h1.78c.57 0 1.14.04 1.71.13V9.84Z"/></g></g></g></svg>