<svg viewBox="0 0 24 24" xmlns="http://www.w3.org/2000/svg"><g><g fill="#12131A" fill-rule="evenodd"><path d="M4 3h16v15.49c0 2.05-2.35 3.23-4 2l-.71-.53c-.18-.14-.43-.14-.6 0l-.31.22c-1.43 1.06-3.38 1.06-4.8 0l-.31-.23c-.18-.14-.43-.14-.6-.01l-.71.52c-1.65 1.22-4 .05-4-2.01V2.95Zm2 2v13.49c0 .41.46.64.79.4l.7-.53c.88-.67 2.1-.66 2.99 0l.3.22c.71.53 1.68.53 2.4 0l.3-.23c.88-.67 2.1-.67 2.99-.01l.7.52c.32.24.79.01.79-.41V4.95h-12Z"/><path d="M9 8c-.56 0-1 .44-1 1 0 .55.44 1 1 1h2c.55 0 1-.45 1-1 0-.56-.45-1-1-1H9Zm6 0c-.56 0-1 .44-1 1 0 .55.44 1 1 1 .55 0 1-.45 1-1 0-.56-.45-1-1-1Zm-7 5c0-.56.44-1 1-1h2c.55 0 1 .44 1 1 0 .55-.45 1-1 1H9c-.56 0-1-.45-1-1Zm7-1c-.56 0-1 .44-1 1 0 .55.44 1 1 1 .55 0 1-.45 1-1 0-.56-.45-1-1-1Z"/></g><path fill="#12131A" d="M3 4c0-.56.44-1 1-1h16c.55 0 1 .44 1 1v0c0 .55-.45 1-1 1H4c-.56 0-1-.45-1-1v0Z"/></g></svg>