<svg viewBox="0 0 24 24" xmlns="http://www.w3.org/2000/svg"><g><path fill="#12131A" fill-rule="evenodd" d="M4 15c.55 0 1 .44 1 1 0 .99 0 1.29.06 1.51 .18.69.72 1.22 1.41 1.41 .22.05.52.06 1.51.06 .55 0 1 .44 1 1 0 .55-.45 1-1 1h-.14c-.8 0-1.39 0-1.9-.14 -1.39-.37-2.46-1.45-2.83-2.83 -.14-.52-.14-1.11-.14-1.9v0l0-.14c0-.56.44-1 1-1Zm12 6h.13v0c.79 0 1.38 0 1.89-.14 1.38-.37 2.45-1.45 2.82-2.83 .13-.52.13-1.11.13-1.9v-.14c0-.56-.45-1-1-1 -.56 0-1 .44-1 1 0 .99-.01 1.29-.07 1.51 -.19.69-.73 1.22-1.42 1.41 -.23.05-.53.06-1.52.06 -.56 0-1 .44-1 1 0 .55.44 1 1 1Z"/><g fill="#12131A"><path d="M3 12c0-.56.44-1 1-1h16c.55 0 1 .44 1 1v0c0 .55-.45 1-1 1H4c-.56 0-1-.45-1-1v0Z"/><path d="M3 7.5c0-1.4 0-2.1.22-2.65 .3-.74.88-1.32 1.62-1.63 .55-.23 1.25-.23 2.64-.23h9c1.39 0 2.09 0 2.64.22 .73.3 1.31.88 1.62 1.62 .22.55.22 1.25.22 2.64v0c0 .46 0 .69-.08.88 -.11.24-.3.43-.55.54 -.19.07-.42.07-.89.07h-15c-.47 0-.7 0-.89-.08 -.25-.11-.44-.3-.55-.55 -.08-.19-.08-.42-.08-.89v0Z"/></g></g></svg>