<svg viewBox="0 0 24 24" xmlns="http://www.w3.org/2000/svg"><g><g fill="#12131A"><path opacity=".25" d="M4 3c-.56 0-1 .44-1 1 0 .55.44 1 1 1h.36c.47 0 .88.33.98.8l1.51 7.58c.18.93 1 1.6 1.96 1.6h8.88c.93 0 1.73-.65 1.94-1.55l1.3-5.62c.21-.95-.5-1.84-1.47-1.84H7.38l-.12-.59c-.29-1.41-1.52-2.42-2.95-2.42h-.37Z"/><path fill="#12131A" fill-rule="evenodd" d="M11 19c0 1.1-.9 2-2 2 -1.11 0-2-.9-2-2 0-1.11.89-2 2-2 1.1 0 2 .89 2 2Zm8 0c0 1.1-.9 2-2 2 -1.11 0-2-.9-2-2 0-1.11.89-2 2-2 1.1 0 2 .89 2 2Z"/></g></g></svg>