<svg viewBox="0 0 24 24" xmlns="http://www.w3.org/2000/svg"><g><path fill="#12131A" fill-rule="evenodd" d="M10.41 4.17c.75-.76 1.76-1.18 2.82-1.18h4.75c1.65 0 3 1.34 3 3v4.75c0 1.06-.43 2.07-1.18 2.82l-6.54 6.53c-1.18 1.17-3.08 1.17-4.25 0l-5.18-5.18c-1.18-1.18-1.18-3.08 0-4.25l6.53-6.54Zm2.82.82c-.54 0-1.04.21-1.42.58L5.27 12.1c-.4.39-.4 1.02 0 1.41l5.17 5.17c.39.39 1.02.39 1.41 0l6.53-6.54c.37-.38.58-.89.58-1.42V5.96c0-.56-.45-1-1-1H13.2Z"/><g fill="#12131A"><path d="M4.58 10l1.41-1.42 9.41 9.41 -1.42 1.41 -9.42-9.42Z"/><path d="M17 8c0 .55-.45 1-1 1 -.56 0-1-.45-1-1 0-.56.44-1 1-1 .55 0 1 .44 1 1Z"/></g></g></svg>