<svg viewBox="0 0 24 24" xmlns="http://www.w3.org/2000/svg"><g><g fill="#12131A" fill-rule="evenodd"><path d="M3.75 10h16.49l-1.75 7.86c-.41 1.83-2.03 3.13-3.91 3.13H9.39c-1.88 0-3.5-1.31-3.91-3.14L3.73 9.98Zm2.49 2l1.2 5.43c.2.91 1.01 1.56 1.95 1.56h5.18c.93 0 1.74-.66 1.95-1.57l1.2-5.44H6.21Z"/><path d="M10.7 4.7c.39-.4.39-1.03 0-1.42 -.4-.4-1.03-.4-1.42 0l-3 3c-.4.39-.4 1.02 0 1.41 .39.39 1.02.39 1.41 0l2.99-3Zm2.58 0c-.4-.4-.4-1.03 0-1.42 .39-.4 1.02-.4 1.41 0l3 3c.39.39.39 1.02 0 1.41 -.4.39-1.03.39-1.42 0l-3-3Z"/><path d="M10 14c-.56 0-1 .44-1 1v1c0 .55.44 1 1 1 .55 0 1-.45 1-1v-1c0-.56-.45-1-1-1Zm4 0c-.56 0-1 .44-1 1v1c0 .55.44 1 1 1 .55 0 1-.45 1-1v-1c0-.56-.45-1-1-1Z"/><path d="M3 9c0-1.66 1.34-3 3-3h12c1.65 0 3 1.34 3 3 0 1.65-1.35 3-3 3H6c-1.66 0-3-1.35-3-3Zm3-1c-.56 0-1 .44-1 1 0 .55.44 1 1 1h12c.55 0 1-.45 1-1 0-.56-.45-1-1-1H6Z"/></g></g></svg>