<svg viewBox="0 0 24 24" xmlns="http://www.w3.org/2000/svg"><g><g fill="#12131A" fill-rule="evenodd"><path d="M11 19c0 1.1-.9 2-2 2 -1.11 0-2-.9-2-2 0-1.11.89-2 2-2 1.1 0 2 .89 2 2Zm8 0c0 1.1-.9 2-2 2 -1.11 0-2-.9-2-2 0-1.11.89-2 2-2 1.1 0 2 .89 2 2Z"/><path d="M3 4c0-.56.44-1 1-1h.36C5.79 3 7.02 4 7.3 5.41l.11.58h11.07c1.65 0 2.85 1.58 2.4 3.18l-1.03 3.63c-.37 1.29-1.55 2.18-2.89 2.18H9.61c-1.44 0-2.67-1.01-2.95-2.42L5.3 5.77c-.1-.47-.51-.81-.99-.81h-.37c-.56 0-1-.45-1-1Zm4.81 4l.83 4.19c.09.46.5.8.98.8h7.34c.44 0 .84-.3.96-.73l1.02-3.64c.09-.32-.15-.64-.49-.64H7.77Z"/></g></g></svg>