<svg viewBox="0 0 24 24" xmlns="http://www.w3.org/2000/svg"><g><g fill="#12131A" fill-rule="evenodd"><path d="M8.1 3.79c-.1-.35-.15-.53-.21-.61 -.07-.09-.12-.12-.22-.16 -.1-.04-.23-.04-.49-.02 -.7.02-1.17.1-1.56.3 -.57.28-1.03.74-1.32 1.31 -.33.64-.33 1.48-.33 3.16v9.39c0 1.68 0 2.52.32 3.16 .28.56.74 1.02 1.31 1.31 .64.32 1.48.32 3.16.32h6.4c1.68 0 2.52 0 3.16-.33 .56-.29 1.02-.75 1.31-1.32 .32-.65.32-1.49.32-3.17v-9.4c0-1.69 0-2.53-.33-3.17 -.29-.57-.75-1.03-1.32-1.32 -.4-.21-.87-.28-1.56-.31 -.27-.02-.4-.02-.49.01 -.1.03-.15.07-.22.15 -.07.08-.12.25-.21.6 -.35 1.26-1.52 2.2-2.9 2.2h-2c-1.39 0-2.55-.94-2.9-2.21Zm4.89 5.2c-.56 0-1 .44-1 1 0 .55.44.99 1 .99h2c.55 0 1-.45 1-1 0-.56-.45-1-1-1h-2Zm-1 4.99c0-.56.44-1 1-1h2c.55 0 1 .44 1 1 0 .55-.45 1-1 1h-2c-.56 0-1-.45-1-1Zm1 3c-.56 0-1 .44-1 1 0 .55.44 1 1 1h2c.55 0 1-.45 1-1 0-.56-.45-1-1-1h-2Zm-3-7c0 .55-.45.99-1 .99 -.56 0-1-.45-1-1 0-.56.44-1 1-1 .55 0 1 .44 1 1Zm-1 4.99c.55 0 1-.45 1-1 0-.56-.45-1-1-1 -.56 0-1 .44-1 1 0 .55.44 1 1 1Zm1 3c0 .55-.45 1-1 1 -.56 0-1-.45-1-1 0-.56.44-1 1-1 .55 0 1 .44 1 1Z"/><path d="M13 2h-2c-.56 0-1 .44-1 1 0 .55.44 1 1 1h2c.55 0 1-.45 1-1 0-.56-.45-1-1-1Z"/></g></g></svg>