<svg viewBox="0 0 24 24" xmlns="http://www.w3.org/2000/svg"><g><path fill="#12131A" fill-rule="evenodd" d="M12.82 3c-.8 0-1.56.31-2.13.87L6.33 8.22c-.2.19-.2.51 0 .7l8.7 8.7c.19.19.51.19.7 0l4.35-4.36c.56-.57.87-1.33.87-2.13V4.95c0-1.11-.9-2-2-2h-6.18Zm4.17 5c0 .55-.45 1-1 1 -.56 0-1-.45-1-1 0-.56.44-1 1-1 .55 0 1 .44 1 1Z"/><path fill="#12131A" d="M13.64 19.76c.19-.2.19-.52 0-.71l-8.71-8.71c-.2-.2-.52-.2-.71 0l-.65.64c-.79.78-.79 2.04 0 2.82l6.58 6.58c.78.78 2.04.78 2.82 0l.64-.65Z"/></g></svg>