<svg viewBox="0 0 24 24" xmlns="http://www.w3.org/2000/svg"><g><g fill="#12131A"><path d="M12.05 10h-.11c.01 0 .03 0 .05 0 .01 0 .03-.01.05-.01Z"/><path d="M18.03 10c-.02 0-.03 0-.04 0 -.02 0-.03-.01-.05-.01h.08Z"/><path d="M19.25 11.81c.35-.11.74.14.74.5v5.67c0 1.65-1.35 3-3 3h-1.87c-.63 0-1.14-.52-1.14-1.14v-2.87c0-1.11-.9-2-2-2 -1.11 0-2 .89-2 2v2.86c0 .62-.52 1.13-1.14 1.13H6.97c-1.66 0-3-1.35-3-3v-5.68c0-.37.38-.62.74-.51 .39.11.82.18 1.25.18 1.04 0 1.91-.33 2.59-.74 .18-.12.4-.11.59-.01 .73.44 1.66.73 2.81.73 1.15 0 2.08-.3 2.81-.74 .18-.11.4-.12.59 0 .67.41 1.54.73 2.59.73 .43 0 .85-.07 1.25-.19Z"/><path d="M7 3c1-.01 9 0 10 0 2-.01 4 1.49 4 3.99 0 1.5-1.5 2.99-3 2.99 -2 0-3-2-3-2s-.5 2-3 1.99c-2.5-.01-3-2-3-2s-1 1.99-3 1.99c-1.5 0-3-1.5-3-3 0-2.5 2-4 4-4Z"/></g></g></svg>