<svg viewBox="0 0 24 24" xmlns="http://www.w3.org/2000/svg"><g><g fill="#12131A"><path d="M9 20.5c0-.28.22-.5.5-.5h5c.27 0 .5.22.5.5v.5c0 .55-.45 1-1 1h-4c-.56 0-1-.45-1-1v-.5Z"/><path d="M16 16.92c2.39-1.39 4-3.97 4-6.93 0-4.42-3.59-8-8-8 -4.42 0-8 3.58-8 8 0 2.96 1.6 5.54 4 6.92v.07c0 .55.44 1 1 1h1.5c.27 0 .5-.23.5-.5v-4.09l-1.71-1.71c-.4-.4-.4-1.03 0-1.42 .39-.4 1.02-.4 1.41 0l1.29 1.29 1.29-1.3c.39-.4 1.02-.4 1.41 0 .39.39.39 1.02 0 1.41l-1.71 1.7v4.08c0 .27.22.5.5.5h1.5c.55 0 1-.45 1-1v-.08Z"/></g></g></svg>