<svg viewBox="0 0 24 24" xmlns="http://www.w3.org/2000/svg"><g><path fill="#12131A" fill-rule="evenodd" d="M4 6.8c0-1.69 0-2.53.32-3.17 .28-.57.74-1.03 1.31-1.32 .64-.33 1.48-.33 3.16-.33h4.71c.73 0 1.1 0 1.44.08 .3.07.59.19.86.35 .3.18.56.44 1.08.96l1.68 1.68c.51.51.77.77.96 1.08 .16.26.28.56.35.86 .08.34.08.71.08 1.44v8.71c0 1.68 0 2.52-.33 3.16 -.29.56-.75 1.02-1.32 1.31 -.65.32-1.49.32-3.17.32h-6.4c-1.69 0-2.53 0-3.17-.33 -.57-.29-1.03-.75-1.32-1.32 -.33-.65-.33-1.49-.33-3.17V6.71ZM12 5c0-.56.44-1 1-1 .55 0 1 .44 1 1v2c0 .55-.45 1-1 1 -.56 0-1-.45-1-1V5ZM9 4c-.56 0-1 .44-1 1v2c0 .55.44 1 1 1 .55 0 1-.45 1-1V5c0-.56-.45-1-1-1Z"/></g></svg>