<svg viewBox="0 0 24 24" xmlns="http://www.w3.org/2000/svg"><g><g fill="#12131A"><path d="M11.29 11.29l-8 8c-.29.28-.38.71-.22 1.08 .15.37.51.61.92.61h15.99c.27 0 .52-.12.7-.3l-9.42-9.42Z"/><g fill="#12131A" fill-rule="evenodd"><path d="M20.38 3.07c.37.15.61.51.61.92v9.99c0 .55-.45 1-1 1 -.56 0-1-.45-1-1V6.39l-3.3 3.29c-.4.39-1.03.39-1.42 0 -.4-.4-.4-1.03 0-1.42l5-5c.28-.29.71-.38 1.08-.22Z"/><path d="M2.29 2.29c.39-.4 1.02-.4 1.41 0l17.99 18c.39.39.39 1.02 0 1.41 -.4.39-1.03.39-1.42 0L2.26 3.7c-.4-.4-.4-1.03 0-1.42Z"/></g></g></g></svg>