<svg viewBox="0 0 24 24" xmlns="http://www.w3.org/2000/svg"><g><path fill="#12131A" fill-rule="evenodd" d="M3.63 19.67c.64.32 1.48.32 3.16.32h10.4c1.68 0 2.52 0 3.16-.33 .56-.29 1.02-.75 1.31-1.32 .32-.65.32-1.49.32-3.17v-6.4c0-1.69 0-2.53-.33-3.17 -.29-.57-.75-1.03-1.32-1.32 -.65-.33-1.49-.33-3.17-.33H8.39c-.75 0-1.12 0-1.47.08 -.31.07-.61.19-.88.36 -.31.18-.57.45-1.09.984L3.31 7.03c-.51.51-.77.77-.95 1.07 -.17.26-.28.55-.36.85 -.09.34-.09.7-.09 1.42v4.73c0 1.68 0 2.52.32 3.16 .28.56.74 1.02 1.31 1.31Zm7.47-8.13c-.11.21-.11.49-.11 1.05v1.8c0 .56 0 .84.1 1.05 .09.18.24.34.43.43 .21.1.49.1 1.05.1h3.8c.56 0 .84 0 1.05-.11 .18-.1.34-.25.43-.44 .1-.22.1-.5.1-1.06v-1.8c0-.57 0-.85-.11-1.06 -.1-.19-.25-.35-.44-.44 -.22-.11-.5-.11-1.06-.11h-3.8c-.57 0-.85 0-1.06.1 -.19.09-.35.24-.44.43Z"/></g></svg>