<svg viewBox="0 0 24 24" xmlns="http://www.w3.org/2000/svg"><g><path fill="#12131A" fill-rule="evenodd" d="M6.69 10.15c-.46.85-.7 2.16-.7 3.84 0 1.57.45 3.15 1.11 4.31 .33.58.69 1.02 1.04 1.3 .35.28.63.37.83.37 .25 0 .41-.05.51-.09 .12-.05.23-.12.42-.25 .42-.29 1-.67 2.05-.67 1.05 0 1.62.38 2.05.66 .19.13.3.19.42.24 .1.04.26.08.51.08 .3 0 .8-.21 1.39-.82 .38-.4.75-.91 1.06-1.5 -1.45-.61-2.47-2.03-2.47-3.7 0-1.71 1.07-3.17 2.58-3.75 -.53-.86-1.25-1.26-2.09-1.26 -.5 0-.82.14-1.31.39 -.01 0-.02 0-.03.01 -.51.25-1.19.59-2.17.59 -.99 0-1.67-.34-2.17-.6 -.01-.01-.02-.01-.03-.02 -.5-.25-.81-.4-1.31-.4 -.83 0-1.39.37-1.81 1.15Zm-1.77-.94c.71-1.35 1.89-2.22 3.57-2.22 .98 0 1.66.33 2.16.59 0 0 .01 0 .02.01 .49.24.8.39 1.3.39 .49 0 .81-.15 1.3-.4 0-.01.01-.01.02-.02 .5-.26 1.18-.6 2.16-.6 2.27 0 3.77 1.59 4.45 3.68 .2.63-.26 1.31-.96 1.31 -1.11 0-2 .89-2 2 0 1.04.8 1.9 1.82 1.99 .68.06 1.21.76.93 1.49 -.47 1.2-1.15 2.29-1.93 3.09 -.77.77-1.75 1.41-2.83 1.41 -1.06 0-1.63-.39-2.06-.67 -.2-.13-.31-.2-.43-.25 -.11-.05-.27-.09-.52-.09 -.26 0-.42.04-.52.08 -.13.04-.24.11-.43.24 -.43.28-1.01.66-2.06.66 -.8 0-1.52-.35-2.11-.83 -.59-.48-1.1-1.14-1.52-1.87 -.84-1.47-1.39-3.39-1.39-5.31 0-1.82.25-3.51.92-4.79Z"/><path fill="#12131A" d="M12 5.55c0-1.97 1.59-3.56 3.55-3.56v0c.24 0 .44.19.44.44v0c0 1.96-1.6 3.55-3.56 3.55v0c-.25 0-.45-.2-.45-.45v0Z"/></g></svg>