<svg viewBox="0 0 24 24" xmlns="http://www.w3.org/2000/svg"><g><path fill="#12131A" fill-rule="evenodd" d="M7 2C5.34 2 4 3.34 4 5v14.69c0 1.27 1.03 2.3 2.3 2.3 .76 0 1.48-.39 1.91-1.03l3.01-4.53c.18-.28.49-.45.83-.45h3.29c1.42 0 2.65-1.01 2.93-2.4l1.63-8c.37-1.86-1.05-3.61-2.94-3.61H6.95ZM6 5c0-.56.44-1 1-1h10c.63 0 1.1.58.97 1.2l-.58 2.79h-5.41c-.56 0-1 .44-1 1 0 .55.44 1 1 1h5l-.66 3.2c-.1.46-.51.8-.98.8h-3.3c-1.01 0-1.94.5-2.5 1.33l-3.02 4.52c-.06.08-.16.13-.26.13 -.17 0-.31-.14-.31-.31V4.96Z"/></g></svg>