<svg viewBox="0 0 24 24" xmlns="http://www.w3.org/2000/svg"><g><path fill="#12131A" fill-rule="evenodd" d="M2.29 13.94c.36-.59 1-.95 1.7-.95 .18 0 .4-.01.64-.01 -.2-.33-.37-.67-.51-1.03 -.71-1.79-.66-3.81-.05-5.72 .25-.82 1-1.38 1.85-1.4 .85-.03 1.62.49 1.92 1.29 .33.88.74 1.23 1.2 1.45 .29.13.66.23 1.14.3 .66-2.3 2.73-3.91 5.27-3.91 .74 0 1.46.17 2.04.41 .23.09.48.21.71.34l1.42-.23c.71-.12 1.42.16 1.87.72 .45.56.56 1.32.29 1.99l-.87 2.15c-.07 3.41-1.05 6.1-2.9 7.95 -1.92 1.91-4.5 2.64-7.11 2.64 -1.71 0-3.47-.29-5-.9 -1.51-.61-3-1.62-3.8-3.22 -.31-.62-.28-1.36.08-1.95Zm16.7-4.95l1-2.5 -2.23.35c-.02-.02-.04-.04-.06-.06 -.47-.42-1.37-.81-2.23-.81 -2 0-3.5 1.5-3.5 3.5v.5c-.73 0-1.4-.03-2-.12 -.93-.13-1.72-.38-2.38-.83 -.7-.48-1.24-1.19-1.63-2.22C5.6 7.9 5.5 9 5.64 9.99c.15 1.02.56 1.94 1.25 2.67 .52.55 1.21.99 2.05 1.27 -.71.47-1.64.72-2.53.85 -.04 0-.08.01-.12.01 -.96.13-1.86.13-2.37.13 .39.79 1.11 1.43 2.03 1.91 1.36.72 3.16 1.08 4.96 1.08 4.5 0 8-2.5 8-9Z"/></g></svg>