<svg viewBox="0 0 24 24" xmlns="http://www.w3.org/2000/svg"><g><g fill="#12131A" fill-rule="evenodd"><path d="M13 5h-2v6H3v2h8v6h2v-6h8v-2h-8V5Z"/><path d="M17.88 5.035c-.33.01-.75.07-1.4.17l-9.6 1.38c-.51.07-.83.11-1.07.17 -.24.05-.32.09-.37.12 -.17.1-.29.25-.37.42 -.03.04-.06.14-.08.37 -.02.24-.02.57-.02 1.07v6.45c0 .5 0 .83.01 1.07 .01.23.04.32.07.37 .07.17.2.32.36.42 .04.02.13.07.36.12 .24.05.56.1 1.06.17l9.59 1.38c.64.09 1.07.15 1.39.17 .31.01.42-.02.48-.04 .21-.09.39-.24.5-.45 .02-.05.07-.16.1-.48 .02-.33.02-.76.02-1.41V7.27c0-.66-.01-1.09-.03-1.41 -.03-.32-.08-.43-.11-.48 -.12-.21-.3-.36-.51-.45 -.06-.03-.17-.06-.49-.04Zm-.12-2c.43-.03.88-.01 1.32.16 .64.25 1.18.71 1.52 1.32 .23.4.31.84.35 1.28 .03.41.03.93.03 1.53v9.31c0 .6 0 1.11-.04 1.53 -.04.43-.13.87-.36 1.28 -.35.6-.88 1.06-1.53 1.32 -.44.17-.89.19-1.33.16 -.42-.03-.93-.1-1.53-.19l-9.68-1.4c-.46-.07-.86-.13-1.19-.2 -.35-.08-.69-.19-1.01-.4 -.49-.32-.87-.76-1.11-1.28 -.16-.35-.22-.7-.25-1.06 -.03-.34-.03-.74-.03-1.2V8.66c-.01-.47-.01-.87.02-1.2 .02-.36.08-.71.24-1.06 .23-.53.62-.97 1.1-1.28 .32-.21.66-.32 1-.4 .32-.08.72-.14 1.18-.2l9.67-1.4c.59-.09 1.1-.16 1.52-.19Z"/></g></g></svg>