<svg viewBox="0 0 24 24" xmlns="http://www.w3.org/2000/svg"><g><path fill="#12131A" fill-rule="evenodd" d="M12 6c-2.55 0-4.69.09-6.28.2 -.84.05-1.51.71-1.56 1.6 -.09 1.37-.17 2.93-.17 4.19 0 1.25.07 2.81.16 4.19 .05.89.72 1.54 1.55 1.6 1.58.1 3.72.2 6.27.2 2.54 0 4.68-.1 6.27-.21 .83-.06 1.5-.72 1.55-1.61 .08-1.38.16-2.94.16-4.2 0-1.26-.08-2.82-.17-4.2 -.06-.9-.73-1.55-1.56-1.61 -1.59-.11-3.73-.21-6.28-.21ZM5.58 4.2c-1.87.12-3.3 1.6-3.42 3.46 -.1 1.39-.18 3-.18 4.32 0 1.32.08 2.93.17 4.32 .12 1.86 1.55 3.343 3.41 3.46 1.62.11 3.81.2 6.41.2 2.59 0 4.78-.1 6.41-.21 1.86-.13 3.29-1.61 3.41-3.47 .09-1.39.17-3.01.17-4.33 0-1.33-.09-2.94-.18-4.33 -.13-1.87-1.56-3.35-3.42-3.47 -1.63-.12-3.82-.21-6.42-.21s-4.79.09-6.42.2Z"/><path fill="#12131A" d="M10 10c0-.8.88-1.28 1.55-.84l2.99 1.98c.6.4.6 1.29-.01 1.7l-3 1.98c-.67.44-1.56-.04-1.56-.84V9.983Z"/></g></svg>