<svg viewBox="0 0 24 24" xmlns="http://www.w3.org/2000/svg"><g><g fill="#12131A"><path opacity=".25" d="M11.28 11.28l8.71 8.71c0 1.1-.9 2-2 2h-12c-1.11 0-2-.9-2-2V17.5c0-.65.31-1.26.83-1.63l6.44-4.61Z"/><g fill-rule="evenodd" fill="#12131A"><path opacity=".25" d="M8 3c0-.56.44-1 1-1h9c1.1 0 2 .89 2 2v2.48c0 .64-.32 1.25-.84 1.62l-2.59 1.84c-.45.32-1.08.21-1.4-.24 -.33-.45-.22-1.08.23-1.4l2.58-1.85V3.96h-9c-.56 0-1-.45-1-1Z"/><path d="M2.29 2.29c.39-.4 1.02-.4 1.41 0l17.99 18c.39.39.39 1.02 0 1.41 -.4.39-1.03.39-1.42 0L2.26 3.7c-.4-.4-.4-1.03 0-1.42Z"/></g></g></g></svg>