<svg viewBox="0 0 24 24" xmlns="http://www.w3.org/2000/svg"><g><path fill="#12131A" fill-rule="evenodd" d="M4 20c-.56 0-1 .44-1 1 0 .55.44 1 1 1h16c.55 0 1-.45 1-1 0-.56-.45-1-1-1H4Z"/><g fill="#12131A"><path opacity=".25" d="M21 11c0 4.97-4.03 9-9 9 -4.98 0-9-4.03-9-9 0-4.98 4.02-9 9-9 4.97 0 9 4.02 9 9Z"/><path fill="#12131A" fill-rule="evenodd" d="M10.7 7.7c.39-.4.39-1.03 0-1.42 -.4-.4-1.03-.4-1.42 0l-2 2c-.4.39-.4 1.02 0 1.41 .39.39 1.02.39 1.41 0l1.99-2Zm4 2c.39-.4.39-1.03 0-1.42 -.4-.4-1.03-.4-1.42 0l-4.01 4c-.4.39-.4 1.02 0 1.41 .39.39 1.02.39 1.41 0l4-4Z"/></g></g></svg>