<svg viewBox="0 0 24 24" xmlns="http://www.w3.org/2000/svg"><g><g fill="#12131A"><path opacity=".25" d="M21 15.5c0 2.21-1.11 4.16-2.8 5.34 -.16.1-.35.15-.54.15H11.3c-.19 0-.38-.06-.54-.16 -1.69-1.18-2.8-3.128-2.8-5.35 0-3.59 2.91-6.5 6.5-6.5 3.58 0 6.5 2.91 6.5 6.5Z"/><g fill="#12131A" fill-rule="evenodd"><path d="M6 9C4.45 9 3 7.65 3 6c0-1.66 1.45-3 3-3 1.83 0 3.3 1.12 4.15 2h1.89c.23-1.15 1.24-2 2.45-2 1.2 0 2.21.85 2.45 2h3.05c.55 0 1 .44 1 1 0 .55-.45 1-1 1h-3v1c0 .55-.45 1-1 1h-3c-.56 0-1-.45-1-1V7h-1.85c-.86.87-2.33 2-4.16 2Z"/><path d="M8.3 6c-.67.56-1.47 1-2.31 1 -.49 0-1-.5-1-1 0-.51.51-1 1-1 .83 0 1.63.43 2.3 1Zm1.85-1h1.89c.23-1.15 1.24-2 2.45-2 1.2 0 2.21.85 2.45 2h3.04c.55 0 1 .44 1 1 0 .55-.45 1-1 1h-3v1c0 .55-.45 1-1 1h-3c-.56 0-1-.45-1-1V7h-1.85c-.06.05-.11.1-.16.15 -.88.84-2.28 1.84-4 1.84 -1.55 0-3-1.35-3-3 0-1.66 1.45-3 3-3 1.83 0 3.3 1.12 4.15 2Zm3.84 2h1V5.44l-.01-.05c-.05-.23-.26-.4-.49-.4 -.24 0-.45.17-.49.39l-.01.04v1.55Z"/></g></g></g></svg>