<svg viewBox="0 0 24 24" xmlns="http://www.w3.org/2000/svg"><g><g fill="#12131A"><path d="M10 20h4v0c0 1.1-.9 2-2 2v0c-1.11 0-2-.9-2-2v0Z"/><path fill="#12131A" fill-rule="evenodd" d="M12 2c-.56 0-1 .44-1 1v1c0 .02 0 .05 0 .08 -2.84.47-5.01 2.94-5.01 5.91v1.95c0 .43-.16.84-.44 1.17l-.65.73c-2.09 2.39-.39 6.13 2.78 6.13h8.58c3.17 0 4.87-3.74 2.78-6.14l-.65-.74c-.29-.33-.44-.75-.44-1.18V9.95c0-2.98-2.17-5.45-5.01-5.92 0-.03 0-.06 0-.09v-1c0-.56-.45-1-1-1Zm-4 8c0-2.21 1.79-4 3.99-4s4 1.79 4 4v1.95c0 .91.33 1.79.93 2.48l.64.73c.95 1.1.17 2.81-1.29 2.81H7.68c-1.46 0-2.25-1.72-1.29-2.82l.64-.74c.6-.69.93-1.58.93-2.49V9.96Z"/></g></g></svg>