<svg viewBox="0 0 24 24" xmlns="http://www.w3.org/2000/svg"><g><g fill="#12131A"><path d="M10 20h4c0 1.1-.9 2-2 2 -1.11 0-2-.9-2-2Z"/><path fill="#12131A" fill-rule="evenodd" d="M6.87 6.87c-.56.9-.88 1.97-.88 3.12v1.95c0 .43-.16.84-.44 1.17l-.65.73c-2.09 2.39-.39 6.13 2.78 6.13h8.58c1.07 0 1.97-.43 2.62-1.09l-1.42-1.42c-.3.3-.72.49-1.21.49H7.66c-1.46 0-2.25-1.72-1.29-2.82l.64-.74c.6-.69.93-1.58.93-2.49V9.94c0-.59.12-1.15.35-1.65L6.81 6.81Z"/><path d="M12 2c-.56 0-1 .44-1 1v1c-.56 0-1 .44-1 1 0 .55.44 1 1 1h1c2.2 0 4 1.79 4 4v1c0 .55.44 1 1 1 .55 0 1-.45 1-1v-1c0-2.98-2.17-5.45-5.01-5.92 0-.03 0-.06 0-.09v-1c0-.56-.45-1-1-1Z"/><path fill="#12131A" fill-rule="evenodd" d="M2.29 2.29c.39-.4 1.02-.4 1.41 0l17.99 18c.39.39.39 1.02 0 1.41 -.4.39-1.03.39-1.42 0L2.26 3.7c-.4-.4-.4-1.03 0-1.42Z"/></g></g></svg>