<svg viewBox="0 0 24 24" xmlns="http://www.w3.org/2000/svg"><g><g fill="#12131A"><path d="M5.97 5.97c-2.06 1.54-3.19 3.61-3.71 4.77 -.36.8-.36 1.71 0 2.51 .86 1.95 3.62 6.73 9.73 6.73 2.54 0 4.52-.84 6.02-1.98l-1.44-1.44c-1.17.81-2.67 1.4-4.6 1.4 -4.86 0-7.12-3.78-7.91-5.56 -.13-.29-.13-.61-.01-.9 .46-1.04 1.45-2.83 3.21-4.09 .03-.03.06-.05.08-.08L5.91 5.9Z"/><path d="M9.17 9.17c-.73.72-1.18 1.72-1.18 2.82 0 2.2 1.79 4 4 4 1.1 0 2.1-.45 2.82-1.18l-1.42-1.42c-.37.36-.87.58-1.42.58 -1.11 0-2-.9-2-2 0-.56.22-1.06.58-1.42L9.13 9.13Z"/><path d="M12 4c6.1 0 8.86 4.78 9.72 6.74 .35.8.35 1.71 0 2.51 -.16.34-.37.77-.64 1.24 -.28.47-.89.64-1.37.36 -.48-.28-.65-.89-.37-1.37 .22-.4.4-.76.53-1.06 .12-.29.12-.61 0-.9 -.8-1.79-3.05-5.56-7.91-5.56l-1.01 0c-.56 0-1-.45-1-1 -.01-.56.44-1.01 1-1.01l1-.01Z"/><path fill="#12131A" fill-rule="evenodd" d="M2.29 2.29c.39-.4 1.02-.4 1.41 0l17.99 18c.39.39.39 1.02 0 1.41 -.4.39-1.03.39-1.42 0L2.26 3.7c-.4-.4-.4-1.03 0-1.42Z"/></g></g></svg>