<svg viewBox="0 0 24 24" xmlns="http://www.w3.org/2000/svg"><g><g fill="#12131A" fill-rule="evenodd"><path d="M12 6c-4.86 0-7.12 3.77-7.91 5.55 -.13.28-.13.6 0 .89 .79 1.78 3.04 5.55 7.9 5.55 4.85 0 7.11-3.78 7.9-5.56 .12-.29.12-.61 0-.9 -.8-1.79-3.05-5.56-7.91-5.56Zm-9.74 4.73c.86-1.96 3.62-6.74 9.73-6.74 6.1 0 8.86 4.78 9.73 6.74 .35.8.35 1.71 0 2.51 -.87 1.95-3.63 6.74-9.73 6.74 -6.11 0-8.87-4.79-9.74-6.74 -.36-.81-.36-1.72 0-2.53Z"/><path d="M12 8c-2.21 0-4 1.79-4 4 0 2.2 1.79 4 4 4 2.2 0 4-1.8 4-4 0-2.21-1.8-4-4-4Zm-.09 2c.02-.01.05-.01.08-.01 1.1 0 2 .89 2 2 0 1.1-.9 2-2 2 -1.11 0-2-.9-2-2 0-.03 0-.06 0-.09 .15.05.32.08.49.08 .82 0 1.5-.68 1.5-1.5 0-.18-.03-.35-.09-.5Z"/></g></g></svg>