<svg viewBox="0 0 24 24" xmlns="http://www.w3.org/2000/svg"><g><g fill="#12131A"><path d="M4 4c-.01.17-.01.36-.01.56v11.67c-.01.8-.01 1.46.04 2.01 .04.56.14 1.07.39 1.56 .38.75.99 1.36 1.74 1.74 .48.24 1 .34 1.56.39 .54.04 1.2.04 2.01.04h4.48c.8 0 1.46 0 2.01-.05 .56-.05 1.07-.15 1.56-.4 .75-.39 1.36-1 1.74-1.75 .02-.06.05-.12.08-.18l-1.68-1.68c-.01.04-.01.07-.01.11 -.04.43-.11.66-.19.81 -.2.37-.5.68-.88.87 -.16.07-.39.14-.82.18 -.46.03-1.04.03-1.89.03h-4.4c-.86 0-1.44-.01-1.89-.04 -.44-.04-.67-.11-.82-.19 -.38-.2-.69-.5-.88-.88 -.08-.16-.15-.39-.19-.82 -.04-.46-.04-1.04-.04-1.89V5.88l-2-2Z"/><g fill="#12131A" fill-rule="evenodd"><path d="M13 4H9c-.56 0-1-.45-1-1 0-.56.44-1 1-1l4.11-.01c.63-.01 1.11-.01 1.57.11 .4.09.79.25 1.15.47 .4.24.74.58 1.19 1.03l1.33 1.33c.44.44.78.78 1.03 1.19 .21.35.38.74.47 1.15 .11.46.11.94.11 1.57v4.11c0 .55-.45 1-1 1 -.56 0-1-.45-1-1V8.94h-2c-1.66 0-3-1.35-3-3v-2Zm4.56 3c-.13-.15-.32-.34-.68-.7l-1.19-1.19c-.37-.37-.56-.56-.7-.68v1.55c0 .55.44 1 1 1h1.56Z"/><path d="M2.29 2.29c.39-.4 1.02-.4 1.41 0l17.99 18c.39.39.39 1.02 0 1.41 -.4.39-1.03.39-1.42 0L2.26 3.7c-.4-.4-.4-1.03 0-1.42Z"/></g></g></g></svg>