<svg viewBox="0 0 24 24" xmlns="http://www.w3.org/2000/svg"><g><path fill="#12131A" fill-rule="evenodd" d="M10.22 6.05C10.01 6 9.78 5.99 9 5.99H7.78c-.86 0-1.44 0-1.89.03 -.44.03-.67.1-.82.18 -.38.19-.69.49-.88.87 -.08.15-.15.38-.19.81 -.04.45-.04 1.03-.04 1.88v4.4c0 .85 0 1.43.03 1.88 .03.43.1.66.18.81 .19.37.49.68.87.87 .15.07.38.14.81.18 .45.03 1.03.03 1.88.03h8.4c.85 0 1.43-.01 1.88-.04 .43-.04.66-.11.81-.19 .37-.2.68-.5.87-.88 .07-.16.14-.39.18-.82 .03-.46.03-1.04.03-1.89v-2.4c0-.86-.01-1.44-.04-1.89 -.04-.44-.11-.67-.19-.82 -.2-.38-.5-.69-.88-.88 -.16-.08-.39-.15-.82-.19 -.46-.04-1.04-.04-1.89-.04h-3.2c-.27 0-.52-.11-.71-.3l-.6-.6c-.56-.56-.72-.71-.9-.82 -.18-.11-.38-.2-.58-.24ZM9.1 3.99c.63-.01 1.11-.01 1.57.11 .4.09.79.25 1.15.47 .4.24.74.58 1.19 1.03 .02.02.04.04.07.07l.3.3h2.82c.8-.01 1.46-.01 2.01.04 .56.04 1.07.14 1.56.39 .75.38 1.36.99 1.74 1.74 .24.48.34 1 .39 1.56 .04.54.04 1.2.04 2.01v2.48c0 .8 0 1.46-.05 2.01 -.05.56-.15 1.07-.4 1.56 -.39.75-1 1.36-1.75 1.74 -.49.24-1.01.34-1.57.39 -.55.04-1.21.04-2.02.04H7.66c-.81 0-1.47 0-2.02-.05 -.57-.05-1.08-.15-1.57-.4 -.76-.39-1.37-1-1.75-1.75 -.25-.49-.35-1.01-.4-1.57 -.05-.55-.05-1.21-.05-2.02V9.65c-.01-.81-.01-1.47.04-2.02 .04-.57.14-1.08.39-1.57 .38-.76.99-1.37 1.74-1.75 .48-.25 1-.35 1.56-.4 .54-.05 1.2-.05 2.01-.05h1.25c.03 0 .06-.01.1-.01Z"/><path fill="#12131A" d="M12.7 10.29c-.4-.4-1.03-.4-1.42 0l-2.01 2c-.4.39-.4 1.02 0 1.41 .39.39 1.02.39 1.41 0l.29-.3v1.58c0 .55.44 1 1 1 .55 0 1-.45 1-1v-1.59l.29.29c.39.39 1.02.39 1.41 0 .39-.4.39-1.03 0-1.42l-2-2Z"/></g></svg>