<svg viewBox="0 0 24 24" xmlns="http://www.w3.org/2000/svg"><g><g fill="#12131A" fill-rule="evenodd"><path d="M16.96 3h.06c.43-.01.81-.01 1.13.02 .32.02.65.07.98.2 .73.3 1.31.88 1.62 1.62 .13.32.18.65.2.98 .02.31.02.69.02 1.13v10.06c0 .43 0 .81-.03 1.13 -.03.32-.08.65-.21.98 -.31.73-.89 1.31-1.63 1.62 -.33.13-.66.18-.99.2 -.32.02-.7.02-1.14.02h-.07c-.44 0-.82 0-1.14-.03 -.33-.03-.66-.08-.99-.21 -.74-.31-1.32-.89-1.63-1.63 -.14-.33-.19-.66-.21-.99 -.03-.32-.03-.7-.03-1.14V6.89c0-.44 0-.82.02-1.14 .02-.33.07-.66.2-.99 .3-.74.88-1.32 1.62-1.63 .32-.14.65-.19.98-.21 .31-.03.69-.03 1.13-.03Zm-1 2.01c-.23.01-.32.04-.36.05 -.25.1-.44.29-.55.54 -.02.04-.05.12-.06.35 -.02.23-.02.54-.02 1.02v10c0 .47 0 .78.01 1.02 .01.22.04.31.05.35 .1.24.29.43.54.54 .04.01.12.04.35.05 .23.01.54.01 1.02.01 .47 0 .78-.01 1.02-.02 .22-.02.31-.05.35-.06 .24-.11.43-.3.54-.55 .01-.05.04-.13.05-.36 .01-.24.01-.55.01-1.03v-10c0-.48-.01-.79-.02-1.03 -.02-.23-.05-.32-.06-.36 -.11-.25-.3-.44-.55-.55 -.05-.02-.13-.05-.36-.06 -.24-.02-.55-.02-1.03-.02s-.79 0-1.03.01Z"/><path d="M6.96 3h.06c.43-.01.81-.01 1.13.02 .32.02.65.07.98.2 .73.3 1.31.88 1.62 1.62 .13.32.18.65.2.98 .02.31.02.69.02 1.13v10.06c0 .43 0 .81-.03 1.13 -.03.32-.08.65-.21.98 -.31.73-.89 1.31-1.63 1.62 -.33.13-.66.18-.99.2 -.32.02-.7.02-1.14.02H6.9c-.44 0-.82 0-1.14-.03 -.33-.03-.66-.08-.99-.21 -.74-.31-1.32-.89-1.63-1.63 -.14-.33-.19-.66-.21-.99 -.03-.32-.03-.7-.03-1.14V6.89c-.01-.44-.01-.82.02-1.14 .02-.33.07-.66.2-.99 .3-.74.88-1.32 1.62-1.63 .32-.14.65-.19.98-.21 .31-.03.69-.03 1.13-.03Zm-1 2.01c-.23.01-.32.04-.36.05 -.25.1-.44.29-.55.54 -.02.04-.05.12-.06.35 -.02.23-.02.54-.02 1.02v10c0 .47 0 .78.01 1.02 .01.22.04.31.05.35 .1.24.29.43.54.54 .04.01.12.04.35.05 .23.01.54.01 1.02.01 .47 0 .78-.01 1.02-.02 .22-.02.31-.05.35-.06 .24-.11.43-.3.54-.55 .01-.05.04-.13.05-.36 .01-.24.01-.55.01-1.03v-10c0-.48-.01-.79-.02-1.03 -.02-.23-.05-.32-.06-.36 -.11-.25-.3-.44-.55-.55 -.05-.02-.13-.05-.36-.06 -.24-.02-.55-.02-1.03-.02s-.79 0-1.03.01Z"/></g></g></svg>