<svg viewBox="0 0 24 24" xmlns="http://www.w3.org/2000/svg"><g><path fill="#12131A" fill-rule="evenodd" d="M12 7.21l-1.34-1.2c-.71-.64-1.65-1.02-2.67-1.02 -2.21 0-4 1.79-4 4 0 2.99 1.33 5.212 3.03 6.85 1.72 1.66 3.74 2.66 4.85 3.12 .07.03.15.03.22 0 1.1-.47 3.13-1.47 4.85-3.13 1.69-1.64 3.03-3.86 3.03-6.86 0-2.21-1.8-4.01-4-4.01 -1.03 0-1.96.38-2.67 1.01l-1.34 1.19Zm0-2.69c-1.07-.96-2.47-1.53-4-1.53 -3.32 0-6 2.68-6 6 0 7.35 6.67 10.8 9.116 11.82 .56.23 1.19.23 1.76 0 2.44-1.02 9.116-4.48 9.116-11.83 0-3.32-2.69-6.01-6-6.01 -1.54 0-2.94.57-4 1.52Z"/></g></svg>