<svg viewBox="0 0 24 24" xmlns="http://www.w3.org/2000/svg"><g><g fill="#12131A" fill-rule="evenodd"><path d="M12.5 2c.68 0 1.31.27 1.76.73 .01.01.03.03.05.05 .39.42.65.98.68 1.6l0 .02c0 .02 0 .05 0 .08v.01c0 .04.02.07.06.09 .03.01.08 0 .1-.03l.01-.02c.02-.03.04-.05.06-.07l.01-.02c.45-.43 1.03-.64 1.61-.66 .02-.01.04-.01.07-.01 .63 0 1.27.24 1.76.73l.7.7c.48.48.73 1.12.73 1.76 0 .02-.01.04-.01.07 -.02.58-.24 1.15-.66 1.61l-.02.01c-.02.02-.05.04-.07.06l-.02.01c-.03.02-.04.07-.03.1 .01.03.05.06.09.06h.01c.02 0 .05 0 .08 0l.02 0c.62.02 1.18.28 1.6.68 .01.01.03.03.05.05 .45.45.73 1.07.73 1.76v1c0 .68-.28 1.31-.74 1.76 -.02.01-.04.03-.06.05 -.43.39-.99.65-1.61.68l-.03 0c-.03 0-.06 0-.09 0h-.02c-.05 0-.08.02-.1.06 -.02.03-.01.08.02.1l.01.01c.02.02.04.04.06.06l.01.01c.42.45.63 1.03.65 1.61 0 .02 0 .04 0 .07 -.01.63-.25 1.27-.74 1.76l-.71.7c-.49.48-1.13.73-1.77.73 -.03 0-.05-.01-.08-.01 -.59-.02-1.16-.24-1.62-.66l-.02-.02c-.03-.02-.05-.05-.07-.07l-.02-.02c-.03-.03-.08-.04-.11-.03 -.04.01-.07.05-.07.09v.01c0 .02-.01.05-.01.08l-.01.02c-.03.62-.29 1.18-.68 1.6 -.02.01-.04.03-.06.05 -.46.45-1.08.73-1.77.73h-1c-.69 0-1.32-.28-1.77-.74 -.02-.02-.04-.04-.06-.06 -.4-.43-.66-.99-.68-1.61l-.01-.03c-.01-.03-.01-.06-.01-.09v-.02c0-.05-.03-.08-.07-.1 -.04-.02-.09-.01-.11.02l-.02.01c-.03.02-.05.04-.07.06l-.02.01c-.46.42-1.04.63-1.62.65 -.03 0-.05 0-.08 0 -.64-.01-1.28-.25-1.77-.74l-.71-.71c-.49-.49-.74-1.13-.74-1.77 -.01-.03 0-.05 0-.08 .01-.59.23-1.16.65-1.62l.01-.02c.01-.03.04-.05.06-.07l.01-.02c.02-.03.03-.08.02-.11 -.02-.04-.06-.07-.1-.07h-.02c-.03 0-.06-.01-.09-.01L4 14.61c-.63-.03-1.19-.29-1.61-.68 -.02-.02-.04-.04-.06-.06 -.46-.46-.74-1.08-.74-1.77v-1c0-.69.27-1.32.73-1.77 .01-.02.03-.04.05-.06 .42-.4.98-.66 1.6-.68l.02-.01c.02-.01.05-.01.08-.01h.01c.04 0 .07-.03.09-.07 .01-.04 0-.09-.03-.11l-.02-.02c-.03-.03-.05-.05-.07-.07l-.02-.02c-.43-.46-.64-1.04-.66-1.62 -.01-.03-.01-.05-.01-.08 0-.64.24-1.28.73-1.77l.7-.71c.48-.49 1.12-.74 1.76-.74 .02-.01.04 0 .07 0 .58.01 1.15.23 1.61.65l.01.01c.02.01.04.04.06.06l.01.01c.02.02.07.03.1.02 .03-.02.06-.06.06-.1v-.02c0-.03 0-.06 0-.09l0-.03c.02-.63.28-1.19.68-1.61 .01-.02.03-.04.05-.06 .45-.46 1.07-.74 1.76-.74h1ZM11 19.5c0 .27.22.5.5.5h1c.27 0 .5-.23.5-.5v-.02c0-.86.52-1.62 1.29-1.95 .77-.33 1.68-.16 2.28.45l.01.01c.19.19.51.19.7 0l.7-.71c.19-.2.19-.52 0-.71l-.02-.02c-.61-.61-.78-1.52-.46-2.29 .32-.78 1.08-1.3 1.94-1.3h.01c.27 0 .5-.23.5-.5v-1c0-.28-.23-.5-.5-.5h-.02c-.86 0-1.62-.53-1.95-1.3 -.33-.78-.16-1.69.45-2.29l.01-.02c.19-.2.19-.52 0-.71l-.71-.71c-.2-.2-.52-.2-.71 0l-.02.01c-.61.6-1.52.77-2.29.45 -.78-.33-1.3-1.09-1.3-1.95v-.02c0-.28-.23-.5-.5-.5h-1c-.28 0-.5.22-.5.5v.01c0 .85-.53 1.61-1.3 1.94 -.78.32-1.69.15-2.29-.46l-.02-.02c-.2-.2-.52-.2-.71 0l-.71.7c-.2.19-.2.51 0 .7l.01.01c.6.6.77 1.51.45 2.28 -.33.77-1.09 1.29-1.95 1.29h-.02c-.28 0-.5.22-.5.5v1c0 .27.22.5.5.5h.01c.85 0 1.61.52 1.94 1.29 .32.77.15 1.68-.46 2.29l-.02.01c-.2.19-.2.51 0 .7l.7.7c.19.19.51.19.7 0l.01-.02c.6-.61 1.51-.78 2.28-.46 .77.32 1.29 1.08 1.29 1.94v.01Z"/><path d="M12 14c1.1 0 2-.9 2-2 0-1.11-.9-2-2-2 -1.11 0-2 .89-2 2 0 1.1.89 2 2 2Zm0 2c2.2 0 4-1.8 4-4 0-2.21-1.8-4-4-4 -2.21 0-4 1.79-4 4 0 2.2 1.79 4 4 4Z"/></g></g></svg>