<svg viewBox="0 0 24 24" xmlns="http://www.w3.org/2000/svg"><g><path fill="#12131A" fill-rule="evenodd" d="M7 8v10c0 1.1.89 2 2 2h6c1.1 0 2-.9 2-2V8h2v10c0 2.2-1.8 4-4 4H9c-2.21 0-4-1.8-4-4V8h2Z"/><g fill="#12131A"><path d="M10 11c-.56 0-1 .44-1 1v4c0 .55.44 1 1 1 .55 0 1-.45 1-1v-4c0-.56-.45-1-1-1Z"/><path d="M14 11c-.56 0-1 .44-1 1v4c0 .55.44 1 1 1 .55 0 1-.45 1-1v-4c0-.56-.45-1-1-1Z"/><path fill="#12131A" fill-rule="evenodd" d="M8 6V5c0-1.66 1.34-3 3-3h2c1.65 0 3 1.34 3 3v1h3c.55 0 1 .44 1 1 0 .55-.45 1-1 1H5c-.56 0-1-.45-1-1 0-.56.44-1 1-1h3Zm2-1c0-.56.44-1 1-1h2c.55 0 1 .44 1 1v1h-4V5Z"/></g></g></svg>