<svg viewBox="0 0 24 24" xmlns="http://www.w3.org/2000/svg"><g><path fill="#12131A" fill-rule="evenodd" d="M18.78 16.1l-5-10.01c-.74-1.48-2.85-1.48-3.58-.01l-5 10c-.67 1.32.3 2.89 1.78 2.89h9.98c1.48 0 2.45-1.57 1.78-2.9ZM15.57 5.2c-1.48-2.96-5.69-2.96-7.16-.01l-5 10c-1.33 2.65.6 5.78 3.57 5.78h9.98c2.97 0 4.9-3.13 3.57-5.79l-5-10.01Z"/><g fill="#12131A"><path d="M13 8c0-.56-.45-1-1-1 -.56 0-1 .44-1 1v4c0 .55.44 1 1 1 .55 0 1-.45 1-1V8Z"/><path d="M12 15c-.56 0-1 .44-1 1 0 .55.44 1 1 1 .55 0 1-.45 1-1 0-.56-.45-1-1-1Z"/></g></g></svg>