<svg width="83" height="75" viewBox="0 0 83 75" fill="none" xmlns="http://www.w3.org/2000/svg">
<circle cx="41.4074" cy="9.55556" r="8.55556" stroke="black" stroke-linecap="round" stroke-linejoin="round"/>
<path d="M46.8518 16.5557C49.7668 18.3371 54.5826 22.9023 54.5739 31.502" stroke="black" stroke-linecap="round" stroke-linejoin="round"/>
<path d="M54.2729 31.8159C48.9826 36.1955 34.2785 35.4868 28.7973 32.7733C26.8743 31.8213 29.3349 19.5497 35.9001 16.5557" stroke="black" stroke-linecap="round" stroke-linejoin="round"/>
<circle cx="11.4074" cy="43.7222" r="6.72222" stroke="black" stroke-linecap="round" stroke-linejoin="round"/>
<path d="M15.6852 49.2222C17.9755 50.6219 21.7594 54.2088 21.7525 60.9657" stroke="black" stroke-linecap="round" stroke-linejoin="round"/>
<path d="M21.516 61.2123C17.3594 64.6534 5.80611 64.0966 1.49945 61.9646C-0.0114837 61.2166 1.92185 51.5746 7.08026 49.2222" stroke="black" stroke-linecap="round" stroke-linejoin="round"/>
<circle cx="41.4074" cy="53.7222" r="6.72222" stroke="black" stroke-linecap="round" stroke-linejoin="round"/>
<path d="M45.6852 59.2222C47.9755 60.6219 51.7594 64.2088 51.7525 70.9657" stroke="black" stroke-linecap="round" stroke-linejoin="round"/>
<path d="M51.516 71.2123C47.3594 74.6534 35.8061 74.0966 31.4995 71.9646C29.9885 71.2166 31.9219 61.5746 37.0803 59.2222" stroke="black" stroke-linecap="round" stroke-linejoin="round"/>
<circle cx="71.4074" cy="43.7222" r="6.72222" stroke="black" stroke-linecap="round" stroke-linejoin="round"/>
<path d="M75.6852 49.2222C77.9755 50.6219 81.7594 54.2088 81.7525 60.9657" stroke="black" stroke-linecap="round" stroke-linejoin="round"/>
<path d="M81.516 61.2123C77.3594 64.6534 65.8061 64.0966 61.4995 61.9646C59.9885 61.2166 61.9219 51.5746 67.0803 49.2222" stroke="black" stroke-linecap="round" stroke-linejoin="round"/>
<path d="M21.4073 33C21.4073 37.4183 30.1378 41 40.9073 41V41C51.6769 41 60.4073 37.4183 60.4073 33" stroke="black" stroke-linecap="round" stroke-linejoin="round"/>
</svg>
