<svg width="65" height="86" viewBox="0 0 65 86" fill="none" xmlns="http://www.w3.org/2000/svg">
<path fill-rule="evenodd" clip-rule="evenodd" d="M40.1074 8.10736C40.1074 12.0306 36.9268 15.2147 33 15.2147C29.0767 15.2147 25.8926 12.0306 25.8926 8.10736C25.8926 4.18054 29.0767 1 33 1C36.9268 1 40.1074 4.18054 40.1074 8.10736Z" stroke="#3F3F3F" stroke-linecap="round" stroke-linejoin="round"/>
<path d="M55.0588 58.7516L62 51.4575C62 68.5768 48.7944 82.4575 32.5 82.4575C16.2091 82.4575 3 68.5768 3 51.4575L9.94118 58.7516" stroke="#3F3F3F" stroke-linecap="round" stroke-linejoin="round"/>
<path d="M33 15.4575V82.9594" stroke="#3F3F3F" stroke-linecap="round" stroke-linejoin="round"/>
<path d="M18 31.4575H50" stroke="#3F3F3F" stroke-linecap="round" stroke-linejoin="round"/>
<circle cx="33" cy="82.4575" r="2.25" transform="rotate(-90 33 82.4575)" fill="#C2C2C2"/>
<circle cx="33" cy="82.4575" r="2.25" transform="rotate(-90 33 82.4575)" stroke="#151515" stroke-width="1.5"/>
<circle cx="33" cy="82.4575" r="2.25" transform="rotate(-90 33 82.4575)" stroke="#151515" stroke-width="1.5"/>
<circle cx="62" cy="50.4575" r="2.25" transform="rotate(-90 62 50.4575)" fill="#C2C2C2"/>
<circle cx="62" cy="50.4575" r="2.25" transform="rotate(-90 62 50.4575)" stroke="#151515" stroke-width="1.5"/>
<circle cx="62" cy="50.4575" r="2.25" transform="rotate(-90 62 50.4575)" stroke="#151515" stroke-width="1.5"/>
<circle cx="3" cy="50.4575" r="2.25" transform="rotate(-90 3 50.4575)" fill="#C2C2C2"/>
<circle cx="3" cy="50.4575" r="2.25" transform="rotate(-90 3 50.4575)" stroke="#151515" stroke-width="1.5"/>
<circle cx="3" cy="50.4575" r="2.25" transform="rotate(-90 3 50.4575)" stroke="#151515" stroke-width="1.5"/>
<circle cx="33" cy="15.4575" r="2.25" transform="rotate(-90 33 15.4575)" fill="#C2C2C2"/>
<circle cx="33" cy="15.4575" r="2.25" transform="rotate(-90 33 15.4575)" stroke="#151515" stroke-width="1.5"/>
<circle cx="33" cy="15.4575" r="2.25" transform="rotate(-90 33 15.4575)" stroke="#151515" stroke-width="1.5"/>
<circle cx="48" cy="31.4575" r="2.25" transform="rotate(-90 48 31.4575)" fill="#C2C2C2"/>
<circle cx="48" cy="31.4575" r="2.25" transform="rotate(-90 48 31.4575)" stroke="#151515" stroke-width="1.5"/>
<circle cx="48" cy="31.4575" r="2.25" transform="rotate(-90 48 31.4575)" stroke="#151515" stroke-width="1.5"/>
<circle cx="19" cy="31.4575" r="2.25" transform="rotate(-90 19 31.4575)" fill="#C2C2C2"/>
<circle cx="19" cy="31.4575" r="2.25" transform="rotate(-90 19 31.4575)" stroke="#151515" stroke-width="1.5"/>
<circle cx="19" cy="31.4575" r="2.25" transform="rotate(-90 19 31.4575)" stroke="#151515" stroke-width="1.5"/>
</svg>
