<svg width="62" height="87" viewBox="0 0 62 87" fill="none" xmlns="http://www.w3.org/2000/svg">
<circle cx="31" cy="43.5806" r="30" stroke="#3F3F3F" stroke-linecap="round" stroke-linejoin="round"/>
<path d="M11.6452 20.3456C11.6452 20.3456 13.6831 6.84621 14.0944 4.48529C14.5056 2.12437 15.9752 1 18.1695 1C20.3637 1 30.5553 1 30.5553 1" stroke="#3F3F3F" stroke-linecap="round" stroke-linejoin="round"/>
<path d="M11.6452 66.3224C11.6452 66.3224 13.6831 79.8218 14.0944 82.1827C14.5056 84.5436 15.9752 85.668 18.1695 85.668C20.3637 85.668 30.5553 85.668 30.5553 85.668" stroke="#3F3F3F" stroke-linecap="round" stroke-linejoin="round"/>
<path d="M50.3787 20.3456C50.3787 20.3456 48.3407 6.84621 47.9295 4.48529C47.5183 2.12437 46.0487 1 43.8544 1C41.6601 1 30 1 30 1" stroke="#3F3F3F" stroke-linecap="round" stroke-linejoin="round"/>
<path d="M50.4109 66.3224C50.4109 66.3224 48.373 79.8218 47.9617 82.1827C47.5505 84.5436 46.0809 85.668 43.8866 85.668C41.6923 85.668 30.0323 85.668 30.0323 85.668" stroke="#3F3F3F" stroke-linecap="round" stroke-linejoin="round"/>
<circle cx="51" cy="21" r="2.25" transform="rotate(-90 51 21)" fill="#C2C2C2"/>
<circle cx="51" cy="21" r="2.25" transform="rotate(-90 51 21)" stroke="#151515" stroke-width="1.5"/>
<circle cx="51" cy="21" r="2.25" transform="rotate(-90 51 21)" stroke="#151515" stroke-width="1.5"/>
<circle cx="51" cy="66" r="2.25" transform="rotate(-90 51 66)" fill="#C2C2C2"/>
<circle cx="51" cy="66" r="2.25" transform="rotate(-90 51 66)" stroke="#151515" stroke-width="1.5"/>
<circle cx="51" cy="66" r="2.25" transform="rotate(-90 51 66)" stroke="#151515" stroke-width="1.5"/>
<circle cx="11" cy="21" r="2.25" transform="rotate(-90 11 21)" fill="#C2C2C2"/>
<circle cx="11" cy="21" r="2.25" transform="rotate(-90 11 21)" stroke="#151515" stroke-width="1.5"/>
<circle cx="11" cy="21" r="2.25" transform="rotate(-90 11 21)" stroke="#151515" stroke-width="1.5"/>
<circle cx="11" cy="66" r="2.25" transform="rotate(-90 11 66)" fill="#C2C2C2"/>
<circle cx="11" cy="66" r="2.25" transform="rotate(-90 11 66)" stroke="#151515" stroke-width="1.5"/>
<circle cx="11" cy="66" r="2.25" transform="rotate(-90 11 66)" stroke="#151515" stroke-width="1.5"/>
</svg>
