<svg width="47" height="92" viewBox="0 0 47 92" fill="none" xmlns="http://www.w3.org/2000/svg">
<path fill-rule="evenodd" clip-rule="evenodd" d="M3 7.51529C3 3.73008 6.19983 1 9.43575 1C12.6717 1 34.2398 1 37.4132 1C40.5866 1 44 3.9137 44 7.51529C44 11.1169 44 81.6947 44 85.4686C44 89.2424 40.312 91 37.9854 91C35.6588 91 12.0241 91 9.04383 91C6.0636 91 3 88.1795 3 84.9853C3 81.7912 3 11.3005 3 7.51529Z" stroke="#3F3F3F" stroke-linecap="round" stroke-linejoin="round"/>
<path d="M3 13C3 10.6761 5.19983 9 8.43575 9C11.6717 9 35.2398 9 38.4132 9C41.5866 9 44 10.7888 44 13" stroke="#3F3F3F" stroke-linecap="round" stroke-linejoin="round"/>
<rect x="19" y="3.5" width="10" height="3" rx="1.5" stroke="#3F3F3F" stroke-linecap="round" stroke-linejoin="round"/>
<circle cx="3" cy="76" r="2.25" transform="rotate(-90 3 76)" fill="#C2C2C2"/>
<circle cx="3" cy="76" r="2.25" transform="rotate(-90 3 76)" stroke="#151515" stroke-width="1.5"/>
<circle cx="3" cy="76" r="2.25" transform="rotate(-90 3 76)" stroke="#151515" stroke-width="1.5"/>
<circle cx="44" cy="76" r="2.25" transform="rotate(-90 44 76)" fill="#C2C2C2"/>
<circle cx="44" cy="76" r="2.25" transform="rotate(-90 44 76)" stroke="#151515" stroke-width="1.5"/>
<circle cx="44" cy="76" r="2.25" transform="rotate(-90 44 76)" stroke="#151515" stroke-width="1.5"/>
<circle cx="44" cy="21" r="2.25" transform="rotate(-90 44 21)" fill="#C2C2C2"/>
<circle cx="44" cy="21" r="2.25" transform="rotate(-90 44 21)" stroke="#151515" stroke-width="1.5"/>
<circle cx="44" cy="21" r="2.25" transform="rotate(-90 44 21)" stroke="#151515" stroke-width="1.5"/>
<circle cx="3" cy="21" r="2.25" transform="rotate(-90 3 21)" fill="#C2C2C2"/>
<circle cx="3" cy="21" r="2.25" transform="rotate(-90 3 21)" stroke="#151515" stroke-width="1.5"/>
<circle cx="3" cy="21" r="2.25" transform="rotate(-90 3 21)" stroke="#151515" stroke-width="1.5"/>
</svg>
