<svg width="51" height="86" viewBox="0 0 51 86" fill="none" xmlns="http://www.w3.org/2000/svg">
<rect x="1" y="16" width="49" height="53" rx="9" stroke="black" stroke-linecap="round" stroke-linejoin="round"/>
<path d="M42.0778 68.5001C42.0778 68.5001 39.6402 72.1137 39.6402 76.2667C39.6402 80.4196 37.7649 84.7275 33.8894 84.7275C30.0139 84.7275 26 84.7275 26 84.7275" stroke="black" stroke-linecap="round" stroke-linejoin="round"/>
<path d="M9.99994 68.5001C9.99994 68.5001 12.4376 72.1137 12.4376 76.2667C12.4376 80.4196 14.3128 84.7275 18.1883 84.7275C22.0639 84.7275 26.0778 84.7275 26.0778 84.7275" stroke="black" stroke-linecap="round" stroke-linejoin="round"/>
<path d="M42.0778 16.7274C42.0778 16.7274 39.6402 13.1138 39.6402 8.96088C39.6402 4.80795 37.7649 0.5 33.8894 0.5C30.0139 0.5 26 0.5 26 0.5" stroke="black" stroke-linecap="round" stroke-linejoin="round"/>
<path d="M9.99994 16.7274C9.99994 16.7274 12.4376 13.1138 12.4376 8.96088C12.4376 4.80795 14.3128 0.5 18.1883 0.5C22.0639 0.5 26.0778 0.5 26.0778 0.5" stroke="black" stroke-linecap="round" stroke-linejoin="round"/>
</svg>
