<svg width="96" height="29" viewBox="0 0 96 29" fill="none" xmlns="http://www.w3.org/2000/svg">
<path d="M5.68704 1.12109C4.43308 1.45272 2.24441 1.81292 1.50368 3.51692C0.762955 5.22092 0.905001 10.1747 1.50368 12.8692C2.10237 15.5636 5.96485 18.5074 6.86768 18.6942" stroke="black" stroke-linecap="round" stroke-linejoin="round"/>
<ellipse cx="5.36596" cy="6.06986" rx="2.1701" ry="2.37113" stroke="black" stroke-linecap="round" stroke-linejoin="round"/>
<path d="M1.28485 10.5525L6.10311 10.3689L15.0682 9.53942V2.09003L5.66653 2.06494C5.66653 2.06494 3.01535 2.27144 2.11865 2.58759" stroke="black" stroke-linecap="round" stroke-linejoin="round"/>
<path d="M15.1246 2.11772C17.194 1.93752 27.8666 2.22562 28.4496 2.31386C29.0326 2.4021 29.5911 2.47819 29.5911 3.13863C29.5911 3.79906 29.5911 7.02785 29.5911 7.60992C29.5911 8.19199 29.261 8.34449 28.4421 8.42374C27.6233 8.50299 15.1246 9.53584 15.1246 9.53584" stroke="black" stroke-linecap="round" stroke-linejoin="round"/>
<mask id="path-5-inside-1" fill="white">
<path fill-rule="evenodd" clip-rule="evenodd" d="M44.3991 10.7301C45.3355 9.14034 46.5968 7.96728 48.4498 7.96728C48.726 7.96728 48.9498 8.19114 48.9498 8.46728C48.9498 8.74343 48.726 8.96728 48.4498 8.96728C47.1124 8.96728 46.1181 9.78202 45.2607 11.2376C44.3982 12.7022 43.7482 14.6953 43.0724 16.8246C43.0449 16.9113 43.0173 16.9982 42.9897 17.0854C42.3481 19.109 41.6768 21.2263 40.7732 22.9746C39.8317 24.7961 38.5886 26.3169 36.7592 26.8858C33.4097 27.9275 29.156 28.2371 25.5428 28.277C22.2076 28.3138 19.3778 28.1206 18.2439 28.0432C18.1459 28.0365 18.0606 28.0307 17.9887 28.026C17.0633 27.965 15.0133 27.7723 12.901 26.8722C10.7809 25.9687 8.57423 24.341 7.40018 21.4087C6.29475 18.6477 5.73958 14.4346 5.44311 10.4822C5.42245 10.2069 5.62894 9.9669 5.90431 9.94624C6.17968 9.92559 6.41965 10.1321 6.44031 10.4074C6.73685 14.3608 7.28635 18.434 8.32853 21.037C9.37741 23.6567 11.3433 25.1214 13.293 25.9522C15.2506 26.7863 17.1677 26.9697 18.0544 27.0281C18.1268 27.0329 18.2124 27.0387 18.3105 27.0454C19.4429 27.1227 22.2377 27.3134 25.5317 27.277C29.1211 27.2374 33.256 26.928 36.4623 25.9309C37.9107 25.4805 38.9888 24.249 39.8848 22.5154C40.7482 20.845 41.3964 18.8011 42.0478 16.7475C42.0716 16.6724 42.0954 16.5972 42.1193 16.5221C42.7861 14.4209 43.468 12.311 44.3991 10.7301ZM7.11706 1.22021C8.40351 1.07417 10.028 1 11.9954 1C20.6101 1 28.441 1.58198 34.3192 2.61646C36.2886 2.96304 38.0974 3.33866 39.7787 3.68778C40.6181 3.86209 41.4257 4.02979 42.2055 4.18397C44.5311 4.64374 46.6051 4.98211 48.4498 4.98211C48.726 4.98211 48.9498 4.75825 48.9498 4.48211C48.9498 4.20597 48.726 3.98211 48.4498 3.98211C46.7114 3.98211 44.7212 3.66197 42.3995 3.20296C41.6372 3.05225 40.8385 2.88643 40.0037 2.7131C38.3138 2.36222 36.4758 1.98062 34.4926 1.6316C28.5397 0.583994 20.6475 0 11.9954 0C9.99314 0 8.31848 0.0758106 6.97627 0.229786C6.95848 0.231826 6.94082 0.234821 6.92335 0.238756C6.48385 0.33778 6.11842 0.44298 5.84029 0.558009C5.70122 0.615526 5.57007 0.681119 5.45801 0.758357C5.35064 0.832352 5.22675 0.940137 5.14778 1.09462C5.10124 1.18567 5.08025 1.2817 5.06961 1.3383C5.05693 1.40576 5.04869 1.47642 5.04357 1.54159C5.0341 1.66205 5.03147 1.81339 5.04845 1.92923C5.08849 2.20245 5.34245 2.39148 5.61567 2.35144C5.88889 2.31139 6.07792 2.05743 6.03787 1.78421C6.03794 1.78469 6.03793 1.7845 6.03786 1.78362C6.03755 1.77986 6.0362 1.76356 6.03608 1.73323C6.03595 1.69945 6.03737 1.65965 6.04049 1.61996C6.04196 1.60127 6.04369 1.58406 6.04556 1.5687C6.08198 1.54623 6.13883 1.51669 6.22248 1.48209C6.42019 1.40032 6.71425 1.31188 7.11706 1.22021ZM6.00542 1.59717C6.00539 1.59716 6.00587 1.59668 6.00693 1.59575C6.00598 1.59671 6.00545 1.59717 6.00542 1.59717Z"/>
</mask>
<path d="M44.3991 10.7301L43.9683 10.4764L43.9683 10.4764L44.3991 10.7301ZM45.2607 11.2376L44.8299 10.9839L44.8299 10.9839L45.2607 11.2376ZM43.0724 16.8246L43.549 16.9758L43.549 16.9758L43.0724 16.8246ZM42.9897 17.0854L42.5131 16.9342L42.5131 16.9342L42.9897 17.0854ZM40.7732 22.9746L40.329 22.745L40.329 22.745L40.7732 22.9746ZM36.7592 26.8858L36.9077 27.3633L36.9077 27.3633L36.7592 26.8858ZM25.5428 28.277L25.5373 27.777L25.5373 27.777L25.5428 28.277ZM18.2439 28.0432L18.2779 27.5444L18.2779 27.5444L18.2439 28.0432ZM17.9887 28.026L18.0216 27.527L18.0216 27.527L17.9887 28.026ZM12.901 26.8722L13.097 26.4122L13.097 26.4122L12.901 26.8722ZM7.40018 21.4087L6.936 21.5945L6.936 21.5945L7.40018 21.4087ZM5.44311 10.4822L5.94171 10.4448L5.94171 10.4448L5.44311 10.4822ZM5.90431 9.94624L5.86691 9.44764L5.86691 9.44764L5.90431 9.94624ZM6.44031 10.4074L5.94171 10.4448L5.94171 10.4448L6.44031 10.4074ZM8.32853 21.037L8.79271 20.8511L8.79271 20.8511L8.32853 21.037ZM13.293 25.9522L13.489 25.4922L13.489 25.4922L13.293 25.9522ZM18.0544 27.0281L18.0216 27.527L18.0216 27.527L18.0544 27.0281ZM18.3105 27.0454L18.3445 26.5466L18.3445 26.5466L18.3105 27.0454ZM25.5317 27.277L25.5262 26.7771L25.5262 26.7771L25.5317 27.277ZM36.4623 25.9309L36.3138 25.4535L36.3138 25.4535L36.4623 25.9309ZM39.8848 22.5154L39.4406 22.2859L39.4406 22.2859L39.8848 22.5154ZM42.0478 16.7475L42.5244 16.8987L42.5244 16.8987L42.0478 16.7475ZM42.1193 16.5221L41.6427 16.3708L41.6427 16.3708L42.1193 16.5221ZM7.11706 1.22021L7.06066 0.7234C7.04231 0.725483 7.0241 0.728579 7.0061 0.732676L7.11706 1.22021ZM34.3192 2.61646L34.4059 2.12403L34.4059 2.12403L34.3192 2.61646ZM39.7787 3.68778L39.8803 3.19822L39.7787 3.68778ZM42.2055 4.18397L42.3025 3.69346L42.3025 3.69346L42.2055 4.18397ZM42.3995 3.20296L42.3025 3.69346L42.3025 3.69346L42.3995 3.20296ZM40.0037 2.7131L39.9021 3.20266L39.9021 3.20266L40.0037 2.7131ZM34.4926 1.6316L34.4059 2.12403L34.4926 1.6316ZM6.97627 0.229786L7.03325 0.726528L7.03325 0.726528L6.97627 0.229786ZM6.92335 0.238756L7.03325 0.726528L7.03325 0.726528L6.92335 0.238756ZM5.84029 0.558009L5.64919 0.0959665L5.64919 0.0959665L5.84029 0.558009ZM5.45801 0.758357L5.74175 1.17005L5.74175 1.17005L5.45801 0.758357ZM5.14778 1.09462L4.70258 0.867034L4.70258 0.867034L5.14778 1.09462ZM5.06961 1.3383L4.57822 1.24591L5.06961 1.3383ZM5.04357 1.54159L4.54511 1.5024L4.54511 1.5024L5.04357 1.54159ZM5.04845 1.92923L5.54316 1.85672L5.54316 1.85672L5.04845 1.92923ZM5.61567 2.35144L5.68818 2.84615L5.68818 2.84615L5.61567 2.35144ZM6.03787 1.78421L6.53259 1.71168C6.49253 1.43847 6.23858 1.24945 5.96536 1.2895C5.69214 1.32955 5.50311 1.5835 5.54316 1.85672L6.03787 1.78421ZM6.03786 1.78362L5.53955 1.82475L5.53955 1.82476L6.03786 1.78362ZM6.03608 1.73323L5.53609 1.73519L5.53609 1.73519L6.03608 1.73323ZM6.04049 1.61996L6.53896 1.65915L6.53896 1.65915L6.04049 1.61996ZM6.04556 1.5687L5.78302 1.14317C5.65355 1.22305 5.56749 1.35752 5.54919 1.50854L6.04556 1.5687ZM6.22248 1.48209L6.03138 1.02005L6.03138 1.02005L6.22248 1.48209ZM6.00693 1.59575L6.3618 1.94798C6.55159 1.75677 6.55576 1.44957 6.37123 1.25327C6.1867 1.05698 5.87982 1.04219 5.67727 1.21982L6.00693 1.59575ZM48.4498 7.46728C46.3384 7.46728 44.9437 8.82028 43.9683 10.4764L44.8299 10.9839C45.7272 9.4604 46.8552 8.46728 48.4498 8.46728V7.46728ZM49.4498 8.46728C49.4498 7.915 49.0021 7.46728 48.4498 7.46728V8.46728H49.4498ZM48.4498 9.46728C49.0021 9.46728 49.4498 9.01957 49.4498 8.46728H48.4498V9.46728ZM45.6916 11.4914C46.5088 10.1039 47.3694 9.46728 48.4498 9.46728V8.46728C46.8554 8.46728 45.7274 9.46019 44.8299 10.9839L45.6916 11.4914ZM43.549 16.9758C44.2293 14.8323 44.8633 12.8977 45.6916 11.4914L44.8299 10.9839C43.933 12.5066 43.2671 14.5583 42.5959 16.6733L43.549 16.9758ZM43.4663 17.2365C43.494 17.1493 43.5215 17.0625 43.549 16.9758L42.5959 16.6733C42.5683 16.7601 42.5407 16.8471 42.5131 16.9342L43.4663 17.2365ZM41.2174 23.2042C42.1442 21.4108 42.8279 19.25 43.4663 17.2365L42.5131 16.9342C41.8683 18.968 41.2093 21.0418 40.329 22.745L41.2174 23.2042ZM36.9077 27.3633C38.9276 26.7351 40.2533 25.0695 41.2174 23.2042L40.329 22.745C39.4102 24.5227 38.2496 25.8987 36.6107 26.4084L36.9077 27.3633ZM25.5483 28.7769C29.1735 28.7369 33.4866 28.4272 36.9077 27.3633L36.6107 26.4084C33.3328 27.4278 29.1386 27.7373 25.5373 27.777L25.5483 28.7769ZM18.2098 28.542C19.3464 28.6196 22.1924 28.814 25.5483 28.7769L25.5373 27.777C22.2228 27.8136 19.4093 27.6216 18.2779 27.5444L18.2098 28.542ZM17.9558 28.5249C18.027 28.5296 18.1117 28.5353 18.2098 28.542L18.2779 27.5444C18.1801 27.5377 18.0942 27.5318 18.0216 27.527L17.9558 28.5249ZM12.705 27.3321C14.8947 28.2652 17.0111 28.4626 17.9558 28.5249L18.0216 27.527C17.1156 27.4673 15.132 27.2793 13.097 26.4122L12.705 27.3321ZM6.936 21.5945C8.17267 24.6833 10.4997 26.3924 12.705 27.3321L13.097 26.4122C11.062 25.545 8.97579 23.9988 7.86436 21.2228L6.936 21.5945ZM4.94451 10.5196C5.24095 14.4715 5.79896 18.7546 6.936 21.5945L7.86436 21.2228C6.79054 18.5408 6.23821 14.3976 5.94171 10.4448L4.94451 10.5196ZM5.86691 9.44764C5.31617 9.48896 4.9032 9.96891 4.94451 10.5196L5.94171 10.4448L5.94171 10.4448L5.86691 9.44764ZM6.93891 10.37C6.89759 9.8193 6.41764 9.40633 5.86691 9.44764L5.94171 10.4448L5.94171 10.4448L6.93891 10.37ZM8.79271 20.8511C7.78216 18.3272 7.23549 14.324 6.93891 10.37L5.94171 10.4448C6.23821 14.3976 6.79054 18.5408 7.86436 21.2228L8.79271 20.8511ZM13.489 25.4922C11.6247 24.6978 9.77904 23.3146 8.79271 20.8511L7.86436 21.2228C8.97578 23.9988 11.062 25.545 13.097 26.4122L13.489 25.4922ZM18.0873 26.5292C17.2199 26.472 15.3692 26.2934 13.489 25.4922L13.097 26.4122C15.132 27.2793 17.1156 27.4673 18.0216 27.527L18.0873 26.5292ZM18.3445 26.5466C18.2466 26.5399 18.1604 26.534 18.0873 26.5292L18.0216 27.527C18.0932 27.5318 18.1782 27.5376 18.2764 27.5443L18.3445 26.5466ZM25.5262 26.7771C22.2529 26.8132 19.4744 26.6237 18.3445 26.5466L18.2764 27.5443C19.4115 27.6217 22.2225 27.8136 25.5373 27.777L25.5262 26.7771ZM36.3138 25.4535C33.1791 26.4283 29.1037 26.7376 25.5262 26.7771L25.5373 27.777C29.1385 27.7373 33.3328 27.4278 36.6107 26.4084L36.3138 25.4535ZM39.4406 22.2859C38.5674 23.9753 37.5719 25.0622 36.3138 25.4535L36.6107 26.4084C38.2496 25.8987 39.4102 24.5227 40.329 22.745L39.4406 22.2859ZM41.5712 16.5964C40.9164 18.6608 40.2806 20.6607 39.4406 22.2859L40.329 22.745C41.2157 21.0293 41.8765 18.9414 42.5244 16.8987L41.5712 16.5964ZM41.6427 16.3708C41.6188 16.446 41.595 16.5212 41.5711 16.5964L42.5244 16.8987C42.5482 16.8235 42.572 16.7484 42.5959 16.6733L41.6427 16.3708ZM43.9683 10.4764C43.0029 12.1154 42.3052 14.2836 41.6427 16.3708L42.5959 16.6733C43.2671 14.5583 43.9331 12.5066 44.8299 10.9839L43.9683 10.4764ZM7.17345 1.71702C8.43445 1.57387 10.0386 1.5 11.9954 1.5V0.5C10.0175 0.5 8.37257 0.574472 7.06066 0.7234L7.17345 1.71702ZM11.9954 1.5C20.5914 1.5 28.3916 2.08097 34.2326 3.10889L34.4059 2.12403C28.4904 1.08299 20.6288 0.5 11.9954 0.5V1.5ZM34.2326 3.10889C36.1934 3.45396 37.9951 3.82808 39.677 4.17733L39.8803 3.19822C38.1998 2.84924 36.3838 2.47211 34.4059 2.12403L34.2326 3.10889ZM39.677 4.17733C40.5159 4.35154 41.3259 4.51975 42.1086 4.67447L42.3025 3.69346C41.5254 3.53983 40.7202 3.37263 39.8803 3.19822L39.677 4.17733ZM42.1086 4.67447C44.4361 5.13463 46.5519 5.48211 48.4498 5.48211V4.48211C46.6582 4.48211 44.6261 4.15284 42.3025 3.69346L42.1086 4.67447ZM48.4498 5.48211C49.0021 5.48211 49.4498 5.0344 49.4498 4.48211H48.4498V5.48211ZM49.4498 4.48211C49.4498 3.92983 49.0021 3.48211 48.4498 3.48211V4.48211H49.4498ZM48.4498 3.48211C46.7646 3.48211 44.8163 3.17109 42.4965 2.71245L42.3025 3.69346C44.6261 4.15284 46.6582 4.48211 48.4498 4.48211V3.48211ZM42.4965 2.71245C41.737 2.56229 40.9407 2.39697 40.1054 2.22354L39.9021 3.20266C40.7364 3.37588 41.5375 3.54221 42.3025 3.69346L42.4965 2.71245ZM40.1054 2.22354C38.4161 1.87281 36.5711 1.4897 34.5792 1.13916L34.4059 2.12403C36.3806 2.47155 38.2114 2.85164 39.9021 3.20266L40.1054 2.22354ZM34.5792 1.13916C28.5891 0.0850007 20.6662 -0.5 11.9954 -0.5V0.5C20.6288 0.5 28.4904 1.08299 34.4059 2.12403L34.5792 1.13916ZM11.9954 -0.5C9.98254 -0.5 8.28727 -0.423888 6.91928 -0.266956L7.03325 0.726528C8.34969 0.575509 10.0037 0.5 11.9954 0.5V-0.5ZM6.91928 -0.266956C6.88371 -0.262875 6.84838 -0.256887 6.81345 -0.249017L7.03325 0.726528L7.03325 0.726528L6.91928 -0.266956ZM6.81345 -0.249017C6.36227 -0.147362 5.96538 -0.0348036 5.64919 0.0959665L6.03138 1.02005C6.27145 0.920763 6.60542 0.822922 7.03325 0.726528L6.81345 -0.249017ZM5.64919 0.0959665C5.49103 0.161383 5.3253 0.24257 5.17426 0.346666L5.74175 1.17005C5.81485 1.11967 5.91141 1.06967 6.03138 1.02005L5.64919 0.0959665ZM5.17426 0.346666C5.03257 0.44432 4.8344 0.609171 4.70258 0.867034L5.59299 1.3222C5.61911 1.2711 5.66872 1.22038 5.74175 1.17005L5.17426 0.346666ZM4.70258 0.867034C4.62256 1.02357 4.5912 1.17687 4.57822 1.24591L5.561 1.4307C5.56477 1.41062 5.56919 1.39008 5.57521 1.36947C5.58139 1.34829 5.58771 1.33252 5.59299 1.3222L4.70258 0.867034ZM4.57822 1.24591C4.56135 1.33565 4.5512 1.42487 4.54511 1.5024L5.54203 1.58077C5.54618 1.52797 5.5525 1.47588 5.561 1.4307L4.57822 1.24591ZM4.54511 1.5024C4.53445 1.63791 4.52885 1.83198 4.55373 2.00174L5.54316 1.85672C5.53409 1.79481 5.53374 1.68619 5.54203 1.58077L4.54511 1.5024ZM4.55373 2.00174C4.63382 2.54819 5.14173 2.92624 5.68818 2.84615L5.54316 1.85672L5.54316 1.85672L4.55373 2.00174ZM5.68818 2.84615C6.23463 2.76606 6.61268 2.25815 6.53259 1.7117L5.54316 1.85672L5.54316 1.85672L5.68818 2.84615ZM5.54316 1.85674C5.54328 1.85753 5.5436 1.85969 5.54403 1.86243C5.5441 1.8629 5.54557 1.87247 5.54798 1.88427C5.54871 1.88785 5.54999 1.89397 5.55181 1.90152C5.55319 1.90726 5.55703 1.92294 5.56356 1.94252C5.56673 1.95204 5.57324 1.97074 5.58367 1.99341C5.58965 2.00641 5.61646 2.06573 5.67246 2.1257C5.71838 2.17488 5.94531 2.37947 6.24939 2.23754C6.36135 2.18529 6.42404 2.10624 6.45266 2.06373C6.48314 2.01846 6.49962 1.97786 6.50779 1.9554C6.52403 1.91077 6.53002 1.87398 6.53205 1.86082C6.53474 1.84342 6.53597 1.82931 6.53657 1.82116C6.53777 1.80489 6.53789 1.79207 6.53792 1.78662C6.53797 1.77474 6.53757 1.76547 6.53745 1.76266C6.53714 1.7556 6.53674 1.75004 6.53666 1.749C6.53652 1.747 6.5364 1.74542 6.53635 1.74477C6.53629 1.74401 6.53624 1.74338 6.53621 1.74311C6.53619 1.74282 6.53617 1.74254 6.53616 1.74248L5.53955 1.82476C5.54028 1.83361 5.53894 1.81881 5.53839 1.80619C5.53827 1.8034 5.53787 1.79415 5.53792 1.78229C5.53795 1.77684 5.53807 1.76403 5.53927 1.74776C5.53987 1.73961 5.54109 1.72551 5.54378 1.7081C5.54582 1.69495 5.55181 1.65816 5.56804 1.61353C5.57622 1.59107 5.59269 1.55047 5.62317 1.5052C5.6518 1.46269 5.71449 1.38364 5.82645 1.33139C6.13052 1.18946 6.35746 1.39405 6.40337 1.44323C6.45937 1.5032 6.48619 1.56252 6.49217 1.57552C6.50259 1.59819 6.50911 1.61689 6.51228 1.62641C6.5188 1.64598 6.52264 1.66166 6.52402 1.66739C6.52583 1.67493 6.52712 1.68104 6.52785 1.68462C6.53024 1.69639 6.5317 1.7059 6.53176 1.70629C6.53219 1.70895 6.53249 1.71101 6.53259 1.71168L5.54316 1.85674ZM6.53616 1.74249C6.53614 1.74218 6.53617 1.74262 6.53621 1.74316C6.53626 1.7437 6.53629 1.74418 6.53632 1.7446C6.53638 1.74544 6.53638 1.74559 6.53635 1.74502C6.5363 1.74388 6.53611 1.73936 6.53608 1.73127L5.53609 1.73519C5.53626 1.78089 5.53837 1.81048 5.53955 1.82475L6.53616 1.74249ZM6.53608 1.73127C6.536 1.71178 6.53687 1.68571 6.53896 1.65915L5.54203 1.58077C5.53788 1.63359 5.5359 1.68713 5.53609 1.73519L6.53608 1.73127ZM6.53896 1.65915C6.53991 1.64704 6.54096 1.63684 6.54192 1.62886L5.54919 1.50854C5.54643 1.53128 5.54402 1.5555 5.54203 1.58077L6.53896 1.65915ZM6.30809 1.99423C6.3157 1.98953 6.34717 1.9716 6.41357 1.94414L6.03138 1.02005C5.9305 1.06177 5.84825 1.10293 5.78302 1.14317L6.30809 1.99423ZM6.41357 1.94414C6.57381 1.87786 6.83689 1.79676 7.22801 1.70774L7.0061 0.732676C6.5916 0.827009 6.26658 0.922776 6.03138 1.02005L6.41357 1.94414ZM6.1075 1.1077C6.2131 1.12972 6.34464 1.19488 6.43083 1.33444C6.50776 1.45901 6.50869 1.57966 6.50364 1.6393C6.49453 1.74697 6.45164 1.82302 6.4464 1.83283C6.42365 1.87539 6.39937 1.9051 6.39649 1.90871C6.38271 1.926 6.37073 1.93856 6.3684 1.94102C6.36019 1.94969 6.3535 1.9561 6.35111 1.95838C6.34483 1.96438 6.3397 1.96896 6.3366 1.97167L5.67727 1.21982C5.6731 1.22347 5.6672 1.22875 5.66042 1.23523C5.65779 1.23775 5.65092 1.24434 5.64259 1.25313C5.6402 1.25565 5.62818 1.26825 5.61437 1.28558C5.61149 1.2892 5.5872 1.31892 5.56445 1.36149C5.5592 1.37131 5.5163 1.44736 5.5072 1.55503C5.50215 1.61467 5.50308 1.73532 5.58001 1.85989C5.6662 1.99945 5.79775 2.06461 5.90334 2.08664L6.1075 1.1077ZM5.65207 1.24351C5.65546 1.2401 5.66046 1.23516 5.6668 1.22932C5.66943 1.22689 5.67549 1.22134 5.68354 1.21457C5.68656 1.21203 5.69628 1.20386 5.70941 1.19421C5.71458 1.19042 5.73097 1.17842 5.7534 1.16533C5.76354 1.15941 5.78836 1.14528 5.82217 1.13196C5.83923 1.12524 5.86907 1.11451 5.90766 1.10682C5.94129 1.10011 6.01559 1.08853 6.1075 1.1077L5.90334 2.08664C5.99525 2.1058 6.06955 2.09422 6.10319 2.08752C6.14178 2.07982 6.17162 2.06909 6.18868 2.06238C6.22249 2.04905 6.24731 2.03492 6.25746 2.029C6.27991 2.0159 6.29632 2.00389 6.3015 2.00008C6.31466 1.99041 6.32445 1.9822 6.32754 1.9796C6.33572 1.97271 6.34197 1.96699 6.34486 1.96432C6.35171 1.958 6.35746 1.95236 6.3618 1.94798L5.65207 1.24351Z" fill="black" mask="url(#path-5-inside-1)"/>
<path d="M42.1961 17.6897C42.1153 18.107 42.1615 19.1941 42.742 19.3964C43.3226 19.5987 43.9795 19.5512 44.8957 16.6599C45.8119 13.7686 44.9993 12.9049 44.6598 12.9238C44.3202 12.9426 43.8646 12.6129 43.1838 14.7006" stroke="black" stroke-linecap="round" stroke-linejoin="round"/>
<mask id="path-8-inside-2" fill="white">
<path fill-rule="evenodd" clip-rule="evenodd" d="M91.1152 3.98587C90.9826 4.07825 90.9028 4.22905 90.901 4.39069C90.8966 4.79268 90.8297 6.21868 90.7629 7.56087C90.7297 8.22829 90.6967 8.86988 90.6721 9.34467L90.6424 9.91399L90.6341 10.0717L90.6319 10.113L90.6314 10.1217C90.3343 14.0794 89.7844 18.4376 88.7436 21.0372C87.6947 23.6569 85.7288 25.1216 83.7791 25.9524C81.8215 26.7865 79.9044 26.9699 79.0177 27.0283C78.9453 27.0331 78.8597 27.0389 78.7617 27.0456C77.6292 27.1229 74.8344 27.3136 71.5404 27.2772C67.951 27.2376 63.8162 26.9282 60.6099 25.9311C59.163 25.4812 58.0969 24.2515 57.213 22.5181C56.3863 20.8965 55.763 18.9244 55.1329 16.9306C55.09 16.7946 55.047 16.6586 55.0039 16.5225C54.3378 14.4199 53.6453 12.3073 52.6778 10.7235C51.7014 9.12479 50.3821 7.96749 48.4504 7.96749C48.1743 7.96749 47.9504 8.19134 47.9504 8.46749C47.9504 8.74363 48.1743 8.96749 48.4504 8.96749C49.8917 8.96749 50.9408 9.79798 51.8244 11.2447C52.7172 12.7062 53.3765 14.6967 54.0505 16.8245C54.0957 16.9672 54.141 17.1104 54.1864 17.2541C54.8087 19.2244 55.4559 21.2733 56.3222 22.9723C57.251 24.794 58.4819 26.3166 60.3129 26.886C63.6624 27.9277 67.9161 28.2373 71.5294 28.2772C74.8645 28.314 77.6943 28.1208 78.8282 28.0434C78.9262 28.0367 79.0116 28.0309 79.0834 28.0262C80.0088 27.9652 82.0588 27.7725 84.1711 26.8724C86.2913 25.9689 88.4979 24.3412 89.6719 21.4089C90.7782 18.6458 91.333 14.1375 91.629 10.191L91.6298 10.1801L91.1304 10.1536L91.6297 10.18L91.6297 10.1799L91.6298 10.1792L91.6299 10.1765L91.6305 10.1659L91.6327 10.1244L91.641 9.96647L91.6566 9.66689C92.6124 8.8438 93.3551 8.0411 93.8683 7.25702C94.1437 6.83642 94.2991 6.41785 94.2727 6.00304C94.2454 5.57309 94.0291 5.23834 93.7481 4.98364C93.4762 4.73716 93.1236 4.54605 92.761 4.38448C92.3948 4.22132 91.9805 4.0723 91.5692 3.92535C91.417 3.87095 91.2479 3.8935 91.1152 3.98587ZM91.7297 8.24589C91.7402 8.04002 91.7509 7.82667 91.7617 7.61059C91.8063 6.71321 91.852 5.75957 91.8784 5.10327C92.047 5.16773 92.2059 5.23195 92.354 5.29792C92.6831 5.44456 92.9218 5.58429 93.0766 5.72457C93.2222 5.85663 93.2683 5.96458 93.2747 6.06655C93.2822 6.18367 93.2431 6.38626 93.0316 6.70934C92.7137 7.195 92.2817 7.7074 91.7297 8.24589ZM54.4747 4.75097L48.4389 4.48232C50.8618 4.48232 53.8085 3.8801 57.2918 3.16822C58.9598 2.82734 60.7508 2.46132 62.6662 2.12423C68.5818 1.08319 76.4433 0.69873 85.0767 0.69873C87.0684 0.69873 88.7224 0.77424 90.0389 0.925259C92.3543 1.26389 93.98 2.52786 94.5318 2.95686C94.5758 2.99104 94.6129 3.01992 94.6431 3.04262C95.0514 3.35006 94.8056 6.37987 93.7214 6.4978L92.7222 6.45333C92.7411 6.01697 93.0443 5.64108 93.4672 5.53051C93.4778 5.51459 93.4906 5.49376 93.5054 5.46698C93.6019 5.29265 93.6954 5.01037 93.7578 4.6641C93.8187 4.32546 93.8381 3.99183 93.8252 3.74852C93.8237 3.7196 93.8218 3.69368 93.8197 3.67067C93.207 3.2005 91.8255 2.20134 89.9092 1.91694C88.6466 1.77302 87.039 1.69873 85.0767 1.69873C76.4591 1.69873 68.6674 2.08348 62.8395 3.1091C60.935 3.44427 59.1724 3.80456 57.5145 4.14346C56.6028 4.32981 55.7228 4.5097 54.8682 4.67538C54.7364 4.70094 54.6052 4.72615 54.4747 4.75097ZM93.4317 5.57547C93.4318 5.57587 93.4348 5.57337 93.4404 5.56681C93.4345 5.5718 93.4317 5.57508 93.4317 5.57547Z"/>
</mask>
<path d="M90.901 4.39069L91.401 4.39618L91.401 4.39618L90.901 4.39069ZM91.1152 3.98587L91.401 4.39618L91.401 4.39618L91.1152 3.98587ZM90.7629 7.56087L90.2635 7.53601L90.2635 7.53601L90.7629 7.56087ZM90.6721 9.34467L91.1714 9.37058L91.1714 9.37074L90.6721 9.34467ZM90.6424 9.91399L91.1417 9.94006L91.1417 9.94029L90.6424 9.91399ZM90.6341 10.0717L91.1334 10.098L91.1334 10.0981L90.6341 10.0717ZM90.6319 10.113L91.1312 10.1394L91.1312 10.1395L90.6319 10.113ZM90.6314 10.1217L91.1308 10.1481L91.13 10.1591L90.6314 10.1217ZM88.7436 21.0372L89.2078 21.223L89.2078 21.223L88.7436 21.0372ZM83.7791 25.9524L83.5831 25.4924L83.5831 25.4924L83.7791 25.9524ZM79.0177 27.0283L79.0506 27.5272L79.0506 27.5272L79.0177 27.0283ZM78.7617 27.0456L78.7276 26.5468L78.7276 26.5468L78.7617 27.0456ZM71.5404 27.2772L71.5459 26.7773L71.5459 26.7773L71.5404 27.2772ZM60.6099 25.9311L60.7583 25.4537L60.7583 25.4537L60.6099 25.9311ZM57.213 22.5181L56.7676 22.7452L56.7676 22.7452L57.213 22.5181ZM55.1329 16.9306L54.6562 17.0813L54.6562 17.0813L55.1329 16.9306ZM55.0039 16.5225L55.4805 16.3715L55.4805 16.3716L55.0039 16.5225ZM52.6778 10.7235L53.1045 10.4628L53.1045 10.4628L52.6778 10.7235ZM51.8244 11.2447L51.3977 11.5053L51.3977 11.5053L51.8244 11.2447ZM54.0505 16.8245L54.5272 16.6735L54.5272 16.6735L54.0505 16.8245ZM54.1864 17.2541L54.6632 17.1035L54.6632 17.1035L54.1864 17.2541ZM56.3222 22.9723L56.7676 22.7452L56.7676 22.7452L56.3222 22.9723ZM60.3129 26.886L60.4614 26.4086L60.4614 26.4086L60.3129 26.886ZM71.5294 28.2772L71.5349 27.7772L71.5349 27.7772L71.5294 28.2772ZM78.8282 28.0434L78.7942 27.5446L78.7942 27.5446L78.8282 28.0434ZM79.0834 28.0262L79.0506 27.5272L79.0506 27.5272L79.0834 28.0262ZM84.1711 26.8724L84.3671 27.3323L84.3671 27.3323L84.1711 26.8724ZM89.6719 21.4089L89.2078 21.223L89.2078 21.223L89.6719 21.4089ZM91.629 10.191L92.1276 10.2284L92.1276 10.2284L91.629 10.191ZM91.6298 10.1801L91.6563 9.68082C91.7906 9.68794 91.9164 9.74888 92.0053 9.84987C92.0941 9.95086 92.1385 10.0834 92.1284 10.2175L91.6298 10.1801ZM91.1304 10.1536L91.1039 10.6529C90.8282 10.6383 90.6165 10.4029 90.6311 10.1272C90.6457 9.85142 90.8811 9.63973 91.1568 9.65432L91.1304 10.1536ZM91.6297 10.18L92.129 10.207C92.1141 10.4825 91.8788 10.6939 91.6033 10.6793L91.6297 10.18ZM91.6297 10.1799L92.129 10.2063L92.129 10.2068L91.6297 10.1799ZM91.6298 10.1792L91.1305 10.1528L91.1305 10.1527L91.6298 10.1792ZM91.6299 10.1765L92.1292 10.2029L92.1292 10.203L91.6299 10.1765ZM91.6305 10.1659L92.1298 10.1923L92.1298 10.1923L91.6305 10.1659ZM91.6327 10.1244L92.132 10.1507L92.132 10.1508L91.6327 10.1244ZM91.641 9.96647L92.1403 9.99253L92.1403 9.99276L91.641 9.96647ZM91.6566 9.66689L91.1573 9.64082C91.1644 9.50453 91.2269 9.37707 91.3303 9.28802L91.6566 9.66689ZM93.8683 7.25702L93.45 6.98318L93.45 6.98318L93.8683 7.25702ZM94.2727 6.00304L94.7717 5.97129L94.7717 5.97129L94.2727 6.00304ZM93.7481 4.98364L93.4123 5.35411L93.7481 4.98364ZM92.761 4.38448L92.5575 4.8412L92.5575 4.8412L92.761 4.38448ZM91.5692 3.92535L91.7375 3.45451L91.7375 3.45451L91.5692 3.92535ZM91.7617 7.61059L91.2623 7.58573L91.2623 7.58573L91.7617 7.61059ZM91.7297 8.24589L92.0789 8.6038C91.9316 8.74745 91.7114 8.78625 91.524 8.70158C91.3365 8.61691 91.22 8.42606 91.2304 8.22061L91.7297 8.24589ZM91.8784 5.10327L91.3788 5.08316C91.3853 4.92229 91.4689 4.77437 91.6033 4.68578C91.7377 4.59718 91.9066 4.57874 92.057 4.63625L91.8784 5.10327ZM92.354 5.29792L92.5575 4.8412L92.5575 4.8412L92.354 5.29792ZM93.0766 5.72457L92.7408 6.09504L92.7408 6.09504L93.0766 5.72457ZM93.2747 6.06655L92.7758 6.09831L92.7758 6.09831L93.2747 6.06655ZM93.0316 6.70934L93.45 6.98318L93.45 6.98318L93.0316 6.70934ZM48.4389 4.48232L48.4166 4.98182C48.1451 4.96973 47.933 4.74294 47.939 4.4712C47.945 4.19945 48.1671 3.98232 48.4389 3.98232V4.48232ZM54.4747 4.75097L54.5682 5.24216C54.5301 5.24941 54.4913 5.2522 54.4525 5.25047L54.4747 4.75097ZM57.2918 3.16822L57.3919 3.6581L57.3919 3.6581L57.2918 3.16822ZM62.6662 2.12423L62.5796 1.6318L62.5796 1.6318L62.6662 2.12423ZM90.0389 0.925259L90.0959 0.428517C90.101 0.429105 90.1061 0.429774 90.1112 0.430522L90.0389 0.925259ZM94.5318 2.95686L94.2249 3.35159L94.2249 3.35159L94.5318 2.95686ZM94.6431 3.04262L94.9438 2.64318L94.9438 2.64318L94.6431 3.04262ZM93.7214 6.4978L93.7754 6.99487C93.7501 6.99763 93.7246 6.99844 93.6991 6.99731L93.7214 6.4978ZM92.7222 6.45333L92.7 6.95284C92.4244 6.94057 92.2108 6.70736 92.2227 6.43172L92.7222 6.45333ZM93.4672 5.53051L93.8835 5.80745C93.8155 5.90961 93.7124 5.98321 93.5937 6.01425L93.4672 5.53051ZM93.5054 5.46698L93.068 5.22476L93.068 5.22476L93.5054 5.46698ZM93.7578 4.6641L94.2499 4.75269L94.2499 4.75269L93.7578 4.6641ZM93.8252 3.74852L93.3259 3.77498L93.3259 3.77498L93.8252 3.74852ZM93.8197 3.67067L94.1241 3.274C94.2348 3.35899 94.305 3.48642 94.3176 3.62545L93.8197 3.67067ZM89.9092 1.91694L89.9658 1.42016C89.9714 1.4208 89.977 1.42153 89.9826 1.42236L89.9092 1.91694ZM62.8395 3.1091L62.9262 3.60153L62.8395 3.1091ZM57.5145 4.14346L57.4144 3.65359L57.4144 3.65359L57.5145 4.14346ZM54.8682 4.67538L54.7731 4.18452L54.7731 4.18452L54.8682 4.67538ZM93.4404 5.56681L93.1186 5.18412C93.3179 5.01656 93.6124 5.02996 93.7956 5.21492C93.9788 5.39988 93.9895 5.69449 93.8201 5.89218L93.4404 5.56681ZM90.401 4.38519C90.4046 4.06192 90.5642 3.76031 90.8295 3.57556L91.401 4.39618L91.401 4.39618L90.401 4.38519ZM90.2635 7.53601C90.3306 6.18735 90.3967 4.77472 90.401 4.38519L91.401 4.39618C91.3964 4.81063 91.3288 6.25001 91.2623 7.58573L90.2635 7.53601ZM90.1728 9.31876C90.1974 8.84419 90.2303 8.20296 90.2635 7.53601L91.2623 7.58573C91.229 8.25361 91.1961 8.89558 91.1714 9.37058L90.1728 9.31876ZM90.143 9.88793L90.1728 9.3186L91.1714 9.37074L91.1417 9.94006L90.143 9.88793ZM90.1347 10.0454L90.1431 9.8877L91.1417 9.94029L91.1334 10.098L90.1347 10.0454ZM90.1326 10.0866L90.1348 10.0453L91.1334 10.0981L91.1312 10.1394L90.1326 10.0866ZM90.1321 10.0952L90.1326 10.0866L91.1312 10.1395L91.1307 10.1481L90.1321 10.0952ZM88.2794 20.8514C89.2878 18.3329 89.8353 14.0484 90.1328 10.0843L91.13 10.1591C90.8334 14.1104 90.2811 18.5423 89.2078 21.223L88.2794 20.8514ZM83.5831 25.4924C85.4474 24.698 87.2931 23.3148 88.2794 20.8514L89.2078 21.223C88.0963 23.999 86.0101 25.5452 83.9751 26.4124L83.5831 25.4924ZM78.9848 26.5294C79.8522 26.4722 81.703 26.2936 83.5831 25.4924L83.9751 26.4124C81.9401 27.2795 79.9566 27.4675 79.0506 27.5272L78.9848 26.5294ZM78.7276 26.5468C78.8255 26.5401 78.9117 26.5342 78.9848 26.5294L79.0506 27.5272C78.9789 27.532 78.8939 27.5378 78.7957 27.5445L78.7276 26.5468ZM71.5459 26.7773C74.8192 26.8134 77.5977 26.6239 78.7276 26.5468L78.7957 27.5445C77.6607 27.6219 74.8496 27.8138 71.5349 27.7772L71.5459 26.7773ZM60.7583 25.4537C63.893 26.4285 67.9684 26.7378 71.5459 26.7773L71.5349 27.7772C67.9336 27.7375 63.7393 27.428 60.4614 26.4086L60.7583 25.4537ZM57.6585 22.291C58.5197 23.9801 59.5034 25.0634 60.7583 25.4537L60.4614 26.4086C58.8226 25.8989 57.674 24.5229 56.7676 22.7452L57.6585 22.291ZM55.6097 16.7799C56.2431 18.7842 56.8542 20.7136 57.6585 22.291L56.7676 22.7452C55.9183 21.0794 55.2829 19.0645 54.6562 17.0813L55.6097 16.7799ZM55.4805 16.3716C55.5237 16.5078 55.5667 16.644 55.6097 16.7799L54.6562 17.0813C54.6132 16.9453 54.5702 16.8094 54.5272 16.6735L55.4805 16.3716ZM53.1045 10.4628C54.1093 12.1078 54.8184 14.2813 55.4805 16.3715L54.5272 16.6735C53.8572 14.5585 53.1812 12.5068 52.2511 10.9841L53.1045 10.4628ZM48.4504 7.46749C50.6278 7.46749 52.0821 8.78885 53.1045 10.4628L52.2511 10.9841C51.3207 9.46073 50.1364 8.46749 48.4504 8.46749V7.46749ZM47.4504 8.46749C47.4504 7.9152 47.8981 7.46749 48.4504 7.46749V8.46749H47.4504ZM48.4504 9.46749C47.8981 9.46749 47.4504 9.01977 47.4504 8.46749H48.4504V9.46749ZM51.3977 11.5053C50.561 10.1354 49.6472 9.46749 48.4504 9.46749V8.46749C50.1362 8.46749 51.3206 9.46056 52.2511 10.9841L51.3977 11.5053ZM53.5739 16.9755C52.8959 14.835 52.2531 12.9057 51.3977 11.5053L52.2511 10.9841C53.1813 12.5068 53.8572 14.5585 54.5272 16.6735L53.5739 16.9755ZM53.7096 17.4047C53.6642 17.261 53.619 17.1179 53.5739 16.9755L54.5272 16.6735C54.5725 16.8164 54.6178 16.9599 54.6632 17.1035L53.7096 17.4047ZM55.8767 23.1994C54.988 21.4564 54.3288 19.3652 53.7096 17.4047L54.6632 17.1035C55.2886 19.0836 55.9238 21.0902 56.7676 22.7452L55.8767 23.1994ZM60.1644 27.3635C58.1413 26.7343 56.8279 25.0651 55.8767 23.1994L56.7676 22.7452C57.674 24.5229 58.8225 25.8989 60.4614 26.4086L60.1644 27.3635ZM71.5238 28.7771C67.8986 28.7371 63.5855 28.4274 60.1644 27.3635L60.4614 26.4086C63.7393 27.428 67.9336 27.7375 71.5349 27.7772L71.5238 28.7771ZM78.8623 28.5422C77.7258 28.6198 74.8797 28.8142 71.5238 28.7771L71.5349 27.7772C74.8493 27.8138 77.6629 27.6218 78.7942 27.5446L78.8623 28.5422ZM79.1163 28.5251C79.0451 28.5298 78.9605 28.5355 78.8623 28.5422L78.7942 27.5446C78.892 27.5379 78.978 27.532 79.0506 27.5272L79.1163 28.5251ZM84.3671 27.3323C82.1774 28.2654 80.061 28.4628 79.1163 28.5251L79.0506 27.5272C79.9566 27.4675 81.9401 27.2795 83.9751 26.4124L84.3671 27.3323ZM90.1361 21.5947C88.8995 24.6835 86.5724 26.3926 84.3671 27.3323L83.9751 26.4124C86.0101 25.5452 88.0963 23.999 89.2078 21.223L90.1361 21.5947ZM92.1276 10.2284C91.8321 14.1687 91.2749 18.7505 90.1361 21.5947L89.2078 21.223C90.2816 18.541 90.8339 14.1064 91.1304 10.1536L92.1276 10.2284ZM92.1284 10.2175L92.1276 10.2284L91.1304 10.1536L91.1312 10.1427L92.1284 10.2175ZM91.1569 9.65432L91.6563 9.68082L91.6034 10.6794L91.1039 10.6529L91.1569 9.65432ZM91.6033 10.6793L91.104 10.6529L91.1568 9.65432L91.6561 9.68075L91.6033 10.6793ZM92.129 10.2068L92.129 10.207L91.1304 10.1531L91.1305 10.1529L92.129 10.2068ZM92.1291 10.2056L92.129 10.2063L91.1304 10.1534L91.1305 10.1528L92.1291 10.2056ZM92.1292 10.203L92.1291 10.2056L91.1305 10.1527L91.1306 10.1501L92.1292 10.203ZM92.1298 10.1923L92.1292 10.2029L91.1306 10.1501L91.1312 10.1394L92.1298 10.1923ZM92.132 10.1508L92.1298 10.1923L91.1312 10.1395L91.1334 10.098L92.132 10.1508ZM92.1403 9.99276L92.132 10.1507L91.1334 10.0981L91.1417 9.94017L92.1403 9.99276ZM92.1559 9.69296L92.1403 9.99253L91.1417 9.9404L91.1573 9.64082L92.1559 9.69296ZM94.2867 7.53087C93.7398 8.36638 92.961 9.2035 91.9829 10.0458L91.3303 9.28802C92.2639 8.48411 92.9704 7.71583 93.45 6.98318L94.2867 7.53087ZM94.7717 5.97129C94.8076 6.5351 94.5938 7.0617 94.2867 7.53087L93.45 6.98318C93.6935 6.61113 93.7907 6.3006 93.7737 6.0348L94.7717 5.97129ZM94.0839 4.61317C94.4321 4.92875 94.7339 5.37683 94.7717 5.97129L93.7737 6.0348C93.7568 5.76935 93.6262 5.54794 93.4123 5.35411L94.0839 4.61317ZM92.9645 3.92776C93.344 4.09687 93.7535 4.31366 94.0839 4.61317L93.4123 5.35411C93.1989 5.16066 92.9032 4.99524 92.5575 4.8412L92.9645 3.92776ZM91.7375 3.45451C92.1455 3.60032 92.578 3.75556 92.9645 3.92776L92.5575 4.8412C92.2116 4.68709 91.8154 4.54429 91.401 4.39618L91.7375 3.45451ZM90.8295 3.57556C91.0948 3.39081 91.433 3.34571 91.7375 3.45451L91.401 4.39618L91.401 4.39618L90.8295 3.57556ZM92.261 7.63545C92.2503 7.85169 92.2395 8.06519 92.2291 8.27118L91.2304 8.22061C91.2408 8.01486 91.2515 7.80165 91.2623 7.58573L92.261 7.63545ZM92.378 5.12338C92.3515 5.78229 92.3057 6.73802 92.261 7.63545L91.2623 7.58573C91.3069 6.68839 91.3525 5.73686 91.3788 5.08316L92.378 5.12338ZM92.1505 5.75464C92.0133 5.69352 91.8633 5.63279 91.6999 5.5703L92.057 4.63625C92.2307 4.70267 92.3986 4.77038 92.5575 4.8412L92.1505 5.75464ZM92.7408 6.09504C92.6447 6.00794 92.4631 5.8939 92.1505 5.75464L92.5575 4.8412C92.9032 4.99521 93.1989 5.16064 93.4123 5.35411L92.7408 6.09504ZM92.7758 6.09831C92.7762 6.10519 92.7775 6.11452 92.7804 6.12475C92.7833 6.13498 92.7866 6.14207 92.7884 6.14535C92.7915 6.15103 92.7838 6.13405 92.7408 6.09504L93.4123 5.35411C93.6272 5.54884 93.7569 5.77041 93.7737 6.0348L92.7758 6.09831ZM92.6133 6.4355C92.7926 6.16158 92.7738 6.06691 92.7758 6.09831L93.7737 6.0348C93.7906 6.30043 93.6937 6.61093 93.45 6.98318L92.6133 6.4355ZM91.3806 7.88799C91.9135 7.36814 92.32 6.88354 92.6133 6.4355L93.45 6.98318C93.1075 7.50647 92.65 8.04666 92.0789 8.6038L91.3806 7.88799ZM48.4611 3.98281L54.497 4.25146L54.4525 5.25047L48.4166 4.98182L48.4611 3.98281ZM57.3919 3.6581C53.9269 4.36623 50.9237 4.98232 48.4389 4.98232V3.98232C50.7999 3.98232 53.6901 3.39397 57.1917 2.67835L57.3919 3.6581ZM62.7529 2.61667C60.8452 2.95239 59.0606 3.31708 57.3919 3.6581L57.1917 2.67835C58.859 2.33761 60.6564 1.97024 62.5796 1.6318L62.7529 2.61667ZM85.0767 1.19873C76.4512 1.19873 68.6246 1.58334 62.7529 2.61667L62.5796 1.6318C68.5389 0.583044 76.4355 0.19873 85.0767 0.19873V1.19873ZM89.9819 1.422C88.6912 1.27394 87.0578 1.19873 85.0767 1.19873V0.19873C87.079 0.19873 88.7536 0.274541 90.0959 0.428517L89.9819 1.422ZM94.2249 3.35159C93.6833 2.93053 92.1452 1.73862 89.9665 1.42L90.1112 0.430522C92.5635 0.789164 94.2767 2.12519 94.8387 2.56212L94.2249 3.35159ZM94.3423 3.44205C94.3084 3.41651 94.2678 3.3849 94.2249 3.35159L94.8387 2.56212C94.8838 2.59719 94.9175 2.62334 94.9438 2.64318L94.3423 3.44205ZM93.6673 6.00073C93.6946 5.99777 93.8013 5.96473 93.9428 5.7092C94.0757 5.46931 94.1822 5.12848 94.2499 4.75269C94.3168 4.38071 94.3397 4.00828 94.3245 3.72207C94.3168 3.57767 94.3003 3.47125 94.2823 3.40431C94.2568 3.30927 94.2509 3.3732 94.3423 3.44205L94.9438 2.64318C95.1373 2.78889 95.2131 3.01476 95.248 3.14472C95.2905 3.30278 95.3133 3.48442 95.3231 3.66915C95.3428 4.04118 95.313 4.49122 95.234 4.92986C95.1558 5.3647 95.0231 5.82265 94.8177 6.19363C94.6209 6.54896 94.2903 6.93887 93.7754 6.99487L93.6673 6.00073ZM92.7445 5.95383L93.7436 5.9983L93.6991 6.99731L92.7 6.95284L92.7445 5.95383ZM92.2227 6.43172C92.2511 5.77624 92.7055 5.21287 93.3407 5.04677L93.5937 6.01425C93.3832 6.06929 93.2312 6.2577 93.2218 6.47494L92.2227 6.43172ZM93.0509 5.25357C93.0532 5.25012 93.059 5.24101 93.068 5.22476L93.9428 5.70919C93.9222 5.74652 93.9024 5.77906 93.8835 5.80745L93.0509 5.25357ZM93.068 5.22476C93.1282 5.11604 93.2086 4.89238 93.2657 4.57552L94.2499 4.75269C94.1822 5.12837 94.0757 5.46925 93.9428 5.70919L93.068 5.22476ZM93.2657 4.57552C93.3206 4.27021 93.3365 3.97538 93.3259 3.77498L94.3245 3.72207C94.3397 4.00828 94.3168 4.38071 94.2499 4.75269L93.2657 4.57552ZM93.3259 3.77498C93.3247 3.75212 93.3232 3.73246 93.3217 3.71588L94.3176 3.62545C94.3203 3.6549 94.3226 3.68708 94.3245 3.72207L93.3259 3.77498ZM93.5153 4.06734C92.9205 3.61092 91.6225 2.6767 89.8358 2.41153L89.9826 1.42236C92.0284 1.72598 93.4934 2.79009 94.1241 3.274L93.5153 4.06734ZM89.8525 2.41373C88.6156 2.27272 87.0285 2.19873 85.0767 2.19873V1.19873C87.0496 1.19873 88.6777 1.27332 89.9658 1.42016L89.8525 2.41373ZM85.0767 2.19873C76.4669 2.19873 68.7103 2.58363 62.9262 3.60153L62.7529 2.61667C68.6246 1.58333 76.4512 1.19873 85.0767 1.19873V2.19873ZM62.9262 3.60153C61.0293 3.93535 59.2732 4.2943 57.6147 4.63333L57.4144 3.65359C59.0716 3.31483 60.8406 2.9532 62.7529 2.61667L62.9262 3.60153ZM57.6147 4.63333C56.7035 4.81958 55.8209 4.99999 54.9634 5.16624L54.7731 4.18452C55.6247 4.01941 56.5022 3.84005 57.4144 3.65359L57.6147 4.63333ZM54.9634 5.16624C54.831 5.1919 54.6993 5.21722 54.5682 5.24216L54.3813 4.25977C54.5112 4.23507 54.6418 4.20998 54.7731 4.18452L54.9634 5.16624ZM93.9225 5.47967C93.905 5.3902 93.8566 5.27782 93.7499 5.18978C93.6471 5.10501 93.5367 5.08125 93.464 5.07655C93.34 5.06854 93.2485 5.11001 93.2322 5.11709C93.1771 5.14111 93.1392 5.17005 93.1334 5.17439C93.1094 5.1923 93.0927 5.20825 93.0879 5.21288C93.074 5.22624 93.0647 5.23685 93.0607 5.24144L93.8201 5.89218C93.8105 5.90333 93.7969 5.91847 93.7801 5.93462C93.7738 5.94064 93.756 5.95755 93.7312 5.97602C93.725 5.98065 93.6869 6.00977 93.6316 6.03387C93.6152 6.041 93.5236 6.08249 93.3996 6.07447C93.3268 6.06978 93.2164 6.04601 93.1136 5.96122C93.0068 5.87317 92.9585 5.76077 92.941 5.67127L93.9225 5.47967ZM93.7622 5.9495C93.7699 5.94303 93.7811 5.93303 93.7943 5.91934C93.8 5.91345 93.8119 5.90073 93.8258 5.88305C93.8316 5.8756 93.8464 5.85642 93.8622 5.82974C93.8696 5.81728 93.885 5.79007 93.8991 5.75303C93.9063 5.73414 93.9167 5.70356 93.9237 5.66463C93.9302 5.6286 93.9385 5.56159 93.9225 5.47967L92.941 5.67127C92.9127 5.5263 92.9582 5.41399 92.9644 5.3977C92.9785 5.36056 92.994 5.33324 93.0015 5.32064C93.0174 5.29369 93.0325 5.27415 93.0387 5.26626C93.0532 5.24769 93.0662 5.23377 93.0733 5.22639C93.0893 5.20971 93.105 5.19558 93.1186 5.18412L93.7622 5.9495Z" fill="black" mask="url(#path-8-inside-2)"/>
<path d="M54.8761 17.6897C54.9569 18.107 54.9107 19.1941 54.3302 19.3964C53.7496 19.5987 53.0927 19.5512 52.1765 16.6599C51.2603 13.7686 52.0729 12.9049 52.4125 12.9238C52.752 12.9426 53.2076 12.6129 53.8884 14.7006" stroke="black" stroke-linecap="round" stroke-linejoin="round"/>
<path fill-rule="evenodd" clip-rule="evenodd" d="M80.7361 13.6987L67.5361 19.6987V7.69873L80.7361 13.6987Z" stroke="black" stroke-linecap="round" stroke-linejoin="round"/>
</svg>
