<svg width="96" height="30" viewBox="0 0 96 30" fill="none" xmlns="http://www.w3.org/2000/svg">
<path d="M5.68704 2.12109C4.43308 2.45272 2.24441 2.81292 1.50368 4.51692C0.762955 6.22092 0.905001 11.1747 1.50368 13.8692C2.10237 16.5636 5.96485 19.5074 6.86768 19.6942" stroke="#3F3F3F" stroke-linecap="round" stroke-linejoin="round"/>
<ellipse cx="5.36596" cy="7.06986" rx="2.1701" ry="2.37113" stroke="#3F3F3F" stroke-linecap="round" stroke-linejoin="round"/>
<path d="M1.28485 11.5525L6.10311 11.3689L15.0682 10.5394V3.09003L5.66653 3.06494C5.66653 3.06494 3.01535 3.27144 2.11865 3.58759" stroke="#3F3F3F" stroke-linecap="round" stroke-linejoin="round"/>
<path d="M15.1246 3.11772C17.194 2.93752 27.8666 3.22562 28.4496 3.31386C29.0326 3.4021 29.5911 3.47819 29.5911 4.13863C29.5911 4.79906 29.5911 8.02785 29.5911 8.60992C29.5911 9.19199 29.261 9.34449 28.4421 9.42374C27.6233 9.50299 15.1246 10.5358 15.1246 10.5358" stroke="#3F3F3F" stroke-linecap="round" stroke-linejoin="round"/>
<path d="M44.3992 11.7301L43.9683 11.4764L43.9683 11.4764L44.3992 11.7301ZM45.2608 12.2376L44.83 11.9839L44.83 11.9839L45.2608 12.2376ZM43.0725 17.8246L43.5491 17.9758L43.5491 17.9758L43.0725 17.8246ZM42.9898 18.0854L42.5132 17.9342L42.5132 17.9342L42.9898 18.0854ZM40.7732 23.9746L40.3291 23.745L40.3291 23.745L40.7732 23.9746ZM36.7593 27.8858L36.9078 28.3633L36.9078 28.3633L36.7593 27.8858ZM25.5428 29.277L25.5373 28.777L25.5373 28.777L25.5428 29.277ZM18.244 29.0432L18.278 28.5444L18.278 28.5444L18.244 29.0432ZM17.9887 29.026L18.0216 28.527L18.0216 28.527L17.9887 29.026ZM12.9011 27.8722L13.0971 27.4122L13.0971 27.4122L12.9011 27.8722ZM7.40024 22.4087L6.93606 22.5945L6.93606 22.5945L7.40024 22.4087ZM5.44317 11.4822L5.94177 11.4448L5.94177 11.4448L5.44317 11.4822ZM5.90437 10.9462L5.86697 10.4476L5.86697 10.4476L5.90437 10.9462ZM6.44037 11.4074L5.94177 11.4448L5.94177 11.4448L6.44037 11.4074ZM8.3286 22.037L8.79277 21.8511L8.79277 21.8511L8.3286 22.037ZM13.2931 26.9522L13.4891 26.4922L13.4891 26.4922L13.2931 26.9522ZM18.0545 28.0281L18.0216 28.527L18.0216 28.527L18.0545 28.0281ZM18.3105 28.0454L18.3446 27.5466L18.3446 27.5466L18.3105 28.0454ZM25.5318 28.277L25.5263 27.7771L25.5263 27.7771L25.5318 28.277ZM36.4623 26.9309L36.3138 26.4535L36.3138 26.4535L36.4623 26.9309ZM39.8849 23.5154L39.4407 23.2859L39.4407 23.2859L39.8849 23.5154ZM42.0478 17.7475L42.5244 17.8987L42.5244 17.8987L42.0478 17.7475ZM42.1193 17.5221L41.6428 17.3708L41.6428 17.3708L42.1193 17.5221ZM7.11712 2.22021L7.06072 1.7234C7.04238 1.72548 7.02416 1.72858 7.00616 1.73268L7.11712 2.22021ZM34.3193 3.61646L34.406 3.12403L34.406 3.12403L34.3193 3.61646ZM39.7787 4.68778L39.8804 4.19822L39.7787 4.68778ZM42.2056 5.18397L42.3026 4.69346L42.3026 4.69346L42.2056 5.18397ZM42.3995 4.20296L42.3026 4.69346L42.3026 4.69346L42.3995 4.20296ZM40.0038 3.7131L39.9022 4.20266L39.9022 4.20266L40.0038 3.7131ZM34.4926 2.6316L34.406 3.12403L34.4926 2.6316ZM6.97633 1.22979L7.03331 1.72653L7.03331 1.72653L6.97633 1.22979ZM6.92341 1.23876L7.03331 1.72653L7.03331 1.72653L6.92341 1.23876ZM5.84035 1.55801L5.64926 1.09597L5.64926 1.09597L5.84035 1.55801ZM5.45807 1.75836L5.74181 2.17005L5.74181 2.17005L5.45807 1.75836ZM5.14784 2.09462L4.70264 1.86703L4.70264 1.86703L5.14784 2.09462ZM5.06967 2.3383L4.57828 2.24591L5.06967 2.3383ZM5.04363 2.54159L4.54517 2.5024L4.54517 2.5024L5.04363 2.54159ZM5.04851 2.92923L5.54322 2.85672L5.54322 2.85672L5.04851 2.92923ZM5.61573 3.35144L5.68824 3.84615L5.68824 3.84615L5.61573 3.35144ZM6.03794 2.78421L6.53265 2.71168C6.49259 2.43847 6.23864 2.24945 5.96542 2.2895C5.6922 2.32955 5.50318 2.5835 5.54322 2.85672L6.03794 2.78421ZM6.03792 2.78362L5.53961 2.82475L5.53961 2.82476L6.03792 2.78362ZM6.03614 2.73323L5.53615 2.73519L5.53615 2.73519L6.03614 2.73323ZM6.04056 2.61996L6.53902 2.65915L6.53902 2.65915L6.04056 2.61996ZM6.04562 2.5687L5.78308 2.14317C5.65362 2.22305 5.56756 2.35752 5.54925 2.50854L6.04562 2.5687ZM6.22254 2.48209L6.03144 2.02005L6.03144 2.02005L6.22254 2.48209ZM6.007 2.59575L6.36186 2.94798C6.55166 2.75677 6.55582 2.44957 6.37129 2.25327C6.18676 2.05698 5.87988 2.04219 5.67733 2.21982L6.007 2.59575ZM48.4499 8.46728C46.3385 8.46728 44.9438 9.82028 43.9683 11.4764L44.83 11.9839C45.7273 10.4604 46.8552 9.46728 48.4499 9.46728V8.46728ZM49.4499 9.46728C49.4499 8.915 49.0022 8.46728 48.4499 8.46728V9.46728H49.4499ZM48.4499 10.4673C49.0022 10.4673 49.4499 10.0196 49.4499 9.46728H48.4499V10.4673ZM45.6916 12.4914C46.5089 11.1039 47.3695 10.4673 48.4499 10.4673V9.46728C46.8554 9.46728 45.7274 10.4602 44.83 11.9839L45.6916 12.4914ZM43.5491 17.9758C44.2294 15.8323 44.8633 13.8977 45.6916 12.4914L44.83 11.9839C43.9331 13.5066 43.2672 15.5583 42.5959 17.6733L43.5491 17.9758ZM43.4664 18.2365C43.494 18.1493 43.5216 18.0625 43.5491 17.9758L42.5959 17.6733C42.5684 17.7601 42.5408 17.8471 42.5132 17.9342L43.4664 18.2365ZM41.2174 24.2042C42.1443 22.4108 42.828 20.25 43.4664 18.2365L42.5132 17.9342C41.8683 19.968 41.2093 22.0418 40.3291 23.745L41.2174 24.2042ZM36.9078 28.3633C38.9277 27.7351 40.2533 26.0695 41.2174 24.2042L40.3291 23.745C39.4103 25.5227 38.2496 26.8987 36.6108 27.4084L36.9078 28.3633ZM25.5484 29.7769C29.1736 29.7369 33.4867 29.4272 36.9078 28.3633L36.6108 27.4084C33.3329 28.4278 29.1386 28.7373 25.5373 28.777L25.5484 29.7769ZM18.2099 29.542C19.3464 29.6196 22.1925 29.814 25.5484 29.7769L25.5373 28.777C22.2228 28.8136 19.4093 28.6216 18.278 28.5444L18.2099 29.542ZM17.9559 29.5249C18.027 29.5296 18.1117 29.5353 18.2099 29.542L18.278 28.5444C18.1802 28.5377 18.0942 28.5318 18.0216 28.527L17.9559 29.5249ZM12.7051 28.3321C14.8948 29.2652 17.0111 29.4626 17.9559 29.5249L18.0216 28.527C17.1156 28.4673 15.132 28.2793 13.0971 27.4122L12.7051 28.3321ZM6.93606 22.5945C8.17273 25.6833 10.4998 27.3924 12.7051 28.3321L13.0971 27.4122C11.0621 26.545 8.97585 24.9988 7.86442 22.2228L6.93606 22.5945ZM4.94457 11.5196C5.24101 15.4715 5.79902 19.7546 6.93606 22.5945L7.86442 22.2228C6.7906 19.5408 6.23827 15.3976 5.94177 11.4448L4.94457 11.5196ZM5.86697 10.4476C5.31623 10.489 4.90326 10.9689 4.94457 11.5196L5.94177 11.4448L5.94177 11.4448L5.86697 10.4476ZM6.93897 11.37C6.89766 10.8193 6.41771 10.4063 5.86697 10.4476L5.94177 11.4448L5.94177 11.4448L6.93897 11.37ZM8.79277 21.8511C7.78222 19.3272 7.23556 15.324 6.93897 11.37L5.94177 11.4448C6.23827 15.3976 6.7906 19.5408 7.86442 22.2228L8.79277 21.8511ZM13.4891 26.4922C11.6248 25.6978 9.7791 24.3146 8.79277 21.8511L7.86442 22.2228C8.97584 24.9988 11.0621 26.545 13.0971 27.4122L13.4891 26.4922ZM18.0874 27.5292C17.22 27.472 15.3692 27.2934 13.4891 26.4922L13.0971 27.4122C15.132 28.2793 17.1156 28.4673 18.0216 28.527L18.0874 27.5292ZM18.3446 27.5466C18.2467 27.5399 18.1604 27.534 18.0874 27.5292L18.0216 28.527C18.0933 28.5318 18.1782 28.5376 18.2765 28.5443L18.3446 27.5466ZM25.5263 27.7771C22.253 27.8132 19.4745 27.6237 18.3446 27.5466L18.2765 28.5443C19.4115 28.6217 22.2226 28.8136 25.5373 28.777L25.5263 27.7771ZM36.3138 26.4535C33.1792 27.4283 29.1038 27.7376 25.5263 27.7771L25.5373 28.777C29.1386 28.7373 33.3329 28.4278 36.6108 27.4084L36.3138 26.4535ZM39.4407 23.2859C38.5675 24.9753 37.572 26.0622 36.3138 26.4535L36.6108 27.4084C38.2496 26.8987 39.4103 25.5227 40.3291 23.745L39.4407 23.2859ZM41.5712 17.5964C40.9164 19.6608 40.2806 21.6607 39.4407 23.2859L40.3291 23.745C41.2158 22.0293 41.8765 19.9414 42.5244 17.8987L41.5712 17.5964ZM41.6428 17.3708C41.6189 17.446 41.595 17.5212 41.5712 17.5964L42.5244 17.8987C42.5483 17.8235 42.5721 17.7484 42.5959 17.6733L41.6428 17.3708ZM43.9683 11.4764C43.003 13.1154 42.3052 15.2836 41.6428 17.3708L42.5959 17.6733C43.2672 15.5583 43.9331 13.5066 44.83 11.9839L43.9683 11.4764ZM7.17351 2.71702C8.43451 2.57387 10.0387 2.5 11.9955 2.5V1.5C10.0175 1.5 8.37263 1.57447 7.06072 1.7234L7.17351 2.71702ZM11.9955 2.5C20.5915 2.5 28.3917 3.08097 34.2326 4.10889L34.406 3.12403C28.4904 2.08299 20.6289 1.5 11.9955 1.5V2.5ZM34.2326 4.10889C36.1934 4.45396 37.9952 4.82808 39.6771 5.17733L39.8804 4.19822C38.1998 3.84924 36.3839 3.47211 34.406 3.12403L34.2326 4.10889ZM39.6771 5.17733C40.516 5.35154 41.326 5.51975 42.1086 5.67447L42.3026 4.69346C41.5255 4.53983 40.7203 4.37263 39.8804 4.19822L39.6771 5.17733ZM42.1086 5.67447C44.4361 6.13463 46.552 6.48211 48.4499 6.48211V5.48211C46.6583 5.48211 44.6262 5.15284 42.3026 4.69346L42.1086 5.67447ZM48.4499 6.48211C49.0022 6.48211 49.4499 6.0344 49.4499 5.48211H48.4499V6.48211ZM49.4499 5.48211C49.4499 4.92983 49.0022 4.48211 48.4499 4.48211V5.48211H49.4499ZM48.4499 4.48211C46.7647 4.48211 44.8164 4.17109 42.4965 3.71245L42.3026 4.69346C44.6262 5.15284 46.6583 5.48211 48.4499 5.48211V4.48211ZM42.4965 3.71245C41.737 3.56229 40.9407 3.39697 40.1054 3.22354L39.9022 4.20266C40.7364 4.37588 41.5375 4.54221 42.3026 4.69346L42.4965 3.71245ZM40.1054 3.22354C38.4162 2.87281 36.5711 2.4897 34.5793 2.13916L34.406 3.12403C36.3807 3.47155 38.2115 3.85164 39.9022 4.20266L40.1054 3.22354ZM34.5793 2.13916C28.5892 1.085 20.6662 0.5 11.9955 0.5V1.5C20.6289 1.5 28.4904 2.08299 34.406 3.12403L34.5793 2.13916ZM11.9955 0.5C9.9826 0.5 8.28733 0.576112 6.91934 0.733044L7.03331 1.72653C8.34976 1.57551 10.0038 1.5 11.9955 1.5V0.5ZM6.91934 0.733044C6.88377 0.737125 6.84844 0.743113 6.81351 0.750983L7.03331 1.72653L7.03331 1.72653L6.91934 0.733044ZM6.81351 0.750983C6.36234 0.852638 5.96544 0.965196 5.64926 1.09597L6.03144 2.02005C6.27151 1.92076 6.60548 1.82292 7.03331 1.72653L6.81351 0.750983ZM5.64926 1.09597C5.49109 1.16138 5.32536 1.24257 5.17432 1.34667L5.74181 2.17005C5.81491 2.11967 5.91147 2.06967 6.03144 2.02005L5.64926 1.09597ZM5.17432 1.34667C5.03263 1.44432 4.83446 1.60917 4.70264 1.86703L5.59305 2.3222C5.61917 2.2711 5.66878 2.22038 5.74181 2.17005L5.17432 1.34667ZM4.70264 1.86703C4.62262 2.02357 4.59126 2.17687 4.57828 2.24591L5.56106 2.4307C5.56484 2.41062 5.56925 2.39008 5.57527 2.36947C5.58145 2.34829 5.58777 2.33252 5.59305 2.3222L4.70264 1.86703ZM4.57828 2.24591C4.56141 2.33565 4.55126 2.42487 4.54517 2.5024L5.54209 2.58077C5.54624 2.52797 5.55257 2.47588 5.56106 2.4307L4.57828 2.24591ZM4.54517 2.5024C4.53452 2.63791 4.52891 2.83198 4.55379 3.00174L5.54322 2.85672C5.53415 2.79481 5.53381 2.68619 5.54209 2.58077L4.54517 2.5024ZM4.55379 3.00174C4.63389 3.54819 5.1418 3.92624 5.68824 3.84615L5.54322 2.85672L5.54322 2.85672L4.55379 3.00174ZM5.68824 3.84615C6.23469 3.76606 6.61274 3.25815 6.53265 2.7117L5.54322 2.85672L5.54322 2.85672L5.68824 3.84615ZM5.54322 2.85674C5.54334 2.85753 5.54366 2.85969 5.54409 2.86243C5.54417 2.8629 5.54563 2.87247 5.54804 2.88427C5.54877 2.88785 5.55005 2.89397 5.55187 2.90152C5.55325 2.90726 5.55709 2.92294 5.56362 2.94252C5.56679 2.95204 5.5733 2.97074 5.58373 2.99341C5.58971 3.00641 5.61652 3.06573 5.67252 3.1257C5.71844 3.17488 5.94537 3.37947 6.24945 3.23754C6.36141 3.18529 6.4241 3.10624 6.45272 3.06373C6.4832 3.01846 6.49968 2.97786 6.50786 2.9554C6.52409 2.91077 6.53008 2.87398 6.53212 2.86082C6.53481 2.84342 6.53603 2.82931 6.53663 2.82116C6.53783 2.80489 6.53795 2.79207 6.53798 2.78662C6.53803 2.77474 6.53763 2.76547 6.53751 2.76266C6.5372 2.7556 6.5368 2.75004 6.53672 2.749C6.53658 2.747 6.53646 2.74542 6.53641 2.74477C6.53635 2.74401 6.5363 2.74338 6.53627 2.74311C6.53625 2.74282 6.53623 2.74254 6.53622 2.74248L5.53961 2.82476C5.54034 2.83361 5.539 2.81881 5.53845 2.80619C5.53833 2.8034 5.53793 2.79415 5.53799 2.78229C5.53801 2.77684 5.53813 2.76403 5.53933 2.74776C5.53993 2.73961 5.54116 2.72551 5.54385 2.7081C5.54588 2.69495 5.55187 2.65816 5.5681 2.61353C5.57628 2.59107 5.59276 2.55047 5.62324 2.5052C5.65186 2.46269 5.71455 2.38364 5.82651 2.33139C6.13059 2.18946 6.35752 2.39405 6.40343 2.44323C6.45944 2.5032 6.48625 2.56252 6.49223 2.57552C6.50265 2.59819 6.50917 2.61689 6.51234 2.62641C6.51886 2.64598 6.5227 2.66166 6.52408 2.66739C6.52589 2.67493 6.52718 2.68104 6.52791 2.68462C6.5303 2.69639 6.53176 2.7059 6.53183 2.70629C6.53225 2.70895 6.53255 2.71101 6.53265 2.71168L5.54322 2.85674ZM6.53622 2.74249C6.5362 2.74218 6.53623 2.74262 6.53628 2.74316C6.53632 2.7437 6.53635 2.74418 6.53638 2.7446C6.53644 2.74544 6.53644 2.74559 6.53641 2.74502C6.53636 2.74388 6.53617 2.73936 6.53614 2.73127L5.53615 2.73519C5.53633 2.78089 5.53843 2.81048 5.53961 2.82475L6.53622 2.74249ZM6.53614 2.73127C6.53606 2.71178 6.53693 2.68571 6.53902 2.65915L5.54209 2.58077C5.53794 2.63359 5.53596 2.68713 5.53615 2.73519L6.53614 2.73127ZM6.53902 2.65915C6.53997 2.64704 6.54102 2.63684 6.54199 2.62886L5.54925 2.50854C5.54649 2.53128 5.54408 2.5555 5.54209 2.58077L6.53902 2.65915ZM6.30815 2.99423C6.31576 2.98953 6.34723 2.9716 6.41363 2.94414L6.03144 2.02005C5.93057 2.06177 5.84831 2.10293 5.78308 2.14317L6.30815 2.99423ZM6.41363 2.94414C6.57387 2.87786 6.83695 2.79676 7.22807 2.70774L7.00616 1.73268C6.59166 1.82701 6.26664 1.92278 6.03144 2.02005L6.41363 2.94414ZM6.10756 2.1077C6.21316 2.12972 6.3447 2.19488 6.4309 2.33444C6.50783 2.45901 6.50875 2.57966 6.5037 2.6393C6.4946 2.74697 6.4517 2.82302 6.44646 2.83283C6.42371 2.87539 6.39943 2.9051 6.39656 2.90871C6.38277 2.926 6.37079 2.93856 6.36846 2.94102C6.36025 2.94969 6.35356 2.9561 6.35117 2.95838C6.34489 2.96438 6.33976 2.96896 6.33666 2.97167L5.67733 2.21982C5.67317 2.22347 5.66726 2.22875 5.66049 2.23523C5.65785 2.23775 5.65098 2.24434 5.64265 2.25313C5.64026 2.25565 5.62824 2.26825 5.61443 2.28558C5.61155 2.2892 5.58726 2.31892 5.56451 2.36149C5.55926 2.37131 5.51637 2.44736 5.50726 2.55503C5.50222 2.61467 5.50314 2.73532 5.58007 2.85989C5.66626 2.99945 5.79781 3.06461 5.9034 3.08664L6.10756 2.1077ZM5.65213 2.24351C5.65552 2.2401 5.66053 2.23516 5.66686 2.22932C5.66949 2.22689 5.67555 2.22134 5.6836 2.21457C5.68662 2.21203 5.69635 2.20386 5.70947 2.19421C5.71464 2.19042 5.73103 2.17842 5.75347 2.16533C5.76361 2.15941 5.78842 2.14528 5.82224 2.13196C5.83929 2.12524 5.86913 2.11451 5.90772 2.10682C5.94136 2.10011 6.01565 2.08853 6.10756 2.1077L5.9034 3.08664C5.99531 3.1058 6.06961 3.09422 6.10325 3.08752C6.14184 3.07982 6.17168 3.06909 6.18874 3.06238C6.22255 3.04905 6.24738 3.03492 6.25752 3.029C6.27997 3.0159 6.29638 3.00389 6.30157 3.00008C6.31473 2.99041 6.32451 2.9822 6.3276 2.9796C6.33578 2.97271 6.34203 2.96699 6.34492 2.96432C6.35177 2.958 6.35752 2.95236 6.36186 2.94798L5.65213 2.24351Z" fill="#3F3F3F"/>
<path d="M42.1961 18.6897C42.1153 19.107 42.1614 20.1941 42.742 20.3964C43.3225 20.5987 43.9794 20.5512 44.8956 17.6599C45.8118 14.7686 44.9993 13.9049 44.6597 13.9238C44.3201 13.9426 43.8646 13.6129 43.1837 15.7006" stroke="#3F3F3F" stroke-linecap="round" stroke-linejoin="round"/>
<path d="M90.901 5.39069L91.401 5.39618L91.401 5.39618L90.901 5.39069ZM91.1152 4.98587L91.401 5.39618L91.401 5.39618L91.1152 4.98587ZM90.7629 8.56087L90.2635 8.53601L90.2635 8.53601L90.7629 8.56087ZM90.6721 10.3447L91.1714 10.3706L91.1714 10.3707L90.6721 10.3447ZM90.6424 10.914L91.1417 10.9401L91.1417 10.9403L90.6424 10.914ZM90.6341 11.0717L91.1334 11.098L91.1334 11.0981L90.6341 11.0717ZM90.6319 11.113L91.1312 11.1394L91.1312 11.1395L90.6319 11.113ZM90.6314 11.1217L91.1308 11.1481L91.13 11.1591L90.6314 11.1217ZM88.7436 22.0372L89.2078 22.223L89.2078 22.223L88.7436 22.0372ZM83.7791 26.9524L83.5831 26.4924L83.5831 26.4924L83.7791 26.9524ZM79.0177 28.0283L79.0506 28.5272L79.0506 28.5272L79.0177 28.0283ZM78.7617 28.0456L78.7276 27.5468L78.7276 27.5468L78.7617 28.0456ZM71.5404 28.2772L71.5459 27.7773L71.5459 27.7773L71.5404 28.2772ZM60.6099 26.9311L60.7583 26.4537L60.7583 26.4537L60.6099 26.9311ZM57.213 23.5181L56.7676 23.7452L56.7676 23.7452L57.213 23.5181ZM55.1329 17.9306L54.6562 18.0813L54.6562 18.0813L55.1329 17.9306ZM55.0039 17.5225L55.4805 17.3715L55.4805 17.3716L55.0039 17.5225ZM52.6779 11.7235L53.1045 11.4628L53.1045 11.4628L52.6779 11.7235ZM51.8244 12.2447L51.3978 12.5053L51.3977 12.5053L51.8244 12.2447ZM54.0505 17.8245L54.5272 17.6735L54.5272 17.6735L54.0505 17.8245ZM54.1864 18.2541L54.6632 18.1035L54.6632 18.1035L54.1864 18.2541ZM56.3222 23.9723L56.7676 23.7452L56.7676 23.7452L56.3222 23.9723ZM60.3129 27.886L60.4614 27.4086L60.4614 27.4086L60.3129 27.886ZM71.5294 29.2772L71.5349 28.7772L71.5349 28.7772L71.5294 29.2772ZM78.8282 29.0434L78.7942 28.5446L78.7942 28.5446L78.8282 29.0434ZM79.0834 29.0262L79.0506 28.5272L79.0506 28.5272L79.0834 29.0262ZM84.1711 27.8724L84.3671 28.3323L84.3671 28.3323L84.1711 27.8724ZM89.6719 22.4089L89.2078 22.223L89.2078 22.223L89.6719 22.4089ZM91.629 11.191L92.1276 11.2284L92.1276 11.2284L91.629 11.191ZM91.6298 11.1801L91.6563 10.6808C91.7906 10.6879 91.9164 10.7489 92.0053 10.8499C92.0941 10.9509 92.1385 11.0834 92.1284 11.2175L91.6298 11.1801ZM91.1304 11.1536L91.1039 11.6529C90.8282 11.6383 90.6165 11.4029 90.6311 11.1272C90.6457 10.8514 90.8811 10.6397 91.1568 10.6543L91.1304 11.1536ZM91.6297 11.18L92.129 11.207C92.1141 11.4825 91.8788 11.6939 91.6033 11.6793L91.6297 11.18ZM91.6297 11.1799L92.129 11.2063L92.129 11.2068L91.6297 11.1799ZM91.6298 11.1792L91.1305 11.1528L91.1305 11.1527L91.6298 11.1792ZM91.6299 11.1765L92.1292 11.2029L92.1292 11.203L91.6299 11.1765ZM91.6305 11.1659L92.1298 11.1923L92.1298 11.1923L91.6305 11.1659ZM91.6327 11.1244L92.132 11.1507L92.132 11.1508L91.6327 11.1244ZM91.641 10.9665L92.1403 10.9925L92.1403 10.9928L91.641 10.9665ZM91.6566 10.6669L91.1573 10.6408C91.1644 10.5045 91.2269 10.3771 91.3304 10.288L91.6566 10.6669ZM93.8683 8.25702L93.45 7.98318L93.45 7.98318L93.8683 8.25702ZM94.2727 7.00304L94.7717 6.97129L94.7717 6.97129L94.2727 7.00304ZM93.7481 5.98364L93.4123 6.35411L93.7481 5.98364ZM92.761 5.38448L92.5575 5.8412L92.5575 5.8412L92.761 5.38448ZM91.5692 4.92535L91.7375 4.45451L91.7375 4.45451L91.5692 4.92535ZM91.7617 8.61059L91.2623 8.58573L91.2623 8.58573L91.7617 8.61059ZM91.7297 9.24589L92.0789 9.6038C91.9316 9.74745 91.7114 9.78625 91.524 9.70158C91.3365 9.61691 91.22 9.42606 91.2304 9.22061L91.7297 9.24589ZM91.8784 6.10327L91.3788 6.08316C91.3853 5.92229 91.4689 5.77437 91.6033 5.68578C91.7377 5.59718 91.9066 5.57874 92.057 5.63625L91.8784 6.10327ZM92.354 6.29792L92.5575 5.8412L92.5575 5.8412L92.354 6.29792ZM93.0766 6.72457L92.7408 7.09504L92.7408 7.09504L93.0766 6.72457ZM93.2747 7.06655L92.7758 7.09831L92.7758 7.09831L93.2747 7.06655ZM93.0316 7.70934L93.45 7.98318L93.45 7.98318L93.0316 7.70934ZM89.9741 2.42111L90.0309 1.92435C90.0363 1.92496 90.0416 1.92566 90.047 1.92645L89.9741 2.42111ZM62.7529 3.61667L62.8395 4.1091L62.8395 4.1091L62.7529 3.61667ZM57.4032 4.65584L57.5033 5.14571L57.5033 5.14571L57.4032 4.65584ZM54.7731 5.18452L54.8682 5.67538L54.8682 5.67538L54.7731 5.18452ZM54.5827 4.20281L54.6779 4.69366L54.6779 4.69366L54.5827 4.20281ZM57.1804 3.68062L57.2805 4.1705L57.2805 4.1705L57.1804 3.68062ZM62.5796 2.6318L62.4929 2.13937L62.4929 2.13937L62.5796 2.6318ZM90.0959 1.42852L90.1529 0.931715L90.1605 0.932717L90.0959 1.42852ZM90.1112 1.43052L90.1759 0.934663L90.1836 0.935784L90.1112 1.43052ZM94.8354 3.55949L94.5281 3.9539L94.5281 3.9539L94.8354 3.55949ZM94.9438 3.64318L95.2446 3.24375L95.2446 3.24375L94.9438 3.64318ZM95.248 4.14472L94.7652 4.27451L94.7652 4.27451L95.248 4.14472ZM95.3231 4.66915L94.8238 4.69561L94.8238 4.69561L95.3231 4.66915ZM95.234 5.92986L95.7261 6.01845L95.7261 6.01845L95.234 5.92986ZM94.8177 7.19363L94.3802 6.95141L94.3802 6.95141L94.8177 7.19363ZM93.7754 7.99487L93.7214 7.4978L93.7214 7.4978L93.7754 7.99487ZM93.6673 7.00073L93.7214 7.4978L93.7214 7.4978L93.6673 7.00073ZM93.9428 6.7092L94.3802 6.95141L94.3802 6.95141L93.9428 6.7092ZM94.2499 5.75269L93.7578 5.6641L93.7578 5.6641L94.2499 5.75269ZM94.3245 4.72207L94.8238 4.69561L94.8238 4.69561L94.3245 4.72207ZM94.2823 4.40431L93.7995 4.5341L93.7995 4.5341L94.2823 4.40431ZM94.2794 4.39393L94.5852 3.99829C94.6692 4.06326 94.7304 4.15333 94.7599 4.25542L94.2794 4.39393ZM94.2283 4.35435L94.5348 3.9593L94.5348 3.9593L94.2283 4.35435ZM94.266 4.35629L93.8195 4.13124L93.8195 4.13111L94.266 4.35629ZM94.2691 4.36289L94.7326 4.1753C94.8319 4.42068 94.7227 4.70096 94.4836 4.81453C94.2445 4.92811 93.9583 4.83563 93.8308 4.6036L94.2691 4.36289ZM90.401 5.38519C90.4046 5.06192 90.5642 4.76031 90.8295 4.57556L91.401 5.39618L91.401 5.39618L90.401 5.38519ZM90.2635 8.53601C90.3306 7.18735 90.3967 5.77472 90.401 5.38519L91.401 5.39618C91.3964 5.81063 91.3288 7.25001 91.2623 8.58573L90.2635 8.53601ZM90.1728 10.3188C90.1974 9.84419 90.2303 9.20296 90.2635 8.53601L91.2623 8.58573C91.229 9.25361 91.1961 9.89558 91.1714 10.3706L90.1728 10.3188ZM90.143 10.8879L90.1728 10.3186L91.1714 10.3707L91.1417 10.9401L90.143 10.8879ZM90.1347 11.0454L90.1431 10.8877L91.1417 10.9403L91.1334 11.098L90.1347 11.0454ZM90.1326 11.0866L90.1348 11.0453L91.1334 11.0981L91.1312 11.1394L90.1326 11.0866ZM90.1321 11.0952L90.1326 11.0866L91.1312 11.1395L91.1307 11.1481L90.1321 11.0952ZM88.2794 21.8514C89.2878 19.3329 89.8353 15.0484 90.1328 11.0843L91.13 11.1591C90.8334 15.1104 90.2811 19.5423 89.2078 22.223L88.2794 21.8514ZM83.5831 26.4924C85.4474 25.698 87.2931 24.3148 88.2794 21.8514L89.2078 22.223C88.0963 24.999 86.0101 26.5452 83.9751 27.4124L83.5831 26.4924ZM78.9848 27.5294C79.8522 27.4722 81.703 27.2936 83.5831 26.4924L83.9751 27.4124C81.9401 28.2795 79.9566 28.4675 79.0506 28.5272L78.9848 27.5294ZM78.7276 27.5468C78.8255 27.5401 78.9117 27.5342 78.9848 27.5294L79.0506 28.5272C78.9789 28.532 78.8939 28.5378 78.7957 28.5445L78.7276 27.5468ZM71.5459 27.7773C74.8192 27.8134 77.5977 27.6239 78.7276 27.5468L78.7957 28.5445C77.6607 28.6219 74.8496 28.8138 71.5349 28.7772L71.5459 27.7773ZM60.7583 26.4537C63.893 27.4285 67.9684 27.7378 71.5459 27.7773L71.5349 28.7772C67.9336 28.7375 63.7393 28.428 60.4614 27.4086L60.7583 26.4537ZM57.6585 23.291C58.5197 24.9801 59.5034 26.0634 60.7583 26.4537L60.4614 27.4086C58.8226 26.8989 57.674 25.5229 56.7676 23.7452L57.6585 23.291ZM55.6097 17.7799C56.2431 19.7842 56.8542 21.7136 57.6585 23.291L56.7676 23.7452C55.9183 22.0794 55.2829 20.0645 54.6562 18.0813L55.6097 17.7799ZM55.4805 17.3716C55.5237 17.5078 55.5667 17.644 55.6097 17.7799L54.6562 18.0813C54.6132 17.9453 54.5702 17.8094 54.5272 17.6735L55.4805 17.3716ZM53.1045 11.4628C54.1093 13.1078 54.8184 15.2813 55.4805 17.3715L54.5272 17.6735C53.8572 15.5585 53.1812 13.5068 52.2512 11.9841L53.1045 11.4628ZM48.4504 8.46749C50.6278 8.46749 52.0821 9.78885 53.1045 11.4628L52.2512 11.9841C51.3207 10.4607 50.1364 9.46749 48.4504 9.46749V8.46749ZM47.4504 9.46749C47.4504 8.9152 47.8981 8.46749 48.4504 8.46749V9.46749H47.4504ZM48.4504 10.4675C47.8981 10.4675 47.4504 10.0198 47.4504 9.46749H48.4504V10.4675ZM51.3977 12.5053C50.561 11.1354 49.6472 10.4675 48.4504 10.4675V9.46749C50.1362 9.46749 51.3206 10.4606 52.2511 11.9841L51.3977 12.5053ZM53.5739 17.9755C52.8959 15.835 52.2531 13.9057 51.3978 12.5053L52.2511 11.9841C53.1813 13.5068 53.8572 15.5585 54.5272 17.6735L53.5739 17.9755ZM53.7096 18.4047C53.6642 18.261 53.619 18.1179 53.5739 17.9755L54.5272 17.6735C54.5725 17.8164 54.6178 17.9599 54.6632 18.1035L53.7096 18.4047ZM55.8767 24.1994C54.988 22.4564 54.3288 20.3652 53.7096 18.4047L54.6632 18.1035C55.2886 20.0836 55.9238 22.0902 56.7676 23.7452L55.8767 24.1994ZM60.1644 28.3635C58.1413 27.7343 56.8279 26.0651 55.8767 24.1994L56.7676 23.7452C57.674 25.5229 58.8225 26.8989 60.4614 27.4086L60.1644 28.3635ZM71.5238 29.7771C67.8986 29.7371 63.5855 29.4274 60.1644 28.3635L60.4614 27.4086C63.7393 28.428 67.9336 28.7375 71.5349 28.7772L71.5238 29.7771ZM78.8623 29.5422C77.7258 29.6198 74.8797 29.8142 71.5238 29.7771L71.5349 28.7772C74.8493 28.8138 77.6629 28.6218 78.7942 28.5446L78.8623 29.5422ZM79.1163 29.5251C79.0451 29.5298 78.9605 29.5355 78.8623 29.5422L78.7942 28.5446C78.892 28.5379 78.978 28.532 79.0506 28.5272L79.1163 29.5251ZM84.3671 28.3323C82.1774 29.2654 80.061 29.4628 79.1163 29.5251L79.0506 28.5272C79.9566 28.4675 81.9401 28.2795 83.9751 27.4124L84.3671 28.3323ZM90.1361 22.5947C88.8995 25.6835 86.5724 27.3926 84.3671 28.3323L83.9751 27.4124C86.0101 26.5452 88.0963 24.999 89.2078 22.223L90.1361 22.5947ZM92.1276 11.2284C91.8321 15.1687 91.2749 19.7505 90.1361 22.5947L89.2078 22.223C90.2816 19.541 90.8339 15.1064 91.1304 11.1536L92.1276 11.2284ZM92.1284 11.2175L92.1276 11.2284L91.1304 11.1536L91.1312 11.1427L92.1284 11.2175ZM91.1569 10.6543L91.6563 10.6808L91.6034 11.6794L91.1039 11.6529L91.1569 10.6543ZM91.6033 11.6793L91.104 11.6529L91.1568 10.6543L91.6561 10.6807L91.6033 11.6793ZM92.129 11.2068L92.129 11.207L91.1304 11.1531L91.1305 11.1529L92.129 11.2068ZM92.1291 11.2056L92.129 11.2063L91.1304 11.1534L91.1305 11.1528L92.1291 11.2056ZM92.1292 11.203L92.1291 11.2056L91.1305 11.1527L91.1306 11.1501L92.1292 11.203ZM92.1298 11.1923L92.1292 11.2029L91.1306 11.1501L91.1312 11.1394L92.1298 11.1923ZM92.132 11.1508L92.1298 11.1923L91.1312 11.1395L91.1334 11.098L92.132 11.1508ZM92.1403 10.9928L92.132 11.1507L91.1334 11.0981L91.1417 10.9402L92.1403 10.9928ZM92.1559 10.693L92.1403 10.9925L91.1417 10.9404L91.1573 10.6408L92.1559 10.693ZM94.2867 8.53087C93.7398 9.36638 92.961 10.2035 91.9829 11.0458L91.3304 10.288C92.2639 9.48411 92.9704 8.71583 93.45 7.98318L94.2867 8.53087ZM94.7717 6.97129C94.8076 7.5351 94.5938 8.0617 94.2867 8.53087L93.45 7.98318C93.6935 7.61113 93.7907 7.3006 93.7737 7.0348L94.7717 6.97129ZM94.0839 5.61317C94.4321 5.92875 94.7339 6.37683 94.7717 6.97129L93.7737 7.0348C93.7568 6.76935 93.6262 6.54794 93.4123 6.35411L94.0839 5.61317ZM92.9645 4.92776C93.344 5.09687 93.7535 5.31366 94.0839 5.61317L93.4123 6.35411C93.1989 6.16066 92.9032 5.99524 92.5575 5.8412L92.9645 4.92776ZM91.7375 4.45451C92.1455 4.60032 92.578 4.75556 92.9645 4.92776L92.5575 5.8412C92.2116 5.68709 91.8154 5.54429 91.401 5.39618L91.7375 4.45451ZM90.8295 4.57556C91.0948 4.39081 91.433 4.34571 91.7375 4.45451L91.401 5.39618L91.401 5.39618L90.8295 4.57556ZM92.261 8.63545C92.2503 8.85169 92.2395 9.06519 92.2291 9.27118L91.2304 9.22061C91.2408 9.01486 91.2515 8.80165 91.2623 8.58573L92.261 8.63545ZM92.378 6.12338C92.3515 6.78229 92.3057 7.73802 92.261 8.63545L91.2623 8.58573C91.3069 7.68839 91.3525 6.73686 91.3788 6.08316L92.378 6.12338ZM92.1505 6.75464C92.0133 6.69352 91.8633 6.63279 91.6999 6.5703L92.057 5.63625C92.2307 5.70267 92.3986 5.77038 92.5575 5.8412L92.1505 6.75464ZM92.7408 7.09504C92.6447 7.00794 92.4631 6.8939 92.1505 6.75464L92.5575 5.8412C92.9032 5.99521 93.1989 6.16064 93.4123 6.35411L92.7408 7.09504ZM92.7758 7.09831C92.7762 7.10519 92.7775 7.11452 92.7804 7.12475C92.7833 7.13498 92.7866 7.14207 92.7884 7.14535C92.7915 7.15103 92.7838 7.13405 92.7408 7.09504L93.4123 6.35411C93.6272 6.54884 93.7569 6.77041 93.7737 7.0348L92.7758 7.09831ZM92.6133 7.4355C92.7926 7.16158 92.7738 7.06691 92.7758 7.09831L93.7737 7.0348C93.7906 7.30043 93.6937 7.61093 93.45 7.98318L92.6133 7.4355ZM91.3806 8.88799C91.9135 8.36814 92.32 7.88354 92.6133 7.4355L93.45 7.98318C93.1075 8.50647 92.65 9.04666 92.0789 9.6038L91.3806 8.88799ZM89.9173 2.91787C88.6535 2.77334 87.0432 2.69873 85.0767 2.69873V1.69873C87.0644 1.69873 88.7158 1.77394 90.0309 1.92435L89.9173 2.91787ZM85.0767 2.69873C76.459 2.69873 68.6674 3.08348 62.8395 4.1091L62.6662 3.12423C68.5818 2.08319 76.4433 1.69873 85.0767 1.69873V2.69873ZM62.8395 4.1091C60.9373 4.44387 59.1669 4.80568 57.5033 5.14571L57.3031 4.16596C58.9653 3.82621 60.7485 3.46172 62.6662 3.12423L62.8395 4.1091ZM57.5033 5.14571C56.5941 5.33154 55.7159 5.51103 54.8682 5.67538L54.6779 4.69366C55.5197 4.53045 56.3929 4.352 57.3031 4.16596L57.5033 5.14571ZM54.8682 5.67538C52.4956 6.13539 50.335 6.48232 48.4389 6.48232V5.48232C50.2305 5.48232 52.3084 5.15305 54.6779 4.69366L54.8682 5.67538ZM48.4389 6.48232C47.8866 6.48232 47.4389 6.0346 47.4389 5.48232H48.4389V5.48232V6.48232ZM47.4389 5.48232C47.4389 4.93003 47.8866 4.48232 48.4389 4.48232V5.48232H47.4389ZM48.4389 4.48232C50.1258 4.48232 52.1211 4.17074 54.4876 3.71195L54.6779 4.69366C52.3084 5.15305 50.2305 5.48232 48.4389 5.48232V4.48232ZM54.4876 3.71195C55.3099 3.55251 56.1742 3.37591 57.0803 3.19075L57.2805 4.1705C56.3754 4.35544 55.5061 4.53309 54.6779 4.69366L54.4876 3.71195ZM57.0803 3.19075C58.7525 2.84903 60.5643 2.47877 62.4929 2.13937L62.6662 3.12423C60.753 3.46092 58.9541 3.8285 57.2805 4.1705L57.0803 3.19075ZM62.4929 2.13937C68.4961 1.0829 76.4276 0.69873 85.0767 0.69873V1.69873C76.4433 1.69873 68.5818 2.08319 62.6662 3.12423L62.4929 2.13937ZM85.0767 0.69873C87.0896 0.69873 88.7849 0.774842 90.1528 0.931774L90.0389 1.92526C88.7224 1.77424 87.0684 1.69873 85.0767 1.69873V0.69873ZM90.1605 0.932717L90.1759 0.934722L90.0466 1.92632L90.0312 1.92432L90.1605 0.932717ZM90.1836 0.935784C92.7724 1.3144 94.5797 2.72636 95.1428 3.16508L94.5281 3.9539C93.9869 3.53215 92.3543 2.26389 90.0389 1.92526L90.1836 0.935784ZM95.1428 3.16508C95.1874 3.19989 95.2199 3.22515 95.2446 3.24375L94.6431 4.04262C94.6102 4.0179 94.5703 3.98675 94.5281 3.9539L95.1428 3.16508ZM95.2446 3.24375C95.5801 3.49637 95.691 3.86635 95.7309 4.01493L94.7652 4.27451C94.7521 4.22589 94.7357 4.17627 94.7122 4.13135C94.689 4.08693 94.6652 4.05926 94.6431 4.04262L95.2446 3.24375ZM95.7309 4.01493C95.7856 4.21851 95.8115 4.43775 95.8224 4.64269L94.8238 4.69561C94.8151 4.53109 94.7954 4.38704 94.7652 4.27451L95.7309 4.01493ZM95.8224 4.64269C95.8444 5.05763 95.8111 5.54647 95.7261 6.01845L94.7419 5.84128C94.8149 5.43596 94.8412 5.02473 94.8238 4.69561L95.8224 4.64269ZM95.7261 6.01845C95.6425 6.48284 95.4968 6.99934 95.2551 7.43585L94.3802 6.95141C94.5494 6.64596 94.669 6.24656 94.7419 5.84128L95.7261 6.01845ZM95.2551 7.43585C95.0317 7.83919 94.5895 8.40928 93.8295 8.49194L93.7214 7.4978C93.9912 7.46846 94.2101 7.25873 94.3802 6.95141L95.2551 7.43585ZM93.8295 8.49194C93.2805 8.55165 92.787 8.15497 92.7272 7.60593L93.7214 7.4978L93.7214 7.4978L93.8295 8.49194ZM92.7272 7.60593C92.6675 7.05688 93.0642 6.56338 93.6133 6.50366L93.7214 7.4978L93.7214 7.4978L92.7272 7.60593ZM93.6133 6.50367C93.5068 6.51524 93.4496 6.55924 93.4386 6.56854C93.4278 6.57769 93.4547 6.5586 93.5054 6.46698L94.3802 6.95141C94.2074 7.26362 93.9877 7.46884 93.7214 7.4978L93.6133 6.50367ZM93.5054 6.46698C93.6019 6.29267 93.6954 6.01042 93.7578 5.6641L94.7419 5.84128C94.669 6.24654 94.5494 6.64595 94.3802 6.95141L93.5054 6.46698ZM93.7578 5.6641C93.8187 5.32546 93.8381 4.99183 93.8252 4.74852L94.8238 4.69561C94.8412 5.02473 94.8149 5.43596 94.7419 5.84128L93.7578 5.6641ZM93.8252 4.74852C93.8186 4.62422 93.8052 4.55544 93.7995 4.5341L94.7652 4.27451C94.7954 4.38706 94.8151 4.53112 94.8238 4.69561L93.8252 4.74852ZM93.7995 4.5341C93.7992 4.53323 93.7991 4.53268 93.799 4.53243L94.7599 4.25542C94.7616 4.26162 94.7634 4.26799 94.7652 4.27452L93.7995 4.5341ZM93.9737 4.78957C93.9573 4.77689 93.9399 4.76337 93.9219 4.74941L94.5348 3.9593C94.553 3.9734 94.5696 3.9863 94.5852 3.99829L93.9737 4.78957ZM93.9219 4.74941C93.3811 4.32987 91.9398 3.21601 89.9013 2.91577L90.047 1.92645C92.3588 2.26693 93.9751 3.52507 94.5348 3.9593L93.9219 4.74941ZM94.7125 4.58135C94.7572 4.49263 94.7636 4.41371 94.7652 4.38394C94.7673 4.34663 94.7647 4.31679 94.7628 4.30037C94.7591 4.26732 94.7528 4.24198 94.7502 4.23164C94.7442 4.20839 94.7378 4.19077 94.7354 4.1844C94.7297 4.16871 94.7244 4.15683 94.7219 4.15142C94.7161 4.13869 94.711 4.12879 94.7073 4.12219L93.8308 4.6036C93.825 4.59292 93.8182 4.57981 93.8114 4.56483C93.8084 4.5583 93.8028 4.54555 93.7968 4.52925C93.7943 4.52256 93.7879 4.5047 93.7818 4.48128C93.7791 4.47084 93.7728 4.44543 93.7691 4.41233C93.7673 4.39588 93.7647 4.36602 93.7667 4.32869C93.7684 4.29891 93.7748 4.21997 93.8195 4.13124L94.7125 4.58135ZM93.8056 4.55049C93.8075 4.55526 93.8116 4.56505 93.8178 4.57776C93.8201 4.58228 93.8273 4.597 93.8383 4.61519C93.8409 4.61956 93.858 4.6484 93.8855 4.68071C93.8906 4.68659 93.9404 4.74815 94.0263 4.79509C94.0687 4.81825 94.1876 4.87579 94.3468 4.84971C94.5406 4.81796 94.6586 4.6881 94.7124 4.58148L93.8195 4.13111C93.8733 4.02448 93.9914 3.89462 94.1851 3.86287C94.3443 3.83678 94.4633 3.89432 94.5057 3.91749C94.5917 3.96445 94.6415 4.02603 94.6465 4.03197C94.6742 4.06437 94.6914 4.09338 94.6942 4.09799C94.7054 4.11667 94.7131 4.13216 94.7158 4.13776C94.7231 4.15263 94.7287 4.1658 94.7326 4.1753L93.8056 4.55049Z" fill="#3F3F3F"/>
<path d="M54.8761 18.6897C54.9569 19.107 54.9107 20.1941 54.3302 20.3964C53.7496 20.5987 53.0927 20.5512 52.1765 17.6599C51.2603 14.7686 52.0729 13.9049 52.4125 13.9238C52.752 13.9426 53.2076 13.6129 53.8884 15.7006" stroke="#3F3F3F" stroke-linecap="round" stroke-linejoin="round"/>
<path fill-rule="evenodd" clip-rule="evenodd" d="M80.7361 14.6987L67.5361 20.6987V8.69873L80.7361 14.6987Z" stroke="#3F3F3F" stroke-linecap="round" stroke-linejoin="round"/>
<circle cx="80.5361" cy="14.6987" r="2.25" transform="rotate(-90 80.5361 14.6987)" fill="#C2C2C2"/>
<circle cx="80.5361" cy="14.6987" r="2.25" transform="rotate(-90 80.5361 14.6987)" stroke="#151515" stroke-width="1.5"/>
<circle cx="80.5361" cy="14.6987" r="2.25" transform="rotate(-90 80.5361 14.6987)" stroke="#151515" stroke-width="1.5"/>
<circle cx="67.5361" cy="20.6987" r="2.25" transform="rotate(-90 67.5361 20.6987)" fill="#C2C2C2"/>
<circle cx="67.5361" cy="20.6987" r="2.25" transform="rotate(-90 67.5361 20.6987)" stroke="#151515" stroke-width="1.5"/>
<circle cx="67.5361" cy="20.6987" r="2.25" transform="rotate(-90 67.5361 20.6987)" stroke="#151515" stroke-width="1.5"/>
<circle cx="67.5361" cy="8.69873" r="2.25" transform="rotate(-90 67.5361 8.69873)" fill="#C2C2C2"/>
<circle cx="67.5361" cy="8.69873" r="2.25" transform="rotate(-90 67.5361 8.69873)" stroke="#151515" stroke-width="1.5"/>
<circle cx="67.5361" cy="8.69873" r="2.25" transform="rotate(-90 67.5361 8.69873)" stroke="#151515" stroke-width="1.5"/>
<circle cx="5.53607" cy="7.19873" r="2.25" transform="rotate(-90 5.53607 7.19873)" fill="#C2C2C2"/>
<circle cx="5.53607" cy="7.19873" r="2.25" transform="rotate(-90 5.53607 7.19873)" stroke="#151515" stroke-width="1.5"/>
<circle cx="5.53607" cy="7.19873" r="2.25" transform="rotate(-90 5.53607 7.19873)" stroke="#151515" stroke-width="1.5"/>
</svg>
