<svg width="81" height="68" viewBox="0 0 81 68" fill="none" xmlns="http://www.w3.org/2000/svg">
<path d="M40.4359 67.3923C40.4359 67.3923 55.9406 55.7839 78.0993 62.2687C78.0368 40.1615 78.0993 14.7641 78.0993 14.7641C78.0993 14.7641 73.0188 12.8991 70.9161 12.4189" stroke="#3F3F3F" stroke-linecap="round" stroke-linejoin="round"/>
<path d="M40.3638 67.4184C40.3638 67.4184 47.2393 51.4368 70.4883 48.7033C70.4571 31.1474 70.4883 3.53906 70.4883 3.53906C70.4883 3.53906 52.1713 4.7947 40.3332 20.2665" stroke="#3F3F3F" stroke-linecap="round" stroke-linejoin="round"/>
<path d="M40.3105 67.3923C40.3105 67.3923 25.0594 55.7839 2.90073 62.2687C2.96319 40.1615 2.90073 14.7641 2.90073 14.7641C2.90073 14.7641 7.98116 12.8991 10.0839 12.4189" stroke="#3F3F3F" stroke-linecap="round" stroke-linejoin="round"/>
<path d="M40.395 67.4184C40.395 67.4184 33.7607 51.4368 10.5117 48.7033C10.5429 31.1474 10.5117 3.53906 10.5117 3.53906C10.5117 3.53906 28.5586 4.7947 40.3966 20.2665" stroke="#3F3F3F" stroke-linecap="round" stroke-linejoin="round"/>
<path d="M40.3614 67.4281V19.8247" stroke="#3F3F3F" stroke-linecap="round" stroke-linejoin="round"/>
<circle cx="70.5" cy="3" r="2.25" transform="rotate(-90 70.5 3)" fill="#C2C2C2"/>
<circle cx="70.5" cy="3" r="2.25" transform="rotate(-90 70.5 3)" stroke="#151515" stroke-width="1.5"/>
<circle cx="70.5" cy="3" r="2.25" transform="rotate(-90 70.5 3)" stroke="#151515" stroke-width="1.5"/>
<circle cx="10.5" cy="3" r="2.25" transform="rotate(-90 10.5 3)" fill="#C2C2C2"/>
<circle cx="10.5" cy="3" r="2.25" transform="rotate(-90 10.5 3)" stroke="#151515" stroke-width="1.5"/>
<circle cx="10.5" cy="3" r="2.25" transform="rotate(-90 10.5 3)" stroke="#151515" stroke-width="1.5"/>
<circle cx="3" cy="62" r="2.25" transform="rotate(-90 3 62)" fill="#C2C2C2"/>
<circle cx="3" cy="62" r="2.25" transform="rotate(-90 3 62)" stroke="#151515" stroke-width="1.5"/>
<circle cx="3" cy="62" r="2.25" transform="rotate(-90 3 62)" stroke="#151515" stroke-width="1.5"/>
<circle cx="78" cy="62" r="2.25" transform="rotate(-90 78 62)" fill="#C2C2C2"/>
<circle cx="78" cy="62" r="2.25" transform="rotate(-90 78 62)" stroke="#151515" stroke-width="1.5"/>
<circle cx="78" cy="62" r="2.25" transform="rotate(-90 78 62)" stroke="#151515" stroke-width="1.5"/>
</svg>
