<svg width="88" height="53" viewBox="0 0 88 53" fill="none" xmlns="http://www.w3.org/2000/svg">
<circle cx="18.746" cy="22.5214" r="5.00529" stroke="#3F3F3F" stroke-linecap="round" stroke-linejoin="round"/>
<path d="M21.9312 26.6162C23.6366 27.6584 26.454 30.3292 26.4489 35.3603" stroke="#3F3F3F" stroke-linecap="round" stroke-linejoin="round"/>
<path d="M26.2728 35.5439C23.1778 38.1062 14.5754 37.6916 11.3687 36.1041C10.2437 35.5471 11.6832 28.3678 15.5241 26.6162" stroke="#3F3F3F" stroke-linecap="round" stroke-linejoin="round"/>
<path d="M36.4921 18.1987H62.3629" stroke="#3F3F3F" stroke-linecap="round" stroke-linejoin="round"/>
<path d="M36.4921 26.3891H75.3968" stroke="#3F3F3F" stroke-linecap="round" stroke-linejoin="round"/>
<path d="M36.4921 34.5795H53.5556" stroke="#3F3F3F" stroke-linecap="round" stroke-linejoin="round"/>
<rect x="1" y="6.59521" width="86" height="39.5873" rx="2" stroke="#3F3F3F" stroke-linecap="round" stroke-linejoin="round"/>
<path d="M7.46033 2.86508C7.46033 2.66345 7.62378 2.5 7.82541 2.5V1.5C7.07149 1.5 6.46033 2.11117 6.46033 2.86508H7.46033ZM7.46033 6.3326V2.86508H6.46033V6.3326H7.46033ZM6.46033 7.3326C7.01261 7.3326 7.46033 6.88488 7.46033 6.3326H6.46033V7.3326ZM5.46033 6.3326C5.46033 6.88488 5.90804 7.3326 6.46033 7.3326V6.3326H5.46033ZM5.46033 2.86508V6.3326H6.46033V2.86508H5.46033ZM7.82541 0.5C6.51921 0.5 5.46033 1.55888 5.46033 2.86508H6.46033C6.46033 2.11117 7.07149 1.5 7.82541 1.5V0.5ZM80.1746 0.5H7.82541V1.5H80.1746V0.5ZM82.5397 2.86508C82.5397 1.55888 81.4808 0.5 80.1746 0.5V1.5C80.9285 1.5 81.5397 2.11117 81.5397 2.86508H82.5397ZM82.5397 6.4353V2.86508H81.5397V6.4353H82.5397ZM81.5397 7.4353C82.092 7.4353 82.5397 6.98759 82.5397 6.4353H81.5397V7.4353ZM80.5397 6.4353C80.5397 6.98759 80.9874 7.4353 81.5397 7.4353V6.4353H80.5397ZM80.5397 2.86508V6.4353H81.5397V2.86508H80.5397ZM80.1746 2.5C80.3762 2.5 80.5397 2.66345 80.5397 2.86508H81.5397C81.5397 2.11117 80.9285 1.5 80.1746 1.5V2.5ZM7.82541 2.5H80.1746V1.5H7.82541V2.5ZM82.5397 46.7029C82.5397 46.1507 82.092 45.7029 81.5397 45.7029V46.7029H82.5397ZM82.5397 49.9127V46.7029H81.5397V49.9127H82.5397ZM80.1746 52.2778C81.4808 52.2778 82.5397 51.2189 82.5397 49.9127H81.5397C81.5397 50.6666 80.9285 51.2778 80.1746 51.2778V52.2778ZM7.82541 52.2778H80.1746V51.2778H7.82541V52.2778ZM5.46033 49.9127C5.46033 51.2189 6.51921 52.2778 7.82541 52.2778V51.2778C7.07149 51.2778 6.46033 50.6666 6.46033 49.9127H5.46033ZM5.46033 46.871V49.9127H6.46033V46.871H5.46033ZM6.46033 45.871C5.90804 45.871 5.46033 46.3187 5.46033 46.871H6.46033V46.871V45.871ZM7.46033 46.871C7.46033 46.3187 7.01261 45.871 6.46033 45.871V46.871V46.871H7.46033ZM7.46033 49.9127V46.871H6.46033V49.9127H7.46033ZM7.82541 50.2778C7.62378 50.2778 7.46033 50.1143 7.46033 49.9127H6.46033C6.46033 50.6666 7.07149 51.2778 7.82541 51.2778V50.2778ZM80.1746 50.2778H7.82541V51.2778H80.1746V50.2778ZM80.5397 49.9127C80.5397 50.1143 80.3762 50.2778 80.1746 50.2778V51.2778C80.9285 51.2778 81.5397 50.6666 81.5397 49.9127H80.5397ZM80.5397 46.7029V49.9127H81.5397V46.7029H80.5397ZM81.5397 45.7029C80.9874 45.7029 80.5397 46.1507 80.5397 46.7029H81.5397V45.7029Z" fill="#3F3F3F"/>
<circle cx="36" cy="18.25" r="2.25" transform="rotate(-90 36 18.25)" fill="#C2C2C2"/>
<circle cx="36" cy="18.25" r="2.25" transform="rotate(-90 36 18.25)" stroke="#151515" stroke-width="1.5"/>
<circle cx="36" cy="18.25" r="2.25" transform="rotate(-90 36 18.25)" stroke="#151515" stroke-width="1.5"/>
<circle cx="36" cy="26.5" r="2.25" transform="rotate(-90 36 26.5)" fill="#C2C2C2"/>
<circle cx="36" cy="26.5" r="2.25" transform="rotate(-90 36 26.5)" stroke="#151515" stroke-width="1.5"/>
<circle cx="36" cy="26.5" r="2.25" transform="rotate(-90 36 26.5)" stroke="#151515" stroke-width="1.5"/>
<circle cx="36" cy="34.75" r="2.25" transform="rotate(-90 36 34.75)" fill="#C2C2C2"/>
<circle cx="36" cy="34.75" r="2.25" transform="rotate(-90 36 34.75)" stroke="#151515" stroke-width="1.5"/>
<circle cx="36" cy="34.75" r="2.25" transform="rotate(-90 36 34.75)" stroke="#151515" stroke-width="1.5"/>
<circle cx="18.5" cy="37.5" r="2.25" transform="rotate(-90 18.5 37.5)" fill="#C2C2C2"/>
<circle cx="18.5" cy="37.5" r="2.25" transform="rotate(-90 18.5 37.5)" stroke="#151515" stroke-width="1.5"/>
<circle cx="18.5" cy="37.5" r="2.25" transform="rotate(-90 18.5 37.5)" stroke="#151515" stroke-width="1.5"/>
</svg>
