<svg width="88" height="51" viewBox="0 0 88 51" fill="none" xmlns="http://www.w3.org/2000/svg">
<circle cx="18.746" cy="21.5214" r="5.00529" stroke="black" stroke-linecap="round" stroke-linejoin="round"/>
<path d="M21.9312 25.6162C23.6366 26.6584 26.454 29.3292 26.4489 34.3603" stroke="black" stroke-linecap="round" stroke-linejoin="round"/>
<path d="M26.2728 34.5439C23.1778 37.1062 14.5754 36.6916 11.3687 35.1041C10.2437 34.5471 11.6832 27.3678 15.5241 25.6162" stroke="black" stroke-linecap="round" stroke-linejoin="round"/>
<path d="M36.4921 17.1987H62.3629" stroke="black" stroke-linecap="round" stroke-linejoin="round"/>
<path d="M36.4921 25.3891H75.3968" stroke="black" stroke-linecap="round" stroke-linejoin="round"/>
<path d="M36.4921 33.5795H53.5556" stroke="black" stroke-linecap="round" stroke-linejoin="round"/>
<rect x="1" y="5.59521" width="86" height="39.5873" rx="2" stroke="black" stroke-linecap="round" stroke-linejoin="round"/>
<mask id="path-8-inside-1" fill="white">
<path fill-rule="evenodd" clip-rule="evenodd" d="M7.82541 1C7.34764 1 6.96033 1.38731 6.96033 1.86508V5.3326C6.96033 5.60874 6.73647 5.8326 6.46033 5.8326C6.18418 5.8326 5.96033 5.60874 5.96033 5.3326V1.86508C5.96033 0.835025 6.79535 0 7.82541 0H80.1746C81.2047 0 82.0397 0.835023 82.0397 1.86508V5.4353C82.0397 5.71145 81.8158 5.9353 81.5397 5.9353C81.2635 5.9353 81.0397 5.71145 81.0397 5.4353V1.86508C81.0397 1.38731 80.6524 1 80.1746 1H7.82541ZM81.5397 45.2029C81.8158 45.2029 82.0397 45.4268 82.0397 45.7029V48.9127C82.0397 49.9428 81.2047 50.7778 80.1746 50.7778H7.82541C6.79535 50.7778 5.96033 49.9428 5.96033 48.9127V45.871C5.96033 45.5949 6.18418 45.371 6.46033 45.371C6.73647 45.371 6.96033 45.5949 6.96033 45.871V48.9127C6.96033 49.3905 7.34764 49.7778 7.82541 49.7778H80.1746C80.6524 49.7778 81.0397 49.3905 81.0397 48.9127V45.7029C81.0397 45.4268 81.2635 45.2029 81.5397 45.2029Z"/>
</mask>
<path d="M7.46033 1.86508C7.46033 1.66345 7.62378 1.5 7.82541 1.5V0.5C7.07149 0.5 6.46033 1.11117 6.46033 1.86508H7.46033ZM7.46033 5.3326V1.86508H6.46033V5.3326H7.46033ZM6.46033 6.3326C7.01261 6.3326 7.46033 5.88488 7.46033 5.3326H6.46033V6.3326ZM5.46033 5.3326C5.46033 5.88488 5.90804 6.3326 6.46033 6.3326V5.3326H5.46033ZM5.46033 1.86508V5.3326H6.46033V1.86508H5.46033ZM7.82541 -0.5C6.51921 -0.5 5.46033 0.558882 5.46033 1.86508H6.46033C6.46033 1.11117 7.07149 0.5 7.82541 0.5V-0.5ZM80.1746 -0.5H7.82541V0.5H80.1746V-0.5ZM82.5397 1.86508C82.5397 0.558879 81.4808 -0.5 80.1746 -0.5V0.5C80.9285 0.5 81.5397 1.11117 81.5397 1.86508H82.5397ZM82.5397 5.4353V1.86508H81.5397V5.4353H82.5397ZM81.5397 6.4353C82.092 6.4353 82.5397 5.98759 82.5397 5.4353H81.5397V6.4353ZM80.5397 5.4353C80.5397 5.98759 80.9874 6.4353 81.5397 6.4353V5.4353H80.5397ZM80.5397 1.86508V5.4353H81.5397V1.86508H80.5397ZM80.1746 1.5C80.3762 1.5 80.5397 1.66345 80.5397 1.86508H81.5397C81.5397 1.11117 80.9285 0.5 80.1746 0.5V1.5ZM7.82541 1.5H80.1746V0.5H7.82541V1.5ZM82.5397 45.7029C82.5397 45.1507 82.092 44.7029 81.5397 44.7029V45.7029H82.5397ZM82.5397 48.9127V45.7029H81.5397V48.9127H82.5397ZM80.1746 51.2778C81.4808 51.2778 82.5397 50.2189 82.5397 48.9127H81.5397C81.5397 49.6666 80.9285 50.2778 80.1746 50.2778V51.2778ZM7.82541 51.2778H80.1746V50.2778H7.82541V51.2778ZM5.46033 48.9127C5.46033 50.2189 6.51921 51.2778 7.82541 51.2778V50.2778C7.07149 50.2778 6.46033 49.6666 6.46033 48.9127H5.46033ZM5.46033 45.871V48.9127H6.46033V45.871H5.46033ZM6.46033 44.871C5.90804 44.871 5.46033 45.3187 5.46033 45.871H6.46033V45.871V44.871ZM7.46033 45.871C7.46033 45.3187 7.01261 44.871 6.46033 44.871V45.871V45.871H7.46033ZM7.46033 48.9127V45.871H6.46033V48.9127H7.46033ZM7.82541 49.2778C7.62378 49.2778 7.46033 49.1143 7.46033 48.9127H6.46033C6.46033 49.6666 7.07149 50.2778 7.82541 50.2778V49.2778ZM80.1746 49.2778H7.82541V50.2778H80.1746V49.2778ZM80.5397 48.9127C80.5397 49.1143 80.3762 49.2778 80.1746 49.2778V50.2778C80.9285 50.2778 81.5397 49.6666 81.5397 48.9127H80.5397ZM80.5397 45.7029V48.9127H81.5397V45.7029H80.5397ZM81.5397 44.7029C80.9874 44.7029 80.5397 45.1507 80.5397 45.7029H81.5397V44.7029Z" fill="black" mask="url(#path-8-inside-1)"/>
</svg>
