<svg width="84" height="55" viewBox="0 0 84 55" fill="none" xmlns="http://www.w3.org/2000/svg">
<rect x="3" y="1" width="79" height="53" rx="7" stroke="#3F3F3F" stroke-linecap="round" stroke-linejoin="round"/>
<path d="M11 23H38.5" stroke="#3F3F3F" stroke-linecap="round" stroke-linejoin="round"/>
<path d="M4 14H81.5145" stroke="#3F3F3F" stroke-linecap="round" stroke-linejoin="round"/>
<path d="M62.5 23H74.5" stroke="#3F3F3F" stroke-linecap="round" stroke-linejoin="round"/>
<path d="M12.4861 32H21.5" stroke="#3F3F3F" stroke-linecap="round" stroke-linejoin="round"/>
<circle cx="81" cy="14" r="2.25" transform="rotate(-90 81 14)" fill="#C2C2C2"/>
<circle cx="81" cy="14" r="2.25" transform="rotate(-90 81 14)" stroke="#151515" stroke-width="1.5"/>
<circle cx="81" cy="14" r="2.25" transform="rotate(-90 81 14)" stroke="#151515" stroke-width="1.5"/>
<circle cx="3" cy="14" r="2.25" transform="rotate(-90 3 14)" fill="#C2C2C2"/>
<circle cx="3" cy="14" r="2.25" transform="rotate(-90 3 14)" stroke="#151515" stroke-width="1.5"/>
<circle cx="3" cy="14" r="2.25" transform="rotate(-90 3 14)" stroke="#151515" stroke-width="1.5"/>
<circle cx="40" cy="23" r="2.25" transform="rotate(-90 40 23)" fill="#C2C2C2"/>
<circle cx="40" cy="23" r="2.25" transform="rotate(-90 40 23)" stroke="#151515" stroke-width="1.5"/>
<circle cx="40" cy="23" r="2.25" transform="rotate(-90 40 23)" stroke="#151515" stroke-width="1.5"/>
<circle cx="74" cy="23" r="2.25" transform="rotate(-90 74 23)" fill="#C2C2C2"/>
<circle cx="74" cy="23" r="2.25" transform="rotate(-90 74 23)" stroke="#151515" stroke-width="1.5"/>
<circle cx="74" cy="23" r="2.25" transform="rotate(-90 74 23)" stroke="#151515" stroke-width="1.5"/>
<circle cx="21" cy="32" r="2.25" transform="rotate(-90 21 32)" fill="#C2C2C2"/>
<circle cx="21" cy="32" r="2.25" transform="rotate(-90 21 32)" stroke="#151515" stroke-width="1.5"/>
<circle cx="21" cy="32" r="2.25" transform="rotate(-90 21 32)" stroke="#151515" stroke-width="1.5"/>
</svg>
