<svg width="45" height="91" viewBox="0 0 45 91" fill="none" xmlns="http://www.w3.org/2000/svg">
<path fill-rule="evenodd" clip-rule="evenodd" d="M1 7.4429C1 3.69975 3.30714 1 6.70091 1C10.0947 1 34.8125 1 38.1407 1C41.4689 1 44 3.88133 44 7.4429C44 11.0045 44 80.7981 44 84.53C44 88.2619 41.1809 90 38.7408 90C36.3007 90 9.41548 90 6.28987 90C3.16426 90 1 87.2108 1 84.0521C1 80.8935 1 11.1861 1 7.4429Z" stroke="black" stroke-linecap="round" stroke-linejoin="round"/>
<path d="M22.5165 85.6751C22.5165 85.6751 12.2571 85.6751 8.03418 85.6751C3.81121 85.6751 4.00883 81.6497 4.00883 81.6497V42.4877C4.00883 42.4877 4.00883 10.8229 4.00883 7.57365C4.00883 4.32436 7.58249 4 7.58249 4H12.7643C12.7643 4 12.8293 6.50848 15.2728 6.50848C17.7164 6.50848 22.5599 6.50848 22.5599 6.50848" stroke="black" stroke-linecap="round" stroke-linejoin="round"/>
<path d="M22.0434 85.6751C22.0434 85.6751 32.3028 85.6751 36.5258 85.6751C40.7487 85.6751 40.5511 81.6497 40.5511 81.6497V42.4877C40.5511 42.4877 40.5511 10.8229 40.5511 7.57365C40.5511 4.32436 36.9774 4 36.9774 4H31.7956C31.7956 4 31.7307 6.50848 29.2871 6.50848C26.8436 6.50848 22 6.50848 22 6.50848" stroke="black" stroke-linecap="round" stroke-linejoin="round"/>
</svg>
