<svg width="86" height="75" viewBox="0 0 86 75" fill="none" xmlns="http://www.w3.org/2000/svg">
<path d="M70.8614 56.8049V62.2078C70.8614 63.3124 69.966 64.2078 68.8614 64.2078H3C1.89543 64.2078 1 63.3124 1 62.2078V17.9702C1 16.8656 1.89543 15.9702 3 15.9702H7.70221" stroke="#3F3F3F" stroke-linecap="round" stroke-linejoin="round"/>
<path d="M77.6832 49.3321V54.5545C77.6832 55.6591 76.7877 56.5545 75.6832 56.5545H9.82178C8.71721 56.5545 7.82178 55.6591 7.82178 54.5545V10.3169C7.82178 9.21232 8.71721 8.31689 9.82178 8.31689H15.0181" stroke="#3F3F3F" stroke-linecap="round" stroke-linejoin="round"/>
<path fill-rule="evenodd" clip-rule="evenodd" d="M15.1386 3C15.1386 1.89543 16.034 1 17.1386 1H83C84.1046 1 85 1.89543 85 3V47.2376C85 48.3422 84.1046 49.2376 83 49.2376H77.6291H17.1386C16.034 49.2376 15.1386 48.3422 15.1386 47.2376V8.37058V3Z" stroke="#3F3F3F" stroke-linecap="round" stroke-linejoin="round"/>
<path d="M28.8649 64.208C28.8649 64.208 28.2266 70.8743 28.0879 71.379C27.9493 71.8837 27.5477 72.1139 27.3791 72.2358C27.2105 72.3577 25.2393 73.5781 25.1246 73.8061C25.0099 74.034 26.6341 74.1636 27.6849 74.1636C28.7357 74.1636 36.3981 74.1636 36.3981 74.1636" stroke="#3F3F3F" stroke-linecap="round" stroke-linejoin="round"/>
<path d="M42.6322 64.208C42.6322 64.208 43.2705 70.8743 43.4091 71.379C43.5478 71.8837 43.9494 72.1139 44.118 72.2358C44.2866 72.3577 46.2578 73.5781 46.3725 73.8061C46.4871 74.034 44.863 74.1636 43.8122 74.1636C42.7613 74.1636 35.099 74.1636 35.099 74.1636" stroke="#3F3F3F" stroke-linecap="round" stroke-linejoin="round"/>
<path fill-rule="evenodd" clip-rule="evenodd" d="M22 8C22 7.44772 22.4477 7 23 7H37C37.5523 7 38 7.44772 38 8V42C38 42.5523 37.5523 43 37 43H23C22.4477 43 22 42.5523 22 42V8Z" stroke="#3F3F3F" stroke-linecap="round" stroke-linejoin="round"/>
<path fill-rule="evenodd" clip-rule="evenodd" d="M42 8C42 7.44772 42.4477 7 43 7H57C57.5523 7 58 7.44772 58 8V42C58 42.5523 57.5523 43 57 43H43C42.4477 43 42 42.5523 42 42V8Z" stroke="#3F3F3F" stroke-linecap="round" stroke-linejoin="round"/>
<path fill-rule="evenodd" clip-rule="evenodd" d="M62 8C62 7.44772 62.4477 7 63 7H77C77.5523 7 78 7.44772 78 8V42C78 42.5523 77.5523 43 77 43H63C62.4477 43 62 42.5523 62 42V8Z" stroke="#3F3F3F" stroke-linecap="round" stroke-linejoin="round"/>
<circle cx="71" cy="56" r="2.25" transform="rotate(-90 71 56)" fill="#C2C2C2"/>
<circle cx="71" cy="56" r="2.25" transform="rotate(-90 71 56)" stroke="#151515" stroke-width="1.5"/>
<circle cx="71" cy="56" r="2.25" transform="rotate(-90 71 56)" stroke="#151515" stroke-width="1.5"/>
<circle cx="8" cy="56" r="2.25" transform="rotate(-90 8 56)" fill="#C2C2C2"/>
<circle cx="8" cy="56" r="2.25" transform="rotate(-90 8 56)" stroke="#151515" stroke-width="1.5"/>
<circle cx="8" cy="56" r="2.25" transform="rotate(-90 8 56)" stroke="#151515" stroke-width="1.5"/>
<circle cx="36" cy="64" r="2.25" transform="rotate(-90 36 64)" fill="#C2C2C2"/>
<circle cx="36" cy="64" r="2.25" transform="rotate(-90 36 64)" stroke="#151515" stroke-width="1.5"/>
<circle cx="36" cy="64" r="2.25" transform="rotate(-90 36 64)" stroke="#151515" stroke-width="1.5"/>
<circle cx="78" cy="7.5" r="2.25" transform="rotate(-90 78 7.5)" fill="#C2C2C2"/>
<circle cx="78" cy="7.5" r="2.25" transform="rotate(-90 78 7.5)" stroke="#151515" stroke-width="1.5"/>
<circle cx="78" cy="7.5" r="2.25" transform="rotate(-90 78 7.5)" stroke="#151515" stroke-width="1.5"/>
<circle cx="22" cy="7.5" r="2.25" transform="rotate(-90 22 7.5)" fill="#C2C2C2"/>
<circle cx="22" cy="7.5" r="2.25" transform="rotate(-90 22 7.5)" stroke="#151515" stroke-width="1.5"/>
<circle cx="22" cy="7.5" r="2.25" transform="rotate(-90 22 7.5)" stroke="#151515" stroke-width="1.5"/>
</svg>
