<svg width="86" height="72" viewBox="0 0 86 72" fill="none" xmlns="http://www.w3.org/2000/svg">
<rect x="1" y="1" width="84" height="58" rx="2" stroke="black" stroke-linecap="round" stroke-linejoin="round"/>
<path d="M1.5 51.5H84.5241" stroke="black" stroke-linecap="round" stroke-linejoin="round"/>
<path d="M34.5042 59C34.5042 59 33.7367 67.0155 33.57 67.6223C33.4033 68.2291 32.9204 68.5059 32.7177 68.6525C32.5149 68.799 30.1448 70.2665 30.0069 70.5405C29.869 70.8146 31.8219 70.9704 33.0854 70.9704C34.3489 70.9704 43.562 70.9704 43.562 70.9704" stroke="black" stroke-linecap="round" stroke-linejoin="round"/>
<path d="M51.0578 59C51.0578 59 51.8253 67.0155 51.992 67.6223C52.1586 68.2291 52.6415 68.5059 52.8443 68.6525C53.047 68.799 55.4172 70.2665 55.555 70.5405C55.6929 70.8146 53.7401 70.9704 52.4766 70.9704C51.2131 70.9704 42 70.9704 42 70.9704" stroke="black" stroke-linecap="round" stroke-linejoin="round"/>
</svg>
