<svg width="92" height="64" viewBox="0 0 92 64" fill="none" xmlns="http://www.w3.org/2000/svg">
<path d="M12.162 49.5368H11.7652C9.74209 49.5368 8.10204 47.8968 8.10204 45.8737V4.66316C8.10204 2.64005 9.74209 1 11.7652 1H76.7863C78.8094 1 80.4494 2.64005 80.4494 4.66316C80.4494 11.8976 80.4494 17.3235 80.4494 20.9407" stroke="#3F3F3F" stroke-linecap="round" stroke-linejoin="round"/>
<path d="M72.9865 51.7686C71.5429 51.7686 69.8795 51.7686 67.9964 51.7686" stroke="#3F3F3F" stroke-linecap="round" stroke-linejoin="round"/>
<path d="M12.113 49.5601H1V50.2709C2.66791 51.2693 6.30522 51.7686 11.9119 51.7686C15.755 51.7686 22.0998 51.7686 30.9465 51.7686" stroke="#3F3F3F" stroke-linecap="round" stroke-linejoin="round"/>
<path d="M77.2908 5.05078H77.7908C77.7908 4.77464 77.567 4.55078 77.2908 4.55078V5.05078ZM11.2653 5.05078V4.55078C10.9892 4.55078 10.7653 4.77464 10.7653 5.05078H11.2653ZM11.2653 46.1771H10.7653C10.7653 46.4532 10.9892 46.6771 11.2653 46.6771V46.1771ZM68.0434 45.6771C67.4911 45.6771 67.0434 46.1248 67.0434 46.6771H68.0434V45.6771ZM72.9824 45.6771H68.0434V46.6771H72.9824V45.6771ZM73.9824 46.6771C73.9824 46.1248 73.5347 45.6771 72.9824 45.6771V46.6771H73.9824ZM72.9824 47.6771C73.5347 47.6771 73.9824 47.2294 73.9824 46.6771H72.9824V47.6771ZM68.0434 47.6771H72.9824V46.6771H68.0434V47.6771ZM67.0434 46.6771C67.0434 47.2294 67.4911 47.6771 68.0434 47.6771V46.6771H67.0434ZM10.7653 3.55078C10.213 3.55078 9.7653 3.9985 9.7653 4.55078H10.7653V3.55078ZM77.7908 3.55078H10.7653V4.55078H77.7908V3.55078ZM78.7908 4.55078C78.7908 3.9985 78.3431 3.55078 77.7908 3.55078V4.55078H78.7908ZM78.7908 20.7728V4.55078H77.7908V20.7728H78.7908ZM77.7908 21.7728C78.3431 21.7728 78.7908 21.3251 78.7908 20.7728H77.7908V21.7728ZM76.7908 20.7728C76.7908 21.3251 77.2385 21.7728 77.7908 21.7728V20.7728H76.7908ZM76.7908 5.05078V20.7728H77.7908V5.05078H76.7908ZM11.2653 5.55078H77.2908V4.55078H11.2653V5.55078ZM11.7653 46.1771V5.05078H10.7653V46.1771H11.7653ZM30.9671 45.6771H11.2653V46.6771H30.9671V45.6771ZM31.9671 46.6771C31.9671 46.1248 31.5194 45.6771 30.9671 45.6771V46.6771H31.9671ZM30.9671 47.6771C31.5194 47.6771 31.9671 47.2294 31.9671 46.6771H30.9671V47.6771ZM10.7653 47.6771H30.9671V46.6771H10.7653V47.6771ZM9.7653 46.6771C9.7653 47.2294 10.213 47.6771 10.7653 47.6771V46.6771H9.7653ZM9.7653 4.55078V46.6771H10.7653V4.55078H9.7653Z" fill="#3F3F3F"/>
<rect x="31" y="11" width="37" height="50.129" rx="5" stroke="#3F3F3F" stroke-linecap="round" stroke-linejoin="round"/>
<rect x="33.3871" y="15.7744" width="32.2258" height="38.7903" rx="1" stroke="#3F3F3F" stroke-linecap="round" stroke-linejoin="round"/>
<circle cx="49.2903" cy="57.8904" r="1.29032" stroke="#3F3F3F" stroke-linecap="round" stroke-linejoin="round"/>
<path fill-rule="evenodd" clip-rule="evenodd" d="M73 23.8957C73 22.2134 74.4221 21 75.8603 21C77.2985 21 86.8843 21 88.2947 21C89.7052 21 91.2222 22.295 91.2222 23.8957C91.2222 25.4964 91.2222 56.8643 91.2222 58.5416C91.2222 60.2188 89.5831 61 88.5491 61C87.515 61 77.0107 61 75.6861 61C74.3616 61 73 59.7464 73 58.3268C73 56.9072 73 25.578 73 23.8957Z" stroke="#3F3F3F" stroke-linecap="round" stroke-linejoin="round"/>
<path d="M73 28.0001C73 26.58 73.9777 25.5557 75.4159 25.5557C76.8541 25.5557 87.3288 25.5557 88.7392 25.5557C90.1496 25.5557 91.2222 26.6488 91.2222 28.0001" stroke="#3F3F3F" stroke-linecap="round" stroke-linejoin="round"/>
<path d="M80.7 23.2998H83.9732" stroke="#3F3F3F" stroke-linecap="round" stroke-linejoin="round"/>
<circle cx="59" cy="11" r="2.25" transform="rotate(-90 59 11)" fill="#C2C2C2"/>
<circle cx="59" cy="11" r="2.25" transform="rotate(-90 59 11)" stroke="#151515" stroke-width="1.5"/>
<circle cx="59" cy="11" r="2.25" transform="rotate(-90 59 11)" stroke="#151515" stroke-width="1.5"/>
<circle cx="20" cy="47" r="2.25" transform="rotate(-90 20 47)" fill="#C2C2C2"/>
<circle cx="20" cy="47" r="2.25" transform="rotate(-90 20 47)" stroke="#151515" stroke-width="1.5"/>
<circle cx="20" cy="47" r="2.25" transform="rotate(-90 20 47)" stroke="#151515" stroke-width="1.5"/>
<circle cx="40" cy="11" r="2.25" transform="rotate(-90 40 11)" fill="#C2C2C2"/>
<circle cx="40" cy="11" r="2.25" transform="rotate(-90 40 11)" stroke="#151515" stroke-width="1.5"/>
<circle cx="40" cy="11" r="2.25" transform="rotate(-90 40 11)" stroke="#151515" stroke-width="1.5"/>
<circle cx="82.5" cy="61" r="2.25" transform="rotate(-90 82.5 61)" fill="#C2C2C2"/>
<circle cx="82.5" cy="61" r="2.25" transform="rotate(-90 82.5 61)" stroke="#151515" stroke-width="1.5"/>
<circle cx="82.5" cy="61" r="2.25" transform="rotate(-90 82.5 61)" stroke="#151515" stroke-width="1.5"/>
</svg>
