<svg width="80" height="71" viewBox="0 0 80 71" fill="none" xmlns="http://www.w3.org/2000/svg">
<path d="M40 70.4838C40 70.4838 71.8546 70.4838 72.5695 70.4838C73.2845 70.4838 73.8372 70.312 74.5259 69.5916C75.2145 68.8713 77.5613 66.6636 77.9947 66.2486C78.4281 65.8336 78.6268 65.1853 78.6268 64.8516C78.6268 64.5178 78.6268 63.9488 78.6268 63.6319C78.6268 63.315 78.322 63 77.7175 63C77.113 63 49.5889 63 49.1889 63C48.7889 63 48.413 63.4088 48.1642 63.6319C47.9154 63.855 46.7083 64.9263 46.4827 65.1382C46.2571 65.3501 46.0359 65.4549 45.6548 65.4549C45.2737 65.4549 40.0365 65.4549 40.0365 65.4549" stroke="#3F3F3F" stroke-linecap="round" stroke-linejoin="round"/>
<path d="M73.5692 62.9612C73.5692 62.9612 73.5692 25.0872 73.5692 22.4527C73.5692 19.8181 71.898 18 69.4681 18C67.0382 18 53 18 53 18" stroke="#3F3F3F" stroke-linecap="round" stroke-linejoin="round"/>
<path d="M39.6268 70.4838C39.6268 70.4838 7.77225 70.4838 7.05732 70.4838C6.34238 70.4838 5.78963 70.312 5.10097 69.5916C4.41231 68.8713 2.0655 66.6636 1.63213 66.2486C1.19875 65.8336 1 65.1853 1 64.8516C1 64.5178 1 63.9488 1 63.6319C1 63.315 1.30486 63 1.90936 63C2.51385 63 30.0379 63 30.4379 63C30.8379 63 31.2138 63.4088 31.4626 63.6319C31.7114 63.855 32.9185 64.9263 33.1441 65.1382C33.3697 65.3501 33.5909 65.4549 33.972 65.4549C34.3532 65.4549 39.5903 65.4549 39.5903 65.4549" stroke="#3F3F3F" stroke-linecap="round" stroke-linejoin="round"/>
<path d="M5.99998 62.9612C5.99998 62.9612 5.99998 25.0872 5.99998 22.4527C5.99998 19.8181 7.67115 18 10.1011 18C12.531 18 26.6887 18 26.6887 18" stroke="#3F3F3F" stroke-linecap="round" stroke-linejoin="round"/>
<path d="M50.6756 23C50.6756 23 66.9153 23 67.9504 23C68.9855 23 69.243 23.7135 69.243 24.4065C69.243 25.0994 69.243 57.3005 69.243 57.9282C69.243 58.5558 68.805 59 68.1302 59C67.4554 59 40 59 40 59" stroke="#3F3F3F" stroke-linecap="round" stroke-linejoin="round"/>
<path d="M29.4795 23C29.4795 23 13.3277 23 12.2926 23C11.2575 23 11 23.7135 11 24.4065C11 25.0994 11 57.3005 11 57.9282C11 58.5558 11.438 59 12.1128 59C12.7877 59 39.8093 59 39.8093 59" stroke="#3F3F3F" stroke-linecap="round" stroke-linejoin="round"/>
<circle cx="40" cy="14.4444" r="13.4444" stroke="#3F3F3F" stroke-linecap="round" stroke-linejoin="round"/>
<path d="M48.5555 25.4443C53.1362 28.2438 60.7039 35.4177 60.6902 48.9314" stroke="#3F3F3F" stroke-linecap="round" stroke-linejoin="round"/>
<path d="M60.2172 49.4246C51.904 56.3069 28.7975 55.1932 20.1841 50.9292C17.1623 49.4332 21.0289 30.1492 31.3458 25.4443" stroke="#3F3F3F" stroke-linecap="round" stroke-linejoin="round"/>
<circle cx="48" cy="25" r="2.25" transform="rotate(-90 48 25)" fill="#C2C2C2"/>
<circle cx="48" cy="25" r="2.25" transform="rotate(-90 48 25)" stroke="#151515" stroke-width="1.5"/>
<circle cx="48" cy="25" r="2.25" transform="rotate(-90 48 25)" stroke="#151515" stroke-width="1.5"/>
<circle cx="32" cy="25" r="2.25" transform="rotate(-90 32 25)" fill="#C2C2C2"/>
<circle cx="32" cy="25" r="2.25" transform="rotate(-90 32 25)" stroke="#151515" stroke-width="1.5"/>
<circle cx="32" cy="25" r="2.25" transform="rotate(-90 32 25)" stroke="#151515" stroke-width="1.5"/>
<circle cx="11" cy="42" r="2.25" transform="rotate(-90 11 42)" fill="#C2C2C2"/>
<circle cx="11" cy="42" r="2.25" transform="rotate(-90 11 42)" stroke="#151515" stroke-width="1.5"/>
<circle cx="11" cy="42" r="2.25" transform="rotate(-90 11 42)" stroke="#151515" stroke-width="1.5"/>
<circle cx="69" cy="42" r="2.25" transform="rotate(-90 69 42)" fill="#C2C2C2"/>
<circle cx="69" cy="42" r="2.25" transform="rotate(-90 69 42)" stroke="#151515" stroke-width="1.5"/>
<circle cx="69" cy="42" r="2.25" transform="rotate(-90 69 42)" stroke="#151515" stroke-width="1.5"/>
<circle cx="40" cy="66" r="2.25" transform="rotate(-90 40 66)" fill="#C2C2C2"/>
<circle cx="40" cy="66" r="2.25" transform="rotate(-90 40 66)" stroke="#151515" stroke-width="1.5"/>
<circle cx="40" cy="66" r="2.25" transform="rotate(-90 40 66)" stroke="#151515" stroke-width="1.5"/>
</svg>
