<svg width="92" height="62" viewBox="0 0 92 62" fill="none" xmlns="http://www.w3.org/2000/svg">
<path d="M12.162 49.5368H11.7652C9.7421 49.5368 8.10205 47.8968 8.10205 45.8737V4.66316C8.10205 2.64005 9.7421 1 11.7652 1H76.7863C78.8094 1 80.4494 2.64005 80.4494 4.66316C80.4494 11.8976 80.4494 17.3235 80.4494 20.9407" stroke="black" stroke-linecap="round" stroke-linejoin="round"/>
<path d="M72.9865 51.7686C71.5429 51.7686 69.8795 51.7686 67.9964 51.7686" stroke="black" stroke-linecap="round" stroke-linejoin="round"/>
<path d="M12.1131 49.5601H1.00002V50.2709C2.66792 51.2693 6.30524 51.7686 11.912 51.7686C15.755 51.7686 22.0998 51.7686 30.9465 51.7686" stroke="black" stroke-linecap="round" stroke-linejoin="round"/>
<mask id="path-4-inside-1" fill="white">
<path fill-rule="evenodd" clip-rule="evenodd" d="M67.5434 46.6771C67.5434 46.401 67.7673 46.1771 68.0434 46.1771H72.9824C73.2585 46.1771 73.4824 46.401 73.4824 46.6771C73.4824 46.9532 73.2585 47.1771 72.9824 47.1771H68.0434C67.7673 47.1771 67.5434 46.9532 67.5434 46.6771ZM10.2653 4.55078C10.2653 4.27464 10.4892 4.05078 10.7653 4.05078H77.7908C78.067 4.05078 78.2908 4.27464 78.2908 4.55078V20.7728C78.2908 21.0489 78.067 21.2728 77.7908 21.2728C77.5147 21.2728 77.2908 21.0489 77.2908 20.7728V5.05078H11.2653V46.1771H30.9672C31.2433 46.1771 31.4672 46.401 31.4672 46.6771C31.4672 46.9532 31.2433 47.1771 30.9672 47.1771H10.7653C10.4892 47.1771 10.2653 46.9532 10.2653 46.6771V4.55078Z"/>
</mask>
<path d="M77.2908 5.05078H78.2908C78.2908 4.4985 77.8431 4.05078 77.2908 4.05078V5.05078ZM11.2653 5.05078V4.05078C10.713 4.05078 10.2653 4.4985 10.2653 5.05078H11.2653ZM11.2653 46.1771H10.2653C10.2653 46.7294 10.713 47.1771 11.2653 47.1771V46.1771ZM68.0434 45.1771C67.215 45.1771 66.5434 45.8487 66.5434 46.6771H68.5434C68.5434 46.9532 68.3196 47.1771 68.0434 47.1771V45.1771ZM72.9824 45.1771H68.0434V47.1771H72.9824V45.1771ZM74.4824 46.6771C74.4824 45.8487 73.8108 45.1771 72.9824 45.1771V47.1771C72.7062 47.1771 72.4824 46.9532 72.4824 46.6771H74.4824ZM72.9824 48.1771C73.8108 48.1771 74.4824 47.5055 74.4824 46.6771H72.4824C72.4824 46.401 72.7062 46.1771 72.9824 46.1771V48.1771ZM68.0434 48.1771H72.9824V46.1771H68.0434V48.1771ZM66.5434 46.6771C66.5434 47.5055 67.215 48.1771 68.0434 48.1771V46.1771C68.3196 46.1771 68.5434 46.401 68.5434 46.6771H66.5434ZM10.7653 3.05078C9.93689 3.05078 9.26532 3.72235 9.26532 4.55078H11.2653C11.2653 4.82692 11.0415 5.05078 10.7653 5.05078V3.05078ZM77.7908 3.05078H10.7653V5.05078H77.7908V3.05078ZM79.2908 4.55078C79.2908 3.72236 78.6193 3.05078 77.7908 3.05078V5.05078C77.5147 5.05078 77.2908 4.82692 77.2908 4.55078H79.2908ZM79.2908 20.7728V4.55078H77.2908V20.7728H79.2908ZM77.7908 22.2728C78.6193 22.2728 79.2908 21.6012 79.2908 20.7728H77.2908C77.2908 20.4967 77.5147 20.2728 77.7908 20.2728V22.2728ZM76.2908 20.7728C76.2908 21.6012 76.9624 22.2728 77.7908 22.2728V20.2728C78.067 20.2728 78.2908 20.4967 78.2908 20.7728H76.2908ZM76.2908 5.05078V20.7728H78.2908V5.05078H76.2908ZM11.2653 6.05078H77.2908V4.05078H11.2653V6.05078ZM12.2653 46.1771V5.05078H10.2653V46.1771H12.2653ZM30.9672 45.1771H11.2653V47.1771H30.9672V45.1771ZM32.4672 46.6771C32.4672 45.8487 31.7956 45.1771 30.9672 45.1771V47.1771C30.691 47.1771 30.4672 46.9532 30.4672 46.6771H32.4672ZM30.9672 48.1771C31.7956 48.1771 32.4672 47.5055 32.4672 46.6771H30.4672C30.4672 46.401 30.691 46.1771 30.9672 46.1771V48.1771ZM10.7653 48.1771H30.9672V46.1771H10.7653V48.1771ZM9.26532 46.6771C9.26532 47.5055 9.93689 48.1771 10.7653 48.1771V46.1771C11.0415 46.1771 11.2653 46.401 11.2653 46.6771H9.26532ZM9.26532 4.55078V46.6771H11.2653V4.55078H9.26532Z" fill="black" mask="url(#path-4-inside-1)"/>
<rect x="31" y="11" width="37" height="50.129" rx="5" stroke="black" stroke-linecap="round" stroke-linejoin="round"/>
<rect x="33.3871" y="15.7744" width="32.2258" height="38.7903" rx="1" stroke="black" stroke-linecap="round" stroke-linejoin="round"/>
<circle cx="49.2903" cy="57.8904" r="1.29032" stroke="black" stroke-linecap="round" stroke-linejoin="round"/>
<path fill-rule="evenodd" clip-rule="evenodd" d="M73 23.8957C73 22.2134 74.4221 21 75.8603 21C77.2985 21 86.8843 21 88.2947 21C89.7052 21 91.2222 22.295 91.2222 23.8957C91.2222 25.4964 91.2222 56.8643 91.2222 58.5416C91.2222 60.2188 89.5831 61 88.5491 61C87.515 61 77.0107 61 75.6861 61C74.3616 61 73 59.7464 73 58.3268C73 56.9072 73 25.578 73 23.8957Z" stroke="black" stroke-linecap="round" stroke-linejoin="round"/>
<path d="M73 28.0001C73 26.58 73.9777 25.5557 75.4159 25.5557C76.8541 25.5557 87.3288 25.5557 88.7392 25.5557C90.1496 25.5557 91.2222 26.6488 91.2222 28.0001" stroke="black" stroke-linecap="round" stroke-linejoin="round"/>
<path d="M80.7 23.2998H83.9732" stroke="black" stroke-linecap="round" stroke-linejoin="round"/>
</svg>
