<svg width="79" height="95" viewBox="0 0 79 95" fill="none" xmlns="http://www.w3.org/2000/svg">
<path d="M40.1465 2.64648L53.1767 49.1511" stroke="#3F3F3F" stroke-linecap="round" stroke-linejoin="round"/>
<path d="M53.2471 49.2847L40.1465 93.1639" stroke="#3F3F3F" stroke-linecap="round" stroke-linejoin="round"/>
<path d="M76.3534 42.733L40.1466 93.164" stroke="#3F3F3F" stroke-linecap="round" stroke-linejoin="round"/>
<path d="M2.64654 41.4395L40.1465 93.1637" stroke="#3F3F3F" stroke-linecap="round" stroke-linejoin="round"/>
<path d="M2.64654 41.4397L40.1465 2.64655" stroke="#3F3F3F" stroke-linecap="round" stroke-linejoin="round"/>
<path d="M76.3534 41.4397L40.1466 2.64655" stroke="#3F3F3F" stroke-linecap="round" stroke-linejoin="round"/>
<path d="M40.1465 3.93945L24.7692 49.2847" stroke="#3F3F3F" stroke-linecap="round" stroke-linejoin="round"/>
<path d="M24.6293 49.1983L40.1466 93.1638" stroke="#3F3F3F" stroke-linecap="round" stroke-linejoin="round"/>
<path d="M75.0603 42.733L53.0776 49.1985" stroke="#3F3F3F" stroke-linecap="round" stroke-linejoin="round"/>
<path d="M2.64656 41.4395L24.8795 49.3665" stroke="#3F3F3F" stroke-linecap="round" stroke-linejoin="round"/>
<path d="M24.6293 49.1984H53.1949" stroke="#3F3F3F" stroke-linecap="round" stroke-linejoin="round"/>
<circle cx="3" cy="42" r="2.25" transform="rotate(-90 3 42)" fill="#C2C2C2"/>
<circle cx="3" cy="42" r="2.25" transform="rotate(-90 3 42)" stroke="#151515" stroke-width="1.5"/>
<circle cx="3" cy="42" r="2.25" transform="rotate(-90 3 42)" stroke="#151515" stroke-width="1.5"/>
<circle cx="76" cy="42" r="2.25" transform="rotate(-90 76 42)" fill="#C2C2C2"/>
<circle cx="76" cy="42" r="2.25" transform="rotate(-90 76 42)" stroke="#151515" stroke-width="1.5"/>
<circle cx="76" cy="42" r="2.25" transform="rotate(-90 76 42)" stroke="#151515" stroke-width="1.5"/>
<circle cx="40.5" cy="3" r="2.25" transform="rotate(-90 40.5 3)" fill="#C2C2C2"/>
<circle cx="40.5" cy="3" r="2.25" transform="rotate(-90 40.5 3)" stroke="#151515" stroke-width="1.5"/>
<circle cx="40.5" cy="3" r="2.25" transform="rotate(-90 40.5 3)" stroke="#151515" stroke-width="1.5"/>
<circle cx="40" cy="92" r="2.25" transform="rotate(-90 40 92)" fill="#C2C2C2"/>
<circle cx="40" cy="92" r="2.25" transform="rotate(-90 40 92)" stroke="#151515" stroke-width="1.5"/>
<circle cx="40" cy="92" r="2.25" transform="rotate(-90 40 92)" stroke="#151515" stroke-width="1.5"/>
</svg>
