<svg width="59" height="82" viewBox="0 0 59 82" fill="none" xmlns="http://www.w3.org/2000/svg">
<path fill-rule="evenodd" clip-rule="evenodd" d="M40.6522 81H1V1H58V63.5446L40.6522 81Z" stroke="#3F3F3F" stroke-linecap="round" stroke-linejoin="round"/>
<path d="M40.2125 80.8491V63.4473H57.6657" stroke="#3F3F3F" stroke-linecap="round" stroke-linejoin="round"/>
<rect x="7" y="22" width="45" height="33" rx="1" stroke="#3F3F3F" stroke-linecap="round" stroke-linejoin="round"/>
<rect x="7" y="8" width="11" height="8" rx="1" stroke="#3F3F3F" stroke-linecap="round" stroke-linejoin="round"/>
<rect x="24" y="8" width="28" height="8" rx="1" stroke="#3F3F3F" stroke-linecap="round" stroke-linejoin="round"/>
<path d="M8 63.5H19.5" stroke="#3F3F3F" stroke-linecap="round" stroke-linejoin="round"/>
<path d="M8 72H26.5" stroke="#3F3F3F" stroke-linecap="round" stroke-linejoin="round"/>
<path d="M18.9848 40.3939L29.597 29.7817L40.2092 40.3939" stroke="#3F3F3F" stroke-linecap="round" stroke-linejoin="round"/>
<path d="M29.5818 30V53.9164" stroke="#3F3F3F" stroke-linecap="round" stroke-linejoin="round"/>
<circle cx="18" cy="41" r="2.25" transform="rotate(-90 18 41)" fill="#C2C2C2"/>
<circle cx="18" cy="41" r="2.25" transform="rotate(-90 18 41)" stroke="#151515" stroke-width="1.5"/>
<circle cx="18" cy="41" r="2.25" transform="rotate(-90 18 41)" stroke="#151515" stroke-width="1.5"/>
<circle cx="41" cy="41" r="2.25" transform="rotate(-90 41 41)" fill="#C2C2C2"/>
<circle cx="41" cy="41" r="2.25" transform="rotate(-90 41 41)" stroke="#151515" stroke-width="1.5"/>
<circle cx="41" cy="41" r="2.25" transform="rotate(-90 41 41)" stroke="#151515" stroke-width="1.5"/>
<circle cx="29.5" cy="30" r="2.25" transform="rotate(-90 29.5 30)" fill="#C2C2C2"/>
<circle cx="29.5" cy="30" r="2.25" transform="rotate(-90 29.5 30)" stroke="#151515" stroke-width="1.5"/>
<circle cx="29.5" cy="30" r="2.25" transform="rotate(-90 29.5 30)" stroke="#151515" stroke-width="1.5"/>
<circle cx="28" cy="12" r="2.25" transform="rotate(-90 28 12)" fill="#C2C2C2"/>
<circle cx="28" cy="12" r="2.25" transform="rotate(-90 28 12)" stroke="#151515" stroke-width="1.5"/>
<circle cx="28" cy="12" r="2.25" transform="rotate(-90 28 12)" stroke="#151515" stroke-width="1.5"/>
<circle cx="11" cy="12" r="2.25" transform="rotate(-90 11 12)" fill="#C2C2C2"/>
<circle cx="11" cy="12" r="2.25" transform="rotate(-90 11 12)" stroke="#151515" stroke-width="1.5"/>
<circle cx="11" cy="12" r="2.25" transform="rotate(-90 11 12)" stroke="#151515" stroke-width="1.5"/>
</svg>
