<svg width="91" height="90" viewBox="0 0 91 90" fill="none" xmlns="http://www.w3.org/2000/svg">
<g clip-path="url(#clip0)">
<path fill-rule="evenodd" clip-rule="evenodd" d="M17.6286 45.5056C16.7659 47.7025 17.122 48.1412 18.8286 50.9481C20.5352 53.755 21.8396 58.7226 21.5901 63.7292C21.3407 68.7359 24.1429 63.397 28.061 56.7345C31.9791 50.072 27.956 48.4409 25.5022 46.0076C23.0484 43.5742 17.6769 44.2746 15.4154 41.6208C13.1538 38.9671 14.4896 36.6461 18.8286 34.5583C23.1676 32.4704 29.8143 25.4713 25.5022 25.3296C21.1901 25.188 19.8489 24.3323 17.2571 21.97C14.6654 19.6078 0.339565 20.7809 4.28187 23.5223C8.22418 26.2636 9.22308 26.2576 8.22418 33.1741C7.22528 40.0906 18.4912 43.3086 17.6286 45.5056Z" stroke="black" stroke-linecap="round" stroke-linejoin="round"/>
<path fill-rule="evenodd" clip-rule="evenodd" d="M41.6975 35.2032C39.7623 37.2777 34.3613 41.3738 41.0465 45.8405C47.7316 50.3072 46.759 46.8319 47.7317 53.3035C48.7043 59.7752 50.9898 62.944 54.098 57.5777C57.2063 52.2115 55.5158 47.9356 57.7838 46.4947C60.0519 45.0539 57.9685 36.8015 62.3873 39.0534C66.8061 41.3054 67.0127 45.924 71.1581 42.3641C75.3036 38.8042 73.3061 45.9941 76.1478 44.5949C78.9894 43.1958 83.3308 37.6582 81.4461 35.226C79.5613 32.7937 84.8709 28.0656 84.5891 25.9199C84.3074 23.7742 75.7032 21.2679 63.2404 22.5558C50.7776 23.8437 52.5114 20.8846 49.6489 21.7675C46.7865 22.6504 44.3007 27.4687 42.9149 27.8514C41.5292 28.2342 37.1962 34.5122 42.9149 33.122C48.6336 31.7317 49.9935 34.8143 47.7317 34.5122C45.4698 34.2101 43.6328 33.1286 41.6975 35.2032Z" stroke="black" stroke-linecap="round" stroke-linejoin="round"/>
<path fill-rule="evenodd" clip-rule="evenodd" d="M87.7908 53.6096C86.8292 52.7276 84.2754 53.1093 82.1486 53.8564C80.0219 54.6034 77.556 59.1808 80.6835 59.4259C83.811 59.6711 83.2217 59.8498 85.867 60.9622C88.5124 62.0747 91.1444 59.0368 90.8819 56.9844C90.6194 54.9319 88.7524 54.4917 87.7908 53.6096Z" stroke="black" stroke-linecap="round" stroke-linejoin="round"/>
<path d="M75.2516 11.6853C67.2608 4.42487 56.6471 0 45 0C33.2544 0 22.5599 4.49999 14.5464 11.87" stroke="black" stroke-linecap="round" stroke-linejoin="round"/>
<path d="M0 45C0 69.8528 20.1472 90 45 90V90C58.2326 90 70.1312 84.2884 78.3651 75.1961" stroke="black" stroke-linecap="round" stroke-linejoin="round"/>
</g>
<defs>
<clipPath id="clip0">
<rect width="91" height="90" fill="white"/>
</clipPath>
</defs>
</svg>
