<svg width="84" height="58" viewBox="0 0 84 58" fill="none" xmlns="http://www.w3.org/2000/svg">
<rect x="3" y="2" width="79" height="53" stroke="#3F3F3F" stroke-linecap="round" stroke-linejoin="round"/>
<circle cx="3" cy="55" r="2.25" transform="rotate(-90 3 55)" fill="#C2C2C2"/>
<circle cx="3" cy="55" r="2.25" transform="rotate(-90 3 55)" stroke="#151515" stroke-width="1.5"/>
<circle cx="3" cy="55" r="2.25" transform="rotate(-90 3 55)" stroke="#151515" stroke-width="1.5"/>
<circle cx="81" cy="3" r="2.25" transform="rotate(-90 81 3)" fill="#C2C2C2"/>
<circle cx="81" cy="3" r="2.25" transform="rotate(-90 81 3)" stroke="#151515" stroke-width="1.5"/>
<circle cx="81" cy="3" r="2.25" transform="rotate(-90 81 3)" stroke="#151515" stroke-width="1.5"/>
<path d="M22.5 2.5V54.5096" stroke="#3F3F3F" stroke-linecap="round" stroke-linejoin="round"/>
<path d="M42.5 2.5V54.5096" stroke="#3F3F3F" stroke-linecap="round" stroke-linejoin="round"/>
<path d="M62.5 2.5V54.5096" stroke="#3F3F3F" stroke-linecap="round" stroke-linejoin="round"/>
<circle cx="13" cy="14" r="2.25" transform="rotate(-90 13 14)" fill="#C2C2C2"/>
<circle cx="13" cy="14" r="2.25" transform="rotate(-90 13 14)" stroke="#151515" stroke-width="1.5"/>
<circle cx="13" cy="14" r="2.25" transform="rotate(-90 13 14)" stroke="#151515" stroke-width="1.5"/>
<circle cx="33" cy="14" r="2.25" transform="rotate(-90 33 14)" fill="#C2C2C2"/>
<circle cx="33" cy="14" r="2.25" transform="rotate(-90 33 14)" stroke="#151515" stroke-width="1.5"/>
<circle cx="33" cy="14" r="2.25" transform="rotate(-90 33 14)" stroke="#151515" stroke-width="1.5"/>
<circle cx="13" cy="24" r="2.25" transform="rotate(-90 13 24)" fill="#C2C2C2"/>
<circle cx="13" cy="24" r="2.25" transform="rotate(-90 13 24)" stroke="#151515" stroke-width="1.5"/>
<circle cx="13" cy="24" r="2.25" transform="rotate(-90 13 24)" stroke="#151515" stroke-width="1.5"/>
<circle cx="13" cy="34" r="2.25" transform="rotate(-90 13 34)" fill="#C2C2C2"/>
<circle cx="13" cy="34" r="2.25" transform="rotate(-90 13 34)" stroke="#151515" stroke-width="1.5"/>
<circle cx="13" cy="34" r="2.25" transform="rotate(-90 13 34)" stroke="#151515" stroke-width="1.5"/>
<circle cx="53" cy="14" r="2.25" transform="rotate(-90 53 14)" fill="#C2C2C2"/>
<circle cx="53" cy="14" r="2.25" transform="rotate(-90 53 14)" stroke="#151515" stroke-width="1.5"/>
<circle cx="53" cy="14" r="2.25" transform="rotate(-90 53 14)" stroke="#151515" stroke-width="1.5"/>
<circle cx="53" cy="24" r="2.25" transform="rotate(-90 53 24)" fill="#C2C2C2"/>
<circle cx="53" cy="24" r="2.25" transform="rotate(-90 53 24)" stroke="#151515" stroke-width="1.5"/>
<circle cx="53" cy="24" r="2.25" transform="rotate(-90 53 24)" stroke="#151515" stroke-width="1.5"/>
<circle cx="73" cy="14" r="2.25" transform="rotate(-90 73 14)" fill="#C2C2C2"/>
<circle cx="73" cy="14" r="2.25" transform="rotate(-90 73 14)" stroke="#151515" stroke-width="1.5"/>
<circle cx="73" cy="14" r="2.25" transform="rotate(-90 73 14)" stroke="#151515" stroke-width="1.5"/>
</svg>
