<svg width="103" height="57" viewBox="0 0 103 57" fill="none" xmlns="http://www.w3.org/2000/svg">
<path fill-rule="evenodd" clip-rule="evenodd" d="M100.153 28.6407C100.153 28.6407 78.2613 56.2813 51.25 56.2813C24.2387 56.2813 2.34729 28.6407 2.34729 28.6407C2.34729 28.6407 24.2387 1 51.25 1C78.2613 1 100.153 28.6407 100.153 28.6407Z" stroke="#3F3F3F" stroke-linecap="round" stroke-linejoin="round"/>
<path fill-rule="evenodd" clip-rule="evenodd" d="M67.9559 28.9442C67.9559 38.342 60.3398 45.9538 50.9463 45.9538C41.5527 45.9538 33.9366 38.342 33.9366 28.9442C33.9366 19.5464 41.5527 11.9346 50.9463 11.9346C60.3398 11.9346 67.9559 19.5464 67.9559 28.9442Z" stroke="#3F3F3F" stroke-linecap="round" stroke-linejoin="round"/>
<path d="M50.9463 20.4395C55.6452 20.4395 59.4511 24.2496 59.4511 28.9443C59.4511 33.6389 55.6452 37.4491 50.9463 37.4491C46.2516 37.4491 42.4414 33.6389 42.4414 28.9443" stroke="#3F3F3F" stroke-linecap="round" stroke-linejoin="round"/>
<circle cx="43" cy="28.8906" r="2.25" fill="#C2C2C2"/>
<circle cx="43" cy="28.8906" r="2.25" stroke="#151515" stroke-width="1.5"/>
<circle cx="43" cy="28.8906" r="2.25" stroke="#151515" stroke-width="1.5"/>
<circle cx="66" cy="36.8906" r="2.25" fill="#C2C2C2"/>
<circle cx="66" cy="36.8906" r="2.25" stroke="#151515" stroke-width="1.5"/>
<circle cx="66" cy="36.8906" r="2.25" stroke="#151515" stroke-width="1.5"/>
<circle cx="100" cy="28.8906" r="2.25" fill="#C2C2C2"/>
<circle cx="100" cy="28.8906" r="2.25" stroke="#151515" stroke-width="1.5"/>
<circle cx="100" cy="28.8906" r="2.25" stroke="#151515" stroke-width="1.5"/>
<circle cx="3" cy="28.8906" r="2.25" fill="#C2C2C2"/>
<circle cx="3" cy="28.8906" r="2.25" stroke="#151515" stroke-width="1.5"/>
<circle cx="3" cy="28.8906" r="2.25" stroke="#151515" stroke-width="1.5"/>
<circle cx="49" cy="20.8906" r="2.25" fill="#C2C2C2"/>
<circle cx="49" cy="20.8906" r="2.25" stroke="#151515" stroke-width="1.5"/>
<circle cx="49" cy="20.8906" r="2.25" stroke="#151515" stroke-width="1.5"/>
</svg>
