<svg width="96" height="62" viewBox="0 0 96 62" fill="none" xmlns="http://www.w3.org/2000/svg">
<g clip-path="url(#clip0)">
<path d="M33 13C33 13 40.0806 18.8214 50.992 13.5058C59.2151 16.4067 61.8167 17.2899 61.8167 17.2899L82.3841 38L95.5514 31.6658" stroke="black" stroke-linecap="round" stroke-linejoin="round"/>
<path d="M47.7039 1.78613L28.7033 5.01242L20.0924 10.9998L8.36884 6.13834" stroke="black" stroke-linecap="round" stroke-linejoin="round"/>
<path fill-rule="evenodd" clip-rule="evenodd" d="M26.325 29.3902C28.4525 31.3392 28.5689 34.6136 26.5849 36.7037L23.1196 40.3544C21.1356 42.4446 17.8026 42.5589 15.675 40.6098C13.5475 38.6608 13.4311 35.3864 15.4151 33.2963L18.8804 29.6456C20.8644 27.5554 24.1974 27.4411 26.325 29.3902Z" stroke="black" stroke-linecap="round" stroke-linejoin="round"/>
<path fill-rule="evenodd" clip-rule="evenodd" d="M39.358 31.4135C41.4436 33.3952 41.5577 36.7245 39.6128 38.8497L30.9398 48.3268C28.9949 50.452 25.7276 50.5683 23.642 48.5865C21.5564 46.6048 21.4423 43.2755 23.3872 41.1503L32.0602 31.6732C34.0051 29.548 37.2724 29.4317 39.358 31.4135Z" stroke="black" stroke-linecap="round" stroke-linejoin="round"/>
<path fill-rule="evenodd" clip-rule="evenodd" d="M47.9706 38.9413C50.209 41.4223 50.7424 44.3841 48.8154 46.4993L41.0475 55.0258C39.1205 57.141 35.8091 57.5678 33.2588 55.1068C30.7086 52.6458 30.4474 49.3073 32.3744 47.1921L40.1423 38.6655C42.0693 36.5503 45.7323 36.4602 47.9706 38.9413Z" stroke="black" stroke-linecap="round" stroke-linejoin="round"/>
<path fill-rule="evenodd" clip-rule="evenodd" d="M55.3285 47.3779C57.4516 49.3097 57.5677 52.5552 55.5879 54.6268L50.1004 60.369C48.1206 62.4406 44.7946 62.554 42.6715 60.6221C40.5484 58.6903 40.4323 55.4448 42.4121 53.3732L47.8996 47.631C49.8794 45.5594 53.2054 45.446 55.3285 47.3779Z" stroke="black" stroke-linecap="round" stroke-linejoin="round"/>
<path fill-rule="evenodd" clip-rule="evenodd" d="M59.5948 37.448C61.6698 35.4687 64.9763 35.5257 66.98 37.5754L72.5341 43.2567C74.5379 45.3064 74.4802 48.5726 72.4052 50.552C70.3302 52.5313 67.0237 52.4743 65.02 50.4246L59.4659 44.7433C57.4621 42.6936 57.5198 39.4274 59.5948 37.448Z" stroke="black" stroke-linecap="round" stroke-linejoin="round"/>
<path d="M63.0708 48.6318L63.7218 49.3713C65.1478 50.9874 65.3426 53.9329 63.8687 55.4965L63.6238 55.7558C62.0179 57.4562 59.4589 57.4072 57.9081 55.6464L56 53.4675" stroke="black" stroke-linecap="round" stroke-linejoin="round"/>
<path d="M82.4942 38.106C83.6483 40.0093 84.22 44.1627 82.6519 45.7213L81.7888 46.5789C79.8346 48.5211 76.7205 48.4652 74.8333 46.454C74.8289 46.4493 74 45.5591 74 45.5591" stroke="black" stroke-linecap="round" stroke-linejoin="round"/>
<path d="M88 7.15008L81.6944 10.4613L68.2779 0L47.5806 1.61069L33.1344 13.1079" stroke="black" stroke-linecap="round" stroke-linejoin="round"/>
<path d="M0.875954 30.9414L13.7875 36.7038" stroke="black" stroke-linecap="round" stroke-linejoin="round"/>
</g>
<defs>
<clipPath id="clip0">
<rect width="96" height="62" fill="white"/>
</clipPath>
</defs>
</svg>
