<svg width="101" height="63" viewBox="0 0 101 63" fill="none" xmlns="http://www.w3.org/2000/svg">
<g clip-path="url(#clip0)">
<path d="M35 14C35 14 42.0806 19.8214 52.992 14.5058C61.2151 17.4067 63.8167 18.2899 63.8167 18.2899L84.3841 39L97.5514 32.6658" stroke="#3F3F3F" stroke-linecap="round" stroke-linejoin="round"/>
<path d="M49.7039 2.78613L30.7033 6.01242L22.0924 11.9998L10.3688 7.13834" stroke="#3F3F3F" stroke-linecap="round" stroke-linejoin="round"/>
<path fill-rule="evenodd" clip-rule="evenodd" d="M28.325 30.3902C30.4525 32.3392 30.5689 35.6136 28.5849 37.7037L25.1196 41.3544C23.1356 43.4446 19.8026 43.5589 17.675 41.6098C15.5475 39.6608 15.4311 36.3864 17.4151 34.2963L20.8804 30.6456C22.8644 28.5554 26.1974 28.4411 28.325 30.3902Z" stroke="#3F3F3F" stroke-linecap="round" stroke-linejoin="round"/>
<path fill-rule="evenodd" clip-rule="evenodd" d="M41.358 32.4135C43.4436 34.3952 43.5577 37.7245 41.6128 39.8497L32.9398 49.3268C30.9949 51.452 27.7276 51.5683 25.642 49.5865C23.5564 47.6048 23.4423 44.2755 25.3872 42.1503L34.0602 32.6732C36.0051 30.548 39.2724 30.4317 41.358 32.4135Z" stroke="#3F3F3F" stroke-linecap="round" stroke-linejoin="round"/>
<path fill-rule="evenodd" clip-rule="evenodd" d="M49.9706 39.9413C52.209 42.4223 52.7424 45.3841 50.8154 47.4993L43.0475 56.0258C41.1205 58.141 37.8091 58.5678 35.2588 56.1068C32.7086 53.6458 32.4474 50.3073 34.3744 48.1921L42.1423 39.6655C44.0693 37.5503 47.7323 37.4602 49.9706 39.9413Z" stroke="#3F3F3F" stroke-linecap="round" stroke-linejoin="round"/>
<path fill-rule="evenodd" clip-rule="evenodd" d="M57.3285 48.3779C59.4516 50.3097 59.5677 53.5552 57.5879 55.6268L52.1004 61.369C50.1206 63.4406 46.7946 63.554 44.6715 61.6221C42.5484 59.6903 42.4323 56.4448 44.4121 54.3732L49.8996 48.631C51.8794 46.5594 55.2054 46.446 57.3285 48.3779Z" stroke="#3F3F3F" stroke-linecap="round" stroke-linejoin="round"/>
<path fill-rule="evenodd" clip-rule="evenodd" d="M61.5948 38.448C63.6698 36.4687 66.9763 36.5257 68.98 38.5754L74.5341 44.2567C76.5379 46.3064 76.4802 49.5726 74.4052 51.552C72.3302 53.5313 69.0237 53.4743 67.02 51.4246L61.4659 45.7433C59.4621 43.6936 59.5198 40.4274 61.5948 38.448Z" stroke="#3F3F3F" stroke-linecap="round" stroke-linejoin="round"/>
<path d="M65.0708 49.6318L65.7218 50.3713C67.1478 51.9874 67.3426 54.9329 65.8687 56.4965L65.6238 56.7558C64.0179 58.4562 61.4589 58.4072 59.9081 56.6464L58 54.4675" stroke="#3F3F3F" stroke-linecap="round" stroke-linejoin="round"/>
<path d="M84.4942 39.106C85.6483 41.0093 86.22 45.1627 84.6519 46.7213L83.7888 47.5789C81.8346 49.5211 78.7205 49.4652 76.8333 47.454C76.8289 47.4493 76 46.5591 76 46.5591" stroke="#3F3F3F" stroke-linecap="round" stroke-linejoin="round"/>
<path d="M90 8.15008L83.6944 11.4613L70.2779 1L49.5806 2.61069L35.1344 14.1079" stroke="#3F3F3F" stroke-linecap="round" stroke-linejoin="round"/>
<path d="M2.87595 31.9414L15.7875 37.7038" stroke="#3F3F3F" stroke-linecap="round" stroke-linejoin="round"/>
<circle cx="10" cy="7" r="2.25" fill="#C2C2C2"/>
<circle cx="10" cy="7" r="2.25" stroke="#151515" stroke-width="1.5"/>
<circle cx="10" cy="7" r="2.25" stroke="#151515" stroke-width="1.5"/>
<circle cx="3" cy="31" r="2.25" fill="#C2C2C2"/>
<circle cx="3" cy="31" r="2.25" stroke="#151515" stroke-width="1.5"/>
<circle cx="3" cy="31" r="2.25" stroke="#151515" stroke-width="1.5"/>
<circle cx="48" cy="3" r="2.25" fill="#C2C2C2"/>
<circle cx="48" cy="3" r="2.25" stroke="#151515" stroke-width="1.5"/>
<circle cx="48" cy="3" r="2.25" stroke="#151515" stroke-width="1.5"/>
<circle cx="91" cy="8" r="2.25" fill="#C2C2C2"/>
<circle cx="91" cy="8" r="2.25" stroke="#151515" stroke-width="1.5"/>
<circle cx="91" cy="8" r="2.25" stroke="#151515" stroke-width="1.5"/>
<circle cx="98" cy="33" r="2.25" fill="#C2C2C2"/>
<circle cx="98" cy="33" r="2.25" stroke="#151515" stroke-width="1.5"/>
<circle cx="98" cy="33" r="2.25" stroke="#151515" stroke-width="1.5"/>
<circle cx="58" cy="54" r="2.25" fill="#C2C2C2"/>
<circle cx="58" cy="54" r="2.25" stroke="#151515" stroke-width="1.5"/>
<circle cx="58" cy="54" r="2.25" stroke="#151515" stroke-width="1.5"/>
</g>
<defs>
<clipPath id="clip0">
<rect width="101" height="63" fill="white"/>
</clipPath>
</defs>
</svg>
