<svg width="102" height="102" viewBox="0 0 102 102" fill="none" xmlns="http://www.w3.org/2000/svg">
<circle cx="52.2575" cy="49.4473" r="33" stroke="#3F3F3F" stroke-linecap="round" stroke-linejoin="round"/>
<path d="M58.7126 81.6734C66.0083 77.2515 71.2575 63.9563 71.2575 49.4473C71.2575 31.2219 62.9748 16.4473 52.7575 16.4473C42.5403 16.4473 34.2575 31.2219 34.2575 49.4473C34.2575 54.5478 34.9062 59.7403 36.0645 64.0521" stroke="#3F3F3F" stroke-linecap="round" stroke-linejoin="round"/>
<path d="M52.7575 16.5879L52.7575 77.3342" stroke="#3F3F3F" stroke-linecap="round" stroke-linejoin="round"/>
<path d="M24.2241 49.2676H85.2326" stroke="#3F3F3F" stroke-linecap="round" stroke-linejoin="round"/>
<path d="M45.0942 17.175C32.3267 9.78205 21.6397 8.27952 16.2028 13.7164C7.80653 22.1127 16.9874 44.9066 36.7089 64.6281C56.4304 84.3496 79.2243 93.5305 87.6206 85.1342C92.8185 79.9363 90.773 69.2206 84.1676 57.1319" stroke="#3F3F3F" stroke-linecap="round" stroke-linejoin="round"/>
<circle cx="52.7575" cy="49.1973" r="2.25" transform="rotate(-90 52.7575 49.1973)" fill="#C2C2C2"/>
<circle cx="52.7575" cy="49.1973" r="2.25" transform="rotate(-90 52.7575 49.1973)" stroke="#151515" stroke-width="1.5"/>
<circle cx="52.7575" cy="49.1973" r="2.25" transform="rotate(-90 52.7575 49.1973)" stroke="#151515" stroke-width="1.5"/>
<circle cx="52.7575" cy="16.6973" r="2.25" transform="rotate(-90 52.7575 16.6973)" fill="#C2C2C2"/>
<circle cx="52.7575" cy="16.6973" r="2.25" transform="rotate(-90 52.7575 16.6973)" stroke="#151515" stroke-width="1.5"/>
<circle cx="52.7575" cy="16.6973" r="2.25" transform="rotate(-90 52.7575 16.6973)" stroke="#151515" stroke-width="1.5"/>
<circle cx="16.2575" cy="13.4473" r="2.25" transform="rotate(-90 16.2575 13.4473)" fill="#C2C2C2"/>
<circle cx="16.2575" cy="13.4473" r="2.25" transform="rotate(-90 16.2575 13.4473)" stroke="#151515" stroke-width="1.5"/>
<circle cx="16.2575" cy="13.4473" r="2.25" transform="rotate(-90 16.2575 13.4473)" stroke="#151515" stroke-width="1.5"/>
<circle cx="88.2575" cy="83.4473" r="2.25" transform="rotate(-90 88.2575 83.4473)" fill="#C2C2C2"/>
<circle cx="88.2575" cy="83.4473" r="2.25" transform="rotate(-90 88.2575 83.4473)" stroke="#151515" stroke-width="1.5"/>
<circle cx="88.2575" cy="83.4473" r="2.25" transform="rotate(-90 88.2575 83.4473)" stroke="#151515" stroke-width="1.5"/>
</svg>
