<svg width="100" height="59" viewBox="0 0 100 59" fill="none" xmlns="http://www.w3.org/2000/svg">
<path d="M13.5733 55.6737H13.1263C10.8474 55.6737 9 53.8263 9 51.5474V5.12632C9 2.84741 10.8474 1 13.1263 1V1H86.3684C88.6473 1 90.4947 2.84741 90.4947 5.12632V51.5474C90.4947 53.8263 88.6473 55.6737 86.3684 55.6737H86.0549" stroke="black" stroke-linecap="round" stroke-linejoin="round"/>
<path d="M86.7679 55.7002H98.718V56.5009C98.718 56.5009 95.8998 58.188 86.4264 58.188C76.953 58.188 49.4843 58.188 49.4843 58.188" stroke="black" stroke-linecap="round" stroke-linejoin="round"/>
<path d="M13.5181 55.7002H1V56.5009C2.8788 57.6256 6.976 58.188 13.2916 58.188C19.6072 58.188 31.9213 58.188 50.2338 58.188" stroke="black" stroke-linecap="round" stroke-linejoin="round"/>
<rect x="12" y="5" width="75.5" height="47.4526" stroke="black" stroke-linecap="round" stroke-linejoin="round"/>
</svg>
