<svg width="76" height="77" viewBox="0 0 76 77" fill="none" xmlns="http://www.w3.org/2000/svg">
<path d="M52.5395 65.9926C52.5395 65.9926 60.8261 65.9926 66.8011 65.9926C72.7761 65.9926 75.2463 63.4143 75.2463 57.5474C75.2463 51.6805 75.2463 41.3802 75.2463 35.0875C75.2463 28.7947 70.2579 25.2236 65.3825 25.2236C60.5071 25.2236 53.9851 25.2236 49.1804 25.2236C44.3757 25.2236 40.6918 29.5949 40.6918 33.0502C40.6918 33.8474 40.6918 33.9225 40.6918 34.6707" stroke="black" stroke-linecap="round" stroke-linejoin="round"/>
<path d="M24.7792 65.6876C24.7792 65.6876 13.7884 65.6876 9.31876 65.6876C4.84914 65.6876 1 62.4221 1 57.3689C1 52.3156 1 49.3875 1 45.2526C1 41.1177 4.32513 36.9131 9.94772 36.9131C15.5703 36.9131 15.3892 36.9131 21.6181 36.9131C27.847 36.9131 29.4996 39.8319 29.9816 41.5929" stroke="black" stroke-linecap="round" stroke-linejoin="round"/>
<circle cx="39.0046" cy="44" r="9.5" stroke="black" stroke-linecap="round" stroke-linejoin="round"/>
<circle cx="57.5046" cy="13" r="12" stroke="black" stroke-linecap="round" stroke-linejoin="round"/>
<circle cx="16.0046" cy="25" r="12" stroke="black" stroke-linecap="round" stroke-linejoin="round"/>
<path fill-rule="evenodd" clip-rule="evenodd" d="M52.4137 63.1361C52.4556 67.0776 52.4137 66.8334 52.4137 70.4078C52.4137 73.9822 51.4044 75.6835 47.138 75.6835C42.8716 75.6835 33.4468 75.6835 29.8734 75.6835C26.3 75.6835 24.8031 73.4576 24.8031 70.3677C24.8031 67.2777 24.8031 68.2832 24.8031 63.7527C24.8031 59.2222 26.6345 53.8223 34.7336 53.8223C42.8326 53.8223 36.6096 53.8223 43.337 53.8223C50.0645 53.8223 52.3713 59.138 52.4137 63.1361Z" stroke="black" stroke-linecap="round" stroke-linejoin="round"/>
</svg>
