<svg width="55" height="95" viewBox="0 0 55 95" fill="none" xmlns="http://www.w3.org/2000/svg">
<path fill-rule="evenodd" clip-rule="evenodd" d="M54.1752 31.3427C54.1752 47.1538 27.5876 90.4817 27.5876 90.4817C27.5876 90.4817 1 47.1538 1 31.3427C1 15.5392 12.9006 2.72705 27.5876 2.72705C42.2711 2.72705 54.1752 15.5392 54.1752 31.3427Z" stroke="#3F3F3F" stroke-linecap="round" stroke-linejoin="round"/>
<path fill-rule="evenodd" clip-rule="evenodd" d="M38.2227 29.7811C38.2227 35.7582 33.4582 40.6027 27.5876 40.6027C21.7135 40.6027 16.9526 35.7582 16.9526 29.7811C16.9526 23.8076 21.7135 18.9595 27.5876 18.9595C33.4582 18.9595 38.2227 23.8076 38.2227 29.7811Z" stroke="#3F3F3F" stroke-linecap="round" stroke-linejoin="round"/>
<circle cx="27.5876" cy="92" r="2.25" transform="rotate(-90 27.5876 92)" fill="#C2C2C2"/>
<circle cx="27.5876" cy="92" r="2.25" transform="rotate(-90 27.5876 92)" stroke="#151515" stroke-width="1.5"/>
<circle cx="27.5876" cy="92" r="2.25" transform="rotate(-90 27.5876 92)" stroke="#151515" stroke-width="1.5"/>
<circle cx="27.5876" cy="3" r="2.25" transform="rotate(-90 27.5876 3)" fill="#C2C2C2"/>
<circle cx="27.5876" cy="3" r="2.25" transform="rotate(-90 27.5876 3)" stroke="#151515" stroke-width="1.5"/>
<circle cx="27.5876" cy="3" r="2.25" transform="rotate(-90 27.5876 3)" stroke="#151515" stroke-width="1.5"/>
<circle cx="19.5876" cy="37" r="2.25" transform="rotate(-90 19.5876 37)" fill="#C2C2C2"/>
<circle cx="19.5876" cy="37" r="2.25" transform="rotate(-90 19.5876 37)" stroke="#151515" stroke-width="1.5"/>
<circle cx="19.5876" cy="37" r="2.25" transform="rotate(-90 19.5876 37)" stroke="#151515" stroke-width="1.5"/>
<circle cx="35.5876" cy="22" r="2.25" transform="rotate(-90 35.5876 22)" fill="#C2C2C2"/>
<circle cx="35.5876" cy="22" r="2.25" transform="rotate(-90 35.5876 22)" stroke="#151515" stroke-width="1.5"/>
<circle cx="35.5876" cy="22" r="2.25" transform="rotate(-90 35.5876 22)" stroke="#151515" stroke-width="1.5"/>
</svg>
