<svg width="69" height="81" viewBox="0 0 69 81" fill="none" xmlns="http://www.w3.org/2000/svg">
<path d="M2.86401 1.04395C2.86401 1.04395 53.3888 1.04395 54.9875 1.04395C56.5863 1.04395 58.1023 1.68323 58.1023 4.15868C58.1023 6.63414 58.1023 15.3162 58.1023 15.3162" stroke="black" stroke-linecap="round" stroke-linejoin="round"/>
<path fill-rule="evenodd" clip-rule="evenodd" d="M57.6436 48.3404C57.6436 48.3404 64.0705 48.3404 65.434 48.3404C66.7974 48.3404 68.0359 47.3045 68.0359 45.7385C68.0359 44.1725 68.0359 36.6905 68.0359 35.3357C68.0359 33.9809 67.1294 32.6689 65.3412 32.6689C63.553 32.6689 52.2384 32.6689 50.6119 32.6689C48.9854 32.6689 47.9596 33.738 47.9596 35.3842C47.9596 37.0303 47.9596 44.3995 47.9596 45.7727C47.9596 47.1459 48.7646 48.4158 50.5839 48.4158C52.4032 48.4158 57.6436 48.3404 57.6436 48.3404Z" stroke="black" stroke-linecap="round" stroke-linejoin="round"/>
<path d="M63.9662 32.7171C63.9662 32.7171 63.9662 30.5014 63.9662 28.2081C63.9662 25.9149 61.8528 23.1514 57.9879 23.1514" stroke="black" stroke-linecap="round" stroke-linejoin="round"/>
<path fill-rule="evenodd" clip-rule="evenodd" d="M1 63.5049C1 65.4325 1.92637 65.6806 2.9032 66.1999C3.88003 66.7192 36.3465 79.8491 38.0012 80.3205C39.6559 80.7919 40.2819 79.7417 40.2819 77.968C40.2819 76.1942 40.2819 20.0141 40.2819 18.6683C40.2819 17.3225 39.7177 16.1879 38.2935 15.5122C36.8693 14.8365 5.10393 1.67396 3.51236 1.12243C1.92079 0.57089 1.00883 1.99206 1.00883 3.20602C1.00883 4.41998 1 61.5772 1 63.5049Z" stroke="black" stroke-linecap="round" stroke-linejoin="round"/>
<path d="M57.9465 56.6426C57.9465 56.6426 57.9465 62.5175 57.9465 64.144C57.9465 65.7706 56.9621 66.4509 55.6397 66.4509C54.3172 66.4509 40.6896 66.4509 40.6896 66.4509" stroke="black" stroke-linecap="round" stroke-linejoin="round"/>
<path d="M52.0785 32.681C52.0785 32.681 52.0785 30.4985 52.0785 28.2052C52.0785 25.9119 54.1919 23.1484 58.0568 23.1484" stroke="black" stroke-linecap="round" stroke-linejoin="round"/>
</svg>
