<svg width="69" height="84" viewBox="0 0 69 84" fill="none" xmlns="http://www.w3.org/2000/svg">
<circle r="2.25" transform="matrix(0.866025 0.5 0.5 -0.866025 32.086 47.0982)" fill="#C2C2C2"/>
<circle r="2.25" transform="matrix(0.866025 0.5 0.5 -0.866025 32.086 47.0982)" stroke="#151515" stroke-width="1.5"/>
<circle r="2.25" transform="matrix(0.866025 0.5 0.5 -0.866025 32.086 47.0982)" stroke="#151515" stroke-width="1.5"/>
<circle r="2.25" transform="matrix(0.866025 0.5 0.5 -0.866025 57.836 42.0982)" fill="#C2C2C2"/>
<circle r="2.25" transform="matrix(0.866025 0.5 0.5 -0.866025 57.836 42.0982)" stroke="#151515" stroke-width="1.5"/>
<circle r="2.25" transform="matrix(0.866025 0.5 0.5 -0.866025 57.836 42.0982)" stroke="#151515" stroke-width="1.5"/>
<path d="M2.86401 3.85938C2.86401 3.85938 53.3888 3.85938 54.9875 3.85938C56.5863 3.85938 58.1023 4.49866 58.1023 6.97411C58.1023 9.44957 58.1023 18.1316 58.1023 18.1316" stroke="#3F3F3F" stroke-linecap="round" stroke-linejoin="round"/>
<path fill-rule="evenodd" clip-rule="evenodd" d="M57.6436 51.1559C57.6436 51.1559 64.0705 51.1559 65.434 51.1559C66.7974 51.1559 68.0359 50.1199 68.0359 48.5539C68.0359 46.988 68.0359 39.5059 68.0359 38.1512C68.0359 36.7964 67.1294 35.4844 65.3412 35.4844C63.553 35.4844 52.2384 35.4844 50.6119 35.4844C48.9854 35.4844 47.9596 36.5535 47.9596 38.1996C47.9596 39.8457 47.9596 47.2149 47.9596 48.5881C47.9596 49.9614 48.7646 51.2312 50.5839 51.2312C52.4032 51.2312 57.6436 51.1559 57.6436 51.1559Z" stroke="#3F3F3F" stroke-linecap="round" stroke-linejoin="round"/>
<path d="M63.9662 35.5326C63.9662 35.5326 63.9662 33.3168 63.9662 31.0236C63.9662 28.7303 61.8529 25.9668 57.9879 25.9668" stroke="#3F3F3F" stroke-linecap="round" stroke-linejoin="round"/>
<path fill-rule="evenodd" clip-rule="evenodd" d="M1 66.3203C1 68.248 1.92637 68.4961 2.9032 69.0154C3.88003 69.5346 36.3465 82.6646 38.0012 83.136C39.6559 83.6074 40.2819 82.5571 40.2819 80.7834C40.2819 79.0097 40.2819 22.8295 40.2819 21.4837C40.2819 20.1379 39.7177 19.0033 38.2935 18.3276C36.8693 17.652 5.10393 4.48939 3.51236 3.93786C1.92079 3.38632 1.00883 4.80749 1.00883 6.02145C1.00883 7.23541 1 64.3926 1 66.3203Z" stroke="#3F3F3F" stroke-linecap="round" stroke-linejoin="round"/>
<path d="M57.9465 59.458C57.9465 59.458 57.9465 65.3329 57.9465 66.9595C57.9465 68.586 56.962 69.2663 55.6396 69.2663C54.3172 69.2663 40.6895 69.2663 40.6895 69.2663" stroke="#3F3F3F" stroke-linecap="round" stroke-linejoin="round"/>
<path d="M52.0786 35.4964C52.0786 35.4964 52.0786 33.3139 52.0786 31.0206C52.0786 28.7274 54.1919 25.9639 58.0569 25.9639" stroke="#3F3F3F" stroke-linecap="round" stroke-linejoin="round"/>
<circle r="2.25" transform="matrix(0.866025 0.5 0.5 -0.866025 30.836 4.09821)" fill="#C2C2C2"/>
<circle r="2.25" transform="matrix(0.866025 0.5 0.5 -0.866025 30.836 4.09821)" stroke="#151515" stroke-width="1.5"/>
<circle r="2.25" transform="matrix(0.866025 0.5 0.5 -0.866025 30.836 4.09821)" stroke="#151515" stroke-width="1.5"/>
<circle r="2.25" transform="matrix(0.866025 0.5 0.5 -0.866025 18.836 75.0982)" fill="#C2C2C2"/>
<circle r="2.25" transform="matrix(0.866025 0.5 0.5 -0.866025 18.836 75.0982)" stroke="#151515" stroke-width="1.5"/>
<circle r="2.25" transform="matrix(0.866025 0.5 0.5 -0.866025 18.836 75.0982)" stroke="#151515" stroke-width="1.5"/>
</svg>
