<svg width="88" height="65" viewBox="0 0 88 65" fill="none" xmlns="http://www.w3.org/2000/svg">
<path d="M9.02041 17.6211C9.02041 16.1735 10.1939 15 11.6415 15V14C9.64161 14 8.02041 15.6212 8.02041 17.6211H9.02041ZM9.02041 58.3579V17.6211H8.02041V58.3579H9.02041ZM11.6415 60.9789C10.1939 60.9789 9.02041 59.8055 9.02041 58.3579H8.02041C8.02041 60.3577 9.64161 61.9789 11.6415 61.9789V60.9789ZM12.0337 60.9789H11.6415V61.9789H12.0337V60.9789ZM13.0337 61.9789C13.0337 61.4267 12.586 60.9789 12.0337 60.9789V61.9789H13.0337ZM12.0337 62.9789C12.586 62.9789 13.0337 62.5312 13.0337 61.9789H12.0337V62.9789ZM11.6415 62.9789H12.0337V61.9789H11.6415V62.9789ZM7.02041 58.3579C7.02041 60.91 9.08932 62.9789 11.6415 62.9789V61.9789C9.64161 61.9789 8.02041 60.3577 8.02041 58.3579H7.02041ZM7.02041 17.6211V58.3579H8.02041V17.6211H7.02041ZM11.6415 13C9.08932 13 7.02041 15.0689 7.02041 17.6211H8.02041C8.02041 15.6212 9.64161 14 11.6415 14V13ZM11.7504 13H11.6415V14H11.7504V13ZM11.8591 13H11.7504V14H11.8591V13ZM11.9678 13H11.8591V14H11.9678V13ZM12.0763 13H11.9678V14H12.0763V13ZM12.1846 13H12.0763V14H12.1846V13ZM12.2928 13H12.1846V14H12.2928V13ZM12.4009 13H12.2928V14H12.4009V13ZM12.5088 13H12.4009V14H12.5088V13ZM12.6166 13H12.5088V14H12.6166V13ZM12.7243 13H12.6166V14H12.7243V13ZM12.8318 13H12.7243V14H12.8318V13ZM12.9391 13H12.8318V14H12.9391V13ZM13.0464 13H12.9391V14H13.0464V13ZM13.1535 13H13.0464V14H13.1535V13ZM13.2604 13H13.1535V14H13.2604V13ZM13.3672 13H13.2604V14H13.3672V13ZM13.4739 13H13.3672V14H13.4739V13ZM13.5805 13H13.4739V14H13.5805V13ZM13.6869 13H13.5805V14H13.6869V13ZM13.7931 13H13.6869V14H13.7931V13ZM13.8992 13H13.7931V14H13.8992V13ZM14.0052 13H13.8992V14H14.0052V13ZM14.1111 13H14.0052V14H14.1111V13ZM14.2168 13H14.1111V14H14.2168V13ZM14.3223 13H14.2168V14H14.3223V13ZM14.4278 13H14.3223V14H14.4278V13ZM14.533 13H14.4278V14H14.533V13ZM14.6382 13H14.533V14H14.6382V13ZM14.7432 13H14.6382V14H14.7432V13ZM14.8481 13H14.7432V14H14.8481V13ZM14.9528 13H14.8481V14H14.9528V13ZM15.0574 13H14.9528V14H15.0574V13ZM15.1618 13H15.0574V14H15.1618V13ZM15.2662 13H15.1618V14H15.2662V13ZM15.3703 13H15.2662V14H15.3703V13ZM15.4744 13H15.3703V14H15.4744V13ZM15.5783 13H15.4744V14H15.5783V13ZM15.682 13H15.5783V14H15.682V13ZM15.7857 13H15.682V14H15.7857V13ZM15.8891 13H15.7857V14H15.8891V13ZM15.9925 13H15.8891V14H15.9925V13ZM16.0957 13H15.9925V14H16.0957V13ZM16.1988 13H16.0957V14H16.1988V13ZM16.3017 13H16.1988V14H16.3017V13ZM16.4045 13H16.3017V14H16.4045V13ZM16.5071 13H16.4045V14H16.5071V13ZM16.6096 13H16.5071V14H16.6096V13ZM16.712 13H16.6096V14H16.712V13ZM16.8142 13H16.712V14H16.8142V13ZM16.9163 13H16.8142V14H16.9163V13ZM17.0183 13H16.9163V14H17.0183V13ZM17.1201 13H17.0183V14H17.1201V13ZM17.2218 13H17.1201V14H17.2218V13ZM17.3234 13H17.2218V14H17.3234V13ZM17.4248 13H17.3234V14H17.4248V13ZM17.526 13H17.4248V14H17.526V13ZM17.6272 13H17.526V14H17.6272V13ZM17.7282 13H17.6272V14H17.7282V13ZM17.829 13H17.7282V14H17.829V13ZM17.9297 13H17.829V14H17.9297V13ZM18.0303 13H17.9297V14H18.0303V13ZM18.1308 13H18.0303V14H18.1308V13ZM18.2311 13H18.1308V14H18.2311V13ZM18.3312 13H18.2311V14H18.3312V13ZM18.4312 13H18.3312V14H18.4312V13ZM18.5311 13H18.4312V14H18.5311V13ZM18.6309 13H18.5311V14H18.6309V13ZM18.7305 13H18.6309V14H18.7305V13ZM18.83 13H18.7305V14H18.83V13ZM18.9293 13H18.83V14H18.9293V13ZM19.0285 13H18.9293V14H19.0285V13ZM19.1276 13H19.0285V14H19.1276V13ZM19.2265 13H19.1276V14H19.2265V13ZM19.3253 13H19.2265V14H19.3253V13ZM19.424 13H19.3253V14H19.424V13ZM19.5225 13H19.424V14H19.5225V13ZM19.6208 13H19.5225V14H19.6208V13ZM19.7191 13H19.6208V14H19.7191V13ZM19.8172 13H19.7191V14H19.8172V13ZM19.9151 13H19.8172V14H19.9151V13ZM20.013 13H19.9151V14H20.013V13ZM20.1107 13H20.013V14H20.1107V13ZM20.2082 13H20.1107V14H20.2082V13ZM20.3056 13H20.2082V14H20.3056V13ZM20.4029 13H20.3056V14H20.4029V13ZM20.5 13H20.4029V14H20.5V13ZM20.597 13H20.5V14H20.597V13ZM20.6939 13H20.597V14H20.6939V13ZM20.7906 13H20.6939V14H20.7906V13ZM20.8872 13H20.7906V14H20.8872V13ZM20.9837 13H20.8872V14H20.9837V13ZM21.08 13H20.9837V14H21.08V13ZM21.1762 13H21.08V14H21.1762V13ZM21.2722 13H21.1762V14H21.2722V13ZM21.3681 13H21.2722V14H21.3681V13ZM21.4639 13H21.3681V14H21.4639V13ZM21.5595 13H21.4639V14H21.5595V13ZM21.655 13H21.5595V14H21.655V13ZM21.7504 13H21.655V14H21.7504V13ZM21.8456 13H21.7504V14H21.8456V13ZM21.9407 13H21.8456V14H21.9407V13ZM22.0356 13H21.9407V14H22.0356V13ZM22.1304 13H22.0356V14H22.1304V13ZM22.2251 13H22.1304V14H22.2251V13ZM22.3197 13H22.2251V14H22.3197V13ZM22.4141 13H22.3197V14H22.4141V13ZM22.5083 13H22.4141V14H22.5083V13ZM22.6024 13H22.5083V14H22.6024V13ZM22.6964 13H22.6024V14H22.6964V13ZM22.7903 13H22.6964V14H22.7903V13ZM22.884 13H22.7903V14H22.884V13ZM22.9776 13H22.884V14H22.9776V13ZM23.071 13H22.9776V14H23.071V13ZM23.1643 13H23.071V14H23.1643V13ZM23.2575 13H23.1643V14H23.2575V13ZM23.3506 13H23.2575V14H23.3506V13ZM23.4435 13H23.3506V14H23.4435V13ZM23.5362 13H23.4435V14H23.5362V13ZM23.6288 13H23.5362V14H23.6288V13ZM23.7213 13H23.6288V14H23.7213V13ZM23.8137 13H23.7213V14H23.8137V13ZM23.9059 13H23.8137V14H23.9059V13ZM23.998 13H23.9059V14H23.998V13ZM24.0899 13H23.998V14H24.0899V13ZM24.1817 13H24.0899V14H24.1817V13ZM24.2734 13H24.1817V14H24.2734V13ZM24.365 13H24.2734V14H24.365V13ZM24.4564 13H24.365V14H24.4564V13ZM24.5476 13H24.4564V14H24.5476V13ZM24.6388 13H24.5476V14H24.6388V13ZM24.7297 13H24.6388V14H24.7297V13ZM24.8206 13H24.7297V14H24.8206V13ZM24.9113 13H24.8206V14H24.9113V13ZM25.0019 13H24.9113V14H25.0019V13ZM25.0924 13H25.0019V14H25.0924V13ZM25.1827 13H25.0924V14H25.1827V13ZM25.2729 13H25.1827V14H25.2729V13ZM25.3629 13H25.2729V14H25.3629V13ZM25.4528 13H25.3629V14H25.4528V13ZM25.5426 13H25.4528V14H25.5426V13ZM25.6322 13H25.5426V14H25.6322V13ZM25.7217 13H25.6322V14H25.7217V13ZM25.8111 13H25.7217V14H25.8111V13ZM25.9003 13H25.8111V14H25.9003V13ZM25.9894 13H25.9003V14H25.9894V13ZM26.0784 13H25.9894V14H26.0784V13ZM26.1672 13H26.0784V14H26.1672V13ZM26.2559 13H26.1672V14H26.2559V13ZM26.3444 13H26.2559V14H26.3444V13ZM26.4328 13H26.3444V14H26.4328V13ZM26.5211 13H26.4328V14H26.5211V13ZM26.6093 13H26.5211V14H26.6093V13ZM26.6973 13H26.6093V14H26.6973V13ZM26.7851 13H26.6973V14H26.7851V13ZM26.8729 13H26.7851V14H26.8729V13ZM26.9605 13H26.8729V14H26.9605V13ZM27.048 13H26.9605V14H27.048V13ZM27.1353 13H27.048V14H27.1353V13ZM27.2225 13H27.1353V14H27.2225V13ZM27.3096 13H27.2225V14H27.3096V13ZM27.3965 13H27.3096V14H27.3965V13ZM27.4833 13H27.3965V14H27.4833V13ZM27.5699 13H27.4833V14H27.5699V13ZM27.6565 13H27.5699V14H27.6565V13ZM27.7429 13H27.6565V14H27.7429V13ZM27.8291 13H27.7429V14H27.8291V13ZM27.9152 13H27.8291V14H27.9152V13ZM28.0012 13H27.9152V14H28.0012V13ZM28.0871 13H28.0012V14H28.0871V13ZM28.1728 13H28.0871V14H28.1728V13ZM28.2584 13H28.1728V14H28.2584V13ZM28.3438 13H28.2584V14H28.3438V13ZM28.4291 13H28.3438V14H28.4291V13ZM28.5143 13H28.4291V14H28.5143V13ZM28.5993 13H28.5143V14H28.5993V13ZM28.6842 13H28.5993V14H28.6842V13ZM28.769 13H28.6842V14H28.769V13ZM28.8536 13H28.769V14H28.8536V13ZM28.9381 13H28.8536V14H28.9381V13ZM29.0225 13H28.9381V14H29.0225V13ZM29.1067 13H29.0225V14H29.1067V13ZM29.1908 13H29.1067V14H29.1908V13ZM29.2748 13H29.1908V14H29.2748V13ZM29.3586 13H29.2748V14H29.3586V13ZM29.4423 13H29.3586V14H29.4423V13ZM29.5259 13H29.4423V14H29.5259V13ZM29.6093 13H29.5259V14H29.6093V13ZM29.6926 13H29.6093V14H29.6926V13ZM29.7758 13H29.6926V14H29.7758V13ZM29.8588 13H29.7758V14H29.8588V13ZM29.9417 13H29.8588V14H29.9417V13ZM30.0244 13H29.9417V14H30.0244V13ZM30.1071 13H30.0244V14H30.1071V13ZM30.1896 13H30.1071V14H30.1896V13ZM30.2719 13H30.1896V14H30.2719V13ZM30.3541 13H30.2719V14H30.3541V13ZM30.4362 13H30.3541V14H30.4362V13ZM30.5182 13H30.4362V14H30.5182V13ZM30.6 13H30.5182V14H30.6V13ZM30.6817 13H30.6V14H30.6817V13ZM30.7632 13H30.6817V14H30.7632V13ZM30.8446 13H30.7632V14H30.8446V13ZM30.9259 13H30.8446V14H30.9259V13ZM31.0071 13H30.9259V14H31.0071V13ZM31.0881 13H31.0071V14H31.0881V13ZM31.169 13H31.0881V14H31.169V13ZM31.2497 13H31.169V14H31.2497V13ZM31.3303 13H31.2497V14H31.3303V13ZM31.4108 13H31.3303V14H31.4108V13ZM31.4911 13H31.4108V14H31.4911V13ZM31.5714 13H31.4911V14H31.5714V13ZM31.6514 13H31.5714V14H31.6514V13ZM31.7314 13H31.6514V14H31.7314V13ZM31.8112 13H31.7314V14H31.8112V13ZM31.8909 13H31.8112V14H31.8909V13ZM31.9704 13H31.8909V14H31.9704V13ZM32.0498 13H31.9704V14H32.0498V13ZM32.1291 13H32.0498V14H32.1291V13ZM32.2082 13H32.1291V14H32.2082V13ZM32.2873 13H32.2082V14H32.2873V13ZM32.3661 13H32.2873V14H32.3661V13ZM32.4449 13H32.3661V14H32.4449V13ZM32.5235 13H32.4449V14H32.5235V13ZM32.602 13H32.5235V14H32.602V13ZM32.6803 13H32.602V14H32.6803V13ZM32.7585 13H32.6803V14H32.7585V13ZM32.8366 13H32.7585V14H32.8366V13ZM32.9145 13H32.8366V14H32.9145V13ZM32.9924 13H32.9145V14H32.9924V13ZM33.07 13H32.9924V14H33.07V13ZM33.1476 13H33.07V14H33.1476V13ZM33.225 13H33.1476V14H33.225V13ZM33.3023 13H33.225V14H33.3023V13ZM33.3794 13H33.3023V14H33.3794V13ZM33.4564 13H33.3794V14H33.4564V13ZM33.5333 13H33.4564V14H33.5333V13ZM33.6101 13H33.5333V14H33.6101V13ZM33.6867 13H33.6101V14H33.6867V13ZM33.7632 13H33.6867V14H33.7632V13ZM33.8395 13H33.7632V14H33.8395V13ZM33.9157 13H33.8395V14H33.9157V13ZM33.9918 13H33.9157V14H33.9918V13ZM34.0678 13H33.9918V14H34.0678V13ZM34.1436 13H34.0678V14H34.1436V13ZM34.2193 13H34.1436V14H34.2193V13ZM34.2948 13H34.2193V14H34.2948V13ZM34.3702 13H34.2948V14H34.3702V13ZM34.4455 13H34.3702V14H34.4455V13ZM34.5207 13H34.4455V14H34.5207V13ZM34.5957 13H34.5207V14H34.5957V13ZM34.6706 13H34.5957V14H34.6706V13ZM34.7454 13H34.6706V14H34.7454V13ZM34.82 13H34.7454V14H34.82V13ZM34.8945 13H34.82V14H34.8945V13ZM34.9688 13H34.8945V14H34.9688V13ZM35.0431 13H34.9688V14H35.0431V13ZM35.1172 13H35.0431V14H35.1172V13ZM35.1911 13H35.1172V14H35.1911V13ZM35.265 13H35.1911V14H35.265V13ZM35.3387 13H35.265V14H35.3387V13ZM35.4122 13H35.3387V14H35.4122V13ZM35.4857 13H35.4122V14H35.4857V13ZM35.559 13H35.4857V14H35.559V13ZM35.6321 13H35.559V14H35.6321V13ZM35.7052 13H35.6321V14H35.7052V13ZM35.7781 13H35.7052V14H35.7781V13ZM35.8509 13H35.7781V14H35.8509V13ZM35.9235 13H35.8509V14H35.9235V13ZM35.996 13H35.9235V14H35.996V13ZM36.0684 13H35.996V14H36.0684V13ZM36.1406 13H36.0684V14H36.1406V13ZM36.2128 13H36.1406V14H36.2128V13ZM36.2847 13H36.2128V14H36.2847V13ZM36.3566 13H36.2847V14H36.3566V13ZM36.4283 13H36.3566V14H36.4283V13ZM36.4999 13H36.4283V14H36.4999V13ZM36.5714 13H36.4999V14H36.5714V13ZM36.6427 13H36.5714V14H36.6427V13ZM36.7139 13H36.6427V14H36.7139V13ZM36.7849 13H36.7139V14H36.7849V13ZM36.8559 13H36.7849V14H36.8559V13ZM36.9267 13H36.8559V14H36.9267V13ZM36.9973 13H36.9267V14H36.9973V13ZM37.0679 13H36.9973V14H37.0679V13ZM37.1383 13H37.0679V14H37.1383V13ZM37.2085 13H37.1383V14H37.2085V13ZM37.2787 13H37.2085V14H37.2787V13ZM37.3487 13H37.2787V14H37.3487V13ZM37.4186 13H37.3487V14H37.4186V13ZM37.4883 13H37.4186V14H37.4883V13ZM37.5579 13H37.4883V14H37.5579V13ZM37.6274 13H37.5579V14H37.6274V13ZM37.6968 13H37.6274V14H37.6968V13ZM37.766 13H37.6968V14H37.766V13ZM37.8351 13H37.766V14H37.8351V13ZM37.904 13H37.8351V14H37.904V13ZM37.9729 13H37.904V14H37.9729V13ZM38.0416 13H37.9729V14H38.0416V13ZM38.1101 13H38.0416V14H38.1101V13ZM38.1786 13H38.1101V14H38.1786V13ZM38.2469 13H38.1786V14H38.2469V13ZM38.315 13H38.2469V14H38.315V13ZM38.3831 13H38.315V14H38.3831V13ZM38.451 13H38.3831V14H38.451V13ZM38.5188 13H38.451V14H38.5188V13ZM38.5864 13H38.5188V14H38.5864V13ZM38.6539 13H38.5864V14H38.6539V13ZM38.7213 13H38.6539V14H38.7213V13ZM38.7886 13H38.7213V14H38.7886V13ZM38.8557 13H38.7886V14H38.8557V13ZM38.9227 13H38.8557V14H38.9227V13ZM38.9896 13H38.9227V14H38.9896V13ZM39.0563 13H38.9896V14H39.0563V13ZM39.1229 13H39.0563V14H39.1229V13ZM39.1894 13H39.1229V14H39.1894V13ZM39.2557 13H39.1894V14H39.2557V13ZM39.3219 13H39.2557V14H39.3219V13ZM39.388 13H39.3219V14H39.388V13ZM39.454 13H39.388V14H39.454V13ZM39.5198 13H39.454V14H39.5198V13ZM39.5855 13H39.5198V14H39.5855V13ZM39.651 13H39.5855V14H39.651V13ZM39.7165 13H39.651V14H39.7165V13ZM39.7818 13H39.7165V14H39.7818V13ZM39.8469 13H39.7818V14H39.8469V13ZM39.912 13H39.8469V14H39.912V13ZM39.9769 13H39.912V14H39.9769V13ZM40.0417 13H39.9769V14H40.0417V13ZM40.1063 13H40.0417V14H40.1063V13ZM40.1708 13H40.1063V14H40.1708V13ZM40.2352 13H40.1708V14H40.2352V13ZM40.2995 13H40.2352V14H40.2995V13ZM40.3636 13H40.2995V14H40.3636V13ZM40.4276 13H40.3636V14H40.4276V13ZM40.4915 13H40.4276V14H40.4915V13ZM40.5552 13H40.4915V14H40.5552V13ZM40.6188 13H40.5552V14H40.6188V13ZM40.6823 13H40.6188V14H40.6823V13ZM40.7456 13H40.6823V14H40.7456V13ZM40.8088 13H40.7456V14H40.8088V13ZM40.8719 13H40.8088V14H40.8719V13ZM40.9349 13H40.8719V14H40.9349V13ZM40.9977 13H40.9349V14H40.9977V13ZM41.0604 13H40.9977V14H41.0604V13ZM41.123 13H41.0604V14H41.123V13ZM41.1854 13H41.123V14H41.1854V13ZM41.2477 13H41.1854V14H41.2477V13ZM41.3099 13H41.2477V14H41.3099V13ZM41.3719 13H41.3099V14H41.3719V13ZM41.4339 13H41.3719V14H41.4339V13ZM41.4957 13H41.4339V14H41.4957V13ZM41.5573 13H41.4957V14H41.5573V13ZM41.6188 13H41.5573V14H41.6188V13ZM41.6802 13H41.6188V14H41.6802V13ZM41.7415 13H41.6802V14H41.7415V13ZM41.8027 13H41.7415V14H41.8027V13ZM41.8637 13H41.8027V14H41.8637V13ZM41.9246 13H41.8637V14H41.9246V13ZM41.9853 13H41.9246V14H41.9853V13ZM42.0459 13H41.9853V14H42.0459V13ZM42.1064 13H42.0459V14H42.1064V13ZM42.1668 13H42.1064V14H42.1668V13ZM42.227 13H42.1668V14H42.227V13ZM42.2871 13H42.227V14H42.2871V13ZM42.3471 13H42.2871V14H42.3471V13ZM42.407 13H42.3471V14H42.407V13ZM42.4667 13H42.407V14H42.4667V13ZM42.5263 13H42.4667V14H42.5263V13ZM42.5857 13H42.5263V14H42.5857V13ZM42.6451 13H42.5857V14H42.6451V13ZM42.7043 13H42.6451V14H42.7043V13ZM42.7634 13H42.7043V14H42.7634V13ZM42.8223 13H42.7634V14H42.8223V13ZM42.8811 13H42.8223V14H42.8811V13ZM42.9398 13H42.8811V14H42.9398V13ZM42.9984 13H42.9398V14H42.9984V13ZM43.0568 13H42.9984V14H43.0568V13ZM43.1151 13H43.0568V14H43.1151V13ZM43.1733 13H43.1151V14H43.1733V13ZM43.2313 13H43.1733V14H43.2313V13ZM43.2892 13H43.2313V14H43.2892V13ZM43.347 13H43.2892V14H43.347V13ZM43.4047 13H43.347V14H43.4047V13ZM43.4622 13H43.4047V14H43.4622V13ZM43.5196 13H43.4622V14H43.5196V13ZM43.5769 13H43.5196V14H43.5769V13ZM43.634 13H43.5769V14H43.634V13ZM43.691 13H43.634V14H43.691V13ZM43.7479 13H43.691V14H43.7479V13ZM43.8047 13H43.7479V14H43.8047V13ZM43.8613 13H43.8047V14H43.8613V13ZM43.9178 13H43.8613V14H43.9178V13ZM43.9742 13H43.9178V14H43.9742V13ZM44.0304 13H43.9742V14H44.0304V13ZM44.0865 13H44.0304V14H44.0865V13ZM44.1425 13H44.0865V14H44.1425V13ZM44.1984 13H44.1425V14H44.1984V13ZM44.2541 13H44.1984V14H44.2541V13ZM44.3097 13H44.2541V14H44.3097V13ZM44.3652 13H44.3097V14H44.3652V13ZM44.4206 13H44.3652V14H44.4206V13ZM44.4758 13H44.4206V14H44.4758V13ZM44.5309 13H44.4758V14H44.5309V13ZM44.5858 13H44.5309V14H44.5858V13ZM44.6407 13H44.5858V14H44.6407V13ZM44.6954 13H44.6407V14H44.6954V13ZM44.7499 13H44.6954V14H44.7499V13ZM44.8044 13H44.7499V14H44.8044V13ZM44.8587 13H44.8044V14H44.8587V13ZM44.9129 13H44.8587V14H44.9129V13ZM44.967 13H44.9129V14H44.967V13ZM45.0209 13H44.967V14H45.0209V13ZM45.0747 13H45.0209V14H45.0747V13ZM45.1284 13H45.0747V14H45.1284V13ZM45.182 13H45.1284V14H45.182V13ZM45.2354 13H45.182V14H45.2354V13ZM45.2887 13H45.2354V14H45.2887V13ZM45.3419 13H45.2887V14H45.3419V13ZM45.3949 13H45.3419V14H45.3949V13ZM45.4478 13H45.3949V14H45.4478V13ZM45.5006 13H45.4478V14H45.5006V13ZM45.5533 13H45.5006V14H45.5533V13ZM45.6058 13H45.5533V14H45.6058V13ZM45.6582 13H45.6058V14H45.6582V13ZM45.7105 13H45.6582V14H45.7105V13ZM45.7627 13H45.7105V14H45.7627V13ZM45.8147 13H45.7627V14H45.8147V13ZM45.8666 13H45.8147V14H45.8666V13ZM45.9184 13H45.8666V14H45.9184V13ZM45.97 13H45.9184V14H45.97V13ZM46.0215 13H45.97V14H46.0215V13ZM46.0729 13H46.0215V14H46.0729V13ZM46.1242 13H46.0729V14H46.1242V13ZM46.1753 13H46.1242V14H46.1753V13ZM46.2263 13H46.1753V14H46.2263V13ZM46.2772 13H46.2263V14H46.2772V13ZM46.328 13H46.2772V14H46.328V13ZM46.3786 13H46.328V14H46.3786V13ZM46.4291 13H46.3786V14H46.4291V13ZM46.4795 13H46.4291V14H46.4795V13ZM46.5297 13H46.4795V14H46.5297V13ZM46.5798 13H46.5297V14H46.5798V13ZM46.6298 13H46.5798V14H46.6298V13ZM46.6797 13H46.6298V14H46.6797V13ZM46.7294 13H46.6797V14H46.7294V13ZM46.779 13H46.7294V14H46.779V13ZM46.8285 13H46.779V14H46.8285V13ZM46.8779 13H46.8285V14H46.8779V13ZM46.9271 13H46.8779V14H46.9271V13ZM46.9762 13H46.9271V14H46.9762V13ZM47.0252 13H46.9762V14H47.0252V13ZM47.074 13H47.0252V14H47.074V13ZM47.1228 13H47.074V14H47.1228V13ZM47.1714 13H47.1228V14H47.1714V13ZM47.2198 13H47.1714V14H47.2198V13ZM47.2682 13H47.2198V14H47.2682V13ZM47.3164 13H47.2682V14H47.3164V13ZM47.3645 13H47.3164V14H47.3645V13ZM47.4124 13H47.3645V14H47.4124V13ZM47.4603 13H47.4124V14H47.4603V13ZM47.508 13H47.4603V14H47.508V13ZM47.5556 13H47.508V14H47.5556V13ZM47.603 13H47.5556V14H47.603V13ZM47.6504 13H47.603V14H47.6504V13ZM47.6976 13H47.6504V14H47.6976V13ZM47.7447 13H47.6976V14H47.7447V13ZM47.7916 13H47.7447V14H47.7916V13ZM47.8384 13H47.7916V14H47.8384V13ZM47.8851 13H47.8384V14H47.8851V13ZM47.9317 13H47.8851V14H47.9317V13ZM47.9782 13H47.9317V14H47.9782V13ZM48.0245 13H47.9782V14H48.0245V13ZM48.0707 13H48.0245V14H48.0707V13ZM48.1168 13H48.0707V14H48.1168V13ZM48.1627 13H48.1168V14H48.1627V13ZM48.2085 13H48.1627V14H48.2085V13ZM48.2542 13H48.2085V14H48.2542V13ZM48.2998 13H48.2542V14H48.2998V13ZM48.3452 13H48.2998V14H48.3452V13ZM48.3905 13H48.3452V14H48.3905V13ZM48.4357 13H48.3905V14H48.4357V13ZM48.4808 13H48.4357V14H48.4808V13ZM48.5257 13H48.4808V14H48.5257V13ZM48.5705 13H48.5257V14H48.5705V13ZM48.6152 13H48.5705V14H48.6152V13ZM48.6598 13H48.6152V14H48.6598V13ZM48.7042 13H48.6598V14H48.7042V13ZM48.7485 13H48.7042V14H48.7485V13ZM48.7927 13H48.7485V14H48.7927V13ZM48.8368 13H48.7927V14H48.8368V13ZM48.8807 13H48.8368V14H48.8807V13ZM48.9245 13H48.8807V14H48.9245V13ZM48.9682 13H48.9245V14H48.9682V13ZM49.0118 13H48.9682V14H49.0118V13ZM49.0552 13H49.0118V14H49.0552V13ZM49.0985 13H49.0552V14H49.0985V13ZM49.1417 13H49.0985V14H49.1417V13ZM49.1847 13H49.1417V14H49.1847V13ZM49.2277 13H49.1847V14H49.2277V13ZM49.2705 13H49.2277V14H49.2705V13ZM49.3132 13H49.2705V14H49.3132V13ZM49.3557 13H49.3132V14H49.3557V13ZM49.3981 13H49.3557V14H49.3981V13ZM49.4404 13H49.3981V14H49.4404V13ZM49.4826 13H49.4404V14H49.4826V13ZM49.5247 13H49.4826V14H49.5247V13ZM49.5666 13H49.5247V14H49.5666V13ZM49.6084 13H49.5666V14H49.6084V13ZM49.6501 13H49.6084V14H49.6501V13ZM49.6916 13H49.6501V14H49.6916V13ZM49.7331 13H49.6916V14H49.7331V13ZM49.7744 13H49.7331V14H49.7744V13ZM50.7744 14C50.7744 13.4477 50.3267 13 49.7744 13V14H50.7744ZM49.7744 15C50.3267 15 50.7744 14.5523 50.7744 14H49.7744V15ZM49.7331 15H49.7744V14H49.7331V15ZM49.6916 15H49.7331V14H49.6916V15ZM49.6501 15H49.6916V14H49.6501V15ZM49.6084 15H49.6501V14H49.6084V15ZM49.5666 15H49.6084V14H49.5666V15ZM49.5247 15H49.5666V14H49.5247V15ZM49.4826 15H49.5247V14H49.4826V15ZM49.4404 15H49.4826V14H49.4404V15ZM49.3981 15H49.4404V14H49.3981V15ZM49.3557 15H49.3981V14H49.3557V15ZM49.3132 15H49.3557V14H49.3132V15ZM49.2705 15H49.3132V14H49.2705V15ZM49.2277 15H49.2705V14H49.2277V15ZM49.1847 15H49.2277V14H49.1847V15ZM49.1417 15H49.1847V14H49.1417V15ZM49.0985 15H49.1417V14H49.0985V15ZM49.0552 15H49.0985V14H49.0552V15ZM49.0118 15H49.0552V14H49.0118V15ZM48.9682 15H49.0118V14H48.9682V15ZM48.9245 15H48.9682V14H48.9245V15ZM48.8807 15H48.9245V14H48.8807V15ZM48.8368 15H48.8807V14H48.8368V15ZM48.7927 15H48.8368V14H48.7927V15ZM48.7485 15H48.7927V14H48.7485V15ZM48.7042 15H48.7485V14H48.7042V15ZM48.6598 15H48.7042V14H48.6598V15ZM48.6152 15H48.6598V14H48.6152V15ZM48.5705 15H48.6152V14H48.5705V15ZM48.5257 15H48.5705V14H48.5257V15ZM48.4808 15H48.5257V14H48.4808V15ZM48.4357 15H48.4808V14H48.4357V15ZM48.3905 15H48.4357V14H48.3905V15ZM48.3452 15H48.3905V14H48.3452V15ZM48.2998 15H48.3452V14H48.2998V15ZM48.2542 15H48.2998V14H48.2542V15ZM48.2085 15H48.2542V14H48.2085V15ZM48.1627 15H48.2085V14H48.1627V15ZM48.1168 15H48.1627V14H48.1168V15ZM48.0707 15H48.1168V14H48.0707V15ZM48.0245 15H48.0707V14H48.0245V15ZM47.9782 15H48.0245V14H47.9782V15ZM47.9317 15H47.9782V14H47.9317V15ZM47.8851 15H47.9317V14H47.8851V15ZM47.8384 15H47.8851V14H47.8384V15ZM47.7916 15H47.8384V14H47.7916V15ZM47.7447 15H47.7916V14H47.7447V15ZM47.6976 15H47.7447V14H47.6976V15ZM47.6504 15H47.6976V14H47.6504V15ZM47.603 15H47.6504V14H47.603V15ZM47.5556 15H47.603V14H47.5556V15ZM47.508 15H47.5556V14H47.508V15ZM47.4603 15H47.508V14H47.4603V15ZM47.4124 15H47.4603V14H47.4124V15ZM47.3645 15H47.4124V14H47.3645V15ZM47.3164 15H47.3645V14H47.3164V15ZM47.2682 15H47.3164V14H47.2682V15ZM47.2198 15H47.2682V14H47.2198V15ZM47.1714 15H47.2198V14H47.1714V15ZM47.1228 15H47.1714V14H47.1228V15ZM47.074 15H47.1228V14H47.074V15ZM47.0252 15H47.074V14H47.0252V15ZM46.9762 15H47.0252V14H46.9762V15ZM46.9271 15H46.9762V14H46.9271V15ZM46.8779 15H46.9271V14H46.8779V15ZM46.8285 15H46.8779V14H46.8285V15ZM46.779 15H46.8285V14H46.779V15ZM46.7294 15H46.779V14H46.7294V15ZM46.6797 15H46.7294V14H46.6797V15ZM46.6298 15H46.6797V14H46.6298V15ZM46.5798 15H46.6298V14H46.5798V15ZM46.5297 15H46.5798V14H46.5297V15ZM46.4795 15H46.5297V14H46.4795V15ZM46.4291 15H46.4795V14H46.4291V15ZM46.3786 15H46.4291V14H46.3786V15ZM46.328 15H46.3786V14H46.328V15ZM46.2772 15H46.328V14H46.2772V15ZM46.2263 15H46.2772V14H46.2263V15ZM46.1753 15H46.2263V14H46.1753V15ZM46.1242 15H46.1753V14H46.1242V15ZM46.0729 15H46.1242V14H46.0729V15ZM46.0215 15H46.0729V14H46.0215V15ZM45.97 15H46.0215V14H45.97V15ZM45.9184 15H45.97V14H45.9184V15ZM45.8666 15H45.9184V14H45.8666V15ZM45.8147 15H45.8666V14H45.8147V15ZM45.7627 15H45.8147V14H45.7627V15ZM45.7105 15H45.7627V14H45.7105V15ZM45.6582 15H45.7105V14H45.6582V15ZM45.6058 15H45.6582V14H45.6058V15ZM45.5533 15H45.6058V14H45.5533V15ZM45.5006 15H45.5533V14H45.5006V15ZM45.4478 15H45.5006V14H45.4478V15ZM45.3949 15H45.4478V14H45.3949V15ZM45.3419 15H45.3949V14H45.3419V15ZM45.2887 15H45.3419V14H45.2887V15ZM45.2354 15H45.2887V14H45.2354V15ZM45.182 15H45.2354V14H45.182V15ZM45.1284 15H45.182V14H45.1284V15ZM45.0747 15H45.1284V14H45.0747V15ZM45.0209 15H45.0747V14H45.0209V15ZM44.967 15H45.0209V14H44.967V15ZM44.9129 15H44.967V14H44.9129V15ZM44.8587 15H44.9129V14H44.8587V15ZM44.8044 15H44.8587V14H44.8044V15ZM44.7499 15H44.8044V14H44.7499V15ZM44.6954 15H44.7499V14H44.6954V15ZM44.6407 15H44.6954V14H44.6407V15ZM44.5858 15H44.6407V14H44.5858V15ZM44.5309 15H44.5858V14H44.5309V15ZM44.4758 15H44.5309V14H44.4758V15ZM44.4206 15H44.4758V14H44.4206V15ZM44.3652 15H44.4206V14H44.3652V15ZM44.3097 15H44.3652V14H44.3097V15ZM44.2541 15H44.3097V14H44.2541V15ZM44.1984 15H44.2541V14H44.1984V15ZM44.1425 15H44.1984V14H44.1425V15ZM44.0865 15H44.1425V14H44.0865V15ZM44.0304 15H44.0865V14H44.0304V15ZM43.9742 15H44.0304V14H43.9742V15ZM43.9178 15H43.9742V14H43.9178V15ZM43.8613 15H43.9178V14H43.8613V15ZM43.8047 15H43.8613V14H43.8047V15ZM43.7479 15H43.8047V14H43.7479V15ZM43.691 15H43.7479V14H43.691V15ZM43.634 15H43.691V14H43.634V15ZM43.5769 15H43.634V14H43.5769V15ZM43.5196 15H43.5769V14H43.5196V15ZM43.4622 15H43.5196V14H43.4622V15ZM43.4047 15H43.4622V14H43.4047V15ZM43.347 15H43.4047V14H43.347V15ZM43.2892 15H43.347V14H43.2892V15ZM43.2313 15H43.2892V14H43.2313V15ZM43.1733 15H43.2313V14H43.1733V15ZM43.1151 15H43.1733V14H43.1151V15ZM43.0568 15H43.1151V14H43.0568V15ZM42.9984 15H43.0568V14H42.9984V15ZM42.9398 15H42.9984V14H42.9398V15ZM42.8811 15H42.9398V14H42.8811V15ZM42.8223 15H42.8811V14H42.8223V15ZM42.7634 15H42.8223V14H42.7634V15ZM42.7043 15H42.7634V14H42.7043V15ZM42.6451 15H42.7043V14H42.6451V15ZM42.5857 15H42.6451V14H42.5857V15ZM42.5263 15H42.5857V14H42.5263V15ZM42.4667 15H42.5263V14H42.4667V15ZM42.407 15H42.4667V14H42.407V15ZM42.3471 15H42.407V14H42.3471V15ZM42.2871 15H42.3471V14H42.2871V15ZM42.227 15H42.2871V14H42.227V15ZM42.1668 15H42.227V14H42.1668V15ZM42.1064 15H42.1668V14H42.1064V15ZM42.0459 15H42.1064V14H42.0459V15ZM41.9853 15H42.0459V14H41.9853V15ZM41.9246 15H41.9853V14H41.9246V15ZM41.8637 15H41.9246V14H41.8637V15ZM41.8027 15H41.8637V14H41.8027V15ZM41.7415 15H41.8027V14H41.7415V15ZM41.6802 15H41.7415V14H41.6802V15ZM41.6188 15H41.6802V14H41.6188V15ZM41.5573 15H41.6188V14H41.5573V15ZM41.4957 15H41.5573V14H41.4957V15ZM41.4339 15H41.4957V14H41.4339V15ZM41.3719 15H41.4339V14H41.3719V15ZM41.3099 15H41.3719V14H41.3099V15ZM41.2477 15H41.3099V14H41.2477V15ZM41.1854 15H41.2477V14H41.1854V15ZM41.123 15H41.1854V14H41.123V15ZM41.0604 15H41.123V14H41.0604V15ZM40.9977 15H41.0604V14H40.9977V15ZM40.9349 15H40.9977V14H40.9349V15ZM40.8719 15H40.9349V14H40.8719V15ZM40.8088 15H40.8719V14H40.8088V15ZM40.7456 15H40.8088V14H40.7456V15ZM40.6823 15H40.7456V14H40.6823V15ZM40.6188 15H40.6823V14H40.6188V15ZM40.5552 15H40.6188V14H40.5552V15ZM40.4915 15H40.5552V14H40.4915V15ZM40.4276 15H40.4915V14H40.4276V15ZM40.3636 15H40.4276V14H40.3636V15ZM40.2995 15H40.3636V14H40.2995V15ZM40.2352 15H40.2995V14H40.2352V15ZM40.1708 15H40.2352V14H40.1708V15ZM40.1063 15H40.1708V14H40.1063V15ZM40.0417 15H40.1063V14H40.0417V15ZM39.9769 15H40.0417V14H39.9769V15ZM39.912 15H39.9769V14H39.912V15ZM39.8469 15H39.912V14H39.8469V15ZM39.7818 15H39.8469V14H39.7818V15ZM39.7165 15H39.7818V14H39.7165V15ZM39.651 15H39.7165V14H39.651V15ZM39.5855 15H39.651V14H39.5855V15ZM39.5198 15H39.5855V14H39.5198V15ZM39.454 15H39.5198V14H39.454V15ZM39.388 15H39.454V14H39.388V15ZM39.3219 15H39.388V14H39.3219V15ZM39.2557 15H39.3219V14H39.2557V15ZM39.1894 15H39.2557V14H39.1894V15ZM39.1229 15H39.1894V14H39.1229V15ZM39.0563 15H39.1229V14H39.0563V15ZM38.9896 15H39.0563V14H38.9896V15ZM38.9227 15H38.9896V14H38.9227V15ZM38.8557 15H38.9227V14H38.8557V15ZM38.7886 15H38.8557V14H38.7886V15ZM38.7213 15H38.7886V14H38.7213V15ZM38.6539 15H38.7213V14H38.6539V15ZM38.5864 15H38.6539V14H38.5864V15ZM38.5188 15H38.5864V14H38.5188V15ZM38.451 15H38.5188V14H38.451V15ZM38.3831 15H38.451V14H38.3831V15ZM38.315 15H38.3831V14H38.315V15ZM38.2469 15H38.315V14H38.2469V15ZM38.1786 15H38.2469V14H38.1786V15ZM38.1101 15H38.1786V14H38.1101V15ZM38.0416 15H38.1101V14H38.0416V15ZM37.9729 15H38.0416V14H37.9729V15ZM37.904 15H37.9729V14H37.904V15ZM37.8351 15H37.904V14H37.8351V15ZM37.766 15H37.8351V14H37.766V15ZM37.6968 15H37.766V14H37.6968V15ZM37.6274 15H37.6968V14H37.6274V15ZM37.5579 15H37.6274V14H37.5579V15ZM37.4883 15H37.5579V14H37.4883V15ZM37.4186 15H37.4883V14H37.4186V15ZM37.3487 15H37.4186V14H37.3487V15ZM37.2787 15H37.3487V14H37.2787V15ZM37.2085 15H37.2787V14H37.2085V15ZM37.1383 15H37.2085V14H37.1383V15ZM37.0679 15H37.1383V14H37.0679V15ZM36.9973 15H37.0679V14H36.9973V15ZM36.9267 15H36.9973V14H36.9267V15ZM36.8559 15H36.9267V14H36.8559V15ZM36.7849 15H36.8559V14H36.7849V15ZM36.7139 15H36.7849V14H36.7139V15ZM36.6427 15H36.7139V14H36.6427V15ZM36.5714 15H36.6427V14H36.5714V15ZM36.4999 15H36.5714V14H36.4999V15ZM36.4283 15H36.4999V14H36.4283V15ZM36.3566 15H36.4283V14H36.3566V15ZM36.2847 15H36.3566V14H36.2847V15ZM36.2128 15H36.2847V14H36.2128V15ZM36.1406 15H36.2128V14H36.1406V15ZM36.0684 15H36.1406V14H36.0684V15ZM35.996 15H36.0684V14H35.996V15ZM35.9235 15H35.996V14H35.9235V15ZM35.8509 15H35.9235V14H35.8509V15ZM35.7781 15H35.8509V14H35.7781V15ZM35.7052 15H35.7781V14H35.7052V15ZM35.6321 15H35.7052V14H35.6321V15ZM35.559 15H35.6321V14H35.559V15ZM35.4857 15H35.559V14H35.4857V15ZM35.4122 15H35.4857V14H35.4122V15ZM35.3387 15H35.4122V14H35.3387V15ZM35.265 15H35.3387V14H35.265V15ZM35.1911 15H35.265V14H35.1911V15ZM35.1172 15H35.1911V14H35.1172V15ZM35.0431 15H35.1172V14H35.0431V15ZM34.9688 15H35.0431V14H34.9688V15ZM34.8945 15H34.9688V14H34.8945V15ZM34.82 15H34.8945V14H34.82V15ZM34.7454 15H34.82V14H34.7454V15ZM34.6706 15H34.7454V14H34.6706V15ZM34.5957 15H34.6706V14H34.5957V15ZM34.5207 15H34.5957V14H34.5207V15ZM34.4455 15H34.5207V14H34.4455V15ZM34.3702 15H34.4455V14H34.3702V15ZM34.2948 15H34.3702V14H34.2948V15ZM34.2193 15H34.2948V14H34.2193V15ZM34.1436 15H34.2193V14H34.1436V15ZM34.0678 15H34.1436V14H34.0678V15ZM33.9918 15H34.0678V14H33.9918V15ZM33.9157 15H33.9918V14H33.9157V15ZM33.8395 15H33.9157V14H33.8395V15ZM33.7632 15H33.8395V14H33.7632V15ZM33.6867 15H33.7632V14H33.6867V15ZM33.6101 15H33.6867V14H33.6101V15ZM33.5333 15H33.6101V14H33.5333V15ZM33.4564 15H33.5333V14H33.4564V15ZM33.3794 15H33.4564V14H33.3794V15ZM33.3023 15H33.3794V14H33.3023V15ZM33.225 15H33.3023V14H33.225V15ZM33.1476 15H33.225V14H33.1476V15ZM33.07 15H33.1476V14H33.07V15ZM32.9924 15H33.07V14H32.9924V15ZM32.9145 15H32.9924V14H32.9145V15ZM32.8366 15H32.9145V14H32.8366V15ZM32.7585 15H32.8366V14H32.7585V15ZM32.6803 15H32.7585V14H32.6803V15ZM32.602 15H32.6803V14H32.602V15ZM32.5235 15H32.602V14H32.5235V15ZM32.4449 15H32.5235V14H32.4449V15ZM32.3661 15H32.4449V14H32.3661V15ZM32.2873 15H32.3661V14H32.2873V15ZM32.2082 15H32.2873V14H32.2082V15ZM32.1291 15H32.2082V14H32.1291V15ZM32.0498 15H32.1291V14H32.0498V15ZM31.9704 15H32.0498V14H31.9704V15ZM31.8909 15H31.9704V14H31.8909V15ZM31.8112 15H31.8909V14H31.8112V15ZM31.7314 15H31.8112V14H31.7314V15ZM31.6514 15H31.7314V14H31.6514V15ZM31.5714 15H31.6514V14H31.5714V15ZM31.4911 15H31.5714V14H31.4911V15ZM31.4108 15H31.4911V14H31.4108V15ZM31.3303 15H31.4108V14H31.3303V15ZM31.2497 15H31.3303V14H31.2497V15ZM31.169 15H31.2497V14H31.169V15ZM31.0881 15H31.169V14H31.0881V15ZM31.0071 15H31.0881V14H31.0071V15ZM30.9259 15H31.0071V14H30.9259V15ZM30.8446 15H30.9259V14H30.8446V15ZM30.7632 15H30.8446V14H30.7632V15ZM30.6817 15H30.7632V14H30.6817V15ZM30.6 15H30.6817V14H30.6V15ZM30.5182 15H30.6V14H30.5182V15ZM30.4362 15H30.5182V14H30.4362V15ZM30.3541 15H30.4362V14H30.3541V15ZM30.2719 15H30.3541V14H30.2719V15ZM30.1896 15H30.2719V14H30.1896V15ZM30.1071 15H30.1896V14H30.1071V15ZM30.0244 15H30.1071V14H30.0244V15ZM29.9417 15H30.0244V14H29.9417V15ZM29.8588 15H29.9417V14H29.8588V15ZM29.7758 15H29.8588V14H29.7758V15ZM29.6926 15H29.7758V14H29.6926V15ZM29.6093 15H29.6926V14H29.6093V15ZM29.5259 15H29.6093V14H29.5259V15ZM29.4423 15H29.5259V14H29.4423V15ZM29.3586 15H29.4423V14H29.3586V15ZM29.2748 15H29.3586V14H29.2748V15ZM29.1908 15H29.2748V14H29.1908V15ZM29.1067 15H29.1908V14H29.1067V15ZM29.0225 15H29.1067V14H29.0225V15ZM28.9381 15H29.0225V14H28.9381V15ZM28.8536 15H28.9381V14H28.8536V15ZM28.769 15H28.8536V14H28.769V15ZM28.6842 15H28.769V14H28.6842V15ZM28.5993 15H28.6842V14H28.5993V15ZM28.5143 15H28.5993V14H28.5143V15ZM28.4291 15H28.5143V14H28.4291V15ZM28.3438 15H28.4291V14H28.3438V15ZM28.2584 15H28.3438V14H28.2584V15ZM28.1728 15H28.2584V14H28.1728V15ZM28.0871 15H28.1728V14H28.0871V15ZM28.0012 15H28.0871V14H28.0012V15ZM27.9152 15H28.0012V14H27.9152V15ZM27.8291 15H27.9152V14H27.8291V15ZM27.7429 15H27.8291V14H27.7429V15ZM27.6565 15H27.7429V14H27.6565V15ZM27.5699 15H27.6565V14H27.5699V15ZM27.4833 15H27.5699V14H27.4833V15ZM27.3965 15H27.4833V14H27.3965V15ZM27.3096 15H27.3965V14H27.3096V15ZM27.2225 15H27.3096V14H27.2225V15ZM27.1353 15H27.2225V14H27.1353V15ZM27.048 15H27.1353V14H27.048V15ZM26.9605 15H27.048V14H26.9605V15ZM26.8729 15H26.9605V14H26.8729V15ZM26.7851 15H26.8729V14H26.7851V15ZM26.6973 15H26.7851V14H26.6973V15ZM26.6093 15H26.6973V14H26.6093V15ZM26.5211 15H26.6093V14H26.5211V15ZM26.4328 15H26.5211V14H26.4328V15ZM26.3444 15H26.4328V14H26.3444V15ZM26.2559 15H26.3444V14H26.2559V15ZM26.1672 15H26.2559V14H26.1672V15ZM26.0784 15H26.1672V14H26.0784V15ZM25.9894 15H26.0784V14H25.9894V15ZM25.9003 15H25.9894V14H25.9003V15ZM25.8111 15H25.9003V14H25.8111V15ZM25.7217 15H25.8111V14H25.7217V15ZM25.6322 15H25.7217V14H25.6322V15ZM25.5426 15H25.6322V14H25.5426V15ZM25.4528 15H25.5426V14H25.4528V15ZM25.3629 15H25.4528V14H25.3629V15ZM25.2729 15H25.3629V14H25.2729V15ZM25.1827 15H25.2729V14H25.1827V15ZM25.0924 15H25.1827V14H25.0924V15ZM25.0019 15H25.0924V14H25.0019V15ZM24.9113 15H25.0019V14H24.9113V15ZM24.8206 15H24.9113V14H24.8206V15ZM24.7297 15H24.8206V14H24.7297V15ZM24.6388 15H24.7297V14H24.6388V15ZM24.5476 15H24.6388V14H24.5476V15ZM24.4564 15H24.5476V14H24.4564V15ZM24.365 15H24.4564V14H24.365V15ZM24.2734 15H24.365V14H24.2734V15ZM24.1817 15H24.2734V14H24.1817V15ZM24.0899 15H24.1817V14H24.0899V15ZM23.998 15H24.0899V14H23.998V15ZM23.9059 15H23.998V14H23.9059V15ZM23.8137 15H23.9059V14H23.8137V15ZM23.7213 15H23.8137V14H23.7213V15ZM23.6288 15H23.7213V14H23.6288V15ZM23.5362 15H23.6288V14H23.5362V15ZM23.4435 15H23.5362V14H23.4435V15ZM23.3506 15H23.4435V14H23.3506V15ZM23.2575 15H23.3506V14H23.2575V15ZM23.1643 15H23.2575V14H23.1643V15ZM23.071 15H23.1643V14H23.071V15ZM22.9776 15H23.071V14H22.9776V15ZM22.884 15H22.9776V14H22.884V15ZM22.7903 15H22.884V14H22.7903V15ZM22.6964 15H22.7903V14H22.6964V15ZM22.6024 15H22.6964V14H22.6024V15ZM22.5083 15H22.6024V14H22.5083V15ZM22.4141 15H22.5083V14H22.4141V15ZM22.3197 15H22.4141V14H22.3197V15ZM22.2251 15H22.3197V14H22.2251V15ZM22.1304 15H22.2251V14H22.1304V15ZM22.0356 15H22.1304V14H22.0356V15ZM21.9407 15H22.0356V14H21.9407V15ZM21.8456 15H21.9407V14H21.8456V15ZM21.7504 15H21.8456V14H21.7504V15ZM21.655 15H21.7504V14H21.655V15ZM21.5595 15H21.655V14H21.5595V15ZM21.4639 15H21.5595V14H21.4639V15ZM21.3681 15H21.4639V14H21.3681V15ZM21.2722 15H21.3681V14H21.2722V15ZM21.1762 15H21.2722V14H21.1762V15ZM21.08 15H21.1762V14H21.08V15ZM20.9837 15H21.08V14H20.9837V15ZM20.8872 15H20.9837V14H20.8872V15ZM20.7906 15H20.8872V14H20.7906V15ZM20.6939 15H20.7906V14H20.6939V15ZM20.597 15H20.6939V14H20.597V15ZM20.5 15H20.597V14H20.5V15ZM20.4029 15H20.5V14H20.4029V15ZM20.3056 15H20.4029V14H20.3056V15ZM20.2082 15H20.3056V14H20.2082V15ZM20.1107 15H20.2082V14H20.1107V15ZM20.013 15H20.1107V14H20.013V15ZM19.9151 15H20.013V14H19.9151V15ZM19.8172 15H19.9151V14H19.8172V15ZM19.7191 15H19.8172V14H19.7191V15ZM19.6208 15H19.7191V14H19.6208V15ZM19.5225 15H19.6208V14H19.5225V15ZM19.424 15H19.5225V14H19.424V15ZM19.3253 15H19.424V14H19.3253V15ZM19.2265 15H19.3253V14H19.2265V15ZM19.1276 15H19.2265V14H19.1276V15ZM19.0285 15H19.1276V14H19.0285V15ZM18.9293 15H19.0285V14H18.9293V15ZM18.83 15H18.9293V14H18.83V15ZM18.7305 15H18.83V14H18.7305V15ZM18.6309 15H18.7305V14H18.6309V15ZM18.5311 15H18.6309V14H18.5311V15ZM18.4312 15H18.5311V14H18.4312V15ZM18.3312 15H18.4312V14H18.3312V15ZM18.2311 15H18.3312V14H18.2311V15ZM18.1308 15H18.2311V14H18.1308V15ZM18.0303 15H18.1308V14H18.0303V15ZM17.9297 15H18.0303V14H17.9297V15ZM17.829 15H17.9297V14H17.829V15ZM17.7282 15H17.829V14H17.7282V15ZM17.6272 15H17.7282V14H17.6272V15ZM17.526 15H17.6272V14H17.526V15ZM17.4248 15H17.526V14H17.4248V15ZM17.3234 15H17.4248V14H17.3234V15ZM17.2218 15H17.3234V14H17.2218V15ZM17.1201 15H17.2218V14H17.1201V15ZM17.0183 15H17.1201V14H17.0183V15ZM16.9163 15H17.0183V14H16.9163V15ZM16.8142 15H16.9163V14H16.8142V15ZM16.712 15H16.8142V14H16.712V15ZM16.6096 15H16.712V14H16.6096V15ZM16.5071 15H16.6096V14H16.5071V15ZM16.4045 15H16.5071V14H16.4045V15ZM16.3017 15H16.4045V14H16.3017V15ZM16.1988 15H16.3017V14H16.1988V15ZM16.0957 15H16.1988V14H16.0957V15ZM15.9925 15H16.0957V14H15.9925V15ZM15.8891 15H15.9925V14H15.8891V15ZM15.7857 15H15.8891V14H15.7857V15ZM15.682 15H15.7857V14H15.682V15ZM15.5783 15H15.682V14H15.5783V15ZM15.4744 15H15.5783V14H15.4744V15ZM15.3703 15H15.4744V14H15.3703V15ZM15.2662 15H15.3703V14H15.2662V15ZM15.1618 15H15.2662V14H15.1618V15ZM15.0574 15H15.1618V14H15.0574V15ZM14.9528 15H15.0574V14H14.9528V15ZM14.8481 15H14.9528V14H14.8481V15ZM14.7432 15H14.8481V14H14.7432V15ZM14.6382 15H14.7432V14H14.6382V15ZM14.533 15H14.6382V14H14.533V15ZM14.4278 15H14.533V14H14.4278V15ZM14.3223 15H14.4278V14H14.3223V15ZM14.2168 15H14.3223V14H14.2168V15ZM14.1111 15H14.2168V14H14.1111V15ZM14.0052 15H14.1111V14H14.0052V15ZM13.8992 15H14.0052V14H13.8992V15ZM13.7931 15H13.8992V14H13.7931V15ZM13.6869 15H13.7931V14H13.6869V15ZM13.5805 15H13.6869V14H13.5805V15ZM13.4739 15H13.5805V14H13.4739V15ZM13.3672 15H13.4739V14H13.3672V15ZM13.2604 15H13.3672V14H13.2604V15ZM13.1535 15H13.2604V14H13.1535V15ZM13.0464 15H13.1535V14H13.0464V15ZM12.9391 15H13.0464V14H12.9391V15ZM12.8318 15H12.9391V14H12.8318V15ZM12.7243 15H12.8318V14H12.7243V15ZM12.6166 15H12.7243V14H12.6166V15ZM12.5088 15H12.6166V14H12.5088V15ZM12.4009 15H12.5088V14H12.4009V15ZM12.2928 15H12.4009V14H12.2928V15ZM12.1846 15H12.2928V14H12.1846V15ZM12.0763 15H12.1846V14H12.0763V15ZM11.9678 15H12.0763V14H11.9678V15ZM11.8591 15H11.9678V14H11.8591V15ZM11.7504 15H11.8591V14H11.7504V15ZM11.6415 15H11.7504V14H11.6415V15ZM68.2155 13C67.6633 13 67.2155 13.4477 67.2155 14H68.2155V13ZM68.2256 13H68.2155V14H68.2256V13ZM68.2356 13H68.2256V14H68.2356V13ZM68.2457 13H68.2356V14H68.2457V13ZM68.2558 13H68.2457V14H68.2558V13ZM68.2659 13H68.2558V14H68.2659V13ZM68.2761 13H68.2659V14H68.2761V13ZM68.2862 13H68.2761V14H68.2862V13ZM68.2964 13H68.2862V14H68.2964V13ZM68.3066 13H68.2964V14H68.3066V13ZM68.3168 13H68.3066V14H68.3168V13ZM68.327 13H68.3168V14H68.327V13ZM68.3373 13H68.327V14H68.3373V13ZM68.3475 13H68.3373V14H68.3475V13ZM68.3578 13H68.3475V14H68.3578V13ZM68.3681 13H68.3578V14H68.3681V13ZM68.3785 13H68.3681V14H68.3785V13ZM68.3888 13H68.3785V14H68.3888V13ZM68.3992 13H68.3888V14H68.3992V13ZM68.4096 13H68.3992V14H68.4096V13ZM68.42 13H68.4096V14H68.42V13ZM68.4304 13H68.42V14H68.4304V13ZM68.4408 13H68.4304V14H68.4408V13ZM68.4513 13H68.4408V14H68.4513V13ZM68.4618 13H68.4513V14H68.4618V13ZM68.4723 13H68.4618V14H68.4723V13ZM68.4828 13H68.4723V14H68.4828V13ZM68.4934 13H68.4828V14H68.4934V13ZM68.5039 13H68.4934V14H68.5039V13ZM68.5145 13H68.5039V14H68.5145V13ZM68.5251 13H68.5145V14H68.5251V13ZM68.5357 13H68.5251V14H68.5357V13ZM68.5464 13H68.5357V14H68.5464V13ZM68.557 13H68.5464V14H68.557V13ZM68.5677 13H68.557V14H68.5677V13ZM68.5784 13H68.5677V14H68.5784V13ZM68.5892 13H68.5784V14H68.5892V13ZM68.5999 13H68.5892V14H68.5999V13ZM68.6107 13H68.5999V14H68.6107V13ZM68.6214 13H68.6107V14H68.6214V13ZM68.6322 13H68.6214V14H68.6322V13ZM68.643 13H68.6322V14H68.643V13ZM68.6539 13H68.643V14H68.6539V13ZM68.6647 13H68.6539V14H68.6647V13ZM68.6756 13H68.6647V14H68.6756V13ZM68.6865 13H68.6756V14H68.6865V13ZM68.6974 13H68.6865V14H68.6974V13ZM68.7084 13H68.6974V14H68.7084V13ZM68.7193 13H68.7084V14H68.7193V13ZM68.7303 13H68.7193V14H68.7303V13ZM68.7413 13H68.7303V14H68.7413V13ZM68.7523 13H68.7413V14H68.7523V13ZM68.7633 13H68.7523V14H68.7633V13ZM68.7744 13H68.7633V14H68.7744V13ZM68.7855 13H68.7744V14H68.7855V13ZM68.7966 13H68.7855V14H68.7966V13ZM68.8077 13H68.7966V14H68.8077V13ZM68.8188 13H68.8077V14H68.8188V13ZM68.83 13H68.8188V14H68.83V13ZM68.8411 13H68.83V14H68.8411V13ZM68.8523 13H68.8411V14H68.8523V13ZM68.8635 13H68.8523V14H68.8635V13ZM68.8748 13H68.8635V14H68.8748V13ZM68.886 13H68.8748V14H68.886V13ZM68.8973 13H68.886V14H68.8973V13ZM68.9086 13H68.8973V14H68.9086V13ZM68.9199 13H68.9086V14H68.9199V13ZM68.9312 13H68.9199V14H68.9312V13ZM68.9426 13H68.9312V14H68.9426V13ZM68.9539 13H68.9426V14H68.9539V13ZM68.9653 13H68.9539V14H68.9653V13ZM68.9767 13H68.9653V14H68.9767V13ZM68.9881 13H68.9767V14H68.9881V13ZM68.9996 13H68.9881V14H68.9996V13ZM69.011 13H68.9996V14H69.011V13ZM69.0225 13H69.011V14H69.0225V13ZM69.034 13H69.0225V14H69.034V13ZM69.0456 13H69.034V14H69.0456V13ZM69.0571 13H69.0456V14H69.0571V13ZM69.0687 13H69.0571V14H69.0687V13ZM69.0802 13H69.0687V14H69.0802V13ZM69.0918 13H69.0802V14H69.0918V13ZM69.1035 13H69.0918V14H69.1035V13ZM69.1151 13H69.1035V14H69.1151V13ZM69.1268 13H69.1151V14H69.1268V13ZM69.1385 13H69.1268V14H69.1385V13ZM69.1502 13H69.1385V14H69.1502V13ZM69.1619 13H69.1502V14H69.1619V13ZM69.1736 13H69.1619V14H69.1736V13ZM69.1854 13H69.1736V14H69.1854V13ZM69.1971 13H69.1854V14H69.1971V13ZM69.2089 13H69.1971V14H69.2089V13ZM69.2208 13H69.2089V14H69.2208V13ZM69.2326 13H69.2208V14H69.2326V13ZM69.2445 13H69.2326V14H69.2445V13ZM69.2563 13H69.2445V14H69.2563V13ZM69.2682 13H69.2563V14H69.2682V13ZM69.2801 13H69.2682V14H69.2801V13ZM69.2921 13H69.2801V14H69.2921V13ZM69.304 13H69.2921V14H69.304V13ZM69.316 13H69.304V14H69.316V13ZM69.328 13H69.316V14H69.328V13ZM69.34 13H69.328V14H69.34V13ZM69.352 13H69.34V14H69.352V13ZM69.3641 13H69.352V14H69.3641V13ZM69.3762 13H69.3641V14H69.3762V13ZM69.3883 13H69.3762V14H69.3883V13ZM69.4004 13H69.3883V14H69.4004V13ZM69.4125 13H69.4004V14H69.4125V13ZM69.4246 13H69.4125V14H69.4246V13ZM69.4368 13H69.4246V14H69.4368V13ZM69.449 13H69.4368V14H69.449V13ZM69.4612 13H69.449V14H69.4612V13ZM69.4734 13H69.4612V14H69.4734V13ZM69.4857 13H69.4734V14H69.4857V13ZM69.498 13H69.4857V14H69.498V13ZM69.5102 13H69.498V14H69.5102V13ZM69.5226 13H69.5102V14H69.5226V13ZM69.5349 13H69.5226V14H69.5349V13ZM69.5472 13H69.5349V14H69.5472V13ZM69.5596 13H69.5472V14H69.5596V13ZM69.572 13H69.5596V14H69.572V13ZM69.5844 13H69.572V14H69.5844V13ZM69.5968 13H69.5844V14H69.5968V13ZM69.6092 13H69.5968V14H69.6092V13ZM69.6217 13H69.6092V14H69.6217V13ZM69.6342 13H69.6217V14H69.6342V13ZM69.6467 13H69.6342V14H69.6467V13ZM69.6592 13H69.6467V14H69.6592V13ZM69.6718 13H69.6592V14H69.6718V13ZM69.6843 13H69.6718V14H69.6843V13ZM69.6969 13H69.6843V14H69.6969V13ZM69.7095 13H69.6969V14H69.7095V13ZM69.7221 13H69.7095V14H69.7221V13ZM69.7348 13H69.7221V14H69.7348V13ZM69.7474 13H69.7348V14H69.7474V13ZM69.7601 13H69.7474V14H69.7601V13ZM69.7728 13H69.7601V14H69.7728V13ZM69.7855 13H69.7728V14H69.7855V13ZM69.7983 13H69.7855V14H69.7983V13ZM69.811 13H69.7983V14H69.811V13ZM69.8238 13H69.811V14H69.8238V13ZM69.8366 13H69.8238V14H69.8366V13ZM69.8494 13H69.8366V14H69.8494V13ZM69.8622 13H69.8494V14H69.8622V13ZM69.8751 13H69.8622V14H69.8751V13ZM69.888 13H69.8751V14H69.888V13ZM69.9009 13H69.888V14H69.9009V13ZM69.9138 13H69.9009V14H69.9138V13ZM69.9267 13H69.9138V14H69.9267V13ZM69.9397 13H69.9267V14H69.9397V13ZM69.9526 13H69.9397V14H69.9526V13ZM69.9656 13H69.9526V14H69.9656V13ZM69.9786 13H69.9656V14H69.9786V13ZM69.9917 13H69.9786V14H69.9917V13ZM70.0047 13H69.9917V14H70.0047V13ZM70.0178 13H70.0047V14H70.0178V13ZM70.0309 13H70.0178V14H70.0309V13ZM70.044 13H70.0309V14H70.044V13ZM70.0571 13H70.044V14H70.0571V13ZM70.0703 13H70.0571V14H70.0703V13ZM70.0834 13H70.0703V14H70.0834V13ZM70.0966 13H70.0834V14H70.0966V13ZM70.1098 13H70.0966V14H70.1098V13ZM70.1231 13H70.1098V14H70.1231V13ZM70.1363 13H70.1231V14H70.1363V13ZM70.1496 13H70.1363V14H70.1496V13ZM70.1629 13H70.1496V14H70.1629V13ZM70.1762 13H70.1629V14H70.1762V13ZM70.1895 13H70.1762V14H70.1895V13ZM70.2028 13H70.1895V14H70.2028V13ZM70.2162 13H70.2028V14H70.2162V13ZM70.2296 13H70.2162V14H70.2296V13ZM70.243 13H70.2296V14H70.243V13ZM70.2564 13H70.243V14H70.2564V13ZM70.2698 13H70.2564V14H70.2698V13ZM70.2833 13H70.2698V14H70.2833V13ZM70.2968 13H70.2833V14H70.2968V13ZM70.3103 13H70.2968V14H70.3103V13ZM70.3238 13H70.3103V14H70.3238V13ZM70.3374 13H70.3238V14H70.3374V13ZM70.3509 13H70.3374V14H70.3509V13ZM70.3645 13H70.3509V14H70.3645V13ZM70.3781 13H70.3645V14H70.3781V13ZM70.3917 13H70.3781V14H70.3917V13ZM70.4053 13H70.3917V14H70.4053V13ZM70.419 13H70.4053V14H70.419V13ZM70.4327 13H70.419V14H70.4327V13ZM70.4464 13H70.4327V14H70.4464V13ZM70.4601 13H70.4464V14H70.4601V13ZM70.4738 13H70.4601V14H70.4738V13ZM70.4876 13H70.4738V14H70.4876V13ZM70.5014 13H70.4876V14H70.5014V13ZM70.5152 13H70.5014V14H70.5152V13ZM70.529 13H70.5152V14H70.529V13ZM70.5428 13H70.529V14H70.5428V13ZM70.5567 13H70.5428V14H70.5567V13ZM70.5705 13H70.5567V14H70.5705V13ZM70.5844 13H70.5705V14H70.5844V13ZM70.5983 13H70.5844V14H70.5983V13ZM70.6123 13H70.5983V14H70.6123V13ZM70.6262 13H70.6123V14H70.6262V13ZM70.6402 13H70.6262V14H70.6402V13ZM70.6542 13H70.6402V14H70.6542V13ZM70.6682 13H70.6542V14H70.6682V13ZM70.6822 13H70.6682V14H70.6822V13ZM70.6963 13H70.6822V14H70.6963V13ZM70.7103 13H70.6963V14H70.7103V13ZM70.7244 13H70.7103V14H70.7244V13ZM70.7385 13H70.7244V14H70.7385V13ZM70.7527 13H70.7385V14H70.7527V13ZM70.7668 13H70.7527V14H70.7668V13ZM70.781 13H70.7668V14H70.781V13ZM70.7952 13H70.781V14H70.7952V13ZM70.8094 13H70.7952V14H70.8094V13ZM70.8236 13H70.8094V14H70.8236V13ZM70.8378 13H70.8236V14H70.8378V13ZM70.8521 13H70.8378V14H70.8521V13ZM70.8664 13H70.8521V14H70.8664V13ZM70.8807 13H70.8664V14H70.8807V13ZM70.895 13H70.8807V14H70.895V13ZM70.9094 13H70.895V14H70.9094V13ZM70.9237 13H70.9094V14H70.9237V13ZM70.9381 13H70.9237V14H70.9381V13ZM70.9525 13H70.9381V14H70.9525V13ZM70.9669 13H70.9525V14H70.9669V13ZM70.9814 13H70.9669V14H70.9814V13ZM70.9958 13H70.9814V14H70.9958V13ZM71.0103 13H70.9958V14H71.0103V13ZM71.0248 13H71.0103V14H71.0248V13ZM71.0393 13H71.0248V14H71.0393V13ZM71.0539 13H71.0393V14H71.0539V13ZM71.0684 13H71.0539V14H71.0684V13ZM71.083 13H71.0684V14H71.083V13ZM71.0976 13H71.083V14H71.0976V13ZM71.1122 13H71.0976V14H71.1122V13ZM71.1269 13H71.1122V14H71.1269V13ZM71.1415 13H71.1269V14H71.1415V13ZM71.1562 13H71.1415V14H71.1562V13ZM71.1709 13H71.1562V14H71.1709V13ZM71.1856 13H71.1709V14H71.1856V13ZM71.2003 13H71.1856V14H71.2003V13ZM71.2151 13H71.2003V14H71.2151V13ZM71.2299 13H71.2151V14H71.2299V13ZM71.2447 13H71.2299V14H71.2447V13ZM71.2595 13H71.2447V14H71.2595V13ZM71.2743 13H71.2595V14H71.2743V13ZM71.2892 13H71.2743V14H71.2892V13ZM71.304 13H71.2892V14H71.304V13ZM71.3189 13H71.304V14H71.3189V13ZM71.3338 13H71.3189V14H71.3338V13ZM71.3488 13H71.3338V14H71.3488V13ZM71.3637 13H71.3488V14H71.3637V13ZM71.3787 13H71.3637V14H71.3787V13ZM71.3937 13H71.3787V14H71.3937V13ZM71.4087 13H71.3937V14H71.4087V13ZM71.4237 13H71.4087V14H71.4237V13ZM71.4388 13H71.4237V14H71.4388V13ZM71.4538 13H71.4388V14H71.4538V13ZM71.4689 13H71.4538V14H71.4689V13ZM71.484 13H71.4689V14H71.484V13ZM71.4991 13H71.484V14H71.4991V13ZM71.5143 13H71.4991V14H71.5143V13ZM71.5295 13H71.5143V14H71.5295V13ZM71.5446 13H71.5295V14H71.5446V13ZM71.5598 13H71.5446V14H71.5598V13ZM71.5751 13H71.5598V14H71.5751V13ZM71.5903 13H71.5751V14H71.5903V13ZM71.6056 13H71.5903V14H71.6056V13ZM71.6209 13H71.6056V14H71.6209V13ZM71.6362 13H71.6209V14H71.6362V13ZM71.6515 13H71.6362V14H71.6515V13ZM71.6668 13H71.6515V14H71.6668V13ZM71.6822 13H71.6668V14H71.6822V13ZM71.6976 13H71.6822V14H71.6976V13ZM71.713 13H71.6976V14H71.713V13ZM71.7284 13H71.713V14H71.7284V13ZM71.7438 13H71.7284V14H71.7438V13ZM71.7593 13H71.7438V14H71.7593V13ZM71.7748 13H71.7593V14H71.7748V13ZM71.7903 13H71.7748V14H71.7903V13ZM71.8058 13H71.7903V14H71.8058V13ZM71.8213 13H71.8058V14H71.8213V13ZM71.8369 13H71.8213V14H71.8369V13ZM71.8525 13H71.8369V14H71.8525V13ZM71.8681 13H71.8525V14H71.8681V13ZM71.8837 13H71.8681V14H71.8837V13ZM71.8993 13H71.8837V14H71.8993V13ZM71.915 13H71.8993V14H71.915V13ZM71.9306 13H71.915V14H71.9306V13ZM71.9463 13H71.9306V14H71.9463V13ZM71.962 13H71.9463V14H71.962V13ZM71.9778 13H71.962V14H71.9778V13ZM71.9935 13H71.9778V14H71.9935V13ZM72.0093 13H71.9935V14H72.0093V13ZM72.0251 13H72.0093V14H72.0251V13ZM72.0409 13H72.0251V14H72.0409V13ZM72.0567 13H72.0409V14H72.0567V13ZM72.0726 13H72.0567V14H72.0726V13ZM72.0885 13H72.0726V14H72.0885V13ZM72.1044 13H72.0885V14H72.1044V13ZM72.1203 13H72.1044V14H72.1203V13ZM72.1362 13H72.1203V14H72.1362V13ZM72.1521 13H72.1362V14H72.1521V13ZM72.1681 13H72.1521V14H72.1681V13ZM72.1841 13H72.1681V14H72.1841V13ZM72.2001 13H72.1841V14H72.2001V13ZM72.2161 13H72.2001V14H72.2161V13ZM72.2322 13H72.2161V14H72.2322V13ZM72.2482 13H72.2322V14H72.2482V13ZM72.2643 13H72.2482V14H72.2643V13ZM72.2804 13H72.2643V14H72.2804V13ZM72.2966 13H72.2804V14H72.2966V13ZM72.3127 13H72.2966V14H72.3127V13ZM72.3289 13H72.3127V14H72.3289V13ZM72.3451 13H72.3289V14H72.3451V13ZM72.3613 13H72.3451V14H72.3613V13ZM72.3775 13H72.3613V14H72.3775V13ZM72.3937 13H72.3775V14H72.3937V13ZM72.41 13H72.3937V14H72.41V13ZM72.4263 13H72.41V14H72.4263V13ZM72.4426 13H72.4263V14H72.4426V13ZM72.4589 13H72.4426V14H72.4589V13ZM72.4752 13H72.4589V14H72.4752V13ZM72.4916 13H72.4752V14H72.4916V13ZM72.508 13H72.4916V14H72.508V13ZM72.5244 13H72.508V14H72.5244V13ZM72.5408 13H72.5244V14H72.5408V13ZM72.5572 13H72.5408V14H72.5572V13ZM72.5737 13H72.5572V14H72.5737V13ZM72.5902 13H72.5737V14H72.5902V13ZM72.6067 13H72.5902V14H72.6067V13ZM72.6232 13H72.6067V14H72.6232V13ZM72.6397 13H72.6232V14H72.6397V13ZM72.6563 13H72.6397V14H72.6563V13ZM72.6728 13H72.6563V14H72.6728V13ZM72.6894 13H72.6728V14H72.6894V13ZM72.706 13H72.6894V14H72.706V13ZM72.7227 13H72.706V14H72.7227V13ZM72.7393 13H72.7227V14H72.7393V13ZM72.756 13H72.7393V14H72.756V13ZM72.7727 13H72.756V14H72.7727V13ZM72.7894 13H72.7727V14H72.7894V13ZM72.8061 13H72.7894V14H72.8061V13ZM72.8229 13H72.8061V14H72.8229V13ZM72.8397 13H72.8229V14H72.8397V13ZM72.8565 13H72.8397V14H72.8565V13ZM72.8733 13H72.8565V14H72.8733V13ZM72.8901 13H72.8733V14H72.8901V13ZM72.907 13H72.8901V14H72.907V13ZM72.9238 13H72.907V14H72.9238V13ZM72.9407 13H72.9238V14H72.9407V13ZM72.9576 13H72.9407V14H72.9576V13ZM72.9745 13H72.9576V14H72.9745V13ZM72.9915 13H72.9745V14H72.9915V13ZM73.0085 13H72.9915V14H73.0085V13ZM73.0254 13H73.0085V14H73.0254V13ZM73.0425 13H73.0254V14H73.0425V13ZM73.0595 13H73.0425V14H73.0595V13ZM73.0765 13H73.0595V14H73.0765V13ZM73.0936 13H73.0765V14H73.0936V13ZM73.1107 13H73.0936V14H73.1107V13ZM73.1278 13H73.1107V14H73.1278V13ZM73.1449 13H73.1278V14H73.1449V13ZM73.162 13H73.1449V14H73.162V13ZM73.1792 13H73.162V14H73.1792V13ZM73.1964 13H73.1792V14H73.1964V13ZM73.2136 13H73.1964V14H73.2136V13ZM73.2308 13H73.2136V14H73.2308V13ZM73.2481 13H73.2308V14H73.2481V13ZM73.2653 13H73.2481V14H73.2653V13ZM73.2826 13H73.2653V14H73.2826V13ZM73.2999 13H73.2826V14H73.2999V13ZM73.3172 13H73.2999V14H73.3172V13ZM73.3346 13H73.3172V14H73.3346V13ZM73.3519 13H73.3346V14H73.3519V13ZM73.3693 13H73.3519V14H73.3693V13ZM73.3867 13H73.3693V14H73.3867V13ZM73.4041 13H73.3867V14H73.4041V13ZM73.4215 13H73.4041V14H73.4215V13ZM73.439 13H73.4215V14H73.439V13ZM73.4565 13H73.439V14H73.4565V13ZM73.474 13H73.4565V14H73.474V13ZM73.4915 13H73.474V14H73.4915V13ZM73.509 13H73.4915V14H73.509V13ZM73.5266 13H73.509V14H73.5266V13ZM73.5441 13H73.5266V14H73.5441V13ZM73.5617 13H73.5441V14H73.5617V13ZM73.5794 13H73.5617V14H73.5794V13ZM73.597 13H73.5794V14H73.597V13ZM73.6146 13H73.597V14H73.6146V13ZM73.6323 13H73.6146V14H73.6323V13ZM73.65 13H73.6323V14H73.65V13ZM73.6677 13H73.65V14H73.6677V13ZM73.6854 13H73.6677V14H73.6854V13ZM73.7032 13H73.6854V14H73.7032V13ZM73.721 13H73.7032V14H73.721V13ZM73.7388 13H73.721V14H73.7388V13ZM73.7566 13H73.7388V14H73.7566V13ZM73.7744 13H73.7566V14H73.7744V13ZM73.7922 13H73.7744V14H73.7922V13ZM73.8101 13H73.7922V14H73.8101V13ZM73.828 13H73.8101V14H73.828V13ZM73.8459 13H73.828V14H73.8459V13ZM73.8638 13H73.8459V14H73.8638V13ZM73.8818 13H73.8638V14H73.8818V13ZM73.8997 13H73.8818V14H73.8997V13ZM73.9177 13H73.8997V14H73.9177V13ZM73.9357 13H73.9177V14H73.9357V13ZM73.9538 13H73.9357V14H73.9538V13ZM73.9718 13H73.9538V14H73.9718V13ZM73.9899 13H73.9718V14H73.9899V13ZM74.0079 13H73.9899V14H74.0079V13ZM74.026 13H74.0079V14H74.026V13ZM74.0442 13H74.026V14H74.0442V13ZM74.0623 13H74.0442V14H74.0623V13ZM74.0805 13H74.0623V14H74.0805V13ZM74.0987 13H74.0805V14H74.0987V13ZM74.1169 13H74.0987V14H74.1169V13ZM74.1351 13H74.1169V14H74.1351V13ZM74.1533 13H74.1351V14H74.1533V13ZM74.1716 13H74.1533V14H74.1716V13ZM74.1899 13H74.1716V14H74.1899V13ZM74.2082 13H74.1899V14H74.2082V13ZM74.2265 13H74.2082V14H74.2265V13ZM74.2448 13H74.2265V14H74.2448V13ZM74.2632 13H74.2448V14H74.2632V13ZM74.2815 13H74.2632V14H74.2815V13ZM74.2999 13H74.2815V14H74.2999V13ZM74.3184 13H74.2999V14H74.3184V13ZM74.3368 13H74.3184V14H74.3368V13ZM74.3552 13H74.3368V14H74.3552V13ZM74.3737 13H74.3552V14H74.3737V13ZM74.3922 13H74.3737V14H74.3922V13ZM74.4107 13H74.3922V14H74.4107V13ZM74.4293 13H74.4107V14H74.4293V13ZM74.4478 13H74.4293V14H74.4478V13ZM74.4664 13H74.4478V14H74.4664V13ZM74.485 13H74.4664V14H74.485V13ZM74.5036 13H74.485V14H74.5036V13ZM74.5222 13H74.5036V14H74.5222V13ZM74.5409 13H74.5222V14H74.5409V13ZM74.5595 13H74.5409V14H74.5595V13ZM74.5782 13H74.5595V14H74.5782V13ZM74.5969 13H74.5782V14H74.5969V13ZM74.6157 13H74.5969V14H74.6157V13ZM74.6344 13H74.6157V14H74.6344V13ZM74.6532 13H74.6344V14H74.6532V13ZM74.672 13H74.6532V14H74.672V13ZM74.6908 13H74.672V14H74.6908V13ZM74.7096 13H74.6908V14H74.7096V13ZM74.7285 13H74.7096V14H74.7285V13ZM74.7473 13H74.7285V14H74.7473V13ZM74.7662 13H74.7473V14H74.7662V13ZM74.7851 13H74.7662V14H74.7851V13ZM74.804 13H74.7851V14H74.804V13ZM74.823 13H74.804V14H74.823V13ZM74.842 13H74.823V14H74.842V13ZM74.8609 13H74.842V14H74.8609V13ZM74.8799 13H74.8609V14H74.8799V13ZM74.899 13H74.8799V14H74.899V13ZM74.918 13H74.899V14H74.918V13ZM74.9371 13H74.918V14H74.9371V13ZM74.9562 13H74.9371V14H74.9562V13ZM74.9753 13H74.9562V14H74.9753V13ZM74.9944 13H74.9753V14H74.9944V13ZM75.0135 13H74.9944V14H75.0135V13ZM75.0327 13H75.0135V14H75.0327V13ZM75.0519 13H75.0327V14H75.0519V13ZM75.0711 13H75.0519V14H75.0711V13ZM75.0903 13H75.0711V14H75.0903V13ZM75.1095 13H75.0903V14H75.1095V13ZM75.1288 13H75.1095V14H75.1288V13ZM75.148 13H75.1288V14H75.148V13ZM75.1673 13H75.148V14H75.1673V13ZM75.1867 13H75.1673V14H75.1867V13ZM75.206 13H75.1867V14H75.206V13ZM75.2254 13H75.206V14H75.2254V13ZM75.2447 13H75.2254V14H75.2447V13ZM75.2641 13H75.2447V14H75.2641V13ZM75.2835 13H75.2641V14H75.2835V13ZM75.303 13H75.2835V14H75.303V13ZM75.3224 13H75.303V14H75.3224V13ZM75.3419 13H75.3224V14H75.3419V13ZM75.3614 13H75.3419V14H75.3614V13ZM75.3809 13H75.3614V14H75.3809V13ZM75.4004 13H75.3809V14H75.4004V13ZM75.42 13H75.4004V14H75.42V13ZM75.4396 13H75.42V14H75.4396V13ZM75.4592 13H75.4396V14H75.4592V13ZM75.4788 13H75.4592V14H75.4788V13ZM75.4984 13H75.4788V14H75.4984V13ZM75.518 13H75.4984V14H75.518V13ZM75.5377 13H75.518V14H75.5377V13ZM75.5574 13H75.5377V14H75.5574V13ZM75.5771 13H75.5574V14H75.5771V13ZM75.5968 13H75.5771V14H75.5968V13ZM75.6166 13H75.5968V14H75.6166V13ZM75.6363 13H75.6166V14H75.6363V13ZM75.6561 13H75.6363V14H75.6561V13ZM75.6759 13H75.6561V14H75.6759V13ZM75.6958 13H75.6759V14H75.6958V13ZM75.7156 13H75.6958V14H75.7156V13ZM75.7355 13H75.7156V14H75.7355V13ZM75.7554 13H75.7355V14H75.7554V13ZM75.7753 13H75.7554V14H75.7753V13ZM75.7952 13H75.7753V14H75.7952V13ZM75.8151 13H75.7952V14H75.8151V13ZM75.8351 13H75.8151V14H75.8351V13ZM75.8551 13H75.8351V14H75.8551V13ZM75.8751 13H75.8551V14H75.8751V13ZM75.8951 13H75.8751V14H75.8951V13ZM75.9151 13H75.8951V14H75.9151V13ZM80.5362 17.6211C80.5362 15.0689 78.4673 13 75.9151 13V14C77.915 14 79.5362 15.6212 79.5362 17.6211H80.5362ZM80.5362 58.3579V17.6211H79.5362V58.3579H80.5362ZM75.9151 62.9789C78.4673 62.9789 80.5362 60.91 80.5362 58.3579H79.5362C79.5362 60.3577 77.915 61.9789 75.9151 61.9789V62.9789ZM75.64 62.9789H75.9151V61.9789H75.64V62.9789ZM74.64 61.9789C74.64 62.5312 75.0877 62.9789 75.64 62.9789V61.9789H74.64ZM75.64 60.9789C75.0877 60.9789 74.64 61.4267 74.64 61.9789H75.64V60.9789ZM75.9151 60.9789H75.64V61.9789H75.9151V60.9789ZM78.5362 58.3579C78.5362 59.8055 77.3627 60.9789 75.9151 60.9789V61.9789C77.915 61.9789 79.5362 60.3577 79.5362 58.3579H78.5362ZM78.5362 17.6211V58.3579H79.5362V17.6211H78.5362ZM75.9151 15C77.3627 15 78.5362 16.1735 78.5362 17.6211H79.5362C79.5362 15.6212 77.915 14 75.9151 14V15ZM75.8951 15H75.9151V14H75.8951V15ZM75.8751 15H75.8951V14H75.8751V15ZM75.8551 15H75.8751V14H75.8551V15ZM75.8351 15H75.8551V14H75.8351V15ZM75.8151 15H75.8351V14H75.8151V15ZM75.7952 15H75.8151V14H75.7952V15ZM75.7753 15H75.7952V14H75.7753V15ZM75.7554 15H75.7753V14H75.7554V15ZM75.7355 15H75.7554V14H75.7355V15ZM75.7156 15H75.7355V14H75.7156V15ZM75.6958 15H75.7156V14H75.6958V15ZM75.6759 15H75.6958V14H75.6759V15ZM75.6561 15H75.6759V14H75.6561V15ZM75.6363 15H75.6561V14H75.6363V15ZM75.6166 15H75.6363V14H75.6166V15ZM75.5968 15H75.6166V14H75.5968V15ZM75.5771 15H75.5968V14H75.5771V15ZM75.5574 15H75.5771V14H75.5574V15ZM75.5377 15H75.5574V14H75.5377V15ZM75.518 15H75.5377V14H75.518V15ZM75.4984 15H75.518V14H75.4984V15ZM75.4788 15H75.4984V14H75.4788V15ZM75.4592 15H75.4788V14H75.4592V15ZM75.4396 15H75.4592V14H75.4396V15ZM75.42 15H75.4396V14H75.42V15ZM75.4004 15H75.42V14H75.4004V15ZM75.3809 15H75.4004V14H75.3809V15ZM75.3614 15H75.3809V14H75.3614V15ZM75.3419 15H75.3614V14H75.3419V15ZM75.3224 15H75.3419V14H75.3224V15ZM75.303 15H75.3224V14H75.303V15ZM75.2835 15H75.303V14H75.2835V15ZM75.2641 15H75.2835V14H75.2641V15ZM75.2447 15H75.2641V14H75.2447V15ZM75.2254 15H75.2447V14H75.2254V15ZM75.206 15H75.2254V14H75.206V15ZM75.1867 15H75.206V14H75.1867V15ZM75.1673 15H75.1867V14H75.1673V15ZM75.148 15H75.1673V14H75.148V15ZM75.1288 15H75.148V14H75.1288V15ZM75.1095 15H75.1288V14H75.1095V15ZM75.0903 15H75.1095V14H75.0903V15ZM75.0711 15H75.0903V14H75.0711V15ZM75.0519 15H75.0711V14H75.0519V15ZM75.0327 15H75.0519V14H75.0327V15ZM75.0135 15H75.0327V14H75.0135V15ZM74.9944 15H75.0135V14H74.9944V15ZM74.9753 15H74.9944V14H74.9753V15ZM74.9562 15H74.9753V14H74.9562V15ZM74.9371 15H74.9562V14H74.9371V15ZM74.918 15H74.9371V14H74.918V15ZM74.899 15H74.918V14H74.899V15ZM74.8799 15H74.899V14H74.8799V15ZM74.8609 15H74.8799V14H74.8609V15ZM74.842 15H74.8609V14H74.842V15ZM74.823 15H74.842V14H74.823V15ZM74.804 15H74.823V14H74.804V15ZM74.7851 15H74.804V14H74.7851V15ZM74.7662 15H74.7851V14H74.7662V15ZM74.7473 15H74.7662V14H74.7473V15ZM74.7285 15H74.7473V14H74.7285V15ZM74.7096 15H74.7285V14H74.7096V15ZM74.6908 15H74.7096V14H74.6908V15ZM74.672 15H74.6908V14H74.672V15ZM74.6532 15H74.672V14H74.6532V15ZM74.6344 15H74.6532V14H74.6344V15ZM74.6157 15H74.6344V14H74.6157V15ZM74.5969 15H74.6157V14H74.5969V15ZM74.5782 15H74.5969V14H74.5782V15ZM74.5595 15H74.5782V14H74.5595V15ZM74.5409 15H74.5595V14H74.5409V15ZM74.5222 15H74.5409V14H74.5222V15ZM74.5036 15H74.5222V14H74.5036V15ZM74.485 15H74.5036V14H74.485V15ZM74.4664 15H74.485V14H74.4664V15ZM74.4478 15H74.4664V14H74.4478V15ZM74.4293 15H74.4478V14H74.4293V15ZM74.4107 15H74.4293V14H74.4107V15ZM74.3922 15H74.4107V14H74.3922V15ZM74.3737 15H74.3922V14H74.3737V15ZM74.3552 15H74.3737V14H74.3552V15ZM74.3368 15H74.3552V14H74.3368V15ZM74.3184 15H74.3368V14H74.3184V15ZM74.2999 15H74.3184V14H74.2999V15ZM74.2815 15H74.2999V14H74.2815V15ZM74.2632 15H74.2815V14H74.2632V15ZM74.2448 15H74.2632V14H74.2448V15ZM74.2265 15H74.2448V14H74.2265V15ZM74.2082 15H74.2265V14H74.2082V15ZM74.1899 15H74.2082V14H74.1899V15ZM74.1716 15H74.1899V14H74.1716V15ZM74.1533 15H74.1716V14H74.1533V15ZM74.1351 15H74.1533V14H74.1351V15ZM74.1169 15H74.1351V14H74.1169V15ZM74.0987 15H74.1169V14H74.0987V15ZM74.0805 15H74.0987V14H74.0805V15ZM74.0623 15H74.0805V14H74.0623V15ZM74.0442 15H74.0623V14H74.0442V15ZM74.026 15H74.0442V14H74.026V15ZM74.0079 15H74.026V14H74.0079V15ZM73.9899 15H74.0079V14H73.9899V15ZM73.9718 15H73.9899V14H73.9718V15ZM73.9538 15H73.9718V14H73.9538V15ZM73.9357 15H73.9538V14H73.9357V15ZM73.9177 15H73.9357V14H73.9177V15ZM73.8997 15H73.9177V14H73.8997V15ZM73.8818 15H73.8997V14H73.8818V15ZM73.8638 15H73.8818V14H73.8638V15ZM73.8459 15H73.8638V14H73.8459V15ZM73.828 15H73.8459V14H73.828V15ZM73.8101 15H73.828V14H73.8101V15ZM73.7922 15H73.8101V14H73.7922V15ZM73.7744 15H73.7922V14H73.7744V15ZM73.7566 15H73.7744V14H73.7566V15ZM73.7388 15H73.7566V14H73.7388V15ZM73.721 15H73.7388V14H73.721V15ZM73.7032 15H73.721V14H73.7032V15ZM73.6854 15H73.7032V14H73.6854V15ZM73.6677 15H73.6854V14H73.6677V15ZM73.65 15H73.6677V14H73.65V15ZM73.6323 15H73.65V14H73.6323V15ZM73.6146 15H73.6323V14H73.6146V15ZM73.597 15H73.6146V14H73.597V15ZM73.5794 15H73.597V14H73.5794V15ZM73.5617 15H73.5794V14H73.5617V15ZM73.5441 15H73.5617V14H73.5441V15ZM73.5266 15H73.5441V14H73.5266V15ZM73.509 15H73.5266V14H73.509V15ZM73.4915 15H73.509V14H73.4915V15ZM73.474 15H73.4915V14H73.474V15ZM73.4565 15H73.474V14H73.4565V15ZM73.439 15H73.4565V14H73.439V15ZM73.4215 15H73.439V14H73.4215V15ZM73.4041 15H73.4215V14H73.4041V15ZM73.3867 15H73.4041V14H73.3867V15ZM73.3693 15H73.3867V14H73.3693V15ZM73.3519 15H73.3693V14H73.3519V15ZM73.3346 15H73.3519V14H73.3346V15ZM73.3172 15H73.3346V14H73.3172V15ZM73.2999 15H73.3172V14H73.2999V15ZM73.2826 15H73.2999V14H73.2826V15ZM73.2653 15H73.2826V14H73.2653V15ZM73.2481 15H73.2653V14H73.2481V15ZM73.2308 15H73.2481V14H73.2308V15ZM73.2136 15H73.2308V14H73.2136V15ZM73.1964 15H73.2136V14H73.1964V15ZM73.1792 15H73.1964V14H73.1792V15ZM73.162 15H73.1792V14H73.162V15ZM73.1449 15H73.162V14H73.1449V15ZM73.1278 15H73.1449V14H73.1278V15ZM73.1107 15H73.1278V14H73.1107V15ZM73.0936 15H73.1107V14H73.0936V15ZM73.0765 15H73.0936V14H73.0765V15ZM73.0595 15H73.0765V14H73.0595V15ZM73.0425 15H73.0595V14H73.0425V15ZM73.0254 15H73.0425V14H73.0254V15ZM73.0085 15H73.0254V14H73.0085V15ZM72.9915 15H73.0085V14H72.9915V15ZM72.9745 15H72.9915V14H72.9745V15ZM72.9576 15H72.9745V14H72.9576V15ZM72.9407 15H72.9576V14H72.9407V15ZM72.9238 15H72.9407V14H72.9238V15ZM72.907 15H72.9238V14H72.907V15ZM72.8901 15H72.907V14H72.8901V15ZM72.8733 15H72.8901V14H72.8733V15ZM72.8565 15H72.8733V14H72.8565V15ZM72.8397 15H72.8565V14H72.8397V15ZM72.8229 15H72.8397V14H72.8229V15ZM72.8061 15H72.8229V14H72.8061V15ZM72.7894 15H72.8061V14H72.7894V15ZM72.7727 15H72.7894V14H72.7727V15ZM72.756 15H72.7727V14H72.756V15ZM72.7393 15H72.756V14H72.7393V15ZM72.7227 15H72.7393V14H72.7227V15ZM72.706 15H72.7227V14H72.706V15ZM72.6894 15H72.706V14H72.6894V15ZM72.6728 15H72.6894V14H72.6728V15ZM72.6563 15H72.6728V14H72.6563V15ZM72.6397 15H72.6563V14H72.6397V15ZM72.6232 15H72.6397V14H72.6232V15ZM72.6067 15H72.6232V14H72.6067V15ZM72.5902 15H72.6067V14H72.5902V15ZM72.5737 15H72.5902V14H72.5737V15ZM72.5572 15H72.5737V14H72.5572V15ZM72.5408 15H72.5572V14H72.5408V15ZM72.5244 15H72.5408V14H72.5244V15ZM72.508 15H72.5244V14H72.508V15ZM72.4916 15H72.508V14H72.4916V15ZM72.4752 15H72.4916V14H72.4752V15ZM72.4589 15H72.4752V14H72.4589V15ZM72.4426 15H72.4589V14H72.4426V15ZM72.4263 15H72.4426V14H72.4263V15ZM72.41 15H72.4263V14H72.41V15ZM72.3937 15H72.41V14H72.3937V15ZM72.3775 15H72.3937V14H72.3775V15ZM72.3613 15H72.3775V14H72.3613V15ZM72.3451 15H72.3613V14H72.3451V15ZM72.3289 15H72.3451V14H72.3289V15ZM72.3127 15H72.3289V14H72.3127V15ZM72.2966 15H72.3127V14H72.2966V15ZM72.2804 15H72.2966V14H72.2804V15ZM72.2643 15H72.2804V14H72.2643V15ZM72.2482 15H72.2643V14H72.2482V15ZM72.2322 15H72.2482V14H72.2322V15ZM72.2161 15H72.2322V14H72.2161V15ZM72.2001 15H72.2161V14H72.2001V15ZM72.1841 15H72.2001V14H72.1841V15ZM72.1681 15H72.1841V14H72.1681V15ZM72.1521 15H72.1681V14H72.1521V15ZM72.1362 15H72.1521V14H72.1362V15ZM72.1203 15H72.1362V14H72.1203V15ZM72.1044 15H72.1203V14H72.1044V15ZM72.0885 15H72.1044V14H72.0885V15ZM72.0726 15H72.0885V14H72.0726V15ZM72.0567 15H72.0726V14H72.0567V15ZM72.0409 15H72.0567V14H72.0409V15ZM72.0251 15H72.0409V14H72.0251V15ZM72.0093 15H72.0251V14H72.0093V15ZM71.9935 15H72.0093V14H71.9935V15ZM71.9778 15H71.9935V14H71.9778V15ZM71.962 15H71.9778V14H71.962V15ZM71.9463 15H71.962V14H71.9463V15ZM71.9306 15H71.9463V14H71.9306V15ZM71.915 15H71.9306V14H71.915V15ZM71.8993 15H71.915V14H71.8993V15ZM71.8837 15H71.8993V14H71.8837V15ZM71.8681 15H71.8837V14H71.8681V15ZM71.8525 15H71.8681V14H71.8525V15ZM71.8369 15H71.8525V14H71.8369V15ZM71.8213 15H71.8369V14H71.8213V15ZM71.8058 15H71.8213V14H71.8058V15ZM71.7903 15H71.8058V14H71.7903V15ZM71.7748 15H71.7903V14H71.7748V15ZM71.7593 15H71.7748V14H71.7593V15ZM71.7438 15H71.7593V14H71.7438V15ZM71.7284 15H71.7438V14H71.7284V15ZM71.713 15H71.7284V14H71.713V15ZM71.6976 15H71.713V14H71.6976V15ZM71.6822 15H71.6976V14H71.6822V15ZM71.6668 15H71.6822V14H71.6668V15ZM71.6515 15H71.6668V14H71.6515V15ZM71.6362 15H71.6515V14H71.6362V15ZM71.6209 15H71.6362V14H71.6209V15ZM71.6056 15H71.6209V14H71.6056V15ZM71.5903 15H71.6056V14H71.5903V15ZM71.5751 15H71.5903V14H71.5751V15ZM71.5598 15H71.5751V14H71.5598V15ZM71.5446 15H71.5598V14H71.5446V15ZM71.5295 15H71.5446V14H71.5295V15ZM71.5143 15H71.5295V14H71.5143V15ZM71.4991 15H71.5143V14H71.4991V15ZM71.484 15H71.4991V14H71.484V15ZM71.4689 15H71.484V14H71.4689V15ZM71.4538 15H71.4689V14H71.4538V15ZM71.4388 15H71.4538V14H71.4388V15ZM71.4237 15H71.4388V14H71.4237V15ZM71.4087 15H71.4237V14H71.4087V15ZM71.3937 15H71.4087V14H71.3937V15ZM71.3787 15H71.3937V14H71.3787V15ZM71.3637 15H71.3787V14H71.3637V15ZM71.3488 15H71.3637V14H71.3488V15ZM71.3338 15H71.3488V14H71.3338V15ZM71.3189 15H71.3338V14H71.3189V15ZM71.304 15H71.3189V14H71.304V15ZM71.2892 15H71.304V14H71.2892V15ZM71.2743 15H71.2892V14H71.2743V15ZM71.2595 15H71.2743V14H71.2595V15ZM71.2447 15H71.2595V14H71.2447V15ZM71.2299 15H71.2447V14H71.2299V15ZM71.2151 15H71.2299V14H71.2151V15ZM71.2003 15H71.2151V14H71.2003V15ZM71.1856 15H71.2003V14H71.1856V15ZM71.1709 15H71.1856V14H71.1709V15ZM71.1562 15H71.1709V14H71.1562V15ZM71.1415 15H71.1562V14H71.1415V15ZM71.1269 15H71.1415V14H71.1269V15ZM71.1122 15H71.1269V14H71.1122V15ZM71.0976 15H71.1122V14H71.0976V15ZM71.083 15H71.0976V14H71.083V15ZM71.0684 15H71.083V14H71.0684V15ZM71.0539 15H71.0684V14H71.0539V15ZM71.0393 15H71.0539V14H71.0393V15ZM71.0248 15H71.0393V14H71.0248V15ZM71.0103 15H71.0248V14H71.0103V15ZM70.9958 15H71.0103V14H70.9958V15ZM70.9814 15H70.9958V14H70.9814V15ZM70.9669 15H70.9814V14H70.9669V15ZM70.9525 15H70.9669V14H70.9525V15ZM70.9381 15H70.9525V14H70.9381V15ZM70.9237 15H70.9381V14H70.9237V15ZM70.9094 15H70.9237V14H70.9094V15ZM70.895 15H70.9094V14H70.895V15ZM70.8807 15H70.895V14H70.8807V15ZM70.8664 15H70.8807V14H70.8664V15ZM70.8521 15H70.8664V14H70.8521V15ZM70.8378 15H70.8521V14H70.8378V15ZM70.8236 15H70.8378V14H70.8236V15ZM70.8094 15H70.8236V14H70.8094V15ZM70.7952 15H70.8094V14H70.7952V15ZM70.781 15H70.7952V14H70.781V15ZM70.7668 15H70.781V14H70.7668V15ZM70.7527 15H70.7668V14H70.7527V15ZM70.7385 15H70.7527V14H70.7385V15ZM70.7244 15H70.7385V14H70.7244V15ZM70.7103 15H70.7244V14H70.7103V15ZM70.6963 15H70.7103V14H70.6963V15ZM70.6822 15H70.6963V14H70.6822V15ZM70.6682 15H70.6822V14H70.6682V15ZM70.6542 15H70.6682V14H70.6542V15ZM70.6402 15H70.6542V14H70.6402V15ZM70.6262 15H70.6402V14H70.6262V15ZM70.6123 15H70.6262V14H70.6123V15ZM70.5983 15H70.6123V14H70.5983V15ZM70.5844 15H70.5983V14H70.5844V15ZM70.5705 15H70.5844V14H70.5705V15ZM70.5567 15H70.5705V14H70.5567V15ZM70.5428 15H70.5567V14H70.5428V15ZM70.529 15H70.5428V14H70.529V15ZM70.5152 15H70.529V14H70.5152V15ZM70.5014 15H70.5152V14H70.5014V15ZM70.4876 15H70.5014V14H70.4876V15ZM70.4738 15H70.4876V14H70.4738V15ZM70.4601 15H70.4738V14H70.4601V15ZM70.4464 15H70.4601V14H70.4464V15ZM70.4327 15H70.4464V14H70.4327V15ZM70.419 15H70.4327V14H70.419V15ZM70.4053 15H70.419V14H70.4053V15ZM70.3917 15H70.4053V14H70.3917V15ZM70.3781 15H70.3917V14H70.3781V15ZM70.3645 15H70.3781V14H70.3645V15ZM70.3509 15H70.3645V14H70.3509V15ZM70.3374 15H70.3509V14H70.3374V15ZM70.3238 15H70.3374V14H70.3238V15ZM70.3103 15H70.3238V14H70.3103V15ZM70.2968 15H70.3103V14H70.2968V15ZM70.2833 15H70.2968V14H70.2833V15ZM70.2698 15H70.2833V14H70.2698V15ZM70.2564 15H70.2698V14H70.2564V15ZM70.243 15H70.2564V14H70.243V15ZM70.2296 15H70.243V14H70.2296V15ZM70.2162 15H70.2296V14H70.2162V15ZM70.2028 15H70.2162V14H70.2028V15ZM70.1895 15H70.2028V14H70.1895V15ZM70.1762 15H70.1895V14H70.1762V15ZM70.1629 15H70.1762V14H70.1629V15ZM70.1496 15H70.1629V14H70.1496V15ZM70.1363 15H70.1496V14H70.1363V15ZM70.1231 15H70.1363V14H70.1231V15ZM70.1098 15H70.1231V14H70.1098V15ZM70.0966 15H70.1098V14H70.0966V15ZM70.0834 15H70.0966V14H70.0834V15ZM70.0703 15H70.0834V14H70.0703V15ZM70.0571 15H70.0703V14H70.0571V15ZM70.044 15H70.0571V14H70.044V15ZM70.0309 15H70.044V14H70.0309V15ZM70.0178 15H70.0309V14H70.0178V15ZM70.0047 15H70.0178V14H70.0047V15ZM69.9917 15H70.0047V14H69.9917V15ZM69.9786 15H69.9917V14H69.9786V15ZM69.9656 15H69.9786V14H69.9656V15ZM69.9526 15H69.9656V14H69.9526V15ZM69.9397 15H69.9526V14H69.9397V15ZM69.9267 15H69.9397V14H69.9267V15ZM69.9138 15H69.9267V14H69.9138V15ZM69.9009 15H69.9138V14H69.9009V15ZM69.888 15H69.9009V14H69.888V15ZM69.8751 15H69.888V14H69.8751V15ZM69.8622 15H69.8751V14H69.8622V15ZM69.8494 15H69.8622V14H69.8494V15ZM69.8366 15H69.8494V14H69.8366V15ZM69.8238 15H69.8366V14H69.8238V15ZM69.811 15H69.8238V14H69.811V15ZM69.7983 15H69.811V14H69.7983V15ZM69.7855 15H69.7983V14H69.7855V15ZM69.7728 15H69.7855V14H69.7728V15ZM69.7601 15H69.7728V14H69.7601V15ZM69.7474 15H69.7601V14H69.7474V15ZM69.7348 15H69.7474V14H69.7348V15ZM69.7221 15H69.7348V14H69.7221V15ZM69.7095 15H69.7221V14H69.7095V15ZM69.6969 15H69.7095V14H69.6969V15ZM69.6843 15H69.6969V14H69.6843V15ZM69.6718 15H69.6843V14H69.6718V15ZM69.6592 15H69.6718V14H69.6592V15ZM69.6467 15H69.6592V14H69.6467V15ZM69.6342 15H69.6467V14H69.6342V15ZM69.6217 15H69.6342V14H69.6217V15ZM69.6092 15H69.6217V14H69.6092V15ZM69.5968 15H69.6092V14H69.5968V15ZM69.5844 15H69.5968V14H69.5844V15ZM69.572 15H69.5844V14H69.572V15ZM69.5596 15H69.572V14H69.5596V15ZM69.5472 15H69.5596V14H69.5472V15ZM69.5349 15H69.5472V14H69.5349V15ZM69.5226 15H69.5349V14H69.5226V15ZM69.5102 15H69.5226V14H69.5102V15ZM69.498 15H69.5102V14H69.498V15ZM69.4857 15H69.498V14H69.4857V15ZM69.4734 15H69.4857V14H69.4734V15ZM69.4612 15H69.4734V14H69.4612V15ZM69.449 15H69.4612V14H69.449V15ZM69.4368 15H69.449V14H69.4368V15ZM69.4246 15H69.4368V14H69.4246V15ZM69.4125 15H69.4246V14H69.4125V15ZM69.4004 15H69.4125V14H69.4004V15ZM69.3883 15H69.4004V14H69.3883V15ZM69.3762 15H69.3883V14H69.3762V15ZM69.3641 15H69.3762V14H69.3641V15ZM69.352 15H69.3641V14H69.352V15ZM69.34 15H69.352V14H69.34V15ZM69.328 15H69.34V14H69.328V15ZM69.316 15H69.328V14H69.316V15ZM69.304 15H69.316V14H69.304V15ZM69.2921 15H69.304V14H69.2921V15ZM69.2801 15H69.2921V14H69.2801V15ZM69.2682 15H69.2801V14H69.2682V15ZM69.2563 15H69.2682V14H69.2563V15ZM69.2445 15H69.2563V14H69.2445V15ZM69.2326 15H69.2445V14H69.2326V15ZM69.2208 15H69.2326V14H69.2208V15ZM69.2089 15H69.2208V14H69.2089V15ZM69.1971 15H69.2089V14H69.1971V15ZM69.1854 15H69.1971V14H69.1854V15ZM69.1736 15H69.1854V14H69.1736V15ZM69.1619 15H69.1736V14H69.1619V15ZM69.1502 15H69.1619V14H69.1502V15ZM69.1385 15H69.1502V14H69.1385V15ZM69.1268 15H69.1385V14H69.1268V15ZM69.1151 15H69.1268V14H69.1151V15ZM69.1035 15H69.1151V14H69.1035V15ZM69.0918 15H69.1035V14H69.0918V15ZM69.0802 15H69.0918V14H69.0802V15ZM69.0687 15H69.0802V14H69.0687V15ZM69.0571 15H69.0687V14H69.0571V15ZM69.0456 15H69.0571V14H69.0456V15ZM69.034 15H69.0456V14H69.034V15ZM69.0225 15H69.034V14H69.0225V15ZM69.011 15H69.0225V14H69.011V15ZM68.9996 15H69.011V14H68.9996V15ZM68.9881 15H68.9996V14H68.9881V15ZM68.9767 15H68.9881V14H68.9767V15ZM68.9653 15H68.9767V14H68.9653V15ZM68.9539 15H68.9653V14H68.9539V15ZM68.9426 15H68.9539V14H68.9426V15ZM68.9312 15H68.9426V14H68.9312V15ZM68.9199 15H68.9312V14H68.9199V15ZM68.9086 15H68.9199V14H68.9086V15ZM68.8973 15H68.9086V14H68.8973V15ZM68.886 15H68.8973V14H68.886V15ZM68.8748 15H68.886V14H68.8748V15ZM68.8635 15H68.8748V14H68.8635V15ZM68.8523 15H68.8635V14H68.8523V15ZM68.8411 15H68.8523V14H68.8411V15ZM68.83 15H68.8411V14H68.83V15ZM68.8188 15H68.83V14H68.8188V15ZM68.8077 15H68.8188V14H68.8077V15ZM68.7966 15H68.8077V14H68.7966V15ZM68.7855 15H68.7966V14H68.7855V15ZM68.7744 15H68.7855V14H68.7744V15ZM68.7633 15H68.7744V14H68.7633V15ZM68.7523 15H68.7633V14H68.7523V15ZM68.7413 15H68.7523V14H68.7413V15ZM68.7303 15H68.7413V14H68.7303V15ZM68.7193 15H68.7303V14H68.7193V15ZM68.7084 15H68.7193V14H68.7084V15ZM68.6974 15H68.7084V14H68.6974V15ZM68.6865 15H68.6974V14H68.6865V15ZM68.6756 15H68.6865V14H68.6756V15ZM68.6647 15H68.6756V14H68.6647V15ZM68.6539 15H68.6647V14H68.6539V15ZM68.643 15H68.6539V14H68.643V15ZM68.6322 15H68.643V14H68.6322V15ZM68.6214 15H68.6322V14H68.6214V15ZM68.6107 15H68.6214V14H68.6107V15ZM68.5999 15H68.6107V14H68.5999V15ZM68.5892 15H68.5999V14H68.5892V15ZM68.5784 15H68.5892V14H68.5784V15ZM68.5677 15H68.5784V14H68.5677V15ZM68.557 15H68.5677V14H68.557V15ZM68.5464 15H68.557V14H68.5464V15ZM68.5357 15H68.5464V14H68.5357V15ZM68.5251 15H68.5357V14H68.5251V15ZM68.5145 15H68.5251V14H68.5145V15ZM68.5039 15H68.5145V14H68.5039V15ZM68.4934 15H68.5039V14H68.4934V15ZM68.4828 15H68.4934V14H68.4828V15ZM68.4723 15H68.4828V14H68.4723V15ZM68.4618 15H68.4723V14H68.4618V15ZM68.4513 15H68.4618V14H68.4513V15ZM68.4408 15H68.4513V14H68.4408V15ZM68.4304 15H68.4408V14H68.4304V15ZM68.42 15H68.4304V14H68.42V15ZM68.4096 15H68.42V14H68.4096V15ZM68.3992 15H68.4096V14H68.3992V15ZM68.3888 15H68.3992V14H68.3888V15ZM68.3785 15H68.3888V14H68.3785V15ZM68.3681 15H68.3785V14H68.3681V15ZM68.3578 15H68.3681V14H68.3578V15ZM68.3475 15H68.3578V14H68.3475V15ZM68.3373 15H68.3475V14H68.3373V15ZM68.327 15H68.3373V14H68.327V15ZM68.3168 15H68.327V14H68.3168V15ZM68.3066 15H68.3168V14H68.3066V15ZM68.2964 15H68.3066V14H68.2964V15ZM68.2862 15H68.2964V14H68.2862V15ZM68.2761 15H68.2862V14H68.2761V15ZM68.2659 15H68.2761V14H68.2659V15ZM68.2558 15H68.2659V14H68.2558V15ZM68.2457 15H68.2558V14H68.2457V15ZM68.2356 15H68.2457V14H68.2356V15ZM68.2256 15H68.2356V14H68.2256V15ZM68.2155 15H68.2256V14H68.2155V15ZM67.2155 14C67.2155 14.5523 67.6633 15 68.2155 15V14H67.2155Z" fill="#3F3F3F"/>
<path d="M76.2657 62.002H86.7525V62.7046C86.7525 62.7046 84.2794 64.1851 75.966 64.1851C67.6526 64.1851 43.5474 64.1851 43.5474 64.1851" stroke="#3F3F3F" stroke-linecap="round" stroke-linejoin="round"/>
<path d="M11.9853 62.002H1V62.7046C2.64874 63.6916 6.24424 64.1851 11.7865 64.1851C17.3288 64.1851 28.135 64.1851 44.2051 64.1851" stroke="#3F3F3F" stroke-linecap="round" stroke-linejoin="round"/>
<path d="M68.2783 17.5103H76.9082V59.1524H10.6531V17.5103V17.5103H49.9628" stroke="#3F3F3F" stroke-linecap="round" stroke-linejoin="round"/>
<path fill-rule="evenodd" clip-rule="evenodd" d="M50 3.89569C50 2.21337 51.4221 1 52.8603 1C54.2985 1 63.8843 1 65.2947 1C66.7052 1 68.2222 2.29498 68.2222 3.89569C68.2222 5.49639 68.2222 28.8643 68.2222 30.5416C68.2222 32.2188 66.5831 33 65.5491 33C64.515 33 54.0107 33 52.6861 33C51.3616 33 50 31.7464 50 30.3268C50 28.9072 50 5.578 50 3.89569Z" stroke="#3F3F3F" stroke-linecap="round" stroke-linejoin="round"/>
<path d="M50 8.00011C50 6.57995 50.9777 5.55566 52.4159 5.55566C53.8541 5.55566 64.3288 5.55566 65.7392 5.55566C67.1496 5.55566 68.2222 6.64884 68.2222 8.00011" stroke="#3F3F3F" stroke-linecap="round" stroke-linejoin="round"/>
<path d="M68.2546 22.6341L63.2748 17.6543L49.9874 30.9402" stroke="#3F3F3F" stroke-linecap="round" stroke-linejoin="round"/>
<path d="M57.5955 23.3315L54.1638 19.8999L50.0655 23.9982" stroke="#3F3F3F" stroke-linecap="round" stroke-linejoin="round"/>
<path d="M73.9292 59.0357L51.6949 36.541L29.4606 59.0357" stroke="#3F3F3F" stroke-linecap="round" stroke-linejoin="round"/>
<path d="M40.6042 47.7955L32.7638 39.8633L13.799 59.0501" stroke="#3F3F3F" stroke-linecap="round" stroke-linejoin="round"/>
<circle cx="29.5" cy="29.5" r="4.5" stroke="#3F3F3F" stroke-linecap="round" stroke-linejoin="round"/>
<circle cx="58" cy="13" r="2.25" transform="rotate(-90 58 13)" fill="#C2C2C2"/>
<circle cx="58" cy="13" r="2.25" transform="rotate(-90 58 13)" stroke="#151515" stroke-width="1.5"/>
<circle cx="58" cy="13" r="2.25" transform="rotate(-90 58 13)" stroke="#151515" stroke-width="1.5"/>
<circle cx="64" cy="49" r="2.25" transform="rotate(-90 64 49)" fill="#C2C2C2"/>
<circle cx="64" cy="49" r="2.25" transform="rotate(-90 64 49)" stroke="#151515" stroke-width="1.5"/>
<circle cx="64" cy="49" r="2.25" transform="rotate(-90 64 49)" stroke="#151515" stroke-width="1.5"/>
<circle cx="24" cy="49" r="2.25" transform="rotate(-90 24 49)" fill="#C2C2C2"/>
<circle cx="24" cy="49" r="2.25" transform="rotate(-90 24 49)" stroke="#151515" stroke-width="1.5"/>
<circle cx="24" cy="49" r="2.25" transform="rotate(-90 24 49)" stroke="#151515" stroke-width="1.5"/>
<circle cx="29.5" cy="29.5" r="2.25" transform="rotate(-90 29.5 29.5)" fill="#C2C2C2"/>
<circle cx="29.5" cy="29.5" r="2.25" transform="rotate(-90 29.5 29.5)" stroke="#151515" stroke-width="1.5"/>
<circle cx="29.5" cy="29.5" r="2.25" transform="rotate(-90 29.5 29.5)" stroke="#151515" stroke-width="1.5"/>
</svg>
