<svg width="95" height="47" viewBox="0 0 95 47" fill="none" xmlns="http://www.w3.org/2000/svg">
<circle cx="15.5" cy="28.2998" r="2.25" transform="rotate(-90 15.5 28.2998)" fill="#C2C2C2"/>
<circle cx="15.5" cy="28.2998" r="2.25" transform="rotate(-90 15.5 28.2998)" stroke="#151515" stroke-width="1.5"/>
<circle cx="15.5" cy="28.2998" r="2.25" transform="rotate(-90 15.5 28.2998)" stroke="#151515" stroke-width="1.5"/>
<circle cx="6.29999" cy="28.2998" r="2.25" transform="rotate(-90 6.29999 28.2998)" fill="#C2C2C2"/>
<circle cx="6.29999" cy="28.2998" r="2.25" transform="rotate(-90 6.29999 28.2998)" stroke="#151515" stroke-width="1.5"/>
<circle cx="6.29999" cy="28.2998" r="2.25" transform="rotate(-90 6.29999 28.2998)" stroke="#151515" stroke-width="1.5"/>
<circle cx="11" cy="23.6001" r="2.25" transform="rotate(-90 11 23.6001)" fill="#C2C2C2"/>
<circle cx="11" cy="23.6001" r="2.25" transform="rotate(-90 11 23.6001)" stroke="#151515" stroke-width="1.5"/>
<circle cx="11" cy="23.6001" r="2.25" transform="rotate(-90 11 23.6001)" stroke="#151515" stroke-width="1.5"/>
<circle cx="11" cy="33" r="2.25" transform="rotate(-90 11 33)" fill="#C2C2C2"/>
<circle cx="11" cy="33" r="2.25" transform="rotate(-90 11 33)" stroke="#151515" stroke-width="1.5"/>
<circle cx="11" cy="33" r="2.25" transform="rotate(-90 11 33)" stroke="#151515" stroke-width="1.5"/>
<circle cx="88.5" cy="14.2998" r="2.25" transform="rotate(-90 88.5 14.2998)" fill="#C2C2C2"/>
<circle cx="88.5" cy="14.2998" r="2.25" transform="rotate(-90 88.5 14.2998)" stroke="#151515" stroke-width="1.5"/>
<circle cx="88.5" cy="14.2998" r="2.25" transform="rotate(-90 88.5 14.2998)" stroke="#151515" stroke-width="1.5"/>
<circle cx="79.3" cy="14.2998" r="2.25" transform="rotate(-90 79.3 14.2998)" fill="#C2C2C2"/>
<circle cx="79.3" cy="14.2998" r="2.25" transform="rotate(-90 79.3 14.2998)" stroke="#151515" stroke-width="1.5"/>
<circle cx="79.3" cy="14.2998" r="2.25" transform="rotate(-90 79.3 14.2998)" stroke="#151515" stroke-width="1.5"/>
<circle cx="84" cy="9.6001" r="2.25" transform="rotate(-90 84 9.6001)" fill="#C2C2C2"/>
<circle cx="84" cy="9.6001" r="2.25" transform="rotate(-90 84 9.6001)" stroke="#151515" stroke-width="1.5"/>
<circle cx="84" cy="9.6001" r="2.25" transform="rotate(-90 84 9.6001)" stroke="#151515" stroke-width="1.5"/>
<circle cx="84" cy="19" r="2.25" transform="rotate(-90 84 19)" fill="#C2C2C2"/>
<circle cx="84" cy="19" r="2.25" transform="rotate(-90 84 19)" stroke="#151515" stroke-width="1.5"/>
<circle cx="84" cy="19" r="2.25" transform="rotate(-90 84 19)" stroke="#151515" stroke-width="1.5"/>
<rect x="1" y="1" width="93" height="45.1714" rx="7" stroke="#3F3F3F" stroke-linecap="round" stroke-linejoin="round"/>
<path d="M20.2643 1.66429V45.5071" stroke="#3F3F3F" stroke-linecap="round" stroke-linejoin="round"/>
<path d="M74.7357 1.66429V45.5071" stroke="#3F3F3F" stroke-linecap="round" stroke-linejoin="round"/>
<circle cx="10.9643" cy="12.2931" r="4.65" stroke="#3F3F3F" stroke-linecap="round" stroke-linejoin="round"/>
<circle cx="84.0357" cy="30.9073" r="4.65" stroke="#3F3F3F" stroke-linecap="round" stroke-linejoin="round"/>
</svg>
