<svg width="100" height="78" viewBox="0 0 100 78" fill="none" xmlns="http://www.w3.org/2000/svg">
<path d="M41.71 51.7446L44.6683 48.7863C47.402 46.0526 51.8341 46.0526 54.5678 48.7863L62.1176 56.3361C62.5081 56.7266 62.5081 57.3598 62.1176 57.7503L61.1885 58.6794C60.6709 59.197 60.8665 60.077 61.5547 60.3266L85.1788 68.8931C87.1349 69.6025 89.2015 68.1536 89.2015 66.0728V59.7908C89.2015 59.7908 89.4896 49.319 91.0173 42.419C92.545 35.519 95.5333 33.4776 95.811 21.853" stroke="#3F3F3F" stroke-linecap="round" stroke-linejoin="round"/>
<path d="M50.0387 33.7493C76.8897 33.7493 79.3957 35.3179 87.4876 35.3179C95.5796 35.3179 95.8521 24.2874 95.8521 20.0944C95.8521 15.9014 91.7305 5.89239 79.8491 4.5523C67.9677 3.2122 54.5905 2.89355 50.0387 2.89355" stroke="#3F3F3F" stroke-linecap="round" stroke-linejoin="round"/>
<path d="M41.7513 51.695L37.4 56.2746C37.0274 56.6667 37.0341 57.2841 37.4153 57.668L38.4199 58.6798C38.9345 59.1982 38.7378 60.0754 38.0511 60.3245L14.4212 68.8931C12.4651 69.6025 10.3985 68.1536 10.3985 66.0728V59.7908C10.3985 59.7908 10.1104 49.319 8.5827 42.419C7.05499 35.519 4.06869 33.4776 3.79099 21.853" stroke="#3F3F3F" stroke-linecap="round" stroke-linejoin="round"/>
<path d="M50.2264 33.7493C23.3754 33.7493 20.2043 35.3179 12.1124 35.3179C4.02041 35.3179 3.74792 24.2874 3.74792 20.0944C3.74792 15.9014 7.86946 5.89239 19.7509 4.5523C31.6323 3.2122 45.7585 2.89355 50.3104 2.89355" stroke="#3F3F3F" stroke-linecap="round" stroke-linejoin="round"/>
<path d="M95.8451 20.543L95.8301 19.8114C95.8194 19.2848 96.2433 18.8521 96.7701 18.8521V18.8521C97.2435 18.8521 97.6431 19.2041 97.7027 19.6738L98.3633 24.878C98.3633 24.878 99.1537 33.2637 96.956 48.9764C94.7583 64.6892 93.0336 75.6154 90.8336 76.6159C88.6335 77.6164 79.1637 75.9944 74.4284 74.8161C69.6932 73.6378 66.1682 62.0958 66.1682 62.0958" stroke="#3F3F3F" stroke-linecap="round" stroke-linejoin="round"/>
<path d="M3.75048 20.543L3.75543 19.8055C3.75896 19.28 3.33392 18.8521 2.80839 18.8521V18.8521C2.33144 18.8521 1.92891 19.2067 1.86886 19.6799L1.20907 24.878C1.20907 24.878 0.418668 33.2637 2.61639 48.9764C4.81411 64.6892 6.53872 75.6154 8.73882 76.6159C10.9389 77.6164 20.4087 75.9944 25.1439 74.8161C29.8792 73.6378 33.4041 62.0958 33.4041 62.0958" stroke="#3F3F3F" stroke-linecap="round" stroke-linejoin="round"/>
<circle cx="83.3" cy="35" r="2.25" transform="rotate(-90 83.3 35)" fill="#C2C2C2"/>
<circle cx="83.3" cy="35" r="2.25" transform="rotate(-90 83.3 35)" stroke="#151515" stroke-width="1.5"/>
<circle cx="83.3" cy="35" r="2.25" transform="rotate(-90 83.3 35)" stroke="#151515" stroke-width="1.5"/>
<circle cx="17.3" cy="35" r="2.25" transform="rotate(-90 17.3 35)" fill="#C2C2C2"/>
<circle cx="17.3" cy="35" r="2.25" transform="rotate(-90 17.3 35)" stroke="#151515" stroke-width="1.5"/>
<circle cx="17.3" cy="35" r="2.25" transform="rotate(-90 17.3 35)" stroke="#151515" stroke-width="1.5"/>
<circle cx="49.8" cy="3" r="2.25" transform="rotate(-90 49.8 3)" fill="#C2C2C2"/>
<circle cx="49.8" cy="3" r="2.25" transform="rotate(-90 49.8 3)" stroke="#151515" stroke-width="1.5"/>
<circle cx="49.8" cy="3" r="2.25" transform="rotate(-90 49.8 3)" stroke="#151515" stroke-width="1.5"/>
<circle cx="49.8" cy="47" r="2.25" transform="rotate(-90 49.8 47)" fill="#C2C2C2"/>
<circle cx="49.8" cy="47" r="2.25" transform="rotate(-90 49.8 47)" stroke="#151515" stroke-width="1.5"/>
<circle cx="49.8" cy="47" r="2.25" transform="rotate(-90 49.8 47)" stroke="#151515" stroke-width="1.5"/>
<circle cx="66.3" cy="62" r="2.25" transform="rotate(-90 66.3 62)" fill="#C2C2C2"/>
<circle cx="66.3" cy="62" r="2.25" transform="rotate(-90 66.3 62)" stroke="#151515" stroke-width="1.5"/>
<circle cx="66.3" cy="62" r="2.25" transform="rotate(-90 66.3 62)" stroke="#151515" stroke-width="1.5"/>
<circle cx="33.3" cy="62" r="2.25" transform="rotate(-90 33.3 62)" fill="#C2C2C2"/>
<circle cx="33.3" cy="62" r="2.25" transform="rotate(-90 33.3 62)" stroke="#151515" stroke-width="1.5"/>
<circle cx="33.3" cy="62" r="2.25" transform="rotate(-90 33.3 62)" stroke="#151515" stroke-width="1.5"/>
</svg>
