<svg width="100" height="76" viewBox="0 0 100 76" fill="none" xmlns="http://www.w3.org/2000/svg">
<path d="M41.71 49.8511L44.6683 46.8927C47.4019 44.1591 51.8341 44.1591 54.5678 46.8927L62.1176 54.4425C62.5081 54.8331 62.5081 55.4662 62.1176 55.8567L61.1885 56.7858C60.6709 57.3034 60.8665 58.1835 61.5547 58.433L85.1788 66.9996C87.1349 67.7089 89.2015 66.26 89.2015 64.1793V57.8972C89.2015 57.8972 89.4896 47.4255 91.0173 40.5255C92.545 33.6255 95.5333 31.5841 95.811 19.9595" stroke="black" stroke-linecap="round" stroke-linejoin="round"/>
<path d="M50.0387 31.8557C76.8897 31.8557 79.3957 33.4244 87.4877 33.4244C95.5796 33.4244 95.8521 22.3939 95.8521 18.2009C95.8521 14.0079 91.7306 3.99884 79.8491 2.65874C67.9677 1.31865 54.5906 1 50.0387 1" stroke="black" stroke-linecap="round" stroke-linejoin="round"/>
<path d="M41.7512 49.8014L37.3999 54.381C37.0273 54.7732 37.0341 55.3905 37.4152 55.7744L38.4198 56.7862C38.9345 57.3046 38.7378 58.1819 38.0511 58.4309L14.4212 66.9996C12.4651 67.7089 10.3985 66.26 10.3985 64.1793V57.8972C10.3985 57.8972 10.1104 47.4255 8.58266 40.5255C7.05496 33.6255 4.06866 31.5841 3.79096 19.9595" stroke="black" stroke-linecap="round" stroke-linejoin="round"/>
<path d="M50.2265 31.8557C23.3754 31.8557 20.2043 33.4244 12.1124 33.4244C4.02045 33.4244 3.74797 22.3939 3.74797 18.2009C3.74797 14.0079 7.8695 3.99884 19.7509 2.65874C31.6324 1.31865 45.7586 1 50.3104 1" stroke="black" stroke-linecap="round" stroke-linejoin="round"/>
<path d="M95.845 18.6495L95.8301 17.9178C95.8193 17.3912 96.2433 16.9585 96.7701 16.9585V16.9585C97.2435 16.9585 97.6431 17.3106 97.7027 17.7803L98.3633 22.9844C98.3633 22.9844 99.1537 31.3702 96.956 47.0829C94.7582 62.7956 93.0336 73.7219 90.8335 74.7223C88.6334 75.7228 79.1636 74.1009 74.4284 72.9226C69.6932 71.7443 66.1682 60.2023 66.1682 60.2023" stroke="black" stroke-linecap="round" stroke-linejoin="round"/>
<path d="M3.75053 18.6495L3.75548 17.9119C3.75901 17.3864 3.33397 16.9585 2.80843 16.9585V16.9585C2.33149 16.9585 1.92896 17.3132 1.8689 17.7863L1.20911 22.9844C1.20911 22.9844 0.418713 31.3702 2.61643 47.0829C4.81415 62.7956 6.53877 73.7219 8.73886 74.7223C10.939 75.7228 20.4088 74.1009 25.144 72.9226C29.8792 71.7443 33.4042 60.2023 33.4042 60.2023" stroke="black" stroke-linecap="round" stroke-linejoin="round"/>
</svg>
