<svg width="69" height="79" viewBox="0 0 69 79" fill="none" xmlns="http://www.w3.org/2000/svg">
<path d="M6.00502 15.6777C3.60141 15.6777 1 17.5956 1 20.5732C1 23.5508 1 70.8684 1 73.6083C1 76.3483 2.47986 77.8485 5.16677 77.8485C7.85368 77.8485 34.0085 77.8485 36.4766 77.8485C38.9447 77.8485 40.744 76.4044 40.744 73.6083C40.744 70.8122 40.744 23.2461 40.744 20.5662C40.744 17.8863 38.6245 15.7753 35.671 15.7753" stroke="#3F3F3F" stroke-linecap="round" stroke-linejoin="round"/>
<path d="M62.9338 15.2891H48.4909" stroke="#3F3F3F" stroke-linecap="round" stroke-linejoin="round"/>
<path d="M42.0411 1.02783C38.8726 1.02783 35.7755 3.16669 35.7755 7.19266C35.7755 11.2186 35.7755 67.5276 35.7755 67.5276" stroke="#3F3F3F" stroke-linecap="round" stroke-linejoin="round"/>
<path d="M40.8706 67.6607H1.27185" stroke="#3F3F3F" stroke-linecap="round" stroke-linejoin="round"/>
<path d="M12.0671 13.8589H29.79" stroke="#3F3F3F" stroke-linecap="round" stroke-linejoin="round"/>
<path d="M12.0671 21.2769H29.79" stroke="#3F3F3F" stroke-linecap="round" stroke-linejoin="round"/>
<path d="M12.0671 28.6949H29.79" stroke="#3F3F3F" stroke-linecap="round" stroke-linejoin="round"/>
<path d="M12.0671 36.1133H29.79" stroke="#3F3F3F" stroke-linecap="round" stroke-linejoin="round"/>
<path d="M12.0671 43.5313H29.79" stroke="#3F3F3F" stroke-linecap="round" stroke-linejoin="round"/>
<path d="M12.0671 50.9497H29.79" stroke="#3F3F3F" stroke-linecap="round" stroke-linejoin="round"/>
<path d="M12.0671 58.3677H29.79" stroke="#3F3F3F" stroke-linecap="round" stroke-linejoin="round"/>
<path d="M52.3957 60.793H40.8323" stroke="#3F3F3F" stroke-linecap="round" stroke-linejoin="round"/>
<path d="M6.01025 67.5672C6.01025 67.5672 6.01025 11.0855 6.01025 7.2435C6.01025 3.40151 8.491 1 12.4163 1C16.3416 1 38.1335 1 42.0436 1C45.9536 1 47.9604 4.13443 47.9604 7.2435C47.9604 10.3526 47.9604 50.5214 47.9604 55.1102C47.9604 59.6991 51.2458 60.7709 52.6837 60.7709C54.1217 60.7709 58.0505 60.136 58.0505 55.1102C58.0505 50.0845 58.0505 23.9382 58.0505 20.3487C58.0505 16.7592 60.5846 15.3517 63.0963 15.3517C65.6081 15.3517 67.9156 16.8577 67.9156 20.3487C67.9156 23.8397 67.9156 39.4421 67.9156 39.4421" stroke="#3F3F3F" stroke-linecap="round" stroke-linejoin="round"/>
<path d="M16.4661 72.6856H25.0992" stroke="#3F3F3F" stroke-linecap="round" stroke-linejoin="round"/>
<path d="M68.055 39.2344H58.0936" stroke="#3F3F3F" stroke-linecap="round" stroke-linejoin="round"/>
<circle cx="12.9399" cy="13.7861" r="2.25" transform="rotate(-90 12.9399 13.7861)" fill="#C2C2C2"/>
<circle cx="12.9399" cy="13.7861" r="2.25" transform="rotate(-90 12.9399 13.7861)" stroke="#151515" stroke-width="1.5"/>
<circle cx="12.9399" cy="13.7861" r="2.25" transform="rotate(-90 12.9399 13.7861)" stroke="#151515" stroke-width="1.5"/>
<circle cx="29.9399" cy="28.7861" r="2.25" transform="rotate(-90 29.9399 28.7861)" fill="#C2C2C2"/>
<circle cx="29.9399" cy="28.7861" r="2.25" transform="rotate(-90 29.9399 28.7861)" stroke="#151515" stroke-width="1.5"/>
<circle cx="29.9399" cy="28.7861" r="2.25" transform="rotate(-90 29.9399 28.7861)" stroke="#151515" stroke-width="1.5"/>
<circle cx="12.9399" cy="43.2861" r="2.25" transform="rotate(-90 12.9399 43.2861)" fill="#C2C2C2"/>
<circle cx="12.9399" cy="43.2861" r="2.25" transform="rotate(-90 12.9399 43.2861)" stroke="#151515" stroke-width="1.5"/>
<circle cx="12.9399" cy="43.2861" r="2.25" transform="rotate(-90 12.9399 43.2861)" stroke="#151515" stroke-width="1.5"/>
<circle cx="29.9399" cy="58.7861" r="2.25" transform="rotate(-90 29.9399 58.7861)" fill="#C2C2C2"/>
<circle cx="29.9399" cy="58.7861" r="2.25" transform="rotate(-90 29.9399 58.7861)" stroke="#151515" stroke-width="1.5"/>
<circle cx="29.9399" cy="58.7861" r="2.25" transform="rotate(-90 29.9399 58.7861)" stroke="#151515" stroke-width="1.5"/>
</svg>
