<svg width="79" height="88" viewBox="0 0 79 88" fill="none" xmlns="http://www.w3.org/2000/svg">
<path fill-rule="evenodd" clip-rule="evenodd" d="M17 33.5C17 50.3436 30.6564 64 47.5 64C64.3436 64 78 50.3436 78 33.5C78 16.6564 64.3436 3 47.5 3C30.6564 3 17 16.6564 17 33.5Z" stroke="#3F3F3F" stroke-linecap="round" stroke-linejoin="round"/>
<path d="M28 57L4.52302 83.5" stroke="#3F3F3F" stroke-linecap="round" stroke-linejoin="round"/>
<path d="M66 56.9959C62.6046 55.4102 58.9135 53.8287 55.4505 52.4708V44.1906C55.4505 44.1906 59.6737 42.7457 59.6737 33.8404C62.6088 33.8404 63.8969 25.5603 59.8088 25.5603C59.8088 24.6867 63.0438 20.1492 61.7853 15.2101C59.6737 6.92996 38.5579 6.92996 36.4463 15.2101C27.5523 13.434 34.3347 24.3679 34.3347 25.5603C30.1116 25.5603 31.3996 33.8404 34.3347 33.8404C34.3347 42.7457 38.5579 44.1906 38.5579 44.1906V52.4708C35.0907 53.8287 31.3996 55.4144 28 57" stroke="#3F3F3F" stroke-linecap="round" stroke-linejoin="round"/>
<circle cx="28" cy="57" r="2.25" transform="rotate(-90 28 57)" fill="#C2C2C2"/>
<circle cx="28" cy="57" r="2.25" transform="rotate(-90 28 57)" stroke="#151515" stroke-width="1.5"/>
<circle cx="28" cy="57" r="2.25" transform="rotate(-90 28 57)" stroke="#151515" stroke-width="1.5"/>
<circle cx="3" cy="85" r="2.25" transform="rotate(-90 3 85)" fill="#C2C2C2"/>
<circle cx="3" cy="85" r="2.25" transform="rotate(-90 3 85)" stroke="#151515" stroke-width="1.5"/>
<circle cx="3" cy="85" r="2.25" transform="rotate(-90 3 85)" stroke="#151515" stroke-width="1.5"/>
<circle cx="66" cy="57" r="2.25" transform="rotate(-90 66 57)" fill="#C2C2C2"/>
<circle cx="66" cy="57" r="2.25" transform="rotate(-90 66 57)" stroke="#151515" stroke-width="1.5"/>
<circle cx="66" cy="57" r="2.25" transform="rotate(-90 66 57)" stroke="#151515" stroke-width="1.5"/>
<circle cx="48" cy="3" r="2.25" transform="rotate(-90 48 3)" fill="#C2C2C2"/>
<circle cx="48" cy="3" r="2.25" transform="rotate(-90 48 3)" stroke="#151515" stroke-width="1.5"/>
<circle cx="48" cy="3" r="2.25" transform="rotate(-90 48 3)" stroke="#151515" stroke-width="1.5"/>
</svg>
