<svg width="75" height="82" viewBox="0 0 75 82" fill="none" xmlns="http://www.w3.org/2000/svg">
<path fill-rule="evenodd" clip-rule="evenodd" d="M13 31.5C13 48.3436 26.6564 62 43.5 62C60.3436 62 74 48.3436 74 31.5C74 14.6564 60.3436 1 43.5 1C26.6564 1 13 14.6564 13 31.5Z" stroke="black" stroke-linecap="round" stroke-linejoin="round"/>
<path d="M24 55L0.523018 81.5" stroke="black" stroke-linecap="round" stroke-linejoin="round"/>
<path d="M62 54.9959C58.6046 53.4102 54.9135 51.8287 51.4505 50.4708V42.1906C51.4505 42.1906 55.6737 40.7457 55.6737 31.8404C58.6088 31.8404 59.8969 23.5603 55.8088 23.5603C55.8088 22.6867 59.0438 18.1492 57.7853 13.2101C55.6737 4.92996 34.5579 4.92996 32.4463 13.2101C23.5523 11.434 30.3347 22.3679 30.3347 23.5603C26.1116 23.5603 27.3996 31.8404 30.3347 31.8404C30.3347 40.7457 34.5579 42.1906 34.5579 42.1906V50.4708C31.0907 51.8287 27.3996 53.4144 24 55" stroke="black" stroke-linecap="round" stroke-linejoin="round"/>
</svg>
