<svg width="86" height="71" viewBox="0 0 86 71" fill="none" xmlns="http://www.w3.org/2000/svg">
<circle cx="52.4514" cy="28.8824" r="5.88235" stroke="#3F3F3F" stroke-linecap="round" stroke-linejoin="round"/>
<circle cx="33.4514" cy="28.8824" r="5.88235" stroke="#3F3F3F" stroke-linecap="round" stroke-linejoin="round"/>
<path d="M34.0531 23.0093C35.6388 20.7399 36.569 17.9786 36.569 15C36.569 7.26801 30.301 1 22.569 1C14.837 1 8.569 7.26801 8.569 15C8.569 22.732 14.837 29 22.569 29V29C24.3491 29 26.0516 28.6678 27.6179 28.0619" stroke="#3F3F3F" stroke-linecap="round" stroke-linejoin="round"/>
<path d="M58.2749 27.9644C59.9081 28.632 61.6956 29 63.569 29V29C71.301 29 77.569 22.732 77.569 15C77.569 7.26801 71.301 1 63.569 1C55.837 1 49.569 7.26801 49.569 15C49.569 18.0012 50.5134 20.7819 52.1212 23.0611" stroke="#3F3F3F" stroke-linecap="round" stroke-linejoin="round"/>
<path d="M52.069 6.5H33.8065" stroke="#3F3F3F" stroke-linecap="round" stroke-linejoin="round"/>
<path d="M9.5171 20.2739L4.94689 44.4817C3.75961 50.7706 11.927 54.3002 15.6936 49.126L28.2111 31.9304" stroke="#3F3F3F" stroke-linecap="round" stroke-linejoin="round"/>
<path d="M76.463 20.2739L81.0332 44.4817C82.2205 50.7706 74.0531 54.3002 70.2865 49.126L57.769 31.9304" stroke="#3F3F3F" stroke-linecap="round" stroke-linejoin="round"/>
<path d="M39.331 28.9922H46.5939" stroke="#3F3F3F" stroke-linecap="round" stroke-linejoin="round"/>
<circle cx="63.569" cy="8" r="3" stroke="#3F3F3F" stroke-linecap="round" stroke-linejoin="round"/>
<circle cx="63.569" cy="22" r="3" stroke="#3F3F3F" stroke-linecap="round" stroke-linejoin="round"/>
<circle cx="56.569" cy="15" r="3" transform="rotate(-90 56.569 15)" stroke="#3F3F3F" stroke-linecap="round" stroke-linejoin="round"/>
<circle cx="70.569" cy="15" r="3" transform="rotate(-90 70.569 15)" stroke="#3F3F3F" stroke-linecap="round" stroke-linejoin="round"/>
<circle cx="22.569" cy="8" r="3" stroke="#3F3F3F" stroke-linecap="round" stroke-linejoin="round"/>
<circle cx="22.569" cy="22" r="3" stroke="#3F3F3F" stroke-linecap="round" stroke-linejoin="round"/>
<circle cx="15.569" cy="15" r="3" transform="rotate(-90 15.569 15)" stroke="#3F3F3F" stroke-linecap="round" stroke-linejoin="round"/>
<circle cx="29.569" cy="15" r="3" transform="rotate(-90 29.569 15)" stroke="#3F3F3F" stroke-linecap="round" stroke-linejoin="round"/>
<circle cx="33.569" cy="29" r="2.25" transform="rotate(-90 33.569 29)" fill="#C2C2C2"/>
<circle cx="33.569" cy="29" r="2.25" transform="rotate(-90 33.569 29)" stroke="#151515" stroke-width="1.5"/>
<circle cx="33.569" cy="29" r="2.25" transform="rotate(-90 33.569 29)" stroke="#151515" stroke-width="1.5"/>
<circle cx="52.369" cy="29" r="2.25" transform="rotate(-90 52.369 29)" fill="#C2C2C2"/>
<circle cx="52.369" cy="29" r="2.25" transform="rotate(-90 52.369 29)" stroke="#151515" stroke-width="1.5"/>
<circle cx="52.369" cy="29" r="2.25" transform="rotate(-90 52.369 29)" stroke="#151515" stroke-width="1.5"/>
<circle cx="42.569" cy="6.5" r="2.25" transform="rotate(-90 42.569 6.5)" fill="#C2C2C2"/>
<circle cx="42.569" cy="6.5" r="2.25" transform="rotate(-90 42.569 6.5)" stroke="#151515" stroke-width="1.5"/>
<circle cx="42.569" cy="6.5" r="2.25" transform="rotate(-90 42.569 6.5)" stroke="#151515" stroke-width="1.5"/>
<circle cx="8.569" cy="51" r="2.25" transform="rotate(-90 8.569 51)" fill="#C2C2C2"/>
<circle cx="8.569" cy="51" r="2.25" transform="rotate(-90 8.569 51)" stroke="#151515" stroke-width="1.5"/>
<circle cx="8.569" cy="51" r="2.25" transform="rotate(-90 8.569 51)" stroke="#151515" stroke-width="1.5"/>
<circle cx="77.569" cy="51" r="2.25" transform="rotate(-90 77.569 51)" fill="#C2C2C2"/>
<circle cx="77.569" cy="51" r="2.25" transform="rotate(-90 77.569 51)" stroke="#151515" stroke-width="1.5"/>
<circle cx="77.569" cy="51" r="2.25" transform="rotate(-90 77.569 51)" stroke="#151515" stroke-width="1.5"/>
</svg>
