<svg width="84" height="58" viewBox="0 0 84 58" fill="none" xmlns="http://www.w3.org/2000/svg">
<rect x="3" y="3" width="79" height="53" stroke="#3F3F3F" stroke-linecap="round" stroke-linejoin="round"/>
<rect x="17" y="17" width="51" height="14" stroke="#3F3F3F" stroke-linecap="round" stroke-linejoin="round"/>
<circle cx="68" cy="30" r="2.25" transform="rotate(-90 68 30)" fill="#C2C2C2"/>
<circle cx="68" cy="30" r="2.25" transform="rotate(-90 68 30)" stroke="#151515" stroke-width="1.5"/>
<circle cx="68" cy="30" r="2.25" transform="rotate(-90 68 30)" stroke="#151515" stroke-width="1.5"/>
<circle cx="3" cy="55" r="2.25" transform="rotate(-90 3 55)" fill="#C2C2C2"/>
<circle cx="3" cy="55" r="2.25" transform="rotate(-90 3 55)" stroke="#151515" stroke-width="1.5"/>
<circle cx="3" cy="55" r="2.25" transform="rotate(-90 3 55)" stroke="#151515" stroke-width="1.5"/>
<circle cx="18" cy="17" r="2.25" transform="rotate(-90 18 17)" fill="#C2C2C2"/>
<circle cx="18" cy="17" r="2.25" transform="rotate(-90 18 17)" stroke="#151515" stroke-width="1.5"/>
<circle cx="18" cy="17" r="2.25" transform="rotate(-90 18 17)" stroke="#151515" stroke-width="1.5"/>
<circle cx="81" cy="3" r="2.25" transform="rotate(-90 81 3)" fill="#C2C2C2"/>
<circle cx="81" cy="3" r="2.25" transform="rotate(-90 81 3)" stroke="#151515" stroke-width="1.5"/>
<circle cx="81" cy="3" r="2.25" transform="rotate(-90 81 3)" stroke="#151515" stroke-width="1.5"/>
<path d="M49.51 42H37" stroke="#3F3F3F" stroke-linecap="round" stroke-linejoin="round"/>
<circle cx="36" cy="42" r="2.25" transform="rotate(-90 36 42)" fill="#C2C2C2"/>
<circle cx="36" cy="42" r="2.25" transform="rotate(-90 36 42)" stroke="#151515" stroke-width="1.5"/>
<circle cx="36" cy="42" r="2.25" transform="rotate(-90 36 42)" stroke="#151515" stroke-width="1.5"/>
<circle cx="50" cy="42" r="2.25" transform="rotate(-90 50 42)" fill="#C2C2C2"/>
<circle cx="50" cy="42" r="2.25" transform="rotate(-90 50 42)" stroke="#151515" stroke-width="1.5"/>
<circle cx="50" cy="42" r="2.25" transform="rotate(-90 50 42)" stroke="#151515" stroke-width="1.5"/>
</svg>
