<svg width="81" height="81" viewBox="0 0 81 81" fill="none" xmlns="http://www.w3.org/2000/svg">
<path fill-rule="evenodd" clip-rule="evenodd" d="M54.7297 28.5431C54.7297 43.005 43.0044 54.7303 28.5426 54.7303C14.0807 54.7303 2.35541 43.005 2.35541 28.5431C2.35541 14.0813 14.0807 2.35596 28.5426 2.35596C43.0044 2.35596 54.7297 14.0813 54.7297 28.5431Z" stroke="#3F3F3F" stroke-linecap="round" stroke-linejoin="round"/>
<path d="M47.0575 47.0581L77.6441 77.6447" stroke="#3F3F3F" stroke-linecap="round" stroke-linejoin="round"/>
<circle cx="47" cy="47" r="2.25" transform="rotate(-90 47 47)" fill="#C2C2C2"/>
<circle cx="47" cy="47" r="2.25" transform="rotate(-90 47 47)" stroke="#151515" stroke-width="1.5"/>
<circle cx="47" cy="47" r="2.25" transform="rotate(-90 47 47)" stroke="#151515" stroke-width="1.5"/>
<circle cx="77.5" cy="78" r="2.25" transform="rotate(-90 77.5 78)" fill="#C2C2C2"/>
<circle cx="77.5" cy="78" r="2.25" transform="rotate(-90 77.5 78)" stroke="#151515" stroke-width="1.5"/>
<circle cx="77.5" cy="78" r="2.25" transform="rotate(-90 77.5 78)" stroke="#151515" stroke-width="1.5"/>
<circle cx="35" cy="3" r="2.25" transform="rotate(-90 35 3)" fill="#C2C2C2"/>
<circle cx="35" cy="3" r="2.25" transform="rotate(-90 35 3)" stroke="#151515" stroke-width="1.5"/>
<circle cx="35" cy="3" r="2.25" transform="rotate(-90 35 3)" stroke="#151515" stroke-width="1.5"/>
<circle cx="3" cy="35" r="2.25" transform="rotate(-90 3 35)" fill="#C2C2C2"/>
<circle cx="3" cy="35" r="2.25" transform="rotate(-90 3 35)" stroke="#151515" stroke-width="1.5"/>
<circle cx="3" cy="35" r="2.25" transform="rotate(-90 3 35)" stroke="#151515" stroke-width="1.5"/>
</svg>
