<svg width="72" height="89" viewBox="0 0 72 89" fill="none" xmlns="http://www.w3.org/2000/svg">
<path fill-rule="evenodd" clip-rule="evenodd" d="M5.82222 39.7892C5.82222 39.7892 -0.37052 57.2711 1.38951 60.1005C3.14955 62.93 8.80938 61.6885 8.80938 61.6885V69.3773C8.80938 69.3773 8.89565 77.6567 17.3264 77.6567C25.7571 77.6567 25.2307 77.7448 26.3058 77.7576C29.9351 77.8005 31.8642 79.3565 32.8803 84.1858C33.2298 85.8467 35.5476 86.9056 35.5476 86.9056L64.3078 86.9019L60.4992 63.8084C60.4992 63.8084 59.4154 57.0287 62.9845 52.6639C66.5536 48.299 72.3224 34.6656 66.5536 20.847C60.7848 7.02843 42.5511 -2.91881 24.0116 7.02843C5.47213 16.9757 5.82222 39.7892 5.82222 39.7892Z" stroke="#3F3F3F" stroke-linecap="round" stroke-linejoin="round"/>
<circle cx="7" cy="38" r="2.25" transform="rotate(-90 7 38)" fill="#C2C2C2"/>
<circle cx="7" cy="38" r="2.25" transform="rotate(-90 7 38)" stroke="#151515" stroke-width="1.5"/>
<circle cx="7" cy="38" r="2.25" transform="rotate(-90 7 38)" stroke="#151515" stroke-width="1.5"/>
<circle cx="10" cy="69" r="2.25" transform="rotate(-90 10 69)" fill="#C2C2C2"/>
<circle cx="10" cy="69" r="2.25" transform="rotate(-90 10 69)" stroke="#151515" stroke-width="1.5"/>
<circle cx="10" cy="69" r="2.25" transform="rotate(-90 10 69)" stroke="#151515" stroke-width="1.5"/>
<circle cx="65" cy="86" r="2.25" transform="rotate(-90 65 86)" fill="#C2C2C2"/>
<circle cx="65" cy="86" r="2.25" transform="rotate(-90 65 86)" stroke="#151515" stroke-width="1.5"/>
<circle cx="65" cy="86" r="2.25" transform="rotate(-90 65 86)" stroke="#151515" stroke-width="1.5"/>
<circle cx="69" cy="25" r="2.25" transform="rotate(-90 69 25)" fill="#C2C2C2"/>
<circle cx="69" cy="25" r="2.25" transform="rotate(-90 69 25)" stroke="#151515" stroke-width="1.5"/>
<circle cx="69" cy="25" r="2.25" transform="rotate(-90 69 25)" stroke="#151515" stroke-width="1.5"/>
<circle cx="33" cy="3" r="2.25" transform="rotate(-90 33 3)" fill="#C2C2C2"/>
<circle cx="33" cy="3" r="2.25" transform="rotate(-90 33 3)" stroke="#151515" stroke-width="1.5"/>
<circle cx="33" cy="3" r="2.25" transform="rotate(-90 33 3)" stroke="#151515" stroke-width="1.5"/>
<circle cx="36" cy="86" r="2.25" transform="rotate(-90 36 86)" fill="#C2C2C2"/>
<circle cx="36" cy="86" r="2.25" transform="rotate(-90 36 86)" stroke="#151515" stroke-width="1.5"/>
<circle cx="36" cy="86" r="2.25" transform="rotate(-90 36 86)" stroke="#151515" stroke-width="1.5"/>
</svg>
