<svg width="70" height="86" viewBox="0 0 70 86" fill="none" xmlns="http://www.w3.org/2000/svg">
<path fill-rule="evenodd" clip-rule="evenodd" d="M5.82222 37.7892C5.82222 37.7892 -0.37052 55.2711 1.38951 58.1005C3.14955 60.93 8.80938 59.6885 8.80938 59.6885V67.3773C8.80938 67.3773 8.89565 75.6567 17.3264 75.6567C25.7571 75.6567 25.2307 75.7448 26.3058 75.7576C29.9351 75.8005 31.8642 77.3565 32.8803 82.1858C33.2298 83.8467 35.5476 84.9056 35.5476 84.9056L64.3078 84.9019L60.4992 61.8084C60.4992 61.8084 59.4154 55.0287 62.9845 50.6639C66.5536 46.299 72.3224 32.6656 66.5536 18.847C60.7848 5.02843 42.5511 -4.91881 24.0116 5.02843C5.47213 14.9757 5.82222 37.7892 5.82222 37.7892Z" stroke="black" stroke-linecap="round" stroke-linejoin="round"/>
</svg>
