<svg width="94" height="87" viewBox="0 0 94 87" fill="none" xmlns="http://www.w3.org/2000/svg">
<path d="M28.5228 23.913C29.8554 23.913 40.7885 17.8634 40.7885 10.7667C40.7885 6.64422 38.0736 3.30225 34.385 3.30225C32.1323 3.30225 30.3483 4.47404 29.1386 6.38354" stroke="black" stroke-linecap="round" stroke-linejoin="round"/>
<path d="M28.7381 23.913C27.4056 23.913 16.4724 17.8634 16.4724 10.7667C16.4724 6.64422 19.4626 3.30225 23.1512 3.30225C25.4039 3.30225 27.8202 4.39191 29.0299 6.30142" stroke="black" stroke-linecap="round" stroke-linejoin="round"/>
<path fill-rule="evenodd" clip-rule="evenodd" d="M48.0429 85.8383H72.7648C72.7648 85.8383 72.9374 81.3258 70.6151 77.1168C68.9746 74.1437 66.8308 72.7995 64.0263 71.7984C61.2094 70.793 57.7262 70.1337 53.4172 68.5179V62.0687C53.4172 62.0687 56.6418 59.9189 56.6418 55.6195C57.7167 55.6195 58.7915 51.32 56.6418 50.2451C56.6418 49.6067 59.5225 44.2237 58.7915 40.5713C57.7167 35.197 42.6685 35.197 41.5937 39.4965C35.1445 39.4965 39.4439 49.3723 39.4439 50.2451C37.2942 51.32 38.3691 55.6195 39.4439 55.6195C39.4439 59.9189 42.6685 62.0687 42.6685 62.0687V68.5179C38.4211 70.1107 35.3158 70.8062 32.6966 71.8045C30.0132 72.8273 27.8398 74.1679 25.4707 77.1168C22.4597 80.8647 23.321 85.8383 23.321 85.8383H48.0429Z" stroke="black" stroke-linecap="round" stroke-linejoin="round"/>
<circle cx="89.2989" cy="54.9004" r="3.70115" stroke="black" stroke-linecap="round" stroke-linejoin="round"/>
<circle cx="89.2989" cy="40.0962" r="3.70115" stroke="black" stroke-linecap="round" stroke-linejoin="round"/>
<path d="M86.3311 42.2618L86.5705 42.7007L86.5705 42.7007L86.3311 42.2618ZM86.5306 41.5834L86.0917 41.8228L86.0917 41.8228L86.5306 41.5834ZM79.0751 46.2198L79.3145 46.6587L79.3145 46.6587L79.0751 46.2198ZM78.3967 46.0203L77.9578 46.2597L77.9578 46.2597L78.3967 46.0203ZM78.5962 45.3419L78.3568 44.903L78.3568 44.903L78.5962 45.3419ZM85.8522 41.3839L85.6128 40.945L85.6128 40.945L85.8522 41.3839ZM78.9154 49.0307L78.6737 49.4684L78.6737 49.4684L78.9154 49.0307ZM78.236 49.2267L78.6737 49.4684L78.236 49.2267ZM86.2355 53.0727L85.9938 53.5104L85.9938 53.5104L86.2355 53.0727ZM86.4315 53.752L86.8692 53.9937L86.8692 53.9937L86.4315 53.752ZM85.7521 53.9481L85.5104 54.3858L85.5104 54.3858L85.7521 53.9481ZM78.432 49.9061L78.6737 49.4684L78.432 49.9061ZM86.5705 42.7007C87.0554 42.4363 87.234 41.8288 86.9695 41.344L86.0917 41.8228L86.0917 41.8228L86.5705 42.7007ZM79.3145 46.6587L86.5705 42.7007L86.0917 41.8228L78.8356 45.7808L79.3145 46.6587ZM77.9578 46.2597C78.2222 46.7446 78.8297 46.9232 79.3145 46.6587L78.8356 45.7808L78.8356 45.7808L77.9578 46.2597ZM78.3568 44.903C77.8719 45.1674 77.6933 45.7749 77.9578 46.2597L78.8356 45.7808L78.8356 45.7808L78.3568 44.903ZM85.6128 40.945L78.3568 44.903L78.8356 45.7808L86.0917 41.8228L85.6128 40.945ZM86.9695 41.344C86.7051 40.8591 86.0976 40.6805 85.6128 40.945L86.0917 41.8228L86.0917 41.8228L86.9695 41.344ZM79.1571 48.593C78.6736 48.326 78.0652 48.5015 77.7983 48.985L78.6737 49.4684L78.6737 49.4684L79.1571 48.593ZM86.4772 52.6349L79.1571 48.593L78.6737 49.4684L85.9938 53.5104L86.4772 52.6349ZM86.8692 53.9937C87.1362 53.5103 86.9607 52.9019 86.4772 52.6349L85.9938 53.5104L85.9938 53.5104L86.8692 53.9937ZM85.5104 54.3858C85.9939 54.6527 86.6022 54.4772 86.8692 53.9937L85.9938 53.5104L85.9938 53.5104L85.5104 54.3858ZM78.1903 50.3438L85.5104 54.3858L85.9938 53.5104L78.6737 49.4684L78.1903 50.3438ZM77.7983 48.985C77.5313 49.4685 77.7068 50.0768 78.1903 50.3438L78.6737 49.4684L78.6737 49.4684L77.7983 48.985Z" fill="black"/>
<circle cx="13.1609" cy="47.4983" r="12.1609" stroke="black" stroke-linecap="round" stroke-linejoin="round"/>
<path d="M13.3219 41.5679V52.7582" stroke="black" stroke-linecap="round" stroke-linejoin="round"/>
<path d="M7.72681 47.1631H18.9171" stroke="black" stroke-linecap="round" stroke-linejoin="round"/>
<circle cx="13.1609" cy="47.4983" r="12.1609" stroke="black" stroke-linecap="round" stroke-linejoin="round"/>
<path d="M68.6804 9.65951C68.6804 9.65951 70.3755 9.65951 71.335 9.65951C72.2944 9.65951 73.0317 9.21776 73.3544 7.973C73.6771 6.72825 74.5278 3.95914 74.8277 2.677C75.1275 1.39485 76.268 1 76.9063 1C77.5446 1 79.0155 1.35821 79.0155 4.10484C79.0155 5.84 79.0155 7.59967 79.0155 8.66039C79.0155 9.21267 79.4632 9.65951 80.0155 9.65951H81.575C83.2319 9.65951 84.575 11.0027 84.575 12.6595V20.0079C84.575 21.6648 83.234 23.0079 81.5772 23.0079C78.4699 23.0079 73.979 23.0079 73.3544 23.0079C72.3865 23.0079 71.6766 21.347 70.5325 21.347C69.3883 21.347 68.6804 21.347 68.6804 21.347" stroke="black" stroke-linecap="round" stroke-linejoin="round"/>
<path fill-rule="evenodd" clip-rule="evenodd" d="M60.261 7.84326L68.6782 7.84326V22.9843H60.261V7.84326Z" stroke="black" stroke-linecap="round" stroke-linejoin="round"/>
</svg>
