<svg width="88" height="76" viewBox="0 0 88 76" fill="none" xmlns="http://www.w3.org/2000/svg">
<path d="M12.0889 61H3C1.89543 61 1 60.1046 1 59V3C1 1.89543 1.89543 1 3 1V1H85C86.1046 1 87 1.89543 87 3V59C87 60.1046 86.1046 61 85 61H41.0716" stroke="black" stroke-linecap="round" stroke-linejoin="round"/>
<rect x="9" y="9" width="38" height="23" rx="1" stroke="black" stroke-linecap="round" stroke-linejoin="round"/>
<path fill-rule="evenodd" clip-rule="evenodd" d="M33.5528 20.2765C33.737 20.3687 33.737 20.6316 33.5528 20.7237L23.3618 25.8192C23.1956 25.9023 23 25.7815 23 25.5956V15.4046C23 15.2188 23.1956 15.0979 23.3618 15.181L33.5528 20.2765Z" stroke="black" stroke-linecap="round" stroke-linejoin="round"/>
<circle cx="26.5" cy="60.5" r="14.5" stroke="black" stroke-linecap="round" stroke-linejoin="round"/>
<circle cx="65" cy="28.5556" r="8.55556" stroke="black" stroke-linecap="round" stroke-linejoin="round"/>
<path d="M70.4445 35.5557C73.3594 37.3371 78.1752 41.9023 78.1665 50.502" stroke="black" stroke-linecap="round" stroke-linejoin="round"/>
<path d="M77.8655 50.8159C72.5752 55.1955 57.8711 54.4868 52.3899 51.7733C50.4669 50.8213 52.9275 38.5497 59.4927 35.5557" stroke="black" stroke-linecap="round" stroke-linejoin="round"/>
<path d="M26.5173 69.3189C27.5301 69.3189 35.8393 64.7213 35.8393 59.3278C35.8393 56.1947 33.7759 53.6548 30.9726 53.6548C29.2606 53.6548 27.9047 54.5453 26.9853 55.9966" stroke="black" stroke-linecap="round" stroke-linejoin="round"/>
<path d="M26.681 69.3189C25.6683 69.3189 17.3591 64.7213 17.3591 59.3278C17.3591 56.1947 19.6316 53.6548 22.435 53.6548C24.147 53.6548 25.9834 54.4829 26.9028 55.9342" stroke="black" stroke-linecap="round" stroke-linejoin="round"/>
</svg>
