<svg width="85" height="58" viewBox="0 0 85 58" fill="none" xmlns="http://www.w3.org/2000/svg">
<path fill-rule="evenodd" clip-rule="evenodd" d="M51 28.5L36 36V21L51 28.5Z" stroke="#3F3F3F" stroke-linecap="round" stroke-linejoin="round"/>
<circle cx="50.5" cy="28" r="2.25" transform="rotate(-90 50.5 28)" fill="#C2C2C2"/>
<circle cx="50.5" cy="28" r="2.25" transform="rotate(-90 50.5 28)" stroke="#151515" stroke-width="1.5"/>
<circle cx="50.5" cy="28" r="2.25" transform="rotate(-90 50.5 28)" stroke="#151515" stroke-width="1.5"/>
<circle cx="35.5" cy="36" r="2.25" transform="rotate(-90 35.5 36)" fill="#C2C2C2"/>
<circle cx="35.5" cy="36" r="2.25" transform="rotate(-90 35.5 36)" stroke="#151515" stroke-width="1.5"/>
<circle cx="35.5" cy="36" r="2.25" transform="rotate(-90 35.5 36)" stroke="#151515" stroke-width="1.5"/>
<circle cx="35.5" cy="20" r="2.25" transform="rotate(-90 35.5 20)" fill="#C2C2C2"/>
<circle cx="35.5" cy="20" r="2.25" transform="rotate(-90 35.5 20)" stroke="#151515" stroke-width="1.5"/>
<circle cx="35.5" cy="20" r="2.25" transform="rotate(-90 35.5 20)" stroke="#151515" stroke-width="1.5"/>
<rect x="2.5" y="3" width="80" height="53" stroke="#3F3F3F" stroke-linecap="round" stroke-linejoin="round"/>
<circle cx="3" cy="55" r="2.25" transform="rotate(-90 3 55)" fill="#C2C2C2"/>
<circle cx="3" cy="55" r="2.25" transform="rotate(-90 3 55)" stroke="#151515" stroke-width="1.5"/>
<circle cx="3" cy="55" r="2.25" transform="rotate(-90 3 55)" stroke="#151515" stroke-width="1.5"/>
<circle cx="82" cy="3" r="2.25" transform="rotate(-90 82 3)" fill="#C2C2C2"/>
<circle cx="82" cy="3" r="2.25" transform="rotate(-90 82 3)" stroke="#151515" stroke-width="1.5"/>
<circle cx="82" cy="3" r="2.25" transform="rotate(-90 82 3)" stroke="#151515" stroke-width="1.5"/>
</svg>
