<svg width="70" height="76" viewBox="0 0 70 76" fill="none" xmlns="http://www.w3.org/2000/svg">
<path fill-rule="evenodd" clip-rule="evenodd" d="M62.079 1V13.6269C62.079 13.6269 65.5809 13.6269 66.7846 13.6269C67.9883 13.6269 68.504 14.3042 68.504 15.4946C68.504 16.6849 68.504 49.5464 68.504 50.6525C68.504 51.7586 67.6736 52.8934 66.5284 52.8934C65.3833 52.8934 18.9559 52.8934 17.6529 52.8934C16.35 52.8934 15.5 52.3631 15.5 50.7918C15.5 49.2204 15.5 17.4719 15.5 15.9588C15.5 14.4458 16.6862 13.387 18.0718 13.387C19.4574 13.387 47.9776 13.387 48.9344 13.387C49.8912 13.387 50.4242 12.9661 51.3316 11.9533C52.2391 10.9404 62.079 1 62.079 1Z" stroke="black" stroke-linecap="round" stroke-linejoin="round"/>
<path fill-rule="evenodd" clip-rule="evenodd" d="M7.42498 74.8623V62.2354C7.42498 62.2354 3.92315 62.2354 2.71945 62.2354C1.51575 62.2354 1.00001 61.5581 1.00001 60.3678C1.00001 59.1774 1.00001 26.3159 1.00001 25.2098C1.00001 24.1037 1.83045 22.9689 2.97561 22.9689C4.12077 22.9689 50.5482 22.9689 51.8511 22.9689C53.1541 22.9689 54.004 23.4992 54.004 25.0705C54.004 26.6419 54.004 58.3904 54.004 59.9035C54.004 61.4165 52.8178 62.4753 51.4322 62.4753C50.0466 62.4753 21.5264 62.4753 20.5696 62.4753C19.6128 62.4753 19.0798 62.8962 18.1724 63.909C17.2649 64.9219 7.42498 74.8623 7.42498 74.8623Z" stroke="black" stroke-linecap="round" stroke-linejoin="round"/>
<path fill-rule="evenodd" clip-rule="evenodd" d="M42.2 37.5L29 43.5V31.5L42.2 37.5Z" stroke="black" stroke-linecap="round" stroke-linejoin="round"/>
</svg>
