<svg width="81" height="60" viewBox="0 0 81 60" fill="none" xmlns="http://www.w3.org/2000/svg">
<circle cx="64.8121" cy="16.4946" r="2.25" transform="rotate(-90 64.8121 16.4946)" fill="#C2C2C2"/>
<circle cx="64.8121" cy="16.4946" r="2.25" transform="rotate(-90 64.8121 16.4946)" stroke="#151515" stroke-width="1.5"/>
<circle cx="64.8121" cy="16.4946" r="2.25" transform="rotate(-90 64.8121 16.4946)" stroke="#151515" stroke-width="1.5"/>
<circle cx="55.6121" cy="16.4946" r="2.25" transform="rotate(-90 55.6121 16.4946)" fill="#C2C2C2"/>
<circle cx="55.6121" cy="16.4946" r="2.25" transform="rotate(-90 55.6121 16.4946)" stroke="#151515" stroke-width="1.5"/>
<circle cx="55.6121" cy="16.4946" r="2.25" transform="rotate(-90 55.6121 16.4946)" stroke="#151515" stroke-width="1.5"/>
<circle cx="60.3121" cy="11.7949" r="2.25" transform="rotate(-90 60.3121 11.7949)" fill="#C2C2C2"/>
<circle cx="60.3121" cy="11.7949" r="2.25" transform="rotate(-90 60.3121 11.7949)" stroke="#151515" stroke-width="1.5"/>
<circle cx="60.3121" cy="11.7949" r="2.25" transform="rotate(-90 60.3121 11.7949)" stroke="#151515" stroke-width="1.5"/>
<circle cx="60.3121" cy="21.1948" r="2.25" transform="rotate(-90 60.3121 21.1948)" fill="#C2C2C2"/>
<circle cx="60.3121" cy="21.1948" r="2.25" transform="rotate(-90 60.3121 21.1948)" stroke="#151515" stroke-width="1.5"/>
<circle cx="60.3121" cy="21.1948" r="2.25" transform="rotate(-90 60.3121 21.1948)" stroke="#151515" stroke-width="1.5"/>
<path d="M39.8235 41.0962C50.2144 41.0962 55.3266 42.1655 61.4352 47.8472C64.2919 50.5042 66.93 53.244 69.3497 56.0665C72.5956 55.3206 79.8724 51.2518 79.8724 44.734C79.8724 38.2162 75.6792 11.0555 67.5942 6.67361C65.8893 5.7496 66.0677 4.03549 63.9619 3.29334C61.8561 2.55118 55.6696 0.874 53.7168 1.00753C51.764 1.14106 50.5899 2.26896 49.2216 2.26896C47.8534 2.26896 39.8793 2.26896 39.8793 2.26896" stroke="#3F3F3F" stroke-linecap="round" stroke-linejoin="round"/>
<path d="M41.0489 41.0962C30.6581 41.0962 25.5459 42.1655 19.4372 47.8472C16.5806 50.5042 13.9424 53.244 11.5228 56.0665C8.27685 55.3206 1.00002 51.2518 1.00002 44.734C1.00002 38.2162 5.19319 11.0555 13.2783 6.67361C14.9831 5.7496 14.8048 4.03549 16.9106 3.29334C19.0164 2.55118 25.2028 0.874 27.1557 1.00753C29.1085 1.14106 30.2825 2.26896 31.6508 2.26896C33.019 2.26896 40.9932 2.26896 40.9932 2.26896" stroke="#3F3F3F" stroke-linecap="round" stroke-linejoin="round"/>
<circle cx="51.1944" cy="32.0772" r="5.88235" stroke="#3F3F3F" stroke-linecap="round" stroke-linejoin="round"/>
<circle cx="19.1356" cy="16.6656" r="5.88235" stroke="#3F3F3F" stroke-linecap="round" stroke-linejoin="round"/>
<path d="M30.5005 26.1162V37.3354" stroke="#3F3F3F" stroke-linecap="round" stroke-linejoin="round"/>
<path d="M24.8909 31.7256H36.1101" stroke="#3F3F3F" stroke-linecap="round" stroke-linejoin="round"/>
<path d="M46.8121 16.6948H42.8121" stroke="#3F3F3F" stroke-linecap="round" stroke-linejoin="round"/>
<path d="M36.8121 16.6948H32.8121" stroke="#3F3F3F" stroke-linecap="round" stroke-linejoin="round"/>
<circle cx="11.3121" cy="56.1948" r="2.25" transform="rotate(-90 11.3121 56.1948)" fill="#C2C2C2"/>
<circle cx="11.3121" cy="56.1948" r="2.25" transform="rotate(-90 11.3121 56.1948)" stroke="#151515" stroke-width="1.5"/>
<circle cx="11.3121" cy="56.1948" r="2.25" transform="rotate(-90 11.3121 56.1948)" stroke="#151515" stroke-width="1.5"/>
<circle cx="69.3121" cy="56.1948" r="2.25" transform="rotate(-90 69.3121 56.1948)" fill="#C2C2C2"/>
<circle cx="69.3121" cy="56.1948" r="2.25" transform="rotate(-90 69.3121 56.1948)" stroke="#151515" stroke-width="1.5"/>
<circle cx="69.3121" cy="56.1948" r="2.25" transform="rotate(-90 69.3121 56.1948)" stroke="#151515" stroke-width="1.5"/>
</svg>
