<svg viewBox="0 0 24 24" xmlns="http://www.w3.org/2000/svg"><g><path fill="#12131A" fill-rule="evenodd" d="M22 9c0 .55-.04 1.07-.11 1.58 -.04.24-.25.41-.49.41h-4.25l-1.25-2.9c-.16-.37-.52-.61-.92-.61s-.77.23-.92.6l-2.09 4.85 -.59-1.36c-.16-.37-.52-.61-.92-.61H2.55c-.25 0-.46-.18-.49-.42 -.08-.51-.11-1.04-.11-1.59 0-3.32 2.68-6.01 6-6.01 1.53 0 2.93.57 4 1.52 1.06-.96 2.46-1.53 4-1.53 3.31 0 6 2.68 6 6ZM3.46 12.99c-.36 0-.6.35-.45.67 1.96 4.2 6.24 6.38 8.09 7.15 .56.23 1.19.23 1.76 0 1.85-.78 6.13-2.95 8.09-7.16 .14-.32-.1-.68-.45-.68h-4.04c-.4 0-.77-.24-.92-.61L14.95 11l-2.09 4.85c-.16.36-.52.6-.92.6s-.77-.24-.92-.61l-1.25-2.9H3.38Z"/></g></svg>