<svg viewBox="0 0 24 24" xmlns="http://www.w3.org/2000/svg"><g><g fill="#12131A" fill-rule="evenodd"><path d="M11.44 18.86c.18.18.18.49 0 .68 -1.94 1.93-5.07 1.93-7 0 -1.94-1.94-1.94-5.07 0-7.01 .18-.19.49-.19.68 0l6.31 6.31Z"/><path d="M12.85 17.43c.19.19.51.19.7 0l3.87-3.88c.19-.2.19-.52 0-.71l-6.3-6.3c-.2-.2-.52-.2-.71 0l-3.88 3.87c-.2.19-.2.51 0 .7l6.29 6.29Z"/><path d="M19.54 11.44c-.19.18-.5.18-.69 0l-6.32-6.32c-.19-.19-.19-.5 0-.69 1.93-1.94 5.06-1.94 6.99-.01 1.93 1.93 1.93 5.06 0 7Z"/></g></g></svg>