<svg viewBox="0 0 24 24" xmlns="http://www.w3.org/2000/svg"><g><g fill="#12131A" fill-rule="evenodd"><path d="M16.7 3.29c-.4-.4-1.03-.4-1.42 0 -.4.39-.4 1.02 0 1.41l1.29 1.29 -2.3 2.29c-.4.39-.4 1.02 0 1.41 .39.39 1.02.39 1.41 0l2.29-2.3 1.29 1.29c.39.39 1.02.39 1.41 0 .39-.4.39-1.03 0-1.42l-2-2 -2-2Z"/><path d="M12 4.58l7.41 7.41 -6.2 6.19c-1.19 1.18-2.88 1.69-4.52 1.36l-2.38-.48 -1.63 1.62c-.4.39-1.03.39-1.42 0 -.4-.4-.4-1.03 0-1.42l1.62-1.63 -.48-2.38c-.33-1.64.18-3.34 1.36-4.52l6.19-6.2Zm.29 7.7c.39-.4 1.02-.4 1.41 0l1 1c.39.39.39 1.02 0 1.41 -.4.39-1.03.39-1.42 0l-1-1c-.4-.4-.4-1.03 0-1.42Zm-1.09 2.5c-.4-.4-1.03-.4-1.42 0 -.4.39-.4 1.02 0 1.41l1 1c.39.39 1.02.39 1.41 0 .39-.4.39-1.03 0-1.42l-1-1Z"/><path d="M10.29 4.29c.39-.4 1.02-.4 1.41 0l8 8c.39.39.39 1.02 0 1.41 -.4.39-1.03.39-1.42 0l-8-8c-.4-.4-.4-1.03 0-1.42Z"/></g></g></svg>