<svg viewBox="0 0 24 24" xmlns="http://www.w3.org/2000/svg"><g><g fill="#12131A" fill-rule="evenodd"><path d="M8 6.58l9.41 9.41 -2.3 2.29c-1.18 1.17-3.08 1.17-4.25 0l-.25-.25 -1 1.41c-1.31 1.84-3.97 2.07-5.57.47 -1.61-1.61-1.38-4.26.47-5.57l1.41-1 -.25-.25c-1.18-1.18-1.18-3.08 0-4.25l2.29-2.3ZM8 9.4l-.88.87c-.4.39-.4 1.02 0 1.41l.66.66c.65.65.56 1.74-.2 2.28l-1.9 1.34c-.84.59-.94 1.79-.22 2.51 .72.72 1.92.62 2.51-.22l1.34-1.9c.53-.76 1.62-.86 2.28-.2l.66.66c.39.39 1.02.39 1.41 0l.87-.88 -6.59-6.59Z"/><path d="M10.41 4.17c1.56-1.57 4.09-1.57 5.65 0l3.75 3.75c1.56 1.56 1.56 4.09 0 5.65l-3.83 3.82 -9.42-9.42 3.82-3.83Zm4.24 1.41c-.79-.79-2.05-.79-2.83 0L9.4 7.99l6.58 6.58 2.41-2.42c.78-.79.78-2.05-.01-2.83l-3.76-3.76Z"/></g></g></svg>