<svg viewBox="0 0 24 24" xmlns="http://www.w3.org/2000/svg"><g><g fill="#12131A"><path d="M9.66 16.54l-2 3.25c-.86 1.38-2.78 1.61-3.94.46 -1.16-1.16-.93-3.08.46-3.94l3.25-2c.27-.17.32-.56.09-.78l-1.14-1.14c-.79-.79-.79-2.05 0-2.83l.73-.74c.19-.2.51-.2.7 0l7.29 7.29c.19.19.19.51 0 .7l-.74.73c-.79.78-2.05.78-2.83 0l-1.14-1.14c-.23-.23-.62-.19-.78.09Z"/><path d="M16.64 14.64l-7.3-7.3c-.2-.2-.2-.52 0-.71l2.76-2.77c1.17-1.18 3.07-1.18 4.24 0l3.75 3.75c1.17 1.17 1.17 3.07 0 4.24l-2.77 2.76c-.2.19-.52.19-.71 0Z"/></g></g></svg>