<svg viewBox="0 0 24 24" xmlns="http://www.w3.org/2000/svg"><g><path fill="#12131A" fill-rule="evenodd" d="M21 17c0 .55-.45 1-1 1H9c-1.66 0-3-1.35-3-3V4c0-.56.44-1 1-1 .55 0 1 .44 1 1v11c0 .55.44 1 1 1h11c.55 0 1 .44 1 1Z"/><g fill="#12131A"><path d="M10 11c0-.56.44-1 1-1h2c.55 0 1 .44 1 1v2c0 .55-.45 1-1 1h-2c-.56 0-1-.45-1-1v-2Z"/><path d="M4 6c-.56 0-1 .44-1 1 0 .55.44 1 1 1h3c.55 0 1-.45 1-1 0-.56-.45-1-1-1H4Z"/><path d="M10 7c0-.56.44-1 1-1h4c1.65 0 3 1.34 3 3v4c0 .55-.45 1-1 1 -.56 0-1-.45-1-1V9c0-.56-.45-1-1-1h-4c-.56 0-1-.45-1-1Z"/><path d="M17 16c.55 0 1 .44 1 1v3c0 .55-.45 1-1 1 -.56 0-1-.45-1-1v-3c0-.56.44-1 1-1Z"/></g></g></svg>