<svg viewBox="0 0 24 24" xmlns="http://www.w3.org/2000/svg"><g><g fill="#12131A"><path d="M9 19h11c.55 0 1 .44 1 1 0 .55-.45 1-1 1H9v-2Z"/><path fill="#12131A" fill-rule="evenodd" d="M18.06 4.17c-1.57-1.57-4.1-1.57-5.66-.01l-8.24 8.23c-1.6 1.59-1.56 4.2.09 5.74l2.16 2.02c.55.52 1.28.81 2.05.81h.69c.79 0 1.55-.32 2.12-.88l8.53-8.54c1.56-1.57 1.56-4.1 0-5.66l-1.76-1.76Zm-4.25 1.41c.78-.79 2.04-.79 2.82 0l1.75 1.75c.78.78.78 2.04-.01 2.82l-3.42 3.41 -4.59-4.59 3.41-3.42ZM8.98 10.4l-3.42 3.41c-.8.79-.78 2.1.04 2.87l2.16 2.02c.18.17.42.27.68.27h.69c.26 0 .51-.11.7-.3l3.7-3.71 -4.59-4.59Z"/></g></g></svg>