<svg viewBox="0 0 24 24" xmlns="http://www.w3.org/2000/svg"><g><path fill="#12131A" fill-rule="evenodd" d="M3.5 7c-.28 0-.51-.23-.47-.5 .22-1.82 1.66-3.25 3.47-3.48 .27-.04.49.19.49.46v3c0 .27-.23.5-.5.5h-3ZM3 9.5c0-.28.22-.5.5-.5h3c.27 0 .5.22.5.5v5c0 .27-.23.5-.5.5h-3c-.28 0-.5-.23-.5-.5v-5Zm4 8c0-.28-.23-.5-.5-.5h-3c-.28 0-.51.22-.47.49 .22 1.81 1.66 3.24 3.47 3.47 .27.03.49-.2.49-.47v-3Zm2 0c0-.28.22-.5.5-.5h5c.27 0 .5.22.5.5v3c0 .27-.23.5-.5.5h-5c-.28 0-.5-.23-.5-.5v-3Zm6-3c0 .27-.23.5-.5.5h-5c-.28 0-.5-.23-.5-.5v-5c0-.28.22-.5.5-.5h5c.27 0 .5.22.5.5v5Zm2.5 2.5c-.28 0-.5.22-.5.5v3c0 .27.22.5.49.46 1.81-.23 3.24-1.66 3.47-3.48 .03-.28-.2-.5-.47-.5h-3Zm3.5-2.5c0 .27-.23.5-.5.5h-3c-.28 0-.5-.23-.5-.5v-5c0-.28.22-.5.5-.5h3c.27 0 .5.22.5.5v5Zm-12-8c0 .27.22.5.5.5h5c.27 0 .5-.23.5-.5v-3c0-.28-.23-.5-.5-.5h-5c-.28 0-.5.22-.5.5v3Zm8 0c0 .27.22.5.5.5h3c.27 0 .5-.23.46-.5 -.23-1.82-1.66-3.25-3.48-3.48 -.28-.04-.5.19-.5.46v3Z"/></g></svg>