<svg viewBox="0 0 24 24" xmlns="http://www.w3.org/2000/svg"><g><g fill="#12131A" fill-rule="evenodd"><path d="M9 3c-.56 0-1 .44-1 1v4H4c-.56 0-1 .44-1 1 0 .55.44 1 1 1h4v4H4c-.56 0-1 .44-1 1 0 .55.44 1 1 1h4v4c0 .55.44 1 1 1 .55 0 1-.45 1-1v-4h4v4c0 .55.44 1 1 1 .55 0 1-.45 1-1v-4h4c.55 0 1-.45 1-1 0-.56-.45-1-1-1h-4v-4h4c.55 0 1-.45 1-1 0-.56-.45-1-1-1h-4V4c0-.56-.45-1-1-1 -.56 0-1 .44-1 1v4h-4V4c0-.56-.45-1-1-1Zm5 11v-4h-4v4h4Z"/><path d="M3 8c0-2.77 2.23-5 5-5h8c2.76 0 5 2.23 5 5v8c0 2.76-2.24 5-5 5H8c-2.77 0-5-2.24-5-5V8Zm5-3C6.34 5 5 6.34 5 8v8c0 1.65 1.34 3 3 3h8c1.65 0 3-1.35 3-3V8c0-1.66-1.35-3-3-3H8Z"/></g></g></svg>