<svg viewBox="0 0 24 24" xmlns="http://www.w3.org/2000/svg"><g><g fill="#12131A" fill-rule="evenodd"><path d="M4.46 4.46c-.37.36-.68.79-.92 1.26 -.31.59-.43 1.23-.49 1.96 -.06.7-.06 1.58-.06 2.66v.04 3.2 .04c-.01 1.08-.01 1.95.05 2.66 .05.72.18 1.36.48 1.96 .47.94 1.24 1.7 2.18 2.18 .59.3 1.23.42 1.96.48 .7.05 1.58.05 2.66.05h0 .04 3.2 .04 0c1.08 0 1.95 0 2.66-.06 .72-.06 1.36-.19 1.96-.49 .47-.24.89-.56 1.26-.92l-1.42-1.42c-.23.22-.48.4-.76.55 -.27.13-.62.22-1.22.27 -.62.05-1.41.05-2.55.05h-3.2c-1.14 0-1.93-.01-2.55-.06 -.61-.05-.96-.15-1.22-.28 -.57-.29-1.03-.75-1.32-1.32 -.05-.09-.09-.18-.12-.29l1.19-.74c.46-.29.52-.31.55-.32 .06-.02.13-.03.19-.02 .03 0 .09.02.58.26l.52.25 .08.04c.37.18.75.36 1.15.42 .35.04.71.01 1.061-.09 .39-.13.73-.37 1.07-.61l.08-.06 2.5-1.79c.04-.03.07-.06.11-.09l-1.44-1.44 -2.35 1.67c-.48.34-.54.36-.58.38 -.07.02-.15.02-.22.01 -.05-.01-.11-.03-.64-.29l-.53-.26 -.09-.05c-.35-.18-.7-.35-1.09-.4 -.34-.06-.68-.04-1 .05 -.38.09-.71.3-1.04.5h-.01l-.08.04 -.35.21c-.01-.37-.01-.78-.01-1.25v-3.2c0-1.14 0-1.93.05-2.55 .04-.61.14-.96.27-1.22 .14-.29.33-.54.55-.76L4.22 4.25Zm3.12 3.12c-.37.36-.59.86-.59 1.41 0 1.1.89 2 2 2 .55 0 1.05-.23 1.41-.59L7.57 7.57Z"/><path d="M16.14 5.05c-.62-.06-1.41-.06-2.55-.06h-3.6c-.56 0-1-.45-1-1 0-.56.44-1 1-1h3.64c1.08-.01 1.95-.01 2.66.05 .72.05 1.36.18 1.96.48 .94.47 1.7 1.24 2.18 2.18 .3.59.42 1.23.48 1.96 .05.7.05 1.58.05 2.66v3.64c0 .55-.45 1-1 1 -.56 0-1-.45-1-1v-3.6c0-1.14-.01-1.93-.06-2.55 -.05-.61-.15-.96-.28-1.22 -.29-.57-.75-1.03-1.32-1.32 -.27-.14-.62-.23-1.22-.28Z"/><path d="M2.29 2.29c.39-.4 1.02-.4 1.41 0l17.99 18c.39.39.39 1.02 0 1.41 -.4.39-1.03.39-1.42 0L2.26 3.7c-.4-.4-.4-1.03 0-1.42Z"/></g></g></svg>