<svg viewBox="0 0 24 24" xmlns="http://www.w3.org/2000/svg"><g><path fill="#12131A" fill-rule="evenodd" d="M3 9.4c0-2.25 0-3.37.43-4.22 .38-.76.99-1.37 1.74-1.75 .85-.44 1.97-.44 4.21-.44h5.2c2.24 0 3.36 0 4.21.43 .75.38 1.36.99 1.74 1.74 .43.85.43 1.97.43 4.21v3.52c0 .48 0 .72-.11.85 -.09.11-.23.18-.37.19 -.17.01-.37-.12-.78-.39l-2.85-1.86 -.1-.07c-.4-.26-.8-.52-1.25-.62 -.4-.09-.8-.08-1.19.02 -.45.11-.84.39-1.22.67l-.1.06 -2.51 1.78c-.48.34-.54.36-.58.38 -.07.02-.15.02-.22.01 -.05-.01-.11-.03-.64-.29l-.53-.26 -.09-.05c-.35-.18-.7-.35-1.09-.4 -.34-.06-.68-.04-1 .05 -.38.09-.71.3-1.04.5l-.08.04 -1.94 1.19c-.19.11-.42-.02-.42-.24v-5.2Zm.49 7.73c-.16.09-.24.14-.29.21 -.05.05-.09.14-.1.21 -.02.08-.01.16.02.32 .06.35.15.65.29.92 .38.75.99 1.36 1.74 1.74 .85.43 1.97.43 4.21.43h5.2c2.24 0 3.36 0 4.21-.44 .75-.39 1.36-1 1.74-1.75 .21-.43.32-.93.38-1.6 .01-.16.01-.24-.01-.32 -.02-.07-.06-.14-.1-.2 -.06-.07-.13-.11-.27-.21l-4.77-3.11c-.57-.37-.64-.4-.68-.41 -.08-.02-.16-.02-.24 0 -.05.01-.12.04-.67.43l-2.51 1.78 -.09.05c-.34.24-.68.48-1.08.6 -.35.1-.71.13-1.061.08 -.41-.06-.79-.24-1.16-.43l-.09-.05 -.53-.26c-.5-.24-.55-.26-.59-.27 -.07-.02-.14-.01-.2.01 -.04.01-.1.03-.56.31l-2.91 1.79Zm7.5-8.14c0 1.1-.9 2-2 2 -1.11 0-2-.9-2-2 0-1.11.89-2 2-2 1.1 0 2 .89 2 2Z"/></g></svg>