<svg viewBox="0 0 24 24" xmlns="http://www.w3.org/2000/svg"><g><g fill="#12131A"><path d="M3.2 17.31c-.08-.32-.12-.65-.15-1.01 -.03-.37-.05-.77-.06-1.23l2.34-1.45 .07-.05c.32-.21.66-.42 1.03-.51 .32-.09.66-.11.99-.06 .38.05.73.22 1.08.39l.08.04 .52.25c.52.25.59.27.63.28 .07 0 .14 0 .21-.02 .04-.02.1-.04.57-.39l2.5-1.79 .09-.07c.38-.28.76-.56 1.21-.68 .38-.11.79-.12 1.186-.03 .44.09.84.35 1.24.61l.09.06 4.08 2.65c-.01.74-.02 1.37-.06 1.91 -.02.13-.03.27-.05.4l-5.08-3.31c-.57-.37-.64-.4-.68-.41 -.08-.02-.16-.02-.24 0 -.05.01-.12.04-.67.43l-2.51 1.78 -.09.05c-.34.24-.68.48-1.08.6 -.35.1-.71.13-1.07.08 -.41-.06-.79-.24-1.16-.43l-.09-.05 -.53-.26c-.5-.24-.55-.26-.59-.27 -.07-.02-.14-.01-.2.01 -.04.01-.1.03-.56.31l-3.2 1.97Z"/><path d="M10.99 9c0 1.1-.9 2-2 2 -1.11 0-2-.9-2-2 0-1.11.89-2 2-2 1.1 0 1.99.89 1.99 2Z"/><path fill="#12131A" fill-rule="evenodd" d="M10.35 3h3.28c1.08-.01 1.95-.01 2.66.05 .72.05 1.36.18 1.96.48 .94.47 1.7 1.24 2.18 2.18 .3.59.42 1.23.48 1.96 .05.7.05 1.58.05 2.66v3.28c0 1.08 0 1.95-.06 2.66 -.06.72-.19 1.36-.49 1.96 -.48.94-1.25 1.7-2.19 2.18 -.6.3-1.24.42-1.97.48 -.71.05-1.59.05-2.67.05h-3.29c-1.09 0-1.96 0-2.67-.06 -.73-.06-1.37-.19-1.97-.49 -.95-.48-1.71-1.25-2.19-2.19 -.31-.6-.43-1.24-.49-1.97 -.06-.71-.06-1.59-.06-2.67v-3.29c-.01-1.09-.01-1.96.05-2.67 .05-.73.18-1.37.48-1.97 .47-.95 1.24-1.71 2.18-2.19 .59-.31 1.23-.43 1.96-.49 .7-.06 1.58-.06 2.66-.06ZM7.84 5.05c-.61.04-.96.14-1.22.27 -.57.28-1.03.74-1.32 1.31 -.14.26-.23.61-.28 1.21 -.06.61-.06 1.4-.06 2.54v3.2c0 1.13 0 1.92.05 2.54 .04.6.14.95.27 1.21 .28.56.74 1.02 1.31 1.31 .26.13.61.22 1.21.27 .61.05 1.4.05 2.54.05h3.2c1.13 0 1.92-.01 2.54-.06 .6-.05.95-.15 1.21-.28 .56-.29 1.02-.75 1.31-1.32 .13-.27.22-.62.27-1.22 .05-.62.05-1.41.05-2.55v-3.2c0-1.14-.01-1.93-.06-2.55 -.05-.61-.15-.96-.28-1.22 -.29-.57-.75-1.03-1.32-1.32 -.27-.14-.62-.23-1.22-.28 -.62-.06-1.41-.06-2.55-.06h-3.2c-1.14 0-1.93 0-2.55.05Z"/></g></g></svg>