<svg viewBox="0 0 24 24" xmlns="http://www.w3.org/2000/svg"><g><g fill="#12131A" fill-rule="evenodd"><path d="M4.17 4.17c-.3.29-.55.63-.74 1.01 -.44.85-.44 1.97-.44 4.21v5.2c0 .21.23.34.41.23l1.93-1.2 .07-.05c.32-.21.66-.42 1.03-.51 .32-.09.66-.11.99-.06 .38.05.73.22 1.08.39l.08.04 .52.25c.52.25.59.27.63.28 .07 0 .14 0 .21-.02 .04-.02.1-.04.57-.39l1.76-1.27 -1.94-1.94c-.37.36-.87.58-1.42.58 -1.11 0-2-.9-2-2.01 0-.56.22-1.06.58-1.42L4.07 4.07Zm9.6 9.6l-2.04 1.45 -.09.05c-.34.24-.68.48-1.08.6 -.35.1-.71.13-1.061.08 -.41-.06-.79-.24-1.16-.43l-.09-.05 -.53-.26c-.5-.24-.55-.26-.59-.27 -.07-.02-.14-.01-.2.01 -.04.01-.1.03-.56.31l-2.91 1.79c-.16.09-.24.14-.29.21 -.05.05-.09.14-.1.21 -.02.08-.01.16.02.32 .06.35.15.65.29.92 .38.75.99 1.36 1.74 1.74 .85.43 1.97.43 4.21.43h5.2c2.24 0 3.36 0 4.21-.44 .37-.2.71-.45 1.01-.74l-6.05-6.05Z"/><path d="M17.089 5.03c-.46-.04-1.04-.04-1.89-.04h-5.2c-.56 0-1-.45-1-1 0-.56.44-1 1-1h5.24c.8-.01 1.46-.01 2.01.04 .56.04 1.07.14 1.56.39 .75.38 1.36.99 1.74 1.74 .24.48.34 1 .39 1.56 .04.54.04 1.2.04 2.01v5.24c0 .55-.45 1-1 1 -.56 0-1-.45-1-1v-5.2c0-.86-.01-1.44-.04-1.89 -.04-.44-.11-.67-.19-.82 -.2-.38-.5-.69-.88-.88 -.16-.08-.39-.15-.82-.19Z"/><path d="M2.29 2.29c.39-.4 1.02-.4 1.41 0l17.99 18c.39.39.39 1.02 0 1.41 -.4.39-1.03.39-1.42 0L2.26 3.7c-.4-.4-.4-1.03 0-1.42Z"/></g></g></svg>