<svg viewBox="0 0 24 24" xmlns="http://www.w3.org/2000/svg"><g><g fill="#12131A" fill-rule="evenodd"><path d="M15.14 13c-.08-.02-.16-.02-.24 0 -.05.01-.12.04-.67.43l-2.51 1.78c-.03.01-.06.03-.09.05 -.34.24-.68.48-1.08.6 -.35.1-.71.13-1.07.08 -.41-.06-.79-.24-1.16-.43 -.03-.02-.06-.03-.09-.05l-.53-.26c-.5-.24-.55-.26-.59-.27 -.07-.02-.14-.01-.2.01 -.04.01-.1.03-.56.31L4.47 16.4l-1.06-1.71 1.87-1.16 .52.85 -.53-.86c.02-.02.05-.04.07-.05 .32-.21.66-.42 1.03-.51 .32-.09.66-.11.99-.06 .38.05.73.22 1.08.39 .02.01.05.02.08.04l.52.25c.52.25.59.27.63.28 .07 0 .14 0 .21-.02 .04-.02.1-.04.57-.39l2.5-1.79c.03-.03.06-.05.09-.07 .38-.28.76-.56 1.21-.68 .38-.11.79-.12 1.18-.03 .36.08.67.25.95.43 .46.29.6.91.31 1.37 -.3.46-.92.6-1.38.31 -.26-.16-.32-.18-.33-.18h-.01Z"/><path d="M22.7 16.29c.39.39.39 1.02 0 1.41l-4 4c-.4.39-1.03.39-1.42 0l-2-2c-.4-.4-.4-1.03 0-1.42 .39-.4 1.02-.4 1.41 0l1.29 1.29 3.29-3.3c.39-.4 1.02-.4 1.41 0Z"/></g><g fill="#12131A"><path d="M9 11c1.1 0 2-.9 2-2 0-1.11-.9-2-2-2 -1.11 0-2 .89-2 2 0 1.1.89 2 2 2Z"/><path d="M14.9 13.01c.07-.03.15-.03.23-.01 .01 0 .06.01.32.17 .46.29 1.08.15 1.37-.32 .29-.47.15-1.09-.32-1.38 -.28-.18-.59-.36-.96-.44 -.4-.09-.8-.08-1.19.02 -.45.11-.84.39-1.22.67l-.1.06 -2.51 1.78c-.48.34-.54.36-.58.38 -.07.02-.15.02-.22.01 -.05-.01-.11-.03-.64-.29l-.53-.26 -.09-.05c-.35-.18-.7-.35-1.09-.4 -.34-.06-.68-.04-1 .05 -.38.09-.71.3-1.04.5l-.08.04 -1.88 1.15c-.47.29-.62.9-.33 1.37 .29.46.9.61 1.37.32l1.87-1.16c.46-.29.52-.31.55-.32 .06-.02.13-.03.19-.02 .03 0 .09.02.58.26l.52.25 .08.04c.37.18.75.36 1.15.42 .35.04.71.01 1.06-.09 .39-.13.73-.37 1.07-.61l.08-.06 2.5-1.79c.54-.4.61-.43.66-.44Z"/><path fill="#12131A" fill-rule="evenodd" d="M10.35 3h3.28c1.08-.01 1.95-.01 2.66.05 .72.05 1.36.18 1.96.48 .94.47 1.7 1.24 2.18 2.18 .3.59.42 1.23.48 1.96 .05.7.05 1.58.05 2.66v3.64c0 .55-.45 1-1 1 -.56 0-1-.45-1-1v-3.6c0-1.14-.01-1.93-.06-2.55 -.05-.61-.15-.96-.28-1.22 -.29-.57-.75-1.03-1.32-1.32 -.27-.14-.62-.23-1.22-.28 -.62-.06-1.41-.06-2.55-.06h-3.2c-1.14 0-1.93 0-2.55.05 -.61.04-.96.14-1.22.27 -.57.28-1.03.74-1.32 1.31 -.14.26-.23.61-.28 1.21 -.06.61-.06 1.4-.06 2.54v3.2c0 1.13 0 1.92.05 2.54 .04.6.14.95.27 1.21 .28.56.74 1.02 1.31 1.31 .26.13.61.22 1.21.27 .61.05 1.4.05 2.54.05h1.6c.55 0 1 .44 1 1 0 .55-.45 1-1 1h-1.65c-1.09 0-1.96 0-2.67-.06 -.73-.06-1.37-.19-1.97-.49 -.95-.48-1.71-1.25-2.19-2.19 -.31-.6-.43-1.24-.49-1.97 -.06-.71-.06-1.59-.06-2.67v-3.29c-.01-1.09-.01-1.96.05-2.67 .05-.73.18-1.37.48-1.97 .47-.95 1.24-1.71 2.18-2.19 .59-.31 1.23-.43 1.96-.49 .7-.06 1.58-.06 2.66-.06Z"/></g></g></svg>