<svg viewBox="0 0 24 24" xmlns="http://www.w3.org/2000/svg"><g><g fill="#12131A" fill-rule="evenodd"><path d="M22.7 16.29c.39.39.39 1.02 0 1.41l-4 4c-.4.39-1.03.39-1.42 0l-2-2c-.4-.4-.4-1.03 0-1.42 .39-.4 1.02-.4 1.41 0l1.29 1.29 3.29-3.3c.39-.4 1.02-.4 1.41 0Z"/><path d="M3.43 5.18c-.44.85-.44 1.97-.44 4.21v5.2c0 .21.23.34.41.23l1.93-1.2 .07-.05c.32-.21.66-.42 1.03-.51 .32-.09.66-.11.99-.06 .38.05.73.22 1.08.39l.08.04 .52.25c.52.25.59.27.63.28 .07 0 .14 0 .21-.02 .04-.02.1-.04.57-.39l2.5-1.79 .09-.07c.38-.28.76-.56 1.21-.68 .38-.11.79-.12 1.18-.03 .44.09.84.35 1.24.61l.09.06 1.82 1.18c.07.04.16.07.25.07h1.2c.28 0 .42 0 .52-.06 .09-.05.17-.13.21-.22 .05-.11.05-.25.05-.53v-2.8c0-2.25 0-3.37-.44-4.22 -.39-.76-1-1.37-1.75-1.75 -.86-.44-1.98-.44-4.22-.44h-5.2c-2.25 0-3.37 0-4.22.43 -.76.38-1.37.99-1.75 1.74Zm5.56 5.81c1.1 0 2-.9 2-2 0-1.11-.9-2-2-2 -1.11 0-2 .89-2 2 0 1.1.89 2 2 2Z"/></g><path fill="#12131A" d="M15.82 13.41c.18.11.16.38-.02.5 -1.69 1.06-2.82 2.94-2.82 5.08v1.2c0 .28 0 .42-.06.52 -.05.09-.13.17-.22.21 -.11.05-.25.05-.53.05h-2.8c-2.25 0-3.37 0-4.22-.44 -.76-.39-1.37-1-1.75-1.75 -.14-.28-.24-.58-.3-.93 -.03-.16-.05-.24-.03-.33 .01-.08.05-.16.09-.22 .05-.08.13-.12.28-.22l2.9-1.8c.46-.29.52-.31.55-.32 .06-.02.13-.03.19-.02 .03 0 .09.02.58.26l.52.25 .08.04c.37.18.75.36 1.15.42 .35.04.71.01 1.061-.09 .39-.13.73-.37 1.07-.61l.08-.06 2.5-1.79c.54-.4.61-.43.66-.44 .07-.03.15-.03.23-.01 .04.01.11.03.67.4Z"/></g></svg>