<svg viewBox="0 0 24 24" xmlns="http://www.w3.org/2000/svg"><g><g fill-rule="evenodd" fill="#12131A"><path opacity=".25" d="M18 7c0-.56-.45-1-1-1v0c-.56 0-1-.45-1-1v0c0-.56.44-1 1-1v0c1.65 0 3 1.34 3 3v1.23c0 1.51-1.13 2.78-2.63 2.97l-4.5.56c-.51.06-.88.48-.88.99v1.23c0 .55-.45 1-1 1v0c-.56 0-1-.45-1-1v-1.24c0-1.513 1.12-2.79 2.62-2.98l4.49-.57c.5-.07.87-.49.87-1V6.95Z"/><path d="M11 13c-1.11 0-2 .89-2 2v5c0 1.1.89 2 2 2 1.1 0 2-.9 2-2v-5c0-1.11-.9-2-2-2Z"/></g><path fill="#12131A" d="M4 4c0-1.11.89-2 2-2h10c1.1 0 2 .89 2 2v2c0 1.1-.9 2-2 2H6c-1.11 0-2-.9-2-2V4Z"/></g></svg>