<svg viewBox="0 0 24 24" xmlns="http://www.w3.org/2000/svg"><g><g fill="#12131A"><path d="M21 19.4c0 .88-.68 1.6-1.5 1.6 -.83 0-1.5-.72-1.5-1.6 0-.85.73-1.78 1.17-2.26 .17-.2.46-.2.64 0 .44.48 1.17 1.41 1.17 2.25Z"/><path fill="#12131A" fill-rule="evenodd" d="M10.58 6.41L7.9 9.08l-.87-.87c-.74-.74-.74-1.94 0-2.68 .73-.74 1.93-.74 2.67 0l.86.85Zm1.41-1.42l2 2 5.7 5.7c.56.56.26 1.53-.52 1.68l-2.89.54c-.2.03-.38.13-.52.27l-5.2 5.19c-.79.78-2.05.78-2.83 0l-4.18-4.18c-.79-.79-.79-2.05-.01-2.83l2.91-2.92 -.87-.87c-1.52-1.52-1.52-3.99 0-5.5 1.51-1.52 3.98-1.52 5.49 0l.86.86 0-.01ZM6.01 15.84c-.32-.32-.1-.86.35-.86h5.58c.44 0 .66.53.35.85l-2.8 2.79c-.2.19-.52.19-.71 0l-2.8-2.8Z"/></g></g></svg>