<svg viewBox="0 0 24 24" xmlns="http://www.w3.org/2000/svg"><g><g fill="#12131A" fill-rule="evenodd"><path d="M18 8c0-.56-.45-1-1-1 -.56 0-1-.45-1-1 0-.56.44-1 1-1 1.65 0 3 1.34 3 3v2.23c0 1.513-1.13 2.78-2.63 2.97l-4.5.56c-.51.06-.88.48-.88.99v.23c0 .55-.45 1-1 1 -.56 0-1-.45-1-1v-.24c0-1.513 1.12-2.79 2.62-2.98l4.49-.57c.5-.07.87-.49.87-1V7.95Z"/><path d="M11 14c-1.11 0-2 .89-2 2v4c0 1.1.89 2 2 2 1.1 0 2-.9 2-2v-4c0-1.11-.9-2-2-2Z"/><path d="M15 4H7c-.56 0-1 .44-1 1v2c0 .55.44 1 1 1h8c.55 0 1-.45 1-1V5c0-.56-.45-1-1-1ZM7 2C5.34 2 4 3.34 4 5v2c0 1.65 1.34 3 3 3h8c1.65 0 3-1.35 3-3V5c0-1.66-1.35-3-3-3H7Z"/></g></g></svg>