<svg viewBox="0 0 24 24" xmlns="http://www.w3.org/2000/svg"><g><g fill="#12131A"><path d="M4 15h11l-2 2H5l-1-2Z"/><path fill="#12131A" fill-rule="evenodd" d="M11.53 4.12c-1.5-1.5-3.92-1.5-5.42-.01s-1.5 3.91-.01 5.41l.46.46 -2.71 2.7c-1.18 1.17-1.18 3.07 0 4.24l3.17 3.17c1.17 1.17 3.07 1.17 4.24 0l4.71-4.72h1.99c1.78 0 2.67-2.16 1.41-3.42l-6-6 0-.01 -.71-.71 -1.18-1.18ZM7.52 5.53c.71-.72 1.87-.72 2.58 0l.46.46 -2.59 2.58 -.47-.47c-.72-.72-.72-1.88 0-2.59Zm-2.25 8.58l6.7-6.71 5.99 5.99h-2c-.54 0-1.04.21-1.42.58l-4.72 4.71c-.4.39-1.03.39-1.42 0L5.22 15.5c-.4-.4-.4-1.03 0-1.42Z"/><path d="M21 19.4c0 .88-.68 1.6-1.5 1.6 -.83 0-1.5-.72-1.5-1.6 0-.85.73-1.78 1.17-2.26 .17-.2.46-.2.64 0 .44.48 1.17 1.41 1.17 2.25Z"/></g></g></svg>