<svg viewBox="0 0 24 24" xmlns="http://www.w3.org/2000/svg"><g><g fill="#12131A"><path d="M18 21h-8c1.3 0 2.41-.84 2.82-2h5.17c.55 0 1-.45 1-1v-4c0-.56-.45-1-1-1l-5.01 5v-2.83l4.7-4.71c.39-.4.39-1.03 0-1.42l-2.76-2.76c-.4-.4-1.03-.4-1.42-.01l-.54.53v-.83c0-.55-.15-1.07-.41-1.51 1.16-.77 2.74-.64 3.76.38l2.75 2.75c1.02 1.02 1.15 2.6.38 3.76 .89.51 1.49 1.48 1.49 2.59v4c0 1.65-1.35 3-3 3Z"/><path fill="#12131A" fill-rule="evenodd" d="M10 5H6c-.56 0-1 .44-1 1v12c0 .55.44 1 1 1h4c.55 0 1-.45 1-1V6c0-.56-.45-1-1-1ZM6 3C4.34 3 3 4.34 3 6v12c0 1.65 1.34 3 3 3h4c1.65 0 3-1.35 3-3V6c0-1.66-1.35-3-3-3H6Z"/><path d="M9 16c0 .55-.45 1-1 1 -.56 0-1-.45-1-1 0-.56.44-1 1-1 .55 0 1 .44 1 1Z"/></g></g></svg>