<svg viewBox="0 0 24 24" xmlns="http://www.w3.org/2000/svg"><g><g fill="#12131A"><path d="M12.68 20.14c-.32.31-.1.85.35.85h5.96c1.1 0 2-.9 2-2v-4c0-.86-.54-1.59-1.3-1.88l-7.02 7.01Z"/><path d="M13 15.79c0 .44.53.66.85.35l5.56-5.57c.78-.79.78-2.05 0-2.83l-3.18-3.18c-.79-.79-2.05-.79-2.83-.01l-.42.41v10.79Z"/><path fill="#12131A" fill-rule="evenodd" d="M5 3c-1.11 0-2 .89-2 2v14c0 1.1.89 2 2 2h4c1.1 0 2-.9 2-2V5c0-1.11-.9-2-2-2H5Zm2 15c.55 0 1-.45 1-1 0-.56-.45-1-1-1 -.56 0-1 .44-1 1 0 .55.44 1 1 1Z"/></g></g></svg>