<svg viewBox="0 0 24 24" xmlns="http://www.w3.org/2000/svg"><g><g fill="#12131A"><path d="M14.41 20.41l-1.42-1.42 6-6 1.41 1.41c.78.78.78 2.04 0 2.82l-3.18 3.17c-.79.78-2.05.78-2.83 0Z"/><path opacity=".25" d="M4.5 13.18L3.01 4.66c-.02-.12-.03-.23-.03-.35v-.33c0-.56.44-1 1-1h.32c.11 0 .22 0 .34.02l8.51 1.48c1.74.3 3.2 1.51 3.82 3.17l1.99 5.31 -6 6 -5.32-2c-1.67-.63-2.87-2.08-3.18-3.83Z"/><path fill="#12131A" fill-rule="evenodd" d="M4.7 3.29c-.4-.4-1.03-.4-1.42 0 -.4.39-.4 1.02 0 1.41l5.77 5.77c-.05.16-.07.33-.07.51 0 1.1.89 2 2 2 1.1 0 2-.9 2-2 0-1.11-.9-2-2-2 -.18 0-.36.02-.52.06L4.68 3.26Z"/></g></g></svg>