<svg viewBox="0 0 24 24" xmlns="http://www.w3.org/2000/svg"><g><path fill="#12131A" fill-rule="evenodd" d="M5.18 3.01C3.93 2.89 2.89 3.93 3 5.18l.68 7.49c.22 2.46 1.94 4.54 4.32 5.22l3.45.98 1.23 1.23c1.17 1.17 3.07 1.17 4.24 0l3.17-3.18c1.17-1.18 1.17-3.08 0-4.25l-1.24-1.24 -.99-3.46c-.69-2.39-2.76-4.11-5.23-4.33l-7.5-.69Zm12.81 10.4l-4.59 4.58 .7.7c.39.39 1.02.39 1.41 0l3.17-3.18c.39-.4.39-1.03 0-1.42l-.71-.71ZM4.99 5l7.49.68c1.64.14 3.03 1.29 3.48 2.88l.89 3.13 -5.17 5.16 -3.14-.9c-1.59-.46-2.74-1.84-2.89-3.484l-.69-7.5Z"/><path fill="#12131A" d="M3.07 4.48l5.99 5.99c-.05.16-.07.33-.07.51 0 1.1.89 2 1.99 2s2-.9 2-2c0-1.11-.9-2.01-2-2.01 -.18 0-.36.02-.52.06l-6-6c-.69.18-1.24.72-1.42 1.41Z"/></g></svg>