<svg viewBox="0 0 24 24" xmlns="http://www.w3.org/2000/svg"><g><path fill="#12131A" fill-rule="evenodd" d="M11 4.98c0-.33.3-.57.61-.49l3 .7c.22.05.38.25.38.48v4.8c0 .27-.23.5-.5.5h-3c-.28 0-.5-.23-.5-.5V4.95Zm-2.5 6.01c.27 0 .5-.23.5-.5V4.27c0-.24-.16-.44-.39-.49l-3.16-.75c-1.26-.3-2.46.65-2.46 1.94v5.49c0 .27.22.5.5.5h5ZM3 13.49c0-.28.22-.5.5-.5h5c.27 0 .5.22.5.5v6.22c0 .23-.16.43-.39.48l-3.16.74c-1.26.29-2.46-.66-2.46-1.95v-5.51Zm8 0c0-.28.22-.5.5-.5h3c.27 0 .5.22.5.5v4.81c0 .23-.16.43-.39.48l-3 .7c-.32.07-.62-.17-.62-.49v-5.52Zm6.5-.5c-.28 0-.5.22-.5.5v4.1c0 .32.3.56.61.48l1.84-.44c.9-.22 1.54-1.02 1.54-1.95v-2.22c0-.28-.23-.5-.5-.5h-3Zm3-2c.27 0 .5-.23.5-.5V8.28c0-.93-.64-1.74-1.55-1.95l-1.85-.44c-.32-.08-.62.16-.62.48v4.1c0 .27.22.5.5.5h3Z"/></g></svg>