<svg viewBox="0 0 24 24" xmlns="http://www.w3.org/2000/svg"><g><g fill="#12131A" fill-rule="evenodd"><path d="M15 5c0-.56-.45-1-1-1 -.56 0-1 .44-1 1v6h-3V7c0-.56-.45-1-1-1 -.56 0-1 .44-1 1v4H4c-.56 0-1 .44-1 1 0 .55.44 1 1 1h4v4c0 .55.44 1 1 1 .55 0 1-.45 1-1v-4h3v6c0 .55.44 1 1 1 .55 0 1-.45 1-1v-6h5c.55 0 1-.45 1-1 0-.56-.45-1-1-1h-5V5Z"/><path d="M21 5.98c0-1.92-1.78-3.34-3.65-2.94l-12 2.62c-1.38.3-2.36 1.52-2.36 2.93v6.78c0 1.4.98 2.62 2.35 2.93l11.99 2.62c1.87.4 3.64-1.02 3.64-2.94V5.94ZM17.78 5c.62-.14 1.21.33 1.21.97V18c0 .63-.6 1.11-1.22.97l-12-2.63c-.46-.11-.79-.51-.79-.98V8.57c0-.47.32-.88.78-.98l12-2.625Z"/></g></g></svg>