<svg viewBox="0 0 24 24" xmlns="http://www.w3.org/2000/svg"><g><g fill="#12131A" fill-rule="evenodd"><path d="M9 5c0-.56.44-1 1-1 .55 0 1 .44 1 1v6h3V7c0-.56.44-1 1-1 .55 0 1 .44 1 1v4h4c.55 0 1 .44 1 1 0 .55-.45 1-1 1h-4v4c0 .55-.45 1-1 1 -.56 0-1-.45-1-1v-4h-3v6c0 .55-.45 1-1 1 -.56 0-1-.45-1-1v-6H4c-.56 0-1-.45-1-1 0-.56.44-1 1-1h5V5Z"/><path d="M3 5.98c0-1.92 1.77-3.34 3.64-2.94l12 2.62c1.37.3 2.35 1.52 2.35 2.93v6.78c0 1.4-.99 2.62-2.36 2.93L6.62 20.92c-1.88.4-3.65-1.02-3.65-2.94V5.94ZM6.21 5c-.63-.14-1.22.33-1.22.97V18c0 .63.59 1.11 1.21.97l12-2.63c.45-.11.78-.51.78-.98V8.57c0-.47-.33-.88-.79-.98l-12-2.625Z"/></g></g></svg>