<svg viewBox="0 0 24 24" xmlns="http://www.w3.org/2000/svg"><g><g fill="#12131A"><path opacity=".25" d="M16.293 11.7l-4-4 -5.52 5.51c-.52.51-.96 1.09-1.31 1.73l-2.33 4.24c-.26.47-.18 1.06.2 1.44 .38.38.97.46 1.44.2l4.24-2.33c.63-.35 1.22-.79 1.73-1.31l5.51-5.52Z"/><path fill="#12131A" fill-rule="evenodd" d="M17.7 10.29l1 1c.39.39.39 1.02 0 1.41 -.4.39-1.03.39-1.42 0l-6-6c-.4-.4-.4-1.03 0-1.42 .39-.4 1.02-.4 1.41 0l1 1 2.46-2.47c1.1-1.11 2.89-1.11 4 0 1.1 1.1 1.1 2.89 0 4l-2.47 2.46Z"/></g></g></svg>