<svg viewBox="0 0 24 24" xmlns="http://www.w3.org/2000/svg"><g><g fill="#12131A"><path d="M11.85 8.85l3.29 3.29c.19.19.19.51 0 .7l-4.38 4.37c-.52.51-1.1.95-1.74 1.3l-4.25 2.32c-.48.25-1.07.17-1.45-.21 -.39-.39-.47-.98-.21-1.45l2.32-4.25c.34-.64.78-1.23 1.3-1.74L11.1 8.8c.19-.2.51-.2.7 0Z"/><path fill="#12131A" fill-rule="evenodd" d="M14.7 5.29l1.46-1.47c1.1-1.11 2.89-1.11 4-.01 1.1 1.1 1.1 2.89 0 3.99l-1.47 1.46 1 .99c.39.39.39 1.02 0 1.41 -.4.39-1.03.39-1.42 0l-6-6.01c-.4-.4-.4-1.03 0-1.42 .39-.4 1.02-.4 1.41 0l1 1Z"/></g></g></svg>