<svg viewBox="0 0 24 24" xmlns="http://www.w3.org/2000/svg"><g><g fill="#12131A" fill-rule="evenodd"><path d="M12 6.58l5.41 5.41 -5.15 5.14c-.43.42-.9.8-1.41 1.12l-3.65 2.3c-1.09.68-2.51.53-3.42-.38 -.91-.91-1.07-2.33-.38-3.42l2.3-3.65c.32-.51.69-.98 1.12-1.41l5.14-5.15Zm0 2.82l-3.74 3.73c-.33.32-.61.67-.85 1.05L5.1 17.82c-.19.29-.15.68.1.93 .24.24.63.29.93.1l3.64-2.31c.38-.25.73-.53 1.05-.85l3.73-3.74 -2.59-2.59Z"/><path d="M19.87 4.12c-1.5-1.5-3.92-1.5-5.42 0l-2.47 2.46 -.3-.3c-.4-.4-1.03-.4-1.42 0 -.4.39-.4 1.02 0 1.41l1 1 4 4 1 .99c.39.39 1.02.39 1.41 0 .39-.4.39-1.03 0-1.42l-.3-.3 2.46-2.47c1.49-1.5 1.49-3.92-.01-5.42Zm-3.88 6.46l2.46-2.47c.71-.72.71-1.88 0-2.59 -.72-.72-1.88-.72-2.59 0l-2.47 2.46 2.58 2.58Z"/></g></g></svg>