<svg viewBox="0 0 24 24" xmlns="http://www.w3.org/2000/svg"><g><path fill="#12131A" d="M6.64 20.12l-2.77-2.77c-1.18-1.18-1.18-3.08-.01-4.25l.55-.56c.19-.2.51-.2.7 0l2.14 2.14c.39.39 1.02.39 1.41 0 .39-.4.39-1.03 0-1.42l-.49-.49c-.01-.01-.02-.02-.02-.02L6.5 11.1c-.2-.2-.2-.52-.01-.71l.87-.88c.19-.2.51-.2.7-.01l2.14 2.14c.39.39 1.02.39 1.41 0 .39-.4.39-1.03 0-1.42l-.49-.49c-.01-.01-.02-.02-.02-.02L9.45 8.06c-.2-.2-.2-.52-.01-.71l.87-.88c.19-.2.51-.2.7-.01l2.14 2.14c.39.39 1.02.39 1.41 0 .39-.4.39-1.03 0-1.42l-.49-.49c-.01-.01-.02-.02-.02-.02L12.4 5.02c-.2-.2-.2-.52 0-.71l.55-.56c1.17-1.18 3.07-1.18 4.24 0l2.76 2.76c1.17 1.17 1.17 3.08-.01 4.25l-9.23 9.22c-1.18 1.17-3.09 1.17-4.26 0Z"/></g></svg>