<svg viewBox="0 0 24 24" xmlns="http://www.w3.org/2000/svg"><g><path fill="#12131A" fill-rule="evenodd" d="M12.412 4.17c1.56-1.57 4.09-1.57 5.65-.01l1.76 1.75c1.56 1.56 1.56 4.1 0 5.67l-8.23 8.22c-1.57 1.56-4.11 1.56-5.68 0l-1.77-1.77c-1.57-1.57-1.57-4.1 0-5.66l8.23-8.24Zm4.24 1.41c-.79-.79-2.05-.79-2.83 0l-8.24 8.23c-.79.78-.79 2.04-.01 2.82l1.76 1.76c.78.78 2.05.78 2.84 0l8.22-8.23c.78-.79.78-2.06-.01-2.85l-1.77-1.76Z"/><g fill="#12131A"><path d="M10.58 6l1.41-1.42 2.7 2.7c.39.39.39 1.02 0 1.41 -.4.39-1.03.39-1.42 0l-2.71-2.71Z"/><path d="M7.58 9l1.41-1.42 2.7 2.7c.39.39.39 1.02 0 1.41 -.4.39-1.03.39-1.42 0L7.56 8.98Z"/><path d="M4.58 12l1.41-1.42 2.7 2.7c.39.39.39 1.02 0 1.41 -.4.39-1.03.39-1.42 0l-2.71-2.71Z"/></g></g></svg>