<svg viewBox="0 0 24 24" xmlns="http://www.w3.org/2000/svg"><g><g fill="#12131A"><path opacity=".25" d="M6.64 20.12l-2.77-2.77c-1.18-1.18-1.18-3.08-.01-4.25l9.23-9.24c1.17-1.18 3.07-1.18 4.24 0l2.76 2.76c1.17 1.17 1.17 3.08 0 4.25l-9.23 9.22c-1.18 1.17-3.09 1.17-4.26 0Z"/><path fill="#12131A" fill-rule="evenodd" d="M10.793 6.2l2 2c.39.39 1.02.39 1.41 0 .39-.4.39-1.03 0-1.42l-2-2 -1.42 1.41Zm-1.01 4.99l-2-2 1.41-1.42 2 2c.39.39.39 1.02 0 1.41 -.4.39-1.03.39-1.42 0Zm-3 3l-2-2 1.41-1.42 2 2c.39.39.39 1.02 0 1.41 -.4.39-1.03.39-1.42 0Z"/></g></g></svg>