<svg viewBox="0 0 24 24" xmlns="http://www.w3.org/2000/svg"><g><g fill="#12131A" fill-rule="evenodd"><path d="M8 5C6.34 5 5 6.34 5 8v8c0 1.65 1.34 3 3 3h8c1.65 0 3-1.35 3-3v-3c0-.56.44-1 1-1 .55 0 1 .44 1 1v3c0 2.76-2.24 5-5 5H8c-2.77 0-5-2.24-5-5V8c0-2.77 2.23-5 5-5h3c.55 0 1 .44 1 1 0 .55-.45 1-1 1H8Z"/><path d="M19 8c0 .55.44 1 1 1 .55 0 1-.45 1-1V4c0-.56-.45-1-1-1h-4c-.56 0-1 .44-1 1 0 .55.44 1 1 1h1.58l-6.59 6.58V9.99c0-.56-.45-1-1-1 -.56 0-1 .44-1 1v4c0 .55.44 1 1 1h4c.55 0 1-.45 1-1 0-.56-.45-1-1-1H12.4l6.58-6.59v1.58Z"/></g></g></svg>