<svg viewBox="0 0 24 24" xmlns="http://www.w3.org/2000/svg"><g><g fill="#12131A" fill-rule="evenodd"><path d="M6 8H3v2h3c.55 0 1-.45 1-1 0-.56-.45-1-1-1Zm0 6H3v2h3c.55 0 1-.45 1-1 0-.56-.45-1-1-1Zm2 7v-3c0-.56.44-1 1-1 .55 0 1 .44 1 1v3H8Zm6-3v3h2v-3c0-.56-.45-1-1-1 -.56 0-1 .44-1 1Z"/><path d="M6.47 5c-.82 0-1.48.66-1.48 1.47v11.52c0 .55.44 1 1 1h11.52c.81 0 1.47-.67 1.47-1.48 0-.4-.16-.77-.44-1.05L7.48 5.4c-.28-.28-.66-.44-1.05-.44ZM2.99 6.47c0-1.92 1.55-3.48 3.47-3.48 .92 0 1.8.36 2.45 1.01l11.05 11.05c.65.65 1.01 1.53 1.01 2.45 0 1.91-1.56 3.47-3.48 3.47H5.96c-1.66 0-3-1.35-3-3V6.44Z"/></g><path fill="#12131A" d="M9 14.5v-3.003c0-.45.53-.67.85-.36l3 3.003c.31.31.09.85-.36.85H9.48c-.28 0-.5-.23-.5-.5Z"/></g></svg>