<svg viewBox="0 0 24 24" xmlns="http://www.w3.org/2000/svg"><g><path fill="#12131A" fill-rule="evenodd" d="M3 5.47v2.02c0 .27.22.5.5.5H5c.55 0 1 .44 1 1 0 .55-.45 1-1 1H3.5c-.28 0-.5.22-.5.5v3c0 .27.22.5.5.5H5c.55 0 1 .44 1 1 0 .55-.45 1-1 1H3.5c-.28 0-.5.22-.5.5v2.5c0 1.1.89 2 2 2h2.5c.27 0 .5-.23.5-.5v-1.5c0-.56.44-1 1-1 .55 0 1 .44 1 1v1.5c0 .27.22.5.5.5h3c.27 0 .5-.23.5-.5v-1.5c0-.56.44-1 1-1 .55 0 1 .44 1 1v1.5c0 .27.22.5.5.5h2.02c1.36 0 2.47-1.11 2.47-2.48 0-.66-.27-1.29-.73-1.75L7.2 3.7c-.47-.47-1.1-.73-1.75-.73 -1.37 0-2.48 1.1-2.48 2.47Zm6 6.02v3c0 .27.22.5.5.5h3c.44 0 .66-.54.35-.86L9.84 11.12c-.32-.32-.86-.1-.86.35Z"/></g></svg>