<svg viewBox="0 0 24 24" xmlns="http://www.w3.org/2000/svg"><g><g fill="#12131A"><path opacity=".25" d="M3 19V5.47C3 4.1 4.1 2.99 5.47 2.99c.65 0 1.28.26 1.75.72l13.05 13.05c.46.46.72 1.09.72 1.75 0 1.36-1.11 2.47-2.48 2.47H4.98c-1.11 0-2-.9-2-2Z"/><path d="M9 14.5v-3.003c0-.45.53-.67.85-.36l3 3.003c.31.31.09.85-.36.85H9.48c-.28 0-.5-.23-.5-.5Z"/><path fill="#12131A" fill-rule="evenodd" d="M5 8H3v2h2c.55 0 1-.45 1-1 0-.56-.45-1-1-1Zm0 6H3v2h2c.55 0 1-.45 1-1 0-.56-.45-1-1-1Zm3 7v-2c0-.56.44-1 1-1 .55 0 1 .44 1 1v2H8Zm6-2v2h2v-2c0-.56-.45-1-1-1 -.56 0-1 .44-1 1Z"/></g></g></svg>