<svg viewBox="0 0 24 24" xmlns="http://www.w3.org/2000/svg"><g><g fill="#12131A" fill-rule="evenodd"><path d="M18 8.99c0-.56-.45-1-1-1 -.56 0-1 .44-1 1v5.99c0 .55.44 1 1 1 .55 0 1-.45 1-1v-6Zm-10-2c0-.56-.45-1-1-1 -.56 0-1 .44-1 1v9.99c0 .55.44 1 1 1 .55 0 1-.45 1-1v-10Zm7.98-.21c-.11.54-.64.89-1.18.78l-6.01-1.2c-.55-.11-.9-.64-.79-1.18 .1-.55.63-.9 1.17-.79l5.99 1.2c.54.1.89.63.78 1.17ZM14.8 16.4c.54-.11 1.06.24 1.17.78 .1.54-.25 1.06-.79 1.17l-6 1.2c-.55.1-1.07-.25-1.18-.79 -.11-.55.24-1.07.78-1.18l6-1.2Z"/><path d="M17 18c-.56 0-1-.45-1-1 0-.56.44-1 1-1 .55 0 1 .44 1 1 0 .55-.45 1-1 1Zm0 2c-1.66 0-3-1.35-3-3 0-1.66 1.34-3 3-3 1.65 0 3 1.34 3 3 0 1.65-1.35 3-3 3ZM7 20c-.56 0-1-.45-1-1 0-.56.44-1 1-1 .55 0 1 .44 1 1 0 .55-.45 1-1 1Zm0 2c-1.66 0-3-1.35-3-3 0-1.66 1.34-3 3-3 1.65 0 3 1.34 3 3 0 1.65-1.35 3-3 3ZM6 5c0 .55.44 1 1 1 .55 0 1-.45 1-1 0-.56-.45-1-1-1 -.56 0-1 .44-1 1ZM4 5c0 1.65 1.34 3 3 3 1.65 0 3-1.35 3-3 0-1.66-1.35-3-3-3C5.34 2 4 3.34 4 5Zm13 3c-.56 0-1-.45-1-1 0-.56.44-1 1-1 .55 0 1 .44 1 1 0 .55-.45 1-1 1Zm0 2c-1.66 0-3-1.35-3-3 0-1.66 1.34-3 3-3 1.65 0 3 1.34 3 3 0 1.65-1.35 3-3 3Z"/></g></g></svg>