<svg viewBox="0 0 24 24" xmlns="http://www.w3.org/2000/svg"><g><g fill="#12131A" fill-rule="evenodd"><path d="M6 7c0-.56.44-1 1-1h10c.55 0 1 .44 1 1 0 .55-.45 1-1 1H7c-.56 0-1-.45-1-1ZM5 8c.55 0 1 .44 1 1v3c0 3.31 2.68 6 6 6 3.31 0 6-2.69 6-6V9c0-.56.44-1 1-1 .55 0 1 .44 1 1v3c0 4.41-3.59 8-8 8 -4.42 0-8-3.59-8-8V9c0-.56.44-1 1-1Z"/><path d="M6 7c0 .55-.45 1-1 1 -.56 0-1-.45-1-1 0-.56.44-1 1-1 .55 0 1 .44 1 1Zm2 0c0 1.65-1.35 3-3 3 -1.66 0-3-1.35-3-3 0-1.66 1.34-3 3-3 1.65 0 3 1.34 3 3Zm12 0c0 .55-.45 1-1 1 -.56 0-1-.45-1-1 0-.56.44-1 1-1 .55 0 1 .44 1 1Zm2 0c0 1.65-1.35 3-3 3 -1.66 0-3-1.35-3-3 0-1.66 1.34-3 3-3 1.65 0 3 1.34 3 3Z"/></g></g></svg>