<svg viewBox="0 0 24 24" xmlns="http://www.w3.org/2000/svg"><g><g fill="#12131A" fill-rule="evenodd"><path d="M8.18 8.18c-.2-.2-.52-.2-.73-.03 -.56.43-1.23.71-1.96.81 -.28.03-.5.25-.5.53v5c0 .27.22.49.49.53 1.81.22 3.24 1.66 3.47 3.47 .03.27.25.49.53.49h5c.27 0 .49-.23.53-.5 .09-.74.37-1.41.81-1.96 .16-.22.17-.54-.03-.73L8.15 8.15Z"/><path d="M3 5c0-1.11.89-2 2-2 1.1 0 2 .89 2 2 0 1.1-.9 2-2 2 -1.11 0-2-.9-2-2Zm0 14c0-1.11.89-2 2-2 1.1 0 2 .89 2 2 0 1.1-.9 2-2 2 -1.11 0-2-.9-2-2Zm16-2c-1.11 0-2 .89-2 2 0 1.1.89 2 2 2 1.1 0 2-.9 2-2 0-1.11-.9-2-2-2Z"/></g></g></svg>