<svg viewBox="0 0 24 24" xmlns="http://www.w3.org/2000/svg"><g><g fill="#12131A" fill-rule="evenodd"><path d="M8.2 6.79c-.4-.4-1.03-.4-1.42 0 -.11.1-.19.23-.24.37 -.16-.11-.36-.17-.56-.17 -.56 0-1 .44-1 1v8c0 .55.44 1 1 1 .55 0 1-.45 1-1V8.4l8.58 8.58H7.97c-.56 0-1 .44-1 1 0 .55.44 1 1 1h8c.55 0 1-.45 1-1 0-.21-.07-.4-.17-.56 .13-.05.26-.13.37-.24 .39-.4.39-1.03 0-1.42l-9-9.01Z"/><path d="M5 6c0 .55.44 1 1 1 .55 0 1-.45 1-1 0-.56-.45-1-1-1 -.56 0-1 .44-1 1Zm1-3C4.34 3 3 4.34 3 6c0 1.65 1.34 3 3 3 1.65 0 3-1.35 3-3 0-1.66-1.35-3-3-3ZM5 18c0 .55.44 1 1 1 .55 0 1-.45 1-1 0-.56-.45-1-1-1 -.56 0-1 .44-1 1Zm1-3c-1.66 0-3 1.34-3 3 0 1.65 1.34 3 3 3 1.65 0 3-1.35 3-3 0-1.66-1.35-3-3-3Zm12 4c-.56 0-1-.45-1-1 0-.56.44-1 1-1 .55 0 1 .44 1 1 0 .55-.45 1-1 1Zm-3-1c0-1.66 1.34-3 3-3 1.65 0 3 1.34 3 3 0 1.65-1.35 3-3 3 -1.66 0-3-1.35-3-3Z"/></g></g></svg>