<svg viewBox="0 0 24 24" xmlns="http://www.w3.org/2000/svg"><g><g fill="#12131A" fill-rule="evenodd"><path d="M13.56 18.74c.27-.05.45-.31.44-.58 -.01-.06-.01-.11-.01-.17 0-2.05 1.52-3.73 3.5-3.97 .27-.04.49-.26.49-.54v-3c0-.28-.23-.5-.5-.54 -1.98-.25-3.51-1.93-3.51-3.97 0-.06 0-.11 0-.17 .01-.28-.17-.54-.45-.58l-3.13-.53c-.28-.05-.53.14-.61.4 -.45 1.49-1.75 2.62-3.34 2.82 -.28.03-.5.25-.5.53v6.99c0 .27.22.49.49.53 1.58.19 2.88 1.32 3.33 2.82 .07.26.33.45.6.4l3.12-.53Z"/><path d="M16 6c0 1.1.89 2 2 2 1.1 0 2-.9 2-2 0-1.11-.9-2-2-2 -1.11 0-2 .89-2 2Zm0 12c0 1.1.89 2 2 2 1.1 0 2-.9 2-2 0-1.11-.9-2-2-2 -1.11 0-2 .89-2 2ZM6 22c-1.11 0-2-.9-2-2 0-1.11.89-2 2-2 1.1 0 2 .89 2 2 0 1.1-.9 2-2 2ZM4 4c0 1.1.89 2 2 2 1.1 0 2-.9 2-2 0-1.11-.9-2-2-2 -1.11 0-2 .89-2 2Z"/></g></g></svg>