<svg viewBox="0 0 24 24" xmlns="http://www.w3.org/2000/svg"><g><g fill="#12131A" fill-rule="evenodd"><path d="M16 5c.55 0 1 .44 1 1 0 .55-.45 1-1 1H8c-.56 0-1-.45-1-1 0-.56.44-1 1-1h8ZM6 7c-.56 0-1 .44-1 1v8c0 .55.44 1 1 1 .55 0 1-.45 1-1V8c0-.56-.45-1-1-1Zm12 0c-.56 0-1 .44-1 1v8c0 .55.44 1 1 1 .55 0 1-.45 1-1V8c0-.56-.45-1-1-1Zm-1 11c0-.56-.45-1-1-1H8c-.56 0-1 .44-1 1 0 .55.44 1 1 1h8c.55 0 1-.45 1-1Z"/><path d="M6 7c-.56 0-1-.45-1-1 0-.56.44-1 1-1 .55 0 1 .44 1 1 0 .55-.45 1-1 1ZM3 6c0-1.66 1.34-3 3-3 1.65 0 3 1.34 3 3 0 1.65-1.35 3-3 3C4.34 9 3 7.65 3 6Zm15 1c-.56 0-1-.45-1-1 0-.56.44-1 1-1 .55 0 1 .44 1 1 0 .55-.45 1-1 1Zm-3-1c0-1.66 1.34-3 3-3 1.65 0 3 1.34 3 3 0 1.65-1.35 3-3 3 -1.66 0-3-1.35-3-3ZM5 18c0 .55.44 1 1 1 .55 0 1-.45 1-1 0-.56-.45-1-1-1 -.56 0-1 .44-1 1Zm1-3c-1.66 0-3 1.34-3 3 0 1.65 1.34 3 3 3 1.65 0 3-1.35 3-3 0-1.66-1.35-3-3-3Zm12 4c-.56 0-1-.45-1-1 0-.56.44-1 1-1 .55 0 1 .44 1 1 0 .55-.45 1-1 1Zm-3-1c0-1.66 1.34-3 3-3 1.65 0 3 1.34 3 3 0 1.65-1.35 3-3 3 -1.66 0-3-1.35-3-3Z"/></g></g></svg>