<svg viewBox="0 0 24 24" xmlns="http://www.w3.org/2000/svg"><g><g fill="#12131A" fill-rule="evenodd"><path d="M15.03 5.49c-.04-.28-.26-.5-.54-.5h-5c-.28 0-.5.22-.54.49 -.23 1.81-1.67 3.24-3.48 3.47 -.28.03-.5.25-.5.53v5c0 .27.22.49.49.53 1.81.22 3.24 1.66 3.47 3.47 .03.27.25.49.53.49h5c.27 0 .49-.23.53-.5 .22-1.82 1.66-3.25 3.47-3.48 .27-.04.49-.26.49-.54v-5c0-.28-.23-.5-.5-.54 -1.82-.23-3.25-1.67-3.48-3.48Z"/><path d="M3 5c0-1.11.89-2 2-2 1.1 0 2 .89 2 2 0 1.1-.9 2-2 2 -1.11 0-2-.9-2-2Zm16-2c-1.11 0-2 .89-2 2 0 1.1.89 2 2 2 1.1 0 2-.9 2-2 0-1.11-.9-2-2-2Zm0 14c-1.11 0-2 .89-2 2 0 1.1.89 2 2 2 1.1 0 2-.9 2-2 0-1.11-.9-2-2-2ZM5 17c-1.11 0-2 .89-2 2 0 1.1.89 2 2 2 1.1 0 2-.9 2-2 0-1.11-.9-2-2-2Z"/></g></g></svg>