<svg viewBox="0 0 24 24" xmlns="http://www.w3.org/2000/svg"><g><g fill="#12131A" fill-rule="evenodd"><path d="M8.33 5.6c-.14-.3-.5-.46-.77-.28 -.89.58-1.65 1.35-2.24 2.23 -.19.27-.03.63.27.76 1.4.61 2.39 2.02 2.39 3.66 0 1.63-.99 3.04-2.4 3.66 -.3.13-.46.49-.28.76 .58.88 1.35 1.64 2.23 2.23 .27.18.63.02.76-.28 .61-1.41 2.02-2.4 3.66-2.4 1.63 0 3.04.98 3.66 2.39 .13.29.49.45.76.27 .88-.59 1.64-1.36 2.23-2.24 .18-.28.02-.64-.28-.77 -1.41-.62-2.4-2.03-2.4-3.67 0-1.64.98-3.05 2.39-3.67 .29-.14.45-.5.27-.77 -.59-.89-1.36-1.65-2.24-2.24 -.28-.19-.64-.03-.77.27 -.62 1.4-2.03 2.39-3.67 2.39 -1.64 0-3.05-.99-3.67-2.4Z"/><path d="M12 2c-1.11 0-2 .89-2 2 0 1.1.89 2 2 2 1.1 0 2-.9 2-2 0-1.11-.9-2-2-2Zm-8 8c-1.11 0-2 .89-2 2 0 1.1.89 2 2 2 1.1 0 2-.9 2-2 0-1.11-.9-2-2-2Zm14 2c0-1.11.89-2 2-2 1.1 0 2 .89 2 2 0 1.1-.9 2-2 2 -1.11 0-2-.9-2-2Zm-6 6c-1.11 0-2 .89-2 2 0 1.1.89 2 2 2 1.1 0 2-.9 2-2 0-1.11-.9-2-2-2Z"/></g></g></svg>