<svg viewBox="0 0 24 24" xmlns="http://www.w3.org/2000/svg"><g><g fill="#12131A" fill-rule="evenodd"><path d="M9 6c-.56 0-1 .44-1 1 0 .55.44 1 1 1h6c.55 0 1-.45 1-1 0-.56-.45-1-1-1H9ZM7 16c-.56 0-1 .44-1 1 0 .55.44 1 1 1h10c.55 0 1-.45 1-1 0-.56-.45-1-1-1H7Zm-.21-7.99c.54.1.89.63.78 1.17l-1.2 5.99c-.11.54-.64.89-1.18.78 -.55-.11-.9-.64-.79-1.18l1.2-6.01c.1-.55.63-.9 1.17-.79Zm9.62 1.17c-.11-.55.24-1.07.78-1.18 .54-.11 1.06.24 1.17.78l1.2 6c.1.54-.25 1.06-.79 1.17 -.55.1-1.07-.25-1.18-.79l-1.2-6Z"/><path d="M18 7c0 .55-.45 1-1 1 -.56 0-1-.45-1-1 0-.56.44-1 1-1 .55 0 1 .44 1 1Zm2 0c0 1.65-1.35 3-3 3 -1.66 0-3-1.35-3-3 0-1.66 1.34-3 3-3 1.65 0 3 1.34 3 3Zm0 10c0 .55-.45 1-1 1 -.56 0-1-.45-1-1 0-.56.44-1 1-1 .55 0 1 .44 1 1Zm2 0c0 1.65-1.35 3-3 3 -1.66 0-3-1.35-3-3 0-1.66 1.34-3 3-3 1.65 0 3 1.34 3 3ZM5 18c.55 0 1-.45 1-1 0-.56-.45-1-1-1 -.56 0-1 .44-1 1 0 .55.44 1 1 1Zm0 2c1.65 0 3-1.35 3-3 0-1.66-1.35-3-3-3 -1.66 0-3 1.34-3 3 0 1.65 1.34 3 3 3ZM8 7c0 .55-.45 1-1 1 -.56 0-1-.45-1-1 0-.56.44-1 1-1 .55 0 1 .44 1 1Zm2 0c0 1.65-1.35 3-3 3 -1.66 0-3-1.35-3-3 0-1.66 1.34-3 3-3 1.65 0 3 1.34 3 3Z"/></g></g></svg>