<svg viewBox="0 0 24 24" xmlns="http://www.w3.org/2000/svg"><g><g fill="#12131A" fill-rule="evenodd"><path d="M10.95 5c.15.52-.15 1.08-.68 1.24 -1.94.57-3.47 2.1-4.04 4.03 -.16.52-.72.83-1.25.67 -.53-.16-.84-.72-.68-1.25C5.06 7.1 7.1 5.07 9.68 4.3c.52-.16 1.08.14 1.24.67Zm2.08 0c.15-.53.71-.84 1.24-.68 2.58.76 4.61 2.8 5.38 5.38 .15.52-.15 1.08-.68 1.24 -.53.15-1.09-.15-1.25-.68 -.58-1.94-2.11-3.47-4.04-4.04 -.53-.16-.84-.72-.68-1.25Zm-8.04 8.03c.52-.16 1.08.14 1.24.67 .57 1.93 2.1 3.46 4.03 4.03 .52.15.83.71.67 1.24 -.16.52-.72.83-1.25.67 -2.59-.77-4.62-2.81-5.39-5.39 -.16-.53.14-1.09.67-1.25Zm13.99 0c.52.15.83.71.67 1.24 -.77 2.58-2.81 4.61-5.39 5.38 -.53.15-1.09-.15-1.25-.68 -.16-.53.14-1.09.67-1.25 1.93-.58 3.46-2.11 4.03-4.04 .15-.53.71-.84 1.24-.68Z"/><path d="M12 4c-.56 0-1 .44-1 1 0 .55.44 1 1 1 .55 0 1-.45 1-1 0-.56-.45-1-1-1ZM9 5c0-1.66 1.34-3 3-3 1.65 0 3 1.34 3 3 0 1.65-1.35 3-3 3 -1.66 0-3-1.35-3-3Zm-4 6c-.56 0-1 .44-1 1 0 .55.44 1 1 1 .55 0 1-.45 1-1 0-.56-.45-1-1-1Zm-3 1c0-1.66 1.34-3 3-3 1.65 0 3 1.34 3 3 0 1.65-1.35 3-3 3 -1.66 0-3-1.35-3-3Zm14 0c0-1.66 1.34-3 3-3 1.65 0 3 1.34 3 3 0 1.65-1.35 3-3 3 -1.66 0-3-1.35-3-3Zm3-1c-.56 0-1 .44-1 1 0 .55.44 1 1 1 .55 0 1-.45 1-1 0-.56-.45-1-1-1Zm-7 7c-.56 0-1 .44-1 1 0 .55.44 1 1 1 .55 0 1-.45 1-1 0-.56-.45-1-1-1Zm-3 1c0-1.66 1.34-3 3-3 1.65 0 3 1.34 3 3 0 1.65-1.35 3-3 3 -1.66 0-3-1.35-3-3Z"/></g></g></svg>