<svg viewBox="0 0 24 24" xmlns="http://www.w3.org/2000/svg"><g><g fill="#12131A" fill-rule="evenodd"><path d="M14.01 9.02c-.13-.25-.43-.35-.69-.26 -.42.14-.87.22-1.33.22 -.47 0-.92-.08-1.33-.23 -.27-.1-.57 0-.69.25l-2.98 5.94c-.13.24-.03.54.2.69 .94.63 1.6 1.64 1.74 2.82 .03.27.25.49.53.49h4.99c.27 0 .49-.23.53-.5 .14-1.18.8-2.2 1.74-2.83 .22-.16.33-.46.2-.7l-2.98-5.95Z"/><path d="M10 5c0-1.11.89-2 2-2 1.1 0 2 .89 2 2 0 1.1-.9 2-2 2 -1.11 0-2-.9-2-2ZM3 19c0-1.11.89-2 2-2 1.1 0 2 .89 2 2 0 1.1-.9 2-2 2 -1.11 0-2-.9-2-2Zm16-2c-1.11 0-2 .89-2 2 0 1.1.89 2 2 2 1.1 0 2-.9 2-2 0-1.11-.9-2-2-2Z"/></g></g></svg>