<svg viewBox="0 0 24 24" xmlns="http://www.w3.org/2000/svg"><g><g fill="#12131A" fill-rule="evenodd"><path d="M9.96 4.49c.03-.28.25-.5.53-.5h3c.27 0 .49.22.53.49 .22 1.81 1.66 3.24 3.47 3.47 .27.03.49.25.49.53v7c0 .27-.23.49-.5.53 -1.82.22-3.25 1.66-3.48 3.47 -.04.27-.26.49-.54.49h-3c-.28 0-.5-.23-.54-.5 -.23-1.82-1.67-3.25-3.48-3.48 -.28-.04-.5-.26-.5-.54v-7c0-.28.22-.5.49-.54 1.81-.23 3.24-1.67 3.47-3.48Z"/><path d="M6 2c1.1 0 2 .89 2 2 0 1.1-.9 2-2 2 -1.11 0-2-.9-2-2 0-1.11.89-2 2-2Zm14 2c0-1.11-.9-2-2-2 -1.11 0-2 .89-2 2 0 1.1.89 2 2 2 1.1 0 2-.9 2-2Zm0 16c0-1.11-.9-2-2-2 -1.11 0-2 .89-2 2 0 1.1.89 2 2 2 1.1 0 2-.9 2-2ZM8 20c0-1.11-.9-2-2-2 -1.11 0-2 .89-2 2 0 1.1.89 2 2 2 1.1 0 2-.9 2-2Z"/></g></g></svg>