<svg viewBox="0 0 24 24" xmlns="http://www.w3.org/2000/svg"><g><g fill="#12131A"><path opacity=".25" d="M20.741 21L12 6.01 3.25 20.99h17.48Z"/><path d="M13 17c0-.56-.45-1-1-1 -.56 0-1 .44-1 1v2H4c-.56 0-1 .44-1 1 0 .55.44 1 1 1h16c.55 0 1-.45 1-1 0-.56-.45-1-1-1h-7v-2Z"/><path d="M10.86 3.5c-.28-.48-.89-.65-1.37-.38 -.48.27-.65.88-.38 1.36l1.99 3.48c.04.07.09.14.15.21 .19.19.45.3.71.3 .26-.01.52-.11.71-.31 .06-.07.11-.14.15-.22l1.99-3.49c.27-.48.1-1.1-.38-1.37 -.48-.28-1.1-.11-1.37.37l-1.14 1.98 -1.14-1.99Z"/></g></g></svg>