<svg viewBox="0 0 24 24" xmlns="http://www.w3.org/2000/svg"><g><g fill="#12131A"><path opacity=".25" d="M22 12c0 5.52-4.48 10-10 10C6.47 22 2 17.52 2 12 2 6.47 6.47 2 12 2c5.52 0 10 4.47 10 10Z"/><path fill="#12131A" fill-rule="evenodd" d="M5.97 11H1.99v2h3.97c.15 3.64 1.12 6.27 2.26 8.04 .07.11.14.22.22.33 1.08.4 2.26.62 3.49.62h.02 .02c1.22 0 2.4-.23 3.49-.63 .07-.11.14-.22.22-.34 1.13-1.78 2.11-4.395 2.26-8.05h4.02v-2h-4.03c-.16-3.65-1.13-6.28-2.27-8.05 -.08-.12-.15-.23-.23-.34 -1.09-.41-2.27-.63-3.5-.63l-.03 0 -.03-.01c-1.23 0-2.41.22-3.5.62 -.08.1-.15.21-.23.33C7 4.66 6.02 7.28 5.87 10.93Zm2 0c.14-3.29 1.02-5.53 1.94-6.96 .5-.8 1.02-1.33 1.44-1.67 .21-.17.38-.28.51-.34 .04-.02.07-.04.09-.04 .02 0 .05.01.09.03 .12.05.3.16.51.33 .42.33.94.87 1.44 1.66 .91 1.43 1.79 3.67 1.94 6.95h-8Zm7.99 2c-.15 3.28-1.03 5.52-1.95 6.95 -.51.79-1.03 1.33-1.45 1.66 -.22.16-.39.27-.52.33 -.05.01-.08.03-.1.03 -.03-.01-.06-.02-.1-.04 -.13-.06-.31-.17-.52-.34 -.43-.34-.95-.88-1.45-1.67 -.92-1.44-1.8-3.68-1.95-6.96h7.99Z"/></g></g></svg>