<svg viewBox="0 0 24 24" xmlns="http://www.w3.org/2000/svg"><g><g fill="#12131A" fill-rule="evenodd"><path d="M16.97 13h4.02v-2h-4.03c-.26-5.06-2.39-9-4.98-9C9.38 2 7.25 5.94 7 11H2.97v2h4.02c.25 5.05 2.38 9 4.97 9s4.72-3.95 4.97-9Zm-2.01 0c-.12 2.09-.59 3.89-1.23 5.17 -.8 1.59-1.54 1.82-1.75 1.82 -.22 0-.95-.23-1.75-1.83 -.64-1.28-1.12-3.09-1.23-5.18h5.94Zm-5.95-2c.11-2.1.58-3.9 1.22-5.18 .79-1.6 1.53-1.83 1.74-1.83 .21 0 .94.22 1.74 1.82 .63 1.27 1.11 3.08 1.22 5.17H8.98Z"/><path d="M12 20c4.41 0 8-3.59 8-8 0-4.42-3.59-8-8-8 -4.42 0-8 3.58-8 8 0 4.41 3.58 8 8 8Zm0 2c5.52 0 10-4.48 10-10 0-5.53-4.48-10-10-10C6.47 2 2 6.47 2 12c0 5.52 4.47 10 10 10Z"/></g></g></svg>