<svg viewBox="0 0 24 24" xmlns="http://www.w3.org/2000/svg"><g><path fill="#12131A" fill-rule="evenodd" d="M12 4c-3.87 0-7 3.13-7 7 0 2.2 1.33 4.26 3.2 5.88l3.44 2.98c.2.17.5.17.7 0l3.44-2.99c1.86-1.62 3.2-3.69 3.2-5.89 0-3.87-3.14-7-7-7Zm-9 7c0-4.98 4.02-9 9-9 4.97 0 9 4.02 9 9 0 3.02-1.81 5.59-3.9 7.39l-3.45 2.98c-.96.82-2.38.82-3.327 0l-3.45-2.99c-2.09-1.81-3.9-4.38-3.9-7.4Z"/><path fill="#12131A" d="M11.53 7.3c.17-.42.75-.42.92 0l.78 1.89c.07.17.23.29.41.3l1.87.16c.42.03.61.56.3.86l-1.43 1.35c-.13.12-.19.3-.15.47l.48 2.01c.1.43-.37.77-.75.54L12.2 13.8c-.16-.1-.37-.1-.53 0l-1.76 1.07c-.38.23-.86-.12-.75-.55l.48-2.02c.04-.18-.02-.36-.15-.48l-1.42-1.36c-.32-.3-.13-.83.3-.86l1.86-.17c.18-.02.34-.14.41-.31l.78-1.9Z"/></g></svg>