<svg viewBox="0 0 24 24" xmlns="http://www.w3.org/2000/svg"><g><g fill="#12131A"><path opacity=".25" d="M12 2c-4.98 0-9 4.02-9 9 0 3.02 1.8 5.59 3.89 7.39l3.44 2.98c.95.82 2.37.82 3.327 0l3.44-2.99c2.08-1.81 3.89-4.38 3.89-7.4 0-4.98-4.03-9-9-9Z"/><path fill="#12131A" fill-rule="evenodd" d="M19 15c.55 0 1 .44 1 1v2h2c.55 0 1 .44 1 1 0 .55-.45 1-1 1h-2v2c0 .55-.45 1-1 1 -.56 0-1-.45-1-1v-2h-2c-.56 0-1-.45-1-1 0-.56.44-1 1-1h2v-2c0-.56.44-1 1-1Z"/><path d="M14 11c0 1.1-.9 2-2 2 -1.11 0-2-.9-2-2 0-1.11.89-2 2-2 1.1 0 2 .89 2 2Z"/></g></g></svg>