<svg viewBox="0 0 24 24" xmlns="http://www.w3.org/2000/svg"><g><g fill="#12131A" fill-rule="evenodd"><path d="M12 4c-3.87 0-7 3.13-7 7 0 2.2 1.33 4.26 3.2 5.88l3.44 2.98c.2.17.5.17.7 0l3.44-2.99c1.86-1.62 3.2-3.69 3.2-5.89 0-3.87-3.14-7-7-7Zm-9 7c0-4.98 4.02-9 9-9 4.97 0 9 4.02 9 9 0 3.02-1.81 5.59-3.9 7.39l-3.45 2.98c-.96.82-2.38.82-3.327 0l-3.45-2.99c-2.09-1.81-3.9-4.38-3.9-7.4Z"/><path d="M12.7 14.7c-.4.39-1.03.39-1.42 0l-2.01-2c-.4-.4-.4-1.03 0-1.42 .39-.4 1.02-.4 1.41 0l.29.29V7.98c0-.56.44-1 1-1 .55 0 1 .44 1 1v3.58l.29-.3c.39-.4 1.02-.4 1.41 0 .39.39.39 1.02 0 1.41l-2 2Z"/></g></g></svg>