<svg viewBox="0 0 24 24" xmlns="http://www.w3.org/2000/svg"><g><g fill="#12131A" fill-rule="evenodd"><path d="M3 11c0-4.98 4.02-9 9-9 4.97 0 9 4.02 9 9 0 .79-.13 1.56-.36 2.29 -.17.52-.73.82-1.25.66 -.53-.17-.83-.73-.67-1.25 .17-.56.26-1.13.26-1.71 0-3.87-3.14-7-7-7 -3.87 0-7 3.13-7 7 0 2.2 1.33 4.26 3.2 5.88l3.44 2.98c.1.08.22.13.35.13 .55 0 1 .44 1 1 0 .55-.45 1-1 1 -.6 0-1.19-.21-1.67-.63l-3.45-2.99c-2.09-1.81-3.9-4.38-3.9-7.4Z"/><path d="M18.99 22c1.87 0 3.27-1.7 3.85-2.54 .19-.29.19-.65 0-.93 -.58-.85-1.98-2.54-3.86-2.54s-3.28 1.69-3.86 2.53c-.2.28-.2.64 0 .92 .57.84 1.97 2.53 3.85 2.53Zm0-2c.55 0 1-.45 1-1 0-.56-.45-1-1-1 -.56 0-1 .44-1 1 0 .55.44 1 1 1Z"/></g><path fill="#12131A" d="M14 11c0 1.1-.9 2-2 2 -1.11 0-2-.9-2-2 0-1.11.89-2 2-2 1.1 0 2 .89 2 2Z"/></g></svg>