<svg viewBox="0 0 24 24" xmlns="http://www.w3.org/2000/svg"><g><g fill="#12131A"><path opacity=".25" d="M12 2c-4.98 0-9 4.02-9 9 0 3.02 1.8 5.59 3.89 7.39l3.44 2.98c.95.82 2.37.82 3.327 0l3.44-2.99c2.08-1.81 3.89-4.38 3.89-7.4 0-4.98-4.03-9-9-9Z"/><path fill="#12131A" fill-rule="evenodd" d="M11.5 9c-.83 0-1.5.67-1.5 1.5 0 .82.67 1.5 1.5 1.5 .82 0 1.5-.68 1.5-1.5 0-.83-.68-1.5-1.5-1.5ZM8 10.5C8 8.56 9.56 7 11.5 7c1.93 0 3.5 1.56 3.5 3.5 0 .6-.16 1.16-.43 1.66l1.12 1.12c.39.39.39 1.02 0 1.41 -.4.39-1.03.39-1.42 0l-1.13-1.13c-.5.26-1.07.42-1.67.42 -1.94 0-3.5-1.57-3.5-3.5Z"/></g></g></svg>