<svg viewBox="0 0 24 24" xmlns="http://www.w3.org/2000/svg"><g><g fill="#12131A" fill-rule="evenodd"><path d="M18 17c-.56 0-1 .44-1 1 0 .55.44 1 1 1 .55 0 1-.45 1-1 0-.56-.45-1-1-1Zm-3 1c0-1.66 1.34-3 3-3 1.65 0 3 1.34 3 3 0 .46-.11.9-.3 1.29l.99.99c.39.39.39 1.02 0 1.41 -.4.39-1.03.39-1.42 0l-1-1c-.4.18-.84.29-1.3.29 -1.66 0-3-1.35-3-3Z"/><path d="M12 2c-4.98 0-9 4.02-9 9 0 3.02 1.8 5.59 3.89 7.39l3.44 2.98c.66.57 1.55.75 2.35.52 .19-.06.31-.24.31-.44v-2.47c0-3.32 2.68-6 6-6h1.35c.22 0 .42-.16.47-.38 .11-.53.17-1.07.17-1.63 0-4.98-4.03-9-9-9Zm2 9c0 1.1-.9 2-2 2 -1.11 0-2-.9-2-2 0-1.11.89-2 2-2 1.1 0 2 .89 2 2Z"/></g></g></svg>