<svg viewBox="0 0 24 24" xmlns="http://www.w3.org/2000/svg"><g><g fill="#12131A" fill-rule="evenodd"><path d="M5.15 5.15C3.8 6.72 2.99 8.76 2.99 10.99c0 3.02 1.8 5.59 3.89 7.39l3.44 2.98c.95.82 2.37.82 3.327 0l3.44-2.99c.22-.2.45-.41.67-.63L5.12 5.11Z"/><path d="M9.18 2.44c.88-.3 1.83-.45 2.81-.45 4.97 0 9 4.02 9 9 0 1.02-.22 2-.57 2.91 -.21.51-.79.76-1.3.56 -.52-.21-.77-.79-.57-1.3 .27-.71.43-1.44.43-2.19 0-3.87-3.14-7-7-7 -.77 0-1.51.12-2.19.34 -.53.17-1.09-.12-1.27-.64 -.18-.53.11-1.09.63-1.27Z"/><path d="M2.29 2.29c.39-.4 1.02-.4 1.41 0l17.99 18c.39.39.39 1.02 0 1.41 -.4.39-1.03.39-1.42 0L2.26 3.7c-.4-.4-.4-1.03 0-1.42Z"/></g></g></svg>