<svg viewBox="0 0 24 24" xmlns="http://www.w3.org/2000/svg"><g><g fill="#12131A"><path d="M14 11c0 1.1-.9 2-2 2 -1.11 0-2-.9-2-2 0-1.11.89-2 2-2 1.1 0 2 .89 2 2Z"/><g fill="#12131A" fill-rule="evenodd"><path d="M3 11c0-4.98 4.02-9 9-9 4.97 0 9 4.02 9 9 0 1.66-.56 3.2-1.4 4.53 -.3.46-.92.6-1.38.31 -.47-.3-.61-.92-.32-1.38 .68-1.09 1.08-2.26 1.08-3.47 0-3.87-3.14-7-7-7 -3.87 0-7 3.13-7 7 0 2.2 1.33 4.26 3.2 5.88l3.44 2.98c.1.08.22.13.35.13 .55 0 1 .44 1 1 0 .55-.45 1-1 1 -.6 0-1.19-.21-1.67-.63l-3.45-2.99c-2.09-1.81-3.9-4.38-3.9-7.4Z"/><path d="M15 19c0-.56.44-1 1-1h6c.55 0 1 .44 1 1 0 .55-.45 1-1 1h-6c-.56 0-1-.45-1-1Z"/></g></g></g></svg>