<svg viewBox="0 0 24 24" xmlns="http://www.w3.org/2000/svg"><g><path fill="#12131A" fill-rule="evenodd" d="M3 11c0-4.98 4.02-9 9-9 4.97 0 9 4.02 9 9 0 3.02-1.81 5.59-3.9 7.39l-3.45 2.98c-.96.82-2.38.82-3.327 0l-3.45-2.99c-2.09-1.81-3.9-4.38-3.9-7.4Zm6.99-.5c0-.83.67-1.5 1.5-1.5 .82 0 1.5.67 1.5 1.49s-.68 1.5-1.5 1.5c-.83 0-1.51-.68-1.51-1.5Zm1.5-3.5c-1.94 0-3.51 1.56-3.51 3.49 0 1.93 1.56 3.5 3.5 3.5 .6 0 1.16-.16 1.66-.43l1.12 1.12c.39.39 1.02.39 1.41 0 .39-.4.39-1.03 0-1.42l-1.13-1.13c.26-.5.42-1.07.42-1.67 0-1.94-1.57-3.5-3.5-3.5Z"/></g></svg>