<svg viewBox="0 0 24 24" xmlns="http://www.w3.org/2000/svg"><g><path fill="#12131A" fill-rule="evenodd" d="M12 4c-3.87 0-7 3.13-7 7 0 2.2 1.33 4.26 3.2 5.88l3.44 2.98c.2.17.5.17.7 0l3.44-2.99c1.86-1.62 3.2-3.69 3.2-5.89 0-3.87-3.14-7-7-7Zm-9 7c0-4.98 4.02-9 9-9 4.97 0 9 4.02 9 9 0 3.02-1.81 5.59-3.9 7.39l-3.45 2.98c-.96.82-2.38.82-3.327 0l-3.45-2.99c-2.09-1.81-3.9-4.38-3.9-7.4Z"/><path fill="#12131A" d="M9.92 11.18l-.89 2.12c-.18.41.24.82.65.65l2.12-.89c.12-.06.23-.13.32-.22l2.56-2.57c.39-.4.39-1.03-.01-1.42l-.59-.59c-.4-.4-1.03-.4-1.42 0l-2.57 2.56c-.1.09-.17.2-.22.32Z"/></g></svg>