<svg viewBox="0 0 24 24" xmlns="http://www.w3.org/2000/svg"><g><g fill="#12131A"><path opacity=".25" d="M12 2c-4.98 0-9 4.02-9 9 0 3.02 1.8 5.59 3.89 7.39l3.44 2.98c.95.82 2.37.82 3.327 0l3.44-2.99c2.08-1.81 3.89-4.38 3.89-7.4 0-4.98-4.03-9-9-9Z"/><path d="M14 11c0 1.1-.9 2-2 2 -1.11 0-2-.9-2-2 0-1.11.89-2 2-2 1.1 0 2 .89 2 2Z"/><path fill="#12131A" fill-rule="evenodd" d="M15.29 18.29c-.4.39-.4 1.02 0 1.41l2 2c.39.39 1.02.39 1.41 0 .39-.4.39-1.03 0-1.42l-.3-.3h3.58c.55 0 1-.45 1-1 0-.56-.45-1-1-1h-3.59l.29-.3c.39-.4.39-1.03 0-1.42 -.4-.4-1.03-.4-1.42 0l-2 2Z"/></g></g></svg>