<svg viewBox="0 0 24 24" xmlns="http://www.w3.org/2000/svg"><g><g fill="#12131A" fill-rule="evenodd"><path d="M12 4c-3.87 0-7 3.13-7 7 0 2.2 1.33 4.26 3.2 5.88l3.44 2.98c.2.17.5.17.7 0l3.44-2.99c1.86-1.62 3.2-3.69 3.2-5.89 0-3.87-3.14-7-7-7Zm-9 7c0-4.98 4.02-9 9-9 4.97 0 9 4.02 9 9 0 3.02-1.81 5.59-3.9 7.39l-3.45 2.98c-.96.82-2.38.82-3.327 0l-3.45-2.99c-2.09-1.81-3.9-4.38-3.9-7.4Z"/><path d="M11.99 14c1.87 0 3.27-1.7 3.85-2.54 .19-.29.19-.65 0-.93 -.58-.85-1.98-2.54-3.86-2.54s-3.28 1.69-3.86 2.53c-.2.28-.2.64 0 .92 .57.84 1.97 2.53 3.85 2.53Zm0-2c.55 0 1-.45 1-1 0-.56-.45-1-1-1 -.56 0-1 .44-1 1 0 .55.44 1 1 1Z"/></g></g></svg>