<svg viewBox="0 0 24 24" xmlns="http://www.w3.org/2000/svg"><g><path fill="#12131A" fill-rule="evenodd" d="M3 11c0-4.98 4.02-9 9-9 4.97 0 9 4.02 9 9 0 .79-.13 1.56-.36 2.29 -.17.52-.73.82-1.25.66 -.53-.17-.83-.73-.67-1.25 .17-.56.26-1.13.26-1.71 0-3.87-3.14-7-7-7 -3.87 0-7 3.13-7 7 0 2.2 1.33 4.26 3.2 5.88l3.44 2.98c.2.17.5.17.7 0 .41-.37 1.04-.32 1.41.1 .36.41.31 1.04-.11 1.41 -.96.82-2.38.82-3.327 0l-3.45-2.99c-2.09-1.81-3.9-4.38-3.9-7.4Z"/><g fill="#12131A"><path d="M14 11c0 1.1-.9 2-2 2 -1.11 0-2-.9-2-2 0-1.11.89-2 2-2 1.1 0 2 .89 2 2Z"/><path d="M17.7 16.29c-.4-.4-1.03-.4-1.42 0 -.4.39-.4 1.02 0 1.41l1.29 1.29 -1.3 1.29c-.4.39-.4 1.02 0 1.41 .39.39 1.02.39 1.41 0l1.29-1.3 1.29 1.29c.39.39 1.02.39 1.41 0 .39-.4.39-1.03 0-1.42l-1.3-1.3 1.29-1.3c.39-.4.39-1.03 0-1.42 -.4-.4-1.03-.4-1.42 0l-1.3 1.29 -1.3-1.3Z"/></g></g></svg>