<svg viewBox="0 0 24 24" xmlns="http://www.w3.org/2000/svg"><g><path opacity=".25" fill="#12131A" fill-rule="evenodd" d="M7.51 7.51L4.27 8.75c-1.82.69-1.67 3.31.21 3.8l4.93 1.28c.35.09.62.36.71.71l1.28 4.93c.48 1.87 3.1 2.02 3.801.21l1.24-3.24 -8.98-8.98Z"/><g fill="#12131A"><path opacity=".25" d="M20.89 5.07c.47-1.24-.74-2.45-1.97-1.97l-6.79 2.62c-.52.19-.78.77-.58 1.29 .19.51.77.77 1.29.57l5.77-2.24 -2.24 5.77c-.2.51.05 1.09.57 1.29 .51.19 1.09-.06 1.29-.58l2.62-6.79Z"/><path fill="#12131A" fill-rule="evenodd" d="M2.29 2.29c.39-.4 1.02-.4 1.41 0l17.99 18c.39.39.39 1.02 0 1.41 -.4.39-1.03.39-1.42 0L2.26 3.7c-.4-.4-.4-1.03 0-1.42Z"/></g></g></svg>