<svg viewBox="0 0 24 24" xmlns="http://www.w3.org/2000/svg"><g><g fill="#12131A"><path opacity=".25" d="M12 2c-4.98 0-9 4.02-9 9 0 3.02 1.8 5.59 3.89 7.39l3.44 2.98c.95.82 2.37.82 3.327 0l3.44-2.99c2.08-1.81 3.89-4.38 3.89-7.4 0-4.98-4.03-9-9-9Z"/><path fill="#12131A" fill-rule="evenodd" d="M8.29 11.7c-.4-.4-.4-1.03 0-1.42l2-2.01c.39-.4 1.02-.4 1.41 0 .39.39.39 1.02 0 1.41l-.3.29h3.58c.55 0 1 .44 1 1 0 .55-.45 1-1 1h-3.59l.29.29c.39.39.39 1.02 0 1.41 -.4.39-1.03.39-1.42 0l-2.01-2Z"/></g></g></svg>