<svg viewBox="0 0 24 24" xmlns="http://www.w3.org/2000/svg"><g><g fill="#12131A" fill-rule="evenodd"><path d="M16.36 16.36l1.41 1.41c-.22.21-.45.42-.68.62l-3.45 2.98c-.96.82-2.38.82-3.327 0l-3.45-2.99c-2.09-1.81-3.9-4.38-3.9-7.4 0-2.24.81-4.28 2.15-5.85l1.41 1.41c-.99 1.2-1.58 2.74-1.58 4.42 0 2.2 1.33 4.26 3.2 5.88l3.44 2.98c.2.17.5.17.7 0l3.44-2.99c.19-.17.38-.35.56-.53Z"/><path d="M9.18 2.44c.88-.3 1.83-.45 2.81-.45 4.97 0 9 4.02 9 9 0 1.02-.22 2-.57 2.91 -.21.51-.79.76-1.3.56 -.52-.21-.77-.79-.57-1.3 .27-.71.43-1.44.43-2.19 0-3.87-3.14-7-7-7 -.77 0-1.51.12-2.19.34 -.53.17-1.09-.12-1.27-.64 -.18-.53.11-1.09.63-1.27Z"/><path d="M2.29 2.29c.39-.4 1.02-.4 1.41 0l17.99 18c.39.39.39 1.02 0 1.41 -.4.39-1.03.39-1.42 0L2.26 3.7c-.4-.4-.4-1.03 0-1.42Z"/></g></g></svg>