<svg viewBox="0 0 24 24" xmlns="http://www.w3.org/2000/svg"><g><path fill="#12131A" fill-rule="evenodd" d="M8.3 4.04c.5-.1 1.03-.05 1.52.12l5 1.76c.16.05.33.07.5.04l3.13-.56c1.83-.33 3.52 1.08 3.52 2.95v7.93c0 1.45-1.05 2.7-2.48 2.95l-3.83.67c-.51.09-1.04.04-1.53-.13L9.12 18c-.17-.06-.34-.08-.51-.05l-3.14.55c-1.84.32-3.53-1.09-3.53-2.96V7.6c0-1.46 1.04-2.71 2.47-2.96l3.82-.68ZM4.81 6.68l3.17-.57v9.96l-2.83.49c-.62.1-1.18-.37-1.18-.99V7.63c0-.49.34-.91.82-.99Zm9.17 10.95l-4-1.42V6.33l4 1.41v9.87Zm2 .22l3.17-.57c.47-.09.82-.5.82-.99V8.35c0-.63-.57-1.1-1.18-.99l-2.83.49v9.96Z"/></g></svg>