<svg viewBox="0 0 24 24" xmlns="http://www.w3.org/2000/svg"><g><g fill="#12131A"><path opacity=".25" d="M11 2c-.56 0-1 .44-1 1v17H9c-.56 0-1 .44-1 1 0 .55.44 1 1 1h4c.55 0 1-.45 1-1 0-.56-.45-1-1-1h-1V3c0-.56-.45-1-1-1Z"/><path d="M16.05 5.05c-.23-.06-.46-.06-.64-.06l-.05 0H6.55c-.26-.01-.5-.01-.71.01 -.23.01-.5.06-.77.2 -.38.19-.69.49-.88.87 -.14.27-.19.54-.21.76 -.02.2-.02.45-.02.7v2.86c-.01.25-.01.49.01.7 .01.22.06.49.2.76 .19.37.49.68.87.87 .27.13.54.18.76.2 .2.01.45.01.7.01h8.8l.04 0c.18 0 .4 0 .63-.06 .19-.05.38-.12.55-.22 .19-.12.36-.28.49-.4l.03-.04 2.15-2.01c.09-.09.2-.19.29-.29 .1-.12.24-.29.32-.54 .1-.32.1-.66 0-.97 -.09-.25-.23-.42-.33-.54 -.09-.1-.2-.21-.3-.29l-2.16-2.01 -.04-.04c-.14-.13-.3-.28-.5-.4 -.18-.11-.37-.18-.56-.22Z"/></g></g></svg>