<svg viewBox="0 0 24 24" xmlns="http://www.w3.org/2000/svg"><g><g fill="#12131A"><path d="M11 2c-.56 0-1 .44-1 1v2h2V3c0-.56-.45-1-1-1Z"/><path d="M10 20v-7h2v7h1c.55 0 1 .44 1 1 0 .55-.45 1-1 1H9c-.56 0-1-.45-1-1 0-.56.44-1 1-1h1Z"/><path fill="#12131A" fill-rule="evenodd" d="M15.52 7.01c-.08-.02-.16-.02-.6-.02H7.98c-.48 0-.79 0-1.03.01 -.23.01-.32.04-.36.05 -.25.1-.44.29-.55.54 -.02.04-.05.12-.06.35 -.02.23-.02.54-.02 1.02 0 .47 0 .78.01 1.02 .01.22.04.31.05.35 .1.24.29.43.54.54 .04.01.12.04.35.05 .23.01.54.01 1.02.01h6.93c.43 0 .51-.01.59-.02 .08-.02.16-.05.24-.09 .06-.04.13-.08.48-.35l.58-.44c.44-.34.73-.56.92-.73 .15-.15.19-.21.19-.22 .04-.12.04-.25 0-.37 -.01-.01-.05-.08-.2-.22 -.2-.18-.48-.39-.93-.73l-.59-.44c-.35-.27-.42-.31-.49-.35 -.08-.04-.16-.07-.25-.09Zm2.44 2.16s-.01 0-.01 0Zm-2.97-4.18c.32-.01.62-.01.9.05 .25.04.49.13.73.24 .26.12.49.3.76.5 .01.01.03.02.05.04l.62.46c.4.3.76.57 1.03.81 .28.25.56.56.72.97 .22.58.22 1.22 0 1.81 -.17.41-.45.72-.73.97 -.28.24-.63.5-1.04.81l-.63.46c-.02.01-.04.02-.06.04 -.27.19-.5.37-.77.5 -.24.11-.48.19-.74.24 -.29.05-.58.05-.91.05 -.03 0-.05 0-.07 0H7.88c-.44 0-.82 0-1.14-.03 -.33-.03-.66-.08-.99-.21 -.74-.31-1.32-.89-1.63-1.63 -.14-.33-.19-.66-.21-.99 -.03-.32-.03-.7-.03-1.14v-.07c-.01-.44-.01-.82.02-1.14 .02-.33.07-.66.2-.99 .3-.74.88-1.32 1.62-1.63 .32-.14.65-.19.98-.21 .31-.03.69-.03 1.13-.03h6.96c.02 0 .04-.01.06-.01Z"/></g></g></svg>