<svg viewBox="0 0 24 24" xmlns="http://www.w3.org/2000/svg"><g><path fill="#12131A" d="M9.24 2c-.41-.01-.77-.01-1.12.08 -.31.07-.6.19-.87.35 -.31.18-.56.44-.85.72L3.15 6.39c-.29.28-.55.54-.73.84 -.17.26-.29.56-.36.86 -.09.34-.09.7-.09 1.11v5.51c-.01.4-.01.76.08 1.11 .07.3.19.59.35.86 .18.3.44.55.72.84l3.24 3.24c.28.28.54.54.84.72 .26.16.56.28.86.35 .34.08.7.08 1.11.08h5.51c.4 0 .76 0 1.11-.09 .3-.08.59-.2.86-.36 .3-.19.55-.45.84-.73l3.24-3.25c.28-.29.54-.55.72-.85 .16-.27.28-.57.35-.87 .08-.35.08-.71.08-1.12V9.12c0-.41 0-.77-.09-1.12 -.08-.31-.2-.6-.36-.87 -.19-.31-.45-.56-.73-.85l-3.25-3.25c-.29-.29-.55-.55-.85-.73 -.27-.17-.57-.29-.87-.36 -.35-.09-.71-.09-1.12-.09H9.09Z"/></g></svg>