<svg viewBox="0 0 24 24" xmlns="http://www.w3.org/2000/svg"><g><path fill="#12131A" fill-rule="evenodd" d="M12 20c4.41 0 8-3.59 8-8 0-4.42-3.59-8-8-8 -4.42 0-8 3.58-8 8 0 4.41 3.58 8 8 8Zm0 2c5.52 0 10-4.48 10-10 0-5.53-4.48-10-10-10C6.47 2 2 6.47 2 12c0 5.52 4.47 10 10 10Z"/><path fill="#12131A" d="M14.7 7.29c-.4-.4-1.03-.4-1.42 0 -.4.39-.4 1.02 0 1.41l.29.29h-2.59c-1.66 0-3 1.34-3 3v4c0 .55.44 1 1 1 .55 0 1-.45 1-1v-4c0-.56.44-1 1-1h2.58l-.3.29c-.4.39-.4 1.02 0 1.41 .39.39 1.02.39 1.41 0l2-2c0-.01 0-.01.01-.02 .17-.19.28-.43.28-.7 0-.27-.11-.52-.28-.7 -.01-.01-.01-.01-.02-.02l-2-2Z"/></g></svg>