<svg viewBox="0 0 24 24" xmlns="http://www.w3.org/2000/svg"><g><g fill="#12131A"><path opacity=".25" d="M4 20.4V3.6c0-.57 0-.85.1-1.06 .09-.19.24-.35.43-.44 .21-.11.49-.11 1.05-.11h12.8c.56 0 .84 0 1.05.1 .18.09.34.24.43.43 .1.21.1.49.1 1.05v16.8c0 .56 0 .84-.11 1.05 -.1.18-.25.34-.44.43 -.22.1-.5.1-1.06.1H5.55c-.57 0-.85 0-1.06-.11 -.19-.1-.35-.25-.44-.44 -.11-.22-.11-.5-.11-1.06Z"/><path d="M13 2v3c0 .55-.45 1-1 1 -.56 0-1-.45-1-1V2h2Z"/><path d="M12 10c.55 0 1 .44 1 1v2c0 .55-.45 1-1 1 -.56 0-1-.45-1-1v-2c0-.56.44-1 1-1Z"/><path d="M13 19c0-.56-.45-1-1-1 -.56 0-1 .44-1 1v3h2v-3Z"/></g></g></svg>