<svg viewBox="0 0 24 24" xmlns="http://www.w3.org/2000/svg"><g><g fill="#12131A"><path opacity=".25" d="M22 12c0 5.52-4.48 10-10 10C6.47 22 2 17.52 2 12 2 6.47 6.47 2 12 2c5.52 0 10 4.47 10 10Z"/><path d="M12 6c.55 0 1 .44 1 1v2.38l3.44 1.72c.49.24.69.84.44 1.34 -.25.49-.85.69-1.35.44l-2.56-1.28v2.76l1.44.72c.49.24.69.84.44 1.34 -.25.49-.85.69-1.35.44l-1.56-.78 -1.56.77c-.5.24-1.1.04-1.35-.45 -.25-.5-.05-1.1.44-1.35l1.44-.73v-2.77l-2.56 1.27c-.5.24-1.1.04-1.35-.45 -.25-.5-.05-1.1.44-1.35l3.44-1.73V6.9c0-.56.44-1 1-1Z"/></g></g></svg>