<svg viewBox="0 0 24 24" xmlns="http://www.w3.org/2000/svg"><g><path fill="#12131A" fill-rule="evenodd" d="M11 2.8c0-.29 0-.43-.06-.53 -.05-.1-.13-.18-.22-.22 -.11-.06-.25-.06-.53-.06h-4.6c-.57 0-.85 0-1.06.1 -.19.09-.35.24-.44.43 -.11.21-.11.49-.11 1.05v16.8c0 .56 0 .84.1 1.05 .09.18.24.34.43.43 .21.1.49.1 1.05.1h4.6c.28 0 .42 0 .52-.06 .09-.05.17-.13.21-.22 .05-.11.05-.25.05-.53v-2.2c0-.56.44-1 1-1 .55 0 1 .44 1 1v2.2c0 .28 0 .42.05.52 .04.09.12.17.21.21 .1.05.24.05.52.05h4.6c.56 0 .84 0 1.05-.11 .18-.1.34-.25.43-.44 .1-.22.1-.5.1-1.06V3.51c0-.57 0-.85-.11-1.06 -.1-.19-.25-.35-.44-.44 -.22-.11-.5-.11-1.06-.11h-4.6c-.28 0-.42 0-.53.05 -.1.04-.18.12-.22.21 -.06.1-.06.24-.06.52v2.2c0 .55-.45 1-1 1 -.56 0-1-.45-1-1v-2.2Zm1 7.2c.55 0 1 .44 1 1v2c0 .55-.45 1-1 1 -.56 0-1-.45-1-1v-2c0-.56.44-1 1-1Z"/></g></svg>