<svg viewBox="0 0 24 24" xmlns="http://www.w3.org/2000/svg"><g><g fill="#12131A"><path d="M6 3c0-.56-.45-1-1-1 -.56 0-1 .44-1 1v18c0 .55.44 1 1 1 .55 0 1-.45 1-1V3Z"/><path d="M20 3c0-.56-.45-1-1-1 -.56 0-1 .44-1 1v18c0 .55.44 1 1 1 .55 0 1-.45 1-1V3Z"/><path d="M12 2c.55 0 1 .44 1 1v2c0 .55-.45 1-1 1 -.56 0-1-.45-1-1V3c0-.56.44-1 1-1Z"/><path d="M12 10c.55 0 1 .44 1 1v2c0 .55-.45 1-1 1 -.56 0-1-.45-1-1v-2c0-.56.44-1 1-1Z"/><path d="M13 19c0-.56-.45-1-1-1 -.56 0-1 .44-1 1v2c0 .55.44 1 1 1 .55 0 1-.45 1-1v-2Z"/></g></g></svg>