<svg viewBox="0 0 24 24" xmlns="http://www.w3.org/2000/svg"><g><path fill="#12131A" fill-rule="evenodd" d="M9.88 2c.03 0 .06 0 .1 0H14c.03 0 .06-.01.1-.01 .63-.01 1.11-.01 1.57.11 .4.09.79.25 1.15.47 .4.24.74.58 1.19 1.03 .02.02.04.04.07.07l2.18 2.18c.02.02.04.04.07.07 .44.44.78.78 1.03 1.19 .21.35.38.74.47 1.15 .11.46.11.94.11 1.57 0 .03 0 .06 0 .1v4.02c0 .03 0 .06 0 .1 0 .63 0 1.11-.12 1.57 -.1.4-.26.79-.48 1.15 -.25.4-.59.74-1.04 1.19 -.03.02-.05.04-.08.07l-2.19 2.18c-.03.02-.05.04-.08.07 -.45.44-.79.78-1.2 1.03 -.36.21-.75.38-1.16.47 -.47.11-.95.11-1.58.11 -.04 0-.07 0-.11 0H9.87c-.04 0-.07 0-.11 0 -.64 0-1.12 0-1.58-.12 -.41-.1-.8-.26-1.16-.48 -.41-.25-.75-.59-1.2-1.04 -.03-.03-.05-.05-.08-.08l-2.19-2.19c-.03-.03-.05-.05-.08-.08 -.45-.45-.79-.79-1.04-1.2 -.22-.36-.39-.75-.48-1.16 -.12-.47-.12-.95-.12-1.58 0-.04 0-.07 0-.11V9.82c0-.04-.01-.07-.01-.11 -.01-.64-.01-1.12.11-1.58 .09-.41.25-.8.47-1.16 .24-.41.58-.75 1.03-1.2 .02-.03.04-.05.07-.08L5.68 3.5c.02-.03.04-.05.07-.08 .44-.45.78-.79 1.19-1.04 .35-.22.74-.39 1.15-.48 .46-.12.94-.12 1.57-.12Zm.1 2c-.79 0-1.01 0-1.22.05 -.21.04-.4.12-.58.23 -.18.1-.35.26-.9.81L5.09 7.27c-.56.55-.71.71-.82.89 -.11.17-.2.37-.24.57 -.05.2-.06.43-.06 1.21v4.02c0 .78 0 1 .05 1.21 .04.2.12.39.23.57 .1.17.26.34.81.89l2.18 2.18c.55.55.71.7.89.81 .17.1.37.19.57.23 .2.04.43.05 1.21.05h4.02c.78 0 1-.01 1.21-.06 .2-.05.39-.13.57-.24 .17-.11.34-.27.89-.82l2.18-2.19c.55-.56.7-.72.81-.9 .1-.18.19-.38.23-.58 .04-.21.05-.44.05-1.22V9.86c0-.79-.01-1.01-.06-1.22 -.05-.21-.13-.4-.24-.58 -.11-.18-.27-.35-.82-.9l-2.19-2.19c-.56-.56-.72-.71-.9-.82 -.18-.11-.38-.2-.58-.24 -.21-.05-.44-.06-1.22-.06H9.83Z"/></g></svg>