<svg viewBox="0 0 24 24" xmlns="http://www.w3.org/2000/svg"><g><path fill="#12131A" fill-rule="evenodd" d="M15 5c-1.11 0-2 .89-2 2v10c0 2.2-1.8 4-4 4 -2.21 0-4-1.8-4-4V6h2v11c0 1.1.89 2 2 2 1.1 0 2-.9 2-2V7c0-2.21 1.79-4 4-4 2.2 0 4 1.79 4 4v10h-2V7c0-1.11-.9-2-2-2Z"/><g fill="#12131A"><path d="M6.86 3.48c-.39-.67-1.35-.67-1.73 0L3.37 6.49c-.39.66.09 1.5.86 1.5h3.51c.77 0 1.25-.84.86-1.51L6.84 3.46Z"/><path fill="#12131A" fill-rule="evenodd" d="M18 14.99c-1.66 0-3 1.34-3 3 0 1.65 1.34 3 3 3 1.65 0 3-1.35 3-3 0-1.66-1.35-3-3-3Zm-1 3c0-.56.44-1 1-1 .55 0 1 .44 1 1 0 .55-.45 1-1 1 -.56 0-1-.45-1-1Z"/></g></g></svg>