<svg viewBox="0 0 24 24" xmlns="http://www.w3.org/2000/svg"><g><g fill="#12131A"><path d="M12 3c-.73 0-1.38.46-1.61 1.14L8.94 8.32c-.12.32.12.66.47.66h5.15c.34 0 .58-.34.47-.67l-1.45-4.19c-.24-.69-.89-1.15-1.61-1.15Z"/><path d="M7.7 14c-.35 0-.59-.34-.48-.67l.68-2c.06-.21.25-.34.47-.34h7.21c.21 0 .4.13.47.33l.68 2c.11.32-.13.66-.48.66H7.66Z"/><path d="M6.67 16c-.22 0-.41.13-.48.33l-.92 2.66H3.98c-.56 0-1 .44-1 1 0 .55.44 1 1 1h16c.55 0 1-.45 1-1 0-.56-.45-1-1-1h-1.29l-.92-2.67c-.07-.21-.26-.34-.48-.34H6.63Z"/></g></g></svg>