<svg viewBox="0 0 24 24" xmlns="http://www.w3.org/2000/svg"><g><g fill="#12131A" fill-rule="evenodd"><path d="M11 15.5c0-.28-.23-.5-.5-.5H5c-.56 0-1 .44-1 1v2c0 1.65 1.34 3 3 3h3.5c.27 0 .5-.23.5-.5v-5Zm2 5c0 .27.22.5.5.5H17c1.65 0 3-1.35 3-3v-2c0-.56-.45-1-1-1h-5.5c-.28 0-.5.22-.5.5v5Z"/><path d="M5 9c-1.11 0-2 .89-2 2 0 1.1.89 2 2 2h5.5c.27 0 .5-.23.5-.5v-3c0-.28-.23-.5-.5-.5H5Zm8.5 0c-.28 0-.5.22-.5.5v3c0 .27.22.5.5.5H19c1.1 0 2-.9 2-2 0-1.11-.9-2-2-2h-5.5Z"/></g><g fill="#12131A"><path d="M9 3c-1.11 0-2 .89-2 2 0 1.1.89 2 2 2h1.5c.27 0 .5-.23.5-.5V5c0-1.11-.9-2-2-2Z"/><path d="M15 3c1.1 0 2 .89 2 2 0 1.1-.9 2-2 2h-1.5c-.28 0-.5-.23-.5-.5V5c0-1.11.89-2 2-2Z"/></g></g></svg>