<svg viewBox="0 0 24 24" xmlns="http://www.w3.org/2000/svg"><g><g fill="#12131A"><path d="M8.99 18.31v-1.65c0-.37-.3-.67-.67-.67H6c-.52 0-.9.48-.78.98l.43 1.73c.18.75.86 1.27 1.63 1.27 .93 0 1.68-.76 1.68-1.69Z"/><path d="M18 10.77c0-.99.79-1.78 1.77-1.78h.22c1.1 0 2 .89 2 2v0c0 1.1-.9 2-2 2h-.23c-.99 0-1.78-.8-1.78-1.78v-.45Z"/><path d="M6 7.99c-1.66 0-3 1.34-3 3 0 1.65 1.34 3 3 3h2.5c.27 0 .5-.23.5-.5V8.48c0-.28-.23-.5-.5-.5H6Z"/><path d="M11.24 7.85c-.16.08-.25.25-.25.43v5.42c0 .17.09.34.24.43l5.98 3.5c1.66.97 3.76-.23 3.76-2.16V6.48c0-1.94-2.1-3.14-3.77-2.16l-5.99 3.5Z"/></g></g></svg>