<svg viewBox="0 0 24 24" xmlns="http://www.w3.org/2000/svg"><g><path fill="#12131A" fill-rule="evenodd" d="M5.99 12c-.66 0-1.13.61-.97 1.24l1.39 5.49c.33 1.32 1.53 2.26 2.9 2.26h5.33c1.37 0 2.57-.94 2.9-2.27l1.39-5.5c.16-.64-.32-1.25-.97-1.25h-12Zm3 4c0-.56.44-1 1-1 .55 0 1 .44 1 1v1c0 .55-.45 1-1 1 -.56 0-1.01-.45-1.01-1v-1Zm4 0c0-.56.44-1 1-1 .55 0 1 .44 1 1v1c0 .55-.45 1-1 1 -.56 0-1-.45-1-1v-1Z"/><g fill="#12131A"><path d="M3 9c0-.56.44-1 1-1h16c.55 0 1 .44 1 1v0c0 .55-.45 1-1 1H4c-.56 0-1-.45-1-1v0Z"/><path fill="#12131A" fill-rule="evenodd" d="M10.7 4.7c.39-.4.39-1.03 0-1.42 -.4-.4-1.03-.4-1.42 0l-1 1c-.4.39-.4 1.02 0 1.41 .39.39 1.02.39 1.41 0l.99-1Zm2.58 0c-.4-.4-.4-1.03 0-1.42 .39-.4 1.02-.4 1.41 0l1 1c.39.39.39 1.02 0 1.41 -.4.39-1.03.39-1.42 0l-1-1Z"/></g></g></svg>