<svg viewBox="0 0 24 24" xmlns="http://www.w3.org/2000/svg"><g><path fill="#12131A" fill-rule="evenodd" d="M3 7.8c0-1.69 0-2.53.32-3.17 .28-.57.74-1.03 1.31-1.32 .64-.33 1.48-.33 3.16-.33h8.4c1.68 0 2.52 0 3.16.32 .56.28 1.02.74 1.31 1.31 .32.64.32 1.48.32 3.16v8.4c0 1.68 0 2.52-.33 3.16 -.29.56-.75 1.02-1.32 1.31 -.65.32-1.49.32-3.17.32h-8.4c-1.69 0-2.53 0-3.17-.33 -.57-.29-1.03-.75-1.32-1.32 -.33-.65-.33-1.49-.33-3.17v-8.4ZM19 14c0-.56-.45-1-1-1 -.56 0-1 .44-1 1v4c0 .55.44 1 1 1 .55 0 1-.45 1-1v-4Zm-5-7c.55 0 1 .44 1 1v10c0 .55-.45 1-1 1 -.56 0-1-.45-1-1V8c0-.56.44-1 1-1Zm-3 3c0-.56-.45-1-1-1 -.56 0-1 .44-1 1v8c0 .55.44 1 1 1 .55 0 1-.45 1-1v-8ZM6 5c.55 0 1 .44 1 1v12c0 .55-.45 1-1 1 -.56 0-1-.45-1-1V6c0-.56.44-1 1-1Z"/></g></svg>