<svg viewBox="0 0 24 24" xmlns="http://www.w3.org/2000/svg"><g><path fill="#12131A" fill-rule="evenodd" d="M3.32 4.63c-.33.64-.33 1.48-.33 3.16v8.4c0 1.68 0 2.52.32 3.16 .28.56.74 1.02 1.31 1.31 .64.32 1.48.32 3.16.32h8.4c1.68 0 2.52 0 3.16-.33 .56-.29 1.02-.75 1.31-1.32 .32-.65.32-1.49.32-3.17v-8.4c0-1.69 0-2.53-.33-3.17 -.29-.57-.75-1.03-1.32-1.32 -.65-.33-1.49-.33-3.17-.33h-8.4c-1.69 0-2.53 0-3.17.32 -.57.28-1.03.74-1.32 1.31ZM18.94 6.3c.17-.53-.11-1.1-.64-1.27 -.53-.18-1.1.1-1.27.63l-1.98 5.93c-.24.7-1.14.91-1.66.39l-1.43-1.43c-1.58-1.58-4.27-.95-4.97 1.17l-1.98 5.93c-.18.52.1 1.09.63 1.26 .52.17 1.09-.11 1.26-.64l1.97-5.93c.23-.71 1.13-.92 1.65-.4l1.42 1.42c1.577 1.57 4.26.94 4.96-1.18l1.97-5.93Z"/></g></svg>