<svg viewBox="0 0 24 24" xmlns="http://www.w3.org/2000/svg"><g><g fill="#12131A"><path d="M7.34 18.65c-.4.39-.4 1.02.03 1.37 .89.71 1.91 1.24 3 1.58 1.41.42 2.91.5 4.36.21 1.45-.29 2.8-.94 3.95-1.87 1.14-.94 2.03-2.15 2.6-3.52 .56-1.37.78-2.86.64-4.33 -.15-1.48-.66-2.89-1.48-4.12 -.83-1.24-1.94-2.24-3.25-2.94 -1.02-.55-2.12-.89-3.25-1.01 -.55-.07-1 .39-1 .94v7.58c0 .26-.11.51-.3.7L7.27 18.6Z"/><path d="M11 2.95c0-.56-.45-1.01-1-.95 -1.43.15-2.81.65-4.01 1.46 -1.49.98-2.64 2.39-3.32 4.03 -.69 1.64-.86 3.45-.52 5.19 .28 1.41.9 2.74 1.79 3.86 .34.43.98.42 1.37.03l5.36-5.37c.18-.19.29-.45.29-.71V2.9Z"/></g></g></svg>