<svg viewBox="0 0 24 24" xmlns="http://www.w3.org/2000/svg"><g><g fill="#12131A"><path opacity=".25" d="M22 17.14c0-1.09-.63-1.97-1.13-2.54 -.4-.45-.88-1.26-.88-2.62s.48-2.17.87-2.62c.5-.58 1.12-1.46 1.12-2.54 0-1.58-1.28-2.86-2.86-2.86l-14.3 0c-1.58 0-2.86 1.27-2.86 2.85 0 1.08.62 1.96 1.12 2.53 .39.44.87 1.25.87 2.61 0 1.35-.49 2.16-.88 2.61 -.51.57-1.13 1.45-1.13 2.53 0 1.57 1.27 2.85 2.85 2.85h14.29c1.57 0 2.85-1.28 2.85-2.86Z"/><path fill="#12131A" fill-rule="evenodd" d="M10 11c-.56 0-1-.45-1-1 0-.56.44-1 1-1 .55 0 1 .44 1 1 0 .55-.45 1-1 1Zm4.7-.3l-4 4c-.4.39-1.03.39-1.42 0 -.4-.4-.4-1.03 0-1.42l4-4.01c.39-.4 1.02-.4 1.41 0 .39.39.39 1.02 0 1.41Zm-1.71 3.29c0 .55.44 1 1 1 .55 0 1-.45 1-1 0-.56-.45-1-1-1 -.56 0-1 .44-1 1Z"/></g></g></svg>