<svg viewBox="0 0 24 24" xmlns="http://www.w3.org/2000/svg"><g><g fill="#12131A"><path d="M10 18.37v-4.38H6l.77 4.64c.13.78.8 1.35 1.6 1.35 .89 0 1.62-.73 1.62-1.63Z"/><path opacity=".25" d="M3 10.99c0-1.66 1.34-3.01 3-3.01h3l2 0 6.23-3.65c1.66-.98 3.76.22 3.76 2.15v8.98c0 1.93-2.1 3.13-3.77 2.15l-6.24-3.66h-2 -3c-1.66 0-3-1.35-3-3v0Z"/><path opacity=".25" d="M18 10.77c0-.99.79-1.78 1.77-1.78h.22c1.1 0 2 .89 2 2v0c0 1.1-.9 2-2 2h-.23c-.99 0-1.78-.8-1.78-1.78v-.45Z"/><path d="M11 8l6.23-3.65c1.66-.98 3.76.22 3.76 2.15v8.98c0 1.93-2.1 3.13-3.77 2.15l-6.24-3.66v-6Z"/></g></g></svg>