<svg viewBox="0 0 24 24" xmlns="http://www.w3.org/2000/svg"><g><g fill="#12131A"><path opacity=".25" d="M5 4h14v16.5c0 .35-.37.59-.7.46l-1.99-.83c-.21-.09-.44-.11-.66-.04l-2.86.8c-.53.14-1.09.14-1.62 0l-2.86-.8c-.22-.07-.45-.05-.66.03l-1.99.82c-.33.13-.7-.11-.7-.47V3.97Z"/><path fill="#12131A" fill-rule="evenodd" d="M9 9c-.56 0-1 .44-1 1 0 .55.44 1 1 1h2c.55 0 1-.45 1-1 0-.56-.45-1-1-1H9Zm6 0c-.56 0-1 .44-1 1 0 .55.44 1 1 1 .55 0 1-.45 1-1 0-.56-.45-1-1-1Zm-7 5c0-.56.44-1 1-1h2c.55 0 1 .44 1 1 0 .55-.45 1-1 1H9c-.56 0-1-.45-1-1Zm7-1c-.56 0-1 .44-1 1 0 .55.44 1 1 1 .55 0 1-.45 1-1 0-.56-.45-1-1-1Z"/><path d="M3 4c0-.56.44-1 1-1h16c.55 0 1 .44 1 1v0c0 .55-.45 1-1 1H4c-.56 0-1-.45-1-1v0Z"/></g></g></svg>