<svg viewBox="0 0 24 24" xmlns="http://www.w3.org/2000/svg"><g><g fill="#12131A"><path d="M3 12c0-.56.44-1 1-1h16c.55 0 1 .44 1 1v0c0 .55-.45 1-1 1H4c-.56 0-1-.45-1-1v0Z"/><path opacity=".25" fill="#12131A" fill-rule="evenodd" d="M8 3l-.14-.01c-.8-.01-1.39-.01-1.9.13 -1.39.36-2.46 1.44-2.83 2.82 -.14.51-.14 1.1-.14 1.89l0 .13c0 .55.44 1 1 1 .55 0 1-.45 1-1 0-1 0-1.3.06-1.52 .18-.7.72-1.23 1.41-1.42 .22-.06.52-.07 1.51-.07 .55 0 1-.45 1-1 0-.56-.45-1-1-1Zm8 18h.13v0c.79 0 1.38 0 1.89-.14 1.38-.37 2.45-1.45 2.82-2.83 .13-.52.13-1.11.13-1.9v-.14c0-.56-.45-1-1-1 -.56 0-1 .44-1 1 0 .99-.01 1.29-.07 1.51 -.19.69-.73 1.22-1.42 1.41 -.23.05-.53.06-1.52.06 -.56 0-1 .44-1 1 0 .55.44 1 1 1ZM2.99 16.13l0-.14c0-.56.44-1 1-1 .55 0 1 .44 1 1 0 .99 0 1.29.06 1.51 .18.69.72 1.22 1.41 1.41 .22.05.52.06 1.51.06 .55 0 1 .44 1 1 0 .55-.45 1-1 1h-.14 -.01c-.8 0-1.39 0-1.9-.14 -1.39-.37-2.46-1.45-2.83-2.83 -.14-.52-.14-1.11-.14-1.9Zm18-8.14v-.14 -.01c0-.8 0-1.39-.14-1.9 -.37-1.39-1.45-2.46-2.83-2.83 -.52-.14-1.11-.14-1.9-.14l-.14 0v0c-.56 0-1 .44-1 1 0 .55.44 1 1 1 .99 0 1.29 0 1.51.06 .69.18 1.22.72 1.41 1.41 .05.22.06.52.06 1.51 0 .55.44 1 1 1 .55 0 1-.45 1-1Z"/></g></g></svg>