<svg viewBox="0 0 24 24" xmlns="http://www.w3.org/2000/svg"><g><g fill="#12131A"><path opacity=".25" d="M5 11h14l-1.52 7.58c-.29 1.4-1.52 2.41-2.95 2.41H9.44c-1.44 0-2.67-1.01-2.95-2.42l-1.52-7.59Z"/><g fill="#12131A" fill-rule="evenodd"><path d="M10 14c-.56 0-1 .44-1 1v2c0 .55.44 1 1 1 .55 0 1-.45 1-1v-2c0-.56-.45-1-1-1Zm4 0c-.56 0-1 .44-1 1v2c0 .55.44 1 1 1 .55 0 1-.45 1-1v-2c0-.56-.45-1-1-1Z"/><path opacity=".25" d="M10.7 4.7c.39-.4.39-1.03 0-1.42 -.4-.4-1.03-.4-1.42 0l-5 5c-.4.39-.4 1.02 0 1.41 .39.39 1.02.39 1.41 0l4.99-5Zm2.58 0c-.4-.4-.4-1.03 0-1.42 .39-.4 1.02-.4 1.41 0l5 5c.39.39.39 1.02 0 1.41 -.4.39-1.03.39-1.42 0l-5-5Z"/></g><path d="M3 9.5C3 8.67 3.67 8 4.5 8h15c.82 0 1.5.67 1.5 1.5v0c0 .82-.68 1.5-1.5 1.5h-15C3.67 11 3 10.32 3 9.5v0Z"/></g></g></svg>