<svg viewBox="0 0 24 24" xmlns="http://www.w3.org/2000/svg"><g><g fill-rule="evenodd" fill="#12131A"><path opacity=".25" d="M12 4c-4.42 0-8 3.58-8 8 0 4.41 3.58 8 8 8 1.279 0 2.48-.3 3.55-.84 .49-.25 1.09-.05 1.34.45 .24.49.04 1.09-.46 1.34 -1.35.66-2.86 1.04-4.45 1.04 -5.53 0-10-4.48-10-10 0-5.53 4.47-10 10-10 5.52 0 10 4.47 10 10v0c0 .27 0 1.4-.37 2.49 -.19.55-.49 1.17-1 1.66 -.54.51-1.25.83-2.14.83 -.56 0-1-.45-1-1 0-.56.44-1 1-1 .36 0 .58-.12.75-.28 .19-.19.35-.48.48-.86 .25-.78.26-1.63.26-1.88 0-4.42-3.59-8-8-8Z"/><path d="M15 12c0 1.65-1.35 3-3 3 -1.66 0-3-1.35-3-3 0-1.66 1.34-3 3-3 1.65 0 3 1.34 3 3Zm.75 3.3c-.92 1.03-2.26 1.69-3.76 1.69 -2.77 0-5-2.24-5-5 0-2.77 2.23-5 5-5 1.12 0 2.16.37 3 .99 0-.56.44-1 1-1 .55 0 1 .44 1 1 0 2.55 0 4.41.28 5.65 .13.6.31.93.48 1.1 .13.13.32.24.73.24 .55 0 1 .44 1 1 0 .55-.45 1-1 1 -.85 0-1.59-.27-2.17-.85 -.25-.25-.44-.54-.59-.85Z"/></g></g></svg>