<svg viewBox="0 0 24 24" xmlns="http://www.w3.org/2000/svg"><g><path opacity=".25" fill="#12131A" d="M3 17.27V9.39c0-2.25 0-3.37.43-4.22 .38-.76.99-1.37 1.74-1.75 .85-.44 1.97-.44 4.21-.44h5.2c2.24 0 3.36 0 4.21.43 .75.38 1.36.99 1.74 1.74 .43.85.43 1.97.43 4.21v1.2c0 2.24 0 3.36-.44 4.21 -.39.75-1 1.36-1.75 1.74 -.86.43-1.98.43-4.22.43H10.3c-.51 0-.76 0-.99.05 -.21.05-.41.13-.59.25 -.21.12-.38.3-.73.67l-.93.96c-1.3 1.33-1.94 2-2.5 2.05 -.49.04-.96-.15-1.28-.52 -.37-.43-.37-1.36-.37-3.21Z"/></g></svg>