<svg viewBox="0 0 24 24" xmlns="http://www.w3.org/2000/svg"><g><g fill="#12131A"><path d="M19 4c.55 0 1 .44 1 1v2c0 .55-.45 1-1 1 -.56 0-1-.45-1-1V5c0-.56.44-1 1-1Z"/><path d="M13 17c0-.56-.45-1-1-1 -.56 0-1 .44-1 1v2c0 .55.44 1 1 1 .55 0 1-.45 1-1v-2Z"/><path d="M12 4c.55 0 1 .44 1 1v8c0 .55-.45 1-1 1 -.56 0-1-.45-1-1V5c0-.56.44-1 1-1Z"/><path d="M6 5c0-.56-.45-1-1-1 -.56 0-1 .44-1 1v4c0 .55.44 1 1 1 .55 0 1-.45 1-1V5Z"/><path d="M6 13c0-.56-.45-1-1-1 -.56 0-1 .44-1 1v6c0 .55.44 1 1 1 .55 0 1-.45 1-1v-6Z"/><path d="M20 11c0-.56-.45-1-1-1 -.56 0-1 .44-1 1v8c0 .55.44 1 1 1 .55 0 1-.45 1-1v-8Z"/><g fill="#12131A" fill-rule="evenodd"><path d="M19 12c-1.66 0-3-1.35-3-3 0-1.66 1.34-3 3-3 1.65 0 3 1.34 3 3 0 1.65-1.35 3-3 3Zm0-2c-.56 0-1-.45-1-1 0-.56.44-1 1-1 .55 0 1 .44 1 1 0 .55-.45 1-1 1Z"/><path d="M9 15c0 1.65 1.34 3 3 3 1.65 0 3-1.35 3-3 0-1.66-1.35-3-3-3 -1.66 0-3 1.34-3 3Zm2 0c0 .55.44 1 1 1 .55 0 1-.45 1-1 0-.56-.45-1-1-1 -.56 0-1 .44-1 1Z"/><path d="M2 11c0 1.65 1.34 3 3 3 1.65 0 3-1.35 3-3 0-1.66-1.35-3-3-3 -1.66 0-3 1.34-3 3Zm2 0c0 .55.44 1 1 1 .55 0 1-.45 1-1 0-.56-.45-1-1-1 -.56 0-1 .44-1 1Z"/></g></g></g></svg>