<svg viewBox="0 0 24 24" xmlns="http://www.w3.org/2000/svg"><g><g fill="#12131A"><path d="M8.19 18.4l3-4.01c.4-.54 1.2-.54 1.6 0l3 4c.49.65.02 1.59-.81 1.59H8.97c-.83 0-1.3-.95-.81-1.6Z"/><path fill="#12131A" fill-rule="evenodd" d="M7.75 4h8.48c.8-.01 1.46-.01 2.01.04 .56.04 1.07.14 1.56.39 .75.38 1.36.99 1.74 1.74 .24.48.34 1 .39 1.56 .04.54.04 1.2.04 2.01v3.24c0 2.2-1.8 4-4 4 -.56 0-1-.45-1-1 0-.56.44-1 1-1 1.1 0 2-.9 2-2v-3.2c0-.86-.01-1.44-.04-1.89 -.04-.44-.11-.67-.19-.82 -.2-.38-.5-.69-.88-.88 -.16-.08-.39-.15-.82-.19 -.46-.04-1.04-.04-1.89-.04h-8.4c-.86 0-1.44 0-1.89.03 -.44.03-.67.1-.82.18 -.38.19-.69.49-.88.87 -.08.15-.15.38-.19.81 -.04.45-.04 1.03-.04 1.88v3.2c0 1.1.89 2 2 2 .55 0 1 .44 1 1 0 .55-.45 1-1 1 -2.21 0-4-1.8-4-4V9.68c-.01-.81-.01-1.47.04-2.02 .04-.57.14-1.08.39-1.57 .38-.76.99-1.37 1.74-1.75 .48-.25 1-.35 1.56-.4 .54-.05 1.2-.05 2.01-.05Z"/></g></g></svg>