<svg viewBox="0 0 24 24" xmlns="http://www.w3.org/2000/svg"><g><g fill="#12131A"><path d="M8.19 18.39l3-4.01c.4-.54 1.2-.54 1.6 0l3 4c.49.65.02 1.59-.81 1.59H8.97c-.83 0-1.3-.95-.81-1.6Z"/><path d="M2.32 5.63c-.33.64-.33 1.48-.33 3.16v3.4c0 1.68 0 2.52.32 3.16 .28.56.74 1.02 1.31 1.311 .6.3 1.37.32 2.86.32 .15 0 .3-.08.4-.2l2.7-3.61c1.19-1.61 3.6-1.61 4.8 0l2.7 3.6c.09.12.24.2.4.2 1.48-.01 2.25-.03 2.86-.33 .56-.29 1.02-.75 1.31-1.311 .32-.65.32-1.49.32-3.17v-3.4c0-1.69 0-2.53-.33-3.17 -.29-.57-.75-1.03-1.32-1.32 -.65-.33-1.49-.33-3.17-.33H6.75c-1.69 0-2.53 0-3.17.32 -.57.28-1.03.74-1.32 1.31Z"/></g></g></svg>