<svg viewBox="0 0 24 24" xmlns="http://www.w3.org/2000/svg"><g><g fill="#12131A"><path opacity=".25" d="M17.2 4H6.8c-1.69 0-2.53 0-3.17.32 -.57.28-1.03.74-1.32 1.31 -.33.64-.33 1.48-.33 3.16v3.4c0 1.68 0 2.52.32 3.16 .28.56.74 1.02 1.31 1.311 .64.32 1.48.32 3.16.32h10.4c1.68 0 2.52 0 3.16-.33 .56-.29 1.02-.75 1.31-1.311 .32-.65.32-1.49.32-3.17v-3.4c0-1.69 0-2.53-.33-3.17 -.29-.57-.75-1.03-1.32-1.32 -.65-.33-1.49-.33-3.17-.33Z"/><path d="M8.19 18.39l3-4.01c.4-.54 1.2-.54 1.6 0l3 4c.49.65.02 1.59-.81 1.59H8.97c-.83 0-1.3-.95-.81-1.6Z"/></g></g></svg>