<svg viewBox="0 0 24 24" xmlns="http://www.w3.org/2000/svg"><g><g fill="#12131A" fill-rule="evenodd"><path d="M22 7c0-2.68-3.23-4.02-5.13-2.13l-5.01 4.99c-1.18 1.17-1.18 3.07 0 4.24l5 4.99c1.89 1.88 5.12.54 5.12-2.13V6.97Zm-3.71-.71c.63-.63 1.7-.19 1.7.7v9.98c0 .89-1.08 1.33-1.71.7l-5.01-5c-.4-.4-.4-1.03 0-1.42l5-5Z"/><path d="M13 7c0-2.68-3.23-4.02-5.13-2.13L2.86 9.86c-1.18 1.17-1.18 3.07 0 4.24l5 4.99c1.89 1.88 5.12.54 5.12-2.13V6.97Zm-3.71-.71c.63-.63 1.7-.19 1.7.7v9.98c0 .89-1.08 1.33-1.71.7l-5.01-5c-.4-.4-.4-1.03 0-1.42l5-5Z"/></g></g></svg>