<svg viewBox="0 0 24 24" xmlns="http://www.w3.org/2000/svg"><g><g fill="#12131A"><path d="M12 2c-.56 0-1 .44-1 1v2c0 .55.44 1 1 1 .55 0 1-.45 1-1V3c0-.56-.45-1-1-1Z"/><path d="M12 18c-.56 0-1 .44-1 1v2c0 .55.44 1 1 1 .55 0 1-.45 1-1v-2c0-.56-.45-1-1-1Z"/><path d="M21 11c.55 0 1 .44 1 1 0 .55-.45 1-1 1h-2c-.56 0-1-.45-1-1 0-.56.44-1 1-1h2Z"/><path d="M6 12c0-.56-.45-1-1-1H3c-.56 0-1 .44-1 1 0 .55.44 1 1 1h2c.55 0 1-.45 1-1Z"/><path d="M17.65 4.92c.39-.4 1.02-.4 1.41 0 .39.39.39 1.02 0 1.41l-1.42 1.41c-.4.39-1.03.39-1.42 0 -.4-.4-.4-1.03 0-1.42l1.41-1.42Z"/><path d="M7.75 16.24c-.4-.4-1.03-.4-1.42 0l-1.42 1.41c-.4.39-.4 1.02 0 1.41 .39.39 1.02.39 1.41 0l1.41-1.42c.39-.4.39-1.03 0-1.42Z"/><path d="M19.071 17.65c.39.39.39 1.02 0 1.41 -.4.39-1.03.39-1.42 0l-1.42-1.42c-.4-.4-.4-1.03 0-1.42 .39-.4 1.02-.4 1.41 0l1.41 1.41Z"/><path d="M7.75 7.75c.39-.4.39-1.03 0-1.42L6.33 4.91c-.4-.4-1.03-.4-1.42 0 -.4.39-.4 1.02 0 1.41l1.41 1.41c.39.39 1.02.39 1.41 0Z"/><path d="M16 12c0 2.2-1.8 4-4 4 -2.21 0-4-1.8-4-4 0-2.21 1.79-4 4-4 2.2 0 4 1.79 4 4Z"/></g></g></svg>