<svg viewBox="0 0 24 24" xmlns="http://www.w3.org/2000/svg"><g><g fill="#12131A"><path d="M12 2c-.56 0-1 .44-1 1 0 .55.44 1 1 1 .55 0 1-.45 1-1 0-.56-.45-1-1-1Z"/><path d="M12 20c-.56 0-1 .44-1 1 0 .55.44 1 1 1 .55 0 1-.45 1-1 0-.56-.45-1-1-1Z"/><path d="M21 11c.55 0 1 .44 1 1 0 .55-.45 1-1 1 -.56 0-1-.45-1-1 0-.56.44-1 1-1Z"/><path d="M4 12c0-.56-.45-1-1-1 -.56 0-1 .44-1 1 0 .55.44 1 1 1 .55 0 1-.45 1-1Z"/><path d="M17.65 4.92c.39-.4 1.02-.4 1.41 0 .39.39.39 1.02 0 1.41 -.4.39-1.03.39-1.42 0 -.4-.4-.4-1.03 0-1.42Z"/><path d="M6.34 17.65c-.4-.4-1.03-.4-1.42 0 -.4.39-.4 1.02 0 1.41 .39.39 1.02.39 1.41 0 .39-.4.39-1.03 0-1.42Z"/><path d="M19.071 17.65c.39.39.39 1.02 0 1.41 -.4.39-1.03.39-1.42 0 -.4-.4-.4-1.03 0-1.42 .39-.4 1.02-.4 1.41 0Z"/><path d="M6.34 6.34c.39-.4.39-1.03 0-1.42 -.4-.4-1.03-.4-1.42 0 -.4.39-.4 1.02 0 1.41 .39.39 1.02.39 1.41 0Z"/><path opacity=".25" d="M16 12c0 2.2-1.8 4-4 4 -2.21 0-4-1.8-4-4 0-2.21 1.79-4 4-4 2.2 0 4 1.79 4 4Z"/></g></g></svg>