<svg viewBox="0 0 24 24" xmlns="http://www.w3.org/2000/svg"><g><path fill="#12131A" fill-rule="evenodd" d="M3 9.4c0-2.25 0-3.37.43-4.22 .38-.76.99-1.37 1.74-1.75 .85-.44 1.97-.44 4.21-.44h5.2c2.24 0 3.36 0 4.21.43 .75.38 1.36.99 1.74 1.74 .43.85.43 1.97.43 4.21v5.2c0 2.24 0 3.36-.44 4.21 -.39.75-1 1.36-1.75 1.74 -.86.43-1.98.43-4.22.43h-5.2c-2.25 0-3.37 0-4.22-.44 -.76-.39-1.37-1-1.75-1.75 -.44-.86-.44-1.98-.44-4.22v-5.2ZM6 14c.55 0 1 .44 1 1 0 .47 0 .78.01 1.02 .01.22.04.31.05.35 .1.24.29.43.54.54 .04.01.12.04.35.05 .23.01.54.01 1.02.01 .55 0 1 .44 1 1 0 .55-.45 1-1 1h-.04c-.44 0-.82 0-1.14-.03 -.33-.03-.66-.08-.99-.21 -.74-.31-1.32-.89-1.63-1.63 -.14-.33-.19-.66-.21-.99 -.03-.32-.03-.7-.03-1.14v-.04c0-.56.44-1 1-1Zm11 1c0-.56.44-1 1-1 .55 0 1 .44 1 1v.03c0 .43 0 .81-.03 1.13 -.03.32-.08.65-.21.98 -.31.73-.89 1.31-1.63 1.62 -.33.13-.66.18-.99.2 -.32.02-.7.02-1.14.02h-.04c-.56 0-1-.45-1-1 0-.56.44-1 1-1 .47 0 .78-.01 1.02-.02 .22-.02.31-.05.35-.06 .24-.11.43-.3.54-.55 .01-.05.04-.13.05-.36 .01-.24.01-.55.01-1.03ZM6 10c.55 0 1-.45 1-1 0-.48 0-.79.01-1.03 .01-.23.04-.32.05-.36 .1-.25.29-.44.54-.55 .04-.02.12-.05.35-.06 .23-.02.54-.02 1.02-.02 .55 0 1-.45 1-1 0-.56-.45-1-1-1h-.04c-.44-.01-.82-.01-1.14.02 -.33.02-.66.07-.99.2 -.74.3-1.32.88-1.63 1.62 -.14.32-.19.65-.21.98 -.03.31-.03.69-.03 1.13v.03c0 .55.44 1 1 1Zm11-1c0 .55.44 1 1 1 .55 0 1-.45 1-1v-.04c0-.44 0-.82-.03-1.14 -.03-.33-.08-.66-.21-.99 -.31-.74-.89-1.32-1.63-1.63 -.33-.14-.66-.19-.99-.21 -.32-.03-.7-.03-1.14-.03h-.04c-.56 0-1 .44-1 1 0 .55.44 1 1 1 .47 0 .78 0 1.02.01 .22.01.31.04.35.05 .24.1.43.29.54.54 .01.04.04.12.05.35 .01.23.01.54.01 1.02Z"/></g></svg>