<svg viewBox="0 0 24 24" xmlns="http://www.w3.org/2000/svg"><g><g fill="#12131A"><path d="M12 17c1.4 0 2.69-.49 3.71-1.29l1.42 1.42c-1.15.96-2.58 1.6-4.14 1.8v2.06c0 .55-.45 1-1 1 -.56 0-1-.45-1-1v-2.07c-3.95-.5-7-3.86-7-7.94 0-.56.44-1 1-1 .55 0 1 .44 1 1 0 3.31 2.68 6 6 6Z"/><g fill="#12131A" fill-rule="evenodd"><path d="M8 8v3c0 2.2 1.79 4 4 4 .84 0 1.63-.27 2.28-.72l-1.47-1.47c-.26.11-.53.17-.83.17 -1.11 0-2-.9-2-2v-1l-2-2Z"/><path d="M19 10c.55 0 1 .44 1 1 0 .79-.12 1.55-.34 2.28 -.16.52-.72.83-1.25.67 -.53-.16-.84-.72-.68-1.25 .16-.55.24-1.12.24-1.72 0-.56.44-1 1-1Z"/><path d="M9.01 3.33c.73-.82 1.79-1.34 2.98-1.34 2.2 0 4 1.79 4 4v3c0 .55-.45 1-1 1 -.56 0-1-.45-1-1v-3c0-1.11-.9-2-2-2 -.6 0-1.13.25-1.5.66 -.37.41-1.01.44-1.42.07 -.42-.37-.45-1.01-.08-1.42Z"/><path d="M2.29 2.29c.39-.4 1.02-.4 1.41 0l17.99 18c.39.39.39 1.02 0 1.41 -.4.39-1.03.39-1.42 0L2.26 3.7c-.4-.4-.4-1.03 0-1.42Z"/></g></g></g></svg>