<svg viewBox="0 0 24 24" xmlns="http://www.w3.org/2000/svg"><g><g fill="#12131A"><path d="M20 3.99c0-1.28-1.19-2.23-2.44-1.96l-7 1.55c-.92.2-1.57 1.01-1.57 1.95v12.94c0 .55.44 1 1 1 .55 0 1-.45 1-1v-8.7l7-1.56v8.25c0 .55.44 1 1 1 .55 0 1-.45 1-1V3.95Z"/><path fill="#12131A" fill-rule="evenodd" d="M16.5 20c1.93 0 3.5-1.57 3.5-3.5 0-1.94-1.57-3.5-3.5-3.5 -1.94 0-3.5 1.56-3.5 3.5 0 1.93 1.56 3.5 3.5 3.5Zm-9 2c1.93 0 3.5-1.57 3.5-3.5 0-1.94-1.57-3.5-3.5-3.5C5.56 15 4 16.56 4 18.5 4 20.43 5.56 22 7.5 22Z"/></g></g></svg>