<svg viewBox="0 0 24 24" xmlns="http://www.w3.org/2000/svg"><g><g fill="#12131A" fill-rule="evenodd"><path d="M17.5 3l-.09-.01c-.39-.01-.71-.01-1.01.05 -1.2.23-2.13 1.16-2.36 2.35 -.06.29-.06.62-.06 1v11.16c-.01.38-.01.7.05 1 .23 1.19 1.16 2.12 2.35 2.35 .29.05.62.05 1 .05h.08 .08c.38 0 .7 0 1-.06 1.19-.24 2.12-1.17 2.35-2.36 .05-.3.05-.63.05-1.01V6.35c0-.39 0-.71-.06-1.01 -.24-1.2-1.17-2.13-2.36-2.36 -.3-.06-.63-.06-1.01-.06l-.09 0Zm-.7 2.01c.07-.02.18-.02.69-.02s.62 0 .69.01c.39.07.7.38.78.78 .01.07.01.18.01.69v11c0 .51-.01.62-.02.69 -.08.39-.39.7-.79.78 -.08.01-.19.01-.7.01 -.52 0-.63-.01-.7-.02 -.4-.08-.71-.39-.79-.79 -.02-.08-.02-.19-.02-.7V6.43c0-.52 0-.63.01-.7 .07-.4.38-.71.78-.79Z"/><path d="M6.5 3l-.09-.01c-.39-.01-.71-.01-1.01.05 -1.2.23-2.13 1.16-2.36 2.35 -.06.29-.06.62-.06 1v11.16c-.01.38-.01.7.05 1 .23 1.19 1.16 2.12 2.35 2.35 .29.05.62.05 1 .05h.08 .08c.38 0 .7 0 1-.06 1.19-.24 2.12-1.17 2.35-2.36 .05-.3.05-.63.05-1.01V6.35c0-.39 0-.71-.06-1.01 -.24-1.2-1.17-2.13-2.36-2.36 -.3-.06-.63-.06-1.01-.06l-.09 0Zm-.7 2.01c.07-.02.18-.02.69-.02s.62 0 .69.01c.39.07.7.38.78.78 .01.07.01.18.01.69v11c0 .51-.01.62-.02.69 -.08.39-.39.7-.79.78 -.08.01-.19.01-.7.01 -.52 0-.63-.01-.7-.02 -.4-.08-.71-.39-.79-.79 -.02-.08-.02-.19-.02-.7V6.43c0-.52 0-.63.01-.7 .07-.4.38-.71.78-.79Z"/></g></g></svg>