<svg viewBox="0 0 24 24" xmlns="http://www.w3.org/2000/svg"><g><path fill="#12131A" fill-rule="evenodd" d="M12 22c5.52 0 10-4.48 10-10 0-5.53-4.48-10-10-10C6.47 2 2 6.47 2 12c0 5.52 4.47 10 10 10ZM8.21 9.09c-.22.42-.22.98-.22 2.1v1.6c0 1.12 0 1.68.21 2.1 .19.37.49.68.87.87 .42.21.98.21 2.1.21h1.6c1.12 0 1.68 0 2.1-.22 .37-.2.68-.5.87-.88 .21-.43.21-.99.21-2.11v-1.6c0-1.13 0-1.69-.22-2.11 -.2-.38-.5-.69-.88-.88 -.43-.22-.99-.22-2.11-.22h-1.6c-1.13 0-1.69 0-2.11.21 -.38.19-.69.49-.88.87Z"/></g></svg>