<svg viewBox="0 0 24 24" xmlns="http://www.w3.org/2000/svg"><g><g fill="#12131A"><path opacity=".25" d="M15.2 2c1.68 0 2.52 0 3.16.32 .56.28 1.02.74 1.31 1.31 .32.64.32 1.48.32 3.16v10.4c0 1.68 0 2.52-.33 3.16 -.29.56-.75 1.02-1.32 1.31 -.65.32-1.49.32-3.17.32h-6.4c-1.69 0-2.53 0-3.17-.33 -.57-.29-1.03-.75-1.32-1.32 -.33-.65-.33-1.49-.33-3.17V6.76c0-1.69 0-2.53.32-3.17 .28-.57.74-1.03 1.31-1.32 .64-.33 1.48-.33 3.16-.33h6.4Z"/><path d="M11.29 6.29c.39-.4 1.02-.4 1.41 0l2 2c.39.39.39 1.02 0 1.41 -.4.39-1.03.39-1.42 0l-.3-.3v5.17l.29-.3c.39-.4 1.02-.4 1.41 0 .39.39.39 1.02 0 1.41l-2 2c-.4.39-1.03.39-1.42 0l-2.01-2c-.4-.4-.4-1.03 0-1.42 .39-.4 1.02-.4 1.41 0l.29.29V9.37l-.3.29c-.4.39-1.03.39-1.42 0 -.4-.4-.4-1.03 0-1.42l2-2Z"/></g></g></svg>