<svg viewBox="0 0 24 24" xmlns="http://www.w3.org/2000/svg"><g><path fill="#12131A" fill-rule="evenodd" d="M20.362 4.32c-.65-.33-1.49-.33-3.17-.33h-10.4c-1.69 0-2.53 0-3.17.32 -.57.28-1.03.74-1.32 1.31 -.33.64-.33 1.48-.33 3.16v6.4c0 1.68 0 2.52.32 3.16 .28.56.74 1.02 1.31 1.31 .64.32 1.48.32 3.16.32h10.4c1.68 0 2.52 0 3.16-.33 .56-.29 1.02-.75 1.31-1.32 .32-.65.32-1.49.32-3.17v-6.4c0-1.69 0-2.53-.33-3.17 -.29-.57-.75-1.03-1.32-1.32Zm-9.85 3.81c-.67-.4-1.52.08-1.52.85v5.99c0 .77.84 1.25 1.51.85l4.99-2.99c.65-.4.65-1.35 0-1.74l-5-2.99Z"/></g></svg>