<svg viewBox="0 0 24 24" xmlns="http://www.w3.org/2000/svg"><g><g fill="#12131A"><path d="M16.28 4.33c-.53-.16-1.09.14-1.25.67 -.16.52.14 1.08.67 1.24 2.47.73 4.28 3.03 4.28 5.75 0 2.71-1.81 5.01-4.29 5.75 -.53.15-.84.71-.68 1.24 .15.52.71.83 1.24.67 3.3-.99 5.71-4.05 5.71-7.67 0-3.63-2.42-6.69-5.72-7.67Z"/><path d="M16.7 9.29c-.4-.4-1.03-.4-1.42 0 -.4.39-.4 1.02 0 1.41 .48.48.7.73.7 1.29s-.22.8-.71 1.29c-.4.39-.4 1.02 0 1.41 .39.39 1.02.39 1.41 0l.02-.03c.51-.52 1.26-1.27 1.26-2.69s-.76-2.18-1.27-2.69l-.03-.03Z"/><path opacity=".25" d="M13 6c0-1.72-2.02-2.64-3.31-1.52l-4.07 3.5H3.99c-1.11 0-2 .89-2 2v3.99c0 1.1.89 2 2 2h1.62l4.06 3.5c1.29 1.11 3.3.19 3.3-1.52v-12Z"/></g></g></svg>