<svg viewBox="0 0 24 24" xmlns="http://www.w3.org/2000/svg"><g><g fill="#12131A"><path d="M17.7 9.29c-.4-.4-1.03-.4-1.42 0 -.4.39-.4 1.02 0 1.41l1.29 1.29 -1.3 1.29c-.4.39-.4 1.02 0 1.41 .39.39 1.02.39 1.41 0l1.29-1.3 1.29 1.29c.39.39 1.02.39 1.41 0 .39-.4.39-1.03 0-1.42l-1.3-1.3 1.29-1.3c.39-.4.39-1.03 0-1.42 -.4-.4-1.03-.4-1.42 0l-1.3 1.29 -1.3-1.3Z"/><path fill="#12131A" fill-rule="evenodd" d="M11 7c0-.97-1.23-1.37-1.8-.61L6.49 9.98h-1.5c-.56 0-1 .44-1 1v2c0 .55.44 1 1 1h1.49l2.7 3.59c.57.76 1.79.36 1.79-.61v-10ZM7.6 5.19c1.73-2.31 5.39-1.09 5.39 1.8v9.99c0 2.88-3.67 4.1-5.4 1.8l-2.11-2.8h-.51c-1.66 0-3-1.35-3-3v-2c0-1.66 1.34-3.01 3-3.01h.5l2.1-2.8Z"/></g></g></svg>