<svg viewBox="0 0 24 24" xmlns="http://www.w3.org/2000/svg"><g><g fill="#12131A"><path d="M17.7 9.29c-.4-.4-1.03-.4-1.42 0 -.4.39-.4 1.02 0 1.41l1.29 1.29 -1.3 1.29c-.4.39-.4 1.02 0 1.41 .39.39 1.02.39 1.41 0l1.29-1.3 1.29 1.29c.39.39 1.02.39 1.41 0 .39-.4.39-1.03 0-1.42l-1.3-1.3 1.29-1.3c.39-.4.39-1.03 0-1.42 -.4-.4-1.03-.4-1.42 0l-1.3 1.29 -1.3-1.3Z"/><path opacity=".25" d="M13 6c0-1.72-2.02-2.64-3.31-1.52l-4.07 3.5H3.99c-1.11 0-2 .89-2 2v3.99c0 1.1.89 2 2 2h1.62l4.06 3.5c1.29 1.11 3.3.19 3.3-1.52v-12Z"/></g></g></svg>