<svg viewBox="0 0 24 24" xmlns="http://www.w3.org/2000/svg"><g><g fill="#12131A" fill-rule="evenodd"><path d="M3 10.6C3 7.5 5.5 5 8.6 5h6.8c3.09 0 5.6 2.5 5.6 5.6 0 1.32-1.08 2.4-2.4 2.4H5.4C4.07 13 3 11.92 3 10.6ZM8.6 7h6.8c1.98 0 3.6 1.61 3.6 3.6 0 .22-.18.4-.4.4H5.4c-.23 0-.4-.18-.4-.4C5 8.61 6.61 7 8.6 7Z"/><path d="M21 18c0 1.65-1.35 3-3 3H6c-1.66 0-3-1.35-3-3 0-1.66 1.34-3 3-3h12c1.65 0 3 1.34 3 3Zm-3 1H6c-.56 0-1-.45-1-1 0-.56.44-1 1-1h12c.55 0 1 .44 1 1 0 .55-.45 1-1 1Z"/><path d="M19 13H5c-.56 0-1 .44-1 1 0 .55.44 1 1 1h14c.55 0 1-.45 1-1 0-.56-.45-1-1-1ZM5 11c-1.66 0-3 1.34-3 3 0 1.65 1.34 3 3 3h14c1.65 0 3-1.35 3-3 0-1.66-1.35-3-3-3H5Z"/></g></g></svg>