<svg viewBox="0 0 24 24" xmlns="http://www.w3.org/2000/svg"><g><g fill="#12131A"><path d="M9.79 7.79c.39-.4 1.02-.4 1.41 0l1.5 1.5c.39.39.39 1.02 0 1.41 -.4.39-1.03.39-1.42 0L9.77 9.2c-.4-.4-.4-1.03 0-1.42Z"/><path d="M5.79 12.79c.39-.4 1.02-.4 1.41 0l1.5 1.5c.39.39.39 1.02 0 1.41 -.4.39-1.03.39-1.42 0l-1.5-1.5c-.4-.4-.4-1.03 0-1.42Z"/><path d="M12.7 13.29c-.4-.4-1.03-.4-1.42 0 -.4.39-.4 1.02 0 1.41l1.5 1.5c.39.39 1.02.39 1.41 0 .39-.4.39-1.03 0-1.42l-1.5-1.5Z"/><path d="M16 9c-.56 0-1-.45-1-1V4c0-.56.44-1 1-1 .55 0 1 .44 1 1v1.58l2.29-2.3c.39-.4 1.02-.4 1.41 0 .39.39.39 1.02 0 1.41l-2.3 2.29h1.58c.55 0 1 .44 1 1 0 .55-.45 1-1 1h-4Z"/><path fill="#12131A" fill-rule="evenodd" d="M5.31 18.68c1.79-.43 4.04-1.24 6.06-2.37 1.42-.81 2.62-1.72 3.44-2.67 .81-.95 1.173-1.83 1.173-2.65 0-1.05-.34-1.77-.79-2.22 -.45-.45-1.17-.79-2.22-.79 -.82 0-1.71.35-2.65 1.17 -.96.82-1.87 2.02-2.67 3.44 -1.14 2.01-1.95 4.27-2.37 6.06Zm-2.33 1.84c.29-4.35 4.23-14.53 10-14.53 3 0 5 2 5 5 0 5.76-10.19 9.7-14.53 10 -.28.01-.5-.21-.48-.48Z"/></g></g></svg>