<svg viewBox="0 0 24 24" xmlns="http://www.w3.org/2000/svg"><g><path fill="#12131A" fill-rule="evenodd" d="M5 10l.77 9.24c.12 1.55 1.42 2.75 2.98 2.75h6.47c1.56 0 2.86-1.2 2.98-2.76l.77-9.25h-14Zm2.17 2l.59 7.08c.04.51.47.91.99.91h6.47c.52 0 .95-.4.99-.92l.59-7.09H7.14Z"/><g fill="#12131A"><path d="M14 16c0 1.1-.9 2-2 2 -1.11 0-2-.9-2-2 0-1.11.89-2 2-2 1.1 0 2 .89 2 2Z"/><path fill="#12131A" fill-rule="evenodd" d="M5.23 6.57l.34-2.07c.24-1.45 1.49-2.51 2.95-2.51h6.91c1.46 0 2.71 1.06 2.95 2.5l.34 2.06c.75.54 1.23 1.42 1.23 2.42 0 1.65-1.35 3-3 3h-10c-1.66 0-3-1.35-3-3 0-1 .48-1.89 1.23-2.43Zm3.3-2.58h6.91c.48 0 .9.35.98.83l.19 1.16H7.33l.19-1.17c.08-.49.49-.84.98-.84Zm-1.55 4c-.56 0-1 .44-1 1 0 .55.44 1 1 1h10c.55 0 1-.45 1-1 0-.56-.45-1-1-1h-10Z"/></g></g></svg>