<svg viewBox="0 0 24 24" xmlns="http://www.w3.org/2000/svg"><g><g fill="#12131A"><path d="M2 19c0-.56.44-1 1-1h14c.55 0 1 .44 1 1v0c0 .55-.45 1-1 1H3c-.56 0-1-.45-1-1v0Z"/><path fill="#12131A" fill-rule="evenodd" d="M5 4C3.34 4 2 5.34 2 7v1c0 4.41 3.58 8 8 8 2.52 0 4.77-1.18 6.24-3h2.25c1.93 0 3.5-1.57 3.5-3.5 0-1.94-1.57-3.5-3.5-3.5h-.68c-.42-1.17-1.53-2-2.83-2h-10Zm13 4c0 1.06-.21 2.07-.59 3h1.08c.82 0 1.5-.68 1.5-1.5 0-.83-.68-1.5-1.5-1.5h-.5ZM4 7c0-.56.44-1 1-1h10c.55 0 1 .44 1 1v1c0 3.31-2.69 6-6 6 -3.32 0-6-2.69-6-6V7Z"/></g></g></svg>