<svg viewBox="0 0 24 24" xmlns="http://www.w3.org/2000/svg"><g><g fill="#12131A" fill-rule="evenodd"><path d="M16.47 4c-1.14 0-2.18.64-2.69 1.65l-.9 1.78c-.25.49-.85.69-1.35.44 -.5-.25-.7-.85-.45-1.35l.89-1.79c.84-1.7 2.57-2.77 4.47-2.77h2.52c.55 0 1 .44 1 1 0 .55-.45 1-1 1h-2.53Z"/><path d="M4 4.5C4 3.11 5.11 2 6.5 2h3C11.43 2 13 3.56 13 5.5 13 6.88 11.88 8 10.5 8h-3C5.56 8 4 6.43 4 4.5ZM6.5 4c-.28 0-.5.22-.5.5C6 5.32 6.67 6 7.5 6h3c.27 0 .5-.23.5-.5 0-.83-.68-1.5-1.5-1.5h-3Z"/><path d="M7 11c0-2.77 2.23-5 5-5 2.76 0 5 2.23 5 5v.49c0 .67.23 1.33.54 2.17 .03.09.07.2.1.3 .22.63.34 1.31.34 2.02 0 3.31-2.69 6-6 6 -3.32 0-6-2.69-6-6 0-.71.12-1.39.34-2.03 .03-.11.07-.21.1-.31 .3-.85.54-1.5.54-2.18v-.5Zm5-3c-1.66 0-3 1.34-3 3v.49c0 1.05-.37 2.05-.66 2.85 -.04.1-.08.2-.11.29 -.16.41-.24.87-.24 1.34 0 2.2 1.79 4 4 4 2.2 0 4-1.8 4-4 0-.48-.09-.93-.24-1.35 -.04-.1-.08-.2-.11-.3 -.3-.8-.66-1.81-.66-2.86v-.5c0-1.66-1.35-3-3-3Z"/></g></g></svg>