<svg viewBox="0 0 24 24" xmlns="http://www.w3.org/2000/svg"><g><g fill="#12131A"><path d="M17.25 10.27l-2.73-4.09c-.91.37-1.54 1.26-1.54 2.3 0 1.38 1.11 2.5 2.5 2.5 .68 0 1.3-.28 1.75-.73Z"/><path d="M10 13c.55 0 1-.45 1-1 0-.56-.45-1-1-1 -.56 0-1 .44-1 1 0 .55.44 1 1 1Z"/><path fill="#12131A" fill-rule="evenodd" d="M14.49 4.33c-1.19-1.78-3.81-1.78-4.99 0l-5.54 8.29c-.87 1.28-1.17 2.83-.85 4.21 .32 1.41 1.3 2.62 2.87 3.16 1.61.54 3.64.98 5.99.98s4.37-.44 5.99-.99c1.57-.54 2.54-1.76 2.87-3.17 .32-1.39.02-2.93-.85-4.22l-5.54-8.3Zm-3.33 1.11c.39-.6 1.26-.6 1.66 0l5.47 8.19c-.22.12-.51.28-.88.44 -1.06.44-2.8.92-5.43.92s-4.37-.48-5.43-.93c-.38-.16-.67-.32-.88-.45l5.47-8.2ZM4.99 15.53c-.02.29 0 .58.06.85 .18.78.69 1.42 1.57 1.72 1.44.49 3.25.88 5.35.88 2.1 0 3.91-.4 5.35-.89 .88-.3 1.39-.95 1.57-1.73 .06-.27.08-.56.06-.86 -.23.12-.5.25-.8.37 -1.32.55-3.33 1.07-6.21 1.07s-4.89-.53-6.21-1.08c-.31-.13-.57-.26-.8-.38Z"/></g></g></svg>