<svg viewBox="0 0 24 24" xmlns="http://www.w3.org/2000/svg"><g><g fill="#12131A" fill-rule="evenodd"><path d="M19 17H5c0 1.1.89 2 2 2h10c1.1 0 2-.9 2-2ZM5 15c-1.11 0-2 .89-2 2 0 2.2 1.79 4 4 4h10c2.2 0 4-1.8 4-4 0-1.11-.9-2-2-2H5Z"/><path d="M14.63 7.44c.23-.43.36-.92.36-1.45 0-1.66-1.35-3-3-3 -1.66 0-3 1.34-3 3 0 .52.13 1.01.36 1.44 -3.13 1.08-5.37 4.06-5.37 7.55v1.09c0 .5.4.9.9.9h14.18c.5 0 .9-.41.9-.91v-1.1c0-3.5-2.25-6.47-5.37-7.56Zm-1.64-1.45c0 .55-.45 1-1 1 -.56 0-1-.45-1-1 0-.56.44-1 1-1 .55 0 1 .44 1 1Zm-1 3c-3.32 0-6 2.68-6 6h12c0-3.32-2.69-6-6-6Z"/></g></g></svg>