<svg viewBox="0 0 24 24" xmlns="http://www.w3.org/2000/svg"><g><path fill="#12131A" fill-rule="evenodd" d="M3 9.4c0-2.25 0-3.37.43-4.22 .38-.76.99-1.37 1.74-1.75 .85-.44 1.97-.44 4.21-.44h5.2c2.24 0 3.36 0 4.21.43 .75.38 1.36.99 1.74 1.74 .43.85.43 1.97.43 4.21v5.2c0 2.24 0 3.36-.44 4.21 -.39.75-1 1.36-1.75 1.74 -.86.43-1.98.43-4.22.43h-5.2c-2.25 0-3.37 0-4.22-.44 -.76-.39-1.37-1-1.75-1.75 -.44-.86-.44-1.98-.44-4.22v-5.2ZM9 19c-.56 0-1-.45-1-1 0-.48-.01-.79-.02-1.03 -.02-.23-.05-.32-.06-.36 -.11-.25-.3-.44-.55-.55 -.05-.02-.13-.05-.36-.06 -.24-.02-.55-.02-1.03-.02 -.56 0-1-.45-1-1 0-.56.44-1 1-1h.03c.43 0 .81 0 1.13.02 .32.02.65.07.98.2 .73.3 1.31.88 1.62 1.62 .13.32.18.65.2.98 .02.31.02.69.02 1.13v.03c0 .55-.45 1-1 1Zm7-1c0 .55-.45 1-1 1 -.56 0-1-.45-1-1v-.04c0-.44 0-.82.02-1.14 .02-.33.07-.66.2-.99 .3-.74.88-1.32 1.62-1.63 .32-.14.65-.19.98-.21 .31-.03.69-.03 1.13-.03h.03c.55 0 1 .44 1 1 0 .55-.45 1-1 1 -.48 0-.79 0-1.03.01 -.23.01-.32.04-.36.05 -.25.1-.44.29-.55.54 -.02.04-.05.12-.06.35 -.02.23-.02.54-.02 1.02ZM9 5c-.56 0-1 .44-1 1 0 .47-.01.78-.02 1.02 -.02.22-.05.31-.06.35 -.11.24-.3.43-.55.54 -.05.01-.13.04-.36.05 -.24.01-.55.01-1.03.01 -.56 0-1 .44-1 1 0 .55.44 1 1 1h.03c.43 0 .81 0 1.13-.03 .32-.03.65-.08.98-.21 .73-.31 1.31-.89 1.62-1.63 .13-.33.18-.66.2-.99 .02-.32.02-.7.02-1.14v-.04c0-.56-.45-1-1-1Zm7 1c0-.56-.45-1-1-1 -.56 0-1 .44-1 1v.03c0 .43 0 .81.02 1.13 .02.32.07.65.2.98 .3.73.88 1.31 1.62 1.62 .32.13.65.18.98.2 .31.02.69.02 1.13.02h.03c.55 0 1-.45 1-1 0-.56-.45-1-1-1 -.48 0-.79-.01-1.03-.02 -.23-.02-.32-.05-.36-.06 -.25-.11-.44-.3-.55-.55 -.02-.05-.05-.13-.06-.36 -.02-.24-.02-.55-.02-1.03Z"/></g></svg>