<svg viewBox="0 0 24 24" xmlns="http://www.w3.org/2000/svg"><g><path fill="#12131A" fill-rule="evenodd" d="M18.362 2.32c-.65-.33-1.49-.33-3.17-.33h-6.4c-1.69 0-2.53 0-3.17.32 -.57.28-1.03.74-1.32 1.31 -.33.64-.33 1.48-.33 3.16v10.4c0 1.68 0 2.52.32 3.16 .28.56.74 1.02 1.31 1.31 .64.32 1.48.32 3.16.32h6.4c1.68 0 2.52 0 3.16-.33 .56-.29 1.02-.75 1.31-1.32 .32-.65.32-1.49.32-3.17V6.75c0-1.69 0-2.53-.33-3.17 -.29-.57-.75-1.03-1.32-1.32ZM10.99 9.4l-.3.29c-.4.39-1.03.39-1.42 0 -.4-.4-.4-1.03 0-1.42l2-2c.39-.4 1.02-.4 1.41 0l2 2c.39.39.39 1.02 0 1.41 -.4.39-1.03.39-1.42 0l-.3-.3v5.17l.29-.3c.39-.4 1.02-.4 1.41 0 .39.39.39 1.02 0 1.41l-2 2c-.4.39-1.03.39-1.42 0l-2.01-2c-.4-.4-.4-1.03 0-1.42 .39-.4 1.02-.4 1.41 0l.29.29V9.35Z"/></g></svg>