<svg viewBox="0 0 24 24" xmlns="http://www.w3.org/2000/svg"><g><path fill="#12131A" fill-rule="evenodd" d="M15.48 2.62c3.5 1.3 6.07 4.51 6.46 8.37h-3.98c-.17-3.89-1.26-6.61-2.49-8.38l-.01-.01Zm-3.49-.63c-3.05 1.44-3.89 6.08-4.03 9h7.99c-.14-3.05-1.01-7.36-3.98-9Zm-3.56.64C7.2 4.39 6.12 7.11 5.96 10.98H2.03c.38-3.84 2.92-7.04 6.39-8.36Zm7.04 18.72c3.5-1.31 6.07-4.52 6.46-8.38h-3.98c-.17 3.88-1.26 6.6-2.49 8.37l-.01 0Zm-3.49.62c-3.05-1.45-3.89-6.09-4.03-9h7.99c-.14 3.04-1.01 7.35-3.98 9Zm-3.56-.65c-1.23-1.77-2.31-4.49-2.47-8.36H2.02c.38 3.83 2.92 7.03 6.39 8.35Z"/></g></svg>