<svg viewBox="0 0 24 24" xmlns="http://www.w3.org/2000/svg"><g><path fill="#12131A" fill-rule="evenodd" d="M12 2c-4.98 0-9 4.02-9 9 0 3.02 1.8 5.59 3.89 7.39l3.44 2.98c.95.82 2.37.82 3.327 0l3.44-2.99c2.08-1.81 3.89-4.38 3.89-7.4 0-4.98-4.03-9-9-9ZM9.29 8.29c.39-.4 1.02-.4 1.41 0l1.29 1.29 1.29-1.3c.39-.4 1.02-.4 1.41 0 .39.39.39 1.02 0 1.41l-1.3 1.29 1.29 1.29c.39.39.39 1.02 0 1.41 -.4.39-1.03.39-1.42 0l-1.3-1.3 -1.3 1.29c-.4.39-1.03.39-1.42 0 -.4-.4-.4-1.03 0-1.42l1.29-1.3 -1.3-1.3c-.4-.4-.4-1.03 0-1.42Z"/></g></svg>