<svg viewBox="0 0 24 24" xmlns="http://www.w3.org/2000/svg"><g><path fill="#12131A" fill-rule="evenodd" d="M3 11c0-4.98 4.02-9 9-9 4.97 0 9 4.02 9 9 0 3.02-1.81 5.59-3.9 7.39l-3.45 2.98c-.96.82-2.38.82-3.327 0l-3.45-2.99c-2.09-1.81-3.9-4.38-3.9-7.4Zm9.46-3.69c-.18-.42-.76-.42-.93 0l-.79 1.89c-.08.17-.24.28-.42.3l-1.87.16c-.43.03-.62.56-.31.85l1.41 1.35c.12.12.18.3.14.47l-.49 2.01c-.11.43.36.77.74.54l1.75-1.08c.16-.1.36-.1.52 0l1.75 1.07c.37.23.85-.12.74-.55l-.49-2.02c-.05-.18.01-.36.14-.48l1.42-1.36c.31-.3.12-.83-.31-.87l-1.88-.17c-.19-.02-.35-.14-.42-.31l-.79-1.9Z"/></g></svg>