<svg viewBox="0 0 24 24" xmlns="http://www.w3.org/2000/svg"><g><g fill="#12131A"><path d="M12.99 2c.55 0 1 .44 1 1v17h1c.55 0 1 .44 1 1 0 .55-.45 1-1 1h-4c-.56 0-1-.45-1-1 0-.56.44-1 1-1h1V3c0-.56.44-1 1-1Z"/><path d="M7.94 5.05c.22-.06.45-.06.63-.06l.04 0h8.8c.25-.01.49-.01.7.01 .22.01.49.06.76.2 .37.19.68.49.87.87 .13.27.18.54.2.76 .01.2.01.45.01.7v2.86c0 .25 0 .49-.02.7 -.02.22-.07.49-.21.76 -.2.37-.5.68-.88.87 -.28.13-.55.18-.77.2 -.21.01-.46.01-.71.01H8.55l-.05 0c-.19 0-.41 0-.64-.06 -.2-.05-.39-.12-.56-.22 -.2-.12-.37-.28-.5-.4l-.04-.04L4.6 10.2c-.1-.09-.21-.19-.3-.29 -.11-.12-.25-.29-.33-.54 -.11-.32-.11-.66 0-.97 .08-.25.22-.42.32-.54 .08-.1.19-.21.29-.29l2.15-2.01 .03-.04c.13-.13.29-.28.49-.4 .17-.11.36-.18.55-.22Z"/></g></g></svg>