<svg viewBox="0 0 24 24" xmlns="http://www.w3.org/2000/svg"><g><path fill="#12131A" fill-rule="evenodd" d="M12 22c5.52 0 10-4.48 10-10 0-5.53-4.48-10-10-10C6.47 2 2 6.47 2 12c0 5.52 4.47 10 10 10Zm1-15c0-.56-.45-1-1-1 -.56 0-1 .44-1 1v2.38L7.55 11.1c-.5.24-.7.84-.45 1.34 .24.49.84.69 1.34.44l2.55-1.28v2.76l-1.45.72c-.5.24-.7.84-.45 1.34 .24.49.84.69 1.34.44l1.55-.78 1.55.77c.49.24 1.09.04 1.34-.45 .24-.5.04-1.1-.45-1.35l-1.45-.73v-2.77l2.55 1.27c.49.24 1.09.04 1.34-.45 .24-.5.04-1.1-.45-1.35l-3.45-1.73V6.9Z"/></g></svg>