<svg viewBox="0 0 24 24" xmlns="http://www.w3.org/2000/svg"><g><path fill="#12131A" fill-rule="evenodd" d="M2.27 10.73C3.13 8.77 5.89 3.99 12 3.99c6.1 0 8.86 4.78 9.73 6.74 .35.8.35 1.71 0 2.51 -.87 1.95-3.63 6.74-9.73 6.74 -6.11 0-8.87-4.79-9.74-6.74 -.36-.81-.36-1.72 0-2.53Zm9.72 5.26c2.2 0 4-1.8 4-4 0-2.21-1.8-4-4-4 -2.21 0-4 1.79-4 4 0 2.2 1.79 4 4 4Z"/><path fill="#12131A" d="M10.5 12c.82 0 1.5-.68 1.5-1.5 0-.18-.03-.35-.09-.5 .02-.01.05-.01.08-.01 1.1 0 2 .89 2 2 0 1.1-.9 2-2 2 -1.11 0-2-.9-2-2 0-.03 0-.06 0-.09 .15.05.32.08.49.08Z"/></g></svg>