<svg viewBox="0 0 24 24" xmlns="http://www.w3.org/2000/svg"><g><path fill="#12131A" fill-rule="evenodd" d="M4 6.8c0-1.69 0-2.53.32-3.17 .28-.57.74-1.03 1.31-1.32 .64-.33 1.48-.33 3.16-.33h3.42c.25 0 .38 0 .48.04 .1.04.19.13.24.24 .04.1.04.23.04.48 0 2.07 0 3.1.37 3.91 .39.85 1.08 1.53 1.93 1.93 .8.37 1.84.37 3.91.37 .25 0 .38 0 .48.04 .1.04.19.13.24.24 .04.1.04.23.04.48v7.42c0 1.68 0 2.52-.33 3.16 -.29.56-.75 1.02-1.32 1.31 -.65.32-1.49.32-3.17.32h-6.4c-1.69 0-2.53 0-3.17-.33 -.57-.29-1.03-.75-1.32-1.32 -.33-.65-.33-1.49-.33-3.17V6.7Zm8.46 3.51c-.18-.42-.76-.42-.93 0l-.79 1.89c-.08.17-.24.29-.42.3l-1.87.16c-.43.03-.62.56-.31.85l1.41 1.35c.12.12.18.3.14.47l-.49 2.01c-.11.43.36.77.74.54l1.75-1.08c.16-.1.36-.1.52 0l1.75 1.07c.37.23.85-.12.74-.55l-.49-2.02c-.05-.18.01-.36.14-.48l1.42-1.36c.31-.3.12-.83-.31-.87l-1.88-.17c-.19-.02-.35-.14-.42-.31l-.79-1.9Z"/><path fill="#12131A" d="M15 2.7c0-.4.31-.71.7-.71v0c.18 0 .36.07.5.2l3.58 3.58c.13.13.2.31.2.5v0c0 .39-.32.7-.71.7h-2.3c-1.11 0-2-.9-2-2v-2.3Z"/></g></svg>