<svg viewBox="0 0 24 24" xmlns="http://www.w3.org/2000/svg"><g><path fill="#12131A" fill-rule="evenodd" d="M9.75 4c.4-.01.76-.01 1.11.08 .3.07.59.19.86.35 .3.18.55.44.84.72v0l.82.82h4.42c.52-.01.98-.01 1.35.03 .39.03.78.1 1.16.29 .56.28 1.02.74 1.31 1.31 .19.37.26.77.29 1.16 .03.37.03.82.03 1.35v5.67c0 .52 0 .98-.04 1.35 -.04.39-.11.78-.3 1.16 -.29.56-.75 1.02-1.32 1.31 -.38.19-.78.26-1.17.29 -.38.03-.83.03-1.36.03h-.01H6.06h-.01c-.53 0-.99 0-1.36-.04 -.4-.04-.79-.11-1.17-.3 -.57-.29-1.03-.75-1.32-1.32 -.2-.38-.27-.78-.3-1.17 -.04-.38-.04-.83-.04-1.36v-.01 -7.68 -.01c-.01-.53-.01-.99.03-1.36 .03-.4.1-.79.29-1.17 .28-.57.74-1.03 1.31-1.32 .37-.2.77-.27 1.16-.3 .37-.04.82-.04 1.35-.04l3.59-.01Zm2.7 5.31c-.18-.42-.76-.42-.93 0l-.79 1.89c-.08.17-.24.28-.42.3l-1.87.16c-.43.03-.62.56-.31.85l1.41 1.35c.12.12.18.3.14.47l-.49 2.01c-.11.43.36.77.74.54l1.75-1.08c.16-.1.36-.1.52 0l1.75 1.07c.37.23.85-.12.74-.55l-.49-2.02c-.05-.18.01-.36.14-.48l1.42-1.36c.31-.3.12-.83-.31-.87l-1.88-.17c-.19-.02-.35-.14-.42-.31l-.79-1.9Z"/></g></svg>