<svg viewBox="0 0 24 24" xmlns="http://www.w3.org/2000/svg"><g><path fill="#12131A" fill-rule="evenodd" d="M3.43 5.18c-.44.85-.44 1.97-.44 4.21v5.2c0 2.24 0 3.36.43 4.21 .38.75.99 1.36 1.74 1.74 .85.43 1.97.43 4.21.43h5.2c2.24 0 3.36 0 4.21-.44 .75-.39 1.36-1 1.74-1.75 .43-.86.43-1.98.43-4.22v-5.2c0-2.25 0-3.37-.44-4.22 -.39-.76-1-1.37-1.75-1.75 -.86-.44-1.98-.44-4.22-.44h-5.2c-2.25 0-3.37 0-4.22.43 -.76.38-1.37.99-1.75 1.74Zm6.33 4.68c.47.27 1.08.11 1.36-.37 .95-1.39 2.8.45 1.29 1.36 -.28.16-.63.43-.91.76 -.26.31-.5.74-.53 1.27 -.01.03-.01.06-.01.1 0 .55.44 1 1 1 .76 0 .9-.41 1.05-.82 .09-.27.18-.53.44-.69 .82-.51 1.5-1.41 1.5-2.5 0-1.66-1.35-3-3-3 -1.12 0-2.09.6-2.6 1.49 -.28.47-.12 1.08.36 1.36Zm1.23 6.13c0-.56.44-1 1-1 .55 0 1 .44 1 1 0 .55-.45 1-1 1 -.56 0-1-.45-1-1Z"/></g></svg>