<svg viewBox="0 0 24 24" xmlns="http://www.w3.org/2000/svg"><g><g fill="#12131A"><path d="M2 7c0-.56.44-1 1-1h3c.55 0 1 .44 1 1 0 .55-.45 1-1 1H3c-.56 0-1-.45-1-1Z"/><path d="M3 16c-.56 0-1 .44-1 1 0 .55.44 1 1 1h7c.55 0 1-.45 1-1 0-.56-.45-1-1-1H3Z"/><path d="M18 16c-.56 0-1 .44-1 1 0 .55.44 1 1 1h3c.55 0 1-.45 1-1 0-.56-.45-1-1-1h-3Z"/><path d="M14 6c-.56 0-1 .44-1 1 0 .55.44 1 1 1h7c.55 0 1-.45 1-1 0-.56-.45-1-1-1h-7Z"/><path d="M8 10c1.65 0 3-1.35 3-3 0-1.66-1.35-3-3-3C6.34 4 5 5.34 5 7c0 1.65 1.34 3 3 3Z"/><path d="M16 20c1.65 0 3-1.35 3-3 0-1.66-1.35-3-3-3 -1.66 0-3 1.34-3 3 0 1.65 1.34 3 3 3Z"/></g></g></svg>