<svg viewBox="0 0 24 24" xmlns="http://www.w3.org/2000/svg"><g><path fill="#12131A" fill-rule="evenodd" d="M3.43 5.18c-.27.51-.37 1.11-.41 2 -.02.27-.02.41.03.52 .04.09.12.18.21.23 .1.05.25.05.53.05h4.38c.28 0 .42 0 .52-.06 .09-.05.17-.13.21-.22 .05-.11.05-.25.05-.53v-3.4c0-.29 0-.43-.06-.53 -.05-.1-.13-.18-.23-.22 -.11-.06-.25-.06-.53-.06 -1.48.01-2.33.08-3.02.43 -.76.38-1.37.99-1.75 1.74Zm8.36-2.19c-.28 0-.42 0-.53.05 -.1.04-.18.12-.22.21 -.06.1-.06.24-.06.52v3.4c0 .28 0 .42.05.52 .04.09.12.17.21.21 .1.05.24.05.52.05h8.38c.28 0 .42 0 .53-.06 .09-.05.17-.14.21-.24 .05-.12.04-.25.03-.53 -.05-.89-.15-1.5-.41-2.01 -.39-.76-1-1.37-1.75-1.75 -.86-.44-1.98-.44-4.22-.44h-2.8Zm9.2 7.8c0-.28 0-.42-.06-.53 -.05-.1-.13-.18-.22-.22 -.11-.06-.25-.06-.53-.06h-8.4c-.28 0-.42 0-.53.05 -.1.04-.18.12-.22.21 -.06.1-.06.24-.06.52v2.4c0 .28 0 .42.05.52 .04.09.12.17.21.21 .1.05.24.05.52.05h8.4c.28 0 .42 0 .52-.06 .09-.05.17-.13.21-.22 .05-.11.05-.25.05-.53v-2.4Zm-.03 6.01c.01-.28.01-.42-.04-.53 -.05-.1-.13-.19-.22-.24 -.11-.06-.26-.06-.54-.06h-8.39c-.28 0-.42 0-.53.05 -.1.04-.18.12-.22.21 -.06.1-.06.24-.06.52v3.4c0 .28 0 .42.05.52 .04.09.12.17.21.21 .1.05.24.05.52.05h2.8c2.24 0 3.36 0 4.21-.44 .75-.39 1.36-1 1.74-1.75 .26-.52.36-1.12.4-2.01ZM8.18 20.98c.27 0 .41 0 .52-.06 .09-.05.17-.13.22-.22 .05-.11.05-.25.05-.53v-3.4c0-.28 0-.42-.06-.53 -.05-.1-.13-.18-.22-.22 -.11-.06-.25-.06-.53-.06H3.77c-.29 0-.43 0-.54.05 -.1.04-.18.13-.22.23 -.06.11-.05.24-.04.52 .04.88.14 1.49.4 2 .38.75.99 1.36 1.74 1.74 .68.35 1.54.41 3.01.43Zm-5.2-7.8c0 .28 0 .42.05.52 .04.09.12.17.21.21 .1.05.24.05.52.05h4.4c.28 0 .42 0 .52-.06 .09-.05.17-.13.21-.22 .05-.11.05-.25.05-.53v-2.4c0-.28 0-.42-.06-.53 -.05-.1-.13-.18-.22-.22 -.11-.06-.25-.06-.53-.06h-4.4c-.29 0-.43 0-.53.05 -.1.04-.18.12-.22.21 -.06.1-.06.24-.06.52v2.4Z"/></g></svg>