<svg viewBox="0 0 24 24" xmlns="http://www.w3.org/2000/svg"><g><g fill="#12131A" fill-rule="evenodd"><path d="M10 16H8v3c0 .55.44 1 1 1 .55 0 1-.45 1-1v-3Zm2 0v3c0 1.65 1.34 3 3 3h4c.55 0 1-.45 1-1 0-.56-.45-1-1-1h-4c-.56 0-1-.45-1-1v-3h-2Z"/><path d="M13 8c-.56 0-1 .44-1 1 0 .55.44 1 1 1h5V8h-5Zm0 4c-.56 0-1 .44-1 1 0 .55.44 1 1 1h5v-2h-5Z"/><path d="M11 4c-.56 0-1 .44-1 1 0 .55-.45 1-1 1H8c-1.11 0-2 .89-2 2v6c0 1.1.89 2 2 2h6c1.1 0 2-.9 2-2V8c0-1.11-.9-2-2-2h-1c-.56 0-1-.45-1-1 0-.56-.45-1-1-1ZM8.17 4c.41-1.17 1.52-2 2.82-2 1.3 0 2.41.83 2.82 2h.17c2.2 0 4 1.79 4 4v6c0 2.2-1.8 4-4 4h-6c-2.21 0-4-1.8-4-4V8c0-2.21 1.79-4 4-4h.17Z"/></g></g></svg>