<svg viewBox="0 0 24 24" xmlns="http://www.w3.org/2000/svg"><g><g fill="#12131A" fill-rule="evenodd"><path d="M16.96 6.56c-3.27-.75-6.67-.75-9.94 0 -.61.13-1.04.67-1.04 1.29v6.42c0 .77.35 1.51.97 1.99 2.95 2.3 7.09 2.3 10.05 0 .61-.48.97-1.22.97-2V7.83c0-.62-.43-1.16-1.04-1.3ZM6.58 4.61c3.56-.82 7.26-.82 10.82 0 1.51.34 2.58 1.69 2.58 3.24v6.42c0 1.39-.65 2.71-1.75 3.57 -3.68 2.86-8.84 2.86-12.52 0 -1.11-.86-1.75-2.18-1.75-3.58V7.83c0-1.56 1.07-2.9 2.58-3.25Z"/><path d="M10 9c-.56 0-1 .44-1 1 0 .55.44 1 1 1h4c.55 0 1-.45 1-1 0-.56-.45-1-1-1h-4Zm0 4c-.56 0-1 .44-1 1 0 .55.44 1 1 1h4c.55 0 1-.45 1-1 0-.56-.45-1-1-1h-4Z"/><path d="M3 8c-.56 0-1 .44-1 1 0 .55.44 1 1 1h2c.55 0 1-.45 1-1 0-.56-.45-1-1-1H3Zm16 0c-.56 0-1 .44-1 1 0 .55.44 1 1 1h2c.55 0 1-.45 1-1 0-.56-.45-1-1-1h-2ZM2 13c0-.56.44-1 1-1h2c.55 0 1 .44 1 1 0 .55-.45 1-1 1H3c-.56 0-1-.45-1-1Zm17-1c-.56 0-1 .44-1 1 0 .55.44 1 1 1h2c.55 0 1-.45 1-1 0-.56-.45-1-1-1h-2Z"/></g></g></svg>