<svg viewBox="0 0 24 24" xmlns="http://www.w3.org/2000/svg"><g><g fill="#12131A"><path d="M13.12 3.5c.27-.49.88-.66 1.36-.39 .48.27.65.88.38 1.36l-1.73 3.06 6.72 11.95c.27.48.1 1.09-.39 1.36s-1.1.1-1.37-.39l-6.13-10.9 -6.13 10.89c-.28.48-.89.65-1.37.38 -.49-.28-.66-.89-.39-1.37l6.72-11.96 -1.73-3.07c-.28-.49-.11-1.1.38-1.37 .48-.28 1.09-.11 1.36.38l1.12 2 1.12-2.01Z"/><path d="M13 17c0-.56-.45-1-1-1 -.56 0-1 .44-1 1v2H4c-.56 0-1 .44-1 1 0 .55.44 1 1 1h16c.55 0 1-.45 1-1 0-.56-.45-1-1-1h-7v-2Z"/></g></g></svg>