<svg viewBox="0 0 24 24" xmlns="http://www.w3.org/2000/svg"><g><path fill="#12131A" fill-rule="evenodd" d="M11 3c0-.56.44-1 1-1 .55 0 1 .44 1 1v1.06c3.61.45 6.48 3.31 6.93 6.93h1.06c.55 0 1 .44 1 1 0 .55-.45 1-1 1h-1.07c-.46 3.61-3.32 6.48-6.94 6.93v1.06c0 .55-.45 1-1 1 -.56 0-1-.45-1-1v-1.07c-3.62-.46-6.49-3.32-6.94-6.94H2.97c-.56 0-1-.45-1-1 0-.56.44-1 1-1h1.06c.45-3.62 3.31-6.49 6.93-6.94V2.96Zm-5 9c0 3.31 2.68 6 6 6 3.31 0 6-2.69 6-6 0-3.32-2.69-6-6-6 -3.32 0-6 2.68-6 6Z"/><path fill="#12131A" d="M14 12c0 1.1-.9 2-2 2 -1.11 0-2-.9-2-2 0-1.11.89-2 2-2 1.1 0 2 .89 2 2Z"/></g></svg>