<svg viewBox="0 0 24 24" xmlns="http://www.w3.org/2000/svg"><g><g fill="#12131A" fill-rule="evenodd"><path d="M7.12 7.12l-2.19.82c-2.7 1.01-2.55 4.88.22 5.68l3.5 1.01c.32.09.58.35.68.68l1.01 3.5c.8 2.76 4.66 2.91 5.68.22l.82-2.19 -1.56-1.56 -1.15 3.03c-.34.89-1.63.84-1.9-.08l-1.02-3.51c-.29-.99-1.06-1.76-2.05-2.05l-3.51-1.02c-.93-.27-.98-1.56-.08-1.9L8.6 8.6 7.04 7.04Z"/><path d="M18.95 5.71c.15-.42-.26-.83-.68-.68l-5.44 2.05c-.52.19-1.1-.07-1.29-.59 -.2-.52.06-1.1.58-1.29l5.43-2.06c2.02-.77 4.01 1.21 3.24 3.24l-2.06 5.43c-.2.51-.78.77-1.29.58 -.52-.2-.78-.78-.59-1.29l2.05-5.44Z"/><path d="M2.29 2.29c.39-.4 1.02-.4 1.41 0l17.99 18c.39.39.39 1.02 0 1.41 -.4.39-1.03.39-1.42 0L2.26 3.7c-.4-.4-.4-1.03 0-1.42Z"/></g></g></svg>