<svg viewBox="0 0 24 24" xmlns="http://www.w3.org/2000/svg"><g><path fill="#12131A" fill-rule="evenodd" d="M18 18c0-.56.44-1 1-1 .55 0 1 .44 1 1v1h-2v-1Zm4 1c.55 0 1 .44 1 1v2c0 .55-.45 1-1 1h-6c-.56 0-1-.45-1-1v-2c0-.56.44-1 1-1v-1c0-1.66 1.34-3 3-3 1.65 0 3 1.34 3 3v1Z"/><g fill="#12131A"><path d="M14 11c0 1.1-.9 2-2 2 -1.11 0-2-.9-2-2 0-1.11.89-2 2-2 1.1 0 2 .89 2 2Z"/><path fill="#12131A" fill-rule="evenodd" d="M3 11c0-4.98 4.02-9 9-9 4.97 0 9 4.02 9 9 0 .39-.04.77-.09 1.15 -.09.54-.6.92-1.14.83 -.55-.09-.93-.6-.84-1.14 .04-.28.06-.57.06-.85 0-3.87-3.14-7-7-7 -3.87 0-7 3.13-7 7 0 2.2 1.33 4.26 3.2 5.88l3.44 2.98c.1.08.22.13.35.13 .55 0 1 .44 1 1 0 .55-.45 1-1 1 -.6 0-1.19-.21-1.67-.63l-3.45-2.99c-2.09-1.81-3.9-4.38-3.9-7.4Z"/></g></g></svg>