<svg viewBox="0 0 24 24" xmlns="http://www.w3.org/2000/svg"><g><g fill="#12131A"><path d="M15.92 19.18l-.89 2.12c-.18.41.24.82.65.65l2.12-.89c.12-.06.23-.13.32-.22l3.56-3.57c.39-.4.39-1.03 0-1.42l-.59-.59c-.4-.4-1.03-.4-1.42 0l-3.57 3.56c-.1.09-.17.2-.22.32Z"/><path d="M14 11c0 1.1-.9 2-2 2 -1.11 0-2-.9-2-2 0-1.11.89-2 2-2 1.1 0 2 .89 2 2Z"/><path fill="#12131A" fill-rule="evenodd" d="M3 11c0-4.98 4.02-9 9-9 4.97 0 9 4.02 9 9 0 .39-.04.77-.09 1.15 -.09.54-.6.92-1.14.83 -.55-.09-.93-.6-.84-1.14 .04-.28.06-.57.06-.85 0-3.87-3.14-7-7-7 -3.87 0-7 3.13-7 7 0 2.2 1.33 4.26 3.2 5.88l3.44 2.98c.1.08.22.13.35.13 .55 0 1 .44 1 1 0 .55-.45 1-1 1 -.6 0-1.19-.21-1.67-.63l-3.45-2.99c-2.09-1.81-3.9-4.38-3.9-7.4Z"/></g></g></svg>