<svg viewBox="0 0 24 24" xmlns="http://www.w3.org/2000/svg"><g><g fill="#12131A"><path d="M13 2c.55 0 1 .44 1 1v2h-2V3c0-.56.44-1 1-1Z"/><path d="M14 20v-7h-2v7h-1c-.56 0-1 .44-1 1 0 .55.44 1 1 1h4c.55 0 1-.45 1-1 0-.56-.45-1-1-1h-1Z"/><path fill="#12131A" fill-rule="evenodd" d="M8.47 7.01c.07-.02.15-.02.59-.02h6.93c.47 0 .78 0 1.02.01 .22.01.31.04.35.05 .24.1.43.29.54.54 .01.04.04.12.05.35 .01.23.01.54.01 1.02 0 .47-.01.78-.02 1.02 -.02.22-.05.31-.06.35 -.11.24-.3.43-.55.54 -.05.01-.13.04-.36.05 -.24.01-.55.01-1.03.01H9c-.44 0-.52-.01-.6-.02 -.09-.02-.17-.05-.25-.09 -.07-.04-.14-.08-.49-.35l-.59-.44c-.45-.34-.74-.56-.93-.73 -.16-.15-.2-.21-.2-.22 -.05-.12-.05-.25 0-.37 0-.01.04-.08.19-.22 .19-.18.47-.39.92-.73l.58-.44c.34-.27.41-.31.48-.35 .07-.04.15-.07.24-.09ZM6.02 9.17l0 0Zm2.96-4.18c-.33-.01-.63-.01-.91.05 -.26.04-.5.13-.74.24 -.27.12-.5.3-.77.5 -.02.01-.04.02-.06.04l-.63.46c-.41.3-.77.57-1.04.81 -.29.25-.57.56-.73.97 -.23.58-.23 1.22 0 1.81 .16.41.44.72.72.97 .27.24.62.5 1.03.81l.62.46c.01.01.03.02.05.04 .26.19.49.37.76.5 .23.11.47.19.73.24 .28.05.57.05.9.05 .02 0 .04 0 .06 0h6.96c.43 0 .81 0 1.13-.03 .32-.03.65-.08.98-.21 .73-.31 1.31-.89 1.62-1.63 .13-.33.18-.66.2-.99 .02-.32.02-.7.02-1.14v-.07c0-.44 0-.82-.03-1.14 -.03-.33-.08-.66-.21-.99 -.31-.74-.89-1.32-1.63-1.63 -.33-.14-.66-.19-.99-.21 -.32-.03-.7-.03-1.14-.03H8.91c-.03 0-.05-.01-.07-.01Z"/></g></g></svg>