<svg viewBox="0 0 24 24" xmlns="http://www.w3.org/2000/svg"><g><g fill="#12131A" fill-rule="evenodd"><path d="M12 20c4.41 0 8-3.59 8-8 0-4.42-3.59-8-8-8 -4.42 0-8 3.58-8 8 0 4.41 3.58 8 8 8Zm0 2c5.52 0 10-4.48 10-10 0-5.53-4.48-10-10-10C6.47 2 2 6.47 2 12c0 5.52 4.47 10 10 10Z"/><path d="M10.7 7.29c-.4-.4-1.03-.4-1.42 0l-2 2c-.19.18-.3.44-.3.7 0 .26.1.51.29.7l2 2c.39.39 1.02.39 1.41 0 .39-.4.39-1.03 0-1.42l-.3-.3h2.58c.55 0 1 .44 1 1v4c0 .55.44 1 1 1 .55 0 1-.45 1-1v-4c0-1.66-1.35-3-3-3h-2.59l.29-.3c.39-.4.39-1.03 0-1.42Z"/></g></g></svg>