<svg viewBox="0 0 24 24" xmlns="http://www.w3.org/2000/svg"><g><path fill="#12131A" fill-rule="evenodd" d="M12 22c5.52 0 10-4.48 10-10 0-5.53-4.48-10-10-10C6.47 2 2 6.47 2 12c0 5.52 4.47 10 10 10Zm0-2c1.84 0 3.551-.63 4.9-1.69l-4.91-4.91 -4.91 4.9c1.35 1.05 3.05 1.68 4.9 1.68Zm-6.32-3.1l4.9-4.91 -4.91-4.91c-1.06 1.35-1.69 3.05-1.69 4.9 0 1.84.62 3.551 1.68 4.9Zm6.31-6.32L7.08 5.67c1.35-1.06 3.05-1.69 4.9-1.69 1.84 0 3.551.62 4.9 1.68l-4.91 4.9Zm1.41 1.41l4.9-4.91c1.05 1.35 1.68 3.05 1.68 4.9 0 1.84-.63 3.551-1.69 4.9l-4.91-4.91Z"/></g></svg>