<svg viewBox="0 0 24 24" xmlns="http://www.w3.org/2000/svg"><g><g fill="#12131A" fill-rule="evenodd"><path d="M5 10c0-1.66 1.34-3 3-3 1.65 0 3 1.34 3 3v8c0 1.65-1.35 3-3 3 -1.66 0-3-1.35-3-3v-8Zm3-1c-.56 0-1 .44-1 1v8c0 .55.44 1 1 1 .55 0 1-.45 1-1v-8c0-.56-.45-1-1-1Zm5 1c0-1.66 1.34-3 3-3 1.65 0 3 1.34 3 3v4c0 1.65-1.35 3-3 3 -1.66 0-3-1.35-3-3v-4Zm3-1c-.56 0-1 .44-1 1v4c0 .55.44 1 1 1 .55 0 1-.45 1-1v-4c0-.56-.45-1-1-1Z"/><path d="M21 4c0 .55-.45 1-1 1H4c-.56 0-1-.45-1-1 0-.56.44-1 1-1h16c.55 0 1 .44 1 1Z"/></g></g></svg>