<svg viewBox="0 0 24 24" xmlns="http://www.w3.org/2000/svg"><g><g fill="#12131A" fill-rule="evenodd"><path d="M10 5C8.34 5 7 6.34 7 8c0 1.65 1.34 3 3 3h8c1.65 0 3-1.35 3-3 0-1.66-1.35-3-3-3h-8ZM9 8c0-.56.44-1 1-1h8c.55 0 1 .44 1 1 0 .55-.45 1-1 1h-8c-.56 0-1-.45-1-1Zm1 5c-1.66 0-3 1.34-3 3 0 1.65 1.34 3 3 3h4c1.65 0 3-1.35 3-3 0-1.66-1.35-3-3-3h-4Zm-1 3c0-.56.44-1 1-1h4c.55 0 1 .44 1 1 0 .55-.45 1-1 1h-4c-.56 0-1-.45-1-1Z"/><path d="M4 3c.55 0 1 .44 1 1v16c0 .55-.45 1-1 1 -.56 0-1-.45-1-1V4c0-.56.44-1 1-1Z"/></g></g></svg>