<svg viewBox="0 0 24 24" xmlns="http://www.w3.org/2000/svg"><g><g fill="#12131A" fill-rule="evenodd"><path d="M21 20c0-.56-.45-1-1-1H4c-.56 0-1 .44-1 1 0 .55.44 1 1 1h16c.55 0 1-.45 1-1Z"/><path d="M5 14c0 1.65 1.34 3 3 3 1.65 0 3-1.35 3-3V6c0-1.66-1.35-3-3-3C6.34 3 5 4.34 5 6v8Zm3 1c-.56 0-1-.45-1-1V6c0-.56.44-1 1-1 .55 0 1 .44 1 1v8c0 .55-.45 1-1 1Zm5-1c0 1.65 1.34 3 3 3 1.65 0 3-1.35 3-3v-4c0-1.66-1.35-3-3-3 -1.66 0-3 1.34-3 3v4Zm3 1c-.56 0-1-.45-1-1v-4c0-.56.44-1 1-1 .55 0 1 .44 1 1v4c0 .55-.45 1-1 1Z"/></g></g></svg>