<svg viewBox="0 0 24 24" xmlns="http://www.w3.org/2000/svg"><g><g fill="#12131A" fill-rule="evenodd"><path d="M12 3c.55 0 1 .44 1 1v3h-2V4c0-.56.44-1 1-1Zm1 6v6h-2V9h2Zm0 11v-3h-2v3c0 .55.44 1 1 1 .55 0 1-.45 1-1Z"/><path d="M6 5C4.34 5 3 6.34 3 8c0 1.65 1.34 3 3 3h12c1.65 0 3-1.35 3-3 0-1.66-1.35-3-3-3H6ZM5 8c0-.56.44-1 1-1h12c.55 0 1 .44 1 1 0 .55-.45 1-1 1H6c-.56 0-1-.45-1-1Zm5 5c-1.66 0-3 1.34-3 3 0 1.65 1.34 3 3 3h4c1.65 0 3-1.35 3-3 0-1.66-1.35-3-3-3h-4Zm-1 3c0-.56.44-1 1-1h4c.55 0 1 .44 1 1 0 .55-.45 1-1 1h-4c-.56 0-1-.45-1-1Z"/></g></g></svg>