<svg viewBox="0 0 24 24" xmlns="http://www.w3.org/2000/svg"><g><g fill="#12131A"><path d="M14 6c-.56 0-1 .44-1 1 0 .55.44 1 1 1h6c.55 0 1-.45 1-1 0-.56-.45-1-1-1h-6Z"/><path d="M14 16c-.56 0-1 .44-1 1 0 .55.44 1 1 1h6c.55 0 1-.45 1-1 0-.56-.45-1-1-1h-6Z"/><g fill="#12131A" fill-rule="evenodd"><path d="M7.03 3h-.07c-.44-.01-.82-.01-1.14.02 -.33.02-.66.07-.99.2 -.74.3-1.32.88-1.63 1.62 -.14.32-.19.65-.21.98 -.03.31-.03.69-.03 1.13v.06c-.01.43-.01.81.02 1.13 .02.32.07.65.2.98 .3.73.88 1.31 1.62 1.62 .32.13.65.18.98.2 .31.02.69.02 1.13.02h.06c.43 0 .81 0 1.13-.03 .32-.03.65-.08.98-.21 .73-.31 1.31-.89 1.62-1.63 .13-.33.18-.66.2-.99 .02-.32.02-.7.02-1.14v-.07c0-.44 0-.82-.03-1.14 -.03-.33-.08-.66-.21-.99 -.31-.74-.89-1.32-1.63-1.63 -.33-.14-.66-.19-.99-.21 -.32-.03-.7-.03-1.14-.03ZM5.61 5.07c.04-.02.12-.05.35-.06 .23-.02.54-.02 1.02-.02 .47 0 .78 0 1.02.01 .22.01.31.04.35.05 .24.1.43.29.54.54 .01.04.04.12.05.35 .01.23.01.54.01 1.02 0 .47-.01.78-.02 1.02 -.02.22-.05.31-.06.35 -.11.24-.3.43-.55.54 -.05.01-.13.04-.36.05 -.24.01-.55.01-1.03.01s-.79-.01-1.03-.02c-.23-.02-.32-.05-.36-.06 -.25-.11-.44-.3-.55-.55 -.02-.05-.05-.13-.06-.36 -.02-.24-.02-.55-.02-1.03s0-.79.01-1.03c.01-.23.04-.32.05-.36 .1-.25.29-.44.54-.55Z"/><path d="M7.03 13h-.07c-.44 0-.82 0-1.14.02 -.33.02-.66.07-.99.2 -.74.3-1.32.88-1.63 1.62 -.14.32-.19.65-.21.98 -.03.31-.03.69-.03 1.13v.06c-.01.43-.01.81.02 1.13 .02.32.07.65.2.98 .3.73.88 1.31 1.62 1.62 .32.13.65.18.98.2 .31.02.69.02 1.13.02h.06c.43 0 .81 0 1.13-.03 .32-.03.65-.08.98-.21 .73-.31 1.31-.89 1.62-1.63 .13-.33.18-.66.2-.99 .02-.32.02-.7.02-1.14v-.07c0-.44 0-.82-.03-1.14 -.03-.33-.08-.66-.21-.99 -.31-.74-.89-1.32-1.63-1.63 -.33-.14-.66-.19-.99-.21 -.32-.03-.7-.03-1.14-.03Zm-1.42 2.07c.04-.02.12-.05.35-.06 .23-.02.54-.02 1.02-.02 .47 0 .78 0 1.02.01 .22.01.31.04.35.05 .24.1.43.29.54.54 .01.04.04.12.05.35 .01.23.01.54.01 1.02 0 .47-.01.78-.02 1.02 -.02.22-.05.31-.06.35 -.11.24-.3.43-.55.54 -.05.01-.13.04-.36.05 -.24.01-.55.01-1.03.01s-.79-.01-1.03-.02c-.23-.02-.32-.05-.36-.06 -.25-.11-.44-.3-.55-.55 -.02-.05-.05-.13-.06-.36 -.02-.24-.02-.55-.02-1.03s0-.79.01-1.03c.01-.23.04-.32.05-.36 .1-.25.29-.44.54-.55Z"/></g></g></g></svg>