<svg viewBox="0 0 24 24" xmlns="http://www.w3.org/2000/svg"><g><g fill="#12131A"><path d="M21 4c0-.56-.45-1-1-1H4c-.56 0-1 .44-1 1 0 .55.44 1 1 1h16c.55 0 1-.45 1-1Z"/><path d="M21 12c0-.56-.45-1-1-1H4c-.56 0-1 .44-1 1 0 .55.44 1 1 1h16c.55 0 1-.45 1-1Z"/><path d="M20 19c.55 0 1 .44 1 1 0 .55-.45 1-1 1H4c-.56 0-1-.45-1-1 0-.56.44-1 1-1h16Z"/><path d="M21 8c0-.56-.45-1-1-1h-8c-.56 0-1 .44-1 1 0 .55.44 1 1 1h8c.55 0 1-.45 1-1Z"/><path d="M20 15c.55 0 1 .44 1 1 0 .55-.45 1-1 1h-8c-.56 0-1-.45-1-1 0-.56.44-1 1-1h8Z"/></g></g></svg>