<svg viewBox="0 0 24 24" xmlns="http://www.w3.org/2000/svg"><g><path fill="#12131A" fill-rule="evenodd" d="M22 12c0 5.52-4.48 10-10 10C6.47 22 2 17.52 2 12 2 6.47 6.47 2 12 2c5.52 0 10 4.47 10 10Zm-7 0c0 1.65-1.35 3-3 3 -1.66 0-3-1.35-3-3 0-1.66 1.34-3 3-3 1.65 0 3 1.34 3 3ZM8 5c-.56 0-1 .44-1 1 0 .55.44 1 1 1h2c.55 0 1-.45 1-1 0-.56-.45-1-1-1H8ZM4.29 9.29c.39-.4 1.02-.4 1.41 0l1 1c.39.39.39 1.02 0 1.41 -.4.39-1.03.39-1.42 0l-1-1c-.4-.4-.4-1.03 0-1.42ZM13.7 19.7c.39-.4.39-1.03 0-1.42 -.4-.4-1.03-.4-1.42 0l-1 1c-.4.39-.4 1.02 0 1.41 .39.39 1.02.39 1.41 0l1-1Zm1.58-4.42c.39-.4 1.02-.4 1.41 0l1 1c.39.39.39 1.02 0 1.41 -.4.39-1.03.39-1.42 0l-1-1c-.4-.4-.4-1.03 0-1.42Zm-7.3.7c0-.56-.45-1-1-1 -.56 0-1 .44-1 1v1c0 .55.44 1 1 1 .55 0 1-.45 1-1v-1Zm9-3c0-.56.44-1 1-1h1c.55 0 1 .44 1 1 0 .55-.45 1-1 1h-1c-.56 0-1-.45-1-1Zm-.3-6.3c.39-.4.39-1.03 0-1.42 -.4-.4-1.03-.4-1.42 0l-1 1c-.4.39-.4 1.02 0 1.41 .39.39 1.02.39 1.41 0l1-1Z"/></g></svg>