<svg viewBox="0 0 24 24" xmlns="http://www.w3.org/2000/svg"><g><g fill="#12131A" fill-rule="evenodd"><path d="M4 9c-.56 0-1 .44-1 1v4c0 .55.44 1 1 1 .55 0 1-.45 1-1v-4c0-.56-.45-1-1-1Zm16 0c-.56 0-1 .44-1 1v4c0 .55.44 1 1 1 .55 0 1-.45 1-1v-4c0-.56-.45-1-1-1Z"/><path d="M15 11H9v4c0 .55.44 1 1 1h4c.55 0 1-.45 1-1v-4Zm0 6.82c1.16-.42 2-1.53 2-2.83v-4 -2h-2H9 7v2 4c0 1.3.83 2.41 2 2.82v2.17c0 .55.44 1 1 1 .55 0 1-.45 1-1v-2h2v2c0 .55.44 1 1 1 .55 0 1-.45 1-1V17.8Z"/><path d="M8.55 3.1c.49-.25 1.09-.05 1.34.44l.37.75c.53-.2 1.12-.31 1.72-.31 .6 0 1.18.1 1.72.3l.37-.76c.24-.5.84-.7 1.34-.45 .49.24.69.84.44 1.34l-.46.91c.96.91 1.56 2.2 1.56 3.63v1.99h-2 -6 -2v-2c0-1.44.6-2.73 1.56-3.64l-.46-.92c-.25-.5-.05-1.1.44-1.35Zm6.44 5.89c0-1.66-1.35-3-3-3 -1.66 0-3 1.34-3 3h6Z"/></g></g></svg>