<svg viewBox="0 0 24 24" xmlns="http://www.w3.org/2000/svg"><g><g fill="#12131A" fill-rule="evenodd"><path d="M4 9c-.56 0-1 .44-1 1v4c0 .55.44 1 1 1 .55 0 1-.45 1-1v-4c0-.56-.45-1-1-1Zm16 0c-.56 0-1 .44-1 1v4c0 .55.44 1 1 1 .55 0 1-.45 1-1v-4c0-.56-.45-1-1-1Z"/><path d="M7 16v-4.5c0-.28.22-.5.5-.5h9c.27 0 .5.22.5.5V16c0 1.1-.9 2-2 2v1.99c0 .55-.45 1-1 1 -.56 0-1-.45-1-1v-2h-2v1.99c0 .55-.45 1-1 1 -.56 0-1-.45-1-1v-2c-1.11 0-2-.9-2-2Z"/><path d="M9.89 3.55c-.25-.5-.85-.7-1.35-.45 -.5.24-.7.84-.45 1.34l.45.91c-.86.8-1.42 1.9-1.55 3.13 -.03.27.19.49.47.49h9c.27 0 .5-.23.47-.5 -.13-1.24-.7-2.34-1.55-3.14l.45-.92c.24-.5.04-1.1-.45-1.35 -.5-.25-1.1-.05-1.35.44l-.38.75c-.54-.2-1.13-.31-1.73-.31 -.61 0-1.19.1-1.73.3l-.38-.76Z"/></g></g></svg>