<svg viewBox="0 0 24 24" xmlns="http://www.w3.org/2000/svg"><g><path fill="#12131A" fill-rule="evenodd" d="M4 6v4h3c1.1 0 2-.9 2-2 0-1.11-.9-2-2-2H4Zm5.79 4.85c.74-.73 1.2-1.74 1.2-2.86 0-2.21-1.8-4-4-4H3.45c-.82 0-1.47.65-1.47 1.46v12.96c0 .86.7 1.57 1.57 1.57h3.42c2.76 0 5-2.24 5-5 0-1.73-.88-3.25-2.21-4.15Zm-5.8 1.14v6h3c1.65 0 3-1.35 3-3 0-1.66-1.35-3-3-3h-3Z"/><g opacity=".25"><g fill="#12131A"><path d="M16 5c0-.56.44-1 1-1h2c.55 0 1 .44 1 1 0 .55-.45 1-1 1h-2c-.56 0-1-.45-1-1Z"/><path fill="#12131A" fill-rule="evenodd" d="M18 8c-2.21 0-4 1.79-4 4v4c0 2.2 1.79 4 4 4 1.18 0 2.25-.52 2.98-1.34 .36-.42.33-1.05-.08-1.42 -.42-.37-1.05-.34-1.42.07 -.37.41-.9.66-1.5.66 -1.11 0-2-.9-2-2v-1h5c.55 0 1-.45 1-1v-2c0-2.21-1.8-4-4-4Zm-2 4c0-1.11.89-2 2-2 1.1 0 2 .89 2 2v1h-4v-1Z"/></g></g></g></svg>