<svg viewBox="0 0 24 24" xmlns="http://www.w3.org/2000/svg"><g><g fill="#12131A"><path d="M15.47 21.38c-.36-2.54-.95-4.83-1.78-7 -2.04.98-4.32 2.71-7.46 5.79 -.55-.39-1.06-.83-1.52-1.32 3.29-3.25 5.8-5.19 8.18-6.33 -.31-.67-.64-1.32-.99-1.97 -2.81.88-6.01 1.35-9.93 1.41 0-.69.07-1.36.2-2.01 3.46-.08 6.26-.48 8.686-1.19C9.72 6.95 8.4 5.17 6.89 3.33c.59-.35 1.22-.64 1.88-.86 1.52 1.87 2.86 3.72 4.01 5.61 2.15-.86 4.06-2.01 5.97-3.47 .49.45.93.95 1.32 1.5 -1.99 1.53-4.01 2.77-6.3 3.71 .33.62.65 1.26.94 1.91 2.26-.72 4.49-.8 7.17-.8 .03.32.04.66.04.99 0 .33-.02.67-.05 1 -2.59 0-4.51.08-6.4.65 .81 2.11 1.41 4.35 1.79 6.79 -.59.37-1.22.68-1.89.93Z"/><path fill="#12131A" fill-rule="evenodd" d="M12 20c4.41 0 8-3.59 8-8 0-4.42-3.59-8-8-8 -4.42 0-8 3.58-8 8 0 4.41 3.58 8 8 8Zm0 2c5.52 0 10-4.48 10-10 0-5.53-4.48-10-10-10C6.47 2 2 6.47 2 12c0 5.52 4.47 10 10 10Z"/></g></g></svg>