<svg viewBox="0 0 24 24" xmlns="http://www.w3.org/2000/svg"><g><path fill="#12131A" fill-rule="evenodd" d="M17.35 20.44c2.52-1.61 4.28-4.32 4.59-7.45 -2.59 0-4.51.08-6.4.65 .81 2.11 1.41 4.35 1.79 6.79Zm-3.67-6.07c-2.04.98-4.32 2.71-7.46 5.79 1.62 1.14 3.61 1.82 5.75 1.82 1.22 0 2.39-.22 3.47-.62 -.36-2.54-.95-4.83-1.78-7Zm1.08-2.59c2.26-.72 4.49-.8 7.17-.8 -.18-1.8-.83-3.45-1.83-4.83 -1.99 1.53-4.01 2.77-6.3 3.71 .33.62.65 1.26.94 1.91Zm-2.86-1.23c.35.64.68 1.3.98 1.96 -2.39 1.13-4.9 3.07-8.19 6.32 -1.7-1.8-2.73-4.21-2.73-6.87v-.01c3.92-.07 7.12-.54 9.92-1.42Zm.9-2.44c2.15-.86 4.06-2.01 5.97-3.47 -1.79-1.66-4.18-2.67-6.81-2.67 -1.12 0-2.19.18-3.19.51 1.52 1.87 2.86 3.72 4.01 5.61ZM6.9 3.35c1.51 1.83 2.83 3.61 3.95 5.42 -2.43.71-5.23 1.11-8.69 1.18 .57-2.82 2.33-5.2 4.72-6.61Z"/></g></svg>