<svg viewBox="0 0 24 24" xmlns="http://www.w3.org/2000/svg"><g><g fill="#12131A" fill-rule="evenodd"><path d="M16.5 2H12v7H7.5C5.56 9 4 10.56 4 12.5 4 14.43 5.56 16 7.5 16H12V9h4.5C18.43 9 20 7.43 20 5.5 20 3.56 18.43 2 16.5 2Z"/><path opacity=".25" d="M4 5.5C4 3.56 5.56 2 7.5 2H12v7H7.5C5.56 9 4 7.43 4 5.5Zm8 7c0-1.94 1.56-3.5 3.5-3.5 1.93 0 3.5 1.56 3.5 3.5 0 1.93-1.57 3.5-3.5 3.5 -1.94 0-3.5-1.57-3.5-3.5ZM7.5 16C5.56 16 4 17.56 4 19.5 4 21.43 5.56 23 7.5 23H8c2.2 0 4-1.8 4-4v-3H7.5Z"/></g></g></svg>