<svg viewBox="0 0 24 24" xmlns="http://www.w3.org/2000/svg"><g><path fill="#12131A" fill-rule="evenodd" d="M13 17.5c0 2.48-2.02 4.5-4.5 4.5H8c-2.21 0-4-1.8-4-4 0-1.2.52-2.27 1.35-3 -.84-.74-1.36-1.81-1.36-3 0-1.2.52-2.27 1.35-3 -.84-.74-1.36-1.81-1.36-3 0-2.21 1.79-4 4-4h8c2.2 0 4 1.79 4 4 0 1.45-.78 2.72-1.94 3.42 .58.69.93 1.59.93 2.57 0 2.2-1.8 4-4 4 -.73 0-1.42-.2-2-.54v2.03ZM11 4H8c-1.11 0-2 .89-2 2 0 1.1.89 2 2 2h3V4ZM8 16c-1.11 0-2 .89-2 2 0 1.1.89 2 2 2h.5c1.38 0 2.5-1.12 2.5-2.5V16H8Zm3-6v4H8c-1.11 0-2-.9-2-2 0-1.11.89-2 2-2h3Zm2 2c0-1.11.89-2 2-2 1.1 0 2 .89 2 2 0 1.1-.9 2-2 2 -1.11 0-2-.9-2-2Zm3-4h-3V4h3c1.1 0 2 .89 2 2 0 1.1-.9 2-2 2Z"/></g></svg>