<svg viewBox="0 0 24 24" xmlns="http://www.w3.org/2000/svg"><g><g fill="#12131A" fill-rule="evenodd"><path d="M3 8c0-2.77 2.23-5 5-5h8c2.76 0 5 2.23 5 5v8c0 2.76-2.24 5-5 5H8c-2.77 0-5-2.24-5-5V8Zm5-3C6.34 5 5 6.34 5 8v8c0 1.65 1.34 3 3 3h8c1.65 0 3-1.35 3-3V8c0-1.66-1.35-3-3-3H8Z"/><path d="M16.5 8.5c.55 0 1-.45 1-1 0-.56-.45-1-1-1 -.56 0-1 .44-1 1 0 .55.44 1 1 1ZM10 12c0-1.11.89-2 2-2 1.1 0 2 .89 2 2 0 1.1-.9 2-2 2 -1.11 0-2-.9-2-2Zm2-4c-2.21 0-4 1.79-4 4 0 2.2 1.79 4 4 4 2.2 0 4-1.8 4-4 0-2.21-1.8-4-4-4Z"/></g></g></svg>