<svg viewBox="0 0 24 24" xmlns="http://www.w3.org/2000/svg"><g><path fill="#12131A" fill-rule="evenodd" d="M12 22c5.52 0 10-4.48 10-10 0-5.53-4.48-10-10-10C6.47 2 2 6.47 2 12c0 2.25.74 4.32 1.99 6l0 2.77c0 .63.58 1.1 1.2.97l2.79-.59c1.22.53 2.57.83 4 .83Zm-5.3-8.3l2.75-3.93c.3-.44.89-.56 1.34-.28l2.64 1.65c.33.2.75.2 1.08-.02l2.17-1.45c.16-.12.39-.1.53.05 .14.14.16.37.04.54l-2.76 3.92c-.31.43-.9.55-1.35.27l-2.65-1.66c-.34-.21-.76-.21-1.09.01l-2.18 1.44c-.17.11-.4.09-.54-.06 -.15-.15-.17-.38-.05-.55Z"/></g></svg>