<svg viewBox="0 0 24 24" xmlns="http://www.w3.org/2000/svg"><g><path fill="#12131A" fill-rule="evenodd" d="M5.99 17.33l0 2.2 2.21-.47 .58.25c.97.42 2.05.66 3.19.66 4.41 0 8-3.59 8-8 0-4.42-3.59-8-8-8 -4.42 0-8 3.58-8 8 0 1.8.59 3.46 1.59 4.79l.4.53Zm2 3.83c1.22.53 2.57.83 4 .83 5.52 0 10-4.48 10-10 0-5.53-4.48-10-10-10 -5.53 0-10 4.47-10 10 0 2.25.74 4.32 1.99 6l0 2.77c0 .63.58 1.1 1.2.97l2.79-.59Z"/><path fill="#12131A" d="M9.45 9.77l-2.76 3.92c-.12.16-.1.39.04.54 .14.14.36.16.53.05l2.17-1.45c.32-.22.75-.23 1.08-.02l2.64 1.65c.45.28 1.04.16 1.34-.28l2.75-3.93c.11-.17.09-.4-.05-.55 -.15-.15-.37-.17-.54-.06l-2.18 1.44c-.33.21-.76.22-1.09.01l-2.65-1.66c-.46-.29-1.05-.17-1.35.27Z"/></g></svg>