<svg viewBox="0 0 24 24" xmlns="http://www.w3.org/2000/svg"><g><g fill="#12131A" fill-rule="evenodd"><path d="M14 5c0-1.66 1.34-3 3-3 1.65 0 3 1.34 3 3v14h-2V5c0-.56-.45-1-1-1 -.56 0-1 .44-1 1v8h-2V5Z"/><path d="M6 5v14c0 .55.44 1 1 1 .55 0 1-.45 1-1v-8h2v8c0 1.65-1.35 3-3 3 -1.66 0-3-1.35-3-3V5h2Z"/><path d="M7.81 4.41c-.33-.45-.95-.56-1.4-.24 -.45.32-.56.94-.24 1.39l10 14c.32.44.94.55 1.39.23 .44-.33.55-.95.23-1.4L7.78 4.38Zm1.62-1.17c-.97-1.35-2.84-1.67-4.19-.7 -1.35.96-1.67 2.83-.7 4.18l9.99 13.99c.96 1.34 2.83 1.66 4.18.69 1.34-.97 1.66-2.84.69-4.19l-10-14Z"/></g></g></svg>