<svg viewBox="0 0 24 24" xmlns="http://www.w3.org/2000/svg"><g><g fill="#12131A" fill-rule="evenodd"><path d="M19.06 15.19c.25.43.93.25.93-.26V2.98c0-.56-.45-1-1-1h-3c-.56 0-1 .44-1 1v5.13c0 .08.02.17.06.25l4 6.81Z"/><path d="M8.93 14.51c.04.07.06.16.06.25v5.46c0 .45-.31.85-.76.96l-3 .77c-.64.16-1.25-.32-1.25-.97V7.83c0-.52.67-.7.93-.26l4 6.9Z"/></g><path fill="#12131A" d="M19.86 20.49L9.57 2.98c-.36-.62-1.02-.99-1.73-.99H4.85c-.39 0-.63.41-.44.75l10.35 17.88c.13.23.35.4.61.46l3.34.86c.86.22 1.56-.71 1.11-1.48Z"/></g></svg>