<svg viewBox="0 0 24 24" xmlns="http://www.w3.org/2000/svg"><g><g fill="#12131A"><path opacity=".25" d="M15 3c0-.56.44-1 1-1h3c.55 0 1 .44 1 1v17.99c0 .65-.62 1.13-1.25.96l-3-.78c-.45-.12-.76-.52-.76-.97V2.97Z"/><path opacity=".25" d="M4 3c0-.56.44-1 1-1h3c.55 0 1 .44 1 1v17.22c0 .45-.31.85-.76.96l-3 .77c-.64.16-1.25-.32-1.25-.97v-18Z"/><path d="M19.86 20.49L9.57 2.98c-.36-.62-1.02-.99-1.73-.99H4.85c-.39 0-.63.41-.44.75l10.35 17.88c.13.23.35.4.61.46l3.34.86c.86.22 1.56-.71 1.11-1.48Z"/></g></g></svg>