<svg viewBox="0 0 24 24" xmlns="http://www.w3.org/2000/svg"><g><g fill="#12131A" fill-rule="evenodd"><path d="M10.61 8.99h2.76l-1.39-2.77 -1.39 2.76Zm5.1 1.99h3.77v-2h-3.89l-2.73-5.45h-1.79L8.34 8.97H4.45v1.99h3.77l2.77 8.31h1.89l2.77-8.32Zm-2.11 0h-3.23l1.61 4.83 1.61-4.84Z"/><path d="M11.38 3.06c.4-.09.81-.09 1.22 0l3.81.79c.75.15 1.41.59 1.85 1.23l2.18 3.16c.73 1.05.7 2.46-.07 3.5l-6 8.04c-1.2 1.6-3.62 1.6-4.82 0l-6-8.05c-.77-1.04-.8-2.45-.07-3.5l2.18-3.17c.43-.64 1.1-1.08 1.85-1.24l3.81-.8Zm.81 1.95c-.14-.03-.28-.03-.41 0l-3.82.79c-.26.05-.48.19-.62.41L5.15 9.37c-.25.35-.24.82.02 1.16l5.99 8.04c.39.53 1.2.53 1.6 0l5.99-8.05c.25-.35.26-.82.02-1.17l-2.19-3.17c-.15-.22-.37-.36-.62-.41l-3.82-.8Z"/></g></g></svg>