<svg viewBox="0 0 24 24" xmlns="http://www.w3.org/2000/svg"><g><path fill="#12131A" fill-rule="evenodd" d="M10.62 3.25c.07-.12.02-.29-.12-.26l-3.86.84c-.43.09-.82.32-1.1.66l-2.4 2.84c-.22.25-.04.63.29.63h.54l0 0h3.18c.16 0 .32-.09.41-.23l3.01-4.52Zm-3.24 7.08c-.07-.21-.26-.35-.48-.35H3.37c-.33 0-.51.36-.33.63l7.18 10.19c.09.13.24.19.38.17 .17-.03.21-.25.16-.42L7.34 10.3Zm5.79 10.24c-.06.17-.02.39.16.41 .13.01.28-.04.38-.18l7.18-10.2c.18-.27-.01-.63-.33-.64h-3.53c-.22 0-.41.13-.48.34l-3.42 10.24Zm.72-10.59c.34 0 .58.33.47.65l-1.92 5.75c-.16.45-.8.45-.95 0l-1.92-5.76c-.11-.33.13-.66.47-.66h3.83Zm-.31-2.78c.22.33-.02.77-.42.77h-2.4c-.4 0-.64-.45-.42-.78l1.41-2.13c.04-.07.11-.11.19-.11 .07 0 .15.03.19.1l1.41 2.12Zm2.77.55c.09.13.24.22.41.22h3.18l0-.01h.54c.32 0 .5-.39.29-.64l-2.4-2.85c-.29-.34-.68-.58-1.1-.67l-3.86-.85c-.14-.04-.2.13-.12.25l3.01 4.51Z"/></g></svg>