<svg viewBox="0 0 24 24" xmlns="http://www.w3.org/2000/svg"><g><g fill="#12131A" fill-rule="evenodd"><path d="M16.16 9.84l-.26-1.11c-.37-1.58-1.78-2.75-3.45-2.75 -.26 0-.47.2-.47.46v10.53c0 .55.44 1 1 1h3c2.2 0 4-1.8 4-4 0-1.78-1.16-3.29-2.76-3.81l-1.08-.36Zm1.69-1.56c-.57-2.46-2.77-4.3-5.4-4.3 -1.36 0-2.47 1.1-2.47 2.46v10.53c0 1.65 1.34 3 3 3h3c3.31 0 6-2.69 6-6 0-2.67-1.74-4.93-4.15-5.71Z"/><path d="M7 9c-.56 0-1 .44-1 1v9c0 .55.44 1 1 1 .55 0 1-.45 1-1v-9c0-.56-.45-1-1-1Zm-4 4c-.56 0-1 .44-1 1v5c0 .55.44 1 1 1 .55 0 1-.45 1-1v-5c0-.56-.45-1-1-1Z"/></g></g></svg>