<svg viewBox="0 0 24 24" xmlns="http://www.w3.org/2000/svg"><g><path fill="#12131A" fill-rule="evenodd" d="M3.32 4.63c-.33.64-.33 1.48-.33 3.16v8.4c0 1.68 0 2.52.32 3.16 .28.56.74 1.02 1.31 1.31 .64.32 1.48.32 3.16.32h8.4c1.68 0 2.52 0 3.16-.33 .56-.29 1.02-.75 1.31-1.32 .32-.65.32-1.49.32-3.17v-8.4c0-1.69 0-2.53-.33-3.17 -.29-.57-.75-1.03-1.32-1.32 -.65-.33-1.49-.33-3.17-.33h-8.4c-1.69 0-2.53 0-3.17.32 -.57.28-1.03.74-1.32 1.31Zm10.67 2.36c0-.56-.45-1-1-1 -.56 0-1 .44-1 1v7.49 0c-.01.82-.68 1.49-1.5 1.49 -.83 0-1.5-.68-1.5-1.5 0-.73.51-1.34 1.19-1.47 .54-.11.89-.64.78-1.18 -.11-.55-.64-.891-1.18-.79 -1.6.32-2.81 1.73-2.81 3.43 0 1.93 1.56 3.5 3.5 3.5 1.93 0 3.49-1.57 3.5-3.5v-.01 -4.04c.58.34 1.27.53 2 .53 .55 0 1-.45 1-1 0-.56-.45-1-1-1 -1.11 0-2-.9-2-2Z"/></g></svg>