<svg viewBox="0 0 24 24" xmlns="http://www.w3.org/2000/svg"><g><g fill="#12131A"><path opacity=".25" d="M3 7.8c0-1.69 0-2.53.32-3.17 .28-.57.74-1.03 1.31-1.32 .64-.33 1.48-.33 3.16-.33h8.4c1.68 0 2.52 0 3.16.32 .56.28 1.02.74 1.31 1.31 .32.64.32 1.48.32 3.16v8.4c0 1.68 0 2.52-.33 3.16 -.29.56-.75 1.02-1.32 1.31 -.65.32-1.49.32-3.17.32h-8.4c-1.69 0-2.53 0-3.17-.33 -.57-.29-1.03-.75-1.32-1.32 -.33-.65-.33-1.49-.33-3.17v-8.4Z"/><path fill="#12131A" fill-rule="evenodd" d="M13 6c.55 0 1 .44 1 1 0 1.1.89 2 2 2 .55 0 1 .44 1 1 0 .55-.45 1-1 1 -.73 0-1.42-.2-2-.54v4.03s0 0 0 0c-.01 1.93-1.57 3.49-3.5 3.49 -1.94 0-3.5-1.57-3.5-3.5 0-1.7 1.2-3.11 2.8-3.43 .54-.11 1.06.23 1.17.78 .1.54-.24 1.06-.79 1.17 -.69.13-1.2.74-1.2 1.47 0 .82.67 1.5 1.5 1.5 .82 0 1.49-.68 1.5-1.5 0-.01 0-.01 0-.01v-7.5c0-.56.44-1 1-1Z"/></g></g></svg>