<svg viewBox="0 0 24 24" xmlns="http://www.w3.org/2000/svg"><g><g opacity=".25"><g fill="#12131A"><path d="M11 4.96c0-.32 0-.48-.07-.59 -.06-.11-.15-.18-.26-.23 -.13-.05-.28-.03-.6.01L5.2 4.8c-.23.02-.44.05-.63.09 -.21.04-.45.11-.68.26 -.33.2-.59.5-.75.85 -.12.24-.16.49-.17.7 -.02.18-.02.4-.02.63v2.82c0 .28 0 .42.05.52 .04.09.12.17.21.21 .1.05.24.05.52.05h6.4c.28 0 .42 0 .52-.06 .09-.05.17-.13.21-.22 .05-.11.05-.25.05-.53V4.88Z"/><path d="M13 19.51c0 .24 0 .37.04.47 .04.08.1.16.18.21 .09.05.21.07.46.1l4.39.58c.28.03.55.07.78.08 .24.01.55 0 .86-.13 .42-.17.78-.49 1-.89 .16-.3.21-.6.23-.84 .01-.23.01-.51.01-.79v-4.55c0-.28 0-.42-.06-.53 -.05-.1-.13-.18-.22-.22 -.11-.06-.25-.06-.53-.06h-6.4c-.28 0-.42 0-.53.05 -.1.04-.18.12-.22.21 -.06.1-.06.24-.06.52v5.71Z"/></g></g><g fill="#12131A"><path d="M21 10.5c0 .27-.23.5-.5.5h-7c-.28 0-.5-.23-.5-.5V4.22c0-.26.18-.47.43-.5l4.65-.63c.28-.04.55-.08.78-.09 .24-.02.55-.01.86.12 .42.16.78.48 1 .88 .16.29.21.59.23.83 .01.22.01.5.01.78v4.84Z"/><path d="M3 13.5c0-.28.22-.5.5-.5h7c.27 0 .5.22.5.5v5.87c0 .3-.27.53-.57.49l-5.21-.7c-.23-.03-.44-.06-.63-.1 -.21-.05-.45-.12-.68-.27 -.33-.21-.59-.51-.75-.86 -.12-.25-.16-.5-.17-.71 -.02-.19-.02-.41-.02-.64v-3.13Z"/></g></g></svg>