<svg viewBox="0 0 24 24" xmlns="http://www.w3.org/2000/svg"><g><g fill="#12131A"><path opacity=".25" d="M2.17 7.67C2.29 5.8 3.72 4.32 5.58 4.2c1.62-.12 3.81-.21 6.41-.21 2.59 0 4.78.09 6.41.2 1.86.12 3.29 1.6 3.41 3.46 .09 1.39.17 3 .17 4.32 0 1.32-.09 2.93-.18 4.32 -.13 1.86-1.56 3.343-3.42 3.46 -1.63.11-3.82.2-6.42.2s-4.79-.1-6.42-.21c-1.87-.13-3.3-1.61-3.42-3.47 -.1-1.39-.18-3.01-.18-4.33 0-1.33.08-2.94.17-4.33Z"/><path d="M10 10c0-.8.88-1.28 1.55-.84l2.99 1.98c.6.4.6 1.29-.01 1.7l-3 1.98c-.67.44-1.56-.04-1.56-.84V9.983Z"/></g></g></svg>