<svg viewBox="0 0 24 24" xmlns="http://www.w3.org/2000/svg"><g><path fill="#12131A" fill-rule="evenodd" d="M5.58 4.2c-1.87.12-3.3 1.6-3.42 3.46 -.1 1.39-.18 3-.18 4.32 0 1.32.08 2.93.17 4.32 .12 1.86 1.55 3.343 3.41 3.46 1.62.11 3.81.2 6.41.2 2.59 0 4.78-.1 6.41-.21 1.86-.13 3.29-1.61 3.41-3.47 .09-1.39.17-3.01.17-4.33 0-1.33-.09-2.94-.18-4.33 -.13-1.87-1.56-3.35-3.42-3.47 -1.63-.12-3.82-.21-6.42-.21s-4.79.09-6.42.2Zm5.96 4.95c-.67-.45-1.56.03-1.56.83v3.99c0 .79.88 1.27 1.55.83l2.99-1.99c.6-.41.6-1.3 0-1.71l-3-1.99Z"/></g></svg>