<svg viewBox="0 0 24 24" xmlns="http://www.w3.org/2000/svg"><g><path fill="#12131A" fill-rule="evenodd" d="M4 4.5C4 3.11 5.11 2 6.5 2h3.86c.35 0 .63.28.63.63v3.72c0 .35-.29.63-.64.63H6.48c-1.39 0-2.5-1.12-2.5-2.5Zm0 7C4 10.11 5.11 9 6.5 9h3.86c.35 0 .63.28.63.63v3.72c0 .35-.29.63-.64.63H6.48c-1.39 0-2.5-1.12-2.5-2.5ZM13.63 2c-.36 0-.64.28-.64.63v3.72c0 .35.28.63.63.63h3.86c1.38 0 2.5-1.12 2.5-2.5 0-1.39-1.12-2.5-2.5-2.5h-3.87Zm-.64 9.5c0-1.39 1.11-2.5 2.5-2.5 1.38 0 2.5 1.11 2.5 2.5 0 1.38-1.12 2.5-2.5 2.5 -1.39 0-2.5-1.12-2.5-2.5Zm-6 4.5c-1.66 0-3 1.34-3 3 0 1.65 1.34 3 3 3h.5c1.93 0 3.5-1.57 3.5-3.5v-1.96c0-.31-.25-.55-.55-.55H6.98Z"/></g></svg>