<svg viewBox="0 0 24 24" xmlns="http://www.w3.org/2000/svg"><g><path fill="#12131A" fill-rule="evenodd" d="M3 7.8c0-1.69 0-2.53.32-3.17 .28-.57.74-1.03 1.31-1.32 .64-.33 1.48-.33 3.16-.33h8.4c1.68 0 2.52 0 3.16.32 .56.28 1.02.74 1.31 1.31 .32.64.32 1.48.32 3.16v8.4c0 1.68 0 2.52-.33 3.16 -.29.56-.75 1.02-1.32 1.31 -.65.32-1.49.32-3.17.32h-8.4c-1.69 0-2.53 0-3.17-.33 -.57-.29-1.03-.75-1.32-1.32 -.33-.65-.33-1.49-.33-3.17v-8.4Zm3-.2c0-.57 0-.85.1-1.06 .09-.19.24-.35.43-.44 .21-.11.49-.11 1.05-.11h1.8c.56 0 .84 0 1.05.1 .18.09.34.24.43.43 .1.21.1.49.1 1.05v8.8c0 .56 0 .84-.11 1.05 -.1.18-.25.34-.44.43 -.22.1-.5.1-1.06.1h-1.8c-.57 0-.85 0-1.06-.11 -.19-.1-.35-.25-.44-.44 -.11-.22-.11-.5-.11-1.06v-8.8Zm7.109-1.06c-.11.21-.11.49-.11 1.05v2.8c0 .56 0 .84.1 1.05 .09.18.24.34.43.43 .21.1.49.1 1.05.1h1.8c.56 0 .84 0 1.05-.11 .18-.1.34-.25.43-.44 .1-.22.1-.5.1-1.06v-2.8c0-.57 0-.85-.11-1.06 -.1-.19-.25-.35-.44-.44 -.22-.11-.5-.11-1.06-.11h-1.8c-.57 0-.85 0-1.06.1 -.19.09-.35.24-.44.43Z"/></g></svg>