<svg viewBox="0 0 24 24" xmlns="http://www.w3.org/2000/svg"><g><g fill="#12131A"><path d="M11 4.96c0-.32 0-.48-.07-.59 -.06-.11-.15-.18-.26-.23 -.13-.05-.28-.03-.6.01L5.2 4.8c-.23.02-.44.05-.63.09 -.21.04-.45.11-.68.26 -.33.2-.59.5-.75.85 -.12.24-.16.49-.17.7 -.02.18-.02.4-.02.63v2.82c0 .28 0 .42.05.52 .04.09.12.17.21.21 .1.05.24.05.52.05h6.4c.28 0 .42 0 .52-.06 .09-.05.17-.13.21-.22 .05-.11.05-.25.05-.53V4.88Z"/><path d="M11 13.8c0-.28 0-.42-.06-.53 -.05-.1-.13-.18-.22-.22 -.11-.06-.25-.06-.53-.06h-6.4c-.29 0-.43 0-.53.05 -.1.04-.18.12-.22.21 -.06.1-.06.24-.06.52v2.82c-.01.22-.01.44.01.63 .01.2.05.45.16.7 .16.35.42.64.74.85 .23.14.46.21.67.26 .18.03.4.06.62.09l4.86.65c.31.04.46.06.59.01 .1-.05.19-.12.25-.23 .06-.12.06-.28.06-.59v-5.24Z"/><path d="M13.69 20.3c-.25-.04-.37-.05-.47-.11 -.09-.06-.15-.13-.19-.22 -.05-.1-.05-.23-.05-.48v-5.72c0-.28 0-.42.05-.53 .04-.1.12-.18.21-.22 .1-.06.24-.06.52-.06h6.4c.28 0 .42 0 .52.05 .09.04.17.12.21.21 .05.1.05.24.05.52v4.54c0 .28 0 .55-.02.78 -.03.24-.08.54-.24.83 -.23.4-.58.71-1.01.88 -.32.12-.62.13-.87.12 -.24-.02-.51-.05-.79-.09l-4.4-.59Z"/><path d="M13.8 11c-.28 0-.42 0-.53-.06 -.1-.05-.18-.13-.22-.22 -.06-.11-.06-.25-.06-.53V4.47c0-.25 0-.38.04-.48 .04-.09.1-.17.18-.22 .09-.06.21-.08.46-.11l4.39-.59c.28-.04.55-.08.78-.09 .24-.02.55-.01.86.12 .42.16.78.48 1 .88 .16.29.21.59.23.83 .01.22.01.5.01.78v4.54c0 .28 0 .42-.06.52 -.05.09-.13.17-.22.21 -.11.05-.25.05-.53.05h-6.4Z"/></g></g></svg>