<svg viewBox="0 0 24 24" xmlns="http://www.w3.org/2000/svg"><g><path fill="#12131A" fill-rule="evenodd" d="M13.41 4.17c1.56-1.57 4.09-1.57 5.65 0l.75.75c1.56 1.56 1.56 4.09-.01 5.65l-8.55 8.54c-.5.49-1.12.85-1.8 1.03l-2.71.72c-2.23.59-4.27-1.45-3.68-3.68l.72-2.71c.18-.68.53-1.3 1.03-1.8l8.54-8.55Zm4.24 1.41c-.79-.79-2.05-.79-2.83-.01l-.92.91 3.58 3.58 .91-.92c.78-.79.78-2.05 0-2.83l-.76-.76Zm-9.74 6.91l4.58-4.59 3.58 3.58 -4.59 4.58 -3.59-3.59ZM6.49 13.9l-.23.22c-.25.24-.43.55-.52.89l-.73 2.7c-.2.74.48 1.42 1.22 1.22l2.7-.73c.33-.1.64-.27.89-.52l.22-.23 -3.59-3.59Z"/></g></svg>