<svg viewBox="0 0 24 24" xmlns="http://www.w3.org/2000/svg"><g><g fill="#12131A" fill-rule="evenodd"><path d="M17 6c.55 0 1 .44 1 1v10c0 .55-.45 1-1 1 -.56 0-1-.45-1-1V7c0-.56.44-1 1-1Zm-1-1c0 .55-.45 1-1 1h-3c-3.32 0-6 2.68-6 6 0 3.31 2.68 6 6 6h3c.55 0 1 .44 1 1 0 .55-.45 1-1 1h-3c-4.42 0-8-3.59-8-8 0-4.42 3.58-8 8-8h3c.55 0 1 .44 1 1Z"/><path d="M17 6c-.56 0-1-.45-1-1 0-.56.44-1 1-1 .55 0 1 .44 1 1 0 .55-.45 1-1 1Zm0 2c-1.66 0-3-1.35-3-3 0-1.66 1.34-3 3-3 1.65 0 3 1.34 3 3 0 1.65-1.35 3-3 3Zm0 12c-.56 0-1-.45-1-1 0-.56.44-1 1-1 .55 0 1 .44 1 1 0 .55-.45 1-1 1Zm0 2c-1.66 0-3-1.35-3-3 0-1.66 1.34-3 3-3 1.65 0 3 1.34 3 3 0 1.65-1.35 3-3 3Z"/></g></g></svg>