<svg viewBox="0 0 24 24" xmlns="http://www.w3.org/2000/svg"><g><g fill="#12131A" fill-rule="evenodd"><path d="M12 8.02c-.01.14-.04.28-.11.42l-4 8c-.25.49-.85.69-1.35.44 -.5-.25-.7-.85-.45-1.35l3.99-8.01c.24-.5.84-.7 1.34-.45 .34.17.54.51.55.87 0-.36.2-.71.55-.88 .49-.25 1.09-.05 1.34.44l4 8c.24.49.04 1.09-.45 1.34 -.5.24-1.1.04-1.35-.45l-4-8.01c-.07-.14-.11-.29-.11-.43Zm-5.01 9.97c0-.56.44-1 1-1h8c.55 0 1 .44 1 1 0 .55-.45 1-1 1H7.98c-.56 0-1-.45-1-1Z"/><path d="M11 6c0 .55.44 1 1 1 .55 0 1-.45 1-1 0-.56-.45-1-1-1 -.56 0-1 .44-1 1Zm1-3c-1.66 0-3 1.34-3 3 0 1.65 1.34 3 3 3 1.65 0 3-1.35 3-3 0-1.66-1.35-3-3-3ZM5 18c0 .55.44 1 1 1 .55 0 1-.45 1-1 0-.56-.45-1-1-1 -.56 0-1 .44-1 1Zm1-3c-1.66 0-3 1.34-3 3 0 1.65 1.34 3 3 3 1.65 0 3-1.35 3-3 0-1.66-1.35-3-3-3Zm12 4c-.56 0-1-.45-1-1 0-.56.44-1 1-1 .55 0 1 .44 1 1 0 .55-.45 1-1 1Zm-3-1c0-1.66 1.34-3 3-3 1.65 0 3 1.34 3 3 0 1.65-1.35 3-3 3 -1.66 0-3-1.35-3-3Z"/></g></g></svg>