<svg viewBox="0 0 24 24" xmlns="http://www.w3.org/2000/svg"><g><g fill="#12131A" fill-rule="evenodd"><path d="M10 3c-3.87 0-7 3.13-7 7 0 3.86 3.13 7 7 7 1.57 0 3.02-.52 4.19-1.4l5.1 5.1c.39.39 1.02.39 1.41 0 .39-.4.39-1.03 0-1.42l-5.11-5.11c.87-1.17 1.39-2.62 1.39-4.2 0-3.87-3.14-7-7-7Zm-5 7c0-2.77 2.23-5 5-5 2.76 0 5 2.23 5 5 0 2.76-2.24 5-5 5 -2.77 0-5-2.24-5-5Z"/><path d="M10 7c-.56 0-1 .44-1 1v1H8c-.56 0-1 .44-1 1 0 .55.44 1 1 1h1v1c0 .55.44 1 1 1 .55 0 1-.45 1-1v-1h1c.55 0 1-.45 1-1 0-.56-.45-1-1-1h-1V8c0-.56-.45-1-1-1Z"/></g></g></svg>