<svg viewBox="0 0 24 24" xmlns="http://www.w3.org/2000/svg"><g><g fill="#12131A" fill-rule="evenodd"><path d="M11 4h6.49c1.98 0 3.17 2.2 2.09 3.86l-1.4 2.13 1.39 2.13c1.08 1.66-.11 3.86-2.1 3.86h-3.5c-1.66 0-3-1.35-3-3v-9Zm2 2v7c0 .55.44 1 1 1h3.49c.39 0 .63-.45.41-.78l-1.4-2.14c-.44-.67-.44-1.53 0-2.19l1.39-2.14c.21-.34-.03-.78-.42-.78h-4.5Z"/><path d="M6 4v8h5V5c0-.56-.45-1-1-1H6ZM5 2c-.56 0-1 .44-1 1v11h9V5c0-1.66-1.35-3-3-3H5Z"/></g><path fill="#12131A" d="M4 3c0-.56.44-1 1-1v0c.55 0 1 .44 1 1v18c0 .55-.45 1-1 1v0c-.56 0-1-.45-1-1V3Z"/></g></svg>