<svg viewBox="0 0 24 24" xmlns="http://www.w3.org/2000/svg"><g><g fill="#12131A" fill-rule="evenodd"><path d="M12 6c-4.86 0-7.12 3.77-7.91 5.55 -.13.28-.13.6 0 .89 .79 1.78 3.04 5.55 7.9 5.55 4.85 0 7.11-3.78 7.9-5.56 .12-.29.12-.61 0-.9 -.8-1.79-3.05-5.56-7.91-5.56Zm-9.74 4.73c.86-1.96 3.62-6.74 9.73-6.74 6.1 0 8.86 4.78 9.72 6.74 .35.8.35 1.71 0 2.51 -.87 1.95-3.63 6.74-9.73 6.74 -6.11 0-8.87-4.79-9.74-6.74 -.36-.81-.36-1.72 0-2.53Z"/><path d="M9 10c0-.56.44-1 1-1 .55 0 1 .44 1 1v1h2v-1c0-.56.44-1 1-1 .55 0 1 .44 1 1v1h1c.55 0 1 .44 1 1 0 .55-.45 1-1 1h-1v1c0 .55-.45 1-1 1 -.56 0-1-.45-1-1v-1h-2v1c0 .55-.45 1-1 1 -.56 0-1-.45-1-1v-1H8c-.56 0-1-.45-1-1 0-.56.44-1 1-1h1v-1Z"/></g></g></svg>