<svg viewBox="0 0 24 24" xmlns="http://www.w3.org/2000/svg"><g><g fill="#12131A"><path d="M17.49 4c.38 0 .62.42.42.75l-2.49 4.14c.58.33 1.12.74 1.59 1.23l2.6-4.35c.99-1.67-.21-3.79-2.15-3.79h-2.39c-1.04 0-2 .53-2.55 1.41l-1.16 1.84 1.17 1.88 1.67-2.68c.18-.3.5-.47.84-.47h2.38Z"/><path d="M6.07 4.75c-.2-.34.04-.76.42-.76h2.39c.34 0 .66.17.84.47l2.2 3.53c.01-.01.03-.01.05-.01 .92 0 1.81.18 2.62.5l-3.19-5.1c-.55-.88-1.51-1.41-2.55-1.41h-2.4C4.5 1.97 3.3 4.08 4.3 5.75l2.61 4.35c.46-.49 1-.9 1.59-1.24L6.01 4.71Z"/><path d="M14 15c0 1.1-.9 2-2 2 -1.11 0-2-.9-2-2 0-1.11.89-2 2-2 1.1 0 2 .89 2 2Z"/><path fill="#12131A" fill-rule="evenodd" d="M19 15c0 3.86-3.14 7-7 7 -3.87 0-7-3.14-7-7 0-3.87 3.13-7 7-7 3.86 0 7 3.13 7 7Zm-2 0c0 2.76-2.24 5-5 5 -2.77 0-5-2.24-5-5 0-2.77 2.23-5 5-5 2.76 0 5 2.23 5 5Z"/></g></g></svg>