<svg viewBox="0 0 24 24" xmlns="http://www.w3.org/2000/svg"><g><path fill="#12131A" fill-rule="evenodd" d="M12 8c-3.32 0-6 2.68-6 6 0 3.31 2.68 6 6 6 3.31 0 6-2.69 6-6 0-3.32-2.69-6-6-6Zm-8 6c0-4.42 3.58-8 8-8 4.41 0 8 3.58 8 8 0 4.41-3.59 8-8 8 -4.42 0-8-3.59-8-8Z"/><g fill="#12131A"><path d="M11 11c0-.56.44-1 1-1v0c.55 0 1 .44 1 1v3c0 .55-.45 1-1 1v0c-.56 0-1-.45-1-1v-3Z"/><path fill="#12131A" fill-rule="evenodd" d="M11 2c-.56 0-1 .44-1 1 0 .55.44 1 1 1h2c.55 0 1-.45 1-1 0-.56-.45-1-1-1h-2Zm7.6 1.95c-.45-.34-1.07-.25-1.4.2 -.34.44-.25 1.06.2 1.4l1 .75c.44.33 1.06.24 1.4-.2 .33-.45.24-1.07-.2-1.4l-1-.75Z"/></g></g></svg>