<svg viewBox="0 0 24 24" xmlns="http://www.w3.org/2000/svg"><g><g fill="#12131A" fill-rule="evenodd"><path d="M16 7c.55 0 1 .44 1 1 0 .55-.45 1-1 1l-.01 2.42c0 .18.05.36.15.52l3.39 5.46c1.24 1.99-.2 4.58-2.55 4.58h-10c-2.36 0-3.8-2.59-2.55-4.59l3.39-5.46c.09-.16.15-.35.15-.53V8.97c-.56-.01-1-.45-1-1 0-.56.44-1 .99-1h8ZM9.99 9v2.42c0 .56-.16 1.1-.46 1.58l-1.24 1.98h7.37l-1.24-1.99c-.3-.48-.46-1.03-.46-1.59V8.97h-4Z"/><path d="M14 4c.55 0 1-.45 1-1 0-.56-.45-1-1-1 -.56 0-1 .44-1 1 0 .55.44 1 1 1Zm-4 1c.55 0 1-.45 1-1 0-.56-.45-1-1-1 -.56 0-1 .44-1 1 0 .55.44 1 1 1Z"/></g></g></svg>