<svg viewBox="0 0 24 24" xmlns="http://www.w3.org/2000/svg"><g><g fill="#12131A"><path opacity=".25" d="M4 18.82c.02-.48.17-.96.45-1.41l1.5-2.42h12.08l1.5 2.41c1.24 1.99-.2 4.58-2.55 4.58h-10c-1.7 0-2.92-1.35-3-2.84v-.34Z"/><g fill="#12131A" fill-rule="evenodd"><path d="M15.99 7h0c.55 0 1 .44 1 1 0 .55-.45 1-1 1h-.01v2.42c0 .18.05.36.15.52l3.39 5.46c1.24 1.99-.2 4.58-2.55 4.58h-10c-2.36 0-3.8-2.59-2.55-4.59l3.39-5.46c.09-.16.15-.35.15-.53V8.97c-.56-.01-1-.45-1-1 0-.56.44-1 .99-1 0 0 0 0 0 0h.99 6 1Zm-6 2v2.42c0 .56-.16 1.1-.46 1.58l-3.4 5.45c-.42.66.06 1.52.84 1.52h9.99c.78 0 1.26-.87.84-1.53l-3.4-5.47c-.3-.48-.46-1.03-.46-1.59V8.95h-4Z"/><path opacity=".25" d="M14 4c.55 0 1-.45 1-1 0-.56-.45-1-1-1 -.56 0-1 .44-1 1 0 .55.44 1 1 1Zm-4 1c.55 0 1-.45 1-1 0-.56-.45-1-1-1 -.56 0-1 .44-1 1 0 .55.44 1 1 1Z"/></g></g></g></svg>