<svg viewBox="0 0 24 24" xmlns="http://www.w3.org/2000/svg"><g><g fill="#12131A" fill-rule="evenodd"><path d="M16 7h-.01 -1 -6 -1 -.01c-.56 0-1 .44-1 1 0 .55.44.99.99 1v2.42c0 .18-.06.36-.16.52l-3.4 5.45c-1.25 1.99.19 4.58 2.54 4.58h9.99c2.35 0 3.78-2.59 2.54-4.59l-3.4-5.46c-.1-.16-.16-.35-.16-.53V8.96h0c.55 0 1-.45 1-1 0-.56-.45-1-1-1Zm-6.01 4.42V8.99h4v2.42c0 .55.15 1.1.45 1.58l1.23 1.98H8.29l1.23-1.99c.29-.48.45-1.03.45-1.59Zm-2.94 5.57l-.92 1.47c-.42.66.06 1.52.84 1.52h9.99c.78 0 1.26-.87.84-1.53l-.92-1.48H7.01Z"/><path d="M14 4c.55 0 1-.45 1-1 0-.56-.45-1-1-1 -.56 0-1 .44-1 1 0 .55.44 1 1 1Zm-4 1c.55 0 1-.45 1-1 0-.56-.45-1-1-1 -.56 0-1 .44-1 1 0 .55.44 1 1 1Z"/></g></g></svg>