<svg viewBox="0 0 24 24" xmlns="http://www.w3.org/2000/svg"><g><g fill="#12131A" fill-rule="evenodd"><path d="M18 3c0-.56.44-1 1-1 .55 0 1 .44 1 1 0 2.45-.82 4.91-2.2 6.78 -.66.88-1.46 1.65-2.37 2.21 .91.56 1.71 1.33 2.36 2.21 1.38 1.86 2.19 4.32 2.19 6.78 0 .55-.45 1-1 1 -.56 0-1-.45-1-1 0-2.05-.69-4.09-1.81-5.6 -1.12-1.52-2.6-2.41-4.2-2.41s-3.08.89-4.2 2.4c-1.12 1.51-1.81 3.55-1.81 5.59 0 .55-.45 1-1 1 -.56 0-1-.45-1-1 0-2.46.81-4.92 2.19-6.79 .65-.89 1.45-1.66 2.36-2.22 -.92-.57-1.72-1.34-2.37-2.22 -1.39-1.87-2.2-4.33-2.2-6.79 0-.56.44-1 1-1 .55 0 1 .44 1 1 0 2.04.68 4.08 1.8 5.59 1.11 1.51 2.59 2.4 4.19 2.4 1.59 0 3.07-.9 4.19-2.41 1.11-1.52 1.8-3.56 1.8-5.6Z"/><path d="M9 2c-.56 0-1 .44-1 1 0 .55.44 1 1 1h6c.55 0 1-.45 1-1 0-.56-.45-1-1-1H9Zm2 4c-.56 0-1 .44-1 1 0 .55.44 1 1 1h2c.55 0 1-.45 1-1 0-.56-.45-1-1-1h-2Zm0 10c-.56 0-1 .44-1 1 0 .55.44 1 1 1h2c.55 0 1-.45 1-1 0-.56-.45-1-1-1h-2Zm-3 5c0-.56.44-1 1-1h6c.55 0 1 .44 1 1 0 .55-.45 1-1 1H9c-.56 0-1-.45-1-1Z"/></g></g></svg>