<svg viewBox="0 0 24 24" xmlns="http://www.w3.org/2000/svg"><g><g fill="#12131A"><path opacity=".25" d="M17.48 10.49c-.83.88-1.79 1.54-2.78 2.08 .95.5 1.88 1.09 2.68 1.83 1.37 1.28 2.34 3 2.55 5.5 .1 1.19-.88 2.08-1.96 2.08h-12c-1.08 0-2.06-.9-1.96-2.09 .23-2.72 1.37-4.46 2.94-5.69 .9-.71 1.95-1.24 3-1.72 -1.09-.56-2.17-1.21-3.1-2.07 -1.57-1.45-2.66-3.43-2.87-6.39 -.09-1.18.87-2.08 1.96-2.08h11.99c1.09 0 2.03.9 1.96 2.06 -.18 2.91-1.1 4.94-2.48 6.42Z"/><path fill="#12131A" fill-rule="evenodd" d="M9 4c-.56 0-1 .44-1 1 0 .55.44 1 1 1h6c.55 0 1-.45 1-1 0-.56-.45-1-1-1H9Zm2 4c-.56 0-1 .44-1 1 0 .55.44 1 1 1h2c.55 0 1-.45 1-1 0-.56-.45-1-1-1h-2Zm0 6c-.56 0-1 .44-1 1 0 .55.44 1 1 1h2c.55 0 1-.45 1-1 0-.56-.45-1-1-1h-2Zm-3 5c0-.56.44-1 1-1h6c.55 0 1 .44 1 1 0 .55-.45 1-1 1H9c-.56 0-1-.45-1-1Z"/></g></g></svg>