<svg viewBox="0 0 24 24" xmlns="http://www.w3.org/2000/svg"><g><g fill="#12131A"><path opacity=".25" d="M3 9.4c0-2.25 0-3.37.43-4.22 .38-.76.99-1.37 1.74-1.75 .85-.44 1.97-.44 4.21-.44h5.2c2.24 0 3.36 0 4.21.43 .75.38 1.36.99 1.74 1.74 .43.85.43 1.97.43 4.21v5.2c0 2.24 0 3.36-.44 4.21 -.39.75-1 1.36-1.75 1.74 -.86.43-1.98.43-4.22.43h-5.2c-2.25 0-3.37 0-4.22-.44 -.76-.39-1.37-1-1.75-1.75 -.44-.86-.44-1.98-.44-4.22v-5.2Z"/><path fill="#12131A" fill-rule="evenodd" d="M15 7.5c-.4 0-.77.23-.92.6l-2.09 4.85 -.59-1.36c-.16-.37-.52-.61-.92-.61h-7.5v2h6.84l1.24 2.89c.15.36.51.6.91.6s.76-.24.91-.61L14.96 11l.58 1.35c.15.36.51.6.91.6h4.5v-2H17.1l-1.25-2.9c-.16-.37-.52-.61-.92-.61Z"/></g></g></svg>