<svg viewBox="0 0 24 24" xmlns="http://www.w3.org/2000/svg"><g><path fill="#12131A" fill-rule="evenodd" d="M3.43 5.18c-.44.85-.44 1.97-.44 4.21v.8c0 .28 0 .42.05.52 .04.09.12.17.21.21 .1.05.24.05.52.05h6.7c.4 0 .76.23.91.6l.58 1.35 2.08-4.86c.15-.37.51-.61.91-.61s.76.23.91.6l1.24 2.89h3.04c.28 0 .42 0 .52-.06 .09-.05.17-.13.21-.22 .05-.11.05-.25.05-.53v-.8c0-2.25 0-3.37-.44-4.22 -.39-.76-1-1.37-1.75-1.75 -.86-.44-1.98-.44-4.22-.44h-5.2c-2.25 0-3.37 0-4.22.43 -.76.38-1.37.99-1.75 1.74Zm17.56 8.61c0-.28 0-.42-.06-.53 -.05-.1-.13-.18-.22-.22 -.11-.06-.25-.06-.53-.06h-3.7c-.4 0-.77-.24-.92-.61l-.59-1.36 -2.09 4.85c-.16.36-.52.6-.92.6s-.77-.24-.92-.61l-1.25-2.9H3.74c-.29 0-.43 0-.53.05 -.1.04-.18.12-.22.21 -.06.1-.06.24-.06.52v.8c0 2.24 0 3.36.43 4.21 .38.75.99 1.36 1.74 1.74 .85.43 1.97.43 4.21.43h5.2c2.24 0 3.36 0 4.21-.44 .75-.39 1.36-1 1.74-1.75 .43-.86.43-1.98.43-4.22v-.8Z"/></g></svg>