<svg viewBox="0 0 24 24" xmlns="http://www.w3.org/2000/svg"><g><g fill="#12131A"><path d="M18 9h1c1.65 0 3 1.34 3 3v6c0 1.1-.9 2-2 2h-2V9Z"/><path opacity=".25" d="M2 7c0-1.66 1.34-3 3-3h10c1.65 0 3 1.34 3 3v13H4c-1.11 0-2-.9-2-2V7Z"/><path d="M8 17c0-.56.44-1 1-1h2c.55 0 1 .44 1 1v3H8v-3Z"/><path fill="#12131A" fill-rule="evenodd" d="M10 8c-.56 0-1 .44-1 1v1H8c-.56 0-1 .44-1 1 0 .55.44 1 1 1h1v1c0 .55.44 1 1 1 .55 0 1-.45 1-1v-1h1c.55 0 1-.45 1-1 0-.56-.45-1-1-1h-1V9c0-.56-.45-1-1-1Z"/></g></g></svg>