<svg viewBox="0 0 24 24" xmlns="http://www.w3.org/2000/svg"><g><path fill="#12131A" fill-rule="evenodd" d="M6 4C3.79 4 2 5.79 2 8v9c0 1.65 1.34 3 3 3h9 1 1 3c1.65 0 3-1.35 3-3v-4c0-2.21-1.8-4-4-4h-2V8c0-2.21-1.8-4-4-4H6Zm10 7v7h3c.55 0 1-.45 1-1v-4c0-1.11-.9-2-2-2h-2Zm-2-2V8c0-1.11-.9-2-2-2H6c-1.11 0-2 .89-2 2v9c0 .55.44 1 1 1h9v-8V9Z"/><g fill="#12131A"><path d="M7 17c0-.56.44-1 1-1h2c.55 0 1 .44 1 1v3H7v-3Z"/><path fill="#12131A" fill-rule="evenodd" d="M9 8c-.56 0-1 .44-1 1v1H7c-.56 0-1 .44-1 1 0 .55.44 1 1 1h1v1c0 .55.44 1 1 1 .55 0 1-.45 1-1v-1h1c.55 0 1-.45 1-1 0-.56-.45-1-1-1h-1V9c0-.56-.45-1-1-1Z"/></g></g></svg>