<svg viewBox="0 0 24 24" xmlns="http://www.w3.org/2000/svg"><g><g fill="#12131A"><path d="M18 10c0-.56.44-1 1-1v0c1.65 0 3 1.34 3 3v6c0 1.1-.9 2-2 2h-1c-.56 0-1-.45-1-1v-9Z"/><path fill="#12131A" fill-rule="evenodd" d="M5 4C3.34 4 2 5.34 2 7v11c0 1.1.89 2 2 2h2c.55 0 1-.45 1-1v-2c0-.56.44-1 1-1h2c.55 0 1 .44 1 1v2c0 .55.44 1 1 1h2c1.1 0 2-.9 2-2V7c0-1.66-1.35-3-3-3H5Zm4 4c-.56 0-1 .44-1 1v1H7c-.56 0-1 .44-1 1 0 .55.44 1 1 1h1v1c0 .55.44 1 1 1 .55 0 1-.45 1-1v-1h1c.55 0 1-.45 1-1 0-.56-.45-1-1-1h-1V9c0-.56-.45-1-1-1Z"/></g></g></svg>