<svg viewBox="0 0 24 24" xmlns="http://www.w3.org/2000/svg"><g><g fill="#12131A" fill-rule="evenodd"><path d="M10 18H8v1c0 .55.44 1 1 1 .55 0 1-.45 1-1v-1Zm2 0v1c0 1.65 1.34 3 3 3h4c.55 0 1-.45 1-1 0-.56-.45-1-1-1h-4c-.56 0-1-.45-1-1v-1h-2Z"/><path opacity=".25" d="M13 4c0-1.11-.9-2-2-2 -1.11 0-2 .89-2 2H7C5.34 4 4 5.34 4 7v8c0 1.65 1.34 3 3 3h8c1.65 0 3-1.35 3-3V7c0-1.66-1.35-3-3-3h-2Z"/><path d="M13 8c-.56 0-1 .44-1 1 0 .55.44 1 1 1h2c.55 0 1-.45 1-1 0-.56-.45-1-1-1h-2Zm0 4c-.56 0-1 .44-1 1 0 .55.44 1 1 1h2c.55 0 1-.45 1-1 0-.56-.45-1-1-1h-2Z"/></g></g></svg>