<svg viewBox="0 0 24 24" xmlns="http://www.w3.org/2000/svg"><g><g fill="#12131A" fill-rule="evenodd"><path d="M5 8h14v10c0 2.2-1.8 4-4 4H9c-2.21 0-4-1.8-4-4V8Zm2 2v8c0 1.1.89 2 2 2h6c1.1 0 2-.9 2-2v-8H7Z"/><path d="M12 12c-.56 0-1 .44-1 1v1h-1c-.56 0-1 .44-1 1 0 .55.44 1 1 1h1v1c0 .55.44 1 1 1 .55 0 1-.45 1-1v-1h1c.55 0 1-.45 1-1 0-.56-.45-1-1-1h-1v-1c0-.56-.45-1-1-1Z"/><path d="M4 5c0-1.66 1.34-3 3-3h10c1.65 0 3 1.34 3 3v2c0 1.65-1.35 3-3 3h-3 -4H7c-1.66 0-3-1.35-3-3V5Zm11 3V7c0-.56-.45-1-1-1 -.56 0-1 .44-1 1v1h-2V7c0-.56-.45-1-1-1 -.56 0-1 .44-1 1v1H7c-.56 0-1-.45-1-1V5c0-.56.44-1 1-1h10c.55 0 1 .44 1 1v2c0 .55-.45 1-1 1h-2Z"/></g></g></svg>