<svg viewBox="0 0 24 24" xmlns="http://www.w3.org/2000/svg"><g><g fill="#12131A" fill-rule="evenodd"><path d="M17.41 4.61c-3.57-.82-7.27-.82-10.83 0 -1.52.34-2.59 1.69-2.59 3.24v6.42c0 1.39.64 2.71 1.74 3.57 3.67 2.86 8.83 2.86 12.51 0 1.1-.86 1.74-2.18 1.74-3.58V7.83c0-1.56-1.08-2.9-2.59-3.25ZM8.99 9.99c0-.56.44-1 1-1h4c.55 0 1 .44 1 1 0 .55-.45 1-1 1h-4c-.56 0-1-.45-1-1.01Zm1 3c-.56 0-1 .44-1 1 0 .55.44 1 1 1h4c.55 0 1-.45 1-1 0-.56-.45-1-1-1h-4Z"/><path d="M3 8c-.56 0-1 .44-1 1 0 .55.44 1 1 1h1V8H3Zm18 0h-1v2h1c.55 0 1-.45 1-1 0-.56-.45-1-1-1ZM2 13c0-.56.44-1 1-1h1v2H3c-.56 0-1-.45-1-1Zm19-1h-1v2h1c.55 0 1-.45 1-1 0-.56-.45-1-1-1Z"/></g></g></svg>