<svg viewBox="0 0 24 24" xmlns="http://www.w3.org/2000/svg"><g><g fill="#12131A"><path opacity=".25" d="M3 10c0-1.66 1.34-3 3-3h12c1.65 0 3 1.34 3 3v8c0 1.65-1.35 3-3 3H6c-1.66 0-3-1.35-3-3v-8Z"/><g fill="#12131A" fill-rule="evenodd"><path d="M10 5c-.56 0-1 .44-1 1v1H7V6c0-1.66 1.34-3 3-3h4c1.65 0 3 1.34 3 3v1h-2V6c0-.56-.45-1-1-1h-4Z"/><path d="M12 11c-.56 0-1 .44-1 1v1h-1c-.56 0-1 .44-1 1 0 .55.44 1 1 1h1v1c0 .55.44 1 1 1 .55 0 1-.45 1-1v-1h1c.55 0 1-.45 1-1 0-.56-.45-1-1-1h-1v-1c0-.56-.45-1-1-1Z"/></g></g></g></svg>