<svg viewBox="0 0 24 24" xmlns="http://www.w3.org/2000/svg"><g><g fill="#12131A" fill-rule="evenodd"><path d="M3 11c0-2.21 1.79-4 4-4h10c2.2 0 4 1.79 4 4v6c0 2.2-1.8 4-4 4H7c-2.21 0-4-1.8-4-4v-6Zm4-2c-1.11 0-2 .89-2 2v6c0 1.1.89 2 2 2h10c1.1 0 2-.9 2-2v-6c0-1.11-.9-2-2-2H7Z"/><path d="M12 11c-.56 0-1 .44-1 1v1h-1c-.56 0-1 .44-1 1 0 .55.44 1 1 1h1v1c0 .55.44 1 1 1 .55 0 1-.45 1-1v-1h1c.55 0 1-.45 1-1 0-.56-.45-1-1-1h-1v-1c0-.56-.45-1-1-1Z"/><path d="M10 5c-.56 0-1 .44-1 1v1H7V6c0-1.66 1.34-3 3-3h4c1.65 0 3 1.34 3 3v1h-2V6c0-.56-.45-1-1-1h-4Z"/></g></g></svg>