<svg viewBox="0 0 24 24" xmlns="http://www.w3.org/2000/svg"><g><g fill="#12131A"><path d="M14.24 4c.8-.01 1.46-.01 2.01.04 .56.04 1.07.14 1.56.39 .75.38 1.36.99 1.74 1.74 .24.48.34 1 .39 1.56 .04.54.04 1.2.04 2.01v0 6.48 0c0 .8 0 1.46-.05 2.01 -.05.56-.15 1.07-.4 1.56 -.39.75-1 1.36-1.75 1.74 -.49.24-1.01.34-1.57.39 -.55.04-1.21.04-2.02.04H9.7c-.81 0-1.47 0-2.02-.05 -.57-.05-1.08-.15-1.57-.4 -.76-.39-1.37-1-1.75-1.75 -.25-.49-.35-1.01-.4-1.57 -.05-.55-.05-1.21-.05-2.02v0V9.68v-.01c-.01-.81-.01-1.47.04-2.02 .04-.57.14-1.08.39-1.57 .38-.76.99-1.37 1.74-1.75 .48-.25 1-.35 1.56-.4 .54-.05 1.2-.05 2.01-.05h0 .24v2h-.2c-.86 0-1.44 0-1.89.03 -.44.03-.67.1-.82.18 -.38.19-.69.49-.88.87 -.08.15-.15.38-.19.81 -.04.45-.04 1.03-.04 1.88v6.4c0 .85 0 1.43.03 1.88 .03.43.1.66.18.81 .19.37.49.68.87.87 .15.07.38.14.81.18 .45.03 1.03.03 1.88.03h4.4c.85 0 1.43-.01 1.88-.04 .43-.04.66-.11.81-.19 .37-.2.68-.5.87-.88 .07-.16.14-.39.18-.82 .03-.46.03-1.04.03-1.89V9.6c0-.86-.01-1.44-.04-1.89 -.04-.44-.11-.67-.19-.82 -.2-.38-.5-.69-.88-.88 -.16-.08-.39-.15-.82-.19 -.46-.04-1.04-.04-1.89-.04h-.2v-2h.24v0Z"/><g fill="#12131A" fill-rule="evenodd"><path d="M9 11c-.56 0-1 .44-1 1 0 .55.44 1 1 1h6c.55 0 1-.45 1-1 0-.56-.45-1-1-1H9Zm0 4c-.56 0-1 .44-1 1 0 .55.44 1 1 1h4c.55 0 1-.45 1-1 0-.56-.45-1-1-1H9Z"/><path d="M8 5c0-1.66 1.34-3 3-3h2c1.65 0 3 1.34 3 3 0 1.65-1.35 3-3 3h-2C9.34 8 8 6.65 8 5Zm3-1c-.56 0-1 .44-1 1 0 .55.44 1 1 1h2c.55 0 1-.45 1-1 0-.56-.45-1-1-1h-2Z"/></g></g></g></svg>