<svg viewBox="0 0 24 24" xmlns="http://www.w3.org/2000/svg"><g><g fill="#12131A" fill-rule="evenodd"><path d="M8.04 3.49c-.05-.28-.27-.5-.55-.5h-.5c-1.66 0-3 1.34-3 3v13c0 1.65 1.34 3 3 3h10c1.65 0 3-1.35 3-3v-13c0-1.66-1.35-3-3-3h-.5c-.28 0-.5.22-.55.49 -.24 1.41-1.48 2.5-2.96 2.5h-2c-1.49 0-2.73-1.09-2.96-2.51Zm.95 11.5c-.56 0-1 .44-1 1 0 .55.44 1 1 1h4c.55 0 1-.45 1-1 0-.56-.45-1-1-1h-4Zm-1-3c0-.56.44-1 1-1h6c.55 0 1 .44 1 1 0 .55-.45 1-1 1h-6c-.56 0-1-.45-1-1Z"/><path d="M11 2c-.56 0-1 .44-1 1 0 .55.44 1 1 1h2c.55 0 1-.45 1-1 0-.56-.45-1-1-1h-2Z"/></g></g></svg>