<svg viewBox="0 0 24 24" xmlns="http://www.w3.org/2000/svg"><g><path fill="#12131A" fill-rule="evenodd" d="M12 22c5.52 0 10-4.48 10-10 0-5.53-4.48-10-10-10C6.47 2 2 6.47 2 12c0 5.52 4.47 10 10 10ZM7.7 10.29c-.4-.4-1.03-.4-1.42 0 -.4.39-.4 1.02 0 1.41l1 1c.39.39 1.02.39 1.41 0 .39-.4.39-1.03 0-1.42l-1-1Zm6.58-3.01c.39-.4 1.02-.4 1.41 0 .39.39.39 1.02 0 1.41l-3 2.99c-.4.39-1.03.39-1.42 0 -.4-.4-.4-1.03 0-1.42l3-3.01Zm-4.3 1.7c.55 0 1-.45 1-1 0-.56-.45-1-1-1 -.56 0-1 .44-1 1 0 .55.44 1 1 1Zm0 7c0 .55-.45 1-1 1 -.56 0-1-.45-1-1 0-.56.44-1 1-1 .55 0 1 .44 1 1Zm8-4.5c0-.56-.45-1-1-1 -.56 0-1 .44-1 1v.5c0 .55-.45 1-1 1 -1.66 0-3 1.34-3 3v.5c0 .55.44 1 1 1 .55 0 1-.45 1-1v-.5c0-.56.44-1 1-1 1.65 0 3-1.35 3-3v-.5Z"/></g></svg>