<svg viewBox="0 0 24 24" xmlns="http://www.w3.org/2000/svg"><g><g fill="#12131A"><path opacity=".25" d="M22 12c0 5.52-4.48 10-10 10C6.47 22 2 17.52 2 12 2 6.47 6.47 2 12 2c5.52 0 10 4.47 10 10Z"/><path fill="#12131A" fill-rule="evenodd" d="M14.29 7.29c.39-.4 1.02-.4 1.41 0 .39.39.39 1.02 0 1.41l-3 2.99c-.4.39-1.03.39-1.42 0 -.4-.4-.4-1.03 0-1.42l3-3.01Zm-8.01 3c.39-.4 1.02-.4 1.41 0l1 1c.39.39.39 1.02 0 1.41 -.4.39-1.03.39-1.42 0l-1-1c-.4-.4-.4-1.03 0-1.42Zm3.7-1.3c.55 0 1-.45 1-1 0-.56-.45-1-1-1 -.56 0-1 .44-1 1 0 .55.44 1 1 1Zm0 7c0 .55-.45 1-1 1 -.56 0-1-.45-1-1 0-.56.44-1 1-1 .55 0 1 .44 1 1Zm8-4.5c0-.56-.45-1-1-1 -.56 0-1 .44-1 1v.5c0 .55-.45 1-1 1 -1.66 0-3 1.34-3 3v.5c0 .55.44 1 1 1 .55 0 1-.45 1-1v-.5c0-.56.44-1 1-1 1.65 0 3-1.35 3-3v-.5Z"/></g></g></svg>