<svg viewBox="0 0 24 24" xmlns="http://www.w3.org/2000/svg"><g><g fill="#12131A" fill-rule="evenodd"><path d="M13.7 12.29c-.4-.4-1.03-.4-1.42 0 -.4.39-.4 1.02 0 1.41l2 2c.39.39 1.02.39 1.41 0 .39-.4.39-1.03 0-1.42l-2-2Zm-2.5 2.5c-.4-.4-1.03-.4-1.42 0 -.4.39-.4 1.02 0 1.41l2 2c.39.39 1.02.39 1.41 0 .39-.4.39-1.03 0-1.42l-2-2Z"/><path d="M11.7 4.29c-.4-.4-1.03-.4-1.42 0 -.4.39-.4 1.02 0 1.41l.29.29 -4.78 4.77c-1.19 1.18-1.7 2.87-1.37 4.51l.47 2.37 -1.63 1.62c-.4.39-.4 1.02 0 1.41 .39.39 1.02.39 1.41 0l1.62-1.63 2.37.47c1.63.32 3.33-.19 4.51-1.37l4.77-4.78 .29.29c.39.39 1.02.39 1.41 0 .39-.4.39-1.03 0-1.42l-.3-.3 -.71-.71 -6-6.01 -.71-.71 -.3-.3Zm4.87 7.7L11.98 7.4 7.2 12.17c-.71.7-1.02 1.72-.83 2.7l.44 2.24 2.24.44c.98.19 2-.12 2.7-.83l4.77-4.78Z"/><path d="M16.7 3.29c-.4-.4-1.03-.4-1.42 0 -.4.39-.4 1.02 0 1.41l1.29 1.29 -2.3 2.29c-.4.39-.4 1.02 0 1.41 .39.39 1.02.39 1.41 0l2.29-2.3 1.29 1.29c.39.39 1.02.39 1.41 0 .39-.4.39-1.03 0-1.42l-2-2c-.01-.01-.01-.01-.01-.01 -.01-.01-.01-.01-.01-.01l-2-2Z"/></g></g></svg>