<svg viewBox="0 0 24 24" xmlns="http://www.w3.org/2000/svg"><g><g fill="#12131A" fill-rule="evenodd"><path d="M11 15c0-2.21 1.79-4 4-4 .74 0 1.43.2 2.032.55l-5.48 5.47c-.36-.6-.56-1.3-.56-2.032Zm1.968 3.44c.59.35 1.29.55 2.032.55 2.2 0 4-1.8 4-4 0-.75-.21-1.44-.56-2.032l-5.48 5.47ZM15 8.99c-3.32 0-6 2.68-6 6 0 3.31 2.68 6 6 6 3.31 0 6-2.69 6-6 0-3.32-2.69-6-6-6Z"/><path d="M9 5C6.79 5 5 6.79 5 9c0 2.2 1.79 4 4 4 .27 0 .54-.03.8-.08l.39 1.96c-.39.07-.79.12-1.2.12 -3.32 0-6-2.69-6-6 0-3.32 2.68-6 6-6 3.31 0 6 2.68 6 6 0 .4-.05.81-.12 1.19l-1.96-.4c.05-.26.08-.53.08-.81 0-2.21-1.8-4-4-4Z"/></g></g></svg>