<svg viewBox="0 0 24 24" xmlns="http://www.w3.org/2000/svg"><g><g fill="#12131A"><path opacity=".25" d="M15 9c0 3.31-2.69 6-6 6 -3.32 0-6-2.69-6-6 0-3.32 2.68-6 6-6 3.31 0 6 2.68 6 6Z"/><path fill="#12131A" fill-rule="evenodd" d="M18.05 10.52c.21-.22.18-.59-.08-.74 -.88-.51-1.9-.8-2.98-.8 -3.32 0-6 2.68-6 6 0 1.08.28 2.1.79 2.97 .15.26.51.29.73.07l7.53-7.54Zm2.15 1.49c-.16-.27-.52-.3-.74-.08l-7.54 7.53c-.22.21-.19.58.07.73 .87.5 1.89.79 2.97.79 3.31 0 6-2.69 6-6 0-1.09-.29-2.11-.8-2.98Z"/></g></g></svg>