<svg viewBox="0 0 24 24" xmlns="http://www.w3.org/2000/svg"><g><g fill="#12131A"><path opacity=".25" d="M19.75 10.24l-5.68 5.67c-.39.38-.87.65-1.4.78l-2.93.73c-.18.04-.34.13-.47.26l-2.69 2.68c-.83.82-2.18.82-3.01 0 -.83-.83-.83-2.18-.01-3l2.68-2.69c.12-.13.21-.29.26-.47l.73-2.93c.13-.53.4-1.01.78-1.4l5.67-5.68c1.657-1.66 4.34-1.66 6 0 1.65 1.65 1.65 4.34-.01 6Z"/><path d="M8.49 18.5L6.6 20.37c-.83.82-2.18.82-3 0 -.83-.83-.83-2.18 0-3.01l1.87-1.88 3 3Z"/><path fill="#12131A" fill-rule="evenodd" d="M16.7 7.29c.39.39.39 1.02 0 1.41l-2 1.99c-.4.39-1.03.39-1.42 0 -.4-.4-.4-1.03 0-1.42l2-2c.39-.4 1.02-.4 1.41 0Z"/></g></g></svg>