<svg viewBox="0 0 24 24" xmlns="http://www.w3.org/2000/svg"><g><g fill="#12131A" fill-rule="evenodd"><path d="M5.64 16.06c-.2-.2-.52-.2-.71 0l-1.32 1.31c-.83.82-.83 2.17 0 3 .82.82 2.17.82 3-.01l1.31-1.32c.19-.2.19-.52-.01-.71l-2.3-2.3Z"/><path d="M19.76 10.24l-5.68 5.67c-.39.38-.87.65-1.4.78l-2.59.64c-.18.04-.36-.01-.48-.14l-2.85-2.85c-.13-.13-.18-.31-.14-.48l.64-2.59c.13-.53.4-1.01.78-1.4l5.67-5.68c1.657-1.66 4.34-1.66 6 0 1.65 1.657 1.65 4.34-.01 6ZM16.7 7.29c.39.39.39 1.02 0 1.41l-2 1.99c-.4.39-1.03.39-1.42 0 -.4-.4-.4-1.03 0-1.42l2-2c.39-.4 1.02-.4 1.41 0Z"/></g></g></svg>