<svg viewBox="0 0 24 24" xmlns="http://www.w3.org/2000/svg"><g><g fill="#12131A" fill-rule="evenodd"><path d="M7.37 17.79l-1.18-1.18 -.97.96c-.33.32-.33.84-.01 1.17 .32.32.84.32 1.17 0l.96-.97Zm.2-2.63c.19-.29.33-.62.42-.96l.73-2.93c.04-.18.13-.34.26-.47l4.96-4.97c1.15-1.16 3.01-1.16 4.17-.01 1.15 1.15 1.15 3.01 0 4.17l-4.97 4.96c-.13.12-.29.21-.47.26l-2.93.73h-.01c-.35.08-.67.22-.96.42l-1.25-1.25Zm5.61 2.03l-2.93.73c-.18.04-.34.13-.47.26L7.8 20.15c-1.11 1.1-2.9 1.1-4-.01 -1.11-1.11-1.11-2.9 0-4l1.97-1.98c.12-.13.21-.29.26-.47l.73-2.93c.13-.53.4-1.01.78-1.4l4.96-4.97c1.93-1.94 5.06-1.94 6.99-.01 1.93 1.93 1.93 5.06 0 6.99l-4.97 4.96c-.39.38-.87.65-1.4.78Z"/><path d="M16.7 7.29c.39.39.39 1.02 0 1.41l-2 1.99c-.4.39-1.03.39-1.42 0 -.4-.4-.4-1.03 0-1.42l2-2c.39-.4 1.02-.4 1.41 0Z"/></g></g></svg>