<svg viewBox="0 0 24 24" xmlns="http://www.w3.org/2000/svg"><g><g fill="#12131A" fill-rule="evenodd"><path d="M19.77 5.63l-1.42-1.42 -2.89 2.88c-.73-.52-1.57-.88-2.48-1.03V1.97h-2v4.08c-.92.15-1.76.51-2.48 1.02L5.61 4.18 4.19 5.59l2.88 2.88c-.52.72-.88 1.56-1.03 2.47H1.95v2h4.08c.15.91.51 1.75 1.02 2.47l-2.89 2.88 1.41 1.41 2.88-2.89c.72.51 1.56.87 2.47 1.02v4.08h2v-4.09c.91-.16 1.75-.52 2.47-1.03l2.88 2.88 1.41-1.42 -2.89-2.89c.51-.73.87-1.57 1.02-2.48h4.08v-2H17.8c-.16-.92-.52-1.76-1.03-2.48l2.88-2.89ZM9.13 14.79l.06.06c.72.7 1.7 1.13 2.79 1.13 2.2 0 3.99-1.79 4-4v-.01c-.01-2.21-1.8-4-4-4 -1.09 0-2.08.43-2.8 1.13l-.07.06c-.71.72-1.14 1.7-1.14 2.79 0 1.08.43 2.07 1.13 2.79Z"/><path d="M19.778 7.05c.39-.4.39-1.03 0-1.42l-1.42-1.42c-.4-.4-1.03-.4-1.42 0 -.4.39-.4 1.02 0 1.41l1.41 1.41c.39.39 1.02.39 1.41 0ZM13.99 3c0-.56-.45-1-1-1h-2c-.56 0-1 .44-1 1 0 .55.44 1 1 1h2c.55 0 1-.45 1-1Zm7 11c.55 0 1-.45 1-1v-2c0-.56-.45-1-1-1 -.56 0-1 .44-1 1v2c0 .55.44 1 1 1Zm-18 0c.55 0 1-.45 1-1v-2c0-.56-.45-1-1-1 -.56 0-1 .44-1 1v2c0 .55.44 1 1 1Zm10 6c.55 0 1 .44 1 1 0 .55-.45 1-1 1h-2c-.56 0-1-.45-1-1 0-.56.44-1 1-1h2ZM5.62 7.05c-.4.39-1.03.39-1.42 0 -.4-.4-.4-1.03 0-1.42l1.41-1.42c.39-.4 1.02-.4 1.41 0 .39.39.39 1.02 0 1.41L5.6 7.03Zm11.31 12.72c.39.39 1.02.39 1.41 0l1.41-1.42c.39-.4.39-1.03 0-1.42 -.4-.4-1.03-.4-1.42 0l-1.42 1.41c-.4.39-.4 1.02 0 1.41Zm-9.9-1.42c.39.39.39 1.02 0 1.41 -.4.39-1.03.39-1.42 0l-1.42-1.42c-.4-.4-.4-1.03 0-1.42 .39-.4 1.02-.4 1.41 0l1.41 1.41Z"/></g></g></svg>