<svg viewBox="0 0 24 24" xmlns="http://www.w3.org/2000/svg"><g><g fill="#12131A"><path opacity=".25" d="M8 2C5.79 2 4 3.79 4 6v14c0 1.68 1.95 2.61 3.26 1.55l4.1-3.34c.36-.3.89-.3 1.26 0l4.1 3.33c1.3 1.06 3.26.13 3.26-1.56V5.97c0-2.21-1.8-4-4-4h-8Z"/><path fill="#12131A" fill-rule="evenodd" d="M9.29 7.29c.39-.4 1.02-.4 1.41 0l1.29 1.29 1.29-1.3c.39-.4 1.02-.4 1.41 0 .39.39.39 1.02 0 1.41l-1.3 1.29 1.29 1.29c.39.39.39 1.02 0 1.41 -.4.39-1.03.39-1.42 0l-1.3-1.3 -1.3 1.29c-.4.39-1.03.39-1.42 0 -.4-.4-.4-1.03 0-1.42l1.29-1.3 -1.3-1.3c-.4-.4-.4-1.03 0-1.42Z"/></g></g></svg>