<svg viewBox="0 0 24 24" xmlns="http://www.w3.org/2000/svg"><g><g fill="#12131A"><path opacity=".25" d="M4.14 4.14c-.15.58-.15 1.37-.15 2.65v10.4c0 1.68 0 2.52.32 3.16 .28.56.74 1.02 1.31 1.311 .64.32 1.48.32 3.16.32h6.4c1.68 0 2.52 0 3.16-.33 .56-.29 1.02-.75 1.31-1.311 .07-.16.13-.32.18-.51L4.11 4.11Z"/><path opacity=".25" d="M18 7.99c-1.08-.01-1.67-.03-2.15-.23 -.74-.31-1.32-.89-1.63-1.63 -.2-.49-.23-1.08-.23-2.15H8.98c-.56 0-1-.45-1-1 0-.56.44-1 1-1h5.83l.05-.01c.04-.01.08-.01.12 0 .02-.01.04-.01.07-.01 .07 0 .11 0 .15 0 .47.01.93.2 1.28.53 .02.02.05.05.1.1l2.71 2.71c.05.05.08.08.1.1 .32.35.51.8.53 1.28 0 .03 0 .07 0 .15 0 .03 0 .05-.01.07 0 .04 0 .08 0 .12l-.01.05v5.83c0 .55-.45 1-1 1 -.56 0-1-.45-1-1V7.89Z"/><path fill="#12131A" fill-rule="evenodd" d="M2.29 2.29c.39-.4 1.02-.4 1.41 0l17.99 18c.39.39.39 1.02 0 1.41 -.4.39-1.03.39-1.42 0L2.26 3.7c-.4-.4-.4-1.03 0-1.42Z"/></g></g></svg>