<svg viewBox="0 0 24 24" xmlns="http://www.w3.org/2000/svg"><g><g fill="#12131A"><path opacity=".25" d="M10.87 4.08c-.35-.09-.71-.09-1.12-.09l-3.6 0c-.53-.01-.99-.01-1.36.03 -.4.03-.79.1-1.17.29 -.57.28-1.03.74-1.32 1.31 -.2.37-.27.77-.3 1.16 -.04.37-.04.82-.04 1.35v7.67c-.01.52-.01.98.03 1.35 .03.39.1.78.29 1.16 .28.56.74 1.02 1.31 1.31 .37.19.77.26 1.16.29 .37.03.82.03 1.35.03h11.67c.52 0 .98 0 1.35-.04 .39-.04.78-.11 1.16-.3 .56-.29 1.02-.75 1.31-1.32 .19-.38.26-.78.29-1.17 .03-.38.03-.83.03-1.36v-5.68c0-.53 0-.99-.04-1.36 -.04-.4-.11-.79-.3-1.17 -.29-.57-.75-1.03-1.32-1.32 -.38-.2-.78-.27-1.17-.3 -.38-.04-.83-.04-1.36-.04h-4.43l-.83-.83c-.29-.29-.55-.55-.85-.73 -.27-.17-.57-.29-.87-.36Z"/><path fill="#12131A" fill-rule="evenodd" d="M11.5 11c-.83 0-1.5.67-1.5 1.5 0 .82.67 1.5 1.5 1.5 .82 0 1.5-.68 1.5-1.5 0-.83-.68-1.5-1.5-1.5ZM8 12.5C8 10.56 9.56 9 11.5 9c1.93 0 3.5 1.56 3.5 3.5 0 .6-.16 1.16-.43 1.66l1.12 1.12c.39.39.39 1.02 0 1.41 -.4.39-1.03.39-1.42 0l-1.13-1.13c-.5.26-1.07.42-1.67.42 -1.94 0-3.5-1.57-3.5-3.5Z"/></g></g></svg>