<svg viewBox="0 0 24 24" xmlns="http://www.w3.org/2000/svg"><g><g fill="#12131A" fill-rule="evenodd"><path d="M5 3h14v14c0 2.2-1.8 4-4 4H9c-2.21 0-4-1.8-4-4V3Zm2 2v12c0 1.1.89 2 2 2h6c1.1 0 2-.9 2-2V5H7Z"/><path d="M12.7 16.7c-.4.39-1.03.39-1.42 0l-2.01-2c-.4-.4-.4-1.03 0-1.42 .39-.4 1.02-.4 1.41 0l.29.29V7.98c0-.56.44-1 1-1 .55 0 1 .44 1 1v5.58l.29-.3c.39-.4 1.02-.4 1.41 0 .39.39.39 1.02 0 1.41l-2 2Z"/></g><path fill="#12131A" d="M3 4c0-.56.44-1 1-1h16c.55 0 1 .44 1 1 0 .55-.45 1-1 1H4c-.56 0-1-.45-1-1Z"/></g></svg>