<svg viewBox="0 0 24 24" xmlns="http://www.w3.org/2000/svg"><g><g fill="#12131A" fill-rule="evenodd"><path d="M12 20c4.41 0 8-3.59 8-8 0-4.42-3.59-8-8-8 -4.42 0-8 3.58-8 8 0 4.41 3.58 8 8 8Zm0 2c5.52 0 10-4.48 10-10 0-5.53-4.48-10-10-10C6.47 2 2 6.47 2 12c0 5.52 4.47 10 10 10Z"/><path d="M11 7c0-.56.44-1 1-1 .55 0 1 .44 1 1 1.65 0 3 1.34 3 3 0 .55-.45 1-1 1 -.56 0-1-.45-1-1 0-.56-.45-1-1-1h-1 -1.26c-.42 0-.75.33-.75.74 0 .31.2.6.5.7l3.61 1.2c1.12.37 1.87 1.42 1.87 2.6 0 1.51-1.23 2.74-2.75 2.74h-.26c0 .55-.45 1-1 1 -.56 0-1-.45-1-1 -1.66 0-3-1.35-3-3 0-.56.44-1 1-1 .55 0 1 .44 1 1 0 .55.44 1 1 1h1 1.25c.41 0 .74-.34.74-.75 0-.32-.21-.61-.51-.71l-3.62-1.21c-1.13-.38-1.88-1.43-1.88-2.61 0-1.52 1.22-2.75 2.74-2.75h.25Z"/></g></g></svg>