<svg viewBox="0 0 24 24" xmlns="http://www.w3.org/2000/svg"><g><g fill="#12131A" fill-rule="evenodd"><path d="M14.5 5C16.98 5 19 7.01 19 9.5c0 2.34-1.8 4.275-4.09 4.48l.17 1.99c3.31-.3 5.91-3.09 5.91-6.48 0-3.59-2.92-6.5-6.5-6.5 -3.4 0-6.18 2.59-6.48 5.91l1.99.17c.2-2.3 2.13-4.09 4.48-4.09Z"/><path d="M9.5 10c2.48 0 4.5 2.01 4.5 4.5 0 2.48-2.02 4.5-4.5 4.5C7.01 19 5 16.98 5 14.5 5 12.01 7.01 10 9.5 10Zm6.5 4.5C16 10.91 13.08 8 9.5 8 5.91 8 3 10.91 3 14.5 3 18.08 5.91 21 9.5 21c3.58 0 6.5-2.92 6.5-6.5Z"/></g></g></svg>