<svg viewBox="0 0 24 24" xmlns="http://www.w3.org/2000/svg"><g><g fill-rule="evenodd" fill="#12131A"><path opacity=".25" d="M3.29 3.29c-.4.39-.4 1.02 0 1.41l11.02 11.02c-.54.95-.41 2.18.41 2.99l.83.83c.58.58 1.53.58 2.12-.01l.23-.24 1.38 1.38c.39.39 1.02.39 1.41 0 .39-.4.39-1.03 0-1.42l-1.39-1.39 .23-.24c.58-.59.58-1.54 0-2.13l-.83-.83c-.82-.82-2.05-.96-3.01-.42L4.66 3.21c-.4-.4-1.03-.4-1.42 0Z"/><path d="M20.7 3.29c.39.39.39 1.02 0 1.41L9.67 15.72c.53.95.4 2.18-.42 2.99l-.84.83c-.59.58-1.54.58-2.13-.01l-.24-.24 -1.39 1.38c-.4.39-1.03.39-1.42 0 -.4-.4-.4-1.03 0-1.42l1.38-1.39 -.24-.24c-.59-.59-.59-1.54-.01-2.13l.82-.83c.81-.82 2.04-.96 3-.42L19.2 3.21c.39-.4 1.02-.4 1.41 0Z"/></g></g></svg>