<svg viewBox="0 0 24 24" xmlns="http://www.w3.org/2000/svg"><g><g fill="#12131A"><path opacity=".25" d="M12 4c-6.11 0-8.87 4.78-9.74 6.73 -.36.8-.36 1.71-.001 2.52 .86 1.95 3.62 6.73 9.73 6.73 6.1 0 8.86-4.79 9.72-6.75 .35-.81.35-1.72 0-2.52 -.87-1.96-3.63-6.75-9.73-6.75Z"/><path fill="#12131A" fill-rule="evenodd" d="M9 10c0-.56.44-1 1-1 .55 0 1 .44 1 1v1h2v-1c0-.56.44-1 1-1 .55 0 1 .44 1 1v1h1c.55 0 1 .44 1 1 0 .55-.45 1-1 1h-1v1c0 .55-.45 1-1 1 -.56 0-1-.45-1-1v-1h-2v1c0 .55-.45 1-1 1 -.56 0-1-.45-1-1v-1H8c-.56 0-1-.45-1-1 0-.56.44-1 1-1h1v-1Z"/></g></g></svg>