<svg viewBox="0 0 24 24" xmlns="http://www.w3.org/2000/svg"><g><g fill="#12131A"><path d="M15.92 19.18l-.89 2.12c-.18.41.24.82.65.65l2.12-.89c.12-.06.23-.13.32-.22l3.56-3.57c.39-.4.39-1.03 0-1.42l-.59-.59c-.4-.4-1.03-.4-1.42 0l-3.57 3.56c-.1.09-.17.2-.22.32Z"/><path fill="#12131A" fill-rule="evenodd" d="M12 6c-3.87 0-7 3.13-7 7 0 3.86 3.13 7 7 7 .55 0 1 .44 1 1 0 .55-.45 1-1 1 -4.98 0-9-4.03-9-9 0-4.98 4.02-9 9-9 4.59 0 8.37 3.43 8.93 7.87 .06.54-.33 1.04-.87 1.11 -.55.06-1.05-.33-1.12-.87 -.44-3.46-3.38-6.13-6.95-6.13Z"/><path d="M4.6 5.3c-.45.33-1.07.24-1.4-.2 -.34-.45-.25-1.07.2-1.4l2-1.5c.44-.34 1.06-.25 1.4.2 .33.44.24 1.06-.2 1.4l-2 1.5Z"/><path d="M18.6 2.2c-.45-.34-1.07-.25-1.4.2 -.34.44-.25 1.06.2 1.4l2 1.5c.44.33 1.06.24 1.4-.2 .33-.45.24-1.07-.2-1.4l-2-1.5Z"/></g></g></svg>