<svg viewBox="0 0 24 24" xmlns="http://www.w3.org/2000/svg"><g><path fill="#12131A" fill-rule="evenodd" d="M12 22c4.97 0 9-4.03 9-9 0-4.98-4.03-9-9-9 -4.98 0-9 4.02-9 9 0 4.97 4.02 9 9 9Zm.46-12.7c-.18-.42-.76-.42-.93 0l-.79 1.89c-.08.17-.24.29-.42.3l-1.87.16c-.43.03-.62.56-.31.85l1.41 1.35c.12.12.18.3.14.47l-.49 2.01c-.11.43.36.77.74.54l1.75-1.08c.16-.1.36-.1.52 0l1.75 1.07c.37.23.85-.12.74-.55l-.49-2.02c-.05-.18.01-.36.14-.48l1.42-1.36c.31-.3.12-.83-.31-.87l-1.88-.17c-.19-.02-.35-.14-.42-.31l-.79-1.9Z"/><g fill="#12131A"><path d="M4.6 5.3c-.45.33-1.07.24-1.4-.2 -.34-.45-.25-1.07.2-1.4l2-1.5c.44-.34 1.06-.25 1.4.2 .33.44.24 1.06-.2 1.4l-2 1.5Z"/><path d="M18.6 2.2c-.45-.34-1.07-.25-1.4.2 -.34.44-.25 1.06.2 1.4l2 1.5c.44.33 1.06.24 1.4-.2 .33-.45.24-1.07-.2-1.4l-2-1.5Z"/></g></g></svg>