<svg viewBox="0 0 24 24" xmlns="http://www.w3.org/2000/svg"><g><g fill="#12131A"><path d="M15.92 19.18l-.89 2.12c-.18.41.24.82.65.65l2.12-.89c.12-.06.23-.13.32-.22l3.56-3.57c.39-.4.39-1.03 0-1.42l-.59-.59c-.4-.4-1.03-.4-1.42 0l-3.57 3.56c-.1.09-.17.2-.22.32Z"/><path d="M20.5 13c.27 0 .51-.23.5-.5 -.26-4.74-4.2-8.5-9-8.5 -4.98 0-9 4.02-9 9 0 4.97 4.02 9 9 9 .18 0 .37-.01.55-.02 .25-.02.44-.24.44-.49v-2.5c0-3.32 2.68-6 6-6h1.5Z"/><path d="M4.6 5.3c-.45.33-1.07.24-1.4-.2 -.34-.45-.25-1.07.2-1.4l2-1.5c.44-.34 1.06-.25 1.4.2 .33.44.24 1.06-.2 1.4l-2 1.5Z"/><path d="M18.6 2.2c-.45-.34-1.07-.25-1.4.2 -.34.44-.25 1.06.2 1.4l2 1.5c.44.33 1.06.24 1.4-.2 .33-.45.24-1.07-.2-1.4l-2-1.5Z"/></g></g></svg>