<svg viewBox="0 0 24 24" xmlns="http://www.w3.org/2000/svg"><g><g fill="#12131A" fill-rule="evenodd"><path d="M15 19c0-.56.44-1 1-1h6c.55 0 1 .44 1 1 0 .55-.45 1-1 1h-6c-.56 0-1-.45-1-1Z"/><path d="M12 6c-3.87 0-7 3.13-7 7 0 3.86 3.13 7 7 7 .55 0 1 .44 1 1 0 .55-.45 1-1 1 -4.98 0-9-4.03-9-9 0-4.98 4.02-9 9-9 4.97 0 9 4.02 9 9 0 .77-.1 1.52-.29 2.24 -.14.53-.69.85-1.22.71 -.54-.14-.86-.69-.72-1.22 .14-.56.22-1.15.22-1.76 0-3.87-3.14-7-7-7Z"/></g><g fill="#12131A"><path d="M4.6 5.3c-.45.33-1.07.24-1.4-.2 -.34-.45-.25-1.07.2-1.4l2-1.5c.44-.34 1.06-.25 1.4.2 .33.44.24 1.06-.2 1.4l-2 1.5Z"/><path d="M18.6 2.2c-.45-.34-1.07-.25-1.4.2 -.34.44-.25 1.06.2 1.4l2 1.5c.44.33 1.06.24 1.4-.2 .33-.45.24-1.07-.2-1.4l-2-1.5Z"/></g></g></svg>