<svg viewBox="0 0 24 24" xmlns="http://www.w3.org/2000/svg"><g><g fill="#12131A"><path d="M10 12.5c0-.83.67-1.5 1.5-1.5 .82 0 1.5.67 1.5 1.5 0 .82-.68 1.5-1.5 1.5 -.83 0-1.5-.68-1.5-1.5Z"/><path fill="#12131A" fill-rule="evenodd" d="M12 22c4.97 0 9-4.03 9-9 0-4.98-4.03-9-9-9 -4.98 0-9 4.02-9 9 0 4.97 4.02 9 9 9Zm-.5-13C9.56 9 8 10.56 8 12.5c0 1.93 1.56 3.5 3.5 3.5 .6 0 1.16-.16 1.66-.43l1.12 1.12c.39.39 1.02.39 1.41 0 .39-.4.39-1.03 0-1.42l-1.13-1.13c.26-.5.42-1.07.42-1.67 0-1.94-1.57-3.5-3.5-3.5Z"/><path d="M4.6 5.3c-.45.33-1.07.24-1.4-.2 -.34-.45-.25-1.07.2-1.4l2-1.5c.44-.34 1.06-.25 1.4.2 .33.44.24 1.06-.2 1.4l-2 1.5Z"/><path d="M18.6 2.2c-.45-.34-1.07-.25-1.4.2 -.34.44-.25 1.06.2 1.4l2 1.5c.44.33 1.06.24 1.4-.2 .33-.45.24-1.07-.2-1.4l-2-1.5Z"/></g></g></svg>