<svg viewBox="0 0 24 24" xmlns="http://www.w3.org/2000/svg"><g><path fill="#12131A" fill-rule="evenodd" d="M18 17c-.56 0-1 .44-1 1 0 .55.44 1 1 1 .55 0 1-.45 1-1 0-.56-.45-1-1-1Zm-3 1c0-1.66 1.34-3 3-3 1.65 0 3 1.34 3 3 0 .46-.11.9-.3 1.29l.99.99c.39.39.39 1.02 0 1.41 -.4.39-1.03.39-1.42 0l-1-1c-.4.18-.84.29-1.3.29 -1.66 0-3-1.35-3-3Z"/><g fill="#12131A"><path d="M20.5 13c.27 0 .51-.23.5-.5 -.26-4.74-4.2-8.5-9-8.5 -4.98 0-9 4.02-9 9 0 4.97 4.02 9 9 9 .18 0 .37-.01.55-.02 .25-.02.44-.24.44-.49v-2.5c0-3.32 2.68-6 6-6h1.5Z"/><path d="M4.6 5.3c-.45.33-1.07.24-1.4-.2 -.34-.45-.25-1.07.2-1.4l2-1.5c.44-.34 1.06-.25 1.4.2 .33.44.24 1.06-.2 1.4l-2 1.5Z"/><path d="M18.6 2.2c-.45-.34-1.07-.25-1.4.2 -.34.44-.25 1.06.2 1.4l2 1.5c.44.33 1.06.24 1.4-.2 .33-.45.24-1.07-.2-1.4l-2-1.5Z"/></g></g></svg>