<svg viewBox="0 0 24 24" xmlns="http://www.w3.org/2000/svg"><g><g fill="#12131A"><path d="M18.53 15.3c.17-.42.75-.42.92 0l.78 1.89c.07.17.23.29.41.3l1.87.16c.42.03.61.56.3.86l-1.43 1.35c-.13.12-.19.3-.15.47l.48 2.01c.1.43-.37.77-.75.54L19.2 21.8c-.16-.1-.37-.1-.53 0l-1.76 1.07c-.38.23-.86-.12-.75-.55l.48-2.02c.04-.18-.02-.36-.15-.48l-1.42-1.36c-.32-.3-.13-.83.3-.86l1.86-.17c.18-.02.34-.14.41-.31l.78-1.9Z"/><path fill="#12131A" fill-rule="evenodd" d="M12 6c-3.87 0-7 3.13-7 7 0 3.86 3.13 7 7 7 .29 0 .58-.02.87-.06 .54-.07 1.04.32 1.11.86 .06.54-.33 1.04-.87 1.11 -.37.04-.75.06-1.13.06 -4.98 0-9-4.03-9-9 0-4.98 4.02-9 9-9 4.59 0 8.37 3.43 8.93 7.87 .06.54-.33 1.04-.87 1.11 -.55.06-1.05-.33-1.12-.87 -.44-3.46-3.38-6.13-6.95-6.13Z"/><path d="M4.6 5.3c-.45.33-1.07.24-1.4-.2 -.34-.45-.25-1.07.2-1.4l2-1.5c.44-.34 1.06-.25 1.4.2 .33.44.24 1.06-.2 1.4l-2 1.5Z"/><path d="M18.6 2.2c-.45-.34-1.07-.25-1.4.2 -.34.44-.25 1.06.2 1.4l2 1.5c.44.33 1.06.24 1.4-.2 .33-.45.24-1.07-.2-1.4l-2-1.5Z"/></g></g></svg>