<svg viewBox="0 0 24 24" xmlns="http://www.w3.org/2000/svg"><g><g fill="#12131A"><path opacity=".25" d="M21 13c0 4.97-4.03 9-9 9 -4.98 0-9-4.03-9-9 0-4.98 4.02-9 9-9 4.97 0 9 4.02 9 9Z"/><path fill="#12131A" fill-rule="evenodd" d="M9.29 10.29c.39-.4 1.02-.4 1.41 0l1.29 1.29 1.29-1.3c.39-.4 1.02-.4 1.41 0 .39.39.39 1.02 0 1.41l-1.3 1.29 1.29 1.29c.39.39.39 1.02 0 1.41 -.4.39-1.03.39-1.42 0l-1.3-1.3 -1.3 1.29c-.4.39-1.03.39-1.42 0 -.4-.4-.4-1.03 0-1.42l1.29-1.3 -1.3-1.3c-.4-.4-.4-1.03 0-1.42Z"/><path d="M4.6 5.3c-.45.33-1.07.24-1.4-.2 -.34-.45-.25-1.07.2-1.4l2-1.5c.44-.34 1.06-.25 1.4.2 .33.44.24 1.06-.2 1.4l-2 1.5Z"/><path d="M18.6 2.2c-.45-.34-1.07-.25-1.4.2 -.34.44-.25 1.06.2 1.4l2 1.5c.44.33 1.06.24 1.4-.2 .33-.45.24-1.07-.2-1.4l-2-1.5Z"/></g></g></svg>