<svg viewBox="0 0 24 24" xmlns="http://www.w3.org/2000/svg"><g><path opacity=".25" fill="#12131A" fill-rule="evenodd" d="M16.83 5H7.15h-.01c-.53-.01-.99-.01-1.36.03 -.4.03-.79.1-1.17.29 -.57.28-1.03.74-1.32 1.31 -.2.37-.27.77-.3 1.16 -.04.37-.04.82-.04 1.35v0 7.67 0c-.01.52-.01.98.03 1.35 .03.39.1.78.29 1.16 .28.56.74 1.02 1.31 1.31 .37.19.77.26 1.16.29 .37.03.82.03 1.35.03h0 9.67 0c.52 0 .98 0 1.35-.04 .39-.04.78-.11 1.16-.3 .56-.29 1.02-.75 1.31-1.32 .19-.38.26-.78.29-1.17 .03-.38.03-.83.03-1.36V9.08c0-.53 0-.99-.04-1.36 -.04-.4-.11-.79-.3-1.17 -.29-.57-.75-1.03-1.32-1.32 -.38-.2-.78-.27-1.17-.3 -.38-.04-.83-.04-1.36-.04h-.01Z"/><g fill="#12131A"><path d="M18.53 15.3c.17-.42.75-.42.92 0l.78 1.89c.07.17.23.29.41.3l1.87.16c.42.03.61.56.3.86l-1.43 1.35c-.13.12-.19.3-.15.47l.48 2.01c.1.43-.37.77-.75.54L19.2 21.8c-.16-.1-.37-.1-.53 0l-1.76 1.07c-.38.23-.86-.12-.75-.55l.48-2.02c.04-.18-.02-.36-.15-.48l-1.42-1.36c-.32-.3-.13-.83.3-.86l1.86-.17c.18-.02.34-.14.41-.31l.78-1.9Z"/><path d="M9 4c0-.56-.45-1-1-1 -.56 0-1 .44-1 1v2c0 .55.44 1 1 1 .55 0 1-.45 1-1V4Z"/><path d="M17 4c0-.56-.45-1-1-1 -.56 0-1 .44-1 1v2c0 .55.44 1 1 1 .55 0 1-.45 1-1V4Z"/></g></g></svg>