<svg viewBox="0 0 24 24" xmlns="http://www.w3.org/2000/svg"><g><g fill="#12131A" fill-rule="evenodd"><path d="M5.35 5.35c-.06.02-.12.05-.18.08 -.76.38-1.37.99-1.75 1.74 -.25.48-.35 1-.4 1.56 -.05.54-.05 1.2-.05 2.01v0 .04 4.4 .04 0c-.01.8-.01 1.46.04 2.01 .04.56.14 1.07.39 1.56 .38.75.99 1.36 1.74 1.74 .48.24 1 .34 1.56.39 .54.04 1.2.04 2.01.04h0 .04 6.4 .04v0c.8 0 1.46 0 2.01-.05 .56-.05 1.07-.15 1.56-.4 .37-.2.71-.45 1.01-.74l-1.42-1.42c-.15.14-.32.27-.51.36 -.16.07-.39.14-.82.18 -.46.03-1.04.03-1.89.03h-6.4c-.86 0-1.44-.01-1.89-.04 -.44-.04-.67-.11-.82-.19 -.38-.2-.69-.5-.88-.88 -.08-.16-.15-.39-.19-.82 -.04-.46-.04-1.04-.04-1.89v-4.4c0-.86 0-1.44.03-1.89 .03-.44.1-.67.18-.82 .19-.38.49-.69.87-.88 .15-.08.38-.15.81-.19 .03-.01.07-.01.11-.01L5.23 5.23Z"/><path d="M17.089 7.03c-.46-.04-1.04-.04-1.89-.04h-3.2c-.56 0-1-.45-1-1 0-.56.44-1 1-1h3.24c.8-.01 1.46-.01 2.01.04 .56.04 1.07.14 1.56.39 .75.38 1.36.99 1.74 1.74 .24.48.34 1 .39 1.56 .04.54.04 1.2.04 2.01v3.24c0 .55-.45 1-1 1 -.56 0-1-.45-1-1v-3.2c0-.86-.01-1.44-.04-1.89 -.04-.44-.11-.67-.19-.82 -.2-.38-.5-.69-.88-.88 -.16-.08-.39-.15-.82-.19Z"/><path d="M16 3c.55 0 1 .44 1 1v2c0 .55-.45 1-1 1 -.56 0-1-.45-1-1V4c0-.56.44-1 1-1Z"/><path d="M2.29 2.29c.39-.4 1.02-.4 1.41 0l17.99 18c.39.39.39 1.02 0 1.41 -.4.39-1.03.39-1.42 0L2.26 3.7c-.4-.4-.4-1.03 0-1.42Z"/></g></g></svg>