<svg viewBox="0 0 24 24" xmlns="http://www.w3.org/2000/svg"><g><path fill="#12131A" fill-rule="evenodd" d="M18 23c2.76 0 5-2.24 5-5 0-2.77-2.24-5-5-5 -2.77 0-5 2.23-5 5 0 2.76 2.23 5 5 5Zm1-7c0-.56-.45-1-1-1 -.56 0-1 .44-1 1v2c0 .26.1.51.29.7l1 1c.39.39 1.02.39 1.41 0 .39-.4.39-1.03 0-1.42l-.71-.71v-1.59Z"/><g fill="#12131A"><path d="M15.24 5H8.75c-.81-.01-1.47-.01-2.02.04 -.57.04-1.08.14-1.57.39 -.76.38-1.37.99-1.75 1.74 -.25.48-.35 1-.4 1.56 -.05.54-.05 1.2-.05 2.01v4.48c-.01.8-.01 1.46.04 2.01 .04.56.14 1.07.39 1.56 .38.75.99 1.36 1.74 1.74 .48.24 1 .34 1.56.39 .54.04 1.2.04 2.01.04h1.24c.55 0 1-.45 1-1 0-.56-.45-1-1-1h-1.2c-.86 0-1.44-.01-1.89-.04 -.44-.04-.67-.11-.82-.19 -.38-.2-.69-.5-.88-.88 -.08-.16-.15-.39-.19-.82 -.04-.46-.04-1.04-.04-1.89v-4.4c0-.86 0-1.44.03-1.89 .03-.44.1-.67.18-.82 .19-.38.49-.69.87-.88 .15-.08.38-.15.81-.19 .45-.04 1.03-.04 1.88-.04h6.4c.85 0 1.43 0 1.88.03 .43.03.66.1.81.18 .37.19.68.49.87.87 .07.15.14.38.18.81 .03.45.03 1.08.03 1.08 0 .55.44 1 1 1 .55 0 1-.45 1-1 0 0 0-.72-.05-1.26 -.05-.57-.15-1.08-.4-1.57 -.39-.76-1-1.37-1.75-1.75 -.49-.25-1.01-.35-1.57-.4 -.55-.05-1.21-.05-2.02-.05Z"/><path d="M9 4c0-.56-.45-1-1-1 -.56 0-1 .44-1 1v2c0 .55.44 1 1 1 .55 0 1-.45 1-1V4Z"/><path d="M17 4c0-.56-.45-1-1-1 -.56 0-1 .44-1 1v2c0 .55.44 1 1 1 .55 0 1-.45 1-1V4Z"/></g></g></svg>