<svg viewBox="0 0 24 24" xmlns="http://www.w3.org/2000/svg"><g><path fill="#12131A" fill-rule="evenodd" d="M9 4c0-.56-.45-1-1-1 -.56 0-1 .44-1 1v1c-.46 0-.86 0-1.2.03 -.4.03-.79.1-1.17.29 -.57.28-1.03.74-1.32 1.31 -.2.37-.27.77-.3 1.16 -.04.37-.04.82-.04 1.35v7.67c-.01.52-.01.98.03 1.35 .03.39.1.78.29 1.16 .28.56.74 1.02 1.31 1.31 .37.19.77.26 1.16.29 .37.03.82.03 1.35.03h9.67c.52 0 .98 0 1.35-.04 .39-.04.78-.11 1.16-.3 .56-.29 1.02-.75 1.31-1.32 .19-.38.26-.78.29-1.17 .03-.38.03-.83.03-1.36V9.08c0-.53 0-.99-.04-1.36 -.04-.4-.11-.79-.3-1.17 -.29-.57-.75-1.03-1.32-1.32 -.38-.2-.78-.27-1.17-.3 -.34-.03-.74-.04-1.2-.04V3.88c0-.56-.45-1-1-1 -.56 0-1 .44-1 1v1h-6v-1Zm3.46 5.3c-.18-.42-.76-.42-.93 0l-.79 1.89c-.08.17-.24.29-.42.3l-1.87.16c-.43.03-.62.56-.31.85l1.41 1.35c.12.12.18.3.14.47l-.49 2.01c-.11.43.36.77.74.54l1.75-1.08c.16-.1.36-.1.52 0l1.75 1.07c.37.23.85-.12.74-.55l-.49-2.02c-.05-.18.01-.36.14-.48l1.42-1.36c.31-.3.12-.83-.31-.87l-1.88-.17c-.19-.02-.35-.14-.42-.31l-.79-1.9Z"/></g></svg>