<svg viewBox="0 0 24 24" xmlns="http://www.w3.org/2000/svg"><g><path fill="#12131A" fill-rule="evenodd" d="M8 3c.55 0 1 .44 1 1v1h6V4c0-.56.44-1 1-1 .55 0 1 .44 1 1v1c.45 0 .85 0 1.19.03 .39.03.78.1 1.16.29 .56.28 1.02.74 1.31 1.31 .19.37.26.77.29 1.16 .01.2.02.43.02.69 0 .27-.23.5-.5.5h-17c-.28 0-.51-.23-.5-.51 0-.26.01-.49.02-.7 .03-.4.1-.79.29-1.17 .28-.57.74-1.03 1.31-1.32 .37-.2.77-.27 1.16-.3 .33-.03.73-.04 1.19-.04V3.93c0-.56.44-1 1-1Zm7 8.5c0-.28-.23-.5-.5-.5h-5c-.28 0-.5.22-.5.5v3c0 .27.22.5.5.5h5c.27 0 .5-.23.5-.5v-3Zm0 6c0-.28-.23-.5-.5-.5h-5c-.28 0-.5.22-.5.5v3c0 .27.22.5.5.5h5c.27 0 .5-.23.5-.5v-3Zm2 2.99c0 .27.22.5.5.49 .25-.01.48-.02.69-.03 .39-.04.78-.11 1.16-.3 .56-.29 1.02-.75 1.31-1.32 .19-.38.26-.78.29-1.17 .01-.21.02-.44.02-.7 0-.28-.23-.51-.5-.51h-3c-.28 0-.5.22-.5.5v2.99Zm.5-5.5c-.28 0-.5-.23-.5-.5v-3c0-.28.22-.5.5-.5h3c.27 0 .5.22.5.5v3c0 .27-.23.5-.5.5h-3Zm-11-4c.27 0 .5.22.5.5v3c0 .27-.23.5-.5.5h-3c-.28 0-.5-.23-.5-.5v-3c0-.28.22-.5.5-.5h3Zm0 6c.27 0 .5.22.5.5v2.99c0 .27-.23.5-.51.49 -.26-.01-.49-.02-.7-.03 -.4-.04-.79-.11-1.17-.3 -.57-.29-1.03-.75-1.32-1.32 -.2-.38-.27-.78-.3-1.17 -.02-.21-.03-.44-.03-.7 -.01-.28.22-.51.49-.51h2.99Z"/></g></svg>