<svg viewBox="0 0 24 24" xmlns="http://www.w3.org/2000/svg"><g><path fill="#12131A" fill-rule="evenodd" d="M8 3c.55 0 1 .44 1 1v1h6V4c0-.56.44-1 1-1 .55 0 1 .44 1 1v1c.45 0 .85 0 1.19.03 .39.03.78.1 1.16.29 .56.28 1.02.74 1.31 1.31 .19.37.26.77.29 1.16 .03.37.03.82.03 1.35v7.67c0 .52 0 .98-.04 1.35 -.04.39-.11.78-.3 1.16 -.29.56-.75 1.02-1.32 1.31 -.38.19-.78.26-1.17.29 -.38.03-.83.03-1.36.03v0 0H7.11 7.1h-.01c-.53 0-.99 0-1.36-.04 -.4-.04-.79-.11-1.17-.3 -.57-.29-1.03-.75-1.32-1.32 -.2-.38-.27-.78-.3-1.17 -.04-.38-.04-.83-.04-1.36v0V9.08v-.01c-.01-.53-.01-.99.03-1.36 .03-.4.1-.79.29-1.17 .28-.57.74-1.03 1.31-1.32 .37-.2.77-.27 1.16-.3 .33-.03.73-.04 1.19-.04V3.87c0-.56.44-1 1-1Zm2 9c0-.56.44-1 1-1h5c.55 0 1 .44 1 1 0 .55-.45 1-1 1h-5c-.56 0-1-.45-1-1Zm-2 3c-.56 0-1 .44-1 1 0 .55.44 1 1 1h5c.55 0 1-.45 1-1 0-.56-.45-1-1-1H8Z"/></g></svg>