<svg viewBox="0 0 24 24" xmlns="http://www.w3.org/2000/svg"><g><g fill="#12131A"><path d="M15.92 19.18l-.89 2.12c-.18.41.24.82.65.65l2.12-.89c.12-.06.23-.13.32-.22l3.56-3.57c.39-.4.39-1.03 0-1.42l-.59-.59c-.4-.4-1.03-.4-1.42 0l-3.57 3.56c-.1.09-.17.2-.22.32Z"/><path d="M9 4c0-.56-.45-1-1-1 -.56 0-1 .44-1 1v1c-.46 0-.86 0-1.2.03 -.4.03-.79.1-1.17.29 -.57.28-1.03.74-1.32 1.31 -.2.37-.27.77-.3 1.16 -.04.37-.04.82-.04 1.35v7.67c-.01.52-.01.98.03 1.35 .03.39.1.78.29 1.16 .28.56.74 1.02 1.31 1.31 .37.19.77.26 1.16.29 .37.03.82.03 1.35.03h5.33c.27 0 .5-.23.5-.5v-1.5c0-3.32 2.68-6 6-6h1.5c.27 0 .5-.23.5-.5V9.11c0-.53 0-.99-.04-1.36 -.04-.4-.11-.79-.3-1.17 -.29-.57-.75-1.03-1.32-1.32 -.38-.2-.78-.27-1.17-.3 -.34-.03-.74-.04-1.2-.04V3.91c0-.56-.45-1-1-1 -.56 0-1 .44-1 1v1h-6v-1Z"/></g></g></svg>