<svg viewBox="0 0 24 24" xmlns="http://www.w3.org/2000/svg"><g><path opacity=".25" fill="#12131A" fill-rule="evenodd" d="M5.14 5.14c-.19.04-.36.1-.51.18 -.57.28-1.03.74-1.32 1.31 -.33.64-.33 1.48-.33 3.16v6.4c0 1.68 0 2.52.32 3.16 .28.56.74 1.02 1.31 1.31 .64.32 1.48.32 3.16.32h8.4c1.68 0 2.52 0 3.16-.33 .28-.15.53-.34.75-.56L5.1 5.11Z"/><g fill="#12131A"><path opacity=".25" d="M17 4c0-.56-.45-1-1-1 -.56 0-1 .44-1 1v1h-3c-.56 0-1 .44-1 1 0 .55.44 1 1 1h4.8c.57 0 .94 0 1.23.02 .27.02.37.05.42.08 .18.09.34.24.43.43 .02.04.06.15.08.42 .02.28.02.65.02 1.23v4.8c0 .55.44 1 1 1 .55 0 1-.45 1-1V9.14c0-.53 0-.99-.04-1.36 -.04-.4-.11-.79-.3-1.17 -.29-.57-.75-1.03-1.32-1.32 -.38-.2-.78-.27-1.17-.3 -.34-.03-.74-.04-1.2-.04V3.94Z"/><path fill="#12131A" fill-rule="evenodd" d="M2.29 2.29c.39-.4 1.02-.4 1.41 0l17.99 18c.39.39.39 1.02 0 1.41 -.4.39-1.03.39-1.42 0L2.26 3.7c-.4-.4-.4-1.03 0-1.42Z"/></g></g></svg>