<svg viewBox="0 0 24 24" xmlns="http://www.w3.org/2000/svg"><g><g fill="#12131A" fill-rule="evenodd"><path d="M18.29 15.29c.39-.4 1.02-.4 1.41 0l2 2c.39.39.39 1.02 0 1.41 -.4.39-1.03.39-1.42 0l-.3-.3v3.58c0 .55-.45 1-1 1 -.56 0-1-.45-1-1v-3.59l-.3.29c-.4.39-1.03.39-1.42 0 -.4-.4-.4-1.03 0-1.42l2-2Z"/><path d="M8.75 5h6.48c.8-.01 1.46-.01 2.01.04 .56.04 1.07.14 1.56.39 .75.38 1.36.99 1.74 1.74 .24.48.34 1 .39 1.56 .04.54.04 1.2.04 2.01v1.24c0 .55-.45 1-1 1 -.56 0-1-.45-1-1v-1.2c0-.86-.01-1.44-.04-1.89 -.04-.44-.11-.67-.19-.82 -.2-.38-.5-.69-.88-.88 -.16-.08-.39-.15-.82-.19 -.46-.04-1.04-.04-1.89-.04h-6.4c-.86 0-1.44 0-1.89.03 -.44.03-.67.1-.82.18 -.38.19-.69.49-.88.87 -.08.15-.15.38-.19.81 -.04.45-.04 1.03-.04 1.88v4.4c0 .85 0 1.43.03 1.88 .03.43.1.66.18.81 .19.37.49.68.87.87 .15.07.38.14.81.18 .45.03 1.03.03 1.88.03h4.2c.55 0 1 .44 1 1 0 .55-.45 1-1 1H8.65c-.81 0-1.47 0-2.02-.05 -.57-.05-1.08-.15-1.57-.4 -.76-.39-1.37-1-1.75-1.75 -.25-.49-.35-1.01-.4-1.57 -.05-.55-.05-1.21-.05-2.02v-4.49c-.01-.81-.01-1.47.04-2.02 .04-.57.14-1.08.39-1.57 .38-.76.99-1.37 1.74-1.75 .48-.25 1-.35 1.56-.4 .54-.05 1.2-.05 2.01-.05Z"/></g><g fill="#12131A"><path d="M9 4c0-.56-.45-1-1-1 -.56 0-1 .44-1 1v2c0 .55.44 1 1 1 .55 0 1-.45 1-1V4Z"/><path d="M17 4c0-.56-.45-1-1-1 -.56 0-1 .44-1 1v2c0 .55.44 1 1 1 .55 0 1-.45 1-1V4Z"/></g></g></svg>