<svg viewBox="0 0 24 24" xmlns="http://www.w3.org/2000/svg"><g><g fill="#12131A"><path opacity=".25" d="M6 2c-1.11 0-2 .89-2 2v2.48c0 .64.31 1.25.83 1.62l5.44 3.88 -5.45 3.88c-.53.37-.84.98-.84 1.62v2.48c0 1.1.89 2 2 2h12c1.1 0 2-.9 2-2v-2.49c0-.65-.32-1.26-.84-1.63l-5.45-3.89 5.44-3.89c.52-.38.83-.99.83-1.63V3.94c0-1.11-.9-2-2-2h-12Z"/><path d="M16 19.57c0 .23-.19.42-.43.42H8.41c-.24 0-.43-.19-.43-.43v0c0-.36.19-.69.49-.87l2.49-1.45c.61-.36 1.38-.36 2 0l2.49 1.44c.3.17.49.5.49.86v0Z"/></g></g></svg>