<svg viewBox="0 0 24 24" xmlns="http://www.w3.org/2000/svg"><g><path fill="#12131A" fill-rule="evenodd" d="M4 5c0-1.66 1.34-3 3-3h10c1.65 0 3 1.34 3 3v.97c0 .96-.47 1.87-1.26 2.44l-5.03 3.58 5.02 3.58c.78.56 1.25 1.47 1.25 2.44v.97c0 1.65-1.35 3-3 3h-10c-1.66 0-3-1.35-3-3V18c0-.97.46-1.88 1.25-2.45l5.02-3.59 -5.03-3.59c-.79-.57-1.26-1.48-1.26-2.45v-.98Zm8 5.77l5.58-3.99c.26-.19.41-.5.41-.82v-.98c0-.56-.45-1-1-1h-10c-.56 0-1 .44-1 1v.97c0 .32.15.62.41.81l5.58 3.98Zm0 2.45L6.41 17.2c-.27.18-.42.49-.42.81v.97c0 .55.44 1 1 1h10c.55 0 1-.45 1-1V18c0-.33-.16-.63-.42-.82l-5.59-3.99Z"/><path fill="#12131A" d="M16 19.99H8v-.43c0-.36.19-.69.49-.87l2.49-1.45c.61-.36 1.38-.36 2 0l2.49 1.44c.3.17.49.5.49.86v.42Z"/></g></svg>