<svg viewBox="0 0 24 24" xmlns="http://www.w3.org/2000/svg"><g><g fill="#12131A" fill-rule="evenodd"><path d="M11.01 11.47l-5.76 4.11c-.79.56-1.26 1.47-1.26 2.44v.97c0 1.65 1.34 3 3 3h10c1.35 0 2.49-.9 2.87-2.13l-1.88-1.88v1c0 .55-.45 1-1 1h-10c-.56 0-1-.45-1-1V18c0-.33.15-.63.41-.82l6.16-4.41c4.66 3.99-17.15-14.7-1.57-1.35Z"/><path d="M8 3c0-.56.44-1 1-1h8c1.65 0 3 1.34 3 3v.97c0 .96-.47 1.87-1.26 2.44l-2.17 1.54c-.45.32-1.08.21-1.4-.24 -.33-.45-.22-1.08.23-1.4l2.16-1.55c.26-.19.41-.5.41-.82v-.98c0-.56-.45-1-1-1h-8c-.56 0-1-.45-1-1Z"/><path d="M2.29 2.29c.39-.4 1.02-.4 1.41 0l17.99 18c.39.39.39 1.02 0 1.41 -.4.39-1.03.39-1.42 0L2.26 3.7c-.4-.4-.4-1.03 0-1.42Z"/></g></g></svg>