<svg viewBox="0 0 24 24" xmlns="http://www.w3.org/2000/svg"><g><g fill="#12131A"><path opacity=".25" d="M12 4c-4.98 0-9 4.02-9 9 0 4.97 4.02 9 9 9 4.97 0 9-4.03 9-9 0-4.98-4.03-9-9-9Z"/><path fill="#12131A" fill-rule="evenodd" d="M9 10c0-.56.44-1 1-1h4c.36 0 .7.2.88.52 .17.32.15.71-.05 1.02l-2.97 4.44h2.13c.55 0 1 .44 1 1 0 .55-.45 1-1 1h-4c-.37 0-.71-.21-.89-.53 -.18-.33-.16-.72.04-1.03l2.96-4.45H9.96c-.56 0-1-.45-1-1Z"/><path d="M4.6 5.3c-.45.33-1.07.24-1.4-.2 -.34-.45-.25-1.07.2-1.4l2-1.5c.44-.34 1.06-.25 1.4.2 .33.44.24 1.06-.2 1.4l-2 1.5Z"/><path d="M18.6 2.2c-.45-.34-1.07-.25-1.4.2 -.34.44-.25 1.06.2 1.4l2 1.5c.44.33 1.06.24 1.4-.2 .33-.45.24-1.07-.2-1.4l-2-1.5Z"/></g></g></svg>