<svg viewBox="0 0 24 24" xmlns="http://www.w3.org/2000/svg"><g><g fill="#12131A" fill-rule="evenodd"><path d="M3 9c-.56 0-1 .44-1 1 0 .55.44 1 1 1h.21l1.05 4.21c.2.8.59 1.52 1.11 2.11l-.36 1.43c-.14.53.19 1.07.72 1.21 .53.13 1.07-.2 1.21-.73l.16-.66c.61.26 1.28.41 1.98.41h5.75c.7 0 1.37-.15 1.98-.42l.16.65c.13.53.67.86 1.21.72 .53-.14.86-.68.72-1.22l-.36-1.44c.52-.59.91-1.31 1.11-2.12l1.05-4.22h.21c.55 0 1-.45 1-1 0-.56-.45-1-1-1h-1.65H4.54 2.89Zm13.96 7.15c.39-.38.68-.87.82-1.43l.93-3.73H5.27l.93 3.72c.13.55.43 1.04.82 1.42 .08.05.16.12.22.19 .51.4 1.16.64 1.85.64h5.75c.69 0 1.34-.24 1.85-.65 .06-.08.14-.15.22-.2Z"/><path d="M7 6c.55 0 1-.45 1-1 0-.56-.45-1-1-1 -.56 0-1 .44-1 1 0 .55.44 1 1 1Zm13 3h-9.95c.23-1.15 1.24-2 2.45-2 .69 0 1.32.28 1.77.74 .47-1.03 1.51-1.75 2.72-1.75 1.65 0 3 1.34 3 3Z"/></g></g></svg>