<svg viewBox="0 0 24 24" xmlns="http://www.w3.org/2000/svg"><g><g fill="#12131A" fill-rule="evenodd"><path d="M8.46 10.599c1.3-1.66 3.75-1.8 5.24-.31 1.48 1.48 1.34 3.94-.31 5.24l-6.21 4.89c-1.04.81-2.51.72-3.44-.21 -.93-.93-1.02-2.41-.21-3.44l4.89-6.21Zm3.83 1.1c-.65-.65-1.7-.58-2.27.13l-4.9 6.2c-.19.23-.17.57.04.78 .21.21.54.23.78.04l6.2-4.9c.71-.57.77-1.63.13-2.27Z"/><path d="M17.79 6.2c-1.33-1.33-3.1-1.33-4.33-1.09 -.22.04-.47.26-.47.7v3.34c0 .26.1.51.29.7l.82.82c.18.18.44.29.7.29h3.34c.43 0 .66-.25.7-.47 .23-1.24.24-3.01-1.09-4.33Zm-4.71-3.05c1.48-.29 4.09-.4 6.12 1.63 2.03 2.03 1.92 4.63 1.63 6.12 -.27 1.36-1.5 2.08-2.68 2.08H14.8c-.8 0-1.56-.32-2.13-.88l-.83-.83c-.57-.57-.88-1.33-.88-2.13V5.79c0-1.18.72-2.41 2.08-2.68Z"/></g></g></svg>