<svg viewBox="0 0 24 24" xmlns="http://www.w3.org/2000/svg"><g><g fill="#12131A"><path d="M21 19c0 1.1-.9 2-2 2 -1.11 0-2-.9-2-2 0-1.13 1.13-2.35 1.69-2.88 .17-.17.43-.17.61 0 .56.53 1.69 1.74 1.69 2.87Z"/><g fill="#12131A" fill-rule="evenodd"><path d="M10.5 9.08l4.41 4.41 -3.91 3.9c-.24.23-.49.45-.76.65l-3.23 2.41c-2.32 1.72-5.23-1.19-3.5-3.5l2.41-3.23c.2-.27.41-.53.65-.76l3.9-3.91Zm0 2.82l-2.49 2.48c-.17.16-.33.34-.47.54l-2.42 3.22c-.11.14-.13.26-.12.34 .01.09.06.21.15.3s.2.14.3.15c.08 0 .19-.01.34-.12l3.22-2.42c.19-.15.37-.3.54-.47l2.48-2.49 -1.59-1.59Z"/><path d="M20.08 3.91c-1.22-1.22-3.2-1.22-4.42-.01l-1.33 1.32c-1.1-.47-2.407-.26-3.3.63L9.85 7.02c-1.18 1.17-1.18 3.07 0 4.24l2.83 2.83c1.17 1.17 3.07 1.17 4.24 0l1.17-1.18c.89-.9 1.1-2.21.63-3.3l1.32-1.33c1.21-1.22 1.21-3.2 0-4.42Zm-3.38 6.2l-2.84-2.84c-.4-.4-1.03-.4-1.42 0l-1.18 1.17c-.4.39-.4 1.02 0 1.41l2.83 2.83c.39.39 1.02.39 1.41 0l1.17-1.18c.39-.4.39-1.03 0-1.42Zm.79-2.04l1.17-1.18c.43-.44.43-1.15 0-1.59 -.44-.44-1.15-.44-1.59-.01l-1.18 1.17 1.58 1.58Z"/></g></g></g></svg>