<svg viewBox="0 0 24 24" xmlns="http://www.w3.org/2000/svg"><g><path fill="#12131A" fill-rule="evenodd" d="M18.49 5.08l1.14 1.14c1.8 1.8 1.8 4.73 0 6.54l-6.87 6.86c-1.81 1.8-4.74 1.8-6.55 0l-1.15-1.15L18.47 5.05ZM7.92 18.47c1.02.76 2.49.68 3.42-.26l6.86-6.87c.93-.94 1.01-2.4.25-3.43L7.9 18.45Z"/><g fill="#12131A"><path d="M16.7 3.29c-.4-.4-1.03-.4-1.42 0 -.4.39-.4 1.02 0 1.41l1.79 1.79 1.41-1.42 -1.8-1.8Z"/><path d="M6.5 17.08l-1.42 1.41 -1.8-1.8c-.4-.4-.4-1.03 0-1.42 .39-.4 1.02-.4 1.41 0l1.79 1.79Z"/><path d="M9.5 14.08l-1.42 1.41 -1.3-1.3c-.4-.4-.4-1.03 0-1.42 .39-.4 1.02-.4 1.41 0l1.29 1.29Z"/><path d="M12.5 11.08l-1.42 1.41 -1.3-1.3c-.4-.4-.4-1.03 0-1.42 .39-.4 1.02-.4 1.41 0l1.29 1.29Z"/><path d="M15.5 8.08l-1.42 1.41 -1.3-1.3c-.4-.4-.4-1.03 0-1.42 .39-.4 1.02-.4 1.41 0l1.29 1.29Z"/></g></g></svg>