<svg viewBox="0 0 24 24" xmlns="http://www.w3.org/2000/svg"><g><g fill="#12131A" fill-rule="evenodd"><path d="M4.7 18.8c-2.12-4 .77-8.81 5.3-8.81h3.98c4.52 0 7.41 4.81 5.3 8.8l-.57 1.06c-.7 1.3-2.06 2.12-3.54 2.12H8.78c-1.49 0-2.85-.82-3.54-2.13l-.57-1.07Zm5.3-6.81c-3.02 0-4.95 3.2-3.54 5.87l.56 1.06c.34.65 1.02 1.06 1.76 1.06h6.38c.74 0 1.42-.41 1.76-1.07l.56-1.07c1.41-2.67-.52-5.88-3.54-5.88H9.95Z"/><path d="M8.78 4.62c.18-1.51 1.46-2.63 2.97-2.63h.46c1.513 0 2.78 1.12 2.97 2.62l.78 6.24c.07.59-.4 1.12-1 1.12h-6c-.61 0-1.07-.53-1-1.13l.78-6.25Zm2.97-.63c-.51 0-.93.37-1 .87l-.65 5.12h3.73l-.65-5.13c-.07-.51-.49-.88-1-.88h-.47Z"/></g></g></svg>