<svg viewBox="0 0 24 24" xmlns="http://www.w3.org/2000/svg"><g><g fill="#12131A" fill-rule="evenodd"><path d="M12 20c4.41 0 8-3.59 8-8 0-4.42-3.59-8-8-8 -4.42 0-8 3.58-8 8 0 4.41 3.58 8 8 8Zm0 2c5.52 0 10-4.48 10-10 0-5.53-4.48-10-10-10C6.47 2 2 6.47 2 12c0 5.52 4.47 10 10 10Z"/><path d="M8.29 8.29c.39-.4 1.02-.4 1.41 0l2.29 2.29 2.29-2.3c.39-.4 1.02-.4 1.41 0 .39.39.39 1.02 0 1.41l-2.3 2.29 2.29 2.29c.39.39.39 1.02 0 1.41 -.4.39-1.03.39-1.42 0l-2.3-2.3 -2.3 2.29c-.4.39-1.03.39-1.42 0 -.4-.4-.4-1.03 0-1.42l2.29-2.3 -2.3-2.3c-.4-.4-.4-1.03 0-1.42Z"/></g></g></svg>