<svg viewBox="0 0 24 24" xmlns="http://www.w3.org/2000/svg"><g><g fill="#12131A" fill-rule="evenodd"><path d="M2 7c0-2.68 3.22-4.02 5.12-2.13l5 4.99c1.17 1.17 1.17 3.07 0 4.24l-5.01 4.99c-1.9 1.88-5.13.54-5.13-2.13V6.97Zm3.7-.71c-.64-.63-1.71-.19-1.71.7v9.98c0 .89 1.07 1.33 1.7.7l5-5c.391-.4.391-1.03 0-1.42l-5.01-5Z"/><path d="M11 7c0-2.68 3.22-4.02 5.12-2.13l5 4.99c1.17 1.17 1.17 3.07 0 4.24l-5.01 4.99c-1.9 1.88-5.13.54-5.13-2.13V6.97Zm3.7-.71c-.64-.63-1.71-.19-1.71.7v9.98c0 .89 1.07 1.33 1.7.7l5-5c.39-.4.39-1.03 0-1.42l-5.01-5Z"/></g></g></svg>