<svg viewBox="0 0 24 24" xmlns="http://www.w3.org/2000/svg"><g><g fill="#12131A"><path d="M4 10c.55 0 1-.45 1-1v-.2c0-.86 0-1.44.03-1.89 .03-.44.1-.67.18-.82 .19-.38.49-.69.87-.88 .15-.08.38-.15.81-.19 .45-.04 1.03-.04 1.88-.04h.2c.55 0 1-.45 1-1 0-.56-.45-1-1-1h-.25c-.81-.01-1.47-.01-2.02.04 -.57.04-1.08.14-1.57.39 -.76.38-1.37.99-1.75 1.74 -.25.48-.35 1-.4 1.56 -.05.54-.05 1.2-.05 2.01v.24c0 .55.44 1 1 1Z"/><path d="M5 15c0-.56-.45-1-1-1 -.56 0-1 .44-1 1v.24c-.01.8-.01 1.46.04 2.01 .04.56.14 1.07.39 1.56 .38.75.99 1.36 1.74 1.74 .48.24 1 .34 1.56.39 .54.04 1.2.04 2.01.04h.24c.55 0 1-.45 1-1 0-.56-.45-1-1-1h-.2c-.86 0-1.44-.01-1.89-.04 -.44-.04-.67-.11-.82-.19 -.38-.2-.69-.5-.88-.88 -.08-.16-.15-.39-.19-.82 -.04-.46-.04-1.04-.04-1.89v-.2Z"/><path d="M19 15c0-.56.44-1 1-1 .55 0 1 .44 1 1v.24c0 .8 0 1.46-.05 2.01 -.05.56-.15 1.07-.4 1.56 -.39.75-1 1.36-1.75 1.74 -.49.24-1.01.34-1.57.39 -.55.04-1.21.04-2.02.04h-.25c-.56 0-1-.45-1-1 0-.56.44-1 1-1h.2c.85 0 1.43-.01 1.88-.04 .43-.04.66-.11.81-.19 .37-.2.68-.5.87-.88 .07-.16.14-.39.18-.82 .03-.46.03-1.04.03-1.89v-.2Z"/><path d="M19 9c0 .55.44 1 1 1 .55 0 1-.45 1-1v-.25c0-.81 0-1.47-.05-2.02 -.05-.57-.15-1.08-.4-1.57 -.39-.76-1-1.37-1.75-1.75 -.49-.25-1.01-.35-1.57-.4 -.55-.05-1.21-.05-2.02-.05h-.25c-.56 0-1 .44-1 1 0 .55.44 1 1 1h.2c.85 0 1.43 0 1.88.03 .43.03.66.1.81.18 .37.19.68.49.87.87 .07.15.14.38.18.81 .03.45.03 1.03.03 1.88v.2Z"/></g></g></svg>