<svg viewBox="0 0 24 24" xmlns="http://www.w3.org/2000/svg"><g><g fill="#12131A" fill-rule="evenodd"><path d="M14.82 2.11c-1.92-.55-3.83.89-3.83 2.88v12.49c0 .55.44 1 1 1 .55 0 1-.45 1-1V8.3l3.17.9c1.91.54 3.82-.9 3.82-2.89v-.49c0-1.34-.89-2.52-2.18-2.89l-3-.86Zm-1.83 2.88c0-.67.63-1.15 1.27-.97l3 .85c.42.12.72.51.72.96v.48c0 .66-.64 1.14-1.28.96L12.97 6.2V4.95Z"/><path d="M8.5 20c1.38 0 2.5-1.12 2.5-2.5 0-1.39-1.12-2.5-2.5-2.5C7.11 15 6 16.11 6 17.5 6 18.88 7.11 20 8.5 20Zm0 2c2.48 0 4.5-2.02 4.5-4.5 0-2.49-2.02-4.5-4.5-4.5C6.01 13 4 15.01 4 17.5 4 19.98 6.01 22 8.5 22Z"/></g></g></svg>