<svg viewBox="0 0 24 24" xmlns="http://www.w3.org/2000/svg"><g><g fill="#12131A" fill-rule="evenodd"><path d="M20 5c0-1.92-1.78-3.35-3.66-2.93l-5 1.11c-1.38.3-2.35 1.52-2.35 2.92v12.38c0 .55.44 1 1 1 .55 0 1-.45 1-1v-8.7l7-1.56v8.25c0 .55.44 1 1 1 .55 0 1-.45 1-1V4.97Zm-3.22-.98c.62-.14 1.21.33 1.21.97v1.19l-7 1.55V6.09c0-.47.32-.88.78-.98l5-1.12Z"/><path d="M20 16.5c0 1.93-1.57 3.5-3.5 3.5 -1.94 0-3.5-1.57-3.5-3.5 0-1.94 1.56-3.5 3.5-3.5 1.93 0 3.5 1.56 3.5 3.5Zm-2 0c0 .82-.68 1.5-1.5 1.5 -.83 0-1.5-.68-1.5-1.5 0-.83.67-1.5 1.5-1.5 .82 0 1.5.67 1.5 1.5Z"/><path d="M11 18.5c0 1.93-1.57 3.5-3.5 3.5C5.56 22 4 20.43 4 18.5 4 16.56 5.56 15 7.5 15c1.93 0 3.5 1.56 3.5 3.5Zm-2 0c0 .82-.68 1.5-1.5 1.5 -.83 0-1.5-.68-1.5-1.5 0-.83.67-1.5 1.5-1.5 .82 0 1.5.67 1.5 1.5Z"/></g></g></svg>