<svg viewBox="0 0 24 24" xmlns="http://www.w3.org/2000/svg"><g><g fill="#12131A"><path d="M16.31 4.05c-.53-.18-1.1.1-1.27.63 -.18.52.1 1.09.63 1.26 2.6.86 4.31 2.99 4.31 6.05 0 3.05-1.71 5.18-4.32 6.05 -.53.17-.81.74-.64 1.26 .17.52.74.8 1.26.63 3.39-1.14 5.68-4.01 5.68-7.95 0-3.95-2.3-6.82-5.69-7.95Z"/><path d="M16.7 9.29c-.4-.4-1.03-.4-1.42 0 -.4.39-.4 1.02 0 1.41 .48.48.7.73.7 1.29s-.22.8-.71 1.29c-.4.39-.4 1.02 0 1.41 .39.39 1.02.39 1.41 0l.02-.03c.51-.52 1.26-1.27 1.26-2.69s-.76-2.18-1.27-2.69l-.03-.03Z"/><path fill="#12131A" fill-rule="evenodd" d="M11 7c0-.97-1.23-1.37-1.8-.61L6.49 9.98h-1.5c-.56 0-1 .44-1 1v2c0 .55.44 1 1 1h1.49l2.7 3.59c.57.76 1.79.36 1.79-.61v-10ZM7.6 5.19c1.73-2.31 5.39-1.09 5.39 1.8v9.99c0 2.88-3.67 4.1-5.4 1.8l-2.11-2.8h-.51c-1.66 0-3-1.35-3-3v-2c0-1.66 1.34-3.01 3-3.01h.5l2.1-2.8Z"/></g></g></svg>