<svg id="Capa_1" enable-background="new 0 0 512 512" height="512" viewBox="0 0 512 512" width="512" xmlns="http://www.w3.org/2000/svg" xmlns:xlink="http://www.w3.org/1999/xlink"><linearGradient id="SVGID_1_" gradientUnits="userSpaceOnUse" x1="256" x2="256" y1="512" y2="0"><stop offset="0" stop-color="#5558ff"/><stop offset="1" stop-color="#00c0ff"/></linearGradient><g><g><path d="m450.253 154.899c1.181-6.914 1.747-13.435 1.747-19.899 0-74.466-61.426-135-136-135-47.536 0-91.507 25.503-115.712 66.05-11.195-4.02-22.677-6.05-34.288-6.05-55.042 0-100.42 41.775-105.523 94.996-35.664 12.459-60.477 46.875-60.477 86.004 0 49.626 40.374 90 90 90h121v30h-45c-5.671 0-10.857 3.198-13.403 8.265s-2.017 11.137 1.367 15.687l90 121c2.83 3.805 7.293 6.048 12.036 6.048s9.206-2.243 12.036-6.048l90-121c3.384-4.55 3.914-10.62 1.367-15.687-2.546-5.067-7.732-8.265-13.403-8.265h-45v-30h121c49.626 0 90-40.374 90-90 0-39.47-25.634-74.023-61.747-86.101zm-134.105 236.101-60.148 80.866-60.148-80.866h30.148c8.284 0 15-6.716 15-15v-135h30v135c0 8.284 6.716 15 15 15zm105.852-90h-121v-75c0-8.284-6.716-15-15-15h-60c-8.284 0-15 6.716-15 15v75h-121c-33.084 0-60-26.916-60-60 0-29.049 20.231-54.198 48.105-59.798 7.291-1.465 12.976-8.231 11.899-16.968.417-41.005 34.348-74.234 75.996-74.234 11.549 0 23.047 2.918 34.177 8.673 7.593 3.926 16.957.719 20.527-7.079 17.136-37.417 54.542-61.594 95.296-61.594 58.449 0 106 47.103 106 105 0 8.232-1.293 16.856-4.069 27.141-1.121 4.154-.404 8.589 1.967 12.178 2.372 3.589 6.171 5.988 10.432 6.585 29.457 4.13 51.67 29.966 51.67 60.096 0 33.084-26.916 60-60 60z" fill="url(#SVGID_1_)"/></g></g></svg>