<svg id="Capa_1" enable-background="new 0 0 512 512" height="512" viewBox="0 0 512 512" width="512" xmlns="http://www.w3.org/2000/svg" xmlns:xlink="http://www.w3.org/1999/xlink"><linearGradient id="lg1"><stop offset="0" stop-color="#5558ff"/><stop offset="1" stop-color="#00c0ff"/></linearGradient><linearGradient id="SVGID_1_" gradientUnits="userSpaceOnUse" x1="256" x2="256" xlink:href="#lg1" y1="512" y2="0"/><linearGradient id="SVGID_2_" gradientUnits="userSpaceOnUse" x1="256" x2="256" xlink:href="#lg1" y1="361" y2="151"/><g><path d="m499.429 211.198-56.194-9.223c-4.021-13.953-9.604-27.398-16.673-40.159l32.563-45.59c4.262-5.967 3.585-14.14-1.6-19.325l-42.425-42.426c-5.185-5.185-13.358-5.861-19.325-1.6l-45.59 32.563c-12.761-7.069-26.206-12.651-40.159-16.673l-9.224-56.194c-1.19-7.25-7.455-12.571-14.802-12.571h-60c-7.347 0-13.612 5.321-14.802 12.571l-9.224 56.195c-13.953 4.022-27.398 9.604-40.159 16.673l-45.59-32.563c-5.966-4.261-14.14-3.586-19.325 1.6l-42.425 42.424c-5.185 5.185-5.861 13.358-1.6 19.325l32.563 45.59c-7.069 12.761-12.651 26.206-16.673 40.159l-56.194 9.223c-7.25 1.191-12.571 7.456-12.571 14.803v60c0 7.347 5.321 13.612 12.571 14.802l56.194 9.223c4.022 13.953 9.604 27.398 16.673 40.159l-32.563 45.59c-4.262 5.967-3.585 14.14 1.6 19.325l42.425 42.426c5.185 5.185 13.358 5.861 19.325 1.6l45.59-32.563c12.761 7.069 26.206 12.651 40.159 16.673l9.224 56.195c1.19 7.249 7.455 12.57 14.802 12.57h60c7.347 0 13.612-5.321 14.802-12.571l9.224-56.195c13.953-4.022 27.397-9.604 40.159-16.673l45.59 32.563c5.967 4.261 14.139 3.585 19.325-1.6l42.425-42.425c5.185-5.185 5.861-13.358 1.6-19.325l-32.563-45.59c7.069-12.762 12.651-26.207 16.673-40.159l56.194-9.223c7.25-1.19 12.571-7.455 12.571-14.802v-60c0-7.347-5.321-13.612-12.571-14.802zm-17.429 62.063-53.25 8.74c-5.998.984-10.809 5.49-12.183 11.411-4.069 17.535-11 34.235-20.599 49.633-3.208 5.146-3.001 11.719.523 16.653l30.836 43.173-24.456 24.455-43.173-30.836c-4.935-3.525-11.507-3.732-16.653-.523-15.398 9.599-32.097 16.529-49.633 20.599-5.92 1.374-10.426 6.185-11.411 12.182l-8.74 53.252h-34.522l-8.74-53.251c-.984-5.998-5.49-10.808-11.411-12.182-17.536-4.07-34.235-11-49.633-20.599-5.146-3.208-11.718-3.001-16.653.523l-43.173 30.836-24.456-24.455 30.836-43.173c3.525-4.935 3.731-11.507.523-16.653-9.599-15.398-16.529-32.097-20.599-49.634-1.375-5.92-6.185-10.426-12.183-11.411l-53.25-8.74v-34.522l53.25-8.74c5.998-.984 10.808-5.49 12.183-11.411 4.07-17.537 11-34.236 20.599-49.634 3.208-5.146 3.001-11.718-.523-16.653l-30.836-43.173 24.456-24.456 43.173 30.836c4.934 3.525 11.506 3.732 16.653.523 15.398-9.599 32.097-16.529 49.633-20.599 5.92-1.374 10.426-6.185 11.411-12.182l8.74-53.25h34.522l8.74 53.251c.984 5.997 5.49 10.808 11.411 12.182 17.536 4.07 34.235 11.001 49.633 20.599 5.146 3.208 11.718 3.002 16.653-.523l43.173-30.836 24.456 24.456-30.836 43.173c-3.525 4.935-3.731 11.507-.523 16.653 9.599 15.399 16.53 32.098 20.599 49.633 1.374 5.92 6.185 10.427 12.183 11.411l53.25 8.74z" fill="url(#SVGID_1_)"/><path d="m256 151c-57.897 0-105 47.103-105 105s47.103 105 105 105 105-47.103 105-105-47.103-105-105-105zm0 180c-41.355 0-75-33.645-75-75s33.645-75 75-75 75 33.645 75 75-33.645 75-75 75z" fill="url(#SVGID_2_)"/></g></svg>