<svg id="Capa_1" enable-background="new 0 0 512 512" height="512" viewBox="0 0 512 512" width="512" xmlns="http://www.w3.org/2000/svg" xmlns:xlink="http://www.w3.org/1999/xlink"><linearGradient id="lg1"><stop offset="0" stop-color="#fd5900"/><stop offset="1" stop-color="#ffde00"/></linearGradient><linearGradient id="SVGID_1_" gradientUnits="userSpaceOnUse" x1="256" x2="256" xlink:href="#lg1" y1="512.869" y2="-.42"/><linearGradient id="SVGID_2_" gradientUnits="userSpaceOnUse" x1="256" x2="256" xlink:href="#lg1" y1="481.869" y2="-31.421"/><g><path d="m507.585 244.371c-4.995-4.974-231.097-230.137-241-240-5.853-5.829-15.316-5.829-21.169 0-5.015 4.994-230.218 229.262-241 240-5.87 5.846-5.89 15.343-.044 21.213 5.844 5.87 15.342 5.889 21.213.044l4.415-4.396v235.768c0 8.284 6.716 15 15 15h422c8.284 0 15-6.716 15-15v-235.768l4.415 4.397c5.871 5.846 15.368 5.826 21.214-.044s5.826-15.368-.044-21.214zm-206.585 237.629h-90v-122h90zm151 0h-121v-137c0-8.284-6.716-15-15-15h-120c-8.284 0-15 6.716-15 15v137h-121v-250.644l196-195.187 196 195.187z" fill="url(#SVGID_1_)"/><path d="m181 225c0 41.355 33.645 75 75 75s75-33.645 75-75-33.645-75-75-75-75 33.645-75 75zm120 0c0 24.813-20.187 45-45 45s-45-20.187-45-45 20.187-45 45-45 45 20.187 45 45z" fill="url(#SVGID_2_)"/></g></svg>