<svg id="Capa_1" enable-background="new 0 0 511.989 511.989" height="512" viewBox="0 0 511.989 511.989" width="512" xmlns="http://www.w3.org/2000/svg" xmlns:xlink="http://www.w3.org/1999/xlink"><linearGradient id="SVGID_1_" gradientUnits="userSpaceOnUse" x1="255.995" x2="255.995" y1="435.997" y2="75.992"><stop offset="0" stop-color="#5558ff"/><stop offset="1" stop-color="#00c0ff"/></linearGradient><g><path d="m507.602 170.386-90-90c-2.813-2.813-6.628-4.393-10.606-4.393-56.005 0-241.486 0-302 0-3.978 0-7.793 1.58-10.606 4.393l-90 90c-5.907 5.907-5.8 15.424.011 21.224.004.004.007.008.011.012l241 240c2.702 2.697 6.563 4.365 10.553 4.374.01 0 .02.001.029.001h.002s.002 0 .002 0c.01 0 .02-.001.03-.001 3.984-.01 7.829-1.662 10.552-4.374l241-240c.004-.004.007-.008.011-.012 5.836-5.826 5.889-15.346.011-21.224zm-352.002 25.606 62.157 165.751-166.442-165.751zm149.584-90 20 60h-138.377l20-60zm19.166 90-68.355 182.28-68.355-182.28zm32.04 0h104.285l-166.442 165.752zm104.392-30h-103.975l-20-60h63.975zm-349.573-60h63.975l-20 60h-103.975z" fill="url(#SVGID_1_)"/></g></svg>