<svg id="Capa_1" enable-background="new 0 0 512 512" height="512" viewBox="0 0 512 512" width="512" xmlns="http://www.w3.org/2000/svg" xmlns:xlink="http://www.w3.org/1999/xlink"><linearGradient id="SVGID_1_" gradientUnits="userSpaceOnUse" x1="256" x2="256" y1="451" y2="61"><stop offset="0" stop-color="#fd5900"/><stop offset="1" stop-color="#ffde00"/></linearGradient><g><path d="m497 121h-264.787l-55.607-55.607c-2.813-2.813-6.628-4.393-10.606-4.393h-151c-8.284 0-15 6.716-15 15v360c0 8.284 6.716 15 15 15h482c8.284 0 15-6.716 15-15v-300c0-8.284-6.716-15-15-15zm-337.213-30 55.607 55.607c2.813 2.813 6.628 4.393 10.606 4.393h256v30h-452v-90zm-129.787 330v-210h452v210z" fill="url(#SVGID_1_)"/></g></svg>