<svg id="Capa_1" enable-background="new 0 0 512 512" height="512" viewBox="0 0 512 512" width="512" xmlns="http://www.w3.org/2000/svg" xmlns:xlink="http://www.w3.org/1999/xlink"><linearGradient id="lg1"><stop offset="0" stop-color="#5558ff"/><stop offset="1" stop-color="#00c0ff"/></linearGradient><linearGradient id="SVGID_1_" gradientUnits="userSpaceOnUse" x1="256" x2="256" xlink:href="#lg1" y1="504.79" y2="-7.21"/><linearGradient id="SVGID_2_" gradientUnits="userSpaceOnUse" x1="437" x2="437" xlink:href="#lg1" y1="625.79" y2="113.628"/><linearGradient id="SVGID_3_" gradientUnits="userSpaceOnUse" x1="256" x2="256" xlink:href="#lg1" y1="395.103" y2="294.019"/><linearGradient id="SVGID_4_" gradientUnits="userSpaceOnUse" x1="256" x2="256" xlink:href="#lg1" y1="455.103" y2="354.019"/><g><path d="m15 331h75v166c0 8.284 6.716 15 15 15h302c8.284 0 15-6.716 15-15v-166h75c8.284 0 15-6.716 15-15v-180c0-8.284-6.716-15-15-15h-75v-106c0-8.284-6.716-15-15-15h-302c-8.284 0-15 6.716-15 15v106h-75c-8.284 0-15 6.716-15 15v180c0 8.284 6.716 15 15 15zm377 151h-272v-211h272zm-272-452h272v91h-272zm-90 121h452v150h-60v-45c0-8.284-6.716-15-15-15h-302c-8.284 0-15 6.716-15 15v45h-60z" fill="url(#SVGID_1_)"/><circle cx="437" cy="196" fill="url(#SVGID_2_)" r="15"/><path d="m317 331h-122c-8.284 0-15 6.716-15 15s6.716 15 15 15h122c8.284 0 15-6.716 15-15s-6.716-15-15-15z" fill="url(#SVGID_3_)"/><path d="m317 391h-122c-8.284 0-15 6.716-15 15s6.716 15 15 15h122c8.284 0 15-6.716 15-15s-6.716-15-15-15z" fill="url(#SVGID_4_)"/></g></svg>