<svg id="Capa_1" enable-background="new 0 0 512 512" height="512" viewBox="0 0 512 512" width="512" xmlns="http://www.w3.org/2000/svg" xmlns:xlink="http://www.w3.org/1999/xlink"><linearGradient id="lg1"><stop offset="0" stop-color="#5558ff"/><stop offset="1" stop-color="#00c0ff"/></linearGradient><linearGradient id="SVGID_1_" gradientUnits="userSpaceOnUse" x1="256" x2="256" xlink:href="#lg1" y1="361" y2="151"/><linearGradient id="SVGID_2_" gradientUnits="userSpaceOnUse" x1="256" x2="256" xlink:href="#lg1" y1="301" y2="211"/><linearGradient id="SVGID_3_" gradientUnits="userSpaceOnUse" x1="256" x2="256" xlink:href="#lg1" y1="421" y2="91"/><g><path d="m256 361c57.897 0 105-47.103 105-105s-47.103-105-105-105-105 47.103-105 105 47.103 105 105 105zm0-180c41.355 0 75 33.645 75 75s-33.645 75-75 75-75-33.645-75-75 33.645-75 75-75z" fill="url(#SVGID_1_)"/><path d="m256 301c24.813 0 45-20.187 45-45s-20.187-45-45-45-45 20.187-45 45 20.187 45 45 45zm0-60c8.271 0 15 6.729 15 15s-6.729 15-15 15-15-6.729-15-15 6.729-15 15-15z" fill="url(#SVGID_2_)"/><path d="m256 421c100.044 0 200.985-84.05 253.155-156.211 3.793-5.245 3.793-12.332 0-17.577-53.937-74.605-155.3-156.212-253.155-156.212-100.044 0-200.985 84.05-253.155 156.211-3.793 5.245-3.793 12.332 0 17.577 53.937 74.605 155.3 156.212 253.155 156.212zm0-300c84.617 0 169.011 69.036 222.025 134.995-25.147 31.243-116.624 135.005-222.025 135.005-84.617 0-169.012-69.035-222.025-134.995 25.147-31.243 116.624-135.005 222.025-135.005z" fill="url(#SVGID_3_)"/></g></svg>