<svg id="Capa_1" enable-background="new 0 0 512 512" height="512" viewBox="0 0 512 512" width="512" xmlns="http://www.w3.org/2000/svg" xmlns:xlink="http://www.w3.org/1999/xlink"><linearGradient id="SVGID_1_" gradientUnits="userSpaceOnUse" x1="256" x2="256" y1="512" y2="0"><stop offset="0" stop-color="#fd5900"/><stop offset="1" stop-color="#ffde00"/></linearGradient><g><path d="m61 497c0 8.284 6.716 15 15 15h360c8.284 0 15-6.716 15-15s-6.716-15-15-15h-28.544c8.713-14.771 12.709-29.944 11.904-45.354-2.572-49.222-53.026-88.971-92.227-120.733-15.903-12.886-30.925-25.057-41.623-36.266-11.993-12.564-14.51-19.794-14.51-23.647s2.517-11.083 14.51-23.648c10.698-11.208 25.72-23.38 41.623-36.266 42.053-34.073 89.716-72.692 92.227-120.733.806-15.41-3.19-30.583-11.904-45.354h28.544c8.284 0 15-6.716 15-15s-6.716-15-15-15c-11.9.001-349.988.001-360 .001-8.284 0-15 6.716-15 15s6.716 15 15 14.99h29.135c-8.736 14.803-12.749 29.998-11.954 45.43 2.474 48.017 49.977 86.624 91.888 120.687 15.846 12.878 30.813 25.042 41.471 36.244 11.951 12.56 14.46 19.793 14.46 23.649s-2.509 11.089-14.459 23.649c-10.659 11.202-25.625 23.366-41.471 36.244-38.787 31.524-89.348 71.378-91.888 120.687-.795 15.432 3.218 30.628 11.954 45.42h-29.136c-8.284 0-15 6.716-15 15zm142.991-324.174c-37.059-30.119-79.062-64.256-80.849-98.95-.746-14.466 5.589-28.866 19.286-43.876h227.744c13.667 14.981 19.984 29.352 19.229 43.788-1.814 34.704-43.965 68.857-81.154 98.99-20.675 16.752-39.722 32.196-52.23 47.736-12.464-15.523-31.435-30.952-52.026-47.688zm0 166.348c20.591-16.736 39.562-32.164 52.026-47.687 12.508 15.54 31.555 30.984 52.23 47.736 20.079 16.269 41.601 33.711 57.444 51.778h-219.002c15.79-18.086 37.266-35.544 57.302-51.827zm-80.849 98.949c.295-5.728 1.692-11.441 3.977-17.123h258.25c2.315 5.712 3.732 11.454 4.033 17.212.755 14.436-5.562 28.807-19.229 43.788h-227.745c-13.697-15.01-20.032-29.41-19.286-43.877z" fill="url(#SVGID_1_)"/></g></svg>