<svg id="Capa_1" enable-background="new 0 0 512 512" height="512" viewBox="0 0 512 512" width="512" xmlns="http://www.w3.org/2000/svg" xmlns:xlink="http://www.w3.org/1999/xlink"><linearGradient id="lg1"><stop offset="0" stop-color="#00b59c"/><stop offset="1" stop-color="#9cffac"/></linearGradient><linearGradient id="SVGID_1_" gradientUnits="userSpaceOnUse" x1="256" x2="256" xlink:href="#lg1" y1="511.999" y2=".001"/><linearGradient id="SVGID_2_" gradientUnits="userSpaceOnUse" x1="195" x2="195" xlink:href="#lg1" y1="270.001" y2="120.001"/><g><path d="m195 .001c-107.523 0-195 87.477-195 195s87.477 195 195 195c37.494 0 72.544-10.647 102.304-29.062l146.668 146.668c5.854 5.854 15.356 5.857 21.213 0l42.422-42.422c5.858-5.858 5.858-15.355 0-21.213l-146.668-146.668c18.414-29.76 29.061-64.809 29.061-102.303 0-107.524-87.477-195-195-195zm-165 195c0-90.981 74.019-165 165-165s165 74.019 165 165-74.019 165-165 165-165-74.019-165-165zm445.787 259.578-21.208 21.209-132.773-132.773c7.598-6.519 14.69-13.611 21.209-21.209z" fill="url(#SVGID_1_)"/><path d="m255 180.001h-45v-45c0-8.284-6.716-15-15-15s-15 6.716-15 15v45h-45c-8.284 0-15 6.716-15 15s6.716 15 15 15h45v45c0 8.284 6.716 15 15 15s15-6.716 15-15v-45h45c8.284 0 15-6.716 15-15s-6.716-15-15-15z" fill="url(#SVGID_2_)"/></g></svg>