<svg id="Capa_1" enable-background="new 0 0 512 512" height="512" viewBox="0 0 512 512" width="512" xmlns="http://www.w3.org/2000/svg" xmlns:xlink="http://www.w3.org/1999/xlink"><linearGradient id="lg1"><stop offset="0" stop-color="#fd3a84"/><stop offset="1" stop-color="#ffa68d"/></linearGradient><linearGradient id="SVGID_1_" gradientUnits="userSpaceOnUse" x1="256" x2="256" xlink:href="#lg1" y1="300" y2="90"/><linearGradient id="SVGID_2_" gradientUnits="userSpaceOnUse" x1="256" x2="256" xlink:href="#lg1" y1="512" y2="0"/><g><path d="m256 300c57.897 0 105-47.103 105-105s-47.103-105-105-105-105 47.103-105 105 47.103 105 105 105zm0-180c41.355 0 75 33.645 75 75s-33.645 75-75 75-75-33.645-75-75 33.645-75 75-75z" fill="url(#SVGID_1_)"/><path d="m243.675 505.549c2.803 4.041 7.407 6.451 12.325 6.451s9.522-2.41 12.325-6.451c35.859-51.701 67.062-91.604 92.134-123.667 58.382-74.661 90.541-115.787 90.541-186.882 0-107.523-87.477-195-195-195s-195 87.477-195 195c0 71.168 31.939 111.984 89.922 186.081 25.181 32.179 56.519 72.228 92.753 124.468zm12.325-475.549c90.981 0 165 74.019 165 165 0 60.758-28.13 96.732-84.174 168.402-22.401 28.649-49.652 63.497-80.825 107.471-31.514-44.462-58.924-79.49-81.453-108.281-55.627-71.085-83.548-106.767-83.548-167.592 0-90.981 74.019-165 165-165z" fill="url(#SVGID_2_)"/></g></svg>