<svg id="Capa_1" enable-background="new 0 0 512 512" height="512" viewBox="0 0 512 512" width="512" xmlns="http://www.w3.org/2000/svg" xmlns:xlink="http://www.w3.org/1999/xlink"><linearGradient id="lg1"><stop offset="0" stop-color="#fd5900"/><stop offset="1" stop-color="#ffde00"/></linearGradient><linearGradient id="SVGID_1_" gradientUnits="userSpaceOnUse" x1="256" x2="256" xlink:href="#lg1" y1="607.349" y2="-101.188"/><linearGradient id="SVGID_2_" gradientUnits="userSpaceOnUse" x1="256" x2="256" xlink:href="#lg1" y1="1168.17" y2="-824.591"/><linearGradient id="SVGID_3_" gradientUnits="userSpaceOnUse" x1="256" x2="256" xlink:href="#lg1" y1="532.043" y2="33.852"/><g><path d="m196 512h120c8.284 0 15-6.716 15-15v-76c0-54.399 23.719-81.732 48.829-110.669 26.329-30.341 56.171-64.73 56.171-130.331 0-99.252-80.748-180-180-180s-180 80.748-180 180c0 65.601 29.842 99.99 56.171 130.331 25.11 28.937 48.829 56.27 48.829 110.669v76c0 8.284 6.716 15 15 15zm105-30h-90v-46h90zm-146.171-191.331c-25.11-28.937-48.829-56.27-48.829-110.669 0-82.71 67.29-150 150-150s150 67.29 150 150c0 54.399-23.719 81.732-48.829 110.669-24.243 27.937-51.443 59.326-55.605 115.331h-91.131c-4.163-56.005-31.363-87.394-55.606-115.331z" fill="url(#SVGID_1_)"/><path d="m256 240c8.284 0 15-6.716 15-15v-90c0-8.284-6.716-15-15-15s-15 6.716-15 15v90c0 8.284 6.716 15 15 15z" fill="url(#SVGID_2_)"/><circle cx="256" cy="285" fill="url(#SVGID_3_)" r="15"/></g></svg>