<svg id="Capa_1" enable-background="new 0 0 512 512" height="512" viewBox="0 0 512 512" width="512" xmlns="http://www.w3.org/2000/svg" xmlns:xlink="http://www.w3.org/1999/xlink"><linearGradient id="lg1"><stop offset="0" stop-color="#00b59c"/><stop offset="1" stop-color="#9cffac"/></linearGradient><linearGradient id="SVGID_1_" gradientUnits="userSpaceOnUse" x1="256" x2="256" xlink:href="#lg1" y1="518.708" y2="-6.22"/><linearGradient id="SVGID_2_" gradientUnits="userSpaceOnUse" x1="346" x2="346" xlink:href="#lg1" y1="518.708" y2="-6.22"/><linearGradient id="SVGID_3_" gradientUnits="userSpaceOnUse" x1="166" x2="166" xlink:href="#lg1" y1="518.708" y2="-6.22"/><g><path d="m31 75v60c0 8.284 6.716 15 15 15h15v347c0 8.284 6.716 15 15 15h360c8.284 0 15-6.716 15-15v-347h15c8.284 0 15-6.716 15-15v-60c0-8.284-6.716-15-15-15h-105v-15c0-24.813-20.187-45-45-45h-120c-24.813 0-45 20.187-45 45v15h-105c-8.284 0-15 6.716-15 15zm390 407h-330v-332h330zm-240-437c0-8.271 6.729-15 15-15h120c8.271 0 15 6.729 15 15v15h-150zm-120 45h390v30h-390z" fill="url(#SVGID_1_)"/><path d="m346 422c8.284 0 15-6.716 15-15v-182c0-8.284-6.716-15-15-15s-15 6.716-15 15v182c0 8.284 6.716 15 15 15z" fill="url(#SVGID_2_)"/><path d="m166 422c8.284 0 15-6.716 15-15v-182c0-8.284-6.716-15-15-15s-15 6.716-15 15v182c0 8.284 6.716 15 15 15z" fill="url(#SVGID_3_)"/><path d="m256 422c8.284 0 15-6.716 15-15v-182c0-8.284-6.716-15-15-15s-15 6.716-15 15v182c0 8.284 6.716 15 15 15z" fill="url(#SVGID_1_)"/></g></svg>