<svg id="Capa_1" enable-background="new 0 0 512 512" height="512" viewBox="0 0 512 512" width="512" xmlns="http://www.w3.org/2000/svg" xmlns:xlink="http://www.w3.org/1999/xlink"><linearGradient id="lg1"><stop offset="0" stop-color="#fd5900"/><stop offset="1" stop-color="#ffde00"/></linearGradient><linearGradient id="SVGID_1_" gradientUnits="userSpaceOnUse" x1="256" x2="256" xlink:href="#lg1" y1="513.914" y2="10.305"/><linearGradient id="SVGID_2_" gradientUnits="userSpaceOnUse" x1="346" x2="346" xlink:href="#lg1" y1="513.914" y2="10.305"/><linearGradient id="SVGID_3_" gradientUnits="userSpaceOnUse" x1="166" x2="166" xlink:href="#lg1" y1="513.914" y2="10.305"/><g><path d="m256 0c-140.959 0-256 115.049-256 256 0 140.958 115.049 256 256 256 140.958 0 256-115.049 256-256 0-140.959-115.049-256-256-256zm0 482c-124.617 0-226-101.383-226-226s101.383-226 226-226 226 101.383 226 226-101.383 226-226 226z" fill="url(#SVGID_1_)"/><path d="m316 181c8.284 0 15-6.716 15-15 0-8.271 6.729-15 15-15s15 6.729 15 15c0 8.284 6.716 15 15 15s15-6.716 15-15c0-24.813-20.187-45-45-45s-45 20.187-45 45c0 8.284 6.716 15 15 15z" fill="url(#SVGID_2_)"/><path d="m136 181c8.284 0 15-6.716 15-15 0-8.271 6.729-15 15-15s15 6.729 15 15c0 8.284 6.716 15 15 15s15-6.716 15-15c0-24.813-20.187-45-45-45s-45 20.187-45 45c0 8.284 6.716 15 15 15z" fill="url(#SVGID_3_)"/><path d="m106 241c-8.284 0-15 6.716-15 15 0 90.993 73.861 166 165 166 91.005 0 165-74.861 165-166 0-8.284-6.716-15-15-15zm150 151c-69.41 0-126.752-53.038-134.185-121.01h268.369c-7.432 67.972-64.774 121.01-134.184 121.01z" fill="url(#SVGID_1_)"/></g></svg>