<svg id="Capa_1" enable-background="new 0 0 512 512" height="512" viewBox="0 0 512 512" width="512" xmlns="http://www.w3.org/2000/svg" xmlns:xlink="http://www.w3.org/1999/xlink"><linearGradient id="SVGID_1_" gradientUnits="userSpaceOnUse" x1="256" x2="256" y1="504.326" y2="-7.388"><stop offset="0" stop-color="#5558ff"/><stop offset="1" stop-color="#00c0ff"/></linearGradient><g fill="url(#SVGID_1_)"><path d="m106 272c-8.284 0-15 6.716-15 15 0 85.925 66.023 156.707 150 164.311v30.689h-75c-8.284 0-15 6.716-15 15s6.716 15 15 15h180c8.284 0 15-6.716 15-15s-6.716-15-15-15h-75v-30.689c83.977-7.604 150-78.386 150-164.311 0-8.284-6.716-15-15-15s-15 6.716-15 15c0 74.439-60.561 135-135 135s-135-60.561-135-135c0-8.284-6.716-15-15-15z"/><path d="m256 392c57.897 0 105-47.103 105-105v-182c0-57.897-47.103-105-105-105s-105 47.103-105 105v182c0 57.897 47.103 105 105 105zm-75-287c0-41.355 33.645-75 75-75s75 33.645 75 75v182c0 41.355-33.645 75-75 75s-75-33.645-75-75z"/></g></svg>