<svg id="Capa_1" enable-background="new 0 0 512 512" height="512" viewBox="0 0 512 512" width="512" xmlns="http://www.w3.org/2000/svg" xmlns:xlink="http://www.w3.org/1999/xlink"><linearGradient id="SVGID_1_" gradientUnits="userSpaceOnUse" x1="256" x2="256" y1="512" y2="0"><stop offset="0" stop-color="#fd5900"/><stop offset="1" stop-color="#ffde00"/></linearGradient><g><path d="m31 437c0 8.284 6.716 15 15 15h136.509c6.968 34.192 37.271 60 73.491 60s66.522-25.808 73.491-60h136.509c8.284 0 15-6.716 15-15s-6.716-15-15-15c-24.813 0-45-20.187-45-45v-145.553c0-75.053-48.348-144.305-120-165.146v-21.301c0-24.813-20.187-45-45-45s-45 20.187-45 45v21.129c-70.109 19.739-120 84.654-120 158.871v152c0 24.813-20.187 45-45 45-8.284 0-15 6.716-15 15zm225 45c-19.555 0-36.228-12.542-42.42-30.01h84.84c-6.192 17.468-22.865 30.01-42.42 30.01zm-15-437c0-8.271 6.729-15 15-15s15 6.729 15 15v15.677c-5.027-.446-10.031-.672-15-.68-5.038-.008-10.042.207-15 .644zm-120 332v-152c0-73.516 59.491-135.067 135-135.005 77.421.064 135 66.654 135 141.452v145.553c0 16.871 5.603 32.456 15.041 45h-300.082c9.438-12.544 15.041-28.129 15.041-45z" fill="url(#SVGID_1_)"/></g></svg>