<svg id="Capa_1" enable-background="new 0 0 512 512" height="512" viewBox="0 0 512 512" width="512" xmlns="http://www.w3.org/2000/svg" xmlns:xlink="http://www.w3.org/1999/xlink"><linearGradient id="SVGID_1_" gradientUnits="userSpaceOnUse" x1="256" x2="256" y1="512" y2="0"><stop offset="0" stop-color="#fd5900"/><stop offset="1" stop-color="#ffde00"/></linearGradient><g><path d="m446.618 124.406c-.005-.005-.009-.01-.014-.015l-119.995-119.995c-3.014-2.848-6.393-4.396-10.609-4.396h-240c-8.284 0-15 6.716-15 15v482c0 8.284 6.716 15 15 15h360c8.284 0 15-6.716 15-15v-362c0-3.965-1.615-7.82-4.382-10.594zm-115.618-73.193 68.787 68.787h-68.787zm-240 430.787v-452h210v105c0 8.284 6.716 15 15 15h105v332z" fill="url(#SVGID_1_)"/></g></svg>