<svg id="Capa_1" enable-background="new 0 0 512 512" height="512" viewBox="0 0 512 512" width="512" xmlns="http://www.w3.org/2000/svg" xmlns:xlink="http://www.w3.org/1999/xlink"><linearGradient id="lg1"><stop offset="0" stop-color="#fd3a84"/><stop offset="1" stop-color="#ffa68d"/></linearGradient><linearGradient id="SVGID_1_" gradientUnits="userSpaceOnUse" x1="256" x2="256" xlink:href="#lg1" y1="513.62" y2="-2.147"/><linearGradient id="SVGID_2_" gradientUnits="userSpaceOnUse" x1="316" x2="316" xlink:href="#lg1" y1="512.617" y2="-2.143"/><g><path d="m406.5 0c-32.874 0-63.068 14.956-82.877 40.516-21.777-6.914-44.687-10.516-68.123-10.516-23.425 0-46.023 3.619-67.274 10.321-19.812-25.441-49.936-40.321-82.726-40.321-57.897 0-105 47.103-105 105 0 32.853 14.936 63.028 40.466 82.838-6.791 21.518-10.466 44.416-10.466 68.162 0 71.415 32.987 135.431 86.566 177.411l-52.254 53.064c-5.812 5.903-5.74 15.4.163 21.213 5.899 5.808 15.396 5.744 21.213-.163l56.114-56.983c33.998 19.858 72.781 30.458 113.198 30.458 41.517 0 80.447-11.215 113.917-30.744l56.395 57.269c5.81 5.899 15.307 5.979 21.213.163 5.903-5.813 5.976-15.31.163-21.213l-52.509-53.323c52.82-41.222 86.821-105.307 86.821-177.152 0-23.436-3.602-46.346-10.516-68.123 25.56-19.809 40.516-50.003 40.516-82.877 0-57.897-47.103-105-105-105zm-376 105c0-41.355 33.645-75 75-75 20.341 0 39.248 8.02 53.145 22.036-46.22 22.233-83.76 59.855-105.995 106.224-14.087-13.908-22.15-32.863-22.15-53.26zm225 346c-107.523 0-195-87.477-195-195 0-108.075 87.477-196 195-196 108.075 0 196 87.925 196 196 0 107.523-87.925 195-196 195zm203.743-292.633c-21.912-45.351-59.476-83.578-106.11-106.11 13.917-14.154 32.918-22.257 53.367-22.257 41.355 0 75 33.645 75 75 0 20.449-8.103 39.45-22.257 53.367z" fill="url(#SVGID_1_)"/><path d="m376.5 241h-106v-106c0-8.284-6.716-15-15-15s-15 6.716-15 15v121c0 8.284 6.716 15 15 15h121c8.284 0 15-6.716 15-15s-6.716-15-15-15z" fill="url(#SVGID_2_)"/></g></svg>