<svg id="Capa_1" enable-background="new 0 0 512 512" height="512" viewBox="0 0 512 512" width="512" xmlns="http://www.w3.org/2000/svg" xmlns:xlink="http://www.w3.org/1999/xlink"><linearGradient id="lg1"><stop offset="0" stop-color="#fd5900"/><stop offset="1" stop-color="#ffde00"/></linearGradient><linearGradient id="SVGID_1_" gradientUnits="userSpaceOnUse" x1="256" x2="256" xlink:href="#lg1" y1="693.454" y2="31.465"/><linearGradient id="SVGID_2_" gradientUnits="userSpaceOnUse" x1="256" x2="256" xlink:href="#lg1" y1="583.339" y2="-68.465"/><g><path d="m286 301h-60c-8.284 0-15 6.716-15 15v90c0 8.284 6.716 15 15 15h60c8.284 0 15-6.716 15-15v-90c0-8.284-6.716-15-15-15zm-15 90h-30v-60h30z" fill="url(#SVGID_1_)"/><path d="m91 211h-15c-8.284 0-15 6.716-15 15v271c0 8.284 6.716 15 15 15h360c8.284 0 15-6.716 15-15v-271c0-8.284-6.716-15-15-15h-15v-46c0-90.981-74.019-165-165-165s-165 74.019-165 165zm330 271h-330v-241h330zm-90-271h-150v-46c0-41.355 33.645-75 75-75s75 33.645 75 75zm-75-181c74.439 0 135 60.561 135 135v46h-30v-46c0-57.897-47.103-105-105-105s-105 47.103-105 105v46h-30v-46c0-74.439 60.561-135 135-135z" fill="url(#SVGID_2_)"/></g></svg>