<svg id="Capa_1" enable-background="new 0 0 512 512" height="512" viewBox="0 0 512 512" width="512" xmlns="http://www.w3.org/2000/svg" xmlns:xlink="http://www.w3.org/1999/xlink"><linearGradient id="SVGID_1_" gradientUnits="userSpaceOnUse" x1="256" x2="256" y1="512" y2="0"><stop offset="0" stop-color="#a93aff"/><stop offset="1" stop-color="#ff81ff"/></linearGradient><g><path d="m0 375.988c-.005 5.677 3.196 10.87 8.27 13.417l241 121c2.117 1.063 4.424 1.595 6.73 1.595 2.307 0 4.613-.532 6.73-1.595l241-121c5.073-2.547 8.274-7.741 8.27-13.417-.005-5.677-3.214-10.865-8.292-13.404l-93.361-46.68 93.338-46.476c5.091-2.535 8.31-7.729 8.314-13.415.005-5.687-3.206-10.886-8.292-13.429l-93.361-46.68 93.338-46.476c5.086-2.533 8.305-7.721 8.314-13.403.01-5.682-3.192-10.881-8.27-13.43l-241-121c-4.234-2.126-9.227-2.126-13.461 0l-241 121c-5.077 2.549-8.279 7.749-8.27 13.43s3.229 10.87 8.314 13.403l93.338 46.476-93.361 46.68c-5.086 2.543-8.297 7.743-8.292 13.429.005 5.686 3.224 10.88 8.314 13.415l93.338 46.476-93.361 46.68c-5.073 2.538-8.282 7.726-8.287 13.404zm256-344.203 207.459 104.16-207.459 103.299-207.459-103.3zm-120.737 180.854 114.051 56.789c2.106 1.048 4.396 1.572 6.686 1.572s4.58-.524 6.686-1.572l114.051-56.789 86.667 43.333-207.404 103.272-207.403-103.272zm0 120 114.051 56.789c2.106 1.048 4.396 1.572 6.686 1.572s4.58-.524 6.686-1.572l114.051-56.789 86.778 43.389-207.515 104.187-207.515-104.187z" fill="url(#SVGID_1_)"/></g></svg>