<svg id="Capa_1" enable-background="new 0 0 512 512" height="512" viewBox="0 0 512 512" width="512" xmlns="http://www.w3.org/2000/svg" xmlns:xlink="http://www.w3.org/1999/xlink"><linearGradient id="SVGID_1_" gradientUnits="userSpaceOnUse" x1="256" x2="256" y1="452.39" y2="63.883"><stop offset="0" stop-color="#fd5900"/><stop offset="1" stop-color="#ffde00"/></linearGradient><g><path d="m376 60.955c-65.406 0-102.271 29.094-120 49.328-17.729-20.234-54.594-49.328-120-49.328-98.007 0-132.889 65.333-134.326 68.115-1.1 2.129-1.674 4.489-1.674 6.885v300c0 8.785 7.544 16.02 16.693 14.99 5.199.006 475.375 0 478.614 0 9.367 1.055 16.693-6.456 16.693-14.99v-300c0-2.396-.574-4.757-1.674-6.885-1.437-2.781-36.319-68.115-134.326-68.115zm0 30c51.936 0 88.401 22.549 106 49.182v255.953c-20.988-17.388-54.921-35.135-106-35.135-50.682 0-84.217 17.469-105 34.749v-255.67c16.918-26.311 52.603-49.079 105-49.079zm88.846 330h-177.13c24.42-21.553 55.719-30 88.284-30 32.824 0 64.166 8.577 88.846 30zm-434.846-280.818c17.608-26.647 53.837-49.182 106-49.182 52.031 0 87.976 22.603 105 49.078v255.671c-20.783-17.28-54.318-34.749-105-34.749-51.079 0-85.012 17.747-106 35.135zm194.284 280.818h-177.13c24.687-21.429 56.034-30 88.846-30 32.573 0 63.869 8.451 88.284 30z" fill="url(#SVGID_1_)"/></g></svg>