<svg id="Capa_1" enable-background="new 0 0 512 512" height="512" viewBox="0 0 512 512" width="512" xmlns="http://www.w3.org/2000/svg" xmlns:xlink="http://www.w3.org/1999/xlink"><linearGradient id="SVGID_1_" gradientUnits="userSpaceOnUse" x1="256" x2="256" y1="506.489" y2="9.809"><stop offset="0" stop-color="#a93aff"/><stop offset="1" stop-color="#ff81ff"/></linearGradient><g><path d="m497 0h-301c-8.284 0-15 6.716-15 15v136h-166c-8.284 0-15 6.716-15 15v240c0 8.284 6.716 15 15 15h46v76c0 6.082 3.673 11.562 9.298 13.874 5.6 2.302 12.072 1.017 16.367-3.326l85.597-86.548h143.738c8.284 0 15-6.716 15-15v-135h8.787l85.607 85.606c4.297 4.298 10.752 5.569 16.347 3.252 5.605-2.322 9.26-7.792 9.26-13.858v-75h46c8.284 0 15-6.716 15-15v-241c-.001-8.284-6.717-15-15.001-15zm-196 391h-135c-4.007 0-7.847 1.603-10.665 4.452l-64.335 65.05v-54.502c0-8.284-6.716-15-15-15h-46v-210h271zm181-150h-46c-8.284 0-15 6.716-15 15v53.787l-64.394-64.393c-2.813-2.813-6.628-4.394-10.606-4.394h-15v-75c0-8.284-6.716-15-15-15h-105v-121h271z" fill="url(#SVGID_1_)"/></g></svg>