<svg id="Capa_1" enable-background="new 0 0 512 512" height="512" viewBox="0 0 512 512" width="512" xmlns="http://www.w3.org/2000/svg" xmlns:xlink="http://www.w3.org/1999/xlink"><linearGradient id="SVGID_1_" gradientUnits="userSpaceOnUse" x1="256" x2="256" y1="505.34" y2="8.66"><stop offset="0" stop-color="#5558ff"/><stop offset="1" stop-color="#00c0ff"/></linearGradient><g><path d="m450.259 155.871c1.177-6.903 1.741-13.415 1.741-19.871 0-74.384-61.347-136-136-136-47.536 0-91.507 25.503-115.712 66.05-11.195-4.02-22.677-6.05-34.288-6.05-54.982 0-100.466 42.904-105.525 95.985-35.664 12.389-60.475 46.41-60.475 85.015 0 49.626 40.374 90 90 90h68.5l-4.5 6c-3.409 4.545-3.958 10.626-1.417 15.708 2.542 5.082 7.735 8.292 13.417 8.292h45v136c0 8.284 6.716 15 15 15h60c8.284 0 15-6.716 15-15v-136h45c5.682 0 10.876-3.21 13.416-8.292 2.541-5.082 1.993-11.163-1.416-15.708l-4.5-6h68.5c49.626 0 90-40.374 90-90 0-39.17-25.297-73.096-61.741-85.129zm-164.259 175.129c-8.284 0-15 6.716-15 15v136h-30v-136c0-8.284-6.716-15-15-15h-30l60-80 60 80zm136-30h-91l-63-84c-2.833-3.777-7.279-6-12-6s-9.167 2.223-12 6l-63 84h-91c-33.084 0-60-26.916-60-60 0-28.47 20.231-53.198 48.105-58.798 7.317-1.47 12.98-8.265 11.899-16.968.43-40.859 35.056-75.234 75.996-75.234 11.549 0 23.047 2.918 34.177 8.673 7.594 3.926 16.956.719 20.528-7.079 17.135-37.417 54.541-61.594 95.295-61.594 57.458 0 106 48.542 106 106 0 8.234-1.293 16.858-4.068 27.14-2.35 8.707 3.468 17.512 12.398 18.764 29.457 4.13 51.67 29.536 51.67 59.096 0 33.084-26.916 60-60 60z" fill="url(#SVGID_1_)"/></g></svg>