<svg id="Capa_1" enable-background="new 0 0 512 512" height="512" viewBox="0 0 512 512" width="512" xmlns="http://www.w3.org/2000/svg" xmlns:xlink="http://www.w3.org/1999/xlink"><linearGradient id="SVGID_1_" gradientUnits="userSpaceOnUse" x1="256" x2="256" y1="512" y2="0"><stop offset="0" stop-color="#fd3a84"/><stop offset="1" stop-color="#ffa68d"/></linearGradient><g><path d="m210 512c115.794 0 210-94.206 210-210 0-52.51-19.374-100.58-51.348-137.439l14.561-14.561h53.787c3.979 0 7.794-1.581 10.606-4.394l60-60c4.29-4.29 5.573-10.742 3.252-16.347-2.322-5.604-7.791-9.259-13.858-9.259h-45v-45c0-6.067-3.654-11.537-9.26-13.858-5.603-2.32-12.057-1.038-16.347 3.252l-60 60c-2.813 2.813-4.393 6.628-4.393 10.606v53.787l-14.561 14.561c-36.859-31.974-84.929-51.348-137.439-51.348-115.794 0-210 94.206-210 210s94.206 210 210 210zm182-430.786 30-30v23.786c0 8.284 6.716 15 15 15h23.787l-30 30h-38.787zm-182 40.786c44.238 0 84.791 16.051 116.165 42.622l-21.287 21.287c-25.868-21.181-58.913-33.909-94.878-33.909-82.71 0-150 67.29-150 150s67.29 150 150 150 150-67.29 150-150c0-35.965-12.728-69.01-33.908-94.879l21.287-21.287c26.57 31.375 42.621 71.928 42.621 116.166 0 99.252-80.748 180-180 180s-180-80.747-180-180 80.748-180 180-180zm60 180c0 33.084-26.916 60-60 60s-60-26.916-60-60 26.916-60 60-60c11.111 0 21.52 3.047 30.454 8.333l-41.06 41.06c-5.858 5.858-5.858 15.355 0 21.213 5.857 5.858 15.355 5.859 21.213 0l41.06-41.06c5.286 8.934 8.333 19.343 8.333 30.454zm-7.88-73.333c-14.717-10.49-32.71-16.667-52.12-16.667-49.626 0-90 40.374-90 90s40.374 90 90 90 90-40.374 90-90c0-19.41-6.177-37.403-16.667-52.12l21.423-21.423c15.813 20.328 25.244 45.854 25.244 73.543 0 66.168-53.832 120-120 120s-120-53.831-120-120 53.832-120 120-120c27.689 0 53.215 9.431 73.543 25.244z" fill="url(#SVGID_1_)"/></g></svg>