<svg id="Capa_1" enable-background="new 0 0 512.001 512.001" height="512" viewBox="0 0 512.001 512.001" width="512" xmlns="http://www.w3.org/2000/svg" xmlns:xlink="http://www.w3.org/1999/xlink"><linearGradient id="lg1"><stop offset="0" stop-color="#fd3a84"/><stop offset="1" stop-color="#ffa68d"/></linearGradient><linearGradient id="SVGID_1_" gradientUnits="userSpaceOnUse" x1="166" x2="166" xlink:href="#lg1" y1="519.614" y2="1.828"/><linearGradient id="SVGID_2_" gradientUnits="userSpaceOnUse" x1="437" x2="437" xlink:href="#lg1" y1="519.614" y2="1.828"/><g><path d="m15 361h114.587l177.834 147.544c4.437 3.68 10.648 4.526 15.955 2.033 5.264-2.472 8.624-7.762 8.624-13.577v-482c0-5.814-3.36-11.105-8.623-13.577-5.263-2.473-11.48-1.68-15.955 2.033l-177.834 147.544h-114.588c-8.284 0-15 6.716-15 15v180c0 8.284 6.716 15 15 15zm287 104.065-152-126.11v-165.909l152-126.11zm-272-284.065h90v150h-90z" fill="url(#SVGID_1_)"/><path d="m458.213 256 49.394-49.394c5.858-5.858 5.858-15.355 0-21.213-5.857-5.858-15.355-5.858-21.213 0l-49.394 49.394-49.394-49.394c-5.857-5.858-15.355-5.858-21.213 0s-5.858 15.355 0 21.213l49.394 49.394-49.394 49.394c-5.858 5.858-5.858 15.355 0 21.213 5.857 5.858 15.355 5.859 21.213 0l49.394-49.394 49.394 49.394c5.857 5.858 15.355 5.859 21.213 0 5.858-5.858 5.858-15.355 0-21.213z" fill="url(#SVGID_2_)"/></g></svg>