<svg id="Capa_1" enable-background="new 0 0 512 512" height="512" viewBox="0 0 512 512" width="512" xmlns="http://www.w3.org/2000/svg" xmlns:xlink="http://www.w3.org/1999/xlink"><linearGradient id="SVGID_1_" gradientUnits="userSpaceOnUse" x1="256" x2="256" y1="507.638" y2="3.343"><stop offset="0" stop-color="#fd3a84"/><stop offset="1" stop-color="#ffa68d"/></linearGradient><g><path d="m256 0c-140.959 0-256 115.05-256 256 0 140.959 115.05 256 256 256 140.959 0 256-115.05 256-256 0-140.959-115.05-256-256-256zm221.494 211h-94.216c-13.581-38.298-43.981-68.698-82.278-82.278v-94.216c88.584 17.969 158.525 87.91 176.494 176.494zm-221.494 150c-57.897 0-105-47.103-105-105s47.103-105 105-105 105 47.103 105 105-47.103 105-105 105zm-226-105c0-5.041.183-10.04.51-15.01h91.328c-.547 4.937-.838 9.94-.838 15.01s.291 10.073.838 15h-91.328c-.327-4.96-.51-9.959-.51-15zm360.162-15h91.328c.327 4.96.51 9.959.51 15s-.183 10.04-.51 15h-91.328c.547-4.927.838-9.93.838-15s-.291-10.073-.838-15zm-119.162-210.49v91.328c-4.927-.547-9.93-.838-15-.838s-10.073.291-15 .838v-91.328c4.96-.327 9.959-.51 15-.51s10.04.183 15 .51zm-60 3.996v94.216c-38.298 13.581-68.698 43.98-82.278 82.278h-94.216c17.969-88.584 87.91-158.525 176.494-176.494zm-176.494 266.494h94.216c13.581 38.298 43.981 68.698 82.278 82.278v94.216c-88.584-17.969-158.525-87.91-176.494-176.494zm206.494 180.49v-91.328c4.927.547 9.93.838 15 .838s10.073-.291 15-.838v91.328c-4.96.326-9.959.51-15 .51s-10.04-.184-15-.51zm60-3.996v-94.216c38.298-13.581 68.698-43.98 82.278-82.288h94.216c-17.969 88.594-87.91 158.535-176.494 176.504z" fill="url(#SVGID_1_)"/></g></svg>