<svg id="Capa_1" enable-background="new 0 0 511.992 511.992" height="512" viewBox="0 0 511.992 511.992" width="512" xmlns="http://www.w3.org/2000/svg" xmlns:xlink="http://www.w3.org/1999/xlink"><linearGradient id="SVGID_1_" gradientUnits="userSpaceOnUse" x1="255.996" x2="255.996" y1="561.35" y2="-59.363"><stop offset="0" stop-color="#fd5900"/><stop offset="1" stop-color="#ffde00"/></linearGradient><g><path d="m251.442 511.283c1.456.459 3.115.708 4.554.708 1.412 0 3.072-.241 4.554-.708 121.967-37.595 205.446-151.077 205.446-279.313v-156.978c0-6.585-4.295-12.4-10.589-14.337l-194.859-59.957c-2.814-.894-6.061-.967-9.105 0l-194.858 59.957c-6.294 1.937-10.589 7.752-10.589 14.337v156.978c0 128.099 83.34 241.675 205.446 279.313zm184.554-279.313c0 107.254-66.904 204.709-165 243.836v-440.505l165 50.769zm-360-145.899 165-50.769v440.505c-98.097-39.127-165-136.583-165-243.836z" fill="url(#SVGID_1_)"/></g></svg>