<svg id="Capa_1" enable-background="new 0 0 512 512" height="512" viewBox="0 0 512 512" width="512" xmlns="http://www.w3.org/2000/svg" xmlns:xlink="http://www.w3.org/1999/xlink"><linearGradient id="SVGID_1_" gradientUnits="userSpaceOnUse" x1="256" x2="256" y1="511.468" y2="15.128"><stop offset="0" stop-color="#a93aff"/><stop offset="1" stop-color="#ff81ff"/></linearGradient><g><path d="m497 211h-91c-8.284 0-15 6.716-15 15v256h-30v-376c0-8.284-6.716-15-15-15h-90c-8.284 0-15 6.716-15 15v376h-30v-136c0-8.284-6.716-15-15-15h-91c-8.284 0-15 6.716-15 15v136h-60v-467c0-8.284-6.716-15-15-15s-15 6.716-15 15v482c0 8.284 6.716 15 15 15h482c8.284 0 15-6.716 15-15v-271c0-8.284-6.716-15-15-15zm-76 30h61v241h-61zm-150-120h60v361h-60zm-151 240h61v121h-61z" fill="url(#SVGID_1_)"/></g></svg>