<svg id="Capa_1" enable-background="new 0 0 512 512" height="512" viewBox="0 0 512 512" width="512" xmlns="http://www.w3.org/2000/svg" xmlns:xlink="http://www.w3.org/1999/xlink"><linearGradient id="SVGID_1_" gradientUnits="userSpaceOnUse" x1="256" x2="256" y1="573.786" y2="-79.06"><stop offset="0" stop-color="#fd3a84"/><stop offset="1" stop-color="#ffa68d"/></linearGradient><g><path d="m76 512c8.284 0 15-6.716 15-15v-185.543c18.779 9.067 46.615 19.543 75 19.543 48.979 0 96.329-31.191 98.32-32.519.412-.275 41.684-27.481 81.68-27.481 39.771 0 81.28 27.216 81.68 27.481 4.602 3.068 10.521 3.354 15.398.744s7.922-7.693 7.922-13.225v-241c0-5.015-2.507-9.699-6.68-12.481-1.991-1.328-49.341-32.519-98.32-32.519s-96.329 31.191-98.32 32.519c-.412.275-41.684 27.481-81.68 27.481-30.319 0-61.644-15.815-75-23.451v-21.549c0-8.284-6.716-15-15-15s-15 6.716-15 15v482c0 8.284 6.716 15 15 15zm90-422c48.979 0 96.329-31.191 98.32-32.519.412-.275 41.684-27.481 81.68-27.481 30.316 0 61.643 15.814 75 23.45v207.093c-18.779-9.068-46.615-19.543-75-19.543-48.979 0-96.329 31.191-98.32 32.519-.412.275-41.684 27.481-81.68 27.481-30.313 0-61.633-15.81-75-23.451v-207.092c18.779 9.067 46.615 19.543 75 19.543z" fill="url(#SVGID_1_)"/></g></svg>