<svg id="Capa_1" enable-background="new 0 0 512 512" height="512" viewBox="0 0 512 512" width="512" xmlns="http://www.w3.org/2000/svg" xmlns:xlink="http://www.w3.org/1999/xlink"><linearGradient id="lg1"><stop offset="0" stop-color="#fd3a84"/><stop offset="1" stop-color="#ffa68d"/></linearGradient><linearGradient id="SVGID_1_" gradientUnits="userSpaceOnUse" x1="256" x2="256" xlink:href="#lg1" y1="515.725" y2="-12.455"/><linearGradient id="SVGID_2_" gradientUnits="userSpaceOnUse" x1="135.5" x2="135.5" xlink:href="#lg1" y1="515.725" y2="-12.455"/><linearGradient id="SVGID_4_" gradientUnits="userSpaceOnUse" x1="376" x2="376" xlink:href="#lg1" y1="515.725" y2="-12.455"/><g><path d="m497 30h-76v-15c0-8.284-6.716-15-15-15s-15 6.716-15 15v15h-120v-15c0-8.284-6.716-15-15-15s-15 6.716-15 15v15h-121v-15c0-8.284-6.716-15-15-15s-15 6.716-15 15v15h-75c-8.284 0-15 6.716-15 15v452c0 8.284 6.716 15 15 15h482c8.284 0 15-6.716 15-15v-452c0-8.284-6.716-15-15-15zm-407 30v15c0 8.284 6.716 15 15 15s15-6.716 15-15v-15h121v15c0 8.284 6.716 15 15 15s15-6.716 15-15v-15h120v15c0 8.284 6.716 15 15 15s15-6.716 15-15v-15h61v60h-452v-60zm-60 422v-332h452v332z" fill="url(#SVGID_1_)"/><path d="m166 211h-61c-8.284 0-15 6.716-15 15s6.716 15 15 15h61c8.284 0 15-6.716 15-15s-6.716-15-15-15z" fill="url(#SVGID_2_)"/><path d="m286 211h-60c-8.284 0-15 6.716-15 15s6.716 15 15 15h60c8.284 0 15-6.716 15-15s-6.716-15-15-15z" fill="url(#SVGID_1_)"/><path d="m406 211h-60c-8.284 0-15 6.716-15 15s6.716 15 15 15h60c8.284 0 15-6.716 15-15s-6.716-15-15-15z" fill="url(#SVGID_4_)"/><path d="m406 301h-60c-8.284 0-15 6.716-15 15s6.716 15 15 15h60c8.284 0 15-6.716 15-15s-6.716-15-15-15z" fill="url(#SVGID_4_)"/><path d="m286 301h-60c-8.284 0-15 6.716-15 15s6.716 15 15 15h60c8.284 0 15-6.716 15-15s-6.716-15-15-15z" fill="url(#SVGID_1_)"/><path d="m166 301h-61c-8.284 0-15 6.716-15 15s6.716 15 15 15h61c8.284 0 15-6.716 15-15s-6.716-15-15-15z" fill="url(#SVGID_2_)"/><path d="m166 391h-61c-8.284 0-15 6.716-15 15s6.716 15 15 15h61c8.284 0 15-6.716 15-15s-6.716-15-15-15z" fill="url(#SVGID_2_)"/><path d="m286 391h-60c-8.284 0-15 6.716-15 15s6.716 15 15 15h60c8.284 0 15-6.716 15-15s-6.716-15-15-15z" fill="url(#SVGID_1_)"/><path d="m406 391h-60c-8.284 0-15 6.716-15 15s6.716 15 15 15h60c8.284 0 15-6.716 15-15s-6.716-15-15-15z" fill="url(#SVGID_4_)"/></g></svg>