<svg id="Capa_1" enable-background="new 0 0 512 512" height="512" viewBox="0 0 512 512" width="512" xmlns="http://www.w3.org/2000/svg" xmlns:xlink="http://www.w3.org/1999/xlink"><linearGradient id="SVGID_1_" gradientUnits="userSpaceOnUse" x1="256" x2="256" y1="515.725" y2="-5.799"><stop offset="0" stop-color="#5558ff"/><stop offset="1" stop-color="#00c0ff"/></linearGradient><g fill="url(#SVGID_1_)"><path d="m407 286h-302c-57.897 0-105 47.103-105 105s47.103 105 105 105h302c57.897 0 105-47.103 105-105s-47.103-105-105-105zm-377 105c0-41.355 33.645-75 75-75s75 33.645 75 75-33.645 75-75 75-75-33.645-75-75zm377 75h-228.596c19.483-19.073 31.596-45.646 31.596-75s-12.113-55.927-31.596-75h228.596c41.355 0 75 33.645 75 75s-33.645 75-75 75z"/><path d="m407 16h-302c-57.897 0-105 47.103-105 105s47.103 105 105 105h302c57.897 0 105-47.103 105-105s-47.103-105-105-105zm-302 180c-41.355 0-75-33.645-75-75s33.645-75 75-75.01h228.596c-19.483 19.083-31.596 45.656-31.596 75.01s12.113 55.927 31.596 75zm302 0c-41.355 0-75-33.645-75-75s33.645-75 75-75 75 33.645 75 75-33.645 75-75 75z"/></g></svg>