<svg id="Capa_1" enable-background="new 0 0 512 512" height="512" viewBox="0 0 512 512" width="512" xmlns="http://www.w3.org/2000/svg" xmlns:xlink="http://www.w3.org/1999/xlink"><linearGradient id="lg1"><stop offset="0" stop-color="#fd3a84"/><stop offset="1" stop-color="#ffa68d"/></linearGradient><linearGradient id="SVGID_1_" gradientUnits="userSpaceOnUse" x1="225.5" x2="225.5" xlink:href="#lg1" y1="504.192" y2="7.813"/><linearGradient id="SVGID_2_" gradientUnits="userSpaceOnUse" x1="391.5" x2="391.5" xlink:href="#lg1" y1="504.192" y2="7.813"/><g><path d="m226 512c124.065 0 225-101.383 225-226 0-8.284-6.716-15-15-15h-195v-195c0-8.284-6.716-15-15-15-124.617 0-226 100.935-226 225 0 124.379 101.632 226 226 226zm-15-420.435v194.435c0 8.284 6.716 15 15 14.99h194.435c-7.648 101.104-91.932 181.01-194.435 181.01-108.075 0-196-87.925-196-196 0-102.503 79.906-186.788 181-194.435z" fill="url(#SVGID_1_)"/><path d="m286 241h211c8.284 0 15-6.716 15-15 0-124.379-101.632-226-226-226-8.284 0-15 6.716-15 15v211c0 8.284 6.716 15 15 15zm15-210.432c96.143 7.31 173.122 84.289 180.432 180.432h-180.432z" fill="url(#SVGID_2_)"/></g></svg>