<svg id="Capa_1" enable-background="new 0 0 512 512" height="512" viewBox="0 0 512 512" width="512" xmlns="http://www.w3.org/2000/svg" xmlns:xlink="http://www.w3.org/1999/xlink"><linearGradient id="lg1"><stop offset="0" stop-color="#fd3a84"/><stop offset="1" stop-color="#ffa68d"/></linearGradient><linearGradient id="SVGID_1_" gradientUnits="userSpaceOnUse" x1="256" x2="256" xlink:href="#lg1" y1="665.435" y2="-156.865"/><linearGradient id="SVGID_2_" gradientUnits="userSpaceOnUse" x1="256" x2="256" xlink:href="#lg1" y1="470.309" y2="-37.616"/><g><path d="m113.717 509.862 142.283-85.369 142.283 85.37c4.644 2.786 10.415 2.848 15.108.191 4.702-2.663 7.609-7.65 7.609-13.054v-482c0-8.284-6.716-15-15-15h-300c-8.284 0-15 6.716-15 15v482c0 5.404 2.907 10.391 7.609 13.053s10.474 2.59 15.108-.191zm7.283-479.862h270v440.507l-127.283-76.37c-4.749-2.85-10.684-2.851-15.435 0l-127.282 76.37z" fill="url(#SVGID_1_)"/><path d="m301.921 312.088c5.083 2.673 11.205 2.194 15.797-1.142 4.619-3.356 6.933-9.043 5.967-14.671l-8.771-51.133 37.151-36.213c4.088-3.985 5.56-9.946 3.795-15.376-1.764-5.43-6.458-9.388-12.109-10.209l-51.341-7.46-22.96-46.523c-2.526-5.119-7.741-8.361-13.45-8.361s-10.924 3.242-13.451 8.361l-22.96 46.523-51.341 7.46c-5.65.821-10.345 4.779-12.109 10.209-1.765 5.43-.293 11.391 3.795 15.376l37.151 36.213-8.771 51.133c-.965 5.627 1.348 11.315 5.967 14.671 4.62 3.356 10.744 3.799 15.797 1.142l45.922-24.141zm-78.9-40.697 4.965-28.95c.834-4.866-.779-9.831-4.314-13.277l-21.034-20.502 29.067-4.224c4.886-.71 9.109-3.779 11.294-8.206l13.001-26.338 12.999 26.339c2.185 4.427 6.409 7.496 11.294 8.206l29.067 4.224-21.034 20.502c-3.535 3.446-5.148 8.411-4.314 13.277l4.965 28.95-25.999-13.668c-2.185-1.149-4.583-1.723-6.98-1.723s-4.795.574-6.98 1.723z" fill="url(#SVGID_2_)"/></g></svg>