<svg id="Capa_1" enable-background="new 0 0 512 512" height="512" viewBox="0 0 512 512" width="512" xmlns="http://www.w3.org/2000/svg" xmlns:xlink="http://www.w3.org/1999/xlink"><linearGradient id="SVGID_1_" gradientUnits="userSpaceOnUse" x1="256" x2="256" y1="475.147" y2="33.393"><stop offset="0" stop-color="#fd5900"/><stop offset="1" stop-color="#ffde00"/></linearGradient><g><path d="m452 181v-135c0-6.427-4.095-12.14-10.182-14.205-6.087-2.064-12.813-.021-16.723 5.079-.215.28-21.958 28.322-64.853 56.604-39.799 26.241-105.979 57.522-195.242 57.522h-75c-49.626 0-90 40.374-90 90 0 45.395 33.785 83.041 77.53 89.132l27.762 138.81c1.401 7.011 7.558 12.058 14.708 12.058h75c9.445 0 16.567-8.65 14.708-17.942l-26.318-131.594c79.443 3.882 138.967 32.272 175.813 56.375 43.237 28.285 65.689 57.023 65.894 57.288 3.89 5.074 10.605 7.154 16.723 5.079 6.085-2.066 10.18-7.778 10.18-14.206v-135c33.084 0 60-26.916 60-60s-26.916-60-60-60zm-422 60c0-33.084 26.916-60 60-60h60v120h-60c-33.084 0-60-26.916-60-60zm102.297 210-24-120h44.406l24 120zm289.703-52.358c-11.441-10.477-26.523-22.822-45.243-35.165-57.102-37.65-123.895-59.545-196.757-62.197v-120.56c72.848-2.651 139.644-24.539 196.757-62.197 18.72-12.342 33.802-24.688 45.243-35.165zm30-127.642v-60c16.542 0 30 13.458 30 30s-13.458 30-30 30z" fill="url(#SVGID_1_)"/></g></svg>