<svg id="Capa_1" enable-background="new 0 0 512.003 512.003" height="512" viewBox="0 0 512.003 512.003" width="512" xmlns="http://www.w3.org/2000/svg" xmlns:xlink="http://www.w3.org/1999/xlink"><linearGradient id="lg1"><stop offset="0" stop-color="#a93aff"/><stop offset="1" stop-color="#ff81ff"/></linearGradient><linearGradient id="SVGID_1_" gradientUnits="userSpaceOnUse" x1="256.001" x2="256.001" xlink:href="#lg1" y1="504.194" y2="3.721"/><linearGradient id="SVGID_2_" gradientUnits="userSpaceOnUse" x1="196" x2="196" xlink:href="#lg1" y1="504.194" y2="3.721"/><linearGradient id="SVGID_3_" gradientUnits="userSpaceOnUse" x1="407" x2="407" xlink:href="#lg1" y1="504.194" y2="3.721"/><g><path d="m15 30.001h48.121c7.143 46.669 50.919 332.672 58.052 379.27 1.12 7.323 7.419 12.73 14.827 12.73h331c8.284 0 15-6.716 15-15s-6.716-15-15-15h-318.121l-9.184-60h327.305c7.469 0 13.799-5.494 14.851-12.889l30-211c1.283-9.019-5.722-17.111-14.851-17.111h-394.193l-11.98-78.27c-1.12-7.322-7.419-12.73-14.827-12.73h-61c-8.284 0-15 6.716-15 15s6.716 15 15 15zm464.717 91-25.735 181h-318.879l-27.704-181z" fill="url(#SVGID_1_)"/><path d="m151 467.001c0 24.813 20.187 45 45 45s45-20.187 45-45-20.187-45-45-45-45 20.187-45 45zm45-15c8.271 0 15 6.729 15 15s-6.729 15-15 15-15-6.729-15-15 6.729-15 15-15z" fill="url(#SVGID_2_)"/><path d="m362 467.001c0 24.813 20.187 45 45 45s45-20.187 45-45-20.187-45-45-45-45 20.187-45 45zm45-15c8.271 0 15 6.729 15 15s-6.729 15-15 15-15-6.729-15-15 6.729-15 15-15z" fill="url(#SVGID_3_)"/></g></svg>