<svg id="Capa_1" enable-background="new 0 0 512 512" height="512" viewBox="0 0 512 512" width="512" xmlns="http://www.w3.org/2000/svg" xmlns:xlink="http://www.w3.org/1999/xlink"><linearGradient id="lg1"><stop offset="0" stop-color="#fd5900"/><stop offset="1" stop-color="#ffde00"/></linearGradient><linearGradient id="SVGID_1_" gradientUnits="userSpaceOnUse" x1="256" x2="256" xlink:href="#lg1" y1="424.161" y2="-56.702"/><linearGradient id="SVGID_2_" gradientUnits="userSpaceOnUse" x1="256" x2="256" xlink:href="#lg1" y1="580.323" y2="-78.395"/><g><path d="m301.92 282.088c5.103 2.683 11.225 2.181 15.797-1.142 4.619-3.356 6.933-9.043 5.968-14.671l-8.77-51.133 37.15-36.213c4.088-3.985 5.56-9.946 3.795-15.376s-6.458-9.388-12.108-10.209l-51.341-7.46-22.96-46.523c-2.527-5.119-7.741-8.361-13.451-8.361s-10.924 3.242-13.451 8.361l-22.96 46.523-51.341 7.46c-5.65.821-10.344 4.779-12.108 10.209s-.293 11.391 3.795 15.376l37.15 36.213-8.77 51.133c-.965 5.627 1.349 11.315 5.968 14.671 4.619 3.355 10.74 3.799 15.797 1.142l45.92-24.141zm-78.898-40.696 4.965-28.95c.835-4.866-.778-9.831-4.313-13.277l-21.033-20.502 29.067-4.224c4.886-.71 9.109-3.779 11.294-8.206l12.998-26.339 12.999 26.339c2.185 4.427 6.408 7.496 11.294 8.206l29.067 4.224-21.033 20.502c-3.535 3.446-5.148 8.411-4.313 13.277l4.965 28.95-25.998-13.668c-2.186-1.149-4.583-1.723-6.98-1.723s-4.795.574-6.98 1.723z" fill="url(#SVGID_1_)"/><path d="m158.922 510.225c4.878 2.611 10.795 2.324 15.398-.744l81.68-54.453 81.68 54.453c4.609 3.073 10.529 3.351 15.398.744 4.877-2.61 7.922-7.693 7.922-13.225v-136.747c54.087-34.697 90-95.36 90-164.253 0-108.075-87.477-196-195-196s-195 87.925-195 196c0 68.894 35.913 129.557 90 164.253v136.747c0 5.532 3.045 10.615 7.922 13.225zm172.078-41.253-66.68-44.453c-5.039-3.358-11.602-3.358-16.641 0l-66.679 44.453v-92.98c23.1 9.661 48.436 15.008 75 15.008s51.9-5.347 75-15.008zm-240-272.972c0-91.533 74.019-166 165-166s165 74.467 165 166c0 90.981-74.019 165-165 165s-165-74.019-165-165z" fill="url(#SVGID_2_)"/></g></svg>