<svg id="Capa_1" enable-background="new 0 0 512 512" height="512" viewBox="0 0 512 512" width="512" xmlns="http://www.w3.org/2000/svg" xmlns:xlink="http://www.w3.org/1999/xlink"><linearGradient id="SVGID_1_" gradientUnits="userSpaceOnUse" x1="256" x2="256" y1="513.766" y2="-13.248"><stop offset="0" stop-color="#00b59c"/><stop offset="1" stop-color="#9cffac"/></linearGradient><g><path d="m497 361h-46v-75c0-8.284-6.716-15-15-15h-165v-60h75c8.284 0 15-6.716 15-15v-181c0-8.284-6.716-15-15-15h-180c-8.284 0-15 6.716-15 15v181c0 8.284 6.716 15 15 15h75v60h-165c-8.284 0-15 6.716-15 15v75h-46c-8.284 0-15 6.716-15 15v121c0 8.284 6.716 15 15 15h121c8.284 0 15-6.716 15-15v-121c0-8.284-6.716-15-15-15h-45v-60h150v60h-45c-8.284 0-15 6.716-15 15v121c0 8.284 6.716 15 15 15h120c8.284 0 15-6.716 15-15v-121c0-8.284-6.716-15-15-15h-45v-60h150v60h-45c-8.284 0-15 6.716-15 15v121c0 8.284 6.716 15 15 15h121c8.284 0 15-6.716 15-15v-121c0-8.284-6.716-15-15-15zm-316-331h150v151h-150zm-60 452h-91v-91h91zm180 0h-90v-91h90zm181 0h-91v-91h91z" fill="url(#SVGID_1_)"/></g></svg>