<svg id="Capa_1" enable-background="new 0 0 512 512" height="512" viewBox="0 0 512 512" width="512" xmlns="http://www.w3.org/2000/svg" xmlns:xlink="http://www.w3.org/1999/xlink"><linearGradient id="lg1"><stop offset="0" stop-color="#fd3a84"/><stop offset="1" stop-color="#ffa68d"/></linearGradient><linearGradient id="SVGID_1_" gradientUnits="userSpaceOnUse" x1="256" x2="256" xlink:href="#lg1" y1="502.248" y2="6.111"/><linearGradient id="SVGID_2_" gradientUnits="userSpaceOnUse" x1="226" x2="226" xlink:href="#lg1" y1="502.248" y2="6.111"/><linearGradient id="SVGID_3_" gradientUnits="userSpaceOnUse" x1="377" x2="377" xlink:href="#lg1" y1="502.248" y2="6.111"/><g><path d="m497 210h-22.289c-4.649-22.757-14.43-44.788-28.711-64.573v-80.427c0-8.284-6.716-15-15-15-26.167 0-51.004 9.235-70.985 26.208-2.97-.97-50.116-25.941-120.666-25.941-131.977 0-239.349 85.188-239.349 189.9 0 45.239 20.819 89.354 58.624 124.219 23.848 21.993 37.525 52.105 37.525 82.614 0 8.284 6.716 15 15 15h63.851c8.284 0 15-6.716 15-15v-21.003c16.189 2.676 32.957 4.069 49.349 4.069 16.571 0 33.438-1.393 49.651-4.069v21.003c0 8.284 6.716 15 15 15h63.549c8.298 0 15.025-6.746 15-15.046-.18-58.913 49.073-112.287 114.451-112.287 8.284 0 15-6.716 15-15v-94.667c0-8.284-6.716-15-15-15zm-15 95.421c-69.279 7.018-121.524 61.962-128.644 126.579h-34.356v-24.274c0-9.663-9.022-16.812-18.427-14.604-19.358 4.543-40.529 6.944-61.224 6.944-20.448 0-41.518-2.401-60.932-6.944-9.39-2.196-18.417 4.93-18.417 14.605v24.273h-34.702c-3.805-33.541-20.221-65.584-46.336-89.668-31.574-29.119-48.962-65.402-48.962-102.165 0-94.397 103.589-159.9 209.349-159.9 68.455 0 110.404 24.991 117.43 27.384 5.738 2.583 12.481 1.309 16.882-3.191 11.786-12.053 26.458-19.969 42.339-23.032v68.964c0 3.299 1.088 6.506 3.095 9.125 15.555 20.294 25.214 43.53 27.932 67.194.87 7.572 7.28 13.289 14.902 13.289h20.071z" fill="url(#SVGID_1_)"/><path d="m287 120h-122c-8.284 0-15 6.716-15 15s6.716 15 15 15h122c8.284 0 15-6.716 15-15s-6.716-15-15-15z" fill="url(#SVGID_2_)"/><circle cx="377" cy="195" fill="url(#SVGID_3_)" r="15"/></g></svg>