<svg id="Capa_1" enable-background="new 0 0 512 512" height="512" viewBox="0 0 512 512" width="512" xmlns="http://www.w3.org/2000/svg" xmlns:xlink="http://www.w3.org/1999/xlink"><linearGradient id="SVGID_1_" gradientUnits="userSpaceOnUse" x1="256" x2="256" y1="511.468" y2="8.963"><stop offset="0" stop-color="#5558ff"/><stop offset="1" stop-color="#00c0ff"/></linearGradient><g><path d="m512 256c0-140.989-115.039-256-256-256-139.834 0-256 113.981-256 256 0 140.961 115.051 256 256 256 139.833 0 256-113.98 256-256zm-256 226c-35.317 0-58.546-82.473-65.778-121l131.555-.01c-7.701 41.029-31.474 121.01-65.777 121.01zm-70.445-151c-2.994-23.825-4.555-49.079-4.555-75s1.561-51.175 4.555-75h140.89c2.994 23.825 4.555 49.079 4.555 75s-1.561 51.175-4.555 75zm-155.555-75c0-26.28 4.524-51.52 12.809-75.01h112.542c-2.861 24.002-4.351 49.227-4.351 75.01s1.49 51.008 4.351 75h-112.542c-8.285-23.48-12.809-48.72-12.809-75zm226-226c35.317 0 58.546 82.472 65.778 121h-131.556c7.702-41.028 31.476-121 65.778-121zm100.649 151h112.542c8.285 23.48 12.809 48.72 12.809 75s-4.524 51.52-12.809 75h-112.542c2.861-23.993 4.351-49.218 4.351-75s-1.49-51.007-4.351-75zm99.427-30h-103.832c-6.618-37.582-18.948-82.412-40.178-113.958 62.469 16.005 114.583 58.113 144.01 113.958zm-256.143-113.958c-21.234 31.553-33.561 76.388-40.177 113.958h-103.832c29.427-55.845 81.541-97.953 144.009-113.958zm-144.009 323.958h103.831c6.618 37.584 18.948 82.411 40.178 113.958-62.468-16.005-114.582-58.113-144.009-113.958zm256.143 113.958c21.234-31.551 33.562-76.397 40.178-113.968l103.831.01c-29.427 55.845-81.541 97.953-144.009 113.958z" fill="url(#SVGID_1_)"/></g></svg>