<svg id="Capa_1" enable-background="new 0 0 512 512" height="512" viewBox="0 0 512 512" width="512" xmlns="http://www.w3.org/2000/svg" xmlns:xlink="http://www.w3.org/1999/xlink"><linearGradient id="SVGID_1_" gradientUnits="userSpaceOnUse" x1="256" x2="256" y1="533.681" y2=".539"><stop offset="0" stop-color="#5558ff"/><stop offset="1" stop-color="#00c0ff"/></linearGradient><g><path d="m497 0h-482c-8.284 0-15 6.716-15 15v90c0 8.284 6.716 15 15 15h23.429l157.571 170.861v206.139c0 5.532 3.045 10.615 7.922 13.225 4.866 2.604 10.784 2.331 15.398-.744l90-60c4.173-2.782 6.68-7.466 6.68-12.481v-146.139l157.571-170.861h23.429c8.284 0 15-6.716 15-15v-90c0-8.284-6.716-15-15-15zm-207.026 274.831c-2.556 2.77-3.974 6.4-3.974 10.169v143.972l-60 40v-183.972c0-3.769-1.418-7.399-3.974-10.169l-142.788-154.831h353.524zm192.026-184.831h-452v-60h452z" fill="url(#SVGID_1_)"/></g></svg>