<svg viewBox="0 0 24 24" xmlns="http://www.w3.org/2000/svg"><g><g fill="#12131A" fill-rule="evenodd"><path d="M13 6c0-.56-.45-1-1-1H8c-.56 0-1 .44-1 1 0 .55.44 1 1 1h4c.55 0 1-.45 1-1Zm6 4c0-.56-.45-1-1-1H8c-.56 0-1 .44-1 1 0 .55.44 1 1 1h10c.55 0 1-.45 1-1Zm-3 3c.55 0 1 .44 1 1 0 .55-.45 1-1 1H8c-.56 0-1-.45-1-1 0-.56.44-1 1-1h8Zm5 5c0-.56-.45-1-1-1H8c-.56 0-1 .44-1 1 0 .55.44 1 1 1h12c.55 0 1-.45 1-1Z"/><path d="M4 3c.55 0 1 .44 1 1v16c0 .55-.45 1-1 1 -.56 0-1-.45-1-1V4c0-.56.44-1 1-1Z"/></g></g></svg>