<svg viewBox="0 0 24 24" xmlns="http://www.w3.org/2000/svg"><g><path fill="#12131A" fill-rule="evenodd" d="M16.2 21c1.68 0 2.52 0 3.16-.33 .56-.29 1.02-.75 1.31-1.32 .32-.65.32-1.49.32-3.17v-8.4c0-1.69 0-2.53-.33-3.17 -.29-.57-.75-1.03-1.32-1.32 -.65-.33-1.49-.33-3.17-.33h-8.4c-1.69 0-2.53 0-3.17.32 -.57.28-1.03.74-1.32 1.31 -.33.64-.33 1.48-.33 3.16v8.4c0 1.68 0 2.52.32 3.16 .28.56.74 1.02 1.31 1.31 .64.32 1.48.32 3.16.32h8.4ZM10 19c.55 0 1-.45 1-1 0-.56-.45-1-1-1H6c-.56 0-1 .44-1 1 0 .55.44 1 1 1h4Zm7-5c0 .55-.45 1-1 1H6c-.56 0-1-.45-1-1 0-.56.44-1 1-1h10c.55 0 1 .44 1 1Zm-3-3c.55 0 1-.45 1-1 0-.56-.45-1-1-1H6c-.56 0-1 .44-1 1 0 .55.44 1 1 1h8Zm5-5c0 .55-.45 1-1 1H6c-.56 0-1-.45-1-1 0-.56.44-1 1-1h12c.55 0 1 .44 1 1Z"/></g></svg>