<svg viewBox="0 0 24 24" xmlns="http://www.w3.org/2000/svg"><g><g fill="#12131A" fill-rule="evenodd"><path d="M18 3c0-.56-.45-1-1-1 -.56 0-1 .44-1 1v2c0 .55.44 1 1 1 .55 0 1-.45 1-1V3ZM8 6c0-.56-.45-1-1-1 -.56 0-1 .44-1 1v6c0 .55.44 1 1 1 .55 0 1-.45 1-1V6ZM7 16c.55 0 1 .44 1 1v4c0 .55-.45 1-1 1 -.56 0-1-.45-1-1v-4c0-.56.44-1 1-1Zm11-4c0-.56-.45-1-1-1 -.56 0-1 .44-1 1v6c0 .55.44 1 1 1 .55 0 1-.45 1-1v-6Z"/><path d="M18 7v3c0 .55-.45 1-1 1 -.56 0-1-.45-1-1V7c0-.56.44-1 1-1 .55 0 1 .44 1 1Zm-4 0c0-1.66 1.34-3 3-3 1.65 0 3 1.34 3 3v3c0 1.65-1.35 3-3 3 -1.66 0-3-1.35-3-3V7Zm-6 7v1c0 .55-.45 1-1 1 -.56 0-1-.45-1-1v-1c0-.56.44-1 1-1 .55 0 1 .44 1 1Zm-4 0c0-1.66 1.34-3 3-3 1.65 0 3 1.34 3 3v1c0 1.65-1.35 3-3 3 -1.66 0-3-1.35-3-3v-1Z"/></g></g></svg>