<svg viewBox="0 0 24 24" xmlns="http://www.w3.org/2000/svg"><g><g fill="#12131A" fill-rule="evenodd"><path d="M19 21c0 .55-.45 1-1 1 -.56 0-1-.45-1-1v-5c0-.56.44-1 1-1 .55 0 1 .44 1 1v5ZM7 18c0 .55-.45 1-1 1 -.56 0-1-.45-1-1v-3c0-.56.44-1 1-1 .55 0 1 .44 1 1v3ZM6 9c.55 0 1-.45 1-1V3c0-.56-.45-1-1-1 -.56 0-1 .44-1 1v5c0 .55.44 1 1 1Zm13-2c0 .55-.45 1-1 1 -.56 0-1-.45-1-1V5c0-.56.44-1 1-1 .55 0 1 .44 1 1v2Z"/><path d="M18 17c-1.11 0-2-.9-2-2v-3c0-1.11.89-2 2-2 1.1 0 2 .89 2 2v3c0 1.1-.9 2-2 2ZM6 12c-1.11 0-2-.9-2-2V9c0-1.11.89-2 2-2 1.1 0 2 .89 2 2v1c0 1.1-.9 2-2 2Z"/></g></g></svg>