<svg viewBox="0 0 24 24" xmlns="http://www.w3.org/2000/svg"><g><g fill="#12131A" fill-rule="evenodd"><path d="M19 3c0-.56-.45-1-1-1 -.56 0-1 .44-1 1v5c0 .55.44 1 1 1 .55 0 1-.45 1-1V3ZM7 6c0-.56-.45-1-1-1 -.56 0-1 .44-1 1v3c0 .55.44 1 1 1 .55 0 1-.45 1-1V6Zm-1 9c.55 0 1 .44 1 1v5c0 .55-.45 1-1 1 -.56 0-1-.45-1-1v-5c0-.56.44-1 1-1Zm13 2c0-.56-.45-1-1-1 -.56 0-1 .44-1 1v2c0 .55.44 1 1 1 .55 0 1-.45 1-1v-2Z"/><path d="M18 7c-1.11 0-2 .89-2 2v3c0 1.1.89 2 2 2 1.1 0 2-.9 2-2V9c0-1.11-.9-2-2-2ZM6 12c-1.11 0-2 .89-2 2v1c0 1.1.89 2 2 2 1.1 0 2-.9 2-2v-1c0-1.11-.9-2-2-2Z"/></g></g></svg>