<svg viewBox="0 0 24 24" xmlns="http://www.w3.org/2000/svg"><g><path fill="#12131A" fill-rule="evenodd" d="M3.32 4.63c-.33.64-.33 1.48-.33 3.16v8.4c0 1.68 0 2.52.32 3.16 .28.56.74 1.02 1.31 1.31 .64.32 1.48.32 3.16.32h8.4c1.68 0 2.52 0 3.16-.33 .56-.29 1.02-.75 1.31-1.32 .32-.65.32-1.49.32-3.17v-8.4c0-1.69 0-2.53-.33-3.17 -.29-.57-.75-1.03-1.32-1.32 -.65-.33-1.49-.33-3.17-.33h-8.4c-1.69 0-2.53 0-3.17.32 -.57.28-1.03.74-1.32 1.31Zm3.67 13.36c0 .55-.45 1-1 1 -.56 0-1-.45-1-1 0-3.06.37-6.21 1.38-8.64 1.01-2.44 2.78-4.37 5.61-4.37 2.82 0 4.59 1.92 5.61 4.36 1.01 2.42 1.38 5.57 1.38 8.63 0 .55-.45 1-1 1 -.56 0-1-.45-1-1 0-2.95-.38-5.8-1.24-7.87 -.86-2.07-2.09-3.14-3.77-3.14 -1.68 0-2.91 1.07-3.77 3.13 -.87 2.07-1.24 4.92-1.24 7.86Z"/></g></svg>