<svg viewBox="0 0 24 24" xmlns="http://www.w3.org/2000/svg"><g><g fill="#12131A" fill-rule="evenodd"><path d="M4 3c.55 0 1 .44 1 1v13c0 1.1.89 2 2 2h13c.55 0 1 .44 1 1 0 .55-.45 1-1 1H7c-2.21 0-4-1.8-4-4V4c0-.56.44-1 1-1Z"/><path d="M8 17c.55 0 1-.45 1-1 0-2.95.37-5.8 1.23-7.87 .85-2.07 2.08-3.14 3.76-3.14 1.67 0 2.9 1.07 3.76 3.13 .86 2.07 1.23 4.92 1.23 7.86 0 .55.44 1 1 1 .55 0 1-.45 1-1 0-3.06-.38-6.21-1.39-8.64 -1.02-2.44-2.79-4.37-5.62-4.37s-4.6 1.92-5.62 4.36c-1.02 2.42-1.39 5.57-1.39 8.63 0 .55.44 1 1 1Z"/></g></g></svg>