<svg viewBox="0 0 24 24" xmlns="http://www.w3.org/2000/svg"><g><g fill="#12131A"><path opacity=".25" d="M3 7.8c0-1.69 0-2.53.32-3.17 .28-.57.74-1.03 1.31-1.32 .64-.33 1.48-.33 3.16-.33h8.4c1.68 0 2.52 0 3.16.32 .56.28 1.02.74 1.31 1.31 .32.64.32 1.48.32 3.16v8.4c0 1.68 0 2.52-.33 3.16 -.29.56-.75 1.02-1.32 1.31 -.65.32-1.49.32-3.17.32h-8.4c-1.69 0-2.53 0-3.17-.33 -.57-.29-1.03-.75-1.32-1.32 -.33-.65-.33-1.49-.33-3.17v-8.4Z"/><path fill="#12131A" fill-rule="evenodd" d="M6 19c.55 0 1-.45 1-1 0-2.95.37-5.8 1.23-7.87 .85-2.07 2.08-3.14 3.76-3.14 1.67 0 2.9 1.07 3.76 3.13 .86 2.07 1.23 4.92 1.23 7.86 0 .55.44 1 1 1 .55 0 1-.45 1-1 0-3.06-.38-6.21-1.39-8.64 -1.02-2.44-2.79-4.37-5.62-4.37s-4.6 1.92-5.62 4.36c-1.02 2.42-1.39 5.57-1.39 8.63 0 .55.44 1 1 1Z"/></g></g></svg>