<svg viewBox="0 0 24 24" xmlns="http://www.w3.org/2000/svg"><g><g fill="#12131A"><path opacity=".25" d="M22 12c0 5.52-4.48 10-10 10C6.47 22 2 17.52 2 12 2 6.47 6.47 2 12 2c5.52 0 10 4.47 10 10Z"/><g fill="#12131A" fill-rule="evenodd"><path d="M11 5c0-.56.44-1 1-1 4.41 0 8 3.58 8 8 0 4.41-3.59 8-8 8 -4.42 0-8-3.59-8-8 0-.56.44-1 1-1 .55 0 1 .44 1 1 0 3.31 2.68 6 6 6 3.31 0 6-2.69 6-6 0-3.32-2.69-6-6-6 -.56 0-1-.45-1-1Z"/><path d="M11 9c0-.56.44-1 1-1 2.2 0 4 1.79 4 4 0 2.2-1.8 4-4 4 -2.21 0-4-1.8-4-4 0-.56.44-1 1-1 .55 0 1 .44 1 1 0 1.1.89 2 2 2 1.1 0 2-.9 2-2 0-1.11-.9-2-2-2 -.56 0-1-.45-1-1Z"/></g></g></g></svg>