<svg viewBox="0 0 24 24" xmlns="http://www.w3.org/2000/svg"><g><g fill="#12131A" fill-rule="evenodd"><path d="M11 3c0-.56.44-1 1-1 5.52 0 10 4.47 10 10 0 5.52-4.48 10-10 10C6.47 22 2 17.52 2 12c0-.56.44-1 1-1 .55 0 1 .44 1 1 0 4.41 3.58 8 8 8 4.41 0 8-3.59 8-8 0-4.42-3.59-8-8-8 -.56 0-1-.45-1-1Z"/><path d="M11 8c0-.56.44-1 1-1 2.76 0 5 2.23 5 5 0 2.76-2.24 5-5 5 -2.77 0-5-2.24-5-5 0-.56.44-1 1-1 .55 0 1 .44 1 1 0 1.65 1.34 3 3 3 1.65 0 3-1.35 3-3 0-1.66-1.35-3-3-3 -.56 0-1-.45-1-1Z"/></g></g></svg>