<svg viewBox="0 0 24 24" xmlns="http://www.w3.org/2000/svg"><g><g fill="#12131A" fill-rule="evenodd"><path d="M10.85 3.83c.41 1.02-.08 2.18-1.11 2.6 -2.21.89-3.76 3.04-3.76 5.56 0 .25.01.5.04.75 .13 1.09-.65 2.09-1.74 2.23 -1.1.13-2.1-.641-2.24-1.74 -.06-.41-.08-.83-.08-1.25 0-4.2 2.58-7.8 6.24-9.28 1.02-.42 2.18.07 2.6 1.1ZM5.43 16.99c.69-.87 1.94-1.01 2.81-.31 1.02.82 2.32 1.31 3.74 1.31 1.42 0 2.72-.5 3.74-1.32 .86-.7 2.12-.56 2.81.3 .69.86.55 2.12-.31 2.81 -1.72 1.37-3.888 2.19-6.26 2.19 -2.37 0-4.54-.83-6.26-2.2 -.87-.7-1.01-1.95-.31-2.82Z"/><path d="M13.14 3.83c.41-1.03 1.58-1.52 2.6-1.11 3.66 1.48 6.24 5.07 6.24 9.27 0 .42-.03.83-.08 1.24 -.14 1.09-1.14 1.87-2.24 1.73 -1.1-.14-1.88-1.14-1.74-2.24 .03-.25.04-.5.04-.76 0-2.52-1.55-4.68-3.76-5.57 -1.03-.42-1.52-1.59-1.11-2.61Z"/></g></g></svg>