<svg viewBox="0 0 24 24" xmlns="http://www.w3.org/2000/svg"><g><g fill="#12131A" fill-rule="evenodd"><path d="M4 3c.55 0 1 .44 1 1v13c0 1.1.89 2 2 2h13c.55 0 1 .44 1 1 0 .55-.45 1-1 1H7c-2.21 0-4-1.8-4-4V4c0-.56.44-1 1-1Z"/><path d="M20.31 3.05c.52.17.8.74.63 1.26l-1.98 5.93c-.71 2.11-3.4 2.74-4.97 1.17l-1.43-1.43c-.53-.53-1.43-.32-1.66.39L8.92 16.3c-.18.52-.75.8-1.27.63 -.53-.18-.81-.75-.64-1.27l1.97-5.93c.7-2.12 3.39-2.75 4.96-1.18l1.42 1.42c.52.52 1.42.31 1.65-.4l1.97-5.93c.17-.53.74-.81 1.26-.64Z"/></g></g></svg>