<svg viewBox="0 0 24 24" xmlns="http://www.w3.org/2000/svg"><g><g fill="#12131A" fill-rule="evenodd"><path d="M19.44 17.89c.49-.25.69-.85.44-1.35l-4-8c-.15-.29-.42-.49-.74-.54 -.32-.06-.64.05-.87.27l-5.02 5.01 -3.38-6.76c-.25-.5-.85-.7-1.35-.45 -.5.24-.7.84-.45 1.34l4 7.99c.14.28.41.48.73.53 .31.05.64-.06.86-.28l5.01-5.02 3.37 6.759c.24.49.84.69 1.34.44Z"/><path d="M19 14c1.65 0 3 1.34 3 3 0 1.65-1.35 3-3 3 -1.66 0-3-1.35-3-3 0-1.66 1.34-3 3-3ZM9 12c1.65 0 3 1.34 3 3 0 1.65-1.35 3-3 3 -1.66 0-3-1.35-3-3 0-1.66 1.34-3 3-3ZM5 4c1.65 0 3 1.34 3 3 0 1.65-1.35 3-3 3 -1.66 0-3-1.35-3-3 0-1.66 1.34-3 3-3Zm13 5c0-1.66-1.35-3-3-3 -1.66 0-3 1.34-3 3 0 1.65 1.34 3 3 3 1.65 0 3-1.35 3-3Z"/></g></g></svg>