<svg viewBox="0 0 24 24" xmlns="http://www.w3.org/2000/svg"><g><g fill="#12131A" fill-rule="evenodd"><path d="M19.44 6.1c.49.24.69.84.44 1.34l-4 8c-.15.28-.42.48-.74.53 -.32.05-.64-.06-.87-.28l-5.02-5.019 -3.38 6.75c-.25.49-.85.69-1.35.44 -.5-.25-.7-.85-.45-1.35l4-8.01c.14-.29.41-.49.73-.54 .31-.06.64.05.86.27l5.01 5.01 3.37-6.76c.24-.5.84-.7 1.34-.45Z"/><path d="M19 10c1.65 0 3-1.35 3-3 0-1.66-1.35-3-3-3 -1.66 0-3 1.34-3 3 0 1.65 1.34 3 3 3ZM9 12c1.65 0 3-1.35 3-3 0-1.66-1.35-3-3-3C7.34 6 6 7.34 6 9c0 1.65 1.34 3 3 3Zm-4 8c1.65 0 3-1.35 3-3 0-1.66-1.35-3-3-3 -1.66 0-3 1.34-3 3 0 1.65 1.34 3 3 3Zm13-5c0 1.65-1.35 3-3 3 -1.66 0-3-1.35-3-3 0-1.66 1.34-3 3-3 1.65 0 3 1.34 3 3Z"/></g></g></svg>