<svg viewBox="0 0 24 24" xmlns="http://www.w3.org/2000/svg"><g><g fill="#12131A"><path opacity=".25" d="M3 7.8c0-1.69 0-2.53.32-3.17 .28-.57.74-1.03 1.31-1.32 .64-.33 1.48-.33 3.16-.33h8.4c1.68 0 2.52 0 3.16.32 .56.28 1.02.74 1.31 1.31 .32.64.32 1.48.32 3.16v8.4c0 1.68 0 2.52-.33 3.16 -.29.56-.75 1.02-1.32 1.31 -.65.32-1.49.32-3.17.32h-8.4c-1.69 0-2.53 0-3.17-.33 -.57-.29-1.03-.75-1.32-1.32 -.33-.65-.33-1.49-.33-3.17v-8.4Z"/><path fill="#12131A" fill-rule="evenodd" d="M18.31 5.05c.52.17.8.74.63 1.26l-1.98 5.93c-.71 2.11-3.4 2.74-4.97 1.17l-1.43-1.43c-.53-.53-1.43-.32-1.66.39L6.92 18.3c-.18.52-.75.8-1.27.63 -.53-.18-.81-.75-.64-1.27l1.97-5.93c.7-2.12 3.39-2.75 4.96-1.18l1.42 1.42c.52.52 1.42.31 1.65-.4l1.97-5.93c.17-.53.74-.81 1.26-.64Z"/></g></g></svg>