<svg viewBox="0 0 24 24" xmlns="http://www.w3.org/2000/svg"><g><g fill="#12131A" fill-rule="evenodd"><path d="M7.15 9.08l1.47 2.94c-.7.08-1.33.41-1.79.89L5.35 9.96c.69-.09 1.32-.42 1.78-.9Zm3.13 3.2c.61.29 1.11.79 1.41 1.41l1.99-2c-.62-.3-1.12-.8-1.42-1.42l-2 1.99Zm6.86-1.21l1.47 2.94c-.7.08-1.33.41-1.79.89l-1.47-2.94c.69-.09 1.32-.42 1.78-.9Z"/><path d="M4 7c0 .55.44 1 1 1 .55 0 1-.45 1-1 0-.56-.45-1-1-1 -.56 0-1 .44-1 1ZM2 7c0 1.65 1.34 3 3 3 1.65 0 3-1.35 3-3 0-1.66-1.35-3-3-3C3.34 4 2 5.34 2 7Zm12 2c0 .55.44 1 1 1 .55 0 1-.45 1-1 0-.56-.45-1-1-1 -.56 0-1 .44-1 1Zm-2 0c0 1.65 1.34 3 3 3 1.65 0 3-1.35 3-3 0-1.66-1.35-3-3-3 -1.66 0-3 1.34-3 3Zm6 8c0 .55.44 1 1 1 .55 0 1-.45 1-1 0-.56-.45-1-1-1 -.56 0-1 .44-1 1Zm-2 0c0 1.65 1.34 3 3 3 1.65 0 3-1.35 3-3 0-1.66-1.35-3-3-3 -1.66 0-3 1.34-3 3Zm-7-1c-.56 0-1-.45-1-1 0-.56.44-1 1-1 .55 0 1 .44 1 1 0 .55-.45 1-1 1Zm0 2c-1.66 0-3-1.35-3-3 0-1.66 1.34-3 3-3 1.65 0 3 1.34 3 3 0 1.65-1.35 3-3 3Z"/></g></g></svg>