<svg viewBox="0 0 24 24" xmlns="http://www.w3.org/2000/svg"><g><path fill="#12131A" fill-rule="evenodd" d="M3.32 19.362c-.33-.65-.33-1.49-.33-3.17v-8.4c0-1.69 0-2.53.32-3.17 .28-.57.74-1.03 1.31-1.32 .64-.33 1.48-.33 3.16-.33h8.4c1.68 0 2.52 0 3.16.32 .56.28 1.02.74 1.31 1.31 .32.64.32 1.48.32 3.16v8.4c0 1.68 0 2.52-.33 3.16 -.29.56-.75 1.02-1.32 1.31 -.65.32-1.49.32-3.17.32h-8.4c-1.69 0-2.53 0-3.17-.33 -.57-.29-1.03-.75-1.32-1.32Zm15.62-1.68c.17.52-.11 1.09-.64 1.26 -.53.17-1.1-.11-1.27-.64l-1.98-5.93c-.24-.71-1.14-.92-1.66-.4l-1.43 1.42c-1.58 1.57-4.27.94-4.97-1.18l-1.98-5.93c-.18-.53.1-1.1.63-1.27 .52-.18 1.09.1 1.26.63l1.97 5.93c.23.7 1.13.91 1.65.39l1.42-1.43c1.577-1.58 4.26-.95 4.96 1.17l1.97 5.93Z"/></g></svg>