<svg viewBox="0 0 24 24" xmlns="http://www.w3.org/2000/svg"><g><g fill="#12131A"><path opacity=".25" d="M3 7.8c0-1.69 0-2.53.32-3.17 .28-.57.74-1.03 1.31-1.32 .64-.33 1.48-.33 3.16-.33h8.4c1.68 0 2.52 0 3.16.32 .56.28 1.02.74 1.31 1.31 .32.64.32 1.48.32 3.16v8.4c0 1.68 0 2.52-.33 3.16 -.29.56-.75 1.02-1.32 1.31 -.65.32-1.49.32-3.17.32h-8.4c-1.69 0-2.53 0-3.17-.33 -.57-.29-1.03-.75-1.32-1.32 -.33-.65-.33-1.49-.33-3.17v-8.4Z"/><path fill="#12131A" fill-rule="evenodd" d="M18.31 18.94c.52-.18.8-.75.63-1.27l-1.98-5.93c-.71-2.12-3.4-2.75-4.97-1.18l-1.43 1.42c-.53.52-1.43.31-1.66-.4L6.92 5.65c-.18-.53-.75-.81-1.27-.64 -.53.17-.81.74-.64 1.26l1.97 5.93c.7 2.11 3.39 2.74 4.96 1.17l1.42-1.43c.52-.53 1.42-.32 1.65.39l1.97 5.93c.17.52.74.8 1.26.63Z"/></g></g></svg>