<svg viewBox="0 0 24 24" xmlns="http://www.w3.org/2000/svg"><g><g fill="#12131A" fill-rule="evenodd"><path d="M13 7.5c0-.81.66-1.55 1.57-1.48 1.11.07 2.2.39 3.2.92 1.16.62 2.14 1.51 2.88 2.61 .73 1.09 1.18 2.35 1.3 3.66 .12 1.3-.07 2.63-.58 3.84s-1.3 2.28-2.32 3.12c-1.02.83-2.23 1.4-3.52 1.66 -1.3.25-2.63.19-3.89-.2 -1.08-.33-2.07-.88-2.92-1.61 -.69-.6-.64-1.59-.07-2.16l4.3-4.31V7.46Zm2 .58v5.5c0 .53-.22 1.03-.59 1.41l-3.9 3.89c.52.37 1.11.66 1.73.85 .94.28 1.94.33 2.91.14 .96-.2 1.87-.63 2.63-1.25 .76-.63 1.35-1.44 1.73-2.35 .37-.92.52-1.91.42-2.89 -.1-.99-.44-1.93-.99-2.75 -.55-.83-1.3-1.5-2.17-1.96 -.58-.31-1.2-.52-1.83-.63Z"/><path d="M9 4.06c-.84.14-1.63.45-2.34.92 -.99.65-1.76 1.59-2.21 2.69 -.46 1.09-.58 2.3-.35 3.46 .16.83.5 1.61.99 2.3l3.89-3.9V4.02Zm.42-2.07c.9-.07 1.57.67 1.57 1.47v6.08c0 .53-.22 1.03-.59 1.41l-4.31 4.3c-.58.57-1.57.61-2.16-.07 -.91-1.05-1.53-2.32-1.81-3.68 -.31-1.56-.16-3.17.45-4.63 .6-1.47 1.63-2.72 2.94-3.6C6.66 2.49 8 2.04 9.38 1.94Z"/></g></g></svg>