<svg viewBox="0 0 24 24" xmlns="http://www.w3.org/2000/svg"><g><g fill="#12131A" fill-rule="evenodd"><path d="M2.15 15.56c-.31-1.56-.16-3.17.45-4.63 .6-1.47 1.63-2.72 2.94-3.6C6.69 6.55 8.03 6.1 9.41 6c.9-.07 1.57.67 1.57 1.47v5.49h5.5c.8 0 1.54.66 1.47 1.57 -.1 1.38-.56 2.71-1.33 3.87 -.88 1.31-2.13 2.34-3.6 2.94 -1.47.6-3.08.76-4.63.45 -1.56-.31-2.98-1.08-4.1-2.19 -1.12-1.12-1.89-2.55-2.19-4.1Zm2.3-3.86c-.46 1.09-.58 2.3-.35 3.46 .23 1.16.8 2.23 1.64 3.07 .83.83 1.9 1.41 3.07 1.64 1.16.23 2.37.11 3.46-.35 1.09-.46 2.03-1.23 2.69-2.21 .47-.71.78-1.51.92-2.34h-4.92c-1.11 0-2-.9-2-2V8.05c-.84.14-1.63.45-2.34.92 -.99.65-1.76 1.59-2.21 2.69Z"/><path d="M13 3.5c0-.81.66-1.55 1.57-1.48 .85.06 1.69.25 2.49.58 .97.4 1.85.99 2.59 1.73 .74.74 1.33 1.62 1.73 2.59 .32.79.52 1.63.58 2.49 .06.9-.68 1.57-1.48 1.57h-5.5c-1.11 0-2-.9-2-2v-5.5Zm2 .58v4.91h4.91c-.08-.45-.2-.88-.38-1.3 -.31-.73-.75-1.39-1.31-1.95s-1.22-1-1.95-1.31c-.42-.18-.86-.3-1.3-.38Z"/></g></g></svg>