<svg viewBox="0 0 24 24" xmlns="http://www.w3.org/2000/svg"><g><g fill="#12131A"><path d="M13 21c0 .55.44 1 .99.94 .83-.1 1.66-.31 2.44-.63 1.09-.46 2.08-1.12 2.91-1.96 .83-.84 1.49-1.83 1.95-2.92 .32-.79.53-1.61.62-2.45 .06-.55-.4-1-.95-1h-7c-.56 0-1 .44-1 1v7Z"/><path d="M21 11c.55 0 1-.45.94-1 -.1-.84-.31-1.67-.63-2.45 -.46-1.1-1.12-2.09-1.96-2.92 -.84-.84-1.83-1.5-2.92-1.96 -.79-.33-1.61-.54-2.45-.63 -.55-.07-1 .39-1 .94v7c0 .55.44 1 1 1h7Z"/><path d="M11 4c0-.56-.45-1.01-1-.95 -2.02.22-3.92 1.12-5.37 2.58 -1.69 1.68-2.64 3.97-2.64 6.36 0 2.38.94 4.67 2.63 6.36 1.45 1.45 3.34 2.35 5.36 2.58 .54.06.99-.4.99-.95v-16Z"/></g></g></svg>