<svg viewBox="0 0 24 24" xmlns="http://www.w3.org/2000/svg"><g><g fill="#12131A" fill-rule="evenodd"><path d="M20.5 13c.8 0 1.54.66 1.47 1.57 -.07.85-.26 1.69-.59 2.49 -.41.97-1 1.85-1.74 2.59 -.75.74-1.63 1.33-2.6 1.73 -.8.32-1.64.52-2.5.58 -.91.06-1.58-.68-1.58-1.48v-6c0-.83.67-1.5 1.5-1.5h6Zm-.59 2h-4.92v4.91c.44-.08.87-.2 1.29-.38 .72-.31 1.38-.75 1.94-1.31 .55-.56.99-1.22 1.3-1.95 .17-.42.29-.86.37-1.3Z"/><path d="M19.91 9c-.08-.45-.2-.88-.38-1.3 -.31-.73-.75-1.39-1.31-1.95s-1.22-1-1.95-1.31c-.42-.18-.86-.3-1.3-.38v4.91h4.91Zm2.06.42c.06.9-.68 1.57-1.48 1.57h-6c-.83 0-1.5-.68-1.5-1.5v-6c0-.81.66-1.55 1.57-1.48 .85.06 1.69.25 2.49.58 .97.4 1.85.99 2.59 1.73 .74.74 1.33 1.62 1.73 2.59 .32.79.52 1.63.58 2.49Z"/><path d="M4.34 17.65c-1.51-1.51-2.35-3.54-2.35-5.66 0-2.13.84-4.16 2.34-5.66C5.69 4.96 7.5 4.14 9.41 4c.9-.07 1.57.67 1.57 1.47v12.99c0 .8-.67 1.54-1.58 1.47 -1.92-.14-3.73-.96-5.09-2.33Zm-.35-5.66c0 1.59.63 3.11 1.75 4.24 .88.88 2.02 1.46 3.24 1.67V6.06c-1.23.2-2.36.78-3.25 1.67 -1.13 1.12-1.76 2.65-1.76 4.24Z"/></g></g></svg>