<svg viewBox="0 0 24 24" xmlns="http://www.w3.org/2000/svg"><g><g fill="#12131A"><path d="M22 16.72v-2.11l-7.14-2.38c-.55-.19-1.13-.21-1.68-.07l-2.87.71c-.19.04-.38.03-.56-.03l-7.77-2.59v2.1l7.13 2.37c.54.18 1.12.2 1.67.06l2.87-.72c.18-.05.37-.04.55.02l7.76 2.58Z"/><path fill="#12131A" fill-rule="evenodd" d="M4 7c0-.81.9-1.28 1.56-.83l3.12 2.14c.7.48 1.58.64 2.42.43l2.34-.59c.25-.07.51-.03.73.1l5.29 3.02c.31.17.5.5.5.86v4.83c0 .55-.45 1-1 1h-14c-.56 0-1-.45-1-1v-10Zm2.69-2.48c-2-1.37-4.7.06-4.7 2.47v9.99c0 1.65 1.34 3 3 3h14c1.65 0 3-1.35 3-3v-4.84c0-1.08-.58-2.08-1.52-2.61l-5.3-3.03c-.68-.39-1.47-.5-2.22-.31l-2.35.58c-.28.06-.58.01-.81-.15L6.66 4.47Z"/></g></g></svg>