<svg viewBox="0 0 24 24" xmlns="http://www.w3.org/2000/svg"><g><g fill="#12131A" fill-rule="evenodd"><path d="M11 11c-.56 0-1 .44-1 1 0 .55.44 1 1 1h2c.55 0 1-.45 1-1 0-.56-.45-1-1-1h-2Zm-1 5c0-.56.44-1 1-1h2c.55 0 1 .44 1 1 0 .55-.45 1-1 1h-2c-.56 0-1-.45-1-1Zm0 4c0-.56.44-1 1-1h2c.55 0 1 .44 1 1 0 .55-.45 1-1 1h-2c-.56 0-1-.45-1-1Z"/><path d="M18 7c-.56 0-1 .44-1 1 0 .55.44 1 1 1h2c.55 0 1-.45 1-1 0-.56-.45-1-1-1h-2Zm-1 5c0-.56.44-1 1-1h2c.55 0 1 .44 1 1 0 .55-.45 1-1 1h-2c-.56 0-1-.45-1-1Zm1 3c-.56 0-1 .44-1 1 0 .55.44 1 1 1h2c.55 0 1-.45 1-1 0-.56-.45-1-1-1h-2Zm0 4c-.56 0-1 .44-1 1 0 .55.44 1 1 1h2c.55 0 1-.45 1-1 0-.56-.45-1-1-1h-2Z"/><path d="M4 3c-.56 0-1 .44-1 1 0 .55.44 1 1 1h2c.55 0 1-.45 1-1 0-.56-.45-1-1-1H4ZM3 8c0-.56.44-1 1-1h2c.55 0 1 .44 1 1 0 .55-.45 1-1 1H4c-.56 0-1-.45-1-1Zm1 3c-.56 0-1 .44-1 1 0 .55.44 1 1 1h2c.55 0 1-.45 1-1 0-.56-.45-1-1-1H4Zm-1 5c0-.56.44-1 1-1h2c.55 0 1 .44 1 1 0 .55-.45 1-1 1H4c-.56 0-1-.45-1-1Zm0 4c0-.56.44-1 1-1h2c.55 0 1 .44 1 1 0 .55-.45 1-1 1H4c-.56 0-1-.45-1-1Z"/></g></g></svg>