<svg viewBox="0 0 24 24" xmlns="http://www.w3.org/2000/svg"><g><g fill="#12131A"><path d="M2.34 16.6c-.21.06-.35.25-.35.47v.91c0 1.1.89 2 2 2h16c1.1 0 2-.9 2-2v-4.92c0-.35-.34-.59-.66-.48l-6.48 2.15c-.55.18-1.13.2-1.68.06l-2.87-.72c-.19-.05-.38-.04-.56.02l-7.43 2.47Z"/><path d="M19.07 4.23c1.33-.7 2.92.27 2.92 1.77v3.91c0 .21-.14.4-.35.47l-7.43 2.474c-.19.06-.38.06-.56.02l-2.87-.72c-.56-.14-1.14-.12-1.68.06l-6.48 2.15c-.33.1-.66-.14-.66-.48v-2.34c0-.72.38-1.39 1-1.74L9.1 6.28c.44-.26.97-.33 1.47-.21l2.875.71c.23.05.48.02.7-.09L19 4.15Z"/></g></g></svg>