<svg viewBox="0 0 24 24" xmlns="http://www.w3.org/2000/svg"><g><g fill="#12131A" fill-rule="evenodd"><path d="M3 10c.55 0 1 .44 1 1v8c0 .55-.45 1-1 1 -.56 0-1-.45-1-1v-8c0-.56.44-1 1-1Zm7 3c0-.56-.45-1-1-1 -.56 0-1 .44-1 1v6c0 .55.44 1 1 1 .55 0 1-.45 1-1v-6Zm5 1c.55 0 1 .44 1 1v4c0 .55-.45 1-1 1 -.56 0-1-.45-1-1v-4c0-.56.44-1 1-1Zm6 2c.55 0 1 .44 1 1v2c0 .55-.45 1-1 1 -.56 0-1-.45-1-1v-2c0-.56.44-1 1-1Z"/><path d="M3 4c.55 0 1 .44 1 1v2c0 .55-.45 1-1 1 -.56 0-1-.45-1-1V5c0-.56.44-1 1-1Zm7 1c0-.56-.45-1-1-1 -.56 0-1 .44-1 1v4c0 .55.44 1 1 1 .55 0 1-.45 1-1V5Zm5-1c.55 0 1 .44 1 1v6c0 .55-.45 1-1 1 -.56 0-1-.45-1-1V5c0-.56.44-1 1-1Zm6 0c.55 0 1 .44 1 1v8c0 .55-.45 1-1 1 -.56 0-1-.45-1-1V5c0-.56.44-1 1-1Z"/></g></g></svg>