<svg viewBox="0 0 24 24" xmlns="http://www.w3.org/2000/svg"><g><g fill="#12131A"><path d="M21.65 16.6c.2.06.34.25.34.47v.91c0 1.1-.9 2-2 2h-16c-1.11 0-2-.9-2-2v-4.92c0-.35.33-.59.65-.48l6.47 2.15c.54.18 1.12.2 1.67.06l2.87-.72c.18-.05.37-.04.55.02l7.42 2.47Z"/><path d="M4.92 4.23C3.58 3.53 1.99 4.5 1.99 6v3.91c0 .21.13.4.34.47l7.42 2.474c.18.06.37.06.55.02l2.86-.72c.55-.14 1.13-.12 1.67.06l6.47 2.15c.32.1.65-.14.65-.48v-2.34c0-.72-.39-1.39-1.01-1.74l-6.15-3.52c-.45-.26-.98-.33-1.48-.21l-2.875.71c-.24.05-.49.02-.71-.09L4.85 4.15Z"/></g></g></svg>