<svg viewBox="0 0 24 24" xmlns="http://www.w3.org/2000/svg"><g><g fill="#12131A"><path d="M2 16.72v-2.11l7.13-2.38c.54-.19 1.12-.21 1.67-.07l2.86.71c.18.04.37.03.55-.03l7.76-2.59v2.1l-7.14 2.37c-.55.18-1.13.2-1.68.06l-2.87-.72c-.19-.05-.38-.04-.56.02l-7.77 2.58Z"/><path fill="#12131A" fill-rule="evenodd" d="M20 7c0-.81-.91-1.28-1.57-.83L15.3 8.31c-.71.48-1.59.64-2.43.43l-2.35-.59c-.26-.07-.52-.03-.74.1l-5.3 3.02c-.32.17-.51.5-.51.86v4.83c0 .55.44 1 1 1h14c.55 0 1-.45 1-1v-10Zm-2.7-2.48c1.99-1.37 4.69.06 4.69 2.47v9.99c0 1.65-1.35 3-3 3h-14c-1.66 0-3-1.35-3-3v-4.84c0-1.08.57-2.08 1.51-2.61L8.79 6.5c.67-.39 1.46-.5 2.21-.31l2.34.58c.27.06.57.01.8-.15l3.12-2.15Z"/></g></g></svg>